<?xml version="1.0" encoding="utf-8"?>
<!-- Generator: Adobe Illustrator 24.0.2, SVG Export Plug-In . SVG Version: 6.00 Build 0)  -->
<svg version="1.1" id="Capa_1" xmlns="http://www.w3.org/2000/svg" xmlns:xlink="http://www.w3.org/1999/xlink" x="0px" y="0px"
	 viewBox="0 0 218.4 24.4" style="enable-background:new 0 0 218.4 24.4;" xml:space="preserve">
<style type="text/css">
	.st0{fill:#1B1B1B;}
</style>
<g>
	<path class="st0" d="M18.4,11.3c0.7,0.1,1.6,0.3,2.4,0.5c0.9,0.2,1.7,0.6,2.4,1c0.7,0.5,1.4,1,1.9,1.7c0.5,0.7,0.8,1.6,0.8,2.6
		c0,0.8-0.1,1.4-0.3,2s-0.5,1.1-0.8,1.5c-0.3,0.4-0.7,0.8-1.2,1.1c-0.4,0.3-0.9,0.5-1.3,0.7c-1.1,0.4-2.3,0.7-3.7,0.7H0v-0.3h3.2
		v-22H0V0.7h17c1.3,0.1,2.4,0.3,3.4,0.6c0.4,0.2,0.8,0.4,1.3,0.6c0.4,0.2,0.8,0.5,1.1,0.9c0.3,0.4,0.6,0.8,0.8,1.2
		c0.2,0.5,0.3,1,0.3,1.6c0,0.6-0.1,1.2-0.4,1.7s-0.6,1-1,1.4c-0.4,0.4-0.8,0.8-1.3,1.1s-0.9,0.5-1.3,0.7c-0.4,0.2-0.8,0.3-1,0.4
		C18.6,11.2,18.4,11.2,18.4,11.3L18.4,11.3z M10.6,0.9v10.2h0.4c1.1,0,2.1-0.2,3-0.6c0.4-0.1,0.8-0.3,1.1-0.6c0.4-0.2,0.7-0.5,1-0.9
		c0.3-0.3,0.5-0.7,0.7-1.2C16.9,7.5,17,7,17,6.4V5.7c0-1.2-0.2-2.1-0.7-2.7s-1-1.1-1.6-1.4C14,1.2,13.2,1,12.4,0.9H10.6z M12.1,22.9
		c1.1-0.1,2.1-0.3,3-0.7c0.4-0.2,0.7-0.4,1.1-0.7c0.4-0.3,0.7-0.6,1-1c0.3-0.4,0.5-0.9,0.7-1.4c0.2-0.5,0.3-1.2,0.3-1.9
		c0-0.9-0.1-1.7-0.4-2.4s-0.6-1.2-1.1-1.6c-0.4-0.4-0.9-0.8-1.4-1s-1-0.4-1.4-0.5s-0.8-0.2-1.1-0.2c-0.3,0-0.5,0-0.5,0h-1.6v11.5
		H12.1z"/>
	<path class="st0" d="M37.7,22.9v0.3H26.5v-0.3h2.4V6.8h-2.4V6.6c0.6,0,1.3,0,2.2,0s1.7-0.1,2.5-0.1s1.6-0.1,2.4-0.2
		c0.7-0.1,1.3-0.2,1.8-0.3v17H37.7z M35.5,1.5c-0.2-0.3-0.5-0.6-0.8-0.8c-0.3-0.2-0.7-0.4-1.2-0.5C33.1,0.1,32.6,0,32.1,0
		c-0.5,0-1,0.1-1.4,0.2c-0.4,0.1-0.8,0.3-1.2,0.5c-0.3,0.2-0.6,0.5-0.8,0.8c-0.2,0.3-0.3,0.6-0.3,1s0.1,0.7,0.3,1
		C29,3.7,29.3,4,29.6,4.2c0.3,0.2,0.7,0.4,1.2,0.5c0.4,0.1,0.9,0.2,1.4,0.2c0.5,0,1-0.1,1.4-0.2c0.4-0.1,0.8-0.3,1.2-0.5
		C35,4,35.3,3.7,35.5,3.4c0.2-0.3,0.3-0.6,0.3-1S35.7,1.8,35.5,1.5z"/>
	<path class="st0" d="M45.5,15.2c0,0.8,0,1.7,0.1,2.5c0.1,0.9,0.3,1.6,0.6,2.3c0.3,0.7,0.8,1.2,1.4,1.7c0.6,0.4,1.4,0.6,2.5,0.6
		c0.8,0,1.5-0.1,2-0.4c0.6-0.3,1.1-0.6,1.5-1.1c0.4-0.5,0.8-1,1.1-1.6c0.3-0.6,0.6-1.2,0.8-1.8l0.3,0c-0.3,0.9-0.6,1.6-1,2.4
		c-0.4,0.7-0.8,1.4-1.4,1.9c-0.6,0.5-1.3,1-2.2,1.3c-0.9,0.3-1.9,0.4-3.2,0.4c-0.6,0-1.1,0-1.5,0c-0.4,0-0.9-0.1-1.4-0.2
		C45,23,44.5,22.9,44,22.6s-1.1-0.6-1.8-1c-0.9-0.6-1.7-1.4-2.3-2.6c-0.6-1.2-0.9-2.6-0.9-4.3c0-1.3,0.2-2.4,0.5-3.4
		c0.4-0.9,0.8-1.7,1.4-2.4c0.6-0.6,1.2-1.2,1.9-1.5c0.7-0.4,1.4-0.7,2.1-0.9c0.7-0.2,1.4-0.3,2-0.4c0.6-0.1,1.2-0.1,1.6-0.1
		c0.9,0,1.8,0.1,2.8,0.3c1,0.2,1.8,0.5,2.6,0.9c0.8,0.4,1.4,1,1.9,1.8s0.8,1.7,0.8,2.8c0,0.7-0.2,1.2-0.6,1.6
		c-0.4,0.4-0.9,0.7-1.5,0.9s-1.2,0.3-1.9,0.4c-0.7,0-1.3,0.1-1.9,0.1h-5.2V15.2z M47.8,6.4c-0.5,0-1,0.2-1.3,0.6S46.1,8,45.9,8.6
		c-0.2,0.6-0.3,1.3-0.3,2s-0.1,1.4-0.1,2.1v1.7h2.8c0.1,0,0.3,0,0.7-0.1c0.3,0,0.6-0.2,0.9-0.4c0.1-0.1,0.2-0.3,0.3-0.5
		c0.1-0.2,0.1-0.4,0.2-0.6s0.1-0.4,0.1-0.5c0-0.2,0-0.3,0-0.3c0-1.2-0.1-2.1-0.2-2.8s-0.3-1.3-0.6-1.7c-0.2-0.4-0.5-0.7-0.8-0.8
		c-0.3-0.1-0.6-0.2-0.9-0.2H47.8z"/>
	<path class="st0" d="M78.4,23.2h-2.8c-1,0-1.9-0.1-2.6-0.4c-0.7-0.2-1.3-0.6-1.8-1s-0.8-0.9-1-1.5c-0.2-0.6-0.3-1.2-0.3-1.9V9.4
		c0-0.4,0-0.9-0.1-1.3c-0.1-0.4-0.3-0.8-0.5-1.1c-0.1-0.1-0.3-0.3-0.5-0.3c-0.2-0.1-0.4-0.1-0.6-0.1s-0.4,0.1-0.5,0.2
		c-0.2,0.1-0.3,0.3-0.5,0.4c-0.2,0.2-0.4,0.5-0.5,0.8c-0.1,0.3-0.2,0.7-0.3,1.1c-0.1,0.4-0.2,0.8-0.2,1.2c0,0.4-0.1,0.7-0.1,1v11.6
		h2.4v0.3H57.1v-0.3h2.4V6.8h-2.4V6.6c0.6,0,1.3,0,2.2,0s1.7-0.1,2.6-0.1s1.7-0.1,2.4-0.2C65,6.1,65.6,6,66.1,5.9v2.4
		c0.2-0.4,0.4-0.7,0.5-0.9c0.2-0.2,0.4-0.5,0.8-0.7C67.9,6.3,68.5,6,69,5.8c0.6-0.2,1.2-0.3,1.8-0.3c0.6,0,1.3,0.1,2.1,0.2
		c0.7,0.1,1.4,0.3,1.9,0.7c0.6,0.4,1,0.9,1.3,1.5c0.1,0.2,0.2,0.5,0.3,0.7s0.1,0.5,0.1,0.8v9.4c0,1.3,0.1,2.3,0.4,3
		c0.3,0.7,0.8,1.1,1.5,1.1V23.2z"/>
	<path class="st0" d="M98.1,6.6v0.3h-0.4c-0.4,0-0.8,0-1,0.1s-0.5,0.2-0.8,0.3c-0.4,0.2-0.6,0.5-0.8,0.9c-0.2,0.4-0.3,0.7-0.4,0.9
		l-3.5,14.1h-4.7c-1.1-3-2.2-5.8-3.2-8.2c-0.4-1-0.9-2-1.3-3c-0.5-1-0.9-1.8-1.3-2.6c-0.4-0.8-0.8-1.4-1.2-1.9
		c-0.4-0.5-0.6-0.7-0.9-0.7h-0.2V6.6h1c1.2,0,2.3,0.1,3.1,0.2c0.9,0.1,1.6,0.3,2.2,0.6s1.2,0.6,1.6,1.1c0.4,0.5,0.8,1,1.2,1.8
		l4.2,9.9l2.7-10.9c0.1-0.5,0.2-0.8,0.2-1c0-0.2,0-0.4-0.1-0.5s-0.1-0.2-0.2-0.3c-0.1-0.2-0.3-0.4-0.6-0.4s-0.5-0.1-0.7-0.1h-0.6
		V6.6H98.1z"/>
	<path class="st0" d="M104,15.2c0,0.8,0,1.7,0.1,2.5c0.1,0.9,0.3,1.6,0.6,2.3c0.3,0.7,0.8,1.2,1.4,1.7c0.6,0.4,1.4,0.6,2.5,0.6
		c0.8,0,1.5-0.1,2-0.4c0.6-0.3,1.1-0.6,1.5-1.1c0.4-0.5,0.8-1,1.1-1.6c0.3-0.6,0.6-1.2,0.8-1.8l0.3,0c-0.3,0.9-0.6,1.6-1,2.4
		c-0.4,0.7-0.8,1.4-1.4,1.9c-0.6,0.5-1.3,1-2.2,1.3c-0.9,0.3-1.9,0.4-3.2,0.4c-0.6,0-1.1,0-1.5,0c-0.4,0-0.9-0.1-1.4-0.2
		c-0.5-0.1-0.9-0.3-1.5-0.5s-1.1-0.6-1.8-1c-0.9-0.6-1.7-1.4-2.3-2.6c-0.6-1.2-0.9-2.6-0.9-4.3c0-1.3,0.2-2.4,0.5-3.4
		c0.4-0.9,0.8-1.7,1.4-2.4c0.6-0.6,1.2-1.2,1.9-1.5c0.7-0.4,1.4-0.7,2.1-0.9c0.7-0.2,1.4-0.3,2-0.4c0.6-0.1,1.2-0.1,1.6-0.1
		c0.9,0,1.8,0.1,2.8,0.3c1,0.2,1.8,0.5,2.6,0.9c0.8,0.4,1.4,1,1.9,1.8s0.8,1.7,0.8,2.8c0,0.7-0.2,1.2-0.6,1.6
		c-0.4,0.4-0.9,0.7-1.5,0.9s-1.2,0.3-1.9,0.4c-0.7,0-1.3,0.1-1.9,0.1H104V15.2z M106.3,6.4c-0.5,0-1,0.2-1.3,0.6s-0.5,0.9-0.7,1.5
		c-0.2,0.6-0.3,1.3-0.3,2s-0.1,1.4-0.1,2.1v1.7h2.8c0.1,0,0.3,0,0.7-0.1c0.3,0,0.6-0.2,0.9-0.4c0.1-0.1,0.2-0.3,0.3-0.5
		c0.1-0.2,0.1-0.4,0.2-0.6s0.1-0.4,0.1-0.5c0-0.2,0-0.3,0-0.3c0-1.2-0.1-2.1-0.2-2.8s-0.3-1.3-0.6-1.7c-0.2-0.4-0.5-0.7-0.8-0.8
		c-0.3-0.1-0.6-0.2-0.9-0.2H106.3z"/>
	<path class="st0" d="M136.9,23.2H134c-1,0-1.9-0.1-2.6-0.4c-0.7-0.2-1.3-0.6-1.8-1s-0.8-0.9-1-1.5c-0.2-0.6-0.3-1.2-0.3-1.9V9.4
		c0-0.4,0-0.9-0.1-1.3c-0.1-0.4-0.3-0.8-0.5-1.1c-0.1-0.1-0.3-0.3-0.5-0.3c-0.2-0.1-0.4-0.1-0.6-0.1s-0.4,0.1-0.5,0.2
		c-0.2,0.1-0.3,0.3-0.5,0.4c-0.2,0.2-0.4,0.5-0.5,0.8c-0.1,0.3-0.2,0.7-0.3,1.1c-0.1,0.4-0.2,0.8-0.2,1.2c0,0.4-0.1,0.7-0.1,1v11.6
		h2.4v0.3h-11.4v-0.3h2.4V6.8h-2.4V6.6c0.6,0,1.3,0,2.2,0s1.7-0.1,2.6-0.1s1.7-0.1,2.4-0.2c0.8-0.1,1.4-0.2,1.8-0.3v2.4
		c0.2-0.4,0.4-0.7,0.5-0.9c0.2-0.2,0.4-0.5,0.8-0.7c0.5-0.4,1.1-0.7,1.6-0.9c0.6-0.2,1.2-0.3,1.8-0.3c0.6,0,1.3,0.1,2.1,0.2
		c0.7,0.1,1.4,0.3,1.9,0.7c0.6,0.4,1,0.9,1.3,1.5c0.1,0.2,0.2,0.5,0.3,0.7s0.1,0.5,0.1,0.8v9.4c0,1.3,0.1,2.3,0.4,3
		c0.3,0.7,0.8,1.1,1.5,1.1V23.2z"/>
	<path class="st0" d="M148.8,22.9v0.3h-11.3v-0.3h2.4V6.8h-2.4V6.6c0.6,0,1.3,0,2.2,0s1.7-0.1,2.5-0.1s1.6-0.1,2.4-0.2
		c0.7-0.1,1.3-0.2,1.8-0.3v17H148.8z M146.5,1.5c-0.2-0.3-0.5-0.6-0.8-0.8c-0.3-0.2-0.7-0.4-1.2-0.5c-0.4-0.1-0.9-0.2-1.4-0.2
		c-0.5,0-1,0.1-1.4,0.2c-0.4,0.1-0.8,0.3-1.2,0.5c-0.3,0.2-0.6,0.5-0.8,0.8c-0.2,0.3-0.3,0.6-0.3,1s0.1,0.7,0.3,1
		c0.2,0.3,0.5,0.6,0.8,0.8c0.3,0.2,0.7,0.4,1.2,0.5c0.4,0.1,0.9,0.2,1.4,0.2c0.5,0,1-0.1,1.4-0.2c0.4-0.1,0.8-0.3,1.2-0.5
		c0.3-0.2,0.6-0.5,0.8-0.8c0.2-0.3,0.3-0.6,0.3-1S146.7,1.8,146.5,1.5z"/>
	<path class="st0" d="M169.4,22.9v0.3h-8.3v-1.9c-0.1,0.2-0.2,0.4-0.4,0.6c-0.1,0.2-0.3,0.4-0.6,0.7c-0.1,0.1-0.3,0.2-0.4,0.3
		c-0.1,0.1-0.3,0.2-0.4,0.2c-0.2,0.1-0.3,0.1-0.4,0.2c-0.5,0.1-1.1,0.2-1.6,0.2c-0.7,0-1.3-0.1-2.1-0.3c-0.7-0.2-1.4-0.4-2.1-0.8
		c-0.8-0.4-1.4-1-1.8-1.5s-0.9-1.2-1.1-1.9c-0.3-0.7-0.5-1.4-0.6-2.1c-0.1-0.7-0.1-1.4-0.1-2.1c0-0.7,0-1.4,0.1-2.1
		c0.1-0.7,0.3-1.4,0.6-2.1c0.3-0.7,0.7-1.3,1.1-1.9s1.1-1.1,1.8-1.5c0.6-0.4,1.2-0.6,1.9-0.8c0.6-0.2,1.2-0.2,1.8-0.2
		c0.7,0,1.4,0.1,1.9,0.3s1,0.5,1.3,0.9c0.2,0.2,0.4,0.5,0.6,0.7c0.2,0.2,0.3,0.4,0.4,0.6V0.9h-2.4V0.7h2.4c0.8,0,1.6-0.1,2.3-0.2
		c0.6,0,1.3-0.1,1.9-0.2c0.7-0.1,1.2-0.2,1.7-0.3v22.9H169.4z M161.1,11.4c0-0.4,0-0.8,0-1.3c0-0.4-0.1-0.8-0.2-1.2
		c-0.1-0.3-0.2-0.6-0.4-0.9c-0.1-0.3-0.3-0.5-0.5-0.7c-0.2-0.2-0.4-0.4-0.6-0.4c-0.2-0.1-0.3-0.1-0.5-0.1c-0.4,0-0.7,0.1-1,0.4
		c-0.3,0.3-0.6,0.6-0.8,0.9c-0.4,0.6-0.6,1.5-0.7,2.7c-0.1,1.2-0.1,2.5-0.1,3.9c0,1.4,0,2.6,0.1,3.8c0.1,1.1,0.3,2,0.7,2.6
		c0.1,0.1,0.2,0.3,0.3,0.5c0.1,0.2,0.3,0.4,0.5,0.5c0.2,0.2,0.4,0.3,0.6,0.5c0.2,0.1,0.5,0.2,0.7,0.2c0.2,0,0.3,0,0.4-0.1
		c0.1-0.1,0.3-0.2,0.5-0.4c0.2-0.2,0.3-0.4,0.4-0.6c0.1-0.3,0.2-0.5,0.3-0.8c0.2-0.7,0.3-1.4,0.3-2.1V11.4z"/>
	<path class="st0" d="M187.7,22.9v0.3h-8.3v-2l-0.2,0.1c-0.8,0.4-1.7,0.9-2.6,1.3c-1,0.4-1.9,0.7-2.9,0.7h-0.2
		c-0.5,0-0.9-0.1-1.3-0.3c-0.4-0.2-0.8-0.4-1.2-0.7c-0.3-0.3-0.6-0.7-0.8-1.2c-0.2-0.5-0.3-1-0.3-1.6c0-0.3,0.1-0.7,0.2-1
		c0.1-0.3,0.2-0.6,0.4-0.9c0.1-0.2,0.3-0.5,0.6-0.7c0.3-0.3,0.6-0.5,0.9-0.8s0.7-0.5,1.1-0.8c0.4-0.2,0.7-0.5,1.1-0.7
		c0.8-0.5,1.7-0.9,2.6-1.4c0.9-0.5,1.8-0.9,2.6-1.3v-0.8c0-0.6,0-1.1-0.1-1.7c-0.1-0.6-0.2-1.1-0.4-1.5c-0.2-0.4-0.6-0.8-1-1.1
		c-0.4-0.3-1-0.4-1.8-0.4c-0.3,0-0.5,0-0.8,0c-0.3,0-0.5,0.1-0.8,0.2c-0.2,0.1-0.4,0.2-0.5,0.4c-0.2,0.2-0.2,0.4-0.2,0.6
		c0,0.3,0.1,0.6,0.4,0.8s0.5,0.4,0.8,0.6c0.3,0.2,0.6,0.4,0.8,0.7c0.2,0.3,0.4,0.6,0.4,1c0,0.7-0.2,1.2-0.7,1.6
		c-0.5,0.4-1,0.6-1.6,0.6c-0.4,0-0.7-0.1-1.1-0.2c-0.4-0.1-0.7-0.3-1-0.6s-0.5-0.6-0.7-0.9c-0.2-0.3-0.3-0.7-0.3-1.1
		c0-0.9,0.3-1.6,0.8-2.1s1.2-1,1.9-1.3c0.8-0.3,1.6-0.5,2.5-0.6c0.9-0.1,1.6-0.1,2.3-0.1c0.8,0,1.6,0.1,2.4,0.2
		c0.8,0.1,1.6,0.4,2.2,0.8c0.7,0.4,1.2,0.9,1.6,1.5c0.4,0.7,0.6,1.5,0.6,2.5v11.9H187.7z M178.3,21.4c0.2-0.1,0.4-0.2,0.6-0.3
		c0.2-0.1,0.4-0.2,0.6-0.3v-8.5c-0.5,0.2-0.9,0.5-1.3,0.9c-0.4,0.4-0.7,0.8-1,1.3s-0.5,1-0.6,1.6c-0.2,0.6-0.2,1.1-0.2,1.7v2
		c0,0.4,0.2,0.8,0.5,1.2c0.3,0.4,0.7,0.6,1.1,0.6C178,21.5,178.1,21.5,178.3,21.4z"/>
	<path class="st0" d="M187.7,24.4l9-23.3h2.2l-9,23.3H187.7z"/>
	<path class="st0" d="M215.1,7.9c0.9,0.6,1.7,1.5,2.3,2.6c0.6,1.2,0.9,2.6,0.9,4.3s-0.3,3.1-0.9,4.3c-0.6,1.2-1.4,2-2.3,2.6
		c-0.7,0.4-1.3,0.8-1.8,1s-0.9,0.4-1.3,0.5c-0.4,0.1-0.8,0.2-1.3,0.2c-0.4,0-0.9,0-1.5,0H209c-0.6,0-1.1,0-1.5,0s-0.9-0.1-1.3-0.2
		c-0.5-0.1-0.9-0.3-1.4-0.5s-1.1-0.6-1.8-1c-0.9-0.6-1.7-1.4-2.3-2.6c-0.6-1.2-0.9-2.6-0.9-4.3s0.3-3.1,0.9-4.3
		c0.6-1.2,1.4-2,2.3-2.6c0.7-0.5,1.3-0.8,1.8-1c0.5-0.2,0.9-0.4,1.4-0.5c0.4-0.1,0.8-0.2,1.3-0.2c0.4,0,0.9,0,1.5,0h0.5
		c0.6,0,1.1,0,1.5,0c0.4,0,0.8,0.1,1.3,0.2c0.4,0.1,0.9,0.3,1.3,0.5C213.9,7.1,214.5,7.4,215.1,7.9z M210.8,22.2
		c0.2-0.3,0.4-0.7,0.5-1.2c0.1-0.5,0.2-1.1,0.3-1.7c0.1-0.7,0.1-1.4,0.1-2.1c0-0.8,0-1.6,0-2.4s0-1.6,0-2.4s-0.1-1.5-0.2-2.1
		c-0.1-0.7-0.2-1.2-0.3-1.7c-0.2-0.5-0.3-0.9-0.6-1.1c-0.5-0.5-0.8-0.8-1.1-0.9c-0.2-0.1-0.4-0.1-0.6-0.1c-0.1,0-0.3,0-0.6,0.1
		c-0.3,0.1-0.6,0.4-1.1,0.9c-0.2,0.3-0.4,0.6-0.6,1.1c-0.2,0.5-0.3,1.1-0.4,1.7c-0.1,0.7-0.1,1.4-0.2,2.1c0,0.8,0,1.6,0,2.4
		s0,1.6,0,2.4c0,0.8,0.1,1.5,0.2,2.1s0.2,1.2,0.4,1.7c0.1,0.5,0.3,0.9,0.6,1.2c0.3,0.3,0.6,0.6,0.9,0.7c0.3,0.2,0.6,0.3,0.7,0.3h0.3
		C209.9,23.2,210.4,22.8,210.8,22.2z"/>
</g>
</svg>
