<?xml version="1.0" encoding="utf-8"?>
<!-- Generator: Adobe Illustrator 24.0.2, SVG Export Plug-In . SVG Version: 6.00 Build 0)  -->
<svg version="1.1" id="Capa_1" xmlns="http://www.w3.org/2000/svg" xmlns:xlink="http://www.w3.org/1999/xlink" x="0px" y="0px"
	 viewBox="0 0 247 65.6" style="enable-background:new 0 0 247 65.6;" xml:space="preserve">
<style type="text/css">
	.st0{fill:#1B1B1B;}
</style>
<g>
	<path class="st0" d="M103.2,55.5c2.2-5.5,4.3-11.6,4.4-11.1c0,0-16.3-0.1-40.7,6.4C55.9,53.6,42.8,58,30.8,63
		c-1.2,0.5-1.8,0.3-1.8-0.7c0-2.1,21.5-12.4,34.7-16.7L75,42v-6.4c0-6.4-0.1-6.6-8.3-19.5C62.1,8.9,58,2.4,57.6,1.8
		c-0.5-1,0.4-1.3,3.3-1.3h4l6.8,11c3.7,6.1,7,11,7.3,11s3.4-5,7-11l6.5-10.9l4.3-0.1h4.3l-3.4,5.3c-1.9,2.8-6.1,9.5-9.5,14.8
		C82.6,29.2,82,30.7,82,35.4c0,4.5,0.2,5.2,1.8,4.7c2.8-0.8,13.2-2.4,20.4-3.2l6.7-0.6l2.5-6.2c1.5-3.3,4.8-11.5,7.4-18.1
		c4.3-10.6,5.1-12,7.2-12c2,0,2.8,1,4.8,6c11.8,29.7,12.2,30.4,15.5,30.9c1.8,0.2,7.7,1.2,13.2,2c5.5,0.9,11,2.1,11.5,2.1V6.5h-7.5
		H158v-3v-3h18.5H195v3v3h-7.5H180c0.2,5.9,0.2,30.4,0,36l9,3.2c11.5,3.8,34,14.8,34,16.6c0,1-0.6,1.2-1.7,0.7
		c-12.1-4.9-25.2-9.3-35.8-12c-12.6-3.2-35.3-7-36.3-6.1c-0.4,0.5,1.8,6.3,6.3,16.9l1.6,3.8l-4.3-0.3l-4.2-0.3l-4.1-10.5L140.4,44
		H128h-12.3l-4.1,10.5L107.4,65l-4.1,0.3l-4.2,0.3L103.2,55.5z M137.1,36.1c-3.7-10-8.7-22.6-9.1-22.6c-0.4,0-4,9-9,22.4
		c0,0,2.6,0.4,9,0.5C134.9,36.4,137.1,36.1,137.1,36.1z"/>
	<path class="st0" d="M0,25.5v-25h3.5H7v10v10h12.5H32v-10v-10h4h4v25v25h-4h-4v-12v-12H19.5H7v12v12H3.5H0V25.5z"/>
	<path class="st0" d="M225,28.5v-22h-7.5H210v-3v-3h18.5H247v3v3h-7.5H232v22v22h-3.5H225V28.5z"/>
</g>
</svg>
