<svg id="Capa_1" data-name="Capa 1" xmlns="http://www.w3.org/2000/svg" viewBox="0 0 30.96 28.27"><defs><style>.cls-1{fill:#fff;}</style></defs><title>buscador</title><path class="cls-1" d="M20.73,16.35A8.24,8.24,0,0,1,18,16,8.13,8.13,0,0,1,16.62,1a8.12,8.12,0,0,1,11,3.38h0a8.13,8.13,0,0,1-3.38,11A8.22,8.22,0,0,1,20.73,16.35ZM20.15,1a7.07,7.07,0,0,0-3.09.83,7.19,7.19,0,0,0,1.25,13.23A7.19,7.19,0,0,0,26.78,4.85h0A7.19,7.19,0,0,0,20.15,1Z"/><rect class="cls-1" x="26.52" y="16.46" width="2.32" height="11.36" rx="1.16" transform="translate(-7.15 15.54) rotate(-27.93)"/><rect class="cls-1" x="24.46" y="14.7" width="1.07" height="4.77" transform="translate(-5.09 13.7) rotate(-27.93)"/><path class="cls-1" d="M17.11,8.22C10.71,10.62,6.65,6.31,6.5,6.64A4.75,4.75,0,0,0,6.39,9.9a6.83,6.83,0,0,0,1.14,2.25A5,5,0,0,0,9.3,13.68a4.38,4.38,0,0,0,2.11.38,6.72,6.72,0,0,0,3.23-.94,3.78,3.78,0,0,0,1.72-1.68c.43-1,.78-2.28,1-2.75C17.41,8.43,17.36,8.13,17.11,8.22Z"/><path class="cls-1" d="M18.17,11.47c.34-1,.63-1.91.86-2.8s.45-1.92.65-2.85l.13-.61a.77.77,0,0,0-.5-.92L9.46.09a.74.74,0,0,0-1,.25L8.21.69c-.4.57-.82,1.16-1.19,1.75S6.3,3.63,6,4.22c-.19.33-.37.65-.57,1a5.73,5.73,0,0,0-.85,3.12,8.35,8.35,0,0,0,1.9,5c.14.18.28.34.41.49a4,4,0,0,1,.87,1.32,2.05,2.05,0,0,1,0,1.1c-.87,2-1.47,3.43-2.14,5L4.17,24.52a.83.83,0,0,1-.91.57c-.26,0-2.67-.76-2.67-.76a.44.44,0,0,0-.56.22l0,.12a.43.43,0,0,0,.26.44l7.32,3.13a.44.44,0,0,0,.51-.14A.41.41,0,0,0,8.14,28a.42.42,0,0,0-.23-.55S5.8,26.3,5.55,26.08A.84.84,0,0,1,5.31,25l1.54-3.6,2-4.61A1.71,1.71,0,0,1,9.48,16a3.54,3.54,0,0,1,1.41-.23l.6,0A9.07,9.07,0,0,0,16.17,14,5.42,5.42,0,0,0,18.17,11.47Zm-3,2.34a8,8,0,0,1-4,1.14,5,5,0,0,1-2-.34,5.47,5.47,0,0,1-2-1.57A7.89,7.89,0,0,1,5.39,9.41,5.19,5.19,0,0,1,5.6,6.49a8.1,8.1,0,0,1,.58-1.14c.46-.79,1.08-1.83,1.73-2.87.26-.42.56-.83.85-1.22l.1-.14a.5.5,0,0,1,.73-.2l9,3.86c.33.14.43.31.36.63-.2.93-.43,2-.69,3.09-.14.56-.31,1.12-.47,1.66l-.14.48A5.44,5.44,0,0,1,15.19,13.81Z"/></svg>