<svg id="Capa_1" data-name="Capa 1" xmlns="http://www.w3.org/2000/svg" viewBox="0 0 18.3 36.42"><defs><style>.cls-1{fill:#998660;}</style></defs><title>copa</title><path class="cls-1" d="M9.15,36.4H2.83c-.12,0-.3.09-.36-.09s.09-.27.21-.35a3.35,3.35,0,0,1,1.55-.44,12,12,0,0,0,3.17-.74A1.81,1.81,0,0,0,8.54,33c.11-1.51,0-3,0-4.54,0-2.21,0-4.42-.07-6.63a5.16,5.16,0,0,0-.11-1.3A1.64,1.64,0,0,0,6.9,19.25c-.6-.09-1.21-.15-1.82-.27a5,5,0,0,1-3.45-2.59A11.82,11.82,0,0,1,.06,11.5,15.21,15.21,0,0,1,.61,5.93a31.06,31.06,0,0,1,2-5.1c0-.08.14-.15.15-.23C2.86,0,3.32,0,3.77,0,7.3,0,10.83,0,14.35,0A1.19,1.19,0,0,1,15.7.84c.42,1,.94,2,1.32,3a19.14,19.14,0,0,1,1.25,5.39,12.61,12.61,0,0,1-1.09,6.15,6.31,6.31,0,0,1-2.27,2.9,5.68,5.68,0,0,1-2.44.8,11.16,11.16,0,0,0-1.14.16A1.72,1.72,0,0,0,9.86,21c-.08.87,0,1.73,0,2.6q0,4.36-.07,8.73c0,.29,0,.58,0,.88a1.78,1.78,0,0,0,1.27,1.67,12.38,12.38,0,0,0,3,.67,5.27,5.27,0,0,1,1.24.26.92.92,0,0,1,.47.35c.1.16.11.28-.15.28H9.15ZM9.14,1H3.88a.31.31,0,0,0-.35.21c-.4.86-.81,1.71-1.17,2.58A19.87,19.87,0,0,0,1,8.94a11.54,11.54,0,0,0,.8,5.66A6.64,6.64,0,0,0,3.35,17a4.37,4.37,0,0,0,3.06,1.13c1.24,0,2.48,0,3.72,0a16.62,16.62,0,0,0,2.34-.05,4.28,4.28,0,0,0,2.31-.93,6.3,6.3,0,0,0,1.6-2.39,11.15,11.15,0,0,0,.87-3.21,13.65,13.65,0,0,0-.16-3.83,23.58,23.58,0,0,0-2.34-6.56C14.66,1,14.55,1,14.4,1Z"/><path class="cls-1" d="M9.17,6.26H16c.26,0,.37.07.43.32a15.83,15.83,0,0,1,.49,4.11,11.55,11.55,0,0,1-1.58,5.4,3.55,3.55,0,0,1-3.2,1.71c-2,0-4,0-6.06,0A3.79,3.79,0,0,1,2.51,15.3a11.69,11.69,0,0,1-1.13-4.86,17.43,17.43,0,0,1,.47-3.87c.06-.24.17-.32.43-.32,2.29,0,4.59,0,6.89,0Z"/></svg>