<svg id="Capa_1" data-name="Capa 1" xmlns="http://www.w3.org/2000/svg" viewBox="0 0 25 25"><defs><style>.cls-1{fill:#fff;}</style></defs><title>Sin título-1</title><path class="cls-1" d="M14.28,19.15v-.8c0-1.16,0-2.32,0-3.48,0-.53-.22-.75-.76-.75H11.16c-.52,0-.73.22-.73.74,0,1.3,0,2.6,0,3.91v.36c-.95,0-1.87,0-2.78,0a.8.8,0,0,1-.75-.91c0-1,0-2,0-3,0-1.2,0-2.39,0-3.58a.39.39,0,0,1,.23-.39c1.67-.92,3.34-1.85,5-2.76a.85.85,0,0,1,.68,0c1.68.9,3.35,1.84,5,2.76a.46.46,0,0,1,.28.48c0,2.12,0,4.25,0,6.37,0,.79-.3,1.1-1.09,1.1Z"/><path class="cls-1" d="M15.35,7.65V6.31c0-.38.07-.46.46-.46h.89c.29,0,.41.13.41.41,0,.72,0,1.43,0,2.14a.43.43,0,0,0,.25.44c.47.24.92.5,1.38.76s.57.58.38.9-.54.36-.95.13c-1.71-1-3.43-2-5.13-3a.93.93,0,0,0-1.06,0c-1.73,1-3.46,2-5.2,3a.61.61,0,0,1-.89-.16.64.64,0,0,1,.3-.86h0c2-1.13,3.92-2.25,5.88-3.39a.72.72,0,0,1,.82,0c.69.42,1.4.82,2.1,1.23Z"/></svg>