<svg id="Capa_1" data-name="Capa 1" xmlns="http://www.w3.org/2000/svg" viewBox="0 0 12.73 12.73"><defs><style>.cls-1{fill:#fff;}</style></defs><title>lupa</title><path class="cls-1" d="M0,5.66V4.81a1.33,1.33,0,0,0,.05-.19,5,5,0,0,1,3-4.14A11.76,11.76,0,0,1,4.81,0h.85l.19.05a5.22,5.22,0,0,1,4.53,6.1,5.62,5.62,0,0,1-.77,2c.87.87,1.74,1.72,2.59,2.59a7.12,7.12,0,0,1,.53.78v.4a1.29,1.29,0,0,1-.85.85h-.4a6.15,6.15,0,0,1-.77-.53C10,11.49,9.25,10.75,8.52,10c-.14-.13-.27-.28-.41-.42A5.22,5.22,0,0,1,.23,6.73,9.7,9.7,0,0,1,0,5.66Zm8.66-.41A3.43,3.43,0,1,0,5.21,8.66,3.43,3.43,0,0,0,8.66,5.25Z"/></svg>