<?xml version="1.0" encoding="utf-8"?>
<!-- Generator: Adobe Illustrator 24.0.2, SVG Export Plug-In . SVG Version: 6.00 Build 0)  -->
<svg version="1.1" id="Capa_1" xmlns="http://www.w3.org/2000/svg" xmlns:xlink="http://www.w3.org/1999/xlink" x="0px" y="0px"
	 viewBox="0 0 12.7 12.7" style="enable-background:new 0 0 12.7 12.7;" xml:space="preserve">
<style type="text/css">
	.st0{fill:#988660;}
</style>
<title>lupa</title>
<path class="st0" d="M0,5.7V4.8c0-0.1,0-0.1,0.1-0.2c0.2-1.8,1.3-3.4,3-4.1C3.6,0.3,4.2,0.1,4.8,0h0.8L5.8,0
	c2.9,0.3,4.9,2.9,4.6,5.8c0,0.1,0,0.2,0,0.3c-0.1,0.7-0.4,1.4-0.8,2c0.9,0.9,1.7,1.7,2.6,2.6c0.2,0.2,0.4,0.5,0.5,0.8v0.4
	c-0.1,0.4-0.4,0.7-0.9,0.9h-0.4c-0.3-0.2-0.5-0.3-0.8-0.5C10,11.5,9.3,10.7,8.5,10C8.4,9.9,8.3,9.7,8.1,9.6
	c-2.4,1.6-5.6,0.9-7.2-1.5C0.6,7.7,0.4,7.2,0.2,6.7C0.1,6.4,0.1,6,0,5.7z M8.7,5.2c0-1.9-1.5-3.4-3.4-3.4c-1.9,0-3.4,1.5-3.4,3.4
	c0,1.9,1.5,3.4,3.4,3.4C7.1,8.7,8.6,7.1,8.7,5.2C8.7,5.3,8.7,5.3,8.7,5.2z"/>
</svg>
