<svg id="Capa_1" data-name="Capa 1" xmlns="http://www.w3.org/2000/svg" viewBox="0 0 347.86 63.45"><defs><style>.cls-1{fill:#fff;}</style></defs><title>nombre-buscador</title><path class="cls-1" d="M184.15,44h1.5v.22H173.46V44h1.83l-3.63-7.26-3,5.2a4.32,4.32,0,0,0-.19.45,1.14,1.14,0,0,0-.07.43,1.06,1.06,0,0,0,.15.51,1,1,0,0,0,.58.54,2.42,2.42,0,0,0,.54.13h1.46v.22h-7.67V44h1.87a2,2,0,0,0,.6-.1,4,4,0,0,0,1-.5,3.75,3.75,0,0,0,.88-.84l.51-.69,3.21-5.54L165.9,25.22h-1.79v-.29h12.71v.29h-2.06l3.22,6.4,2.28-4.38a2.19,2.19,0,0,0,.25-.52,1.67,1.67,0,0,0,.05-1,.62.62,0,0,0-.26-.39,1.58,1.58,0,0,0-.82-.14h-1.09v-.29h6.25v.29H184a7,7,0,0,0-1,.1,2.25,2.25,0,0,0-.91.32,2.45,2.45,0,0,0-.68.52,7.2,7.2,0,0,0-.63.93L178.17,32Z"/><path class="cls-1" d="M238.7,50.65a25.65,25.65,0,0,1-3.78,4.6,21.1,21.1,0,0,1-4.76,3.45,17.71,17.71,0,0,1-4.68,1.71,26.79,26.79,0,0,1-5.81.57c-2.12,0-4,0-5.78-.16a32.19,32.19,0,0,1-4.8-.65,20.37,20.37,0,0,1-4.1-1.38,18.2,18.2,0,0,1-3.71-2.36,19.67,19.67,0,0,1-4-4.35,31.81,31.81,0,0,1-3.17-5.86A35.91,35.91,0,0,1,192,39.35a38.74,38.74,0,0,1,0-15,36.23,36.23,0,0,1,2.08-6.88,31.4,31.4,0,0,1,3.17-5.85,19.45,19.45,0,0,1,4-4.35A17.38,17.38,0,0,1,205,4.94a19.78,19.78,0,0,1,4.1-1.39,32.19,32.19,0,0,1,4.8-.65c1.74-.1,3.66-.16,5.78-.16h.81a25.23,25.23,0,0,1,3.54.37,20.05,20.05,0,0,1,3.38,1l.24.08a14.19,14.19,0,0,0,3.38.86,27.1,27.1,0,0,0,3.86.28,7.32,7.32,0,0,0,3.42-.69,6.39,6.39,0,0,0,2-1.54,4.45,4.45,0,0,0,.89-1.59,7.72,7.72,0,0,0,.21-.81h.81V28.2h-.81a12,12,0,0,0-.33-2.48c-.22-1-.5-2.06-.85-3.17a32.85,32.85,0,0,0-2.89-6.47q-1.38-2.11-2.85-4a40.94,40.94,0,0,0-3.58-4c-.76-.71-1.46-1.33-2.11-1.87a12.91,12.91,0,0,0-2.12-1.43A10.49,10.49,0,0,0,224,3.8a21.06,21.06,0,0,0-3.54-.41h-.81a3.37,3.37,0,0,0-1.43.25,9.52,9.52,0,0,0-1.42.89A8.81,8.81,0,0,0,214.06,9a38.73,38.73,0,0,0-1.47,6.67A68.68,68.68,0,0,0,212,23c-.05,2.49-.08,4.69-.08,6.58v4.48c0,.65,0,1.34,0,2.07s.07,1.56.12,2.48.14,2,.25,3.26a25.83,25.83,0,0,0,1.26,6,12.54,12.54,0,0,0,3,4.84,12.32,12.32,0,0,0,3.94,2.72,10.57,10.57,0,0,0,4,.85,18.09,18.09,0,0,0,4.47-.48,12.41,12.41,0,0,0,3.34-1.39l1.42-.89a8.73,8.73,0,0,0,1.43-1.14A16.86,16.86,0,0,0,238.87,48a28.57,28.57,0,0,0,1.87-4.11,15.79,15.79,0,0,0,.81-4.39h.65v.4a12.86,12.86,0,0,1-.33,2.85,16.87,16.87,0,0,1-.73,2.52A29.7,29.7,0,0,1,238.7,50.65Z"/><path class="cls-1" d="M272.78,23.21a12.09,12.09,0,0,1,4,4.57,15.34,15.34,0,0,1,1.66,7.43,15.51,15.51,0,0,1-1.66,7.46,11.62,11.62,0,0,1-4,4.54,29.08,29.08,0,0,1-3,1.79,13.82,13.82,0,0,1-2.36.93,9.64,9.64,0,0,1-2.18.36q-1.1.06-2.61.06H262c-1,0-1.9,0-2.66-.06a11.16,11.16,0,0,1-2.33-.36,14.34,14.34,0,0,1-2.5-.93,27.27,27.27,0,0,1-3.11-1.79,11.7,11.7,0,0,1-4-4.54,15.63,15.63,0,0,1-1.65-7.46,15.45,15.45,0,0,1,1.65-7.43,12.17,12.17,0,0,1,4-4.57,28.13,28.13,0,0,1,3.09-1.79,15.64,15.64,0,0,1,2.38-.93,10.43,10.43,0,0,1,2.19-.36c.72,0,1.59-.06,2.6-.06h.9q1.51,0,2.61.06a10.23,10.23,0,0,1,2.18.36,14.7,14.7,0,0,1,2.36.93A29.08,29.08,0,0,1,272.78,23.21Zm-7.51,25a6.3,6.3,0,0,0,.84-2,23.47,23.47,0,0,0,.54-3c.13-1.14.21-2.38.25-3.72s.05-2.75.05-4.21,0-2.86-.08-4.2-.15-2.59-.28-3.73a17.13,17.13,0,0,0-.59-3,5.11,5.11,0,0,0-1-2,6,6,0,0,0-1.88-1.57,3.54,3.54,0,0,0-1-.22,3.93,3.93,0,0,0-1,.22,5.48,5.48,0,0,0-1.85,1.57,5.11,5.11,0,0,0-1,2,18,18,0,0,0-.61,3,34.42,34.42,0,0,0-.28,3.73q-.06,2-.06,4.2c0,1.46,0,2.86.06,4.21a34.42,34.42,0,0,0,.28,3.72,18,18,0,0,0,.61,3,5.6,5.6,0,0,0,1,2,6.76,6.76,0,0,0,1.6,1.29,2.9,2.9,0,0,0,1.26.45h.45A3.3,3.3,0,0,0,265.27,48.22Z"/><path class="cls-1" d="M308.89,21.92a12.6,12.6,0,0,1,3.23,2.69,12.3,12.3,0,0,1,2,3.26,15.79,15.79,0,0,1,1,3.61,24.45,24.45,0,0,1,.28,3.67,24.75,24.75,0,0,1-.28,3.73,16.41,16.41,0,0,1-1,3.65,12.25,12.25,0,0,1-2,3.28,12.6,12.6,0,0,1-3.23,2.69A13.49,13.49,0,0,1,305.3,50a15.13,15.13,0,0,1-3.58.45,14.11,14.11,0,0,1-2.81-.29,3.2,3.2,0,0,1-1.06-.28q-.45-.17-.93-.39a2.12,2.12,0,0,1-.76-.56,13.6,13.6,0,0,1-1.09-1.2,7.57,7.57,0,0,1-.64-1V59.32h4.2v.45H279.9v-.45h4.27V21H279.9v-.45h4.27c1.38-.07,2.71-.17,4-.28,1.08-.07,2.2-.19,3.36-.34a19.75,19.75,0,0,0,2.92-.56v4.94a9.22,9.22,0,0,1,.7-1,12.48,12.48,0,0,1,1-1.15,6.44,6.44,0,0,1,2.64-1.49,12.18,12.18,0,0,1,3.64-.53,12.73,12.73,0,0,1,3.2.42A12.91,12.91,0,0,1,308.89,21.92Zm-6.67,24.39a9.69,9.69,0,0,0,1.21-4.51q.19-2.94.19-6.59c0-2.43-.05-4.67-.17-6.73a9.72,9.72,0,0,0-1.17-4.65,6.9,6.9,0,0,0-1.43-1.54,2.86,2.86,0,0,0-1.83-.7,3.56,3.56,0,0,0-1.15.22,4.93,4.93,0,0,0-1.37.79,3.35,3.35,0,0,0-.95,1.2,14.48,14.48,0,0,0-.62,1.49,8.25,8.25,0,0,0-.42,2c-.06.71-.08,1.44-.08,2.19V42a13.13,13.13,0,0,0,.5,3.7,7.45,7.45,0,0,0,.48,1.34,3.66,3.66,0,0,0,.75,1.12,3.16,3.16,0,0,0,2.19,1,2.79,2.79,0,0,0,1.29-.31,4.33,4.33,0,0,0,1.12-.78,7.55,7.55,0,0,0,.87-1C301.87,46.81,302.07,46.54,302.22,46.31Z"/><path class="cls-1" d="M347.86,49.45v.45H333.39V46.42l-.39.23q-2.07,1.17-4.6,2.33a12,12,0,0,1-5,1.14h-.28a6.24,6.24,0,0,1-4.31-1.73,6.07,6.07,0,0,1-1.43-2.08,6.89,6.89,0,0,1-.54-2.8,5.66,5.66,0,0,1,.28-1.74,7.75,7.75,0,0,1,.73-1.57,6.77,6.77,0,0,1,1.07-1.26,16,16,0,0,1,1.62-1.37c.6-.45,1.23-.89,1.88-1.32a22.36,22.36,0,0,1,1.94-1.15c1.42-.82,2.92-1.63,4.51-2.41s3.09-1.55,4.51-2.3V29a25.85,25.85,0,0,0-.16-2.92,7.62,7.62,0,0,0-.79-2.63,4.92,4.92,0,0,0-1.77-1.91,5.58,5.58,0,0,0-3.05-.73,12.73,12.73,0,0,0-1.37.08,4.46,4.46,0,0,0-1.32.37,2.66,2.66,0,0,0-.93.7,1.6,1.6,0,0,0-.42,1.09,1.64,1.64,0,0,0,.65,1.35,16.54,16.54,0,0,0,1.45,1,7,7,0,0,1,1.46,1.18,2.38,2.38,0,0,1,.65,1.73,3.46,3.46,0,0,1-1.21,2.81,4.21,4.21,0,0,1-2.77,1,4.92,4.92,0,0,1-1.88-.37,5.43,5.43,0,0,1-1.68-1A5.51,5.51,0,0,1,319,29.16a4.12,4.12,0,0,1-.47-2,5.05,5.05,0,0,1,1.37-3.7,9.73,9.73,0,0,1,3.39-2.19,17.25,17.25,0,0,1,4.29-1,36.69,36.69,0,0,1,4.07-.25,23.29,23.29,0,0,1,4.2.39,12.94,12.94,0,0,1,3.87,1.34,8,8,0,0,1,2.86,2.67,7.65,7.65,0,0,1,1.12,4.29V49.45Zm-16.48-2.52,1-.51a9.34,9.34,0,0,0,1-.56V31a7.33,7.33,0,0,0-2.24,1.6,10.62,10.62,0,0,0-1.71,2.32,12.28,12.28,0,0,0-1.09,2.78,11.54,11.54,0,0,0-.39,2.94v3.48a3.14,3.14,0,0,0,.84,2,2.42,2.42,0,0,0,1.85,1A1.66,1.66,0,0,0,331.38,46.93Z"/><path class="cls-1" d="M67.77,0V.72h-4A5.15,5.15,0,0,0,60.4,2.08a6.17,6.17,0,0,0-2,3L44.43,63.34h-9c-.72-1.39-1.73-3.42-3-6.11s-2.76-5.73-4.39-9.14-3.35-7-5.16-10.81-3.62-7.52-5.43-11.17S13.9,19,12.22,15.84,9,10,7.69,7.87A22.52,22.52,0,0,0,4.61,3.8,22,22,0,0,0,2.17,1.63,4.8,4.8,0,0,0,0,.72V0H15.56c.91,0,1.83.05,2.76.14a9.19,9.19,0,0,1,2.9.81,17.4,17.4,0,0,1,3.21,2,26,26,0,0,1,3.8,3.76,36,36,0,0,1,3.62,5.2c1.27,2.14,2.56,4.45,3.89,6.92s2.64,5,3.94,7.6,2.5,5,3.62,7.2,2.14,4.13,3.07,5.79a17.19,17.19,0,0,0,2.22,3.3l9-37.64A4.84,4.84,0,0,0,57.64,4a3.29,3.29,0,0,0-.86-2.35,3.16,3.16,0,0,0-2.4-.91h-4.7V0Z"/><path class="cls-1" d="M81.7,53.1v.49H59.86V53.1h4.73V21.92H59.86v-.5q1.74,0,4.17-.06c1.62,0,3.25-.11,4.88-.22s3.19-.23,4.64-.4A22.79,22.79,0,0,0,77,20.12v33ZM77.35,11.65a5.54,5.54,0,0,0-1.53-1.52,8.1,8.1,0,0,0-2.24-1,10.07,10.07,0,0,0-5.41,0,8.1,8.1,0,0,0-2.24,1,5.4,5.4,0,0,0-1.53,1.52,3.46,3.46,0,0,0-.56,1.87,3.41,3.41,0,0,0,.56,1.87,5.28,5.28,0,0,0,1.53,1.52,7.82,7.82,0,0,0,2.24,1,10.07,10.07,0,0,0,5.41,0,7.82,7.82,0,0,0,2.24-1,5.4,5.4,0,0,0,1.53-1.52,3.41,3.41,0,0,0,.56-1.87A3.46,3.46,0,0,0,77.35,11.65Z"/><path class="cls-1" d="M122.11,63.45h-5.48a15.85,15.85,0,0,1-5.13-.72,8.93,8.93,0,0,1-3.39-2,7.21,7.21,0,0,1-1.87-3,11.43,11.43,0,0,1-.56-3.61V27a11.18,11.18,0,0,0-.28-2.49,5.8,5.8,0,0,0-1-2.17,1.8,1.8,0,0,0-1-.59,4.25,4.25,0,0,0-1.15-.16,1.83,1.83,0,0,0-1.06.34,5.2,5.2,0,0,0-.93.84,4.4,4.4,0,0,0-.94,1.56,21.68,21.68,0,0,0-.65,2.14,18.81,18.81,0,0,0-.4,2.28,15.72,15.72,0,0,0-.13,1.86V53.1h4.67v.49h-22V53.1h4.67V21.92H80.79v-.5q1.74,0,4.23-.06c1.66,0,3.32-.11,5-.22s3.22-.23,4.7-.4a22.82,22.82,0,0,0,3.51-.62v4.73a8.51,8.51,0,0,1,1.06-1.75,8,8,0,0,1,1.49-1.36,9.88,9.88,0,0,1,3.15-1.81,10.89,10.89,0,0,1,3.51-.56,27,27,0,0,1,4,.31,9.32,9.32,0,0,1,3.74,1.37A7,7,0,0,1,117.63,24a13,13,0,0,1,.53,1.4,5.1,5.1,0,0,1,.21,1.46V55a16.37,16.37,0,0,0,.84,5.82,3,3,0,0,0,2.9,2.15Z"/><path class="cls-1" d="M152.47,24a13.29,13.29,0,0,1,4.45,5.07,17,17,0,0,1,1.84,8.24,17.23,17.23,0,0,1-1.84,8.28,12.82,12.82,0,0,1-4.45,5,31.65,31.65,0,0,1-3.39,2,15.34,15.34,0,0,1-2.61,1A10.84,10.84,0,0,1,144,54c-.81,0-1.77.06-2.89.06h-.62c-1.12,0-2.11,0-3-.06a12.36,12.36,0,0,1-2.58-.41,16.33,16.33,0,0,1-2.77-1,29.1,29.1,0,0,1-3.45-2,12.9,12.9,0,0,1-4.45-5,17.23,17.23,0,0,1-1.84-8.28,17,17,0,0,1,1.84-8.24A13.37,13.37,0,0,1,128.77,24a29.5,29.5,0,0,1,3.42-2,17.63,17.63,0,0,1,2.64-1,10.84,10.84,0,0,1,2.43-.41c.81,0,1.77-.06,2.89-.06h1c1.12,0,2.08,0,2.89.06a10.84,10.84,0,0,1,2.43.41,16.22,16.22,0,0,1,2.61,1A30.33,30.33,0,0,1,152.47,24Zm-8.33,27.75a7.29,7.29,0,0,0,.93-2.27,24.7,24.7,0,0,0,.59-3.36c.15-1.27.24-2.65.28-4.14s.06-3.05.06-4.67,0-3.17-.09-4.67-.17-2.87-.31-4.13a19.27,19.27,0,0,0-.65-3.33A5.83,5.83,0,0,0,143.83,23a6.45,6.45,0,0,0-2.09-1.74,3.56,3.56,0,0,0-1.09-.25,3.83,3.83,0,0,0-1.12.25A5.78,5.78,0,0,0,137.48,23a5.55,5.55,0,0,0-1.12,2.18,21.08,21.08,0,0,0-.69,3.33c-.16,1.26-.27,2.64-.31,4.13s-.06,3.05-.06,4.67,0,3.17.06,4.67.15,2.87.31,4.14a21.18,21.18,0,0,0,.69,3.32,6.09,6.09,0,0,0,1.12,2.24,7.33,7.33,0,0,0,1.77,1.44,3.23,3.23,0,0,0,1.4.49h.5A3.68,3.68,0,0,0,144.14,51.73Z"/></svg>