<svg id="Capa_1" data-name="Capa 1" xmlns="http://www.w3.org/2000/svg" viewBox="0 0 89.42 29.74"><defs><style>.cls-1{fill:#fff;}</style></defs><title>nombre-vino</title><path class="cls-1" d="M31.77,0V.34H29.91a2.4,2.4,0,0,0-1.6.64,2.86,2.86,0,0,0-.95,1.4L20.83,29.69h-4.2c-.34-.65-.81-1.6-1.42-2.86s-1.3-2.69-2.06-4.28l-2.42-5.07C9.88,15.7,9,14,8.19,12.24S6.52,8.92,5.73,7.42,4.23,4.68,3.61,3.69A10.35,10.35,0,0,0,2.16,1.78,10.89,10.89,0,0,0,1,.76,2.26,2.26,0,0,0,0,.34V0H7.3q.63,0,1.29.06A4.32,4.32,0,0,1,10,.45a7.79,7.79,0,0,1,1.5.93,12.09,12.09,0,0,1,1.78,1.76,16.64,16.64,0,0,1,1.7,2.44c.6,1,1.2,2.08,1.83,3.24S18,11.17,18.6,12.39s1.17,2.34,1.7,3.37,1,1.94,1.44,2.71a7.62,7.62,0,0,0,1,1.55L27,2.38a2.27,2.27,0,0,0,0-.51,1.54,1.54,0,0,0-.4-1.11A1.5,1.5,0,0,0,25.49.34h-2.2V0Z"/><path class="cls-1" d="M38.3,24.89v.23H28.06v-.23h2.22V10.28H28.06V10l2,0c.76,0,1.52,0,2.29-.1s1.49-.11,2.17-.19a9.36,9.36,0,0,0,1.63-.29V24.89Zm-2-19.43a2.44,2.44,0,0,0-.72-.71,3.37,3.37,0,0,0-1-.48,4.54,4.54,0,0,0-2.53,0,3.37,3.37,0,0,0-1.05.48,2.44,2.44,0,0,0-.72.71,1.67,1.67,0,0,0-.26.88,1.61,1.61,0,0,0,.26.87,2.47,2.47,0,0,0,.72.72A3.9,3.9,0,0,0,32,8.41a4.79,4.79,0,0,0,2.53,0,3.9,3.9,0,0,0,1-.48,2.47,2.47,0,0,0,.72-.72,1.61,1.61,0,0,0,.26-.87A1.67,1.67,0,0,0,36.26,5.46Z"/><path class="cls-1" d="M57.24,29.74H54.68a7.58,7.58,0,0,1-2.41-.33,4.28,4.28,0,0,1-1.59-.94,3.43,3.43,0,0,1-.88-1.38,5.49,5.49,0,0,1-.26-1.69V12.67a5.18,5.18,0,0,0-.13-1.17,2.79,2.79,0,0,0-.45-1,.89.89,0,0,0-.45-.28,2.67,2.67,0,0,0-.54-.07.85.85,0,0,0-.5.16,2.34,2.34,0,0,0-.44.4,1.91,1.91,0,0,0-.43.72,9.21,9.21,0,0,0-.31,1,8.3,8.3,0,0,0-.19,1.07,7.93,7.93,0,0,0-.06.87V24.89h2.19v.23H37.9v-.23h2.19V10.28H37.87V10l2,0c.78,0,1.55,0,2.33-.1s1.51-.11,2.2-.19A9.46,9.46,0,0,0,46,9.43v2.22a4.13,4.13,0,0,1,.5-.82,3.7,3.7,0,0,1,.7-.64,4.57,4.57,0,0,1,1.47-.85,5.28,5.28,0,0,1,1.65-.26,12.68,12.68,0,0,1,1.87.15A4.23,4.23,0,0,1,54,9.87a3.25,3.25,0,0,1,1.16,1.37,4.73,4.73,0,0,1,.25.66,2.24,2.24,0,0,1,.1.68v13.2a7.47,7.47,0,0,0,.4,2.72,1.38,1.38,0,0,0,1.35,1Z"/><path class="cls-1" d="M71.48,11.24a6.21,6.21,0,0,1,2.08,2.38,7.92,7.92,0,0,1,.86,3.86,8,8,0,0,1-.86,3.88,5.93,5.93,0,0,1-2.08,2.36,15.65,15.65,0,0,1-1.59.94,8.14,8.14,0,0,1-1.23.48,5,5,0,0,1-1.13.19c-.38,0-.83,0-1.36,0h-.29c-.53,0-1,0-1.39,0a5.74,5.74,0,0,1-1.21-.19,8.37,8.37,0,0,1-1.3-.48,14.66,14.66,0,0,1-1.61-.94,6,6,0,0,1-2.09-2.36,8.15,8.15,0,0,1-.86-3.88,8,8,0,0,1,.86-3.86,6.23,6.23,0,0,1,2.09-2.38,12.94,12.94,0,0,1,1.6-.93,7.73,7.73,0,0,1,1.24-.49,5.66,5.66,0,0,1,1.14-.19l1.35,0h.47l1.36,0a5.56,5.56,0,0,1,1.13.19,7.3,7.3,0,0,1,1.23.49A13.7,13.7,0,0,1,71.48,11.24Zm-3.91,13A3.28,3.28,0,0,0,68,23.18a11.56,11.56,0,0,0,.27-1.57c.07-.59.12-1.24.14-1.94s0-1.43,0-2.19,0-1.49,0-2.19-.08-1.34-.14-1.94A8.78,8.78,0,0,0,68,11.79a2.71,2.71,0,0,0-.53-1,3,3,0,0,0-1-.81,1.76,1.76,0,0,0-.51-.12,1.79,1.79,0,0,0-.53.12,2.77,2.77,0,0,0-1,.81,2.71,2.71,0,0,0-.53,1,10.94,10.94,0,0,0-.32,1.56c-.07.6-.12,1.24-.14,1.94s0,1.43,0,2.19,0,1.49,0,2.19.07,1.35.14,1.94a10.94,10.94,0,0,0,.32,1.56,2.86,2.86,0,0,0,.53,1,3.54,3.54,0,0,0,.83.67,1.44,1.44,0,0,0,.66.23h.23A1.72,1.72,0,0,0,67.57,24.25Z"/><path class="cls-1" d="M86.76,16.26a8.17,8.17,0,0,1,.85.67,6.46,6.46,0,0,1,.87.93A4.91,4.91,0,0,1,89.16,19a3.58,3.58,0,0,1,.26,1.36,4.34,4.34,0,0,1-.5,2.07A4.71,4.71,0,0,1,87.52,24a6.79,6.79,0,0,1-2.13,1,9.55,9.55,0,0,1-2.71.37A7.27,7.27,0,0,1,80.4,25a16.13,16.13,0,0,1-2.24-1L77.92,24a1.49,1.49,0,0,0-.75.17,3,3,0,0,0-.56.38,3.22,3.22,0,0,0-.44.55h-.32V18.3h.35a10.6,10.6,0,0,0,.27,1.34,10.72,10.72,0,0,0,.38,1.24,6.69,6.69,0,0,0,.58,1.24,10.55,10.55,0,0,0,.89,1.28,3.35,3.35,0,0,0,1,.85,5.69,5.69,0,0,0,1.48.57,7.52,7.52,0,0,0,1.61.19l1.12,0a4.72,4.72,0,0,0,1-.16,2.3,2.3,0,0,0,.77-.37.79.79,0,0,0,.3-.67,1.72,1.72,0,0,0-.68-1.3,11,11,0,0,0-1.69-1.16c-.67-.38-1.4-.78-2.18-1.2A15.33,15.33,0,0,1,79,18.71c-.45-.35-.85-.69-1.19-1a6.57,6.57,0,0,1-.87-1,3.91,3.91,0,0,1-.55-1.1,4.17,4.17,0,0,1-.19-1.34,4,4,0,0,1,.49-2,4.35,4.35,0,0,1,1.27-1.42A5.58,5.58,0,0,1,79.59,10a6.3,6.3,0,0,1,1.72-.26,8,8,0,0,1,1.19.08,4.84,4.84,0,0,1,1,.24c.32.12.67.27,1,.44s.83.39,1.4.64a.46.46,0,0,0,.2,0,1.53,1.53,0,0,0,.72-.17,1.79,1.79,0,0,0,.48-.41,3.4,3.4,0,0,0,.35-.59H88l.64,5.52h-.32a7.22,7.22,0,0,0-.26-.79,9.11,9.11,0,0,0-.41-.86,10.48,10.48,0,0,0-.67-1q-.21-.26-.66-.72a5.2,5.2,0,0,0-1-.82L84.74,11a7.05,7.05,0,0,0-.78-.4,7.39,7.39,0,0,0-.94-.32A4.75,4.75,0,0,0,82,10.1l-.66,0a2.84,2.84,0,0,0-.67.13,1.58,1.58,0,0,0-.51.29.69.69,0,0,0-.2.51,2,2,0,0,0,.64,1.58,8.52,8.52,0,0,0,1.66,1.08L84.59,15A21.42,21.42,0,0,1,86.76,16.26Z"/></svg>