<svg id="Capa_1" data-name="Capa 1" xmlns="http://www.w3.org/2000/svg" viewBox="0 0 266.93 47.67"><defs><style>.cls-1{fill:#fff;}</style></defs><title>nombre-buscador</title><path class="cls-1" d="M86.66,38.69v.42H73.14V34.56A7.13,7.13,0,0,1,72.25,36a7,7,0,0,1-1.2,1.15,8.29,8.29,0,0,1-2.63,1.52,9.25,9.25,0,0,1-3,.47,19.68,19.68,0,0,1-3.21-.27,7.49,7.49,0,0,1-3-1.14,5.73,5.73,0,0,1-2.09-2.46,8.25,8.25,0,0,1-.44-1.17,4,4,0,0,1-.19-1.23V19.22a15,15,0,0,0-.65-4.83,2.38,2.38,0,0,0-2.32-1.85v-.42H58a12.35,12.35,0,0,1,4.26.63A7.06,7.06,0,0,1,65,14.42a5.8,5.8,0,0,1,1.44,2.45,10.57,10.57,0,0,1,.42,3V32.69a9.21,9.21,0,0,0,.23,2.08,4.92,4.92,0,0,0,.81,1.83,1.61,1.61,0,0,0,.86.5,4.91,4.91,0,0,0,1,.13,1.57,1.57,0,0,0,.89-.29,4.64,4.64,0,0,0,.78-.71,4.41,4.41,0,0,0,.68-1.12,9.57,9.57,0,0,0,.52-1.51c.14-.54.25-1.09.34-1.64s.15-1.08.18-1.57V12.54H69.23v-.42h3.91c1.29-.07,2.52-.16,3.71-.26,1-.07,2.06-.17,3.15-.31A20.11,20.11,0,0,0,82.74,11V38.69Z"/><path class="cls-1" d="M107.38,23.24a15.68,15.68,0,0,1,1.51,1.2,12,12,0,0,1,1.57,1.67,8.81,8.81,0,0,1,1.2,2.06,6.3,6.3,0,0,1,.47,2.43,7.75,7.75,0,0,1-.89,3.7,8.19,8.19,0,0,1-2.5,2.85A12.72,12.72,0,0,1,104.93,39a17.16,17.16,0,0,1-4.86.65A12.92,12.92,0,0,1,96,39a27,27,0,0,1-4-1.72,1.92,1.92,0,0,0-.41-.11,2.76,2.76,0,0,0-1.36.32,4.75,4.75,0,0,0-1,.67,5.18,5.18,0,0,0-.79,1h-.57V26.89h.63a18.49,18.49,0,0,0,.47,2.4c.17.7.4,1.44.67,2.22a12.53,12.53,0,0,0,1.05,2.22A19.17,19.17,0,0,0,92.27,36a5.9,5.9,0,0,0,1.8,1.51,10.21,10.21,0,0,0,2.66,1,13.06,13.06,0,0,0,2.87.34q1,0,2-.06a8.65,8.65,0,0,0,1.86-.28,4.42,4.42,0,0,0,1.38-.65,1.44,1.44,0,0,0,.55-1.21,3.09,3.09,0,0,0-1.23-2.32,18.76,18.76,0,0,0-3-2.09c-1.2-.67-2.49-1.39-3.89-2.14a25.19,25.19,0,0,1-3.86-2.53,27.56,27.56,0,0,1-2.11-1.8,12.16,12.16,0,0,1-1.57-1.77,7.38,7.38,0,0,1-1-2,7.69,7.69,0,0,1-.34-2.4A7.27,7.27,0,0,1,89.27,16a7.91,7.91,0,0,1,2.27-2.53,9.72,9.72,0,0,1,3-1.46,10.84,10.84,0,0,1,3.08-.47,14.51,14.51,0,0,1,2.14.13,8.47,8.47,0,0,1,1.75.44c.57.21,1.19.47,1.85.78s1.5.7,2.51,1.15a.8.8,0,0,0,.36,0,2.5,2.5,0,0,0,1.28-.31,2.73,2.73,0,0,0,.86-.73,5.14,5.14,0,0,0,.63-1h.52l1.15,9.86h-.58a10.09,10.09,0,0,0-.47-1.41,12.06,12.06,0,0,0-.73-1.54,15.85,15.85,0,0,0-1.2-1.85,17.49,17.49,0,0,0-1.17-1.31,10.17,10.17,0,0,0-1.8-1.46l-1-.57a11,11,0,0,0-3.08-1.28,7.44,7.44,0,0,0-1.9-.23c-.35,0-.74,0-1.18,0a5,5,0,0,0-1.2.23,2.53,2.53,0,0,0-.91.52,1.23,1.23,0,0,0-.37.92,3.54,3.54,0,0,0,1.15,2.82,15.53,15.53,0,0,0,3,1.93c1.36.69,2.77,1.43,4.25,2.22A37.72,37.72,0,0,1,107.38,23.24Z"/><path class="cls-1" d="M140,32.66a9.46,9.46,0,0,1-1.3,2.53l-.73,1a8.8,8.8,0,0,1-3.45,2.51,11.15,11.15,0,0,1-4.23.83c-.8,0-1.74-.05-2.84-.15a19.22,19.22,0,0,1-3.42-.66,16.9,16.9,0,0,1-3.52-1.43,11.17,11.17,0,0,1-3.13-2.51,12.2,12.2,0,0,1-2.25-3.86,15.72,15.72,0,0,1-.86-5.48,15.21,15.21,0,0,1,.78-5.11,12.61,12.61,0,0,1,2-3.76A11.67,11.67,0,0,1,119.91,14,15.87,15.87,0,0,1,123,12.38a16.07,16.07,0,0,1,2.87-.81,14.23,14.23,0,0,1,2.24-.23,18.35,18.35,0,0,1,8.8,1.77,5.7,5.7,0,0,1,3.21,5.27,4.46,4.46,0,0,1-.39,1.86,5.09,5.09,0,0,1-2.59,2.53,4.45,4.45,0,0,1-1.77.36,4.81,4.81,0,0,1-1.83-.36,4.51,4.51,0,0,1-1.54-1,5,5,0,0,1-1-1.51,4.47,4.47,0,0,1-.4-1.86,4.71,4.71,0,0,1,.4-1.85,4.55,4.55,0,0,1,1.12-1.59l.16-.21a10.74,10.74,0,0,0,.83-.83,1.54,1.54,0,0,0,.47-.94.78.78,0,0,0-.37-.71,2.49,2.49,0,0,0-.88-.34,7.63,7.63,0,0,0-1.07-.13c-.37,0-.67,0-.92,0a4.12,4.12,0,0,0-2.58.78A5.19,5.19,0,0,0,126.09,15a16.71,16.71,0,0,0-.83,4.22q-.24,2.6-.24,6.24c0,.42,0,.94,0,1.57s0,1,0,1.2,0,.34.06.81a11.85,11.85,0,0,0,.28,1.72,18.6,18.6,0,0,0,.66,2.16,8.84,8.84,0,0,0,1.14,2.17A6.93,6.93,0,0,0,129,36.78a5.11,5.11,0,0,0,2.56.81h.57a7,7,0,0,0,5.17-2.16,12.26,12.26,0,0,0,3-5.56l.41.05A18.85,18.85,0,0,1,140,32.66Z"/><path class="cls-1" d="M171.27,38.69v.42H157.8V35.87l-.36.21q-1.94,1.1-4.28,2.16a11.08,11.08,0,0,1-4.65,1.07h-.26a5.65,5.65,0,0,1-2.14-.41,6,6,0,0,1-1.88-1.2,5.78,5.78,0,0,1-1.33-1.93,6.57,6.57,0,0,1-.5-2.61,5.18,5.18,0,0,1,.26-1.62,7.22,7.22,0,0,1,.68-1.46,6.23,6.23,0,0,1,1-1.18,18.27,18.27,0,0,1,1.52-1.28c.55-.41,1.14-.82,1.75-1.22a20.24,20.24,0,0,1,1.8-1.07q2-1.16,4.2-2.25t4.2-2.14v-1.3a22.56,22.56,0,0,0-.16-2.72,6.73,6.73,0,0,0-.73-2.45,4.57,4.57,0,0,0-1.64-1.77,5.18,5.18,0,0,0-2.85-.68,11.05,11.05,0,0,0-1.27.07,4.47,4.47,0,0,0-1.23.34,2.51,2.51,0,0,0-.86.66,1.47,1.47,0,0,0-.39,1,1.52,1.52,0,0,0,.6,1.26c.4.31.85.62,1.35.94A6.58,6.58,0,0,1,152,17.39a2.25,2.25,0,0,1,.6,1.62,3.22,3.22,0,0,1-1.12,2.61,3.89,3.89,0,0,1-2.58.94,4.62,4.62,0,0,1-1.75-.34,5.21,5.21,0,0,1-1.57-1,5.13,5.13,0,0,1-1.15-1.46A3.85,3.85,0,0,1,144,18a4.69,4.69,0,0,1,1.28-3.45,8.65,8.65,0,0,1,3.16-2,15.74,15.74,0,0,1,4-1,33.69,33.69,0,0,1,3.78-.23,22,22,0,0,1,3.92.36,11.9,11.9,0,0,1,3.6,1.25,7.51,7.51,0,0,1,2.66,2.48,7.13,7.13,0,0,1,1,4V38.69Zm-15.35-2.35.94-.47c.35-.17.66-.35.94-.52V21.46A7,7,0,0,0,155.71,23a10.36,10.36,0,0,0-1.59,2.17,12.17,12.17,0,0,0-1,2.58,10.86,10.86,0,0,0-.36,2.74v3.24a2.9,2.9,0,0,0,.78,1.9,2.27,2.27,0,0,0,1.72.92A1.55,1.55,0,0,0,155.92,36.34Z"/><path class="cls-1" d="M205.94,39v.44H191.78V36.24a9.07,9.07,0,0,1-.62.95,14.8,14.8,0,0,1-1.07,1.18,3.66,3.66,0,0,1-.68.54q-.36.23-.69.39a2.32,2.32,0,0,1-.76.27,14,14,0,0,1-2.73.27,14.89,14.89,0,0,1-3.5-.43,13.31,13.31,0,0,1-3.5-1.43,11.91,11.91,0,0,1-5.08-5.82,13.73,13.73,0,0,1-1-3.55A27.89,27.89,0,0,1,172,25a27.48,27.48,0,0,1,.24-3.58,13.48,13.48,0,0,1,1-3.53,12.46,12.46,0,0,1,1.94-3.17,12.09,12.09,0,0,1,3.14-2.62,12.3,12.3,0,0,1,3.17-1.34,12.56,12.56,0,0,1,3.12-.41,9.12,9.12,0,0,1,3.27.52,6.41,6.41,0,0,1,2.3,1.45,12,12,0,0,1,1,1.12,10.29,10.29,0,0,1,.68.95V1.59h-4.09V1.15h4.09c1.35-.07,2.65-.17,3.88-.28C196.72.8,197.82.69,199,.55A19.87,19.87,0,0,0,201.84,0V39ZM191.78,19.46c0-.73,0-1.44-.08-2.13a7.42,7.42,0,0,0-.41-2,14.64,14.64,0,0,0-.6-1.45,3.43,3.43,0,0,0-.93-1.18,5.85,5.85,0,0,0-1-.76,1.82,1.82,0,0,0-.9-.22,2.84,2.84,0,0,0-1.78.68,6.78,6.78,0,0,0-1.39,1.51,9.39,9.39,0,0,0-1.15,4.53c-.11,2-.16,4.19-.16,6.56s.06,4.51.19,6.42a9.42,9.42,0,0,0,1.17,4.4c.15.22.34.49.58.8a7.07,7.07,0,0,0,.84.92,4.64,4.64,0,0,0,1.1.77,2.78,2.78,0,0,0,1.26.3,1,1,0,0,0,.73-.22c.17-.14.45-.4.85-.76a3.72,3.72,0,0,0,.74-1.1,7.3,7.3,0,0,0,.46-1.31,12.8,12.8,0,0,0,.49-3.61Z"/><path class="cls-1" d="M233.87,13.39a11.87,11.87,0,0,1,3.91,4.45,15.11,15.11,0,0,1,1.61,7.25,15.28,15.28,0,0,1-1.61,7.27,11.39,11.39,0,0,1-3.91,4.42,27.78,27.78,0,0,1-3,1.75,13.9,13.9,0,0,1-2.3.9,9.89,9.89,0,0,1-2.13.36c-.71,0-1.56.05-2.54.05h-.55c-1,0-1.85,0-2.59-.05a11.39,11.39,0,0,1-2.27-.36,14,14,0,0,1-2.43-.9,24.51,24.51,0,0,1-3-1.75,11.29,11.29,0,0,1-3.9-4.42,15.16,15.16,0,0,1-1.62-7.27,15,15,0,0,1,1.62-7.25,11.76,11.76,0,0,1,3.9-4.45,26,26,0,0,1,3-1.75,14.78,14.78,0,0,1,2.32-.9,9.89,9.89,0,0,1,2.13-.36c.72,0,1.56-.05,2.55-.05h.87c1,0,1.83,0,2.54.05a9.89,9.89,0,0,1,2.13.36,13.9,13.9,0,0,1,2.3.9A27.78,27.78,0,0,1,233.87,13.39Zm-7.33,24.38a6.08,6.08,0,0,0,.82-2,20.78,20.78,0,0,0,.52-3c.13-1.11.21-2.32.25-3.63s.05-2.68.05-4.1,0-2.79-.08-4.1-.14-2.53-.27-3.64a16.38,16.38,0,0,0-.58-2.92,4.8,4.8,0,0,0-1-1.91A5.58,5.58,0,0,0,224.44,11a3.11,3.11,0,0,0-1-.22,3.33,3.33,0,0,0-1,.22,5,5,0,0,0-1.8,1.53,4.8,4.8,0,0,0-1,1.91,19.4,19.4,0,0,0-.6,2.92,35.64,35.64,0,0,0-.27,3.64c0,1.31-.06,2.68-.06,4.1s0,2.78.06,4.1a35.43,35.43,0,0,0,.27,3.63,19.15,19.15,0,0,0,.6,2.92,5.41,5.41,0,0,0,1,2A6.41,6.41,0,0,0,222.25,39a2.9,2.9,0,0,0,1.23.44h.44A3.23,3.23,0,0,0,226.54,37.77Z"/><path class="cls-1" d="M261,11.81a9.62,9.62,0,0,1,1.74.19,5.24,5.24,0,0,1,2,.79,4.94,4.94,0,0,1,1.59,1.75,6.09,6.09,0,0,1,.65,3,7.11,7.11,0,0,1-.52,2.85,6.21,6.21,0,0,1-1.31,2,5.26,5.26,0,0,1-1.75,1.18,4.91,4.91,0,0,1-1.77.38,2.89,2.89,0,0,1-2.65-1.15,6.11,6.11,0,0,1-.74-3.33,6,6,0,0,1,.19-1.51,9.14,9.14,0,0,1,.46-1.34l.5-1.06a2,2,0,0,0,.21-.74c0-1-.25-1.47-.76-1.47a2.06,2.06,0,0,0-1.75.92l-.49.72a5.9,5.9,0,0,0-.74,3c-.09,1.44-.14,3.15-.14,5.11V39h4.1v.44h-19V39H245V11.59h-4.15v-.44c1,0,2.23,0,3.63-.05s2.82-.1,4.24-.2,2.75-.21,4-.35a19.73,19.73,0,0,0,3-.55v6a7.54,7.54,0,0,1,.44-1.09,4.92,4.92,0,0,1,.71-1l.22-.16a7.36,7.36,0,0,1,2.1-1.53A4.63,4.63,0,0,1,261,11.81Z"/><path class="cls-1" d="M37.43,23.56a47.6,47.6,0,0,1,4.93,1,18.7,18.7,0,0,1,4.93,2.06,12.83,12.83,0,0,1,3.83,3.5,8.86,8.86,0,0,1,1.53,5.32,11.78,11.78,0,0,1-.65,4,10.48,10.48,0,0,1-1.7,3,10.1,10.1,0,0,1-2.42,2.15,18.31,18.31,0,0,1-2.74,1.47,23.13,23.13,0,0,1-7.45,1.51H0v-.53H6.53V2.46H0V1.94H34.49a25,25,0,0,1,7,1.3A20,20,0,0,1,44,4.49,9,9,0,0,1,47.85,8.8a8.42,8.42,0,0,1,.62,3.33,7.83,7.83,0,0,1-.78,3.53,12.71,12.71,0,0,1-2,2.84,14.52,14.52,0,0,1-2.55,2.19,21.41,21.41,0,0,1-2.61,1.5,20.91,20.91,0,0,1-2.13.88,5.56,5.56,0,0,1-1,.29ZM21.49,2.46V23.23h.72a16.7,16.7,0,0,0,6.14-1.17,15.26,15.26,0,0,0,2.29-1.14,8.39,8.39,0,0,0,2-1.74A8,8,0,0,0,34,16.77a8.94,8.94,0,0,0,.53-3.2V12.13a9.08,9.08,0,0,0-1.47-5.55A9.64,9.64,0,0,0,29.85,3.7a12.59,12.59,0,0,0-4.7-1.24Zm3.14,44.68a16.24,16.24,0,0,0,6-1.43,12.21,12.21,0,0,0,2.22-1.38,8.92,8.92,0,0,0,2-2.09,11,11,0,0,0,1.37-2.9,13,13,0,0,0,.52-3.89,12,12,0,0,0-.88-4.87,11,11,0,0,0-2.19-3.3,10.07,10.07,0,0,0-2.84-2,15.6,15.6,0,0,0-2.87-1.05,16,16,0,0,0-2.26-.39l-1-.06h-3.2V47.14Z"/></svg>