<?xml version="1.0" encoding="utf-8"?>
<!-- Generator: Adobe Illustrator 24.0.2, SVG Export Plug-In . SVG Version: 6.00 Build 0)  -->
<svg version="1.1" id="Capa_1" xmlns="http://www.w3.org/2000/svg" xmlns:xlink="http://www.w3.org/1999/xlink" x="0px" y="0px"
	 viewBox="0 0 189 40.1" style="enable-background:new 0 0 189 40.1;" xml:space="preserve">
<style type="text/css">
	.st0{fill:#FFFFFF;}
</style>
<g>
	<path class="st0" d="M29.8,19.3c1.2,0.2,2.5,0.5,3.9,0.9c1.4,0.4,2.7,1,3.9,1.8c1.2,0.8,2.2,1.8,3,3c0.8,1.2,1.2,2.7,1.2,4.5
		c0,1.3-0.2,2.4-0.5,3.4c-0.3,1-0.8,1.9-1.4,2.6c-0.6,0.7-1.2,1.3-1.9,1.8s-1.5,0.9-2.2,1.3c-1.7,0.7-3.7,1.2-5.9,1.3H0v-0.4h5.2
		V1.4H0V0.9h27.5c2,0.1,3.9,0.5,5.6,1.1c0.7,0.3,1.4,0.6,2,1.1c0.7,0.4,1.2,0.9,1.8,1.5s0.9,1.3,1.3,2.1c0.3,0.8,0.5,1.8,0.5,2.8
		c0,1.1-0.2,2.1-0.6,3c-0.4,0.9-0.9,1.7-1.6,2.4c-0.6,0.7-1.3,1.3-2,1.9c-0.7,0.5-1.4,0.9-2.1,1.3c-0.7,0.3-1.2,0.6-1.7,0.8
		c-0.5,0.2-0.7,0.3-0.8,0.3V19.3z M17.1,1.4v17.7h0.6c1.8,0,3.5-0.4,4.9-1c0.6-0.3,1.2-0.6,1.8-1c0.6-0.4,1.1-0.9,1.6-1.5
		c0.5-0.6,0.8-1.3,1.1-2.1c0.3-0.8,0.4-1.7,0.4-2.7V9.6c0-2-0.4-3.6-1.2-4.7S24.7,3,23.8,2.4c-1.1-0.6-2.4-0.9-3.7-1.1H17.1z
		 M19.6,39.4c1.8-0.1,3.4-0.5,4.8-1.2c0.6-0.3,1.2-0.7,1.8-1.2c0.6-0.5,1.1-1.1,1.6-1.8c0.5-0.7,0.8-1.5,1.1-2.5
		c0.3-0.9,0.4-2,0.4-3.3c0-1.6-0.2-3-0.7-4.1c-0.5-1.1-1.1-2.1-1.7-2.8c-0.7-0.7-1.4-1.3-2.3-1.7c-0.8-0.4-1.6-0.7-2.3-0.9
		c-0.7-0.2-1.3-0.3-1.8-0.3c-0.5,0-0.7-0.1-0.8-0.1h-2.6v19.9H19.6z"/>
	<path class="st0" d="M62.2,10.9c1.2,0.8,2.2,2,3,3.6c0.8,1.6,1.2,3.6,1.2,5.9c0,2.3-0.4,4.3-1.2,5.9c-0.8,1.6-1.8,2.8-3,3.6
		c-0.9,0.6-1.6,1.1-2.3,1.4c-0.6,0.3-1.2,0.6-1.7,0.7c-0.5,0.2-1.1,0.3-1.6,0.3c-0.5,0-1.2,0-1.9,0h-0.4c-0.7,0-1.4,0-2,0
		c-0.6,0-1.1-0.1-1.7-0.3c-0.6-0.2-1.2-0.4-1.9-0.7c-0.7-0.3-1.4-0.8-2.3-1.4c-1.2-0.8-2.2-2-3-3.6c-0.8-1.6-1.2-3.6-1.2-5.9
		c0-2.3,0.4-4.3,1.2-5.9c0.8-1.6,1.8-2.8,3-3.6c0.9-0.6,1.6-1.1,2.3-1.4c0.6-0.3,1.2-0.6,1.8-0.7c0.5-0.2,1.1-0.3,1.6-0.3
		c0.5,0,1.2,0,1.9,0h0.7c0.7,0,1.4,0,1.9,0c0.5,0,1.1,0.1,1.6,0.3c0.5,0.2,1.1,0.4,1.7,0.7C60.6,9.8,61.3,10.3,62.2,10.9z
		 M56.7,30.7c0.2-0.4,0.5-0.9,0.6-1.6c0.2-0.7,0.3-1.5,0.4-2.4c0.1-0.9,0.2-1.9,0.2-3c0-1.1,0-2.2,0-3.3c0-1.2,0-2.3-0.1-3.3
		c0-1.1-0.1-2.1-0.2-3c-0.1-0.9-0.2-1.7-0.4-2.4c-0.2-0.7-0.4-1.2-0.7-1.6c-0.6-0.7-1.1-1.1-1.4-1.2c-0.3-0.1-0.6-0.2-0.7-0.2
		s-0.4,0.1-0.7,0.2c-0.3,0.1-0.8,0.5-1.4,1.2c-0.3,0.4-0.6,0.9-0.7,1.6c-0.2,0.7-0.3,1.5-0.5,2.4c-0.1,0.9-0.2,1.9-0.2,3
		c0,1.1,0,2.2,0,3.3c0,1.2,0,2.3,0,3.3c0,1.1,0.1,2.1,0.2,3c0.1,0.9,0.3,1.7,0.5,2.4c0.2,0.7,0.4,1.2,0.7,1.6c0.4,0.4,0.8,0.8,1.2,1
		c0.4,0.2,0.7,0.4,0.9,0.4h0.3C55.4,32,56.1,31.6,56.7,30.7z"/>
	<path class="st0" d="M93.9,31.7V32H83.2v-2.6c-0.1,0.3-0.3,0.5-0.5,0.8c-0.2,0.3-0.5,0.6-0.8,1c-0.2,0.2-0.3,0.3-0.5,0.4
		c-0.2,0.1-0.4,0.2-0.5,0.3c-0.2,0.1-0.4,0.2-0.6,0.2c-0.7,0.1-1.4,0.2-2.1,0.2c-0.9,0-1.7-0.1-2.7-0.4c-0.9-0.2-1.8-0.6-2.7-1.2
		c-1-0.6-1.8-1.3-2.4-2.1c-0.6-0.8-1.1-1.7-1.5-2.6c-0.4-0.9-0.6-1.9-0.7-2.9c-0.1-1-0.2-2-0.2-3c0-0.9,0.1-1.9,0.2-2.9
		c0.1-1,0.4-1.9,0.7-2.9c0.4-0.9,0.9-1.8,1.5-2.6c0.6-0.8,1.4-1.5,2.4-2.1c0.8-0.5,1.6-0.9,2.4-1.1c0.8-0.2,1.6-0.3,2.4-0.3
		c1,0,1.8,0.1,2.5,0.4c0.7,0.3,1.3,0.7,1.7,1.2c0.3,0.3,0.6,0.6,0.8,0.9c0.2,0.3,0.4,0.5,0.5,0.8V1.3H80V0.9h3.1c1-0.1,2-0.1,3-0.2
		c0.8-0.1,1.6-0.1,2.5-0.3c0.9-0.1,1.6-0.3,2.2-0.4v31.7H93.9z M83.2,15.8c0-0.6,0-1.2-0.1-1.7c0-0.6-0.1-1.1-0.3-1.6
		c-0.1-0.4-0.3-0.8-0.5-1.2c-0.2-0.4-0.4-0.7-0.7-1c-0.3-0.3-0.6-0.5-0.8-0.6c-0.2-0.1-0.4-0.2-0.7-0.2c-0.5,0-0.9,0.2-1.4,0.6
		c-0.4,0.4-0.8,0.8-1.1,1.2c-0.5,0.8-0.8,2.1-0.9,3.7c-0.1,1.6-0.1,3.4-0.1,5.3c0,1.9,0,3.7,0.1,5.2c0.1,1.6,0.4,2.7,0.9,3.6
		c0.1,0.2,0.3,0.4,0.4,0.6c0.2,0.3,0.4,0.5,0.6,0.8c0.2,0.3,0.5,0.5,0.8,0.6c0.3,0.2,0.6,0.2,1,0.2c0.2,0,0.4-0.1,0.6-0.2
		c0.1-0.1,0.3-0.3,0.6-0.6c0.2-0.2,0.4-0.5,0.6-0.9c0.2-0.4,0.3-0.7,0.4-1.1c0.2-0.9,0.4-1.9,0.4-2.9V15.8z"/>
	<path class="st0" d="M103.7,21c0,1.2,0.1,2.3,0.2,3.5c0.1,1.2,0.4,2.2,0.8,3.2c0.4,0.9,1,1.7,1.8,2.3c0.8,0.6,1.9,0.9,3.3,0.9
		c1,0,1.9-0.2,2.6-0.6c0.8-0.4,1.4-0.9,2-1.5c0.6-0.6,1.1-1.3,1.5-2.2c0.4-0.8,0.8-1.7,1.1-2.6l0.4,0c-0.4,1.2-0.8,2.3-1.3,3.3
		c-0.5,1-1.1,1.9-1.8,2.6c-0.7,0.7-1.7,1.3-2.8,1.7c-1.1,0.4-2.5,0.6-4.1,0.6c-0.7,0-1.4,0-2,0c-0.6,0-1.2-0.1-1.8-0.3
		c-0.6-0.2-1.2-0.4-1.9-0.7c-0.7-0.3-1.4-0.8-2.3-1.4c-1.2-0.8-2.2-2-3-3.6c-0.8-1.6-1.2-3.6-1.2-5.9c0-1.8,0.2-3.4,0.7-4.7
		c0.5-1.3,1.1-2.4,1.8-3.3c0.7-0.9,1.6-1.6,2.5-2.1c0.9-0.5,1.8-0.9,2.8-1.2c0.9-0.3,1.8-0.5,2.6-0.6c0.8-0.1,1.5-0.1,2.1-0.1
		c1.2,0,2.4,0.1,3.6,0.4c1.2,0.2,2.4,0.7,3.4,1.2c1,0.6,1.8,1.4,2.5,2.4c0.7,1,1,2.3,1,3.9c0,0.9-0.3,1.7-0.8,2.2
		c-0.5,0.5-1.2,0.9-1.9,1.2c-0.8,0.3-1.6,0.4-2.5,0.5c-0.9,0.1-1.7,0.1-2.5,0.1h-6.7V21z M106.6,8.8c-0.7,0-1.2,0.3-1.6,0.9
		c-0.4,0.6-0.7,1.3-0.9,2.1c-0.2,0.9-0.3,1.8-0.4,2.8c-0.1,1-0.1,2-0.1,2.9V20h3.7c0.1,0,0.4,0,0.9-0.1c0.4-0.1,0.8-0.2,1.1-0.5
		c0.2-0.2,0.3-0.4,0.4-0.7c0.1-0.3,0.2-0.6,0.2-0.8c0-0.3,0.1-0.5,0.1-0.8c0-0.2,0-0.4,0-0.5c0-1.6-0.1-2.9-0.3-3.9
		c-0.2-1-0.4-1.8-0.7-2.4c-0.3-0.6-0.6-0.9-1-1.2c-0.4-0.2-0.8-0.3-1.1-0.3H106.6z"/>
	<path class="st0" d="M145.7,6.2c0,0.7-0.2,1.3-0.7,1.7c-0.5,0.4-1.1,0.7-1.8,1c-0.7,0.2-1.5,0.4-2.3,0.6c-0.8,0.2-1.6,0.4-2.2,0.6
		l0.5,0.2c1,0.5,1.9,1.3,2.6,2.4c0.7,1.1,1.1,2.4,1.1,3.9c0,1.2-0.2,2.3-0.6,3.2c-0.4,0.9-1,1.6-1.7,2.2c-0.7,0.6-1.5,1.1-2.4,1.4
		c-0.9,0.3-1.8,0.6-2.6,0.8c-0.9,0.2-1.7,0.3-2.6,0.3c-0.8,0-1.5,0.1-2.1,0.1c-0.5,0-1.1,0-1.8,0c-0.7,0-1.3,0.1-1.9,0.2
		c-0.6,0.1-1.1,0.3-1.5,0.6c-0.4,0.3-0.6,0.7-0.6,1.2c0,0.4,0.1,0.8,0.4,1.1c0.2,0.3,0.8,0.5,1.7,0.5c0.8,0,1.6-0.1,2.3-0.2
		c0.7-0.2,1.5-0.3,2.3-0.6c0.8-0.2,1.6-0.4,2.5-0.6c0.9-0.2,1.9-0.2,3.1-0.2c0.9,0,1.8,0.1,2.5,0.3c0.8,0.2,1.4,0.5,2,1
		c0.6,0.5,1,1.1,1.3,2c0.3,0.8,0.5,1.9,0.5,3.2c0,1.5-0.4,2.7-1.1,3.6c-0.7,0.9-1.6,1.7-2.7,2.2c-1.1,0.5-2.3,0.9-3.7,1
		c-1.3,0.2-2.6,0.3-3.9,0.3c-1.1,0-2.2,0-3.4-0.1c-1.2-0.1-2.4-0.2-3.5-0.5c-1.1-0.3-2-0.6-2.7-1.1c-0.7-0.5-1.1-1.1-1.1-1.9
		c0-0.7,0.2-1.4,0.5-1.8c0.3-0.5,0.7-0.7,1.1-0.7c-0.7-0.3-1.2-0.6-1.6-0.9c-0.4-0.4-0.7-0.7-0.9-1.1c-0.2-0.4-0.3-0.8-0.4-1.2
		c-0.1-0.4-0.1-0.8-0.1-1.1c0-1.1,0.3-2,0.8-2.7c0.5-0.7,1.1-1.2,1.9-1.6c0.7-0.4,1.6-0.7,2.4-0.8c0.9-0.1,1.6-0.3,2.4-0.3
		c-0.6-0.1-1.4-0.3-2.2-0.7c-0.8-0.3-1.6-0.8-2.4-1.4c-0.7-0.6-1.4-1.3-1.9-2.2c-0.5-0.9-0.8-2-0.8-3.3c0-1.6,0.4-2.9,1.1-3.9
		c0.7-1,1.6-1.8,2.7-2.4c1.1-0.6,2.3-1,3.6-1.2c1.3-0.2,2.6-0.3,3.8-0.3c1.1,0,2.1,0.1,3.2,0.2c1.1,0.2,2.1,0.5,3.2,0.9
		c0.2-0.5,0.6-1.1,0.9-1.7c0.4-0.6,0.8-1.2,1.2-1.8c0.5-0.5,1-1,1.5-1.4c0.6-0.4,1.2-0.6,1.8-0.6c0.2,0,0.4,0,0.6,0.1
		c0.2,0,0.5,0.1,0.7,0.3c0.2,0.1,0.4,0.3,0.6,0.6C145.7,5.5,145.7,5.8,145.7,6.2z M132.4,39.7c2.5,0,4.2-0.4,5.3-1.1
		c1.1-0.7,1.6-1.7,1.6-3c0-0.6-0.2-1.1-0.6-1.4c-0.4-0.4-1.1-0.6-2.1-0.6c-0.6,0-1.2,0.1-1.8,0.2c-0.5,0.2-1.1,0.3-1.6,0.5
		c-0.6,0.2-1.1,0.4-1.8,0.5c-0.6,0.2-1.4,0.2-2.2,0.2h-1.3c-0.1,0-0.2,0-0.2,0c-0.2,0-0.5,0.1-0.7,0.2c-0.2,0.1-0.3,0.2-0.4,0.3
		c-0.1,0.1-0.2,0.3-0.2,0.6c0,1.3,0.5,2.2,1.4,2.7C128.8,39.4,130.3,39.7,132.4,39.7z M134.2,23.1c0.5-0.5,0.8-1.3,0.9-2.5
		c0.1-1.2,0.1-2.5,0.1-4c0-0.7,0-1.5,0-2.2c0-0.7,0-1.4-0.1-2c-0.1-0.6-0.2-1.1-0.3-1.6c-0.2-0.4-0.4-0.8-0.6-1
		c-0.6-0.5-1-0.7-1.3-0.8c-0.3-0.1-0.7-0.1-1-0.1h-0.2c-0.8,0-1.4,0.2-1.8,0.5c-0.4,0.3-0.8,0.8-1,1.4c-0.2,0.6-0.4,1.4-0.5,2.4
		c-0.1,0.9-0.1,2.1-0.1,3.3c0,1.1,0,2,0.1,2.9c0,0.9,0.1,1.6,0.3,2.2c0.2,0.6,0.4,1.1,0.7,1.5c0.3,0.4,0.7,0.6,1.2,0.8
		c0.1,0,0.2,0.1,0.4,0.1c0.1,0,0.3,0,0.4,0c0.2,0,0.3,0,0.6,0c0.2,0,0.3,0,0.5,0c0.1,0,0.3,0,0.4-0.1c0.1,0,0.3-0.1,0.4-0.1
		c0.1-0.1,0.3-0.1,0.4-0.2C133.7,23.5,133.9,23.4,134.2,23.1z"/>
	<path class="st0" d="M168.7,31.7V32H158v-2.8l-0.3,0.2c-1,0.6-2.2,1.2-3.4,1.8c-1.2,0.6-2.5,0.9-3.7,0.9h-0.2
		c-0.6,0-1.2-0.1-1.7-0.4c-0.6-0.2-1.1-0.6-1.5-1c-0.4-0.4-0.8-1-1.1-1.6c-0.3-0.7-0.4-1.4-0.4-2.2c0-0.5,0.1-0.9,0.2-1.4
		c0.1-0.4,0.3-0.9,0.5-1.2c0.2-0.3,0.4-0.6,0.8-1c0.4-0.4,0.8-0.7,1.2-1.1c0.4-0.4,0.9-0.7,1.4-1c0.5-0.3,1-0.6,1.4-0.9
		c1.1-0.7,2.2-1.3,3.3-1.9c1.2-0.6,2.3-1.2,3.3-1.8v-1.1c0-0.8,0-1.5-0.1-2.3c-0.1-0.8-0.3-1.5-0.6-2.1c-0.3-0.6-0.7-1.1-1.3-1.5
		c-0.6-0.4-1.3-0.6-2.3-0.6c-0.3,0-0.7,0-1,0.1c-0.3,0-0.7,0.1-1,0.3c-0.2,0.1-0.5,0.3-0.7,0.6c-0.2,0.3-0.3,0.5-0.3,0.9
		c0,0.4,0.2,0.8,0.5,1.1c0.3,0.3,0.7,0.5,1.1,0.8c0.4,0.3,0.8,0.6,1.1,0.9c0.3,0.4,0.5,0.8,0.5,1.4c0,0.9-0.3,1.7-0.9,2.2
		c-0.6,0.5-1.3,0.8-2.1,0.8c-0.5,0-0.9-0.1-1.4-0.3c-0.5-0.2-0.9-0.5-1.2-0.8c-0.4-0.4-0.7-0.8-0.9-1.2c-0.2-0.5-0.4-1-0.4-1.6
		c0-1.2,0.3-2.2,1-2.9c0.7-0.7,1.5-1.3,2.5-1.7c1-0.4,2.1-0.7,3.2-0.8c1.1-0.1,2.1-0.2,3-0.2c1,0,2.1,0.1,3.1,0.3
		c1.1,0.2,2,0.6,2.9,1.1c0.9,0.5,1.6,1.2,2.1,2.1c0.6,0.9,0.8,2,0.8,3.4v16.4H168.7z M156.5,29.7c0.2-0.1,0.5-0.3,0.7-0.4
		c0.3-0.1,0.5-0.3,0.7-0.4V17c-0.6,0.3-1.2,0.7-1.7,1.3c-0.5,0.5-0.9,1.2-1.3,1.8c-0.3,0.7-0.6,1.4-0.8,2.2
		c-0.2,0.8-0.3,1.6-0.3,2.3v2.8c0,0.6,0.2,1.1,0.6,1.6c0.4,0.5,0.9,0.8,1.4,0.8C156.1,29.8,156.3,29.8,156.5,29.7z"/>
	<path class="st0" d="M185.2,18.5c0.4,0.3,0.8,0.6,1.2,1c0.4,0.4,0.9,0.9,1.2,1.4c0.4,0.5,0.7,1.1,1,1.8c0.2,0.6,0.4,1.3,0.4,2.1
		c0,1.2-0.2,2.2-0.7,3.2c-0.5,0.9-1.1,1.8-2,2.4c-0.9,0.7-1.9,1.2-3,1.6c-1.2,0.4-2.5,0.6-3.9,0.6c-1.1,0-2.2-0.2-3.2-0.6
		c-1.1-0.4-2.1-0.9-3.2-1.5c-0.2-0.1-0.3-0.1-0.3-0.1c-0.4,0-0.8,0.1-1.1,0.3c-0.3,0.2-0.6,0.4-0.8,0.6c-0.2,0.3-0.5,0.5-0.6,0.8
		h-0.5V21.6h0.5c0.1,0.7,0.2,1.4,0.4,2c0.1,0.6,0.3,1.2,0.5,1.9c0.2,0.7,0.5,1.3,0.8,1.9c0.4,0.7,0.8,1.4,1.3,2
		c0.4,0.6,0.9,1,1.4,1.3c0.6,0.4,1.3,0.7,2.1,0.9c0.8,0.2,1.5,0.3,2.3,0.3c0.5,0,1.1,0,1.6,0c0.5,0,1-0.1,1.5-0.2
		c0.4-0.1,0.8-0.3,1.1-0.6c0.3-0.2,0.4-0.6,0.4-1c0-0.7-0.3-1.4-1-2c-0.7-0.6-1.5-1.2-2.4-1.8c-1-0.6-2-1.2-3.1-1.8
		c-1.1-0.6-2.1-1.4-3.1-2.2c-0.6-0.5-1.2-1-1.7-1.5c-0.5-0.5-0.9-1-1.2-1.5c-0.3-0.5-0.6-1.1-0.8-1.7c-0.2-0.6-0.3-1.3-0.3-2
		c0-1.2,0.2-2.3,0.7-3.1c0.5-0.9,1.1-1.6,1.8-2.2c0.7-0.6,1.5-1,2.4-1.2c0.9-0.3,1.7-0.4,2.5-0.4c0.7,0,1.2,0,1.7,0.1
		c0.5,0.1,0.9,0.2,1.4,0.4c0.5,0.2,0.9,0.4,1.5,0.7c0.5,0.3,1.2,0.6,2,1c0.1,0,0.2,0,0.3,0c0.4,0,0.7-0.1,1-0.3
		c0.3-0.2,0.5-0.4,0.7-0.6c0.2-0.3,0.4-0.6,0.5-0.9h0.4l0.9,8.4h-0.5c-0.1-0.4-0.2-0.8-0.4-1.2c-0.1-0.4-0.3-0.8-0.6-1.3
		c-0.2-0.5-0.6-1-1-1.6c-0.2-0.3-0.5-0.6-0.9-1.1c-0.4-0.5-0.9-0.9-1.4-1.2c-0.2-0.1-0.5-0.3-0.8-0.5c-0.3-0.2-0.7-0.4-1.1-0.6
		c-0.4-0.2-0.9-0.4-1.4-0.5c-0.5-0.1-1-0.2-1.5-0.2c-0.3,0-0.6,0-0.9,0c-0.3,0-0.7,0.1-1,0.2c-0.3,0.1-0.5,0.3-0.7,0.4
		c-0.2,0.2-0.3,0.5-0.3,0.8c0,1,0.3,1.8,0.9,2.4c0.6,0.6,1.4,1.1,2.4,1.6c1.1,0.6,2.2,1.2,3.4,1.9C183.3,17.2,184.3,17.9,185.2,18.5
		z"/>
</g>
</svg>
