<svg id="Capa_1" data-name="Capa 1" xmlns="http://www.w3.org/2000/svg" viewBox="0 0 222 76.06"><defs><style>.cls-1{fill:#fff;}</style></defs><title>nombre-buscador</title><path class="cls-1" d="M59,65.45a30.32,30.32,0,0,0,3.24-6.16A34.59,34.59,0,0,0,64,53.14a50.59,50.59,0,0,0,.69-5.57c.1-1.73.16-3.24.16-4.51h.85v33H0v-.85H10.61V2.64H0V1.79H44.46v.85H33.74V75.21h3a50,50,0,0,0,6-.37,26.84,26.84,0,0,0,6-1.44,21.41,21.41,0,0,0,5.52-3A20.53,20.53,0,0,0,59,65.45Z"/><path class="cls-1" d="M98.85,60.64v.68H69v-.68h6.47V18H69v-.68c1.59,0,3.49,0,5.7-.08s4.44-.16,6.68-.3,4.35-.33,6.33-.55a32.35,32.35,0,0,0,4.77-.85V60.64ZM92.89,4a7.25,7.25,0,0,0-2.08-2.09A11,11,0,0,0,87.75.51a13.68,13.68,0,0,0-7.4,0,10.77,10.77,0,0,0-3.06,1.4A7.29,7.29,0,0,0,75.2,4a4.66,4.66,0,0,0,0,5.1,7.14,7.14,0,0,0,2.09,2.08,10.52,10.52,0,0,0,3.06,1.41,13.08,13.08,0,0,0,3.7.51,13.18,13.18,0,0,0,3.7-.51,10.76,10.76,0,0,0,3.06-1.41A7.1,7.1,0,0,0,92.89,9.1a4.61,4.61,0,0,0,0-5.1Z"/><path class="cls-1" d="M133.38,35.47a28.72,28.72,0,0,1,2.46,2,19.05,19.05,0,0,1,2.55,2.73,14.57,14.57,0,0,1,2,3.35,10.17,10.17,0,0,1,.77,4,12.74,12.74,0,0,1-1.45,6,13.44,13.44,0,0,1-4.08,4.63,20.34,20.34,0,0,1-6.21,3,27.62,27.62,0,0,1-7.91,1.06,21,21,0,0,1-6.63-1.1,42.92,42.92,0,0,1-6.55-2.81,3,3,0,0,0-.68-.17,4.61,4.61,0,0,0-2.22.51,8.75,8.75,0,0,0-1.61,1.11,8.61,8.61,0,0,0-1.28,1.61h-.93V41.42h1a31.36,31.36,0,0,0,.76,3.91c.29,1.14.65,2.34,1.11,3.62a19.87,19.87,0,0,0,1.7,3.61,31.75,31.75,0,0,0,2.59,3.75,9.52,9.52,0,0,0,2.94,2.46A16.1,16.1,0,0,0,116,60.43a20.45,20.45,0,0,0,4.67.55c1.08,0,2.17,0,3.28-.08a13.75,13.75,0,0,0,3-.47,6.82,6.82,0,0,0,2.25-1.06,2.31,2.31,0,0,0,.89-2,5,5,0,0,0-2-3.78,29.88,29.88,0,0,0-4.94-3.41c-1.95-1.1-4.07-2.26-6.33-3.48a42.52,42.52,0,0,1-6.3-4.13q-2-1.53-3.44-2.93a19.79,19.79,0,0,1-2.55-2.89A11.85,11.85,0,0,1,103,33.6a12.67,12.67,0,0,1-.55-3.92,11.83,11.83,0,0,1,1.44-6,13.15,13.15,0,0,1,3.7-4.13,16.2,16.2,0,0,1,4.89-2.38,18,18,0,0,1,5-.76,24.84,24.84,0,0,1,3.49.21,14.52,14.52,0,0,1,2.85.72c.93.34,1.94.77,3,1.28s2.43,1.13,4.08,1.87a1.6,1.6,0,0,0,.6.08,4.14,4.14,0,0,0,2.08-.51,4.48,4.48,0,0,0,1.4-1.19,8,8,0,0,0,1-1.7h.85l1.88,16.08h-.94A18.23,18.23,0,0,0,137,31a21,21,0,0,0-1.19-2.51,27,27,0,0,0-2-3q-.6-.76-1.92-2.13A16.06,16.06,0,0,0,129,20.92c-.4-.22-.92-.54-1.57-.93a19.15,19.15,0,0,0-5-2.09,12.74,12.74,0,0,0-3.11-.38c-.56,0-1.2,0-1.91.09a7.92,7.92,0,0,0-2,.38,4.1,4.1,0,0,0-1.49.85,2,2,0,0,0-.59,1.49,5.74,5.74,0,0,0,1.87,4.59,24.53,24.53,0,0,0,4.85,3.15c2.21,1.13,4.52,2.34,6.93,3.61A65.53,65.53,0,0,1,133.38,35.47Z"/><path class="cls-1" d="M165.53,54.43a10.18,10.18,0,0,0,2.21,3.7,7.62,7.62,0,0,0,2.89,2,8.69,8.69,0,0,0,3,.55v.68h-9.53a35.47,35.47,0,0,1-7.06-.59,10.84,10.84,0,0,1-4.68-2,8,8,0,0,1-2.55-3.87,20.91,20.91,0,0,1-.76-6.17V18h-6.38v-.68h2.72a14.59,14.59,0,0,0,6.93-1.78,23.7,23.7,0,0,0,5.91-4.43,24.87,24.87,0,0,0,4.13-5.57A11.34,11.34,0,0,0,163.91.43h.77V17.35h7.48V18h-7.48V48.57A17,17,0,0,0,165.53,54.43Z"/><path class="cls-1" d="M222,60.64v.68H200.06V56.05l-.6.34q-3.15,1.78-7,3.53a18.2,18.2,0,0,1-7.57,1.74h-.43A9.23,9.23,0,0,1,181,61,9.72,9.72,0,0,1,177.94,59a9.41,9.41,0,0,1-2.17-3.15,10.6,10.6,0,0,1-.8-4.25,8.38,8.38,0,0,1,.42-2.64,11,11,0,0,1,1.11-2.38,9.3,9.3,0,0,1,1.61-1.91,26.3,26.3,0,0,1,2.47-2.09c.91-.68,1.86-1.35,2.85-2s2-1.23,2.93-1.74q3.24-1.87,6.85-3.66t6.85-3.48V29.6a38.4,38.4,0,0,0-.26-4.42,11.38,11.38,0,0,0-1.19-4,7.44,7.44,0,0,0-2.68-2.89,8.53,8.53,0,0,0-4.63-1.11,16.63,16.63,0,0,0-2.09.13,6.74,6.74,0,0,0-2,.55,4.19,4.19,0,0,0-1.4,1.06,2.44,2.44,0,0,0-.64,1.66,2.47,2.47,0,0,0,1,2c.65.51,1.39,1,2.21,1.54a11.27,11.27,0,0,1,2.21,1.78,3.67,3.67,0,0,1,1,2.64,5.24,5.24,0,0,1-1.83,4.25,6.37,6.37,0,0,1-4.21,1.53,7.72,7.72,0,0,1-2.85-.55,8.49,8.49,0,0,1-2.55-1.58,8.36,8.36,0,0,1-1.87-2.38,6.24,6.24,0,0,1-.72-3,7.68,7.68,0,0,1,2.08-5.62A14.46,14.46,0,0,1,184.75,18a25.66,25.66,0,0,1,6.5-1.58,57.73,57.73,0,0,1,6.17-.38,34.93,34.93,0,0,1,6.38.6,19.16,19.16,0,0,1,5.87,2,12.15,12.15,0,0,1,4.34,4,11.66,11.66,0,0,1,1.7,6.5V60.64Zm-25-3.82,1.54-.77c.56-.28,1.07-.57,1.53-.85V32.58A11,11,0,0,0,196.65,35a16.14,16.14,0,0,0-2.59,3.53,18.94,18.94,0,0,0-1.66,4.21,17.25,17.25,0,0,0-.59,4.46v5.28a4.7,4.7,0,0,0,1.27,3.1,3.66,3.66,0,0,0,2.81,1.49A2.43,2.43,0,0,0,197,56.82Z"/></svg>