<svg id="Capa_1" data-name="Capa 1" xmlns="http://www.w3.org/2000/svg" viewBox="0 0 463.43 52.76"><defs><style>.cls-1{fill:#fff;}</style></defs><title>nombre-buscador</title><path class="cls-1" d="M22.44,30.09v20h7v.56H0v-.56H7V2H0V1.39H33.34a25.57,25.57,0,0,1,8.37,1.69,20.62,20.62,0,0,1,3.1,1.58A11.06,11.06,0,0,1,47.52,7a12.25,12.25,0,0,1,1.9,3.31,12,12,0,0,1,.74,4.36,16.12,16.12,0,0,1-1.73,8,11.53,11.53,0,0,1-4.82,4.64,22.29,22.29,0,0,1-7.52,2.19,79.16,79.16,0,0,1-9.78.56Zm0-.56h.35a15.08,15.08,0,0,0,5.7-1.48,12.09,12.09,0,0,0,2.07-1.44,9.93,9.93,0,0,0,1.83-2.15,10.93,10.93,0,0,0,1.3-3,14.4,14.4,0,0,0,.5-4V14.68a22.28,22.28,0,0,0-.35-4.18,15.26,15.26,0,0,0-1-3.13,9.36,9.36,0,0,0-1.38-2.25A11.88,11.88,0,0,0,30,3.57,7.91,7.91,0,0,0,25.75,2H22.44Z"/><path class="cls-1" d="M68.13,38.67v.43H49v-.43h4.12V1.57H49V1.14q1.51,0,3.66-.06c1.43,0,2.85-.09,4.28-.19s2.78-.2,4-.35a18.69,18.69,0,0,0,3-.54V38.67Z"/><path class="cls-1" d="M99.8,38.67v.43h-14V35.74l-.38.22q-2,1.14-4.45,2.25a11.62,11.62,0,0,1-4.83,1.11h-.27a5.89,5.89,0,0,1-2.22-.43,6.19,6.19,0,0,1-2-1.25,6,6,0,0,1-1.39-2,6.82,6.82,0,0,1-.51-2.71,5.28,5.28,0,0,1,.27-1.68,7.79,7.79,0,0,1,.7-1.52,6.09,6.09,0,0,1,1-1.22,16.57,16.57,0,0,1,1.57-1.33c.58-.43,1.18-.86,1.81-1.27a20.92,20.92,0,0,1,1.88-1.11q2.06-1.2,4.36-2.34c1.54-.76,3-1.5,4.37-2.22V18.87a26.65,26.65,0,0,0-.16-2.82,7.44,7.44,0,0,0-.76-2.55,4.87,4.87,0,0,0-1.71-1.84,5.47,5.47,0,0,0-3-.7,10.09,10.09,0,0,0-1.33.08,4.2,4.2,0,0,0-1.27.35,2.5,2.5,0,0,0-.9.68,1.53,1.53,0,0,0-.4,1,1.57,1.57,0,0,0,.62,1.31c.42.32.89.65,1.41,1a7.82,7.82,0,0,1,1.41,1.14,2.33,2.33,0,0,1,.62,1.68,3.32,3.32,0,0,1-1.16,2.71,4,4,0,0,1-2.69,1,5,5,0,0,1-1.81-.35,5.42,5.42,0,0,1-1.63-1A5.14,5.14,0,0,1,71.9,19a4,4,0,0,1-.46-1.9,4.91,4.91,0,0,1,1.32-3.58,9.29,9.29,0,0,1,3.29-2.12,16.49,16.49,0,0,1,4.14-1,36.76,36.76,0,0,1,3.94-.24,21.77,21.77,0,0,1,4.06.38,12.15,12.15,0,0,1,3.75,1.3,7.63,7.63,0,0,1,2.76,2.57,7.39,7.39,0,0,1,1.09,4.15V38.67ZM83.86,36.23l1-.49c.36-.18.69-.36,1-.54V20.77a7,7,0,0,0-2.17,1.55A10.56,10.56,0,0,0,82,24.57a12,12,0,0,0-1,2.68,10.85,10.85,0,0,0-.38,2.85v3.36a3,3,0,0,0,.81,2,2.32,2.32,0,0,0,1.79,1A1.57,1.57,0,0,0,83.86,36.23Z"/><path class="cls-1" d="M114,44.06a6.61,6.61,0,0,0,1.41,2.36,4.87,4.87,0,0,0,1.84,1.25,5.67,5.67,0,0,0,1.9.35v.43H113a22.22,22.22,0,0,1-4.5-.38,6.76,6.76,0,0,1-3-1.3,5.05,5.05,0,0,1-1.63-2.47,13.46,13.46,0,0,1-.49-3.93V11.5H99.37v-.44h1.73a9.4,9.4,0,0,0,4.42-1.13,14.73,14.73,0,0,0,3.77-2.83,15.75,15.75,0,0,0,2.63-3.55,7.11,7.11,0,0,0,1-3.28h.49V11.06h4.78v.44h-4.78V40.32A10.7,10.7,0,0,0,114,44.06Z"/><path class="cls-1" d="M145.74,13.29a11.6,11.6,0,0,1,3.87,4.42,14.85,14.85,0,0,1,1.6,7.18,15.07,15.07,0,0,1-1.6,7.22,11.14,11.14,0,0,1-3.87,4.39,29.25,29.25,0,0,1-3,1.74,14.19,14.19,0,0,1-2.28.89,9.12,9.12,0,0,1-2.11.35q-1.06.06-2.52.06h-.55c-1,0-1.83,0-2.57-.06a10.51,10.51,0,0,1-2.25-.35,15,15,0,0,1-2.42-.89,25.53,25.53,0,0,1-3-1.74,11.14,11.14,0,0,1-3.87-4.39,15.07,15.07,0,0,1-1.6-7.22,14.85,14.85,0,0,1,1.6-7.18,11.6,11.6,0,0,1,3.87-4.42,26.33,26.33,0,0,1,3-1.74,14.5,14.5,0,0,1,2.3-.89,9.8,9.8,0,0,1,2.12-.36c.7,0,1.54-.05,2.52-.05h.87c1,0,1.81,0,2.52.05a9.71,9.71,0,0,1,2.11.36,13.31,13.31,0,0,1,2.28.89A29.25,29.25,0,0,1,145.74,13.29Zm-7.27,24.19a6,6,0,0,0,.81-2,22.26,22.26,0,0,0,.52-2.93c.12-1.1.21-2.31.24-3.61s.06-2.66.06-4.07,0-2.76-.08-4.06-.15-2.51-.28-3.61a15.35,15.35,0,0,0-.57-2.9,4.82,4.82,0,0,0-1-1.9,5.79,5.79,0,0,0-1.82-1.52,3.31,3.31,0,0,0-.95-.22,3.64,3.64,0,0,0-1,.22,5.17,5.17,0,0,0-1.79,1.52,4.82,4.82,0,0,0-1,1.9,19.11,19.11,0,0,0-.6,2.9c-.14,1.1-.23,2.3-.27,3.61s0,2.65,0,4.06,0,2.77,0,4.07.13,2.51.27,3.61a19.11,19.11,0,0,0,.6,2.9,5.38,5.38,0,0,0,1,2,6.36,6.36,0,0,0,1.54,1.25,2.82,2.82,0,0,0,1.22.43h.44A3.21,3.21,0,0,0,138.47,37.48Z"/><path class="cls-1" d="M174.16,22.62a18.17,18.17,0,0,1,1.57,1.24,12.93,12.93,0,0,1,1.63,1.74,9.27,9.27,0,0,1,1.24,2.14,6.4,6.4,0,0,1,.49,2.52,8.11,8.11,0,0,1-.92,3.85,8.64,8.64,0,0,1-2.6,3,13.11,13.11,0,0,1-4,1.9,17.73,17.73,0,0,1-5.05.68,13.31,13.31,0,0,1-4.23-.71,28,28,0,0,1-4.17-1.79,2,2,0,0,0-.44-.11,2.88,2.88,0,0,0-1.41.33,5.46,5.46,0,0,0-1,.7,5.91,5.91,0,0,0-.81,1h-.6V26.41h.65a20.06,20.06,0,0,0,.49,2.5c.18.72.42,1.49.71,2.3a12.49,12.49,0,0,0,1.08,2.31,19.71,19.71,0,0,0,1.65,2.38,6,6,0,0,0,1.88,1.58,10.13,10.13,0,0,0,2.76,1.05,12.9,12.9,0,0,0,3,.36c.69,0,1.39,0,2.09-.06a8,8,0,0,0,1.93-.3,4.18,4.18,0,0,0,1.44-.67,1.5,1.5,0,0,0,.56-1.25,3.18,3.18,0,0,0-1.27-2.41A18.18,18.18,0,0,0,167.67,32q-1.86-1.07-4-2.23a27.19,27.19,0,0,1-4-2.63c-.83-.65-1.56-1.27-2.2-1.87a13,13,0,0,1-1.62-1.84,7.13,7.13,0,0,1-1-2,7.87,7.87,0,0,1-.36-2.49,7.52,7.52,0,0,1,.93-3.83,8.29,8.29,0,0,1,2.36-2.63A10.08,10.08,0,0,1,160.81,11a11.33,11.33,0,0,1,3.2-.49,15.84,15.84,0,0,1,2.23.13,9.61,9.61,0,0,1,1.81.46c.6.22,1.24.49,1.93.82s1.55.72,2.6,1.19a.88.88,0,0,0,.38,0,2.59,2.59,0,0,0,1.33-.32,3,3,0,0,0,.9-.76,5.84,5.84,0,0,0,.65-1.08h.54l1.19,10.25H177a12.62,12.62,0,0,0-.49-1.47,14.73,14.73,0,0,0-.76-1.6,16.29,16.29,0,0,0-1.25-1.92,17,17,0,0,0-1.22-1.36,10.19,10.19,0,0,0-1.87-1.52l-1-.59a11.5,11.5,0,0,0-3.2-1.33,7.68,7.68,0,0,0-2-.25c-.37,0-.77,0-1.22.06a4.78,4.78,0,0,0-1.25.24,2.66,2.66,0,0,0-1,.54,1.25,1.25,0,0,0-.38,1,3.68,3.68,0,0,0,1.19,2.93,15.9,15.9,0,0,0,3.09,2c1.41.72,2.89,1.49,4.42,2.3A41.66,41.66,0,0,1,174.16,22.62Z"/><path class="cls-1" d="M207.78,26.09v.3h-.48a4.45,4.45,0,0,0-1.55.23,2.63,2.63,0,0,0-.95.63,2.8,2.8,0,0,0-.57.83,7.29,7.29,0,0,0-.35.85L196,48.82a6.11,6.11,0,0,1-1.06,1.69,7.18,7.18,0,0,1-1.44,1.23,6.36,6.36,0,0,1-1.58.76,5,5,0,0,1-1.48.26,3.28,3.28,0,0,1-1.23-.24,3.51,3.51,0,0,1-1.09-.68,3.65,3.65,0,0,1-.77-1.05,3,3,0,0,1-.3-1.35,3.25,3.25,0,0,1,.28-1.32,3.34,3.34,0,0,1,.76-1.09,3.67,3.67,0,0,1,1.1-.74,3.33,3.33,0,0,1,1.33-.27,3.23,3.23,0,0,1,1.69.46,2.87,2.87,0,0,1,1.18,1.34l.63,1.36c.19.35.4.52.62.52a.73.73,0,0,0,.52-.31,6.53,6.53,0,0,0,.44-.61L197,45.13c-.2-.37-.49-.91-.87-1.64s-.82-1.56-1.33-2.5-1.05-2-1.63-3.06-1.2-2.18-1.81-3.26-1.22-2.12-1.82-3.11-1.17-1.88-1.7-2.65a14.52,14.52,0,0,0-1.43-1.84c-.43-.46-.77-.68-1-.68h-.25v-.3h1.14c1.4,0,2.59,0,3.59.06a10,10,0,0,1,2.58.38,5.22,5.22,0,0,1,1.88,1,6.51,6.51,0,0,1,1.45,1.88l4.42,8.06L203.51,29a2,2,0,0,0,.16-.64,4.12,4.12,0,0,0,0-.46,1.65,1.65,0,0,0-.18-.83,1.22,1.22,0,0,0-.44-.46,1.62,1.62,0,0,0-.56-.19l-.51,0h-.74v-.3Z"/><path class="cls-1" d="M253.28,42a21.37,21.37,0,0,1-3.14,3.82,17.33,17.33,0,0,1-4,2.87,14.51,14.51,0,0,1-3.89,1.42,22.06,22.06,0,0,1-4.83.48c-1.76,0-3.36-.05-4.8-.14a25.66,25.66,0,0,1-4-.54,16.18,16.18,0,0,1-3.42-1.15,14.75,14.75,0,0,1-3.08-2,16.26,16.26,0,0,1-3.34-3.62,25.72,25.72,0,0,1-2.64-4.87,29.89,29.89,0,0,1-1.73-5.71,32.59,32.59,0,0,1,0-12.45,29.89,29.89,0,0,1,1.73-5.71,25.72,25.72,0,0,1,2.64-4.87A16.26,16.26,0,0,1,222.17,6a15.17,15.17,0,0,1,3.08-2,16.18,16.18,0,0,1,3.42-1.15,25.66,25.66,0,0,1,4-.54c1.44-.09,3-.14,4.8-.14h.68a20.93,20.93,0,0,1,2.94.31,16.48,16.48,0,0,1,2.8.84l.21.07a11.63,11.63,0,0,0,2.8.71,22.54,22.54,0,0,0,3.22.24A6,6,0,0,0,253,3.79a5.22,5.22,0,0,0,1.65-1.28,3.93,3.93,0,0,0,.75-1.32c.11-.41.17-.63.17-.68h.67V23.37h-.67a10.12,10.12,0,0,0-.27-2.06c-.18-.83-.42-1.71-.71-2.64a26.44,26.44,0,0,0-1.09-2.8,25.74,25.74,0,0,0-1.32-2.58c-.76-1.17-1.55-2.28-2.36-3.34a34.15,34.15,0,0,0-3-3.35C246.16,6,245.57,5.49,245,5a10.2,10.2,0,0,0-1.76-1.18,8.3,8.3,0,0,0-2.19-.78,18.05,18.05,0,0,0-2.94-.34h-.68a2.74,2.74,0,0,0-1.18.21,7.14,7.14,0,0,0-1.19.74,7.36,7.36,0,0,0-2.3,3.69,33.48,33.48,0,0,0-1.22,5.54A56.12,56.12,0,0,0,231.1,19c0,2.08-.07,3.9-.07,5.48v3.72c0,.54,0,1.12,0,1.73s.05,1.29.1,2.06.11,1.67.2,2.7a22,22,0,0,0,1,5,10.33,10.33,0,0,0,2.54,4A9.92,9.92,0,0,0,238.24,46a8.64,8.64,0,0,0,3.34.72,14.82,14.82,0,0,0,3.72-.41,10.09,10.09,0,0,0,2.78-1.15l1.18-.74a6.73,6.73,0,0,0,1.18-.95,13.86,13.86,0,0,0,3-3.62A24,24,0,0,0,255,36.43a13.1,13.1,0,0,0,.67-3.66h.54v.34a10.91,10.91,0,0,1-.27,2.37,14,14,0,0,1-.61,2.09A24.45,24.45,0,0,1,253.28,42Z"/><path class="cls-1" d="M286.68,14.81a12,12,0,0,1,4,4.53,15.35,15.35,0,0,1,1.64,7.37,15.53,15.53,0,0,1-1.64,7.4,11.5,11.5,0,0,1-4,4.5,27.77,27.77,0,0,1-3,1.78,14.35,14.35,0,0,1-2.33.92,10.35,10.35,0,0,1-2.17.36c-.73,0-1.59,0-2.59,0H276c-1,0-1.88,0-2.64,0a11.78,11.78,0,0,1-2.31-.36,15.18,15.18,0,0,1-2.47-.92,26.13,26.13,0,0,1-3.09-1.78,11.56,11.56,0,0,1-4-4.5,15.41,15.41,0,0,1-1.64-7.4,15.23,15.23,0,0,1,1.64-7.37,12,12,0,0,1,4-4.53A26.27,26.27,0,0,1,268.55,13a14.13,14.13,0,0,1,2.37-.92,9.56,9.56,0,0,1,2.16-.36c.73,0,1.59-.06,2.59-.06h.89c1,0,1.86,0,2.59.06a9.74,9.74,0,0,1,2.17.36,13.49,13.49,0,0,1,2.33.92A26.23,26.23,0,0,1,286.68,14.81Zm-7.45,24.8a6.4,6.4,0,0,0,.83-2,21.48,21.48,0,0,0,.53-3c.13-1.13.22-2.37.25-3.7s.06-2.73.06-4.17,0-2.84-.08-4.17-.15-2.57-.28-3.7a17.07,17.07,0,0,0-.59-3,5,5,0,0,0-1-1.94,5.92,5.92,0,0,0-1.86-1.56,3.22,3.22,0,0,0-1-.22,3.48,3.48,0,0,0-1,.22,5.4,5.4,0,0,0-1.83,1.56,5,5,0,0,0-1,1.94,17.93,17.93,0,0,0-.61,3,33.84,33.84,0,0,0-.28,3.7q-.06,2-.06,4.17t.06,4.17a34,34,0,0,0,.28,3.7,17.59,17.59,0,0,0,.61,3,5.63,5.63,0,0,0,1,2,6.57,6.57,0,0,0,1.58,1.27,2.9,2.9,0,0,0,1.26.45h.44A3.3,3.3,0,0,0,279.23,39.61Z"/><path class="cls-1" d="M327.12,15.58a11.38,11.38,0,0,1,.72-1.11c.22-.29.46-.59.72-.89a6.17,6.17,0,0,1,.84-.78,8.75,8.75,0,0,1,2.8-1.61,9.85,9.85,0,0,1,3.15-.5,21.86,21.86,0,0,1,3.45.28A8,8,0,0,1,342,12.19a6.17,6.17,0,0,1,2.23,2.62,10.37,10.37,0,0,1,.47,1.25,4.4,4.4,0,0,1,.19,1.3V33.72a14.68,14.68,0,0,0,.75,5.2,2.64,2.64,0,0,0,2.59,1.91v.45h-4.89a13.87,13.87,0,0,1-4.56-.64,7.47,7.47,0,0,1-2.95-1.78,6.64,6.64,0,0,1-1.59-2.64,10.87,10.87,0,0,1-.47-3.23V17.53a9.88,9.88,0,0,0-.25-2.22,5.23,5.23,0,0,0-.86-2,1.68,1.68,0,0,0-.86-.53,4.24,4.24,0,0,0-1-.14,1.61,1.61,0,0,0-1,.31,4.15,4.15,0,0,0-.83.75,4.1,4.1,0,0,0-.87,1.7,24.46,24.46,0,0,0-.61,2.55c-.16.91-.28,1.79-.36,2.65s-.11,1.5-.11,1.94V33.72a14.68,14.68,0,0,0,.75,5.2,2.63,2.63,0,0,0,2.59,1.91v.45h-4.9a14,14,0,0,1-4.56-.64A7.61,7.61,0,0,1,318,38.86a6.5,6.5,0,0,1-1.58-2.64,10.56,10.56,0,0,1-.47-3.23V17.53a10.49,10.49,0,0,0-.25-2.22,5.25,5.25,0,0,0-.87-2,1.64,1.64,0,0,0-.86-.53,4.12,4.12,0,0,0-1-.14A1.58,1.58,0,0,0,312,13a4.19,4.19,0,0,0-.84.75,3.86,3.86,0,0,0-.83,1.39,15.53,15.53,0,0,0-.58,1.92,16.38,16.38,0,0,0-.37,2,16.7,16.7,0,0,0-.11,1.67V40.83h4.17v.45H293.75v-.45h4.17V12.53h-4.23v-.45c1,0,2.3,0,3.78-.05s3-.11,4.45-.2,2.88-.21,4.2-.36a19.28,19.28,0,0,0,3.14-.56v4.67a6.63,6.63,0,0,1,2.28-2.78,8.8,8.8,0,0,1,2.81-1.61,9.79,9.79,0,0,1,3.14-.5,21.67,21.67,0,0,1,3.45.28,8.06,8.06,0,0,1,3.23,1.22,6.14,6.14,0,0,1,2.22,2.62c.08.18.15.38.23.58s.14.4.22.58a1.07,1.07,0,0,1,.22-.27A.17.17,0,0,0,327.12,15.58Z"/><path class="cls-1" d="M368.83,40.83v.45H349.31v-.45h4.22V13h-4.22v-.44c1,0,2.28,0,3.72-.06s2.9-.1,4.37-.19,2.84-.22,4.14-.37a19.55,19.55,0,0,0,3.12-.55V40.83Zm-3.9-37a4.76,4.76,0,0,0-1.36-1.36,7.22,7.22,0,0,0-2-.92,9,9,0,0,0-4.84,0,7.22,7.22,0,0,0-2,.92,4.76,4.76,0,0,0-1.36,1.36,3,3,0,0,0,0,3.34,4.63,4.63,0,0,0,1.36,1.36,6.94,6.94,0,0,0,2,.92,8.78,8.78,0,0,0,4.84,0,6.94,6.94,0,0,0,2-.92,4.63,4.63,0,0,0,1.36-1.36,3,3,0,0,0,0-3.34Z"/><path class="cls-1" d="M404.64,40.83v.45h-14.4V38.05a8.66,8.66,0,0,1-.64,1,13.33,13.33,0,0,1-1.08,1.19,3.91,3.91,0,0,1-.7.56q-.36.22-.69.39a2.23,2.23,0,0,1-.78.28,14.63,14.63,0,0,1-2.78.27,14.88,14.88,0,0,1-3.56-.44,13.28,13.28,0,0,1-3.56-1.45,12.19,12.19,0,0,1-3.2-2.67,12.54,12.54,0,0,1-2-3.25,14.73,14.73,0,0,1-1-3.61,27.38,27.38,0,0,1-.25-3.7A27,27,0,0,1,370.3,23a14.27,14.27,0,0,1,1-3.58,12.77,12.77,0,0,1,2-3.23,12.39,12.39,0,0,1,3.2-2.67,12.53,12.53,0,0,1,6.39-1.78,9.48,9.48,0,0,1,3.34.53,6.57,6.57,0,0,1,2.34,1.47,13.67,13.67,0,0,1,1,1.14c.28.36.51.68.7,1v-13h-4.17V2.35h4.17c1.37-.08,2.69-.17,3.95-.28,1.07-.07,2.2-.19,3.36-.33a20.57,20.57,0,0,0,2.92-.56V40.83ZM390.24,21c0-.74,0-1.46-.08-2.17a8.17,8.17,0,0,0-.42-2c-.19-.52-.39-1-.61-1.48a3.41,3.41,0,0,0-.95-1.19,5.65,5.65,0,0,0-1-.78,1.88,1.88,0,0,0-.91-.22,2.83,2.83,0,0,0-1.81.69A7,7,0,0,0,383,15.36,9.59,9.59,0,0,0,381.84,20q-.16,3.06-.17,6.67t.2,6.54a9.44,9.44,0,0,0,1.2,4.47,9.45,9.45,0,0,0,.58.81,8.21,8.21,0,0,0,.86,1,5.3,5.3,0,0,0,1.11.78,2.9,2.9,0,0,0,1.28.3,1.07,1.07,0,0,0,.75-.22l.87-.78a4.16,4.16,0,0,0,.75-1.11,7.93,7.93,0,0,0,.47-1.34,13.23,13.23,0,0,0,.5-3.67Z"/><path class="cls-1" d="M436.29,40.83v.45H421.94V37.83l-.39.22q-2.06,1.17-4.56,2.31A11.88,11.88,0,0,1,412,41.5h-.28a6.2,6.2,0,0,1-2.28-.44,6.5,6.5,0,0,1-2-1.28,6.11,6.11,0,0,1-1.42-2.06,7,7,0,0,1-.53-2.78,5.53,5.53,0,0,1,.28-1.72,7.94,7.94,0,0,1,.72-1.56,6.71,6.71,0,0,1,1.06-1.25A17.22,17.22,0,0,1,409.2,29c.6-.44,1.22-.88,1.87-1.3A21.94,21.94,0,0,1,413,26.6q2.11-1.23,4.47-2.39t4.48-2.28v-1.4a23.46,23.46,0,0,0-.17-2.89A7.56,7.56,0,0,0,421,15a4.91,4.91,0,0,0-1.76-1.89,5.61,5.61,0,0,0-3-.73,10.59,10.59,0,0,0-1.36.09,4.18,4.18,0,0,0-1.31.36,2.68,2.68,0,0,0-.91.69,1.6,1.6,0,0,0-.42,1.09,1.58,1.58,0,0,0,.64,1.33,16.31,16.31,0,0,0,1.44,1,7.46,7.46,0,0,1,1.45,1.16,2.39,2.39,0,0,1,.64,1.73,3.43,3.43,0,0,1-1.2,2.78,4.13,4.13,0,0,1-2.75,1,5,5,0,0,1-1.86-.36,5.67,5.67,0,0,1-1.67-1,5.59,5.59,0,0,1-1.22-1.56,4,4,0,0,1-.48-1.95,5,5,0,0,1,1.37-3.67,9.47,9.47,0,0,1,3.36-2.17,16.82,16.82,0,0,1,4.25-1,36.32,36.32,0,0,1,4-.25,23,23,0,0,1,4.17.39,12.47,12.47,0,0,1,3.84,1.33A7.94,7.94,0,0,1,431.06,16a7.62,7.62,0,0,1,1.11,4.26V40.83Zm-16.35-2.5,1-.5c.37-.18.7-.37,1-.55V22.48a7.1,7.1,0,0,0-2.22,1.59,10.15,10.15,0,0,0-1.7,2.3,12.28,12.28,0,0,0-1.08,2.76,11.33,11.33,0,0,0-.39,2.92V35.5a3.08,3.08,0,0,0,.83,2,2.44,2.44,0,0,0,1.84,1A1.62,1.62,0,0,0,419.94,38.33Z"/><path class="cls-1" d="M458.37,24.37A19.38,19.38,0,0,1,460,25.65a12.36,12.36,0,0,1,1.67,1.78,9.45,9.45,0,0,1,1.28,2.2,6.7,6.7,0,0,1,.5,2.58,8.26,8.26,0,0,1-.94,3.95,9,9,0,0,1-2.67,3,13.19,13.19,0,0,1-4.06,2,18.28,18.28,0,0,1-5.18.7,13.67,13.67,0,0,1-4.33-.73A28.5,28.5,0,0,1,442,39.28a1.55,1.55,0,0,0-.44-.11,3,3,0,0,0-1.45.33,5.37,5.37,0,0,0-1.05.72,5.43,5.43,0,0,0-.84,1.06h-.61v-13h.67a19.14,19.14,0,0,0,.5,2.55,23.05,23.05,0,0,0,.72,2.37,13.77,13.77,0,0,0,1.11,2.36,20.89,20.89,0,0,0,1.7,2.45,6.16,6.16,0,0,0,1.92,1.61A10.67,10.67,0,0,0,447,40.7a13.58,13.58,0,0,0,3.06.36c.71,0,1.42,0,2.14-.06a9,9,0,0,0,2-.3,4.37,4.37,0,0,0,1.47-.7,1.52,1.52,0,0,0,.59-1.28A3.28,3.28,0,0,0,455,36.25,19.3,19.3,0,0,0,451.72,34q-1.92-1.08-4.14-2.28a27.36,27.36,0,0,1-4.12-2.7c-.85-.66-1.6-1.3-2.25-1.91a13.78,13.78,0,0,1-1.67-1.9,7.54,7.54,0,0,1-1.05-2.08,8,8,0,0,1-.37-2.56,7.72,7.72,0,0,1,.95-3.92,8.62,8.62,0,0,1,2.42-2.7,10.69,10.69,0,0,1,3.2-1.56,11.89,11.89,0,0,1,3.28-.5,16.35,16.35,0,0,1,2.28.14,9.42,9.42,0,0,1,1.86.48c.61.22,1.27.5,2,.83s1.59.74,2.67,1.22a.87.87,0,0,0,.39.06,2.74,2.74,0,0,0,1.36-.33,3.27,3.27,0,0,0,.92-.78,5.41,5.41,0,0,0,.66-1.12h.56l1.22,10.52h-.61a12,12,0,0,0-.5-1.51,13,13,0,0,0-.78-1.64,16.65,16.65,0,0,0-1.28-2,17.7,17.7,0,0,0-1.25-1.39,10.4,10.4,0,0,0-1.92-1.56l-1-.61A11.13,11.13,0,0,0,453,13.5a11.64,11.64,0,0,0-1.81-.61,8,8,0,0,0-2-.25c-.37,0-.79,0-1.25,0a5.59,5.59,0,0,0-1.28.25,2.64,2.64,0,0,0-1,.56,1.25,1.25,0,0,0-.39,1,3.79,3.79,0,0,0,1.22,3,16.11,16.11,0,0,0,3.17,2.05c1.45.75,3,1.53,4.54,2.37A43.55,43.55,0,0,1,458.37,24.37Z"/></svg>