<svg id="Capa_1" data-name="Capa 1" xmlns="http://www.w3.org/2000/svg" viewBox="0 0 20.69 20.69"><defs><style>.cls-1{fill:#fff;}</style></defs><title>vista-detalle</title><path class="cls-1" d="M14.34,2.81l-.16-1.16a18.78,18.78,0,0,1,2.26,0A1.55,1.55,0,0,1,17.76,3.3q0,7.76,0,15.52A1.68,1.68,0,0,1,16,20.68c-3.76,0-7.52,0-11.29,0a1.66,1.66,0,0,1-1.75-1.76q0-7.8,0-15.59A1.53,1.53,0,0,1,4.63,1.65c.53,0,1,0,1.58,0a.45.45,0,0,1,.19,0c.14,1,.07,1.1-.87,1.1H4.34V19.35h12V2.81Z"/><path class="cls-1" d="M6.49,3.88,7.05,1C7.5,1,8,1,8.53,1A.67.67,0,0,0,9.29.6,1.12,1.12,0,0,1,11.23.52a.9.9,0,0,0,1,.53c.42,0,.85,0,1.28,0l.58,2.84ZM10.25.23c-.29.39-.62.65-.59.84a.87.87,0,0,0,.65.53A.84.84,0,0,0,10.9,1C10.92.82,10.57.59,10.25.23Z"/><path class="cls-1" d="M7.8,12.29v-.72h6.07v.72Z"/><path class="cls-1" d="M7.8,9.34V8.69H15l0,.65Z"/><path class="cls-1" d="M7.8,15l0-.68h6.61V15Z"/><path class="cls-1" d="M14.38,6.21V6.9H7.84V6.21Z"/><path class="cls-1" d="M7.79,17.8v-.66h5.6l0,.66Z"/><path class="cls-1" d="M5.79,5.67c.32.4.66.65.64.86a.91.91,0,0,1-.6.61c-.16,0-.56-.33-.58-.54S5.52,6.11,5.79,5.67Z"/><path class="cls-1" d="M5.87,8.16c.27.42.58.69.55.91a.87.87,0,0,1-.64.53c-.17,0-.54-.37-.53-.56S5.56,8.56,5.87,8.16Z"/><path class="cls-1" d="M5.85,13.79c.29.38.62.64.58.8a1,1,0,0,1-.61.6c-.15,0-.55-.34-.55-.53S5.56,14.19,5.85,13.79Z"/><path class="cls-1" d="M6.72,11.92c-.39.28-.63.59-.83.57s-.46-.35-.68-.54c.22-.2.42-.52.66-.56S6.32,11.66,6.72,11.92Z"/><path class="cls-1" d="M5.85,16.64c.29.41.62.67.58.84a1,1,0,0,1-.62.57c-.17,0-.56-.34-.56-.53S5.55,17.05,5.85,16.64Z"/></svg>