<svg id="Capa_1" data-name="Capa 1" xmlns="http://www.w3.org/2000/svg" viewBox="0 0 20.69 20.69"><defs><style>.cls-1{fill:#fff;}</style></defs><title>vista-detalle</title><path class="cls-1" d="M11.59,18.05v2.41H9.44V18.12a10.16,10.16,0,0,1-5.36-1.73l1.18-2.62A8.79,8.79,0,0,0,9.44,15.3V11.7c-2.39-.58-5.06-1.38-5.06-4.46C4.38,5,6,3,9.44,2.62V.23h2.15V2.57A9.63,9.63,0,0,1,16,3.89L14.89,6.53a8.92,8.92,0,0,0-3.3-1.12V9.07c2.39.56,5,1.36,5,4.4C16.61,15.71,15,17.64,11.59,18.05ZM9.44,8.54V5.48c-1.14.26-1.59.88-1.59,1.59S8.49,8.23,9.44,8.54Zm3.7,5.19c0-.76-.62-1.17-1.55-1.49v3C12.67,15,13.14,14.41,13.14,13.73Z"/></svg>