<svg id="Capa_1" data-name="Capa 1" xmlns="http://www.w3.org/2000/svg" viewBox="0 0 20.69 20.69"><defs><style>.cls-1{fill:#fff;}</style></defs><title>vista-detalle</title><path class="cls-1" d="M15,8.79H5.68V5.87c.47,0,.93-.09,1.39-.09,2.44,0,4.87,0,7.31,0,.46,0,.68.13.65.63C15,7.19,15,8,15,8.79Z"/><path class="cls-1" d="M15,9.86v2.85a1.55,1.55,0,0,1-.35.07l-8.48,0c-.34,0-.56-.11-.56-.48V9.86Z"/><path class="cls-1" d="M15,13.7v2.4a21.4,21.4,0,0,1-9.29,0V13.7Z"/><path class="cls-1" d="M5.65,4.84c0-.72,0-1.39,0-2,0-.16.31-.38.5-.41a21.87,21.87,0,0,1,6.41-.25c.63.07,1.26.16,1.89.22.39,0,.58.18.56.61,0,.61,0,1.22,0,1.88Z"/><path class="cls-1" d="M2.06,18.65l.82-3.13c-.35-.13-.66-.27-1-.38-1.15-.42-1.15-.42-1-1.76l4,.23v2.27c-.55,0-.58.39-.56.86s0,1.22,0,1.91Z"/><path class="cls-1" d="M19.82,13.37c0,.35,0,.61,0,.87a.61.61,0,0,1-.5.72c-.52.16-1,.37-1.6.58l.9,3.15H16.38c0-.72,0-1.41,0-2.1,0-.42,0-.75-.61-.65v-2.3Z"/><path class="cls-1" d="M19.77,6.11V8.77h-4V5.86Z"/><path class="cls-1" d="M4.89,8.79h-4V6.14l4-.28Z"/><path class="cls-1" d="M15.77,12.72V9.84h4v2.65Z"/><path class="cls-1" d="M.9,12.48V9.86h4V12.7Z"/><path class="cls-1" d="M4.89,2.53V5L.94,5.24c-.26-1.16-.16-1.35.89-1.7Z"/><path class="cls-1" d="M15.76,5V2.52c1.28.43,2.51.82,3.71,1.27.56.22.4.77.29,1.18,0,.12-.45.19-.69.18C18,5.11,16.88,5,15.76,5Z"/></svg>