<?xml version="1.0" encoding="utf-8"?>
<!-- Generator: Adobe Illustrator 24.0.2, SVG Export Plug-In . SVG Version: 6.00 Build 0)  -->
<svg version="1.1" id="Capa_1" xmlns="http://www.w3.org/2000/svg" xmlns:xlink="http://www.w3.org/1999/xlink" x="0px" y="0px"
	 viewBox="0 0 20.7 20.7" style="enable-background:new 0 0 20.7 20.7;" xml:space="preserve">
<style type="text/css">
	.st0{fill:#FFFFFF;}
</style>
<g>
	<g>
		<circle class="st0" cx="9.1" cy="19.3" r="1.4"/>
		<circle class="st0" cx="6.8" cy="15.6" r="1.8"/>
		<circle class="st0" cx="11.5" cy="15.6" r="1.8"/>
		<circle class="st0" cx="4.3" cy="11.8" r="1.9"/>
		<circle class="st0" cx="9.1" cy="11.8" r="1.9"/>
		<circle class="st0" cx="14" cy="11.8" r="1.9"/>
		<circle class="st0" cx="6.5" cy="8" r="2"/>
		<circle class="st0" cx="11.7" cy="8" r="2"/>
		<path class="st0" d="M9.5,6.3c0,0,0.3-1.4,1.1-3c0.4-0.8,2.4-2.5,2.4-2.5c0.2-0.2,0.1-0.3-0.2-0.3l-1.4,0.4c-0.3,0.1-0.7,0-1-0.1
			L9.7,0.4c-0.3-0.1-0.5,0-0.5,0.3v5.4C9.2,6.4,9.3,6.5,9.5,6.3z"/>
		<path class="st0" d="M17.4,2.1c-0.6-0.6-1.3-0.9-2.1-0.9c-1,0-1.9,0.3-2.6,1c-0.7,0.7-1.1,1.6-1.2,2.6c0,0.2,0.1,0.3,0.3,0.3
			c0.2,0,0.3-0.1,0.3-0.3c0-0.8,0.4-1.6,1-2.1c0.6-0.6,1.4-0.9,2.2-0.8c0.6,0,1.2,0.3,1.7,0.7s0.7,1.1,0.6,1.7c0,1-0.9,1.8-1.9,1.8
			c-0.8,0-1.4-0.7-1.4-1.5c0-0.3,0.1-0.5,0.3-0.7c0.2-0.2,0.5-0.3,0.8-0.3c0.2,0,0.4,0.1,0.6,0.2c0.1,0.2,0.2,0.4,0.2,0.6
			c0,0.2,0.1,0.3,0.3,0.3c0.2,0,0.3-0.1,0.3-0.3c0-0.4-0.1-0.7-0.4-1c-0.3-0.3-0.6-0.4-1-0.4c-0.5,0-0.9,0.1-1.2,0.5
			c-0.3,0.3-0.5,0.7-0.5,1.2c0,1.1,0.9,2.1,2,2.1c0,0,0.1,0,0.1,0c0.6,0,1.2-0.2,1.7-0.7c0.5-0.5,0.8-1.1,0.8-1.7
			C18.2,3.4,17.9,2.7,17.4,2.1z"/>
	</g>
</g>
</svg>
