<svg id="Capa_1" data-name="Capa 1" xmlns="http://www.w3.org/2000/svg" viewBox="0 0 20.69 20.69"><defs><style>.cls-1{fill:#fff;}</style></defs><title>vista-detalle</title><path class="cls-1" d="M13.38.24a1.47,1.47,0,0,1,.72.93c.14.43.32.85.48,1.28a1.57,1.57,0,0,0,1,1c.47.18.94.35,1.39.55a1,1,0,0,1,.57,1.55,6.24,6.24,0,0,1-.37.73A2,2,0,0,0,17,8.36a10.34,10.34,0,0,1,.41,1.1A1.13,1.13,0,0,1,16.77,11c-.45.19-.9.36-1.36.53a1.56,1.56,0,0,0-.94.92c-.15.42-.31.83-.47,1.24a1.1,1.1,0,0,1-1.66.66c-.52-.26-1-.51-1.57-.74a.74.74,0,0,0-.51,0c-.6.25-1.2.52-1.78.8a.85.85,0,0,1-1.28-.49c-.21-.52-.41-1-.6-1.57a1.5,1.5,0,0,0-.93-.94c-.47-.17-.94-.35-1.4-.54a1.06,1.06,0,0,1-.61-1.61L4.29,8a1.12,1.12,0,0,0,0-1c-.23-.47-.45-1-.67-1.44-.3-.65-.26-1.41.72-1.65.45-.12.88-.31,1.33-.47a1,1,0,0,0,.72-.75c.1-.38.29-.73.38-1.11a1.82,1.82,0,0,1,1-1.3h.45c.71.3,1.41.62,2.14.88a1,1,0,0,0,.7,0c.62-.25,1.21-.56,1.81-.84Zm-2.8,12.31a5.17,5.17,0,0,0,5.17-5.13,5.16,5.16,0,0,0-10.31,0A5.17,5.17,0,0,0,10.58,12.55Z"/><path class="cls-1" d="M7.41,15.8a3.06,3.06,0,0,0,2.36-.47,1.62,1.62,0,0,1,1.65,0,5.11,5.11,0,0,0,1.14.45,9.67,9.67,0,0,0,1.11.15l.74,4.76c-1.2-.8-2.32-1.52-3.41-2.28a.57.57,0,0,0-.79,0c-1.09.76-2.21,1.49-3.42,2.29Z"/><path class="cls-1" d="M14.4,7.41a3.81,3.81,0,1,1-3.81-3.8A3.76,3.76,0,0,1,14.4,7.41Z"/></svg>