<svg id="Capa_1" data-name="Capa 1" xmlns="http://www.w3.org/2000/svg" viewBox="0 0 20.69 20.69"><defs><style>.cls-1{fill:#fff;}</style></defs><title>vista-detalle</title><path class="cls-1" d="M10.9,11.88a1,1,0,0,1,.81-.94c.21,0,.43-.07.64-.1a3,3,0,0,0,1.35-.44A3.53,3.53,0,0,0,15,8.79a7.17,7.17,0,0,0,.6-3.42,11.09,11.09,0,0,0-.69-3c-.22-.57-.51-1.11-.74-1.68a.65.65,0,0,0-.75-.46c-2,0-3.92,0-5.88,0-.25,0-.5,0-.56.33,0,0,0,.08-.08.13A17.13,17.13,0,0,0,5.76,3.52a8.35,8.35,0,0,0-.31,3.1,6.79,6.79,0,0,0,.87,2.72,2.78,2.78,0,0,0,1.92,1.43c.34.07.68.1,1,.16a.88.88,0,0,1,.81.72,3.51,3.51,0,0,1,.07.72c0,1.23,0,2.46,0,3.69,0,.84.06,1.68,0,2.52a1,1,0,0,1-.63,1A6.7,6.7,0,0,1,7.76,20a1.94,1.94,0,0,0-.85.24c-.07.05-.14.11-.12.2s.13.05.2.05H14.1c.15,0,.14-.07.08-.16a.49.49,0,0,0-.25-.2,3.34,3.34,0,0,0-.7-.14,6.94,6.94,0,0,1-1.67-.37,1,1,0,0,1-.7-.93c0-.16,0-.33,0-.49,0-1.62,0-3.23,0-4.85A13.84,13.84,0,0,1,10.9,11.88ZM7.38.91A.17.17,0,0,1,7.57.79h5.85c.08,0,.15,0,.19.1a14.52,14.52,0,0,1,1,2.42H6.39c.1-.33.21-.65.34-1C6.93,1.86,7.15,1.38,7.38.91Z"/></svg>