<?xml version="1.0" encoding="utf-8"?>
<!-- Generator: Adobe Illustrator 24.0.2, SVG Export Plug-In . SVG Version: 6.00 Build 0)  -->
<svg version="1.1" id="Capa_1" xmlns="http://www.w3.org/2000/svg" xmlns:xlink="http://www.w3.org/1999/xlink" x="0px" y="0px"
	 viewBox="0 0 52.77 52.77" style="enable-background:new 0 0 52.77 52.77;" xml:space="preserve">
<style type="text/css">
	.st0{fill:#FFFFFF;}
	.st1{fill:#F08224;}
	.st2{fill:#020203;}
	.st3{fill:#789C4A;}
	.st4{fill:#853236;}
	.st5{fill:#BC8D47;}
	.st6{fill:#FF4713;}
	.st7{fill:#F09F54;}
	.st8{fill:none;stroke:#F09F54;stroke-width:0.7594;stroke-miterlimit:10;}
	.st9{fill:#EA8130;}
	.st10{fill:#3E7895;}
	.st11{fill:#B6CED7;}
	.st12{fill:#231F20;}
	.st13{fill:#065C7B;}
	.st14{fill:#00AF9A;}
	.st15{fill:#0083C1;}
	.st16{fill:#7B868C;}
	.st17{fill:#BAC0C3;}
	.st18{fill:#0B9691;}
	.st19{fill:#6BDAD5;}
	.st20{fill:#62C0BE;}
	.st21{fill:#009490;}
	.st22{fill:#036784;}
	.st23{fill:#82AEBD;}
	.st24{fill:#B0CCD9;}
	.st25{fill:#CE0E2D;}
	.st26{fill:#29787B;}
	.st27{fill:#D11317;}
</style>
<g>
	<g>
		<rect class="st0" width="52.77" height="52.77"/>
	</g>
	<g>
		<path class="st18" d="M40.9,20.19c-1.43,1.91-3.05,3.62-4.99,5.02c-3.52,2.54-7.43,3.64-11.75,3.05c-3.44-0.47-6.44-1.97-9.16-4.1
			c-1.16-0.91-2.2-1.96-3.33-3.13c0.06,0.56,0.05,0.98,0.15,1.37c0.15,0.57-0.01,1.19,0.44,1.72c1.56,1.8,3.38,3.26,5.48,4.36
			c4.07,2.15,8.37,2.85,12.87,1.72c3.96-1,7.13-3.27,9.75-6.35c0.09-0.1,0.17-0.24,0.19-0.37c0.23-1.2,0.46-2.39,0.68-3.61
			C41.04,19.9,40.99,20.06,40.9,20.19"/>
		<path class="st19" d="M12.83,12.42c1.99,0.46,3.35,1.83,4.61,3.29c2.66,3.1,5.94,4.83,10.07,4.85c0.25,0,0.5,0.03,0.75-0.01
			c0.39-0.05,0.68-0.27,0.67-0.69c-0.02-0.43-0.3-0.63-0.73-0.58c-0.16,0.02-0.32,0.04-0.47,0.08c-1.24,0.32-2.4,0.14-3.43-0.64
			c-0.88-0.67-1.49-1.57-2.11-2.46c-1.71-2.48-3.67-4.67-6.56-5.83c-1.77-0.71-3.61-1.13-5.52-1.21C9.82,9.21,9.64,9.19,9.73,9.62
			c0.17,0.77,0.27,1.57,0.35,2.36c0.03,0.33,0.16,0.4,0.44,0.33C11.3,12.11,12.07,12.25,12.83,12.42"/>
		<path class="st19" d="M42.72,9.01c-1.34-0.04-2.65,0.1-3.96,0.38c-2.86,0.61-5.15,2.21-7.25,4.16c-0.93,0.86-1.84,1.73-2.82,2.53
			c-0.79,0.65-1.64,1.22-2.59,1.8c0.73,0.36,1.45,0.43,2.14,0.41c1.11-0.04,2.15-0.41,3.12-0.95c1.72-0.96,3.18-2.26,4.73-3.44
			c1.92-1.45,3.84-2.91,6.45-2.74c0.15,0.01,0.27-0.03,0.29-0.22c0.06-0.53,0.14-1.05,0.21-1.58C43.09,9.09,42.97,9.01,42.72,9.01"
			/>
		<path class="st20" d="M37.18,16.34c-1.47,1.24-2.85,2.58-4.43,3.69c-2.38,1.67-4.97,2.25-7.82,1.61
			c-0.76-0.17-1.49-0.44-2.22-0.71c-0.55-0.2-1.03-0.03-1.1,0.39c-0.08,0.48,0.22,0.74,0.65,0.89c0.48,0.17,0.96,0.36,1.45,0.52
			c2.11,0.69,4.24,0.95,6.43,0.41c1.48-0.37,2.82-1.06,4.1-1.85c2.22-1.36,4.37-2.87,7.04-3.25c0.2-0.03,0.28-0.13,0.3-0.35
			c0.07-0.65,0.23-1.29,0.28-1.94c0.05-0.7,0.28-1.39,0.24-2.12C40.13,14,38.62,15.12,37.18,16.34"/>
		<path class="st21" d="M14.74,20.46c1.21,0.83,2.21,1.91,3.26,2.92c2.03,1.96,4.37,3.21,7.27,3.07c0.94,0.05,1.86-0.06,2.76-0.23
			c0.83-0.16,1.66-0.35,2.46-0.63c0.34-0.12,0.52-0.37,0.46-0.74c-0.06-0.39-0.36-0.44-0.68-0.44c-0.26,0-0.48,0.1-0.71,0.19
			c-1.81,0.71-3.67,0.94-5.58,0.46c-1.84-0.47-3.33-1.55-4.69-2.83c-1.79-1.69-3.22-3.71-4.91-5.5c-1.01-1.06-2.06-2.07-3.61-2.32
			c-0.38-0.06-0.4,0.07-0.34,0.35c0.31,1.45,0.64,2.9,0.94,4.35c0.05,0.24,0.16,0.27,0.36,0.29C12.83,19.46,13.84,19.84,14.74,20.46
			"/>
	</g>
	<g>
		<path class="st2" d="M13.42,40.74v0.37h-1.63v1.19h1.4v0.37h-1.4v1.46h-0.46v-3.4H13.42z"/>
		<path class="st2" d="M16.49,44.14h-0.36c-0.04,0-0.07-0.01-0.1-0.03c-0.03-0.02-0.04-0.05-0.06-0.08l-0.32-0.82h-1.53l-0.32,0.82
			c-0.01,0.03-0.03,0.05-0.06,0.08c-0.03,0.02-0.06,0.03-0.1,0.03h-0.36l1.36-3.4h0.47L16.49,44.14z M14.27,42.88h1.27L15,41.5
			c-0.03-0.09-0.07-0.19-0.1-0.32c-0.02,0.06-0.03,0.12-0.05,0.18c-0.02,0.05-0.03,0.1-0.05,0.14L14.27,42.88z"/>
		<path class="st2" d="M19.22,43.44c0.03,0,0.05,0.01,0.07,0.03l0.18,0.2c-0.14,0.16-0.31,0.29-0.51,0.38
			c-0.2,0.09-0.44,0.14-0.72,0.14c-0.25,0-0.47-0.04-0.67-0.13c-0.2-0.08-0.37-0.2-0.51-0.36c-0.14-0.15-0.25-0.34-0.33-0.55
			c-0.08-0.21-0.12-0.45-0.12-0.71c0-0.26,0.04-0.49,0.13-0.71c0.08-0.21,0.2-0.4,0.35-0.55c0.15-0.15,0.33-0.27,0.54-0.36
			c0.21-0.08,0.44-0.13,0.69-0.13c0.25,0,0.47,0.04,0.65,0.12s0.34,0.18,0.48,0.32l-0.15,0.21c-0.01,0.02-0.02,0.03-0.04,0.04
			c-0.01,0.01-0.04,0.02-0.06,0.02c-0.02,0-0.04-0.01-0.06-0.02c-0.02-0.02-0.05-0.03-0.08-0.06c-0.03-0.02-0.07-0.05-0.11-0.07
			c-0.04-0.03-0.09-0.05-0.15-0.07c-0.06-0.02-0.13-0.04-0.2-0.06s-0.17-0.02-0.27-0.02c-0.18,0-0.35,0.03-0.5,0.09
			c-0.15,0.06-0.28,0.15-0.39,0.27c-0.11,0.12-0.19,0.26-0.25,0.42c-0.06,0.17-0.09,0.35-0.09,0.56c0,0.21,0.03,0.4,0.09,0.57
			c0.06,0.17,0.14,0.31,0.25,0.42c0.11,0.11,0.23,0.2,0.37,0.26c0.14,0.06,0.3,0.09,0.46,0.09c0.1,0,0.19-0.01,0.27-0.02
			c0.08-0.01,0.15-0.03,0.22-0.06c0.07-0.03,0.13-0.06,0.19-0.1c0.06-0.04,0.12-0.09,0.18-0.14C19.17,43.45,19.19,43.44,19.22,43.44
			z"/>
		<path class="st2" d="M21.4,43.78c0.14,0,0.27-0.02,0.38-0.07c0.11-0.05,0.2-0.11,0.28-0.2c0.08-0.09,0.13-0.19,0.18-0.31
			c0.04-0.12,0.06-0.25,0.06-0.39v-2.07h0.46v2.07c0,0.2-0.03,0.38-0.09,0.55c-0.06,0.17-0.15,0.31-0.27,0.44
			c-0.12,0.12-0.26,0.22-0.43,0.29c-0.17,0.07-0.36,0.1-0.56,0.1s-0.4-0.03-0.56-0.1c-0.17-0.07-0.31-0.17-0.43-0.29
			c-0.12-0.12-0.21-0.27-0.27-0.44c-0.06-0.17-0.09-0.35-0.09-0.55v-2.07h0.46v2.06c0,0.14,0.02,0.27,0.06,0.39
			c0.04,0.12,0.1,0.22,0.18,0.31c0.08,0.09,0.17,0.15,0.28,0.2C21.13,43.75,21.26,43.78,21.4,43.78z"/>
		<path class="st2" d="M24,43.76h1.47v0.39h-1.93v-3.4H24V43.76z"/>
		<path class="st2" d="M27.89,40.74v0.39h-1.1v3.01h-0.46v-3.01h-1.1v-0.39H27.89z"/>
		<path class="st2" d="M30.86,44.14H30.5c-0.04,0-0.07-0.01-0.1-0.03c-0.03-0.02-0.04-0.05-0.06-0.08l-0.32-0.82H28.5l-0.32,0.82
			c-0.01,0.03-0.03,0.05-0.06,0.08c-0.03,0.02-0.06,0.03-0.1,0.03h-0.36l1.36-3.4h0.47L30.86,44.14z M28.63,42.88h1.27l-0.53-1.38
			c-0.03-0.09-0.07-0.19-0.1-0.32c-0.02,0.06-0.03,0.12-0.05,0.18c-0.02,0.05-0.03,0.1-0.05,0.14L28.63,42.88z"/>
		<path class="st2" d="M34.23,42.44c0,0.25-0.04,0.49-0.12,0.7c-0.08,0.21-0.19,0.39-0.34,0.54c-0.15,0.15-0.32,0.26-0.53,0.35
			c-0.21,0.08-0.43,0.12-0.68,0.12h-1.27v-3.4h1.27c0.25,0,0.48,0.04,0.68,0.12c0.21,0.08,0.38,0.2,0.53,0.35
			c0.15,0.15,0.26,0.33,0.34,0.54C34.19,41.96,34.23,42.19,34.23,42.44z M33.76,42.44c0-0.21-0.03-0.4-0.09-0.56
			c-0.06-0.16-0.14-0.3-0.24-0.42c-0.1-0.11-0.23-0.2-0.38-0.26c-0.15-0.06-0.31-0.09-0.5-0.09h-0.81v2.66h0.81
			c0.18,0,0.35-0.03,0.5-0.09c0.15-0.06,0.28-0.15,0.38-0.26c0.1-0.11,0.19-0.25,0.24-0.42C33.73,42.84,33.76,42.65,33.76,42.44z"/>
		<path class="st2" d="M38.72,42.44c0,0.25-0.04,0.49-0.12,0.7c-0.08,0.21-0.19,0.39-0.34,0.54c-0.15,0.15-0.32,0.26-0.53,0.35
			c-0.21,0.08-0.43,0.12-0.68,0.12h-1.27v-3.4h1.27c0.25,0,0.48,0.04,0.68,0.12c0.2,0.08,0.38,0.2,0.53,0.35
			c0.15,0.15,0.26,0.33,0.34,0.54C38.68,41.96,38.72,42.19,38.72,42.44z M38.25,42.44c0-0.21-0.03-0.4-0.09-0.56
			c-0.06-0.16-0.14-0.3-0.24-0.42c-0.1-0.11-0.23-0.2-0.38-0.26c-0.15-0.06-0.31-0.09-0.5-0.09h-0.81v2.66h0.81
			c0.18,0,0.35-0.03,0.5-0.09c0.15-0.06,0.28-0.15,0.38-0.26c0.1-0.11,0.19-0.25,0.24-0.42C38.22,42.84,38.25,42.65,38.25,42.44z"/>
		<path class="st2" d="M41.45,40.74v0.37h-1.63v1.13h1.32v0.36h-1.32v1.16h1.63v0.37h-2.1v-3.4H41.45z"/>
		<path class="st2" d="M14.68,46.44v0.37h-1.63v1.13h1.32v0.36h-1.32v1.16h1.63v0.37h-2.1v-3.4H14.68z"/>
		<path class="st2" d="M18.29,48.14c0,0.25-0.04,0.49-0.12,0.7c-0.08,0.21-0.19,0.39-0.34,0.54c-0.15,0.15-0.32,0.26-0.53,0.35
			c-0.21,0.08-0.43,0.12-0.68,0.12h-1.27v-3.4h1.27c0.25,0,0.48,0.04,0.68,0.12c0.21,0.08,0.38,0.2,0.53,0.35
			c0.15,0.15,0.26,0.33,0.34,0.54C18.25,47.65,18.29,47.88,18.29,48.14z M17.82,48.14c0-0.21-0.03-0.4-0.09-0.56
			c-0.06-0.16-0.14-0.3-0.24-0.42c-0.1-0.11-0.23-0.2-0.38-0.26c-0.15-0.06-0.31-0.09-0.5-0.09h-0.81v2.66h0.81
			c0.18,0,0.35-0.03,0.5-0.09c0.15-0.06,0.28-0.15,0.38-0.26c0.1-0.11,0.19-0.25,0.24-0.42C17.79,48.53,17.82,48.35,17.82,48.14z"/>
		<path class="st2" d="M20.24,49.47c0.14,0,0.27-0.02,0.38-0.07c0.11-0.05,0.2-0.11,0.28-0.2c0.08-0.09,0.13-0.19,0.18-0.31
			c0.04-0.12,0.06-0.25,0.06-0.39v-2.07h0.46v2.07c0,0.2-0.03,0.38-0.09,0.55c-0.06,0.17-0.15,0.31-0.27,0.44
			c-0.12,0.12-0.26,0.22-0.43,0.29c-0.17,0.07-0.36,0.1-0.56,0.1s-0.4-0.03-0.56-0.1c-0.17-0.07-0.31-0.17-0.43-0.29
			c-0.12-0.12-0.21-0.27-0.27-0.44c-0.06-0.17-0.09-0.35-0.09-0.55v-2.07h0.46v2.06c0,0.14,0.02,0.27,0.06,0.39
			c0.04,0.12,0.1,0.22,0.18,0.31c0.08,0.09,0.17,0.15,0.28,0.2C19.97,49.45,20.1,49.47,20.24,49.47z"/>
		<path class="st2" d="M24.78,49.14c0.03,0,0.05,0.01,0.07,0.03l0.18,0.2c-0.14,0.16-0.31,0.29-0.51,0.38
			c-0.2,0.09-0.44,0.14-0.72,0.14c-0.24,0-0.47-0.04-0.67-0.13c-0.2-0.08-0.37-0.2-0.51-0.36s-0.25-0.34-0.33-0.55
			s-0.12-0.45-0.12-0.71s0.04-0.49,0.12-0.71c0.08-0.21,0.2-0.4,0.35-0.55c0.15-0.15,0.33-0.27,0.54-0.36s0.44-0.13,0.69-0.13
			c0.25,0,0.47,0.04,0.65,0.12c0.18,0.08,0.34,0.18,0.48,0.32l-0.15,0.21c-0.01,0.02-0.02,0.03-0.04,0.04
			c-0.01,0.01-0.03,0.02-0.06,0.02c-0.02,0-0.04-0.01-0.07-0.02c-0.02-0.02-0.05-0.03-0.08-0.06c-0.03-0.02-0.07-0.05-0.11-0.07
			c-0.04-0.03-0.09-0.05-0.15-0.07c-0.06-0.02-0.13-0.04-0.2-0.06c-0.08-0.01-0.17-0.02-0.27-0.02c-0.18,0-0.35,0.03-0.5,0.09
			c-0.15,0.06-0.28,0.15-0.39,0.27c-0.11,0.12-0.19,0.26-0.25,0.42c-0.06,0.17-0.09,0.35-0.09,0.56c0,0.21,0.03,0.4,0.09,0.57
			c0.06,0.17,0.14,0.31,0.25,0.42c0.1,0.11,0.23,0.2,0.37,0.26c0.14,0.06,0.3,0.09,0.47,0.09c0.1,0,0.19-0.01,0.27-0.02
			c0.08-0.01,0.16-0.03,0.22-0.06c0.07-0.03,0.13-0.06,0.19-0.1c0.06-0.04,0.12-0.09,0.18-0.14C24.73,49.15,24.75,49.14,24.78,49.14
			z"/>
		<path class="st2" d="M28.43,49.84h-0.36c-0.04,0-0.07-0.01-0.1-0.03c-0.03-0.02-0.04-0.05-0.06-0.08l-0.32-0.82h-1.53l-0.32,0.82
			c-0.01,0.03-0.03,0.05-0.06,0.08c-0.03,0.02-0.06,0.03-0.1,0.03h-0.36l1.36-3.4h0.47L28.43,49.84z M26.2,48.58h1.27l-0.53-1.38
			c-0.04-0.09-0.07-0.19-0.1-0.32c-0.02,0.06-0.04,0.12-0.05,0.18c-0.02,0.05-0.03,0.1-0.05,0.14L26.2,48.58z"/>
		<path class="st2" d="M31.16,49.14c0.03,0,0.05,0.01,0.07,0.03l0.18,0.2c-0.14,0.16-0.31,0.29-0.51,0.38
			c-0.2,0.09-0.44,0.14-0.72,0.14c-0.24,0-0.47-0.04-0.67-0.13s-0.37-0.2-0.51-0.36c-0.14-0.15-0.25-0.34-0.33-0.55
			s-0.12-0.45-0.12-0.71s0.04-0.49,0.12-0.71c0.08-0.21,0.2-0.4,0.35-0.55c0.15-0.15,0.33-0.27,0.54-0.36s0.44-0.13,0.69-0.13
			c0.25,0,0.47,0.04,0.65,0.12c0.18,0.08,0.34,0.18,0.48,0.32l-0.15,0.21c-0.01,0.02-0.02,0.03-0.04,0.04
			c-0.01,0.01-0.03,0.02-0.06,0.02c-0.02,0-0.04-0.01-0.07-0.02c-0.02-0.02-0.05-0.03-0.08-0.06c-0.03-0.02-0.07-0.05-0.11-0.07
			c-0.04-0.03-0.09-0.05-0.15-0.07s-0.13-0.04-0.2-0.06c-0.08-0.01-0.17-0.02-0.27-0.02c-0.18,0-0.35,0.03-0.5,0.09
			c-0.15,0.06-0.28,0.15-0.39,0.27c-0.11,0.12-0.19,0.26-0.25,0.42c-0.06,0.17-0.09,0.35-0.09,0.56c0,0.21,0.03,0.4,0.09,0.57
			c0.06,0.17,0.14,0.31,0.25,0.42c0.1,0.11,0.23,0.2,0.37,0.26c0.14,0.06,0.3,0.09,0.47,0.09c0.1,0,0.19-0.01,0.27-0.02
			c0.08-0.01,0.16-0.03,0.22-0.06c0.07-0.03,0.13-0.06,0.19-0.1c0.06-0.04,0.12-0.09,0.18-0.14C31.11,49.15,31.13,49.14,31.16,49.14
			z"/>
		<path class="st2" d="M32.56,49.84H32.1v-3.4h0.46V49.84z"/>
		<path class="st2" d="M36.63,48.14c0,0.25-0.04,0.49-0.12,0.7c-0.08,0.21-0.19,0.4-0.34,0.55c-0.15,0.15-0.32,0.27-0.53,0.36
			c-0.21,0.08-0.43,0.13-0.69,0.13s-0.48-0.04-0.68-0.13s-0.38-0.2-0.53-0.36c-0.15-0.15-0.26-0.34-0.34-0.55
			c-0.08-0.21-0.12-0.45-0.12-0.7c0-0.25,0.04-0.49,0.12-0.7c0.08-0.21,0.19-0.4,0.34-0.55c0.15-0.15,0.32-0.27,0.53-0.36
			c0.21-0.09,0.43-0.13,0.68-0.13s0.48,0.04,0.69,0.13c0.21,0.09,0.38,0.2,0.53,0.36c0.15,0.15,0.26,0.34,0.34,0.55
			C36.59,47.65,36.63,47.88,36.63,48.14z M36.16,48.14c0-0.21-0.03-0.4-0.09-0.56c-0.06-0.17-0.14-0.31-0.24-0.42
			c-0.1-0.11-0.23-0.2-0.38-0.26c-0.15-0.06-0.32-0.09-0.5-0.09c-0.18,0-0.35,0.03-0.5,0.09c-0.15,0.06-0.28,0.15-0.38,0.26
			c-0.1,0.11-0.19,0.25-0.24,0.42c-0.06,0.17-0.09,0.35-0.09,0.56c0,0.21,0.03,0.4,0.09,0.56c0.06,0.17,0.14,0.31,0.24,0.42
			c0.11,0.11,0.23,0.2,0.38,0.26c0.15,0.06,0.31,0.09,0.5,0.09c0.18,0,0.35-0.03,0.5-0.09c0.15-0.06,0.28-0.15,0.38-0.26
			c0.1-0.11,0.19-0.25,0.24-0.42C36.13,48.53,36.16,48.35,36.16,48.14z M35.76,45.61l-0.7,0.51c-0.03,0.02-0.05,0.03-0.07,0.04
			s-0.05,0.01-0.08,0.01h-0.33l0.5-0.48c0.02-0.02,0.03-0.03,0.04-0.04c0.01-0.01,0.03-0.02,0.04-0.02
			c0.01-0.01,0.03-0.01,0.05-0.01c0.02,0,0.04,0,0.07,0H35.76z"/>
		<path class="st2" d="M37.58,46.45c0.02,0.01,0.04,0.03,0.07,0.06l1.97,2.56c-0.01-0.04-0.01-0.08-0.01-0.12c0-0.04,0-0.08,0-0.11
			v-2.41h0.4v3.4h-0.23c-0.04,0-0.07-0.01-0.09-0.02c-0.02-0.01-0.05-0.03-0.07-0.06l-1.97-2.56c0,0.04,0.01,0.08,0.01,0.12
			c0,0.04,0,0.07,0,0.1v2.42h-0.4v-3.4h0.24C37.53,46.44,37.56,46.44,37.58,46.45z"/>
	</g>
</g>
</svg>
