<?xml version="1.0" encoding="utf-8"?>
<!-- Generator: Adobe Illustrator 24.0.2, SVG Export Plug-In . SVG Version: 6.00 Build 0)  -->
<svg version="1.1" id="Capa_1" xmlns="http://www.w3.org/2000/svg" xmlns:xlink="http://www.w3.org/1999/xlink" x="0px" y="0px"
	 viewBox="0 0 52.77 52.77" style="enable-background:new 0 0 52.77 52.77;" xml:space="preserve">
<style type="text/css">
	.st0{fill:#FFFFFF;}
	.st1{fill:#F08224;}
	.st2{fill:#020203;}
	.st3{fill:#789C4A;}
	.st4{fill:#853236;}
	.st5{fill:#BC8D47;}
	.st6{fill:#FF4713;}
	.st7{fill:#F09F54;}
	.st8{fill:none;stroke:#F09F54;stroke-width:0.7594;stroke-miterlimit:10;}
	.st9{fill:#EA8130;}
	.st10{fill:#3E7895;}
	.st11{fill:#B6CED7;}
	.st12{fill:#231F20;}
	.st13{fill:#065C7B;}
	.st14{fill:#00AF9A;}
	.st15{fill:#0083C1;}
	.st16{fill:#7B868C;}
	.st17{fill:#BAC0C3;}
	.st18{fill:#0B9691;}
	.st19{fill:#6BDAD5;}
	.st20{fill:#62C0BE;}
	.st21{fill:#009490;}
	.st22{fill:#036784;}
	.st23{fill:#82AEBD;}
	.st24{fill:#B0CCD9;}
	.st25{fill:#CE0E2D;}
	.st26{fill:#29787B;}
	.st27{fill:#D11317;}
</style>
<g>
	<g>
		<rect class="st0" width="52.77" height="52.77"/>
	</g>
	<g>
		<path class="st3" d="M16.51,30.95c-1.4-0.74-2.86-1.39-4.36-1.95v2.62c0.78,0.31,1.54,0.65,2.28,1.02
			c0.96,0.47,1.89,0.98,2.8,1.54h4.3c-0.22-0.17-0.44-0.34-0.66-0.5c-0.48-0.35-0.97-0.69-1.46-1.01
			C18.46,32.04,17.5,31.47,16.51,30.95 M20.26,28.39c-2.53-1.51-5.25-2.75-8.11-3.68v2.58c2.03,0.71,3.97,1.58,5.82,2.6
			c0.99,0.55,1.96,1.14,2.89,1.77c0.5,0.34,0.99,0.68,1.46,1.04c0.63,0.47,1.23,0.96,1.83,1.47h3.62c-0.31-0.3-0.62-0.6-0.93-0.89
			c-0.72-0.66-1.47-1.3-2.24-1.91c-0.48-0.38-0.96-0.74-1.45-1.09C22.21,29.61,21.25,28.98,20.26,28.39 M24.91,25.91
			c-3.91-2.65-8.21-4.66-12.76-5.96v2.56c3.64,1.12,7.07,2.7,10.21,4.68c0.99,0.62,1.95,1.28,2.88,1.99
			c0.49,0.37,0.97,0.75,1.44,1.14c0.77,0.64,1.52,1.3,2.25,1.99c0.38,0.37,0.76,0.74,1.13,1.12c0.24,0.25,0.48,0.5,0.71,0.76h3.28
			c-0.48-0.57-0.98-1.14-1.49-1.69c-0.37-0.39-0.75-0.78-1.13-1.16c-0.15-0.15-0.29-0.3-0.45-0.44c-0.58-0.57-1.18-1.11-1.79-1.64
			c-0.47-0.41-0.95-0.81-1.43-1.2C26.84,27.28,25.89,26.57,24.91,25.91 M27.77,21.05L27.77,21.05l-1.16-1.23l0.08,0.08
			c0.1,0.1,0.26,0.1,0.37,0c0.1-0.1,0.1-0.27,0-0.37l0-0.01c0.1,0.1,0.26,0.1,0.36,0c0.09-0.09,0.11-0.24,0.06-0.34
			c0.1,0.06,0.23,0.05,0.32-0.04c0.1-0.1,0.1-0.27,0-0.37l0.35,0.35c0.1,0.1,0.27,0.1,0.36,0c0.1-0.1,0.1-0.27,0-0.37l1.63,1.64h0
			c0.1,0.1,0.26,0.1,0.36,0c0.1-0.1,0.1-0.27,0-0.37l1.31,1.32c0.1,0.1,0.27,0.1,0.37,0c0.1-0.1,0.1-0.27,0-0.37l0.37,0.37
			c0.1,0.1,0.26,0.1,0.37,0c0.09-0.09,0.1-0.22,0.04-0.32l0.31,0.32l0.01-0.01c0,0,0,0,0.01,0.01c0.1,0.1,0.26,0.1,0.37,0
			c0.08-0.08,0.1-0.2,0.05-0.3l0.3,0.3c0.1,0.1,0.26,0.1,0.37,0c0.1-0.1,0.1-0.27,0-0.37l0.37,0.37c0.1,0.1,0.26,0.1,0.36,0
			c0.05-0.05,0.08-0.11,0.08-0.18v-0.01c0-0.06-0.03-0.13-0.08-0.18l-3.82-3.87h-4.75l-1.7,1.7c-0.03,0.01-0.05,0.01-0.08,0.01
			c-0.12,0-0.22-0.08-0.25-0.2c0,0-0.01,0-0.01,0.01l0,0v-0.73l-3.36-3.38h-5.43c-0.14,0-0.26,0.12-0.26,0.26
			c0,0.14,0.11,0.26,0.26,0.26h0.52c-0.14,0-0.26,0.12-0.26,0.26c0,0.14,0.11,0.26,0.26,0.26h0.52c0,0,0.02,0,0,0
			c-0.14,0-0.26,0.12-0.26,0.26c0,0.14,0.12,0.26,0.26,0.26c0,0,0.01,0,0.01,0v0.01l0.44,0c-0.11,0.03-0.19,0.13-0.19,0.25
			c0,0.14,0.12,0.26,0.26,0.26h0.52c-0.14,0-0.26,0.12-0.26,0.26c0,0.14,0.12,0.26,0.26,0.26h1.85c-0.14,0-0.26,0.12-0.26,0.26
			c0,0.14,0.11,0.26,0.26,0.26h1.28c-0.14,0-0.26-0.12-0.26-0.26c0-0.14,0.12-0.26,0.26-0.26h0.28l0.07,0.06
			c-0.07,0.05-0.12,0.11-0.12,0.2c0,0.14,0.11,0.26,0.26,0.26h0.43l0.04,0.03c-0.1,0.04-0.19,0.12-0.19,0.23
			c0,0.14,0.12,0.26,0.26,0.26h0.49c-0.14,0-0.26,0.11-0.26,0.26c0,0.14,0.12,0.26,0.26,0.26h0.52c-0.14,0-0.26,0.11-0.26,0.26
			c0,0.14,0.12,0.26,0.26,0.26h0.13l-0.33,0.34l0,0c-0.04,0.05-0.07,0.11-0.07,0.17c0,0.14,0.11,0.26,0.26,0.26
			c0.11,0,0.21-0.07,0.24-0.17c0.08-0.05,0.18-0.08,0.28-0.08c0.29,0,0.52,0.23,0.52,0.52c0,0.1-0.03,0.19-0.08,0.27
			c-0.1,0.03-0.18,0.13-0.18,0.25c0,0.14,0.12,0.26,0.26,0.26h0.57c-0.08,0.1-0.07,0.25,0.02,0.35c0.1,0.1,0.26,0.1,0.37,0
			c0.01-0.01,0.01-0.02,0.02-0.03l0.01,0.01l0.1-0.11l0.15,0.15c0.1,0.1,0.26,0.1,0.37,0c0.1-0.1,0.1-0.27,0-0.37l0.36,0.37
			c0.1,0.1,0.26,0.1,0.37,0c0.1-0.1,0.1-0.27,0-0.37l0.35,0.35c0.1,0.1,0.27,0.1,0.37,0c0.1-0.1,0.1-0.27,0-0.37l0,0l0.38,0.39
			c0.1,0.1,0.26,0.1,0.37,0C27.87,21.32,27.87,21.16,27.77,21.05 M21.64,21.31h0.02c-0.01,0.03-0.02,0.06-0.02,0.09
			c0,0.14,0.12,0.26,0.26,0.26c0.01,0,0.01,0,0.02,0c-0.01-0.03-0.02-0.06-0.02-0.09c0-0.14,0.11-0.25,0.24-0.26c0,0,0,0,0,0h0.02
			c0.14,0,0.26-0.12,0.26-0.26c0.15,0,0.29-0.07,0.39-0.18l0,0l0.39-0.35h0.26c0.14,0,0.26-0.12,0.26-0.26
			c0-0.14-0.12-0.26-0.26-0.26h-1.03c-0.21,0-0.39,0.13-0.47,0.31v0l0,0.01c-0.01,0.03-0.02,0.07-0.03,0.1L21.64,21.31z
			 M37.06,11.04l3.56,3.56V5.7H12.15v7.12l3.56-1.78l3.56,1.78l1.78-1.78l1.78-1.78l3.73-1.78l3.39,1.78l3.56,3.56L37.06,11.04z
			 M30.64,26.96c3.18-1.05,6.52-1.74,9.98-2.02v-3.07c-4.44,0.33-8.76,1.29-12.83,2.84c0.57,0.42,1.14,0.85,1.7,1.3
			C29.87,26.32,30.25,26.64,30.64,26.96 M34.29,30.44c2.05-0.54,4.16-0.92,6.33-1.11v-2.74c-2.95,0.25-5.82,0.81-8.55,1.65
			c0.28,0.26,0.56,0.52,0.83,0.79c0.16,0.16,0.31,0.31,0.47,0.47C33.68,29.8,33.99,30.12,34.29,30.44 M40.62,33.23v-2.45
			c-1.78,0.17-3.52,0.46-5.21,0.88c0.34,0.39,0.69,0.79,1.02,1.19c0.25,0.3,0.49,0.61,0.74,0.92C38.3,33.53,39.45,33.35,40.62,33.23
			"/>
	</g>
	<g>
		<path class="st2" d="M9.55,41.86v0.37H7.92v1.19h1.4v0.37h-1.4v1.46H7.46v-3.4H9.55z"/>
		<path class="st2" d="M12.63,45.27h-0.36c-0.04,0-0.07-0.01-0.1-0.03c-0.03-0.02-0.04-0.05-0.06-0.08l-0.32-0.82h-1.53l-0.32,0.82
			c-0.01,0.03-0.03,0.05-0.06,0.08c-0.03,0.02-0.06,0.03-0.1,0.03H9.44l1.36-3.4h0.47L12.63,45.27z M10.4,44h1.27l-0.53-1.38
			c-0.03-0.09-0.07-0.19-0.1-0.32c-0.02,0.06-0.03,0.12-0.05,0.18c-0.02,0.05-0.03,0.1-0.05,0.14L10.4,44z"/>
		<path class="st2" d="M15.36,44.56c0.03,0,0.05,0.01,0.07,0.03l0.18,0.2c-0.14,0.16-0.31,0.29-0.51,0.38
			c-0.2,0.09-0.44,0.14-0.72,0.14c-0.25,0-0.47-0.04-0.67-0.13c-0.2-0.08-0.37-0.2-0.51-0.36c-0.14-0.15-0.25-0.34-0.33-0.55
			c-0.08-0.21-0.12-0.45-0.12-0.71c0-0.26,0.04-0.49,0.13-0.71c0.08-0.21,0.2-0.4,0.35-0.55c0.15-0.15,0.33-0.27,0.54-0.36
			c0.21-0.08,0.44-0.13,0.69-0.13c0.25,0,0.47,0.04,0.65,0.12c0.18,0.08,0.34,0.18,0.48,0.32l-0.15,0.21
			c-0.01,0.02-0.02,0.03-0.04,0.04c-0.01,0.01-0.04,0.02-0.06,0.02c-0.02,0-0.04-0.01-0.06-0.02c-0.02-0.02-0.05-0.03-0.08-0.06
			c-0.03-0.02-0.07-0.05-0.11-0.07c-0.04-0.03-0.09-0.05-0.15-0.07c-0.06-0.02-0.13-0.04-0.2-0.06c-0.08-0.01-0.17-0.02-0.27-0.02
			c-0.18,0-0.35,0.03-0.5,0.09c-0.15,0.06-0.28,0.15-0.39,0.27c-0.11,0.12-0.19,0.26-0.25,0.42c-0.06,0.17-0.09,0.35-0.09,0.56
			c0,0.21,0.03,0.4,0.09,0.57c0.06,0.17,0.14,0.31,0.25,0.42c0.11,0.11,0.23,0.2,0.37,0.26c0.14,0.06,0.3,0.09,0.46,0.09
			c0.1,0,0.19-0.01,0.27-0.02c0.08-0.01,0.15-0.03,0.22-0.06c0.07-0.03,0.13-0.06,0.19-0.1c0.06-0.04,0.12-0.09,0.18-0.14
			C15.3,44.58,15.33,44.56,15.36,44.56z"/>
		<path class="st2" d="M17.53,44.9c0.14,0,0.27-0.02,0.38-0.07c0.11-0.05,0.2-0.11,0.28-0.2c0.08-0.09,0.13-0.19,0.18-0.31
			c0.04-0.12,0.06-0.25,0.06-0.39v-2.07h0.46v2.07c0,0.2-0.03,0.38-0.09,0.55c-0.06,0.17-0.15,0.31-0.27,0.44
			c-0.12,0.12-0.26,0.22-0.43,0.29c-0.17,0.07-0.36,0.1-0.56,0.1c-0.21,0-0.4-0.03-0.56-0.1c-0.17-0.07-0.31-0.17-0.43-0.29
			c-0.12-0.12-0.21-0.27-0.27-0.44c-0.06-0.17-0.09-0.35-0.09-0.55v-2.07h0.46v2.06c0,0.14,0.02,0.27,0.06,0.39
			c0.04,0.12,0.1,0.22,0.18,0.31c0.08,0.09,0.17,0.15,0.28,0.2C17.26,44.88,17.39,44.9,17.53,44.9z"/>
		<path class="st2" d="M20.13,44.88h1.47v0.39h-1.93v-3.4h0.46V44.88z"/>
		<path class="st2" d="M24.02,41.86v0.39h-1.1v3.01h-0.46v-3.01h-1.1v-0.39H24.02z"/>
		<path class="st2" d="M26.99,45.27h-0.36c-0.04,0-0.07-0.01-0.1-0.03c-0.03-0.02-0.04-0.05-0.06-0.08l-0.32-0.82h-1.53l-0.32,0.82
			c-0.01,0.03-0.03,0.05-0.06,0.08c-0.03,0.02-0.06,0.03-0.1,0.03H23.8l1.36-3.4h0.47L26.99,45.27z M24.76,44h1.27l-0.53-1.38
			c-0.03-0.09-0.07-0.19-0.1-0.32c-0.02,0.06-0.03,0.12-0.05,0.18c-0.02,0.05-0.03,0.1-0.05,0.14L24.76,44z"/>
		<path class="st2" d="M30.37,43.57c0,0.25-0.04,0.49-0.12,0.7c-0.08,0.21-0.19,0.39-0.34,0.54c-0.15,0.15-0.32,0.26-0.53,0.35
			c-0.21,0.08-0.43,0.12-0.68,0.12h-1.27v-3.4h1.27c0.25,0,0.48,0.04,0.68,0.12c0.21,0.08,0.38,0.2,0.53,0.35
			c0.15,0.15,0.26,0.33,0.34,0.54C30.33,43.08,30.37,43.31,30.37,43.57z M29.9,43.57c0-0.21-0.03-0.4-0.09-0.56
			c-0.06-0.16-0.14-0.3-0.24-0.42c-0.1-0.11-0.23-0.2-0.38-0.26c-0.15-0.06-0.31-0.09-0.5-0.09h-0.81v2.66h0.81
			c0.18,0,0.35-0.03,0.5-0.09c0.15-0.06,0.28-0.15,0.38-0.26c0.1-0.11,0.19-0.25,0.24-0.42C29.87,43.96,29.9,43.78,29.9,43.57z"/>
		<path class="st2" d="M34.86,43.57c0,0.25-0.04,0.49-0.12,0.7c-0.08,0.21-0.19,0.39-0.34,0.54c-0.15,0.15-0.32,0.26-0.53,0.35
			c-0.21,0.08-0.43,0.12-0.68,0.12h-1.27v-3.4h1.27c0.25,0,0.48,0.04,0.68,0.12c0.2,0.08,0.38,0.2,0.53,0.35
			c0.15,0.15,0.26,0.33,0.34,0.54C34.82,43.08,34.86,43.31,34.86,43.57z M34.39,43.57c0-0.21-0.03-0.4-0.09-0.56
			c-0.06-0.16-0.14-0.3-0.24-0.42c-0.1-0.11-0.23-0.2-0.38-0.26c-0.15-0.06-0.31-0.09-0.5-0.09h-0.81v2.66h0.81
			c0.18,0,0.35-0.03,0.5-0.09c0.15-0.06,0.28-0.15,0.38-0.26s0.19-0.25,0.24-0.42C34.36,43.96,34.39,43.78,34.39,43.57z"/>
		<path class="st2" d="M37.58,41.86v0.37h-1.63v1.13h1.32v0.36h-1.32v1.16h1.63v0.37h-2.1v-3.4H37.58z"/>
		<path class="st2" d="M41.55,44.56c0.03,0,0.05,0.01,0.07,0.03l0.18,0.2c-0.14,0.16-0.31,0.29-0.51,0.38
			c-0.2,0.09-0.44,0.14-0.72,0.14c-0.25,0-0.47-0.04-0.67-0.13c-0.2-0.08-0.37-0.2-0.51-0.36c-0.14-0.15-0.25-0.34-0.33-0.55
			c-0.08-0.21-0.12-0.45-0.12-0.71c0-0.26,0.04-0.49,0.13-0.71c0.08-0.21,0.2-0.4,0.35-0.55c0.15-0.15,0.33-0.27,0.54-0.36
			c0.21-0.08,0.44-0.13,0.69-0.13c0.25,0,0.47,0.04,0.65,0.12c0.18,0.08,0.34,0.18,0.48,0.32l-0.15,0.21
			c-0.01,0.02-0.02,0.03-0.04,0.04c-0.01,0.01-0.04,0.02-0.06,0.02c-0.02,0-0.04-0.01-0.06-0.02c-0.02-0.02-0.05-0.03-0.08-0.06
			c-0.03-0.02-0.07-0.05-0.11-0.07c-0.04-0.03-0.09-0.05-0.15-0.07c-0.06-0.02-0.13-0.04-0.2-0.06c-0.08-0.01-0.17-0.02-0.27-0.02
			c-0.18,0-0.35,0.03-0.5,0.09c-0.15,0.06-0.28,0.15-0.39,0.27c-0.11,0.12-0.19,0.26-0.25,0.42c-0.06,0.17-0.09,0.35-0.09,0.56
			c0,0.21,0.03,0.4,0.09,0.57c0.06,0.17,0.14,0.31,0.25,0.42c0.11,0.11,0.23,0.2,0.37,0.26c0.14,0.06,0.3,0.09,0.46,0.09
			c0.1,0,0.19-0.01,0.27-0.02c0.08-0.01,0.15-0.03,0.22-0.06c0.07-0.03,0.13-0.06,0.19-0.1c0.06-0.04,0.12-0.09,0.18-0.14
			C41.5,44.58,41.53,44.56,41.55,44.56z"/>
		<path class="st2" d="M44.15,42.4c-0.01,0.02-0.03,0.04-0.04,0.05c-0.02,0.01-0.04,0.02-0.06,0.02c-0.03,0-0.06-0.01-0.09-0.04
			c-0.04-0.03-0.08-0.06-0.14-0.09c-0.05-0.03-0.12-0.06-0.2-0.09c-0.08-0.03-0.17-0.04-0.28-0.04c-0.1,0-0.19,0.01-0.27,0.04
			c-0.08,0.03-0.14,0.07-0.2,0.11c-0.05,0.05-0.09,0.1-0.12,0.17c-0.03,0.06-0.04,0.13-0.04,0.21c0,0.1,0.02,0.17,0.07,0.24
			c0.05,0.06,0.11,0.12,0.19,0.16c0.08,0.04,0.16,0.08,0.26,0.12c0.1,0.03,0.2,0.07,0.3,0.1c0.1,0.03,0.2,0.07,0.3,0.12
			s0.18,0.1,0.26,0.16c0.08,0.07,0.14,0.15,0.19,0.24c0.05,0.1,0.07,0.22,0.07,0.36c0,0.15-0.03,0.29-0.08,0.42
			c-0.05,0.13-0.13,0.24-0.22,0.34s-0.22,0.17-0.36,0.23c-0.14,0.06-0.3,0.08-0.48,0.08c-0.22,0-0.42-0.04-0.6-0.12
			c-0.18-0.08-0.34-0.19-0.46-0.32l0.13-0.22c0.01-0.02,0.03-0.03,0.05-0.04c0.02-0.01,0.04-0.02,0.06-0.02
			c0.03,0,0.07,0.02,0.11,0.05c0.04,0.04,0.1,0.07,0.16,0.12c0.06,0.04,0.14,0.08,0.23,0.12c0.09,0.04,0.2,0.05,0.33,0.05
			c0.11,0,0.21-0.02,0.29-0.05c0.09-0.03,0.16-0.07,0.22-0.13c0.06-0.05,0.1-0.12,0.14-0.2c0.03-0.08,0.05-0.16,0.05-0.25
			c0-0.1-0.02-0.19-0.07-0.25s-0.11-0.12-0.18-0.17c-0.08-0.04-0.16-0.08-0.26-0.11c-0.1-0.03-0.2-0.06-0.3-0.1
			c-0.1-0.03-0.2-0.07-0.3-0.11c-0.1-0.04-0.18-0.1-0.26-0.17c-0.08-0.07-0.14-0.15-0.18-0.25c-0.05-0.1-0.07-0.23-0.07-0.38
			c0-0.12,0.02-0.24,0.07-0.35c0.05-0.11,0.11-0.21,0.2-0.3c0.09-0.09,0.2-0.16,0.33-0.21c0.13-0.05,0.28-0.08,0.45-0.08
			c0.19,0,0.36,0.03,0.52,0.09c0.16,0.06,0.29,0.15,0.41,0.26L44.15,42.4z"/>
		<path class="st2" d="M44.72,45c0-0.04,0.01-0.08,0.02-0.12c0.01-0.04,0.04-0.07,0.06-0.1c0.03-0.03,0.06-0.05,0.09-0.06
			c0.04-0.02,0.08-0.02,0.12-0.02c0.04,0,0.08,0.01,0.12,0.02c0.04,0.02,0.07,0.04,0.1,0.06c0.03,0.03,0.05,0.06,0.06,0.1
			c0.01,0.04,0.02,0.08,0.02,0.12c0,0.04-0.01,0.08-0.02,0.12c-0.02,0.04-0.04,0.07-0.06,0.09c-0.03,0.03-0.06,0.05-0.1,0.06
			c-0.04,0.02-0.08,0.02-0.12,0.02c-0.04,0-0.08-0.01-0.12-0.02c-0.04-0.01-0.07-0.04-0.09-0.06c-0.03-0.03-0.05-0.06-0.06-0.09
			C44.73,45.09,44.72,45.05,44.72,45z"/>
		<path class="st2" d="M17.92,50.96h-0.36c-0.04,0-0.07-0.01-0.1-0.03c-0.03-0.02-0.04-0.05-0.06-0.08l-0.32-0.82h-1.53l-0.32,0.82
			c-0.01,0.03-0.03,0.05-0.06,0.08c-0.03,0.02-0.06,0.03-0.1,0.03h-0.36l1.36-3.4h0.47L17.92,50.96z M15.69,49.7h1.27l-0.53-1.38
			c-0.04-0.09-0.07-0.19-0.1-0.32c-0.02,0.06-0.04,0.12-0.05,0.18c-0.02,0.05-0.03,0.1-0.05,0.14L15.69,49.7z"/>
		<path class="st2" d="M19.76,50.63c0.09,0,0.18,0,0.25-0.01s0.15-0.02,0.22-0.04c0.07-0.02,0.13-0.04,0.19-0.06
			s0.12-0.05,0.18-0.08v-0.75h-0.53c-0.03,0-0.05-0.01-0.07-0.03c-0.02-0.02-0.03-0.04-0.03-0.06v-0.26h1.04v1.31
			c-0.09,0.06-0.17,0.12-0.27,0.16c-0.09,0.05-0.19,0.08-0.3,0.12c-0.11,0.03-0.22,0.05-0.34,0.07C20,50.99,19.87,51,19.73,51
			c-0.25,0-0.47-0.04-0.68-0.13c-0.21-0.08-0.38-0.2-0.53-0.36c-0.15-0.15-0.26-0.34-0.35-0.55c-0.08-0.21-0.12-0.45-0.12-0.71
			c0-0.26,0.04-0.5,0.12-0.71c0.08-0.21,0.2-0.4,0.35-0.55c0.15-0.15,0.33-0.27,0.55-0.36c0.21-0.08,0.45-0.13,0.72-0.13
			c0.13,0,0.26,0.01,0.38,0.03c0.11,0.02,0.22,0.05,0.32,0.09c0.1,0.04,0.19,0.08,0.27,0.14c0.08,0.05,0.16,0.11,0.24,0.18
			l-0.13,0.21c-0.03,0.04-0.06,0.06-0.1,0.06c-0.03,0-0.05-0.01-0.08-0.03c-0.04-0.02-0.08-0.05-0.13-0.08
			c-0.05-0.03-0.11-0.06-0.18-0.09c-0.07-0.03-0.15-0.05-0.25-0.07c-0.1-0.02-0.21-0.03-0.34-0.03c-0.19,0-0.37,0.03-0.52,0.09
			c-0.15,0.06-0.29,0.15-0.4,0.27c-0.11,0.12-0.19,0.26-0.25,0.42c-0.06,0.17-0.09,0.35-0.09,0.56c0,0.22,0.03,0.41,0.09,0.58
			c0.06,0.17,0.15,0.31,0.26,0.43c0.11,0.12,0.24,0.21,0.39,0.27C19.41,50.6,19.58,50.63,19.76,50.63z"/>
		<path class="st2" d="M22.23,49.54v1.42h-0.46v-3.4h0.96c0.22,0,0.4,0.02,0.56,0.07s0.29,0.11,0.39,0.19
			c0.1,0.08,0.18,0.18,0.23,0.3c0.05,0.12,0.07,0.25,0.07,0.39c0,0.12-0.02,0.23-0.06,0.34c-0.04,0.1-0.09,0.2-0.17,0.28
			c-0.07,0.08-0.16,0.15-0.26,0.21c-0.1,0.06-0.22,0.1-0.35,0.13c0.06,0.03,0.11,0.08,0.15,0.15l0.99,1.35h-0.41
			c-0.08,0-0.15-0.03-0.19-0.1l-0.88-1.21c-0.03-0.04-0.06-0.07-0.09-0.08s-0.08-0.03-0.14-0.03H22.23z M22.23,49.21h0.48
			c0.13,0,0.25-0.02,0.35-0.05c0.1-0.03,0.19-0.08,0.26-0.14c0.07-0.06,0.12-0.13,0.16-0.21c0.03-0.08,0.05-0.17,0.05-0.27
			c0-0.2-0.07-0.36-0.2-0.46c-0.13-0.1-0.33-0.15-0.6-0.15h-0.5V49.21z"/>
		<path class="st2" d="M27.58,50.96h-0.36c-0.04,0-0.07-0.01-0.1-0.03c-0.03-0.02-0.04-0.05-0.06-0.08l-0.32-0.82h-1.53l-0.32,0.82
			c-0.01,0.03-0.03,0.05-0.06,0.08c-0.03,0.02-0.06,0.03-0.1,0.03H24.4l1.36-3.4h0.47L27.58,50.96z M25.36,49.7h1.27l-0.53-1.38
			c-0.03-0.09-0.07-0.19-0.1-0.32c-0.02,0.06-0.03,0.12-0.05,0.18c-0.02,0.05-0.03,0.1-0.05,0.14L25.36,49.7z"/>
		<path class="st2" d="M28.52,49.54v1.42h-0.46v-3.4h0.96c0.22,0,0.4,0.02,0.56,0.07s0.29,0.11,0.39,0.19
			c0.1,0.08,0.18,0.18,0.23,0.3c0.05,0.12,0.07,0.25,0.07,0.39c0,0.12-0.02,0.23-0.06,0.34c-0.04,0.1-0.09,0.2-0.17,0.28
			c-0.07,0.08-0.16,0.15-0.26,0.21c-0.1,0.06-0.22,0.1-0.35,0.13c0.06,0.03,0.11,0.08,0.15,0.15l0.99,1.35h-0.41
			c-0.08,0-0.15-0.03-0.19-0.1l-0.88-1.21c-0.03-0.04-0.06-0.07-0.09-0.08c-0.03-0.02-0.08-0.03-0.14-0.03H28.52z M28.52,49.21H29
			c0.13,0,0.25-0.02,0.35-0.05c0.1-0.03,0.19-0.08,0.26-0.14c0.07-0.06,0.12-0.13,0.16-0.21c0.03-0.08,0.05-0.17,0.05-0.27
			c0-0.2-0.07-0.36-0.2-0.46c-0.13-0.1-0.33-0.15-0.6-0.15h-0.5V49.21z"/>
		<path class="st2" d="M31.62,50.96h-0.46v-3.4h0.46V50.96z"/>
		<path class="st2" d="M35.33,50.96h-0.36c-0.04,0-0.07-0.01-0.1-0.03c-0.03-0.02-0.04-0.05-0.06-0.08l-0.32-0.82h-1.53l-0.32,0.82
			c-0.01,0.03-0.03,0.05-0.06,0.08c-0.03,0.02-0.06,0.03-0.1,0.03h-0.36l1.36-3.4h0.47L35.33,50.96z M33.1,49.7h1.27l-0.53-1.38
			c-0.03-0.09-0.07-0.19-0.1-0.32c-0.02,0.06-0.03,0.12-0.05,0.18c-0.02,0.05-0.03,0.1-0.05,0.14L33.1,49.7z"/>
		<path class="st2" d="M37.5,48.09c-0.01,0.02-0.03,0.04-0.05,0.05c-0.02,0.01-0.04,0.02-0.06,0.02c-0.03,0-0.06-0.01-0.09-0.04
			c-0.04-0.03-0.08-0.06-0.14-0.09c-0.05-0.03-0.12-0.06-0.2-0.09c-0.08-0.03-0.17-0.04-0.28-0.04c-0.1,0-0.19,0.01-0.27,0.04
			c-0.08,0.03-0.15,0.07-0.2,0.11c-0.05,0.05-0.09,0.1-0.12,0.17c-0.03,0.06-0.04,0.13-0.04,0.21c0,0.1,0.02,0.17,0.07,0.24
			c0.05,0.06,0.11,0.12,0.18,0.16c0.08,0.04,0.16,0.08,0.26,0.12c0.1,0.03,0.2,0.07,0.3,0.1s0.2,0.07,0.3,0.12
			c0.1,0.04,0.18,0.1,0.26,0.16c0.08,0.07,0.14,0.15,0.18,0.24c0.05,0.1,0.07,0.22,0.07,0.36c0,0.15-0.03,0.29-0.08,0.42
			c-0.05,0.13-0.12,0.24-0.22,0.34s-0.22,0.17-0.36,0.23c-0.14,0.06-0.3,0.08-0.48,0.08c-0.22,0-0.42-0.04-0.6-0.12
			c-0.18-0.08-0.34-0.19-0.46-0.32l0.13-0.22c0.01-0.02,0.03-0.03,0.05-0.04c0.02-0.01,0.04-0.02,0.06-0.02
			c0.03,0,0.07,0.02,0.11,0.05c0.04,0.04,0.1,0.07,0.16,0.12c0.06,0.04,0.14,0.08,0.23,0.12c0.09,0.04,0.2,0.05,0.33,0.05
			c0.11,0,0.21-0.02,0.29-0.05c0.09-0.03,0.16-0.07,0.22-0.13c0.06-0.05,0.1-0.12,0.14-0.2c0.03-0.08,0.05-0.16,0.05-0.25
			c0-0.1-0.02-0.19-0.07-0.25c-0.05-0.07-0.11-0.12-0.18-0.17c-0.08-0.04-0.16-0.08-0.26-0.11c-0.1-0.03-0.2-0.06-0.3-0.1
			c-0.1-0.03-0.2-0.07-0.3-0.11s-0.18-0.1-0.26-0.17c-0.08-0.07-0.14-0.15-0.18-0.25s-0.07-0.23-0.07-0.38
			c0-0.12,0.02-0.24,0.07-0.35c0.05-0.11,0.11-0.21,0.2-0.3c0.09-0.09,0.2-0.16,0.33-0.21c0.13-0.05,0.28-0.08,0.45-0.08
			c0.19,0,0.36,0.03,0.52,0.09c0.16,0.06,0.29,0.15,0.41,0.26L37.5,48.09z"/>
	</g>
</g>
</svg>
