<?xml version="1.0" encoding="utf-8"?>
<!-- Generator: Adobe Illustrator 24.0.2, SVG Export Plug-In . SVG Version: 6.00 Build 0)  -->
<svg version="1.1" id="Capa_1" xmlns="http://www.w3.org/2000/svg" xmlns:xlink="http://www.w3.org/1999/xlink" x="0px" y="0px"
	 viewBox="0 0 52.77 52.77" style="enable-background:new 0 0 52.77 52.77;" xml:space="preserve">
<style type="text/css">
	.st0{fill:#FFFFFF;}
	.st1{fill:#F08224;}
	.st2{fill:#020203;}
	.st3{fill:#789C4A;}
	.st4{fill:#853236;}
	.st5{fill:#BC8D47;}
	.st6{fill:#FF4713;}
	.st7{fill:#F09F54;}
	.st8{fill:none;stroke:#F09F54;stroke-width:0.7594;stroke-miterlimit:10;}
	.st9{fill:#EA8130;}
	.st10{fill:#3E7895;}
	.st11{fill:#B6CED7;}
	.st12{fill:#231F20;}
	.st13{fill:#065C7B;}
	.st14{fill:#00AF9A;}
	.st15{fill:#0083C1;}
	.st16{fill:#7B868C;}
	.st17{fill:#BAC0C3;}
	.st18{fill:#0B9691;}
	.st19{fill:#6BDAD5;}
	.st20{fill:#62C0BE;}
	.st21{fill:#009490;}
	.st22{fill:#036784;}
	.st23{fill:#82AEBD;}
	.st24{fill:#B0CCD9;}
	.st25{fill:#CE0E2D;}
	.st26{fill:#29787B;}
	.st27{fill:#D11317;}
</style>
<g>
	<g>
		<rect class="st0" width="52.77" height="52.77"/>
	</g>
	<polygon class="st0" points="20.24,21.6 22.8,18.21 26.84,18.79 	"/>
	<polygon class="st0" points="26.43,22.08 22.36,21.45 20.64,17.73 	"/>
	<polygon class="st0" points="23.19,16.32 24.79,20.14 22.29,23.49 	"/>
	<g>
		<path class="st2" d="M9.66,37.99v0.37H8.02v1.19h1.4v0.37h-1.4v1.46H7.56v-3.4H9.66z"/>
		<path class="st2" d="M12.73,41.39h-0.36c-0.04,0-0.07-0.01-0.1-0.03c-0.03-0.02-0.04-0.05-0.06-0.08l-0.32-0.82h-1.53l-0.32,0.82
			c-0.01,0.03-0.03,0.05-0.06,0.08c-0.03,0.02-0.06,0.03-0.1,0.03H9.54l1.36-3.4h0.47L12.73,41.39z M10.5,40.13h1.27l-0.53-1.38
			c-0.03-0.09-0.07-0.19-0.1-0.32c-0.02,0.06-0.03,0.12-0.05,0.18c-0.02,0.05-0.03,0.1-0.05,0.14L10.5,40.13z"/>
		<path class="st2" d="M15.46,40.69c0.03,0,0.05,0.01,0.07,0.03l0.18,0.2c-0.14,0.16-0.31,0.29-0.51,0.38
			c-0.2,0.09-0.44,0.14-0.72,0.14c-0.25,0-0.47-0.04-0.67-0.13c-0.2-0.08-0.37-0.2-0.51-0.36c-0.14-0.15-0.25-0.34-0.33-0.55
			c-0.08-0.21-0.12-0.45-0.12-0.71c0-0.26,0.04-0.49,0.13-0.71c0.08-0.21,0.2-0.4,0.35-0.55c0.15-0.15,0.33-0.27,0.54-0.36
			c0.21-0.08,0.44-0.13,0.69-0.13c0.25,0,0.47,0.04,0.65,0.12c0.18,0.08,0.34,0.18,0.48,0.32l-0.15,0.21
			c-0.01,0.02-0.02,0.03-0.04,0.04c-0.01,0.01-0.04,0.02-0.06,0.02c-0.02,0-0.04-0.01-0.06-0.02c-0.02-0.02-0.05-0.03-0.08-0.06
			c-0.03-0.02-0.07-0.05-0.11-0.07c-0.04-0.03-0.09-0.05-0.15-0.07c-0.06-0.02-0.13-0.04-0.2-0.06c-0.08-0.01-0.17-0.02-0.27-0.02
			c-0.18,0-0.35,0.03-0.5,0.09c-0.15,0.06-0.28,0.15-0.39,0.27c-0.11,0.12-0.19,0.26-0.25,0.42c-0.06,0.17-0.09,0.35-0.09,0.56
			c0,0.21,0.03,0.4,0.09,0.57c0.06,0.17,0.14,0.31,0.25,0.42c0.11,0.11,0.23,0.2,0.37,0.26c0.14,0.06,0.3,0.09,0.46,0.09
			c0.1,0,0.19-0.01,0.27-0.02c0.08-0.01,0.15-0.03,0.22-0.06c0.07-0.03,0.13-0.06,0.19-0.1c0.06-0.04,0.12-0.09,0.18-0.14
			C15.41,40.7,15.43,40.69,15.46,40.69z"/>
		<path class="st2" d="M17.63,41.03c0.14,0,0.27-0.02,0.38-0.07c0.11-0.05,0.2-0.11,0.28-0.2c0.08-0.09,0.13-0.19,0.18-0.31
			c0.04-0.12,0.06-0.25,0.06-0.39v-2.07h0.46v2.07c0,0.2-0.03,0.38-0.09,0.55c-0.06,0.17-0.15,0.31-0.27,0.44
			c-0.12,0.12-0.26,0.22-0.43,0.29s-0.36,0.1-0.56,0.1c-0.21,0-0.4-0.03-0.56-0.1s-0.31-0.17-0.43-0.29
			c-0.12-0.12-0.21-0.27-0.27-0.44c-0.06-0.17-0.09-0.35-0.09-0.55v-2.07h0.46v2.06c0,0.14,0.02,0.27,0.06,0.39
			c0.04,0.12,0.1,0.22,0.18,0.31c0.08,0.09,0.17,0.15,0.28,0.2C17.37,41,17.49,41.03,17.63,41.03z"/>
		<path class="st2" d="M20.24,41h1.47v0.39h-1.93v-3.4h0.46V41z"/>
		<path class="st2" d="M24.13,37.99v0.39h-1.1v3.01h-0.46v-3.01h-1.1v-0.39H24.13z"/>
		<path class="st2" d="M27.09,41.39h-0.36c-0.04,0-0.07-0.01-0.1-0.03c-0.03-0.02-0.04-0.05-0.06-0.08l-0.32-0.82h-1.53l-0.32,0.82
			c-0.01,0.03-0.03,0.05-0.06,0.08c-0.03,0.02-0.06,0.03-0.1,0.03h-0.36l1.36-3.4h0.47L27.09,41.39z M24.87,40.13h1.27l-0.53-1.38
			c-0.03-0.09-0.07-0.19-0.1-0.32c-0.02,0.06-0.03,0.12-0.05,0.18c-0.02,0.05-0.03,0.1-0.05,0.14L24.87,40.13z"/>
		<path class="st2" d="M30.47,39.69c0,0.25-0.04,0.49-0.12,0.7c-0.08,0.21-0.19,0.39-0.34,0.54c-0.15,0.15-0.32,0.26-0.53,0.35
			c-0.21,0.08-0.43,0.12-0.68,0.12h-1.27v-3.4h1.27c0.25,0,0.48,0.04,0.68,0.12c0.21,0.08,0.38,0.2,0.53,0.35
			c0.15,0.15,0.26,0.33,0.34,0.54C30.43,39.2,30.47,39.44,30.47,39.69z M30,39.69c0-0.21-0.03-0.4-0.09-0.56
			c-0.06-0.16-0.14-0.3-0.24-0.42c-0.1-0.11-0.23-0.2-0.38-0.26c-0.15-0.06-0.31-0.09-0.5-0.09h-0.81v2.66h0.81
			c0.18,0,0.35-0.03,0.5-0.09c0.15-0.06,0.28-0.15,0.38-0.26c0.1-0.11,0.19-0.25,0.24-0.42C29.97,40.09,30,39.9,30,39.69z"/>
		<path class="st2" d="M34.96,39.69c0,0.25-0.04,0.49-0.12,0.7c-0.08,0.21-0.19,0.39-0.34,0.54c-0.15,0.15-0.32,0.26-0.53,0.35
			c-0.21,0.08-0.43,0.12-0.68,0.12h-1.27v-3.4h1.27c0.25,0,0.48,0.04,0.68,0.12c0.2,0.08,0.38,0.2,0.53,0.35
			c0.15,0.15,0.26,0.33,0.34,0.54C34.92,39.2,34.96,39.44,34.96,39.69z M34.49,39.69c0-0.21-0.03-0.4-0.09-0.56
			c-0.06-0.16-0.14-0.3-0.24-0.42c-0.1-0.11-0.23-0.2-0.38-0.26c-0.15-0.06-0.31-0.09-0.5-0.09h-0.81v2.66h0.81
			c0.18,0,0.35-0.03,0.5-0.09c0.15-0.06,0.28-0.15,0.38-0.26s0.19-0.25,0.24-0.42C34.46,40.09,34.49,39.9,34.49,39.69z"/>
		<path class="st2" d="M37.68,37.99v0.37h-1.63v1.13h1.32v0.36h-1.32v1.16h1.63v0.37h-2.1v-3.4H37.68z"/>
		<path class="st2" d="M41.66,40.69c0.03,0,0.05,0.01,0.07,0.03l0.18,0.2c-0.14,0.16-0.31,0.29-0.51,0.38
			c-0.2,0.09-0.44,0.14-0.72,0.14c-0.25,0-0.47-0.04-0.67-0.13c-0.2-0.08-0.37-0.2-0.51-0.36c-0.14-0.15-0.25-0.34-0.33-0.55
			c-0.08-0.21-0.12-0.45-0.12-0.71c0-0.26,0.04-0.49,0.13-0.71c0.08-0.21,0.2-0.4,0.35-0.55c0.15-0.15,0.33-0.27,0.54-0.36
			c0.21-0.08,0.44-0.13,0.69-0.13c0.25,0,0.47,0.04,0.65,0.12c0.18,0.08,0.34,0.18,0.48,0.32l-0.15,0.21
			c-0.01,0.02-0.02,0.03-0.04,0.04c-0.01,0.01-0.04,0.02-0.06,0.02c-0.02,0-0.04-0.01-0.06-0.02c-0.02-0.02-0.05-0.03-0.08-0.06
			c-0.03-0.02-0.07-0.05-0.11-0.07c-0.04-0.03-0.09-0.05-0.15-0.07c-0.06-0.02-0.13-0.04-0.2-0.06c-0.08-0.01-0.17-0.02-0.27-0.02
			c-0.18,0-0.35,0.03-0.5,0.09c-0.15,0.06-0.28,0.15-0.39,0.27c-0.11,0.12-0.19,0.26-0.25,0.42c-0.06,0.17-0.09,0.35-0.09,0.56
			c0,0.21,0.03,0.4,0.09,0.57c0.06,0.17,0.14,0.31,0.25,0.42c0.11,0.11,0.23,0.2,0.37,0.26c0.14,0.06,0.3,0.09,0.46,0.09
			c0.1,0,0.19-0.01,0.27-0.02c0.08-0.01,0.15-0.03,0.22-0.06c0.07-0.03,0.13-0.06,0.19-0.1c0.06-0.04,0.12-0.09,0.18-0.14
			C41.61,40.7,41.63,40.69,41.66,40.69z"/>
		<path class="st2" d="M44.25,38.52c-0.01,0.02-0.03,0.04-0.04,0.05c-0.02,0.01-0.04,0.02-0.06,0.02c-0.03,0-0.06-0.01-0.09-0.04
			c-0.04-0.03-0.08-0.06-0.14-0.09c-0.05-0.03-0.12-0.06-0.2-0.09c-0.08-0.03-0.17-0.04-0.28-0.04c-0.1,0-0.19,0.01-0.27,0.04
			c-0.08,0.03-0.14,0.07-0.2,0.11c-0.05,0.05-0.09,0.1-0.12,0.17c-0.03,0.06-0.04,0.13-0.04,0.21c0,0.1,0.02,0.17,0.07,0.24
			c0.05,0.06,0.11,0.12,0.19,0.16c0.08,0.04,0.16,0.08,0.26,0.12c0.1,0.03,0.2,0.07,0.3,0.1s0.2,0.07,0.3,0.12
			c0.1,0.04,0.18,0.1,0.26,0.16c0.08,0.07,0.14,0.15,0.19,0.24s0.07,0.22,0.07,0.36c0,0.15-0.03,0.29-0.08,0.42
			c-0.05,0.13-0.13,0.24-0.22,0.34c-0.1,0.1-0.22,0.17-0.36,0.23c-0.14,0.06-0.3,0.08-0.48,0.08c-0.22,0-0.42-0.04-0.6-0.12
			c-0.18-0.08-0.34-0.19-0.46-0.32l0.13-0.22c0.01-0.02,0.03-0.03,0.05-0.04c0.02-0.01,0.04-0.02,0.06-0.02
			c0.03,0,0.07,0.02,0.11,0.05c0.04,0.04,0.1,0.07,0.16,0.12c0.06,0.04,0.14,0.08,0.23,0.12c0.09,0.04,0.2,0.05,0.33,0.05
			c0.11,0,0.21-0.02,0.29-0.05c0.09-0.03,0.16-0.07,0.22-0.13c0.06-0.05,0.1-0.12,0.14-0.2c0.03-0.08,0.05-0.16,0.05-0.25
			c0-0.1-0.02-0.19-0.07-0.25c-0.05-0.07-0.11-0.12-0.18-0.17c-0.08-0.04-0.16-0.08-0.26-0.11c-0.1-0.03-0.2-0.06-0.3-0.1
			c-0.1-0.03-0.2-0.07-0.3-0.11s-0.18-0.1-0.26-0.17c-0.08-0.07-0.14-0.15-0.18-0.25c-0.05-0.1-0.07-0.23-0.07-0.38
			c0-0.12,0.02-0.24,0.07-0.35c0.05-0.11,0.11-0.21,0.2-0.3c0.09-0.09,0.2-0.16,0.33-0.21c0.13-0.05,0.28-0.08,0.45-0.08
			c0.19,0,0.36,0.03,0.52,0.09c0.16,0.06,0.29,0.15,0.41,0.26L44.25,38.52z"/>
		<path class="st2" d="M44.82,41.13c0-0.04,0.01-0.08,0.02-0.12c0.01-0.04,0.04-0.07,0.06-0.1c0.03-0.03,0.06-0.05,0.09-0.06
			c0.04-0.02,0.08-0.02,0.12-0.02s0.08,0.01,0.12,0.02c0.04,0.02,0.07,0.04,0.1,0.06c0.03,0.03,0.05,0.06,0.06,0.1
			c0.01,0.04,0.02,0.08,0.02,0.12c0,0.04-0.01,0.08-0.02,0.12c-0.02,0.04-0.04,0.07-0.06,0.09c-0.03,0.03-0.06,0.05-0.1,0.06
			c-0.04,0.02-0.08,0.02-0.12,0.02S45.04,41.42,45,41.4c-0.04-0.01-0.07-0.04-0.09-0.06c-0.03-0.03-0.05-0.06-0.06-0.09
			C44.83,41.21,44.82,41.17,44.82,41.13z"/>
		<path class="st2" d="M11.37,46.14h-0.36c-0.04,0-0.07-0.01-0.1-0.03c-0.03-0.02-0.04-0.05-0.06-0.08l-0.32-0.82H9.01L8.7,46.03
			c-0.01,0.03-0.03,0.05-0.06,0.08c-0.03,0.02-0.06,0.03-0.1,0.03H8.18l1.36-3.4h0.47L11.37,46.14z M9.14,44.87h1.27l-0.53-1.38
			c-0.03-0.09-0.07-0.19-0.1-0.32c-0.02,0.06-0.03,0.12-0.05,0.18c-0.02,0.05-0.03,0.1-0.05,0.14L9.14,44.87z"/>
		<path class="st2" d="M12.31,44.87v1.27h-0.46v-3.4h1c0.22,0,0.4,0.03,0.56,0.07c0.16,0.05,0.29,0.12,0.39,0.21
			c0.1,0.09,0.18,0.2,0.23,0.33c0.05,0.13,0.08,0.27,0.08,0.43c0,0.16-0.03,0.3-0.08,0.43c-0.06,0.13-0.14,0.24-0.24,0.34
			c-0.11,0.1-0.24,0.17-0.4,0.22c-0.16,0.05-0.34,0.08-0.54,0.08H12.31z M12.31,44.5h0.55c0.13,0,0.25-0.02,0.35-0.05
			c0.1-0.03,0.18-0.08,0.25-0.15c0.07-0.06,0.12-0.14,0.15-0.22c0.03-0.09,0.05-0.18,0.05-0.29c0-0.22-0.07-0.39-0.2-0.51
			s-0.34-0.18-0.61-0.18h-0.55V44.5z"/>
		<path class="st2" d="M15.16,45.75h1.47v0.39H14.7v-3.4h0.46V45.75z"/>
		<path class="st2" d="M17.69,46.14h-0.46v-3.4h0.46V46.14z"/>
		<path class="st2" d="M20.99,45.43c0.03,0,0.05,0.01,0.07,0.03l0.18,0.2c-0.14,0.16-0.31,0.29-0.51,0.38
			c-0.2,0.09-0.44,0.14-0.72,0.14c-0.24,0-0.47-0.04-0.67-0.13s-0.37-0.2-0.51-0.36c-0.14-0.15-0.25-0.34-0.33-0.55
			c-0.08-0.21-0.12-0.45-0.12-0.71c0-0.26,0.04-0.49,0.12-0.71c0.08-0.21,0.2-0.4,0.35-0.55c0.15-0.15,0.33-0.27,0.54-0.36
			s0.44-0.13,0.69-0.13c0.25,0,0.47,0.04,0.65,0.12c0.18,0.08,0.34,0.18,0.48,0.32l-0.15,0.21c-0.01,0.02-0.02,0.03-0.04,0.04
			c-0.01,0.01-0.03,0.02-0.06,0.02c-0.02,0-0.04-0.01-0.07-0.02c-0.02-0.02-0.05-0.03-0.08-0.06c-0.03-0.02-0.07-0.05-0.11-0.07
			c-0.04-0.03-0.09-0.05-0.15-0.07c-0.06-0.02-0.13-0.04-0.2-0.06c-0.08-0.01-0.17-0.02-0.27-0.02c-0.18,0-0.35,0.03-0.5,0.09
			c-0.15,0.06-0.28,0.15-0.39,0.27c-0.11,0.12-0.19,0.26-0.25,0.42c-0.06,0.17-0.09,0.35-0.09,0.56c0,0.21,0.03,0.4,0.09,0.57
			c0.06,0.17,0.14,0.31,0.25,0.42c0.1,0.11,0.23,0.2,0.37,0.26c0.14,0.06,0.3,0.09,0.47,0.09c0.1,0,0.19-0.01,0.27-0.02
			c0.08-0.01,0.16-0.03,0.22-0.06c0.07-0.03,0.13-0.06,0.19-0.1c0.06-0.04,0.12-0.09,0.18-0.14C20.94,45.45,20.97,45.43,20.99,45.43
			z"/>
		<path class="st2" d="M24.65,46.14h-0.36c-0.04,0-0.07-0.01-0.1-0.03c-0.03-0.02-0.04-0.05-0.06-0.08l-0.32-0.82h-1.53l-0.32,0.82
			c-0.01,0.03-0.03,0.05-0.06,0.08c-0.03,0.02-0.06,0.03-0.1,0.03h-0.36l1.36-3.4h0.47L24.65,46.14z M22.42,44.87h1.27l-0.53-1.38
			c-0.04-0.09-0.07-0.19-0.1-0.32c-0.02,0.06-0.04,0.12-0.05,0.18c-0.02,0.05-0.03,0.1-0.05,0.14L22.42,44.87z"/>
		<path class="st2" d="M28.02,44.44c0,0.25-0.04,0.49-0.12,0.7c-0.08,0.21-0.19,0.39-0.34,0.54c-0.15,0.15-0.32,0.26-0.53,0.35
			c-0.21,0.08-0.43,0.12-0.68,0.12h-1.27v-3.4h1.27c0.25,0,0.48,0.04,0.68,0.12c0.2,0.08,0.38,0.2,0.53,0.35
			c0.15,0.15,0.26,0.33,0.34,0.54C27.98,43.95,28.02,44.18,28.02,44.44z M27.55,44.44c0-0.21-0.03-0.4-0.09-0.56
			c-0.06-0.16-0.14-0.3-0.24-0.42c-0.1-0.11-0.23-0.2-0.38-0.26c-0.15-0.06-0.31-0.09-0.5-0.09h-0.81v2.66h0.81
			c0.18,0,0.35-0.03,0.5-0.09c0.15-0.06,0.28-0.15,0.38-0.26c0.1-0.11,0.19-0.25,0.24-0.42C27.52,44.83,27.55,44.65,27.55,44.44z"/>
		<path class="st2" d="M31.35,46.14h-0.36c-0.04,0-0.07-0.01-0.1-0.03c-0.03-0.02-0.04-0.05-0.06-0.08l-0.32-0.82h-1.53l-0.32,0.82
			c-0.01,0.03-0.03,0.05-0.06,0.08c-0.03,0.02-0.06,0.03-0.1,0.03h-0.36l1.36-3.4h0.47L31.35,46.14z M29.12,44.87h1.27l-0.53-1.38
			c-0.03-0.09-0.07-0.19-0.1-0.32c-0.02,0.06-0.03,0.12-0.05,0.18c-0.02,0.05-0.03,0.1-0.05,0.14L29.12,44.87z"/>
		<path class="st2" d="M33.52,43.27c-0.01,0.02-0.03,0.04-0.05,0.05c-0.02,0.01-0.04,0.02-0.06,0.02c-0.03,0-0.06-0.01-0.09-0.04
			c-0.04-0.03-0.08-0.06-0.14-0.09c-0.05-0.03-0.12-0.06-0.2-0.09c-0.08-0.03-0.17-0.04-0.28-0.04c-0.1,0-0.19,0.01-0.27,0.04
			c-0.08,0.03-0.15,0.07-0.2,0.11c-0.05,0.05-0.09,0.1-0.12,0.17c-0.03,0.06-0.04,0.13-0.04,0.21c0,0.1,0.02,0.17,0.07,0.24
			c0.05,0.06,0.11,0.12,0.18,0.16c0.08,0.04,0.16,0.08,0.26,0.12s0.2,0.07,0.3,0.1s0.2,0.07,0.3,0.12c0.1,0.04,0.18,0.1,0.26,0.16
			c0.08,0.07,0.14,0.15,0.18,0.24c0.05,0.1,0.07,0.22,0.07,0.36c0,0.15-0.03,0.29-0.08,0.42c-0.05,0.13-0.12,0.24-0.22,0.34
			s-0.22,0.17-0.36,0.23c-0.14,0.06-0.3,0.08-0.48,0.08c-0.22,0-0.42-0.04-0.6-0.12c-0.18-0.08-0.34-0.19-0.46-0.32l0.13-0.22
			c0.01-0.02,0.03-0.03,0.05-0.04c0.02-0.01,0.04-0.02,0.06-0.02c0.03,0,0.07,0.02,0.11,0.05c0.04,0.04,0.1,0.07,0.16,0.12
			c0.06,0.04,0.14,0.08,0.23,0.12c0.09,0.04,0.2,0.05,0.33,0.05c0.11,0,0.21-0.02,0.29-0.05c0.09-0.03,0.16-0.07,0.22-0.13
			c0.06-0.05,0.1-0.12,0.14-0.2c0.03-0.08,0.05-0.16,0.05-0.25c0-0.1-0.02-0.19-0.07-0.25c-0.05-0.07-0.11-0.12-0.18-0.17
			c-0.08-0.04-0.16-0.08-0.26-0.11c-0.1-0.03-0.2-0.06-0.3-0.1s-0.2-0.07-0.3-0.11c-0.1-0.04-0.18-0.1-0.26-0.17
			c-0.08-0.07-0.14-0.15-0.18-0.25s-0.07-0.23-0.07-0.38c0-0.12,0.02-0.24,0.07-0.35c0.05-0.11,0.11-0.21,0.2-0.3
			c0.09-0.09,0.2-0.16,0.33-0.21c0.13-0.05,0.28-0.08,0.45-0.08c0.19,0,0.36,0.03,0.52,0.09c0.16,0.06,0.29,0.15,0.41,0.26
			L33.52,43.27z"/>
		<path class="st2" d="M38.01,46.14h-0.36c-0.04,0-0.07-0.01-0.1-0.03c-0.03-0.02-0.04-0.05-0.06-0.08l-0.32-0.82h-1.53l-0.32,0.82
			c-0.01,0.03-0.03,0.05-0.06,0.08c-0.03,0.02-0.06,0.03-0.1,0.03h-0.36l1.36-3.4h0.47L38.01,46.14z M35.78,44.87h1.27l-0.53-1.38
			c-0.03-0.09-0.07-0.19-0.1-0.32c-0.02,0.06-0.03,0.12-0.05,0.18c-0.02,0.05-0.03,0.1-0.05,0.14L35.78,44.87z"/>
		<path class="st2" d="M39.81,45.75h1.47v0.39h-1.93v-3.4h0.46V45.75z"/>
		<path class="st2" d="M44.59,46.14h-0.36c-0.04,0-0.07-0.01-0.1-0.03c-0.03-0.02-0.04-0.05-0.06-0.08l-0.32-0.82h-1.53l-0.32,0.82
			c-0.01,0.03-0.03,0.05-0.06,0.08c-0.03,0.02-0.06,0.03-0.1,0.03H41.4l1.36-3.4h0.47L44.59,46.14z M42.36,44.87h1.27l-0.53-1.38
			c-0.03-0.09-0.07-0.19-0.1-0.32c-0.02,0.06-0.03,0.12-0.05,0.18c-0.02,0.05-0.03,0.1-0.05,0.14L42.36,44.87z"/>
		<path class="st2" d="M14.77,50.88h-0.46v-3.4h0.46V50.88z"/>
		<path class="st2" d="M16.01,47.5c0.02,0.01,0.04,0.03,0.07,0.06l1.97,2.56c-0.01-0.04-0.01-0.08-0.01-0.12c0-0.04,0-0.08,0-0.11
			v-2.41h0.4v3.4h-0.23c-0.04,0-0.07-0.01-0.09-0.02c-0.02-0.01-0.05-0.03-0.07-0.06l-1.97-2.56c0,0.04,0.01,0.08,0.01,0.12
			c0,0.04,0,0.07,0,0.1v2.42h-0.4v-3.4h0.24C15.96,47.48,15.99,47.49,16.01,47.5z"/>
		<path class="st2" d="M22.22,49.18c0,0.25-0.04,0.49-0.12,0.7c-0.08,0.21-0.19,0.39-0.34,0.54c-0.15,0.15-0.32,0.26-0.53,0.35
			c-0.21,0.08-0.43,0.12-0.68,0.12h-1.27v-3.4h1.27c0.25,0,0.48,0.04,0.68,0.12c0.21,0.08,0.38,0.2,0.53,0.35
			c0.15,0.15,0.26,0.33,0.34,0.54C22.18,48.7,22.22,48.93,22.22,49.18z M21.75,49.18c0-0.21-0.03-0.4-0.09-0.56
			c-0.06-0.16-0.14-0.3-0.24-0.42c-0.1-0.11-0.23-0.2-0.38-0.26c-0.15-0.06-0.31-0.09-0.5-0.09h-0.81v2.66h0.81
			c0.18,0,0.35-0.03,0.5-0.09c0.15-0.06,0.28-0.15,0.38-0.26c0.1-0.11,0.19-0.25,0.24-0.42C21.72,49.58,21.75,49.39,21.75,49.18z"/>
		<path class="st2" d="M24.17,50.52c0.14,0,0.27-0.02,0.38-0.07c0.11-0.05,0.2-0.11,0.28-0.2c0.08-0.09,0.13-0.19,0.18-0.31
			c0.04-0.12,0.06-0.25,0.06-0.39v-2.07h0.46v2.07c0,0.2-0.03,0.38-0.09,0.55c-0.06,0.17-0.15,0.31-0.27,0.44
			c-0.12,0.12-0.26,0.22-0.43,0.29c-0.17,0.07-0.36,0.1-0.56,0.1s-0.4-0.03-0.56-0.1c-0.17-0.07-0.31-0.17-0.43-0.29
			c-0.12-0.12-0.21-0.27-0.27-0.44c-0.06-0.17-0.09-0.35-0.09-0.55v-2.07h0.46v2.06c0,0.14,0.02,0.27,0.06,0.39
			c0.04,0.12,0.1,0.22,0.18,0.31c0.08,0.09,0.17,0.15,0.28,0.2C23.9,50.49,24.03,50.52,24.17,50.52z"/>
		<path class="st2" d="M28.05,48.01c-0.01,0.02-0.03,0.04-0.05,0.05c-0.02,0.01-0.04,0.02-0.06,0.02c-0.03,0-0.06-0.01-0.09-0.04
			c-0.04-0.03-0.08-0.06-0.14-0.09c-0.05-0.03-0.12-0.06-0.2-0.09c-0.08-0.03-0.17-0.04-0.28-0.04c-0.1,0-0.19,0.01-0.27,0.04
			c-0.08,0.03-0.15,0.07-0.2,0.11c-0.05,0.05-0.09,0.1-0.12,0.17s-0.04,0.13-0.04,0.21c0,0.1,0.02,0.17,0.07,0.24
			c0.05,0.06,0.11,0.12,0.18,0.16c0.08,0.04,0.16,0.08,0.26,0.12c0.1,0.03,0.2,0.07,0.3,0.1s0.2,0.07,0.3,0.12
			c0.1,0.04,0.18,0.1,0.26,0.16c0.08,0.07,0.14,0.15,0.18,0.24c0.05,0.1,0.07,0.22,0.07,0.36c0,0.15-0.03,0.29-0.08,0.42
			c-0.05,0.13-0.12,0.24-0.22,0.34s-0.22,0.17-0.36,0.23c-0.14,0.06-0.3,0.08-0.48,0.08c-0.22,0-0.42-0.04-0.6-0.12
			c-0.18-0.08-0.34-0.19-0.46-0.32l0.13-0.22c0.01-0.02,0.03-0.03,0.05-0.04c0.02-0.01,0.04-0.02,0.06-0.02
			c0.03,0,0.07,0.02,0.11,0.05c0.04,0.04,0.1,0.07,0.16,0.12c0.06,0.04,0.14,0.08,0.23,0.12c0.09,0.04,0.2,0.05,0.33,0.05
			c0.11,0,0.21-0.02,0.29-0.05c0.09-0.03,0.16-0.07,0.22-0.13c0.06-0.05,0.1-0.12,0.14-0.2c0.03-0.08,0.05-0.16,0.05-0.25
			c0-0.1-0.02-0.19-0.07-0.25c-0.05-0.07-0.11-0.12-0.18-0.17c-0.08-0.04-0.16-0.08-0.26-0.11c-0.1-0.03-0.2-0.06-0.3-0.1
			c-0.1-0.03-0.2-0.07-0.3-0.11c-0.1-0.04-0.18-0.1-0.26-0.17c-0.08-0.07-0.14-0.15-0.18-0.25c-0.05-0.1-0.07-0.23-0.07-0.38
			c0-0.12,0.02-0.24,0.07-0.35c0.05-0.11,0.11-0.21,0.2-0.3c0.09-0.09,0.2-0.16,0.33-0.21c0.13-0.05,0.28-0.08,0.45-0.08
			c0.19,0,0.36,0.03,0.52,0.09c0.16,0.06,0.29,0.15,0.41,0.26L28.05,48.01z"/>
		<path class="st2" d="M31.14,47.48v0.39h-1.1v3.01h-0.46v-3.01h-1.1v-0.39H31.14z"/>
		<path class="st2" d="M32.13,49.46v1.42h-0.46v-3.4h0.96c0.22,0,0.4,0.02,0.56,0.07s0.29,0.11,0.39,0.19
			c0.1,0.08,0.18,0.18,0.23,0.3c0.05,0.12,0.07,0.25,0.07,0.39c0,0.12-0.02,0.23-0.06,0.34c-0.04,0.1-0.09,0.2-0.17,0.28
			c-0.07,0.08-0.16,0.15-0.26,0.21c-0.1,0.06-0.22,0.1-0.35,0.13c0.06,0.03,0.11,0.08,0.15,0.15l0.99,1.35h-0.41
			c-0.08,0-0.15-0.03-0.19-0.1l-0.88-1.21c-0.03-0.04-0.06-0.07-0.09-0.08c-0.03-0.02-0.08-0.03-0.14-0.03H32.13z M32.13,49.13h0.48
			c0.13,0,0.25-0.02,0.36-0.05c0.1-0.03,0.19-0.08,0.26-0.14c0.07-0.06,0.12-0.13,0.16-0.21c0.04-0.08,0.05-0.17,0.05-0.27
			c0-0.2-0.07-0.36-0.2-0.46c-0.13-0.1-0.33-0.15-0.6-0.15h-0.5V49.13z"/>
		<path class="st2" d="M35.23,50.88h-0.46v-3.4h0.46V50.88z"/>
		<path class="st2" d="M38.94,50.88h-0.36c-0.04,0-0.07-0.01-0.1-0.03c-0.03-0.02-0.04-0.05-0.06-0.08l-0.32-0.82h-1.53l-0.32,0.82
			c-0.01,0.03-0.03,0.05-0.06,0.08c-0.03,0.02-0.06,0.03-0.1,0.03h-0.36l1.36-3.4h0.47L38.94,50.88z M36.71,49.62h1.27l-0.53-1.38
			c-0.04-0.09-0.07-0.19-0.1-0.32c-0.02,0.06-0.04,0.12-0.05,0.18c-0.02,0.05-0.03,0.1-0.05,0.14L36.71,49.62z"/>
	</g>
	<g>
		<path class="st22" d="M31.67,19.06c0,1.55-1.26,2.8-2.8,2.8c-1.55,0-2.81-1.26-2.81-2.8c0-1.55,1.26-2.81,2.81-2.81
			C30.42,16.25,31.67,17.51,31.67,19.06"/>
		<polygon class="st23" points="27.43,15.72 32.53,19.62 26.58,22.12 		"/>
		<polygon class="st0" points="27.05,21.71 28.92,19.24 31.86,19.66 		"/>
		<polygon class="st0" points="31.93,19.43 28.97,18.97 27.72,16.25 		"/>
		<polygon class="st0" points="27.55,16.32 28.71,19.11 26.89,21.55 		"/>
		<g>
			<path class="st22" d="M29.97,28.79c0.87,1.1,2.52,1.47,3.8,0.46c1.1-0.84,1.45-2.52,0.47-3.79c-0.64-0.82-1.75-1.24-2.81-0.96
				l-1.82-4.26c-0.07-0.14-0.19-0.26-0.42-0.18c-0.15,0.05-0.28,0.23-0.22,0.39l1.82,4.3c-0.13,0.07-0.25,0.16-0.38,0.25
				C29.35,25.85,28.97,27.54,29.97,28.79"/>
			<path class="st22" d="M20.09,15.14c-1.39,0.18-2.55,1.41-2.35,3.03c0.15,1.37,1.42,2.54,3.02,2.35c1.03-0.12,1.97-0.87,2.27-1.91
				l4.59,0.63c0.16,0.01,0.32-0.03,0.37-0.27c0.04-0.15-0.06-0.36-0.23-0.39l-4.63-0.64c0-0.15-0.01-0.3-0.03-0.45
				C22.93,16.13,21.68,14.93,20.09,15.14"/>
			<path class="st22" d="M36.67,13.51c0.54-1.29,0.07-2.92-1.43-3.56c-1.26-0.56-2.91-0.05-3.55,1.42
				c-0.41,0.95-0.24,2.13,0.51,2.93l-2.86,3.64c-0.09,0.13-0.14,0.29,0.05,0.45c0.11,0.11,0.34,0.13,0.45,0l2.89-3.67
				c0.13,0.08,0.26,0.15,0.4,0.21C34.38,15.47,36.05,14.99,36.67,13.51"/>
			<path class="st24" d="M27.08,9.04c-3.13,1.89-5.69,4-7.06,5.69c1.46-1.49,3.64-3.19,6.22-4.75c2.65-1.65,5.42-2.71,7.52-3.16
				c0.81-0.18,1.54-0.27,2.09-0.21c0.78,0.08,0.96,0.47,1,0.58c0.24,0.6-0.23,1.48-0.9,2.31c1.47-1.51,2.2-2.79,1.84-3.51
				C37.06,4.53,32.26,5.9,27.08,9.04"/>
			<path class="st24" d="M38.09,23.11c0.07-3.66-0.35-6.95-1.04-9c0.49,2.03,0.76,4.79,0.7,7.79c-0.02,3.12-0.61,6.03-1.34,8.05
				c-0.28,0.78-0.59,1.44-0.94,1.88c-0.48,0.61-0.91,0.56-1.02,0.54c-0.64-0.12-1.13-0.99-1.47-2c0.49,2.05,1.18,3.35,1.99,3.43
				C36.57,33.95,37.97,29.16,38.09,23.11"/>
			<path class="st24" d="M20.97,25.13c3.14,1.89,6.19,3.17,8.32,3.59c-2-0.59-4.52-1.73-7.1-3.29c-2.7-1.57-4.92-3.54-6.3-5.18
				c-0.53-0.63-0.96-1.23-1.16-1.75c-0.29-0.73-0.03-1.07,0.04-1.15c0.42-0.49,1.42-0.49,2.47-0.28c-2.02-0.6-3.49-0.65-3.96,0.01
				C12.34,18.41,15.79,22.01,20.97,25.13"/>
		</g>
	</g>
</g>
</svg>
