<?xml version="1.0" encoding="utf-8"?>
<!-- Generator: Adobe Illustrator 24.0.2, SVG Export Plug-In . SVG Version: 6.00 Build 0)  -->
<svg version="1.1" id="Capa_1" xmlns="http://www.w3.org/2000/svg" xmlns:xlink="http://www.w3.org/1999/xlink" x="0px" y="0px"
	 viewBox="0 0 52.77 52.77" style="enable-background:new 0 0 52.77 52.77;" xml:space="preserve">
<style type="text/css">
	.st0{fill:#FFFFFF;}
	.st1{fill:#F08224;}
	.st2{fill:#020203;}
	.st3{fill:#789C4A;}
	.st4{fill:#853236;}
	.st5{fill:#BC8D47;}
	.st6{fill:#FF4713;}
	.st7{fill:#F09F54;}
	.st8{fill:none;stroke:#F09F54;stroke-width:0.7594;stroke-miterlimit:10;}
	.st9{fill:#EA8130;}
	.st10{fill:#3E7895;}
	.st11{fill:#B6CED7;}
	.st12{fill:#231F20;}
	.st13{fill:#065C7B;}
	.st14{fill:#00AF9A;}
	.st15{fill:#0083C1;}
	.st16{fill:#7B868C;}
	.st17{fill:#BAC0C3;}
	.st18{fill:#0B9691;}
	.st19{fill:#6BDAD5;}
	.st20{fill:#62C0BE;}
	.st21{fill:#009490;}
	.st22{fill:#036784;}
	.st23{fill:#82AEBD;}
	.st24{fill:#B0CCD9;}
	.st25{fill:#CE0E2D;}
	.st26{fill:#29787B;}
	.st27{fill:#D11317;}
</style>
<g>
	<g>
		<rect class="st0" width="52.77" height="52.77"/>
	</g>
	<g>
		<path class="st16" d="M29.33,33.84l2.01-4.23C31.24,32.06,31.24,32.06,29.33,33.84 M30.1,33.31l4.13-2.2
			C32.69,33.03,32.69,33.03,30.1,33.31 M29.67,33.54l4.66-0.37C32.15,34.32,32.15,34.32,29.67,33.54 M35.28,30.93l-0.11-4.68
			C36.19,28.48,36.19,28.48,35.28,30.93 M40.26,19.02l-3.93-2.55C38.76,16.89,38.76,16.89,40.26,19.02 M39.25,24.62l0.58-4.65
			C40.51,22.33,40.51,22.33,39.25,24.62 M39.23,25.55l-2.3-4.08C38.89,22.96,38.89,22.96,39.23,25.55 M35.73,30.11l2.7-3.82
			C37.92,28.69,37.92,28.69,35.73,30.11 M35.45,30.51l4-2.43C38.02,30.08,38.02,30.08,35.45,30.51 M39.19,25.1l2.38-4.03
			C41.25,23.51,41.25,23.51,39.19,25.1 M40.02,18.65l0.24-4.67C41.11,16.28,41.11,16.28,40.02,18.65 M39.85,18.19l-1.64-4.38
			C39.91,15.59,39.91,15.59,39.85,18.19 M37.65,12.42l-1.98-4.24C37.5,9.82,37.5,9.82,37.65,12.42 M37.28,12.1L33.77,9
			C36.11,9.77,36.11,9.77,37.28,12.1 M38.04,12.63l-4.66-0.4C35.71,11.46,35.71,11.46,38.04,12.63 M33.35,8.17l-4.31,1.82
			C30.75,8.22,30.75,8.22,33.35,8.17 M32.43,8.05l-4.55-1.1C30.31,6.54,30.31,6.54,32.43,8.05 M32.91,8.16l-3.73-2.81
			C31.56,5.93,31.56,5.93,32.91,8.16"/>
		<path class="st16" d="M23.44,33.84l-2.01-4.23C21.53,32.06,21.53,32.06,23.44,33.84 M22.67,33.31l-4.13-2.2
			C20.08,33.03,20.08,33.03,22.67,33.31 M23.1,33.54l-4.66-0.37C20.61,34.32,20.61,34.32,23.1,33.54 M17.49,30.93l0.11-4.68
			C16.57,28.48,16.57,28.48,17.49,30.93 M12.5,19.02l3.93-2.55C14.01,16.89,14.01,16.89,12.5,19.02 M13.52,24.62l-0.58-4.65
			C12.26,22.33,12.26,22.33,13.52,24.62 M13.54,25.55l2.3-4.08C13.88,22.96,13.88,22.96,13.54,25.55 M17.04,30.11l-2.7-3.82
			C14.85,28.69,14.85,28.69,17.04,30.11 M17.32,30.51l-3.99-2.43C14.75,30.08,14.75,30.08,17.32,30.51 M13.58,25.1l-2.38-4.03
			C11.51,23.51,11.51,23.51,13.58,25.1 M12.75,18.65l-0.24-4.67C11.66,16.28,11.66,16.28,12.75,18.65 M12.92,18.19l1.64-4.38
			C12.86,15.59,12.86,15.59,12.92,18.19 M15.12,12.42l1.98-4.24C15.27,9.82,15.27,9.82,15.12,12.42 M15.49,12.1L18.99,9
			C16.66,9.77,16.66,9.77,15.49,12.1 M14.73,12.63l4.66-0.4C17.06,11.46,17.06,11.46,14.73,12.63 M19.41,8.17l4.31,1.82
			C22.02,8.22,22.02,8.22,19.41,8.17 M20.34,8.05l4.55-1.1C22.46,6.54,22.46,6.54,20.34,8.05 M19.86,8.16l3.74-2.81
			C21.21,5.93,21.21,5.93,19.86,8.16"/>
		<path class="st12" d="M20.63,20.6v-1.06v-0.88c0-0.15-0.03-0.26-0.09-0.34c-0.06-0.08-0.14-0.14-0.25-0.16
			c-0.11-0.02-0.23-0.04-0.37-0.04c-0.05,0-0.07-0.02-0.07-0.05C19.85,18.03,19.9,18,20,18l1.02,0.03h2.21
			c0.19,0,0.32-0.01,0.37-0.03c0.06-0.03,0.11-0.05,0.15-0.07c0.04,0,0.05,0.03,0.05,0.08c0,0.01-0.01,0.06-0.02,0.13
			c-0.02,0.08-0.03,0.17-0.05,0.29l-0.04,0.6c-0.01,0.06-0.04,0.1-0.07,0.1c-0.04,0-0.06-0.04-0.06-0.11c0-0.11-0.02-0.21-0.07-0.3
			c-0.05-0.1-0.12-0.17-0.22-0.23c-0.1-0.06-0.23-0.09-0.4-0.09l-1.38-0.03c-0.05,0-0.08,0.03-0.08,0.1v2.48
			c0,0.05,0.02,0.08,0.06,0.08h1.15H23c0.2,0,0.34-0.04,0.39-0.13c0.06-0.09,0.1-0.14,0.12-0.14c0.03,0,0.04,0.02,0.04,0.07
			c0,0.01-0.01,0.06-0.03,0.15c-0.02,0.1-0.03,0.22-0.04,0.37l-0.04,0.59c0,0.11-0.02,0.16-0.06,0.16c-0.04,0-0.06-0.03-0.06-0.08
			c-0.01-0.05-0.01-0.1-0.01-0.14c0-0.05-0.02-0.11-0.04-0.18c-0.02-0.06-0.08-0.13-0.16-0.2c-0.08-0.06-0.17-0.11-0.26-0.12
			c-0.09-0.01-0.27-0.02-0.55-0.03c-0.27-0.01-0.48-0.01-0.61-0.01h-0.24c-0.04,0-0.06,0.02-0.06,0.08v0.76c0,0.39,0,0.76,0.01,1.1
			c0,0.35,0.02,0.61,0.04,0.8c0.02,0.19,0.05,0.32,0.1,0.39c0.05,0.08,0.13,0.12,0.25,0.14l0.4,0.03c0.03,0,0.05,0.02,0.08,0.06
			c0,0.05-0.05,0.07-0.15,0.07c-0.27,0-0.49,0-0.66-0.01c-0.17,0-0.32-0.01-0.44-0.02l-0.88,0.03c-0.1,0-0.14-0.02-0.14-0.07
			c0.02-0.04,0.05-0.06,0.07-0.06l0.27-0.03c0.08-0.02,0.14-0.07,0.18-0.15c0.04-0.08,0.07-0.2,0.09-0.34
			c0.02-0.14,0.03-0.39,0.04-0.75c0.01-0.36,0.01-0.75,0.01-1.19V20.6z"/>
		<path class="st12" d="M26.26,21.29v2.89c0,0.23,0.01,0.44,0.03,0.62c0.03,0.18,0.07,0.33,0.15,0.44c0.08,0.11,0.29,0.22,0.63,0.33
			c0.34,0.1,0.88,0.15,1.6,0.15c0.63,0,1.22-0.11,1.77-0.32c0.54-0.21,1-0.5,1.36-0.86c0.37-0.37,0.64-0.84,0.84-1.43
			c0.19-0.59,0.29-1.19,0.29-1.81c0-0.76-0.12-1.42-0.37-1.97c-0.25-0.55-0.61-1.07-1.07-1.55c-0.46-0.49-1.05-0.83-1.76-1.03
			c-0.71-0.2-1.53-0.3-2.44-0.3c-0.13,0-0.3,0.01-0.5,0.03c-0.2,0.01-0.34,0.04-0.41,0.08c-0.08,0.03-0.12,0.12-0.12,0.25v2.83
			V21.29z M25.14,19.85v-1.57v-1.31c0-0.22-0.04-0.39-0.13-0.51c-0.09-0.12-0.22-0.2-0.38-0.24c-0.17-0.04-0.35-0.05-0.55-0.05
			c-0.08,0-0.11-0.03-0.11-0.08c0-0.07,0.07-0.11,0.21-0.11l1.5,0.04c0.25,0,0.54-0.01,0.87-0.01c0.33-0.01,0.64-0.02,0.93-0.03
			c1.21,0,2.24,0.07,3.06,0.22c0.82,0.15,1.51,0.5,2.04,1.05c0.54,0.56,0.93,1.11,1.16,1.68c0.24,0.56,0.36,1.21,0.36,1.95
			c0,0.78-0.13,1.49-0.4,2.13c-0.27,0.64-0.61,1.17-1.01,1.6c-0.4,0.43-0.93,0.79-1.58,1.1c-0.65,0.31-1.47,0.46-2.48,0.46
			c-0.46,0-0.94-0.02-1.44-0.06c-0.5-0.03-1-0.07-1.52-0.11l-1.3,0.04c-0.14,0-0.21-0.03-0.21-0.1c0.03-0.06,0.07-0.08,0.1-0.08
			l0.4-0.05c0.12-0.03,0.2-0.1,0.26-0.23c0.06-0.12,0.1-0.29,0.13-0.51c0.03-0.21,0.04-0.59,0.05-1.12
			c0.01-0.53,0.01-1.12,0.01-1.77V19.85z"/>
		<path class="st17" d="M31.34,30.17l-2.01,4.23C29.42,31.93,29.42,31.93,31.34,30.17 M30.09,33.87c1.54-1.91,1.54-1.91,4.13-2.2
			L30.09,33.87z M34.33,33.73l-4.66,0.37C30.98,33.42,32.71,33.23,34.33,33.73 M35.17,26.8l0.11,4.68
			C34.41,29.57,34.11,29.64,35.17,26.8 M39.45,28.64l-4,2.43C36.88,29.07,36.88,29.07,39.45,28.64 M40.26,19.58
			c-2.42-0.42-2.42-0.42-3.93-2.55L40.26,19.58z M39.25,25.17c-0.68-2.36-0.68-2.36,0.58-4.64L39.25,25.17z M36.93,22.02l2.3,4.08
			C37.28,24.61,37.28,24.61,36.93,22.02 M35.73,30.67c0.51-2.4,0.51-2.4,2.7-3.82L35.73,30.67z M41.57,21.63l-2.38,4.02
			C39.51,23.22,39.51,23.22,41.57,21.63 M40.02,19.21c-0.84-2.31-0.84-2.31,0.24-4.67L40.02,19.21z M39.85,18.75
			c-1.7-1.78-1.7-1.78-1.64-4.38L39.85,18.75z M35.67,8.74l1.98,4.24C35.81,11.34,35.81,11.34,35.67,8.74 M33.77,9.56l3.5,3.1
			C34.95,11.89,34.95,11.89,33.77,9.56 M33.37,12.79l4.66,0.4C35.7,13.96,35.7,13.96,33.37,12.79 M29.05,10.55l4.31-1.82
			C31.65,10.5,31.65,10.5,29.05,10.55 M27.89,7.51l4.55,1.1C30.01,9.02,30.01,9.02,27.89,7.51 M29.17,5.9l3.73,2.81
			C30.53,8.13,30.53,8.13,29.17,5.9"/>
		<path class="st17" d="M21.43,30.17l2.01,4.23C23.34,31.93,23.34,31.93,21.43,30.17 M22.67,33.87c-1.54-1.91-1.54-1.91-4.13-2.2
			L22.67,33.87z M18.44,33.73l4.66,0.37C21.79,33.42,20.06,33.23,18.44,33.73 M17.59,26.8l-0.11,4.68
			C18.36,29.57,18.66,29.64,17.59,26.8 M13.32,28.64l4,2.43C15.89,29.07,15.89,29.07,13.32,28.64 M12.51,19.58
			c2.42-0.42,2.42-0.42,3.93-2.55L12.51,19.58z M13.52,25.17c0.68-2.36,0.68-2.36-0.58-4.64L13.52,25.17z M15.83,22.02l-2.3,4.08
			C15.49,24.61,15.49,24.61,15.83,22.02 M17.04,30.67c-0.51-2.4-0.51-2.4-2.69-3.82L17.04,30.67z M11.2,21.63l2.38,4.02
			C13.26,23.22,13.26,23.22,11.2,21.63 M12.75,19.21c0.84-2.31,0.84-2.31-0.24-4.67L12.75,19.21z M12.92,18.75
			c1.7-1.78,1.7-1.78,1.64-4.38L12.92,18.75z M17.1,8.74l-1.98,4.24C16.95,11.34,16.95,11.34,17.1,8.74 M18.99,9.56l-3.5,3.1
			C17.82,11.89,17.82,11.89,18.99,9.56 M19.39,12.79l-4.66,0.4C17.06,13.96,17.06,13.96,19.39,12.79 M23.72,10.55l-4.31-1.82
			C21.11,10.5,21.11,10.5,23.72,10.55 M24.88,7.51l-4.55,1.1C22.75,9.02,22.75,9.02,24.88,7.51 M23.59,5.9l-3.73,2.81
			C22.24,8.13,22.24,8.13,23.59,5.9"/>
	</g>
	<g>
		<path class="st2" d="M13.42,40.75v0.37h-1.63v1.19h1.4v0.37h-1.4v1.46h-0.46v-3.4H13.42z"/>
		<path class="st2" d="M16.49,44.15h-0.36c-0.04,0-0.07-0.01-0.1-0.03c-0.03-0.02-0.04-0.05-0.06-0.08l-0.32-0.82h-1.53l-0.32,0.82
			c-0.01,0.03-0.03,0.05-0.06,0.08c-0.03,0.02-0.06,0.03-0.1,0.03h-0.36l1.36-3.4h0.47L16.49,44.15z M14.26,42.89h1.27L15,41.5
			c-0.04-0.09-0.07-0.19-0.1-0.32c-0.02,0.06-0.04,0.12-0.05,0.18c-0.02,0.05-0.03,0.1-0.05,0.14L14.26,42.89z"/>
		<path class="st2" d="M19.22,43.45c0.03,0,0.05,0.01,0.07,0.03l0.18,0.2c-0.14,0.16-0.31,0.29-0.51,0.38
			c-0.2,0.09-0.44,0.14-0.72,0.14c-0.24,0-0.47-0.04-0.67-0.13c-0.2-0.08-0.37-0.2-0.51-0.36c-0.14-0.15-0.25-0.34-0.33-0.55
			c-0.08-0.21-0.12-0.45-0.12-0.71c0-0.26,0.04-0.49,0.12-0.71c0.08-0.21,0.2-0.4,0.35-0.55c0.15-0.15,0.33-0.27,0.54-0.36
			s0.44-0.13,0.69-0.13c0.25,0,0.47,0.04,0.65,0.12c0.18,0.08,0.34,0.18,0.48,0.32l-0.15,0.21c-0.01,0.02-0.02,0.03-0.04,0.04
			c-0.01,0.01-0.03,0.02-0.06,0.02c-0.02,0-0.04-0.01-0.07-0.02c-0.02-0.02-0.05-0.03-0.08-0.06c-0.03-0.02-0.07-0.05-0.11-0.07
			c-0.04-0.03-0.09-0.05-0.15-0.07c-0.06-0.02-0.13-0.04-0.2-0.06c-0.08-0.01-0.17-0.02-0.27-0.02c-0.18,0-0.35,0.03-0.5,0.09
			c-0.15,0.06-0.28,0.15-0.39,0.27c-0.11,0.12-0.19,0.26-0.25,0.42c-0.06,0.17-0.09,0.35-0.09,0.56c0,0.21,0.03,0.4,0.09,0.57
			c0.06,0.17,0.14,0.31,0.25,0.42c0.1,0.11,0.23,0.2,0.37,0.26c0.14,0.06,0.3,0.09,0.47,0.09c0.1,0,0.19-0.01,0.27-0.02
			c0.08-0.01,0.16-0.03,0.22-0.06c0.07-0.03,0.13-0.06,0.19-0.1c0.06-0.04,0.12-0.09,0.18-0.14C19.17,43.46,19.19,43.45,19.22,43.45
			z"/>
		<path class="st2" d="M21.4,43.79c0.14,0,0.27-0.02,0.38-0.07c0.11-0.05,0.2-0.11,0.28-0.2c0.08-0.09,0.14-0.19,0.18-0.31
			c0.04-0.12,0.06-0.25,0.06-0.39v-2.07h0.46v2.07c0,0.2-0.03,0.38-0.09,0.55c-0.06,0.17-0.15,0.31-0.27,0.44
			c-0.12,0.12-0.26,0.22-0.43,0.29c-0.17,0.07-0.36,0.1-0.56,0.1c-0.21,0-0.4-0.03-0.57-0.1c-0.17-0.07-0.31-0.17-0.43-0.29
			c-0.12-0.12-0.21-0.27-0.27-0.44c-0.06-0.17-0.09-0.35-0.09-0.55v-2.07h0.46v2.06c0,0.14,0.02,0.27,0.06,0.39
			c0.04,0.12,0.1,0.22,0.18,0.31c0.08,0.09,0.17,0.15,0.28,0.2C21.13,43.76,21.26,43.79,21.4,43.79z"/>
		<path class="st2" d="M24,43.76h1.47v0.39h-1.93v-3.4H24V43.76z"/>
		<path class="st2" d="M27.89,40.75v0.39h-1.1v3.01h-0.46v-3.01h-1.1v-0.39H27.89z"/>
		<path class="st2" d="M30.86,44.15H30.5c-0.04,0-0.07-0.01-0.1-0.03c-0.03-0.02-0.04-0.05-0.06-0.08l-0.32-0.82H28.5l-0.32,0.82
			c-0.01,0.03-0.03,0.05-0.06,0.08c-0.03,0.02-0.06,0.03-0.1,0.03h-0.36l1.36-3.4h0.47L30.86,44.15z M28.63,42.89h1.27l-0.53-1.38
			c-0.04-0.09-0.07-0.19-0.1-0.32c-0.02,0.06-0.04,0.12-0.05,0.18c-0.02,0.05-0.03,0.1-0.05,0.14L28.63,42.89z"/>
		<path class="st2" d="M34.23,42.45c0,0.25-0.04,0.49-0.12,0.7c-0.08,0.21-0.19,0.39-0.34,0.54c-0.15,0.15-0.32,0.26-0.53,0.35
			c-0.21,0.08-0.43,0.12-0.68,0.12h-1.27v-3.4h1.27c0.25,0,0.48,0.04,0.68,0.12c0.2,0.08,0.38,0.2,0.53,0.35
			c0.15,0.15,0.26,0.33,0.34,0.54C34.19,41.96,34.23,42.2,34.23,42.45z M33.76,42.45c0-0.21-0.03-0.4-0.09-0.56
			c-0.06-0.16-0.14-0.3-0.24-0.42c-0.1-0.11-0.23-0.2-0.38-0.26c-0.15-0.06-0.31-0.09-0.5-0.09h-0.81v2.66h0.81
			c0.18,0,0.35-0.03,0.5-0.09c0.15-0.06,0.28-0.15,0.38-0.26c0.1-0.11,0.19-0.25,0.24-0.42C33.73,42.85,33.76,42.66,33.76,42.45z"/>
		<path class="st2" d="M38.72,42.45c0,0.25-0.04,0.49-0.12,0.7c-0.08,0.21-0.19,0.39-0.34,0.54c-0.15,0.15-0.32,0.26-0.53,0.35
			c-0.21,0.08-0.43,0.12-0.68,0.12h-1.27v-3.4h1.27c0.25,0,0.48,0.04,0.68,0.12c0.21,0.08,0.38,0.2,0.53,0.35
			c0.15,0.15,0.26,0.33,0.34,0.54C38.68,41.96,38.72,42.2,38.72,42.45z M38.25,42.45c0-0.21-0.03-0.4-0.09-0.56
			c-0.06-0.16-0.14-0.3-0.24-0.42c-0.1-0.11-0.23-0.2-0.38-0.26c-0.15-0.06-0.31-0.09-0.5-0.09h-0.81v2.66h0.81
			c0.18,0,0.35-0.03,0.5-0.09c0.15-0.06,0.28-0.15,0.38-0.26c0.1-0.11,0.19-0.25,0.24-0.42C38.22,42.85,38.25,42.66,38.25,42.45z"/>
		<path class="st2" d="M41.45,40.75v0.37h-1.63v1.13h1.32v0.36h-1.32v1.16h1.63v0.37h-2.1v-3.4H41.45z"/>
		<path class="st2" d="M18.28,48.15c0,0.25-0.04,0.49-0.12,0.7c-0.08,0.21-0.19,0.39-0.34,0.54c-0.15,0.15-0.32,0.26-0.53,0.35
			c-0.21,0.08-0.43,0.12-0.68,0.12h-1.27v-3.4h1.27c0.25,0,0.48,0.04,0.68,0.12c0.21,0.08,0.38,0.2,0.53,0.35
			c0.15,0.15,0.26,0.33,0.34,0.54C18.24,47.66,18.28,47.89,18.28,48.15z M17.8,48.15c0-0.21-0.03-0.4-0.09-0.56
			c-0.06-0.16-0.14-0.3-0.24-0.42c-0.1-0.11-0.23-0.2-0.38-0.26c-0.15-0.06-0.31-0.09-0.5-0.09h-0.81v2.66h0.81
			c0.18,0,0.35-0.03,0.5-0.09c0.15-0.06,0.28-0.15,0.38-0.26c0.1-0.11,0.19-0.25,0.24-0.42C17.77,48.54,17.8,48.36,17.8,48.15z"/>
		<path class="st2" d="M21,46.45v0.37h-1.63v1.13h1.32v0.36h-1.32v1.16H21v0.37h-2.1v-3.4H21z"/>
		<path class="st2" d="M22.17,48.43v1.42h-0.46v-3.4h0.96c0.22,0,0.4,0.02,0.56,0.07s0.29,0.11,0.39,0.19
			c0.1,0.08,0.18,0.18,0.23,0.3c0.05,0.12,0.07,0.25,0.07,0.39c0,0.12-0.02,0.23-0.06,0.34c-0.04,0.1-0.09,0.2-0.17,0.28
			c-0.07,0.08-0.16,0.15-0.26,0.21c-0.1,0.06-0.22,0.1-0.35,0.13c0.06,0.03,0.11,0.08,0.15,0.15l0.99,1.35h-0.41
			c-0.08,0-0.15-0.03-0.19-0.1l-0.88-1.21c-0.03-0.04-0.06-0.07-0.09-0.08c-0.03-0.02-0.08-0.03-0.14-0.03H22.17z M22.17,48.09h0.48
			c0.13,0,0.25-0.02,0.35-0.05c0.1-0.03,0.19-0.08,0.26-0.14s0.12-0.13,0.16-0.21c0.03-0.08,0.05-0.17,0.05-0.27
			c0-0.2-0.07-0.36-0.2-0.46c-0.13-0.1-0.33-0.15-0.6-0.15h-0.5V48.09z"/>
		<path class="st2" d="M26.81,46.45v0.37h-1.63v1.13h1.32v0.36h-1.32v1.16h1.63v0.37h-2.1v-3.4H26.81z"/>
		<path class="st2" d="M29.87,49.14c0.03,0,0.05,0.01,0.07,0.03l0.18,0.2c-0.14,0.16-0.31,0.29-0.51,0.38
			c-0.2,0.09-0.44,0.14-0.72,0.14c-0.24,0-0.47-0.04-0.67-0.13c-0.2-0.08-0.37-0.2-0.51-0.36c-0.14-0.15-0.25-0.34-0.33-0.55
			c-0.08-0.21-0.12-0.45-0.12-0.71s0.04-0.49,0.12-0.71c0.08-0.21,0.2-0.4,0.35-0.55c0.15-0.15,0.33-0.27,0.54-0.36
			s0.44-0.13,0.69-0.13c0.25,0,0.47,0.04,0.65,0.12c0.18,0.08,0.34,0.18,0.48,0.32l-0.15,0.21c-0.01,0.02-0.02,0.03-0.04,0.04
			c-0.01,0.01-0.03,0.02-0.06,0.02c-0.02,0-0.04-0.01-0.07-0.02c-0.02-0.02-0.05-0.03-0.08-0.06c-0.03-0.02-0.07-0.05-0.11-0.07
			c-0.04-0.03-0.09-0.05-0.15-0.07c-0.06-0.02-0.13-0.04-0.2-0.06c-0.08-0.01-0.17-0.02-0.27-0.02c-0.18,0-0.35,0.03-0.5,0.09
			c-0.15,0.06-0.28,0.15-0.39,0.27c-0.11,0.12-0.19,0.26-0.25,0.42c-0.06,0.17-0.09,0.35-0.09,0.56c0,0.21,0.03,0.4,0.09,0.57
			c0.06,0.17,0.14,0.31,0.25,0.42c0.1,0.11,0.23,0.2,0.37,0.26c0.14,0.06,0.3,0.09,0.47,0.09c0.1,0,0.19-0.01,0.27-0.02
			c0.08-0.01,0.16-0.03,0.22-0.06c0.07-0.03,0.13-0.06,0.19-0.1c0.06-0.04,0.12-0.09,0.18-0.14C29.82,49.16,29.85,49.14,29.87,49.14
			z"/>
		<path class="st2" d="M33.48,49.85h-0.46V48.3h-1.83v1.55h-0.46v-3.4h0.46v1.52h1.83v-1.52h0.46V49.85z"/>
		<path class="st2" d="M37.47,48.15c0,0.25-0.04,0.49-0.12,0.7c-0.08,0.21-0.19,0.4-0.34,0.55c-0.15,0.15-0.32,0.27-0.53,0.36
			s-0.43,0.13-0.68,0.13c-0.25,0-0.48-0.04-0.68-0.13s-0.38-0.2-0.53-0.36c-0.15-0.15-0.26-0.34-0.34-0.55
			c-0.08-0.21-0.12-0.45-0.12-0.7c0-0.25,0.04-0.49,0.12-0.7c0.08-0.21,0.19-0.4,0.34-0.55c0.15-0.15,0.32-0.27,0.53-0.36
			c0.21-0.09,0.43-0.13,0.68-0.13c0.25,0,0.48,0.04,0.68,0.13c0.21,0.09,0.38,0.2,0.53,0.36c0.15,0.15,0.26,0.34,0.34,0.55
			C37.43,47.66,37.47,47.89,37.47,48.15z M37,48.15c0-0.21-0.03-0.4-0.09-0.56c-0.06-0.17-0.14-0.31-0.24-0.42
			c-0.1-0.11-0.23-0.2-0.38-0.26c-0.15-0.06-0.31-0.09-0.5-0.09c-0.18,0-0.35,0.03-0.5,0.09c-0.15,0.06-0.28,0.15-0.38,0.26
			c-0.11,0.11-0.19,0.25-0.24,0.42c-0.06,0.17-0.09,0.35-0.09,0.56c0,0.21,0.03,0.4,0.09,0.56c0.06,0.17,0.14,0.31,0.24,0.42
			c0.1,0.11,0.23,0.2,0.38,0.26c0.15,0.06,0.31,0.09,0.5,0.09c0.18,0,0.35-0.03,0.5-0.09c0.15-0.06,0.28-0.15,0.38-0.26
			c0.1-0.11,0.19-0.25,0.24-0.42S37,48.36,37,48.15z"/>
	</g>
</g>
</svg>
