<?xml version="1.0" encoding="utf-8"?>
<!-- Generator: Adobe Illustrator 24.0.2, SVG Export Plug-In . SVG Version: 6.00 Build 0)  -->
<svg version="1.1" id="Capa_1" xmlns="http://www.w3.org/2000/svg" xmlns:xlink="http://www.w3.org/1999/xlink" x="0px" y="0px"
	 viewBox="0 0 52.77 52.77" style="enable-background:new 0 0 52.77 52.77;" xml:space="preserve">
<style type="text/css">
	.st0{fill:#FFFFFF;}
	.st1{fill:#F08224;}
	.st2{fill:#020203;}
	.st3{fill:#789C4A;}
	.st4{fill:#853236;}
	.st5{fill:#BC8D47;}
	.st6{fill:#FF4713;}
	.st7{fill:#F09F54;}
	.st8{fill:none;stroke:#F09F54;stroke-width:0.7594;stroke-miterlimit:10;}
	.st9{fill:#EA8130;}
	.st10{fill:#3E7895;}
	.st11{fill:#B6CED7;}
	.st12{fill:#231F20;}
	.st13{fill:#065C7B;}
	.st14{fill:#00AF9A;}
	.st15{fill:#0083C1;}
	.st16{fill:#7B868C;}
	.st17{fill:#BAC0C3;}
	.st18{fill:#0B9691;}
	.st19{fill:#6BDAD5;}
	.st20{fill:#62C0BE;}
	.st21{fill:#009490;}
	.st22{fill:#036784;}
	.st23{fill:#82AEBD;}
	.st24{fill:#B0CCD9;}
	.st25{fill:#CE0E2D;}
	.st26{fill:#29787B;}
	.st27{fill:#D11317;}
</style>
<g>
	<g>
		<rect class="st0" width="52.77" height="52.77"/>
	</g>
	<g>
		<path class="st4" d="M37.52,13.04c0-0.74-0.47-1.35-1.13-1.58c-1.45-0.97-5.32-2.92-10.32-0.47c-6.38,3.13-6.2,10.45-3.38,14.08
			c2.82,3.63,8.83,5.51,14.14,2l0-0.01c0.51-0.29,0.85-0.83,0.85-1.45c0-0.92-0.75-1.67-1.67-1.67c-0.46,0-0.87,0.19-1.18,0.48
			c-0.72,0.41-2.82,1.56-4.18,1.89c-2.35,0.57-4.53-0.45-5.78-1.38c-1.31-0.96-2.64-2.99-2.75-5.47c-0.11-2.47,1.84-5.12,3.45-6.13
			c3.32-2.08,7.07-0.87,9.24,1c0.01,0.01,0.02,0.01,0.03,0.02c0.28,0.22,0.63,0.35,1.02,0.35C36.78,14.71,37.52,13.96,37.52,13.04
			 M28.76,23.19c2.28,0,4.13-1.85,4.13-4.13c0-2.28-1.85-4.13-4.13-4.13c-2.28,0-4.13,1.85-4.13,4.13
			C24.63,21.34,26.48,23.19,28.76,23.19"/>
		<path class="st5" d="M17.56,13.18c0.22-0.54-0.23-0.09-0.23-0.09s-2.38,3.03-2.39,7.66c-0.01,7.13,5.88,13.08,12.53,13.08
			c6.66,0,9.61-4.26,9.92-4.6c0.31-0.34,0.39-0.97-0.31-0.44c-5.32,4.04-9.98,3.76-14.68,1.03c-4.69-2.72-6.1-8.29-6.1-11.08
			C16.31,15.96,17.34,13.72,17.56,13.18 M37.59,8.41c-0.63-0.65-3.86-2.43-7.86-2.43c-4.01,0-6.94,1.69-8.79,3.6
			c-1.85,1.91-3.47,5.16-3.47,8.89c0,3.72,1.96,8.3,6.09,10.89c0,0,0.24,0.03,0.06-0.16c-0.18-0.19-2.53-1.79-3.68-6.01
			c-1.3-4.79,0.6-9.47,2.05-11c0.89-0.94,2.63-3.13,6.21-4.08c3.58-0.95,7.08-0.15,9.19,0.73C37.39,8.83,38.21,9.06,37.59,8.41"/>
	</g>
	<g>
		<path class="st2" d="M13.48,41.84v0.37h-1.63v1.19h1.4v0.37h-1.4v1.46h-0.46v-3.4H13.48z"/>
		<path class="st2" d="M16.56,45.24H16.2c-0.04,0-0.07-0.01-0.1-0.03c-0.03-0.02-0.04-0.05-0.06-0.08l-0.32-0.82H14.2l-0.32,0.82
			c-0.01,0.03-0.03,0.05-0.06,0.08c-0.03,0.02-0.06,0.03-0.1,0.03h-0.36l1.36-3.4h0.47L16.56,45.24z M14.33,43.98h1.27l-0.53-1.38
			c-0.04-0.09-0.07-0.19-0.1-0.32c-0.02,0.06-0.04,0.12-0.05,0.18c-0.02,0.05-0.03,0.1-0.05,0.14L14.33,43.98z"/>
		<path class="st2" d="M19.28,44.54c0.03,0,0.05,0.01,0.07,0.03l0.18,0.2c-0.14,0.16-0.31,0.29-0.51,0.38
			c-0.2,0.09-0.44,0.14-0.72,0.14c-0.24,0-0.47-0.04-0.67-0.13c-0.2-0.08-0.37-0.2-0.51-0.36c-0.14-0.15-0.25-0.34-0.33-0.55
			c-0.08-0.21-0.12-0.45-0.12-0.71c0-0.26,0.04-0.49,0.12-0.71c0.08-0.21,0.2-0.4,0.35-0.55c0.15-0.15,0.33-0.27,0.54-0.36
			s0.44-0.13,0.69-0.13c0.25,0,0.47,0.04,0.65,0.12c0.18,0.08,0.34,0.18,0.48,0.32l-0.15,0.21c-0.01,0.02-0.02,0.03-0.04,0.04
			c-0.01,0.01-0.03,0.02-0.06,0.02c-0.02,0-0.04-0.01-0.07-0.02c-0.02-0.02-0.05-0.03-0.08-0.06c-0.03-0.02-0.07-0.05-0.11-0.07
			c-0.04-0.03-0.09-0.05-0.15-0.07c-0.06-0.02-0.13-0.04-0.2-0.06c-0.08-0.01-0.17-0.02-0.27-0.02c-0.18,0-0.35,0.03-0.5,0.09
			c-0.15,0.06-0.28,0.15-0.39,0.27c-0.11,0.12-0.19,0.26-0.25,0.42c-0.06,0.17-0.09,0.35-0.09,0.56c0,0.21,0.03,0.4,0.09,0.57
			c0.06,0.17,0.14,0.31,0.25,0.42c0.1,0.11,0.23,0.2,0.37,0.26c0.14,0.06,0.3,0.09,0.47,0.09c0.1,0,0.19-0.01,0.27-0.02
			c0.08-0.01,0.16-0.03,0.22-0.06c0.07-0.03,0.13-0.06,0.19-0.1c0.06-0.04,0.12-0.09,0.18-0.14C19.23,44.55,19.26,44.54,19.28,44.54
			z"/>
		<path class="st2" d="M21.46,44.87c0.14,0,0.27-0.02,0.38-0.07c0.11-0.05,0.2-0.11,0.28-0.2c0.08-0.09,0.14-0.19,0.18-0.31
			c0.04-0.12,0.06-0.25,0.06-0.39v-2.07h0.46v2.07c0,0.2-0.03,0.38-0.09,0.55c-0.06,0.17-0.15,0.31-0.27,0.44
			c-0.12,0.12-0.26,0.22-0.43,0.29c-0.17,0.07-0.36,0.1-0.56,0.1c-0.21,0-0.4-0.03-0.57-0.1c-0.17-0.07-0.31-0.17-0.43-0.29
			c-0.12-0.12-0.21-0.27-0.27-0.44c-0.06-0.17-0.09-0.35-0.09-0.55v-2.07h0.46v2.06c0,0.14,0.02,0.27,0.06,0.39
			c0.04,0.12,0.1,0.22,0.18,0.31c0.08,0.09,0.17,0.15,0.28,0.2C21.19,44.85,21.32,44.87,21.46,44.87z"/>
		<path class="st2" d="M24.06,44.85h1.47v0.39H23.6v-3.4h0.46V44.85z"/>
		<path class="st2" d="M27.95,41.84v0.39h-1.1v3.01h-0.46v-3.01h-1.1v-0.39H27.95z"/>
		<path class="st2" d="M30.92,45.24h-0.36c-0.04,0-0.07-0.01-0.1-0.03c-0.03-0.02-0.04-0.05-0.06-0.08l-0.32-0.82h-1.53l-0.32,0.82
			c-0.01,0.03-0.03,0.05-0.06,0.08c-0.03,0.02-0.06,0.03-0.1,0.03h-0.36l1.36-3.4h0.47L30.92,45.24z M28.69,43.98h1.27l-0.53-1.38
			c-0.04-0.09-0.07-0.19-0.1-0.32c-0.02,0.06-0.04,0.12-0.05,0.18c-0.02,0.05-0.03,0.1-0.05,0.14L28.69,43.98z"/>
		<path class="st2" d="M34.3,43.54c0,0.25-0.04,0.49-0.12,0.7c-0.08,0.21-0.19,0.39-0.34,0.54c-0.15,0.15-0.32,0.26-0.53,0.35
			c-0.21,0.08-0.43,0.12-0.68,0.12h-1.27v-3.4h1.27c0.25,0,0.48,0.04,0.68,0.12c0.2,0.08,0.38,0.2,0.53,0.35
			c0.15,0.15,0.26,0.33,0.34,0.54C34.26,43.05,34.3,43.29,34.3,43.54z M33.82,43.54c0-0.21-0.03-0.4-0.09-0.56
			c-0.06-0.16-0.14-0.3-0.24-0.42c-0.1-0.11-0.23-0.2-0.38-0.26c-0.15-0.06-0.31-0.09-0.5-0.09h-0.81v2.66h0.81
			c0.18,0,0.35-0.03,0.5-0.09c0.15-0.06,0.28-0.15,0.38-0.26c0.1-0.11,0.19-0.25,0.24-0.42C33.8,43.93,33.82,43.75,33.82,43.54z"/>
		<path class="st2" d="M38.79,43.54c0,0.25-0.04,0.49-0.12,0.7c-0.08,0.21-0.19,0.39-0.34,0.54c-0.15,0.15-0.32,0.26-0.53,0.35
			c-0.21,0.08-0.43,0.12-0.68,0.12h-1.27v-3.4h1.27c0.25,0,0.48,0.04,0.68,0.12c0.21,0.08,0.38,0.2,0.53,0.35
			c0.15,0.15,0.26,0.33,0.34,0.54C38.75,43.05,38.79,43.29,38.79,43.54z M38.31,43.54c0-0.21-0.03-0.4-0.09-0.56
			c-0.06-0.16-0.14-0.3-0.24-0.42c-0.1-0.11-0.23-0.2-0.38-0.26c-0.15-0.06-0.31-0.09-0.5-0.09H36.3v2.66h0.81
			c0.18,0,0.35-0.03,0.5-0.09c0.15-0.06,0.28-0.15,0.38-0.26c0.1-0.11,0.19-0.25,0.24-0.42C38.29,43.93,38.31,43.75,38.31,43.54z"/>
		<path class="st2" d="M41.51,41.84v0.37h-1.63v1.13h1.32v0.36h-1.32v1.16h1.63v0.37h-2.1v-3.4H41.51z"/>
		<path class="st2" d="M9.33,50.23c0.03,0,0.05,0.01,0.07,0.03l0.18,0.2c-0.14,0.16-0.31,0.29-0.51,0.38
			c-0.2,0.09-0.44,0.14-0.72,0.14c-0.25,0-0.47-0.04-0.67-0.13c-0.2-0.08-0.37-0.2-0.51-0.36c-0.14-0.15-0.25-0.34-0.33-0.55
			c-0.08-0.21-0.12-0.45-0.12-0.71s0.04-0.49,0.13-0.71c0.08-0.21,0.2-0.4,0.35-0.55s0.33-0.27,0.54-0.36
			c0.21-0.08,0.44-0.13,0.69-0.13c0.25,0,0.47,0.04,0.65,0.12s0.34,0.18,0.48,0.32l-0.15,0.21c-0.01,0.02-0.02,0.03-0.04,0.04
			c-0.01,0.01-0.04,0.02-0.06,0.02c-0.02,0-0.04-0.01-0.06-0.02c-0.02-0.02-0.05-0.03-0.08-0.06c-0.03-0.02-0.07-0.05-0.11-0.07
			c-0.04-0.03-0.09-0.05-0.15-0.07c-0.06-0.02-0.13-0.04-0.2-0.06c-0.08-0.01-0.17-0.02-0.27-0.02c-0.18,0-0.35,0.03-0.5,0.09
			c-0.15,0.06-0.28,0.15-0.39,0.27c-0.11,0.12-0.19,0.26-0.25,0.42c-0.06,0.17-0.09,0.35-0.09,0.56c0,0.21,0.03,0.4,0.09,0.57
			c0.06,0.17,0.14,0.31,0.25,0.42c0.11,0.11,0.23,0.2,0.37,0.26c0.14,0.06,0.3,0.09,0.46,0.09c0.1,0,0.19-0.01,0.27-0.02
			c0.08-0.01,0.15-0.03,0.22-0.06c0.07-0.03,0.13-0.06,0.19-0.1c0.06-0.04,0.12-0.09,0.18-0.14C9.28,50.24,9.31,50.23,9.33,50.23z"
			/>
		<path class="st2" d="M11.93,48.07c-0.01,0.02-0.03,0.04-0.04,0.05c-0.02,0.01-0.04,0.02-0.06,0.02c-0.03,0-0.06-0.01-0.09-0.04
			c-0.04-0.03-0.08-0.06-0.14-0.09c-0.05-0.03-0.12-0.06-0.2-0.09c-0.08-0.03-0.17-0.04-0.28-0.04c-0.1,0-0.19,0.01-0.27,0.04
			c-0.08,0.03-0.14,0.07-0.2,0.11c-0.05,0.05-0.09,0.1-0.12,0.17c-0.03,0.06-0.04,0.13-0.04,0.21c0,0.1,0.02,0.17,0.07,0.24
			c0.05,0.06,0.11,0.12,0.19,0.16c0.08,0.04,0.16,0.08,0.26,0.12c0.1,0.03,0.2,0.07,0.3,0.1c0.1,0.03,0.2,0.07,0.3,0.12
			c0.1,0.04,0.18,0.1,0.26,0.16c0.08,0.07,0.14,0.15,0.19,0.24c0.05,0.1,0.07,0.22,0.07,0.36c0,0.15-0.03,0.29-0.08,0.42
			c-0.05,0.13-0.13,0.24-0.22,0.34c-0.1,0.1-0.22,0.17-0.36,0.23c-0.14,0.06-0.3,0.08-0.48,0.08c-0.22,0-0.42-0.04-0.6-0.12
			c-0.18-0.08-0.34-0.19-0.46-0.32l0.13-0.22c0.01-0.02,0.03-0.03,0.05-0.04c0.02-0.01,0.04-0.02,0.06-0.02
			c0.03,0,0.07,0.02,0.11,0.05c0.04,0.04,0.1,0.07,0.16,0.12c0.06,0.04,0.14,0.08,0.23,0.12c0.09,0.04,0.2,0.05,0.33,0.05
			c0.11,0,0.21-0.02,0.29-0.05c0.09-0.03,0.16-0.07,0.22-0.13c0.06-0.05,0.1-0.12,0.14-0.2c0.03-0.08,0.05-0.16,0.05-0.25
			c0-0.1-0.02-0.19-0.07-0.25c-0.05-0.07-0.11-0.12-0.18-0.17c-0.08-0.04-0.16-0.08-0.26-0.11c-0.1-0.03-0.2-0.06-0.3-0.1
			c-0.1-0.03-0.2-0.07-0.3-0.11s-0.18-0.1-0.26-0.17c-0.08-0.07-0.14-0.15-0.18-0.25c-0.05-0.1-0.07-0.23-0.07-0.38
			c0-0.12,0.02-0.24,0.07-0.35c0.05-0.11,0.11-0.21,0.2-0.3c0.09-0.09,0.2-0.16,0.33-0.21c0.13-0.05,0.28-0.08,0.45-0.08
			c0.19,0,0.36,0.03,0.52,0.09c0.16,0.06,0.29,0.15,0.41,0.26L11.93,48.07z"/>
		<path class="st2" d="M12.5,50.67c0-0.04,0.01-0.08,0.02-0.12c0.01-0.04,0.04-0.07,0.06-0.1c0.03-0.03,0.06-0.05,0.09-0.06
			c0.04-0.02,0.08-0.02,0.12-0.02c0.04,0,0.08,0.01,0.12,0.02c0.04,0.02,0.07,0.04,0.1,0.06c0.03,0.03,0.05,0.06,0.06,0.1
			c0.01,0.04,0.02,0.08,0.02,0.12c0,0.04-0.01,0.08-0.02,0.12c-0.02,0.04-0.04,0.07-0.06,0.09c-0.03,0.03-0.06,0.05-0.1,0.06
			c-0.04,0.02-0.08,0.02-0.12,0.02c-0.04,0-0.08-0.01-0.12-0.02c-0.04-0.01-0.07-0.04-0.09-0.06c-0.03-0.03-0.05-0.06-0.06-0.09
			C12.51,50.76,12.5,50.72,12.5,50.67z"/>
		<path class="st2" d="M16.72,47.53v0.37h-1.63v1.13h1.32v0.36h-1.32v1.16h1.63v0.37h-2.1v-3.4H16.72z"/>
		<path class="st2" d="M19.78,50.23c0.03,0,0.05,0.01,0.07,0.03l0.18,0.2c-0.14,0.16-0.31,0.29-0.51,0.38
			c-0.2,0.09-0.44,0.14-0.72,0.14c-0.24,0-0.47-0.04-0.67-0.13c-0.2-0.08-0.37-0.2-0.51-0.36c-0.14-0.15-0.25-0.34-0.33-0.55
			c-0.08-0.21-0.12-0.45-0.12-0.71s0.04-0.49,0.12-0.71c0.08-0.21,0.2-0.4,0.35-0.55c0.15-0.15,0.33-0.27,0.54-0.36
			s0.44-0.13,0.69-0.13c0.25,0,0.47,0.04,0.65,0.12c0.18,0.08,0.34,0.18,0.48,0.32l-0.15,0.21c-0.01,0.02-0.02,0.03-0.04,0.04
			c-0.01,0.01-0.03,0.02-0.06,0.02c-0.02,0-0.04-0.01-0.07-0.02c-0.02-0.02-0.05-0.03-0.08-0.06c-0.03-0.02-0.07-0.05-0.11-0.07
			c-0.04-0.03-0.09-0.05-0.15-0.07c-0.06-0.02-0.13-0.04-0.2-0.06c-0.08-0.01-0.17-0.02-0.27-0.02c-0.18,0-0.35,0.03-0.5,0.09
			c-0.15,0.06-0.28,0.15-0.39,0.27c-0.11,0.12-0.19,0.26-0.25,0.42c-0.06,0.17-0.09,0.35-0.09,0.56c0,0.21,0.03,0.4,0.09,0.57
			c0.06,0.17,0.14,0.31,0.25,0.42c0.1,0.11,0.23,0.2,0.37,0.26c0.14,0.06,0.3,0.09,0.47,0.09c0.1,0,0.19-0.01,0.27-0.02
			c0.08-0.01,0.16-0.03,0.22-0.06c0.07-0.03,0.13-0.06,0.19-0.1c0.06-0.04,0.12-0.09,0.18-0.14C19.73,50.24,19.76,50.23,19.78,50.23
			z"/>
		<path class="st2" d="M23.79,49.24c0,0.25-0.04,0.49-0.12,0.7c-0.08,0.21-0.19,0.4-0.34,0.55c-0.15,0.15-0.32,0.27-0.53,0.36
			c-0.21,0.08-0.43,0.13-0.69,0.13c-0.25,0-0.48-0.04-0.68-0.13c-0.21-0.08-0.38-0.2-0.53-0.36c-0.15-0.15-0.26-0.34-0.34-0.55
			c-0.08-0.21-0.12-0.45-0.12-0.7c0-0.25,0.04-0.49,0.12-0.7s0.19-0.4,0.34-0.55c0.15-0.15,0.32-0.27,0.53-0.36
			c0.21-0.09,0.43-0.13,0.68-0.13c0.25,0,0.48,0.04,0.69,0.13c0.21,0.09,0.38,0.2,0.53,0.36c0.15,0.15,0.26,0.34,0.34,0.55
			C23.75,48.75,23.79,48.98,23.79,49.24z M23.32,49.24c0-0.21-0.03-0.4-0.09-0.56c-0.06-0.17-0.14-0.31-0.24-0.42
			c-0.1-0.11-0.23-0.2-0.38-0.26c-0.15-0.06-0.32-0.09-0.5-0.09c-0.18,0-0.35,0.03-0.5,0.09c-0.15,0.06-0.28,0.15-0.38,0.26
			c-0.1,0.11-0.19,0.25-0.24,0.42c-0.06,0.17-0.09,0.35-0.09,0.56c0,0.21,0.03,0.4,0.09,0.56c0.06,0.17,0.14,0.31,0.24,0.42
			c0.11,0.11,0.23,0.2,0.38,0.26c0.15,0.06,0.31,0.09,0.5,0.09c0.18,0,0.35-0.03,0.5-0.09c0.15-0.06,0.28-0.15,0.38-0.26
			c0.1-0.11,0.19-0.25,0.24-0.42C23.29,49.63,23.32,49.44,23.32,49.24z"/>
		<path class="st2" d="M24.75,47.55c0.02,0.01,0.04,0.03,0.07,0.06l1.97,2.56c-0.01-0.04-0.01-0.08-0.01-0.12c0-0.04,0-0.08,0-0.11
			v-2.41h0.4v3.4h-0.23c-0.04,0-0.07-0.01-0.09-0.02c-0.02-0.01-0.05-0.03-0.07-0.06l-1.97-2.56c0,0.04,0.01,0.08,0.01,0.12
			c0,0.04,0,0.07,0,0.1v2.42h-0.4v-3.4h0.24C24.7,47.53,24.73,47.54,24.75,47.55z"/>
		<path class="st2" d="M31.17,49.24c0,0.25-0.04,0.49-0.12,0.7c-0.08,0.21-0.19,0.4-0.34,0.55c-0.15,0.15-0.32,0.27-0.53,0.36
			c-0.21,0.08-0.43,0.13-0.69,0.13c-0.25,0-0.48-0.04-0.68-0.13s-0.38-0.2-0.53-0.36c-0.15-0.15-0.26-0.34-0.34-0.55
			c-0.08-0.21-0.12-0.45-0.12-0.7c0-0.25,0.04-0.49,0.12-0.7s0.19-0.4,0.34-0.55c0.15-0.15,0.32-0.27,0.53-0.36
			c0.21-0.09,0.43-0.13,0.68-0.13c0.25,0,0.48,0.04,0.69,0.13c0.21,0.09,0.38,0.2,0.53,0.36c0.15,0.15,0.26,0.34,0.34,0.55
			C31.13,48.75,31.17,48.98,31.17,49.24z M30.7,49.24c0-0.21-0.03-0.4-0.09-0.56c-0.06-0.17-0.14-0.31-0.24-0.42
			c-0.1-0.11-0.23-0.2-0.38-0.26c-0.15-0.06-0.32-0.09-0.5-0.09c-0.18,0-0.35,0.03-0.5,0.09c-0.15,0.06-0.28,0.15-0.38,0.26
			c-0.1,0.11-0.19,0.25-0.24,0.42c-0.06,0.17-0.09,0.35-0.09,0.56c0,0.21,0.03,0.4,0.09,0.56c0.06,0.17,0.14,0.31,0.24,0.42
			c0.11,0.11,0.23,0.2,0.38,0.26c0.15,0.06,0.31,0.09,0.5,0.09c0.18,0,0.35-0.03,0.5-0.09c0.15-0.06,0.28-0.15,0.38-0.26
			c0.1-0.11,0.19-0.25,0.24-0.42C30.67,49.63,30.7,49.44,30.7,49.24z M30.31,46.71l-0.7,0.51c-0.03,0.02-0.05,0.03-0.07,0.04
			c-0.02,0.01-0.05,0.01-0.08,0.01h-0.33l0.5-0.48c0.02-0.02,0.03-0.03,0.04-0.04c0.01-0.01,0.03-0.02,0.04-0.02
			c0.01-0.01,0.03-0.01,0.05-0.01c0.02,0,0.04,0,0.07,0H30.31z"/>
		<path class="st2" d="M33.53,49.82c0.02,0.04,0.03,0.08,0.05,0.13c0.02-0.04,0.03-0.09,0.05-0.13c0.02-0.04,0.04-0.08,0.06-0.12
			l1.15-2.09c0.02-0.04,0.04-0.06,0.06-0.07c0.02-0.01,0.05-0.01,0.09-0.01h0.34v3.4h-0.4v-2.5c0-0.03,0-0.07,0-0.11
			c0-0.04,0-0.08,0.01-0.12l-1.17,2.13c-0.04,0.07-0.09,0.11-0.17,0.11h-0.07c-0.07,0-0.13-0.04-0.17-0.11l-1.19-2.13
			c0,0.04,0.01,0.08,0.01,0.12c0,0.04,0,0.08,0,0.11v2.5h-0.4v-3.4h0.34c0.04,0,0.07,0,0.1,0.01c0.02,0.01,0.04,0.03,0.06,0.07
			l1.17,2.09C33.49,49.74,33.51,49.78,33.53,49.82z"/>
		<path class="st2" d="M36.71,50.93h-0.46v-3.4h0.46V50.93z"/>
		<path class="st2" d="M40.02,50.23c0.03,0,0.05,0.01,0.07,0.03l0.18,0.2c-0.14,0.16-0.31,0.29-0.51,0.38
			c-0.2,0.09-0.44,0.14-0.72,0.14c-0.24,0-0.47-0.04-0.67-0.13s-0.37-0.2-0.51-0.36c-0.14-0.15-0.25-0.34-0.33-0.55
			c-0.08-0.21-0.12-0.45-0.12-0.71s0.04-0.49,0.12-0.71c0.08-0.21,0.2-0.4,0.35-0.55c0.15-0.15,0.33-0.27,0.54-0.36
			s0.44-0.13,0.69-0.13c0.25,0,0.47,0.04,0.65,0.12c0.18,0.08,0.34,0.18,0.48,0.32l-0.15,0.21c-0.01,0.02-0.02,0.03-0.04,0.04
			c-0.01,0.01-0.03,0.02-0.06,0.02c-0.02,0-0.04-0.01-0.07-0.02c-0.02-0.02-0.05-0.03-0.08-0.06c-0.03-0.02-0.07-0.05-0.11-0.07
			c-0.04-0.03-0.09-0.05-0.15-0.07c-0.06-0.02-0.13-0.04-0.2-0.06c-0.08-0.01-0.17-0.02-0.27-0.02c-0.18,0-0.35,0.03-0.5,0.09
			c-0.15,0.06-0.28,0.15-0.39,0.27c-0.11,0.12-0.19,0.26-0.25,0.42c-0.06,0.17-0.09,0.35-0.09,0.56c0,0.21,0.03,0.4,0.09,0.57
			c0.06,0.17,0.14,0.31,0.25,0.42c0.1,0.11,0.23,0.2,0.37,0.26c0.14,0.06,0.3,0.09,0.47,0.09c0.1,0,0.19-0.01,0.27-0.02
			c0.08-0.01,0.16-0.03,0.22-0.06c0.07-0.03,0.13-0.06,0.19-0.1c0.06-0.04,0.12-0.09,0.18-0.14C39.97,50.24,39.99,50.23,40.02,50.23
			z"/>
		<path class="st2" d="M43.67,50.93h-0.36c-0.04,0-0.07-0.01-0.1-0.03c-0.03-0.02-0.04-0.05-0.06-0.08L42.84,50h-1.53L41,50.83
			c-0.01,0.03-0.03,0.05-0.06,0.08c-0.03,0.02-0.06,0.03-0.1,0.03h-0.36l1.36-3.4h0.47L43.67,50.93z M41.44,49.67h1.27l-0.53-1.38
			c-0.04-0.09-0.07-0.19-0.1-0.32c-0.02,0.06-0.04,0.12-0.05,0.18c-0.02,0.05-0.03,0.1-0.05,0.14L41.44,49.67z"/>
		<path class="st2" d="M45.84,48.07c-0.01,0.02-0.03,0.04-0.04,0.05c-0.02,0.01-0.04,0.02-0.06,0.02c-0.03,0-0.06-0.01-0.09-0.04
			c-0.04-0.03-0.08-0.06-0.14-0.09c-0.05-0.03-0.12-0.06-0.2-0.09c-0.08-0.03-0.17-0.04-0.28-0.04c-0.1,0-0.19,0.01-0.27,0.04
			c-0.08,0.03-0.14,0.07-0.2,0.11c-0.05,0.05-0.09,0.1-0.12,0.17c-0.03,0.06-0.04,0.13-0.04,0.21c0,0.1,0.02,0.17,0.07,0.24
			c0.05,0.06,0.11,0.12,0.19,0.16c0.08,0.04,0.16,0.08,0.26,0.12c0.1,0.03,0.2,0.07,0.3,0.1c0.1,0.03,0.2,0.07,0.3,0.12
			s0.18,0.1,0.26,0.16c0.08,0.07,0.14,0.15,0.19,0.24s0.07,0.22,0.07,0.36c0,0.15-0.03,0.29-0.08,0.42
			c-0.05,0.13-0.13,0.24-0.22,0.34c-0.1,0.1-0.22,0.17-0.36,0.23c-0.14,0.06-0.3,0.08-0.48,0.08c-0.22,0-0.42-0.04-0.6-0.12
			c-0.18-0.08-0.34-0.19-0.46-0.32l0.13-0.22c0.01-0.02,0.03-0.03,0.05-0.04c0.02-0.01,0.04-0.02,0.06-0.02
			c0.03,0,0.07,0.02,0.11,0.05c0.04,0.04,0.1,0.07,0.16,0.12c0.06,0.04,0.14,0.08,0.23,0.12c0.09,0.04,0.2,0.05,0.33,0.05
			c0.11,0,0.21-0.02,0.29-0.05c0.09-0.03,0.16-0.07,0.22-0.13c0.06-0.05,0.1-0.12,0.14-0.2c0.03-0.08,0.05-0.16,0.05-0.25
			c0-0.1-0.02-0.19-0.07-0.25c-0.05-0.07-0.11-0.12-0.18-0.17c-0.08-0.04-0.16-0.08-0.26-0.11c-0.1-0.03-0.2-0.06-0.3-0.1
			c-0.1-0.03-0.2-0.07-0.3-0.11c-0.1-0.04-0.18-0.1-0.26-0.17c-0.08-0.07-0.14-0.15-0.18-0.25c-0.05-0.1-0.07-0.23-0.07-0.38
			c0-0.12,0.02-0.24,0.07-0.35c0.05-0.11,0.11-0.21,0.2-0.3c0.09-0.09,0.2-0.16,0.33-0.21c0.13-0.05,0.28-0.08,0.45-0.08
			c0.19,0,0.36,0.03,0.52,0.09c0.16,0.06,0.29,0.15,0.41,0.26L45.84,48.07z"/>
	</g>
</g>
</svg>
