<?xml version="1.0" encoding="utf-8"?>
<!-- Generator: Adobe Illustrator 24.0.2, SVG Export Plug-In . SVG Version: 6.00 Build 0)  -->
<svg version="1.1" id="Capa_1" xmlns="http://www.w3.org/2000/svg" xmlns:xlink="http://www.w3.org/1999/xlink" x="0px" y="0px"
	 viewBox="0 0 49.54 49.54" style="enable-background:new 0 0 49.54 49.54;" xml:space="preserve">
<style type="text/css">
	.st0{fill:#FFFFFF;}
	.st1{fill:#F08224;}
	.st2{fill:#020203;}
	.st3{fill:#789C4A;}
	.st4{fill:#853236;}
	.st5{fill:#BC8D47;}
	.st6{fill:#FF4713;}
	.st7{fill:#F09F54;}
	.st8{fill:none;stroke:#F09F54;stroke-width:0.7594;stroke-miterlimit:10;}
	.st9{fill:#EA8130;}
	.st10{fill:#3E7895;}
	.st11{fill:#B6CED7;}
	.st12{fill:#231F20;}
	.st13{fill:#065C7B;}
	.st14{fill:#00AF9A;}
	.st15{fill:#0083C1;}
	.st16{fill:#7B868C;}
	.st17{fill:#BAC0C3;}
	.st18{fill:#0B9691;}
	.st19{fill:#6BDAD5;}
	.st20{fill:#62C0BE;}
	.st21{fill:#009490;}
	.st22{fill:#036784;}
	.st23{fill:#82AEBD;}
	.st24{fill:#B0CCD9;}
	.st25{fill:#CE0E2D;}
	.st26{fill:none;}
	.st27{font-family:'Lato-Bold';}
	.st28{font-size:4.4559px;}
	.st29{fill:#29787B;}
	.st30{fill:#D11317;}
</style>
<g>
	<g>
		<rect class="st0" width="49.54" height="49.54"/>
	</g>
	<rect x="2.03" y="32.81" class="st26" width="45.47" height="14.01"/>
	<text transform="matrix(1 0 0 1 13.0439 36.1208)"><tspan x="0" y="0" class="st2 st27 st28">INSTITUTO </tspan><tspan x="-4.39" y="5.35" class="st2 st27 st28">TECNOLÓGICO </tspan><tspan x="-5.23" y="10.69" class="st2 st27 st28">UNIVERSITARIO</tspan></text>
	<g>
		<path class="st29" d="M39.11,14.85v10.53h-4.62v-1.96c-1.13,1.13-2.56,2.21-4.26,2.21c-1.25,0-3.76-0.71-3.76-3.96v-7.74h-3.79
			v7.44c0,0.79,0.54,1.11,1.28,1.11c0.22,0,0.71-0.1,1.03-0.17v3.07c-0.86,0.15-1.75,0.25-2.44,0.25c-3.52,0-4.5-1.21-4.5-3.54
			v-8.16h-1.68c0.15-0.4,0.23-0.83,0.23-1.27c0-0.63-0.16-1.21-0.44-1.73h2.13l0.32-3.33h4.06v3.33h8.41v2.6v0.41v6.56
			c0,0.94,0.22,1.89,1.4,1.89c0.69,0,1.33-0.57,1.99-1.18v-6.36H39.11z M10.69,25.3v-9.87c0.63,0.53,1.43,0.84,2.31,0.84
			c0.88,0,1.69-0.32,2.31-0.84v9.87H10.69z"/>
		<path class="st30" d="M10.43,12.58c0-1.42,1.15-2.58,2.58-2.58c1.42,0,2.58,1.15,2.58,2.58c0,1.42-1.15,2.58-2.58,2.58
			C11.58,15.15,10.43,14,10.43,12.58"/>
	</g>
</g>
</svg>
