<?xml version="1.0" encoding="utf-8"?>
<!-- Generator: Adobe Illustrator 24.0.2, SVG Export Plug-In . SVG Version: 6.00 Build 0)  -->
<svg version="1.1" id="Capa_1" xmlns="http://www.w3.org/2000/svg" xmlns:xlink="http://www.w3.org/1999/xlink" x="0px" y="0px"
	 viewBox="0 0 52.77 52.77" style="enable-background:new 0 0 52.77 52.77;" xml:space="preserve">
<style type="text/css">
	.st0{fill:#FFFFFF;}
	.st1{fill:#F08224;}
	.st2{fill:#020203;}
	.st3{fill:#789C4A;}
	.st4{fill:#853236;}
	.st5{fill:#BC8D47;}
	.st6{fill:#FF4713;}
	.st7{fill:#F09F54;}
	.st8{fill:none;stroke:#F09F54;stroke-width:0.7594;stroke-miterlimit:10;}
	.st9{fill:#EA8130;}
	.st10{fill:#3E7895;}
	.st11{fill:#B6CED7;}
	.st12{fill:#231F20;}
	.st13{fill:#065C7B;}
	.st14{fill:#00AF9A;}
	.st15{fill:#0083C1;}
	.st16{fill:#7B868C;}
	.st17{fill:#BAC0C3;}
	.st18{fill:#0B9691;}
	.st19{fill:#6BDAD5;}
	.st20{fill:#62C0BE;}
	.st21{fill:#009490;}
	.st22{fill:#036784;}
	.st23{fill:#82AEBD;}
	.st24{fill:#B0CCD9;}
	.st25{fill:#CE0E2D;}
	.st26{fill:#29787B;}
	.st27{fill:#D11317;}
</style>
<g>
	<g>
		<rect class="st0" width="52.77" height="52.77"/>
	</g>
	<g>
		<path class="st14" d="M22.06,17.5c-0.64,0-1.16,0.51-1.16,1.14h-0.03v5h2.34v-5C23.22,18.01,22.7,17.5,22.06,17.5"/>
		<path class="st14" d="M25.19,17.5c-0.64,0-1.16,0.51-1.16,1.14h-0.02v5h2.34v-5C26.34,18.01,25.82,17.5,25.19,17.5"/>
		<path class="st14" d="M28.31,17.5c-0.64,0-1.16,0.51-1.16,1.14h-0.02v5h2.34v-5C29.47,18.01,28.95,17.5,28.31,17.5"/>
		<path class="st14" d="M31.43,17.5c-0.64,0-1.16,0.51-1.16,1.14h-0.02v5h2.34v-5C32.59,18.01,32.07,17.5,31.43,17.5"/>
		<path class="st14" d="M20.88,24.41L20.88,24.41c-0.01,0.01-0.02,0-0.03,0c-0.86,0-1.56,0.69-1.56,1.54c0,0.85,0.7,1.54,1.56,1.54
			c0.01,0,0.02,0,0.03,0v0h13.93c-2.01,2.39-5.04,3.91-8.42,3.91c-6.05,0-10.95-4.84-10.95-10.81c0-5.97,4.9-10.81,10.95-10.81
			c6.04,0,10.94,4.84,10.94,10.81c0,1.35-0.25,2.63-0.7,3.82H20.88z M26.38,6.72c-7.76,0-14.04,6.21-14.04,13.87
			s6.29,13.87,14.04,13.87c7.76,0,14.04-6.21,14.04-13.87S34.14,6.72,26.38,6.72"/>
	</g>
	<g>
		<path class="st2" d="M13.4,40.74v0.37h-1.63v1.19h1.4v0.37h-1.4v1.46H11.3v-3.4H13.4z"/>
		<path class="st2" d="M16.47,44.14h-0.36c-0.04,0-0.07-0.01-0.1-0.03c-0.03-0.02-0.04-0.05-0.06-0.08l-0.32-0.82h-1.53l-0.32,0.82
			c-0.01,0.03-0.03,0.05-0.06,0.08c-0.03,0.02-0.06,0.03-0.1,0.03h-0.36l1.36-3.4h0.47L16.47,44.14z M14.25,42.88h1.27l-0.53-1.38
			c-0.03-0.09-0.07-0.19-0.1-0.32c-0.02,0.06-0.03,0.12-0.05,0.18c-0.02,0.05-0.03,0.1-0.05,0.14L14.25,42.88z"/>
		<path class="st2" d="M19.2,43.44c0.03,0,0.05,0.01,0.07,0.03l0.18,0.2c-0.14,0.16-0.31,0.29-0.51,0.38
			c-0.2,0.09-0.44,0.14-0.72,0.14c-0.25,0-0.47-0.04-0.67-0.13c-0.2-0.08-0.37-0.2-0.51-0.36s-0.25-0.34-0.33-0.55
			c-0.08-0.21-0.12-0.45-0.12-0.71s0.04-0.49,0.13-0.71c0.08-0.21,0.2-0.4,0.35-0.55s0.33-0.27,0.54-0.36
			c0.21-0.08,0.44-0.13,0.69-0.13c0.25,0,0.47,0.04,0.65,0.12s0.34,0.18,0.48,0.32l-0.15,0.21c-0.01,0.02-0.02,0.03-0.04,0.04
			c-0.01,0.01-0.04,0.02-0.06,0.02c-0.02,0-0.04-0.01-0.06-0.02c-0.02-0.02-0.05-0.03-0.08-0.06c-0.03-0.02-0.07-0.05-0.11-0.07
			c-0.04-0.03-0.09-0.05-0.15-0.07c-0.06-0.02-0.13-0.04-0.2-0.06s-0.17-0.02-0.27-0.02c-0.18,0-0.35,0.03-0.5,0.09
			c-0.15,0.06-0.28,0.15-0.39,0.27c-0.11,0.12-0.19,0.26-0.25,0.42c-0.06,0.17-0.09,0.35-0.09,0.56c0,0.21,0.03,0.4,0.09,0.57
			c0.06,0.17,0.14,0.31,0.25,0.42c0.11,0.11,0.23,0.2,0.37,0.26c0.14,0.06,0.3,0.09,0.46,0.09c0.1,0,0.19-0.01,0.27-0.02
			c0.08-0.01,0.15-0.03,0.22-0.06c0.07-0.03,0.13-0.06,0.19-0.1c0.06-0.04,0.12-0.09,0.18-0.14C19.15,43.45,19.18,43.44,19.2,43.44z
			"/>
		<path class="st2" d="M21.38,43.78c0.14,0,0.27-0.02,0.38-0.07c0.11-0.05,0.2-0.11,0.28-0.2c0.08-0.09,0.13-0.19,0.18-0.31
			c0.04-0.12,0.06-0.25,0.06-0.39v-2.07h0.46v2.07c0,0.2-0.03,0.38-0.09,0.55c-0.06,0.17-0.15,0.31-0.27,0.44
			c-0.12,0.12-0.26,0.22-0.43,0.29c-0.17,0.07-0.36,0.1-0.56,0.1s-0.4-0.03-0.56-0.1c-0.17-0.07-0.31-0.17-0.43-0.29
			c-0.12-0.12-0.21-0.27-0.27-0.44c-0.06-0.17-0.09-0.35-0.09-0.55v-2.07h0.46v2.06c0,0.14,0.02,0.27,0.06,0.39
			c0.04,0.12,0.1,0.22,0.18,0.31c0.08,0.09,0.17,0.15,0.28,0.2C21.11,43.76,21.24,43.78,21.38,43.78z"/>
		<path class="st2" d="M23.98,43.76h1.47v0.39h-1.93v-3.4h0.46V43.76z"/>
		<path class="st2" d="M27.87,40.74v0.39h-1.1v3.01h-0.46v-3.01h-1.1v-0.39H27.87z"/>
		<path class="st2" d="M30.84,44.14h-0.36c-0.04,0-0.07-0.01-0.1-0.03c-0.03-0.02-0.04-0.05-0.06-0.08l-0.32-0.82h-1.53l-0.32,0.82
			c-0.01,0.03-0.03,0.05-0.06,0.08c-0.03,0.02-0.06,0.03-0.1,0.03h-0.36l1.36-3.4h0.47L30.84,44.14z M28.61,42.88h1.27l-0.53-1.38
			c-0.03-0.09-0.07-0.19-0.1-0.32c-0.02,0.06-0.03,0.12-0.05,0.18c-0.02,0.05-0.03,0.1-0.05,0.14L28.61,42.88z"/>
		<path class="st2" d="M34.21,42.45c0,0.25-0.04,0.49-0.12,0.7c-0.08,0.21-0.19,0.39-0.34,0.54c-0.15,0.15-0.32,0.26-0.53,0.35
			c-0.21,0.08-0.43,0.12-0.68,0.12h-1.27v-3.4h1.27c0.25,0,0.48,0.04,0.68,0.12c0.21,0.08,0.38,0.2,0.53,0.35
			c0.15,0.15,0.26,0.33,0.34,0.54C34.17,41.96,34.21,42.19,34.21,42.45z M33.74,42.45c0-0.21-0.03-0.4-0.09-0.56
			c-0.06-0.16-0.14-0.3-0.24-0.42c-0.1-0.11-0.23-0.2-0.38-0.26c-0.15-0.06-0.31-0.09-0.5-0.09h-0.81v2.66h0.81
			c0.18,0,0.35-0.03,0.5-0.09c0.15-0.06,0.28-0.15,0.38-0.26c0.1-0.11,0.19-0.25,0.24-0.42C33.71,42.84,33.74,42.65,33.74,42.45z"/>
		<path class="st2" d="M38.71,42.45c0,0.25-0.04,0.49-0.12,0.7c-0.08,0.21-0.19,0.39-0.34,0.54c-0.15,0.15-0.32,0.26-0.53,0.35
			c-0.21,0.08-0.43,0.12-0.68,0.12h-1.27v-3.4h1.27c0.25,0,0.48,0.04,0.68,0.12c0.2,0.08,0.38,0.2,0.53,0.35
			c0.15,0.15,0.26,0.33,0.34,0.54C38.66,41.96,38.71,42.19,38.71,42.45z M38.23,42.45c0-0.21-0.03-0.4-0.09-0.56
			c-0.06-0.16-0.14-0.3-0.24-0.42c-0.1-0.11-0.23-0.2-0.38-0.26c-0.15-0.06-0.31-0.09-0.5-0.09h-0.81v2.66h0.81
			c0.18,0,0.35-0.03,0.5-0.09c0.15-0.06,0.28-0.15,0.38-0.26s0.19-0.25,0.24-0.42C38.2,42.84,38.23,42.65,38.23,42.45z"/>
		<path class="st2" d="M41.43,40.74v0.37h-1.63v1.13h1.32v0.36h-1.32v1.16h1.63v0.37h-2.1v-3.4H41.43z"/>
		<path class="st2" d="M12.21,48.14c0,0.25-0.04,0.49-0.12,0.7c-0.08,0.21-0.19,0.4-0.34,0.55c-0.15,0.15-0.32,0.27-0.53,0.36
			c-0.21,0.08-0.43,0.13-0.69,0.13s-0.48-0.04-0.68-0.13s-0.38-0.2-0.53-0.36c-0.15-0.15-0.26-0.34-0.34-0.55
			c-0.08-0.21-0.12-0.45-0.12-0.7c0-0.25,0.04-0.49,0.12-0.7c0.08-0.21,0.19-0.4,0.34-0.55c0.15-0.15,0.32-0.27,0.53-0.36
			c0.21-0.09,0.43-0.13,0.68-0.13s0.48,0.04,0.69,0.13c0.21,0.09,0.38,0.2,0.53,0.36c0.15,0.15,0.26,0.34,0.34,0.55
			C12.17,47.65,12.21,47.89,12.21,48.14z M11.73,48.14c0-0.21-0.03-0.4-0.09-0.56c-0.06-0.17-0.14-0.31-0.24-0.42
			c-0.1-0.11-0.23-0.2-0.38-0.26c-0.15-0.06-0.32-0.09-0.5-0.09c-0.18,0-0.35,0.03-0.5,0.09c-0.15,0.06-0.28,0.15-0.38,0.26
			c-0.1,0.11-0.19,0.25-0.24,0.42c-0.06,0.17-0.09,0.35-0.09,0.56c0,0.21,0.03,0.4,0.09,0.56c0.06,0.17,0.14,0.31,0.24,0.42
			c0.11,0.11,0.23,0.2,0.38,0.26c0.15,0.06,0.31,0.09,0.5,0.09c0.18,0,0.35-0.03,0.5-0.09c0.15-0.06,0.28-0.15,0.38-0.26
			c0.1-0.11,0.19-0.25,0.24-0.42C11.71,48.54,11.73,48.35,11.73,48.14z"/>
		<path class="st2" d="M15.78,48.14c0,0.25-0.04,0.49-0.12,0.7c-0.08,0.21-0.19,0.39-0.34,0.54c-0.15,0.15-0.32,0.26-0.53,0.35
			c-0.21,0.08-0.43,0.12-0.68,0.12h-1.27v-3.4h1.27c0.25,0,0.48,0.04,0.68,0.12c0.2,0.08,0.38,0.2,0.53,0.35
			c0.15,0.15,0.26,0.33,0.34,0.54C15.74,47.65,15.78,47.89,15.78,48.14z M15.31,48.14c0-0.21-0.03-0.4-0.09-0.56
			c-0.06-0.16-0.14-0.3-0.24-0.42c-0.1-0.11-0.23-0.2-0.38-0.26c-0.15-0.06-0.31-0.09-0.5-0.09H13.3v2.66h0.81
			c0.18,0,0.35-0.03,0.5-0.09c0.15-0.06,0.28-0.15,0.38-0.26s0.19-0.25,0.24-0.42C15.28,48.54,15.31,48.35,15.31,48.14z"/>
		<path class="st2" d="M19.57,48.14c0,0.25-0.04,0.49-0.12,0.7c-0.08,0.21-0.19,0.4-0.34,0.55c-0.15,0.15-0.32,0.27-0.53,0.36
			c-0.21,0.08-0.43,0.13-0.69,0.13s-0.48-0.04-0.68-0.13s-0.38-0.2-0.53-0.36c-0.15-0.15-0.26-0.34-0.34-0.55
			c-0.08-0.21-0.12-0.45-0.12-0.7c0-0.25,0.04-0.49,0.12-0.7c0.08-0.21,0.19-0.4,0.34-0.55c0.15-0.15,0.32-0.27,0.53-0.36
			c0.21-0.09,0.43-0.13,0.68-0.13s0.48,0.04,0.69,0.13c0.21,0.09,0.38,0.2,0.53,0.36c0.15,0.15,0.26,0.34,0.34,0.55
			C19.53,47.65,19.57,47.89,19.57,48.14z M19.1,48.14c0-0.21-0.03-0.4-0.09-0.56c-0.06-0.17-0.14-0.31-0.24-0.42
			c-0.1-0.11-0.23-0.2-0.38-0.26c-0.15-0.06-0.32-0.09-0.5-0.09c-0.18,0-0.35,0.03-0.5,0.09c-0.15,0.06-0.28,0.15-0.38,0.26
			c-0.1,0.11-0.19,0.25-0.24,0.42c-0.06,0.17-0.09,0.35-0.09,0.56c0,0.21,0.03,0.4,0.09,0.56c0.06,0.17,0.14,0.31,0.24,0.42
			c0.11,0.11,0.23,0.2,0.38,0.26c0.15,0.06,0.31,0.09,0.5,0.09c0.18,0,0.35-0.03,0.5-0.09c0.15-0.06,0.28-0.15,0.38-0.26
			c0.1-0.11,0.19-0.25,0.24-0.42C19.07,48.54,19.1,48.35,19.1,48.14z"/>
		<path class="st2" d="M20.53,46.46c0.02,0.01,0.04,0.03,0.07,0.06l1.97,2.56c-0.01-0.04-0.01-0.08-0.01-0.12c0-0.04,0-0.08,0-0.11
			v-2.41h0.4v3.4h-0.23c-0.04,0-0.07-0.01-0.09-0.02c-0.02-0.01-0.05-0.03-0.07-0.06l-1.97-2.56c0,0.04,0.01,0.08,0.01,0.12
			c0,0.04,0,0.07,0,0.1v2.42h-0.4v-3.4h0.24C20.48,46.44,20.5,46.44,20.53,46.46z"/>
		<path class="st2" d="M26.1,46.44v0.39H25v3.01h-0.46v-3.01h-1.1v-0.39H26.1z"/>
		<path class="st2" d="M29.51,48.14c0,0.25-0.04,0.49-0.12,0.7c-0.08,0.21-0.19,0.4-0.34,0.55c-0.15,0.15-0.32,0.27-0.53,0.36
			c-0.21,0.08-0.43,0.13-0.69,0.13c-0.25,0-0.48-0.04-0.68-0.13c-0.21-0.08-0.38-0.2-0.53-0.36c-0.15-0.15-0.26-0.34-0.34-0.55
			c-0.08-0.21-0.12-0.45-0.12-0.7c0-0.25,0.04-0.49,0.12-0.7c0.08-0.21,0.19-0.4,0.34-0.55c0.15-0.15,0.32-0.27,0.53-0.36
			c0.21-0.09,0.43-0.13,0.68-0.13c0.25,0,0.48,0.04,0.69,0.13c0.21,0.09,0.38,0.2,0.53,0.36c0.15,0.15,0.26,0.34,0.34,0.55
			C29.47,47.65,29.51,47.89,29.51,48.14z M29.04,48.14c0-0.21-0.03-0.4-0.09-0.56c-0.06-0.17-0.14-0.31-0.24-0.42
			c-0.1-0.11-0.23-0.2-0.38-0.26c-0.15-0.06-0.32-0.09-0.5-0.09c-0.18,0-0.35,0.03-0.5,0.09c-0.15,0.06-0.28,0.15-0.38,0.26
			c-0.1,0.11-0.19,0.25-0.24,0.42c-0.06,0.17-0.09,0.35-0.09,0.56c0,0.21,0.03,0.4,0.09,0.56c0.06,0.17,0.14,0.31,0.24,0.42
			c0.11,0.11,0.23,0.2,0.38,0.26c0.15,0.06,0.31,0.09,0.5,0.09c0.18,0,0.35-0.03,0.5-0.09c0.15-0.06,0.28-0.15,0.38-0.26
			c0.1-0.11,0.19-0.25,0.24-0.42C29.01,48.54,29.04,48.35,29.04,48.14z"/>
		<path class="st2" d="M30.6,49.45h1.47v0.39h-1.93v-3.4h0.46V49.45z"/>
		<path class="st2" d="M35.55,48.14c0,0.25-0.04,0.49-0.12,0.7c-0.08,0.21-0.19,0.4-0.34,0.55c-0.15,0.15-0.32,0.27-0.53,0.36
			s-0.43,0.13-0.68,0.13c-0.25,0-0.48-0.04-0.68-0.13s-0.38-0.2-0.53-0.36c-0.15-0.15-0.26-0.34-0.34-0.55
			c-0.08-0.21-0.12-0.45-0.12-0.7c0-0.25,0.04-0.49,0.12-0.7c0.08-0.21,0.19-0.4,0.34-0.55c0.15-0.15,0.32-0.27,0.53-0.36
			c0.21-0.09,0.43-0.13,0.68-0.13c0.25,0,0.48,0.04,0.68,0.13c0.21,0.09,0.38,0.2,0.53,0.36c0.15,0.15,0.26,0.34,0.34,0.55
			C35.51,47.65,35.55,47.89,35.55,48.14z M35.08,48.14c0-0.21-0.03-0.4-0.09-0.56c-0.06-0.17-0.14-0.31-0.24-0.42
			c-0.1-0.11-0.23-0.2-0.38-0.26c-0.15-0.06-0.31-0.09-0.5-0.09c-0.18,0-0.35,0.03-0.5,0.09c-0.15,0.06-0.28,0.15-0.38,0.26
			c-0.11,0.11-0.19,0.25-0.24,0.42c-0.06,0.17-0.09,0.35-0.09,0.56c0,0.21,0.03,0.4,0.09,0.56c0.06,0.17,0.14,0.31,0.24,0.42
			c0.1,0.11,0.23,0.2,0.38,0.26c0.15,0.06,0.31,0.09,0.5,0.09c0.18,0,0.35-0.03,0.5-0.09c0.15-0.06,0.28-0.15,0.38-0.26
			c0.1-0.11,0.19-0.25,0.24-0.42S35.08,48.35,35.08,48.14z"/>
		<path class="st2" d="M37.69,49.51c0.09,0,0.18,0,0.25-0.01c0.08-0.01,0.15-0.02,0.22-0.04c0.07-0.02,0.13-0.04,0.19-0.06
			c0.06-0.02,0.12-0.05,0.18-0.08v-0.75h-0.53c-0.03,0-0.05-0.01-0.07-0.03c-0.02-0.02-0.03-0.04-0.03-0.06v-0.26h1.04v1.31
			c-0.09,0.06-0.17,0.12-0.27,0.16c-0.09,0.05-0.19,0.08-0.3,0.12c-0.11,0.03-0.22,0.05-0.34,0.07c-0.12,0.02-0.25,0.02-0.39,0.02
			c-0.25,0-0.47-0.04-0.68-0.13c-0.21-0.08-0.38-0.2-0.53-0.36c-0.15-0.15-0.26-0.34-0.35-0.55c-0.08-0.21-0.12-0.45-0.12-0.71
			c0-0.26,0.04-0.5,0.12-0.71c0.08-0.21,0.2-0.4,0.35-0.55c0.15-0.15,0.33-0.27,0.55-0.36c0.21-0.08,0.45-0.13,0.72-0.13
			c0.13,0,0.26,0.01,0.38,0.03c0.11,0.02,0.22,0.05,0.32,0.09c0.1,0.04,0.19,0.08,0.27,0.14c0.08,0.05,0.16,0.11,0.24,0.18
			l-0.13,0.21c-0.03,0.04-0.06,0.06-0.1,0.06c-0.03,0-0.05-0.01-0.08-0.03c-0.04-0.02-0.08-0.05-0.13-0.08
			c-0.05-0.03-0.11-0.06-0.18-0.09c-0.07-0.03-0.15-0.05-0.25-0.07c-0.1-0.02-0.21-0.03-0.34-0.03c-0.19,0-0.37,0.03-0.52,0.09
			c-0.15,0.06-0.29,0.15-0.4,0.27c-0.11,0.12-0.19,0.26-0.25,0.42c-0.06,0.17-0.09,0.35-0.09,0.56c0,0.22,0.03,0.41,0.09,0.58
			c0.06,0.17,0.15,0.31,0.26,0.43c0.11,0.12,0.24,0.21,0.39,0.27C37.34,49.48,37.51,49.51,37.69,49.51z"/>
		<path class="st2" d="M40.79,45.61l-0.7,0.51c-0.03,0.02-0.05,0.03-0.07,0.04c-0.02,0.01-0.05,0.01-0.08,0.01h-0.33l0.5-0.48
			c0.02-0.02,0.03-0.03,0.04-0.04c0.01-0.01,0.03-0.02,0.04-0.02c0.01-0.01,0.03-0.01,0.05-0.01c0.02,0,0.04,0,0.07,0H40.79z
			 M40.21,49.84h-0.46v-3.4h0.46V49.84z"/>
		<path class="st2" d="M43.92,49.84h-0.36c-0.04,0-0.07-0.01-0.1-0.03c-0.03-0.02-0.04-0.05-0.06-0.08l-0.32-0.82h-1.53l-0.32,0.82
			c-0.01,0.03-0.03,0.05-0.06,0.08c-0.03,0.02-0.06,0.03-0.1,0.03h-0.36l1.36-3.4h0.47L43.92,49.84z M41.69,48.58h1.27l-0.53-1.38
			c-0.04-0.09-0.07-0.19-0.1-0.32c-0.02,0.06-0.04,0.12-0.05,0.18c-0.02,0.05-0.03,0.1-0.05,0.14L41.69,48.58z"/>
	</g>
</g>
</svg>
