<?xml version="1.0" encoding="utf-8"?>
<!-- Generator: Adobe Illustrator 24.0.2, SVG Export Plug-In . SVG Version: 6.00 Build 0)  -->
<svg version="1.1" id="Capa_1" xmlns="http://www.w3.org/2000/svg" xmlns:xlink="http://www.w3.org/1999/xlink" x="0px" y="0px"
	 viewBox="0 0 52.77 52.77" style="enable-background:new 0 0 52.77 52.77;" xml:space="preserve">
<style type="text/css">
	.st0{fill:#FFFFFF;}
	.st1{fill:#F08224;}
	.st2{fill:#020203;}
	.st3{fill:#789C4A;}
	.st4{fill:#853236;}
	.st5{fill:#BC8D47;}
	.st6{fill:#FF4713;}
	.st7{fill:#F09F54;}
	.st8{fill:none;stroke:#F09F54;stroke-width:0.7594;stroke-miterlimit:10;}
	.st9{fill:#EA8130;}
	.st10{fill:#3E7895;}
	.st11{fill:#B6CED7;}
	.st12{fill:#231F20;}
	.st13{fill:#065C7B;}
	.st14{fill:#00AF9A;}
	.st15{fill:#0083C1;}
	.st16{fill:#7B868C;}
	.st17{fill:#BAC0C3;}
	.st18{fill:#0B9691;}
	.st19{fill:#6BDAD5;}
	.st20{fill:#62C0BE;}
	.st21{fill:#009490;}
	.st22{fill:#036784;}
	.st23{fill:#82AEBD;}
	.st24{fill:#B0CCD9;}
	.st25{fill:#CE0E2D;}
	.st26{fill:#29787B;}
	.st27{fill:#D11317;}
</style>
<g>
	<g>
		<rect class="st0" width="52.77" height="52.77"/>
	</g>
	<g>
		<path class="st1" d="M41.59,36.65H20.44c-5.12,0-9.27-4.15-9.27-9.27V6.23h21.15c5.12,0,9.27,4.15,9.27,9.27V36.65z"/>
		<polygon class="st0" points="19.99,16.52 19.99,18.07 16.49,18.07 16.49,20.49 19.82,20.49 19.82,22.05 16.49,22.05 16.49,26.36 
			14.51,26.36 14.51,16.52 		"/>
		<path class="st0" d="M25.91,16.52l3.87,9.85h-2.19l-0.85-2.26h-3.99l-0.86,2.26h-2.05l3.84-9.85H25.91z M23.32,22.55h2.88
			l-1.43-4.06L23.32,22.55z"/>
		<path class="st0" d="M33.4,16.52c1.72,0,3.09,0.37,4.13,1.1c1.03,0.73,1.54,2,1.55,3.82c0,1.81-0.52,3.08-1.56,3.82
			c-1.03,0.73-2.4,1.1-4.12,1.1h-2.7v-9.85H33.4z M33.78,24.81c0.88,0,1.62-0.3,2.27-0.9c0.65-0.61,0.97-1.43,0.97-2.47
			c0-1.01-0.32-1.82-0.97-2.44c-0.64-0.62-1.38-0.93-2.27-0.93h-1.1v6.74H33.78z"/>
	</g>
	<g>
		<path class="st2" d="M13.6,41.84v0.37h-1.63v1.19h1.4v0.37h-1.4v1.46H11.5v-3.4H13.6z"/>
		<path class="st2" d="M16.67,45.24h-0.36c-0.04,0-0.07-0.01-0.1-0.03c-0.03-0.02-0.04-0.05-0.06-0.08l-0.32-0.82h-1.53L14,45.13
			c-0.01,0.03-0.03,0.05-0.06,0.08c-0.03,0.02-0.06,0.03-0.1,0.03h-0.36l1.36-3.4h0.47L16.67,45.24z M14.44,43.98h1.27l-0.53-1.38
			c-0.04-0.09-0.07-0.19-0.1-0.32c-0.02,0.06-0.04,0.12-0.05,0.18c-0.02,0.05-0.03,0.1-0.05,0.14L14.44,43.98z"/>
		<path class="st2" d="M19.4,44.54c0.03,0,0.05,0.01,0.07,0.03l0.18,0.2c-0.14,0.16-0.31,0.29-0.51,0.38
			c-0.2,0.09-0.44,0.14-0.72,0.14c-0.24,0-0.47-0.04-0.67-0.13c-0.2-0.08-0.37-0.2-0.51-0.36c-0.14-0.15-0.25-0.34-0.33-0.55
			c-0.08-0.21-0.12-0.45-0.12-0.71c0-0.26,0.04-0.49,0.12-0.71c0.08-0.21,0.2-0.4,0.35-0.55c0.15-0.15,0.33-0.27,0.54-0.36
			s0.44-0.13,0.69-0.13c0.25,0,0.47,0.04,0.65,0.12c0.18,0.08,0.34,0.18,0.48,0.32l-0.15,0.21c-0.01,0.02-0.02,0.03-0.04,0.04
			c-0.01,0.01-0.03,0.02-0.06,0.02c-0.02,0-0.04-0.01-0.07-0.02c-0.02-0.02-0.05-0.03-0.08-0.06c-0.03-0.02-0.07-0.05-0.11-0.07
			c-0.04-0.03-0.09-0.05-0.15-0.07c-0.06-0.02-0.13-0.04-0.2-0.06c-0.08-0.01-0.17-0.02-0.27-0.02c-0.18,0-0.35,0.03-0.5,0.09
			c-0.15,0.06-0.28,0.15-0.39,0.27c-0.11,0.12-0.19,0.26-0.25,0.42c-0.06,0.17-0.09,0.35-0.09,0.56c0,0.21,0.03,0.4,0.09,0.57
			c0.06,0.17,0.14,0.31,0.25,0.42c0.1,0.11,0.23,0.2,0.37,0.26c0.14,0.06,0.3,0.09,0.47,0.09c0.1,0,0.19-0.01,0.27-0.02
			c0.08-0.01,0.16-0.03,0.22-0.06c0.07-0.03,0.13-0.06,0.19-0.1c0.06-0.04,0.12-0.09,0.18-0.14C19.35,44.55,19.37,44.54,19.4,44.54z
			"/>
		<path class="st2" d="M21.57,44.87c0.14,0,0.27-0.02,0.38-0.07c0.11-0.05,0.2-0.11,0.28-0.2c0.08-0.09,0.14-0.19,0.18-0.31
			c0.04-0.12,0.06-0.25,0.06-0.39v-2.07h0.46v2.07c0,0.2-0.03,0.38-0.09,0.55c-0.06,0.17-0.15,0.31-0.27,0.44
			c-0.12,0.12-0.26,0.22-0.43,0.29c-0.17,0.07-0.36,0.1-0.56,0.1c-0.21,0-0.4-0.03-0.57-0.1c-0.17-0.07-0.31-0.17-0.43-0.29
			c-0.12-0.12-0.21-0.27-0.27-0.44c-0.06-0.17-0.09-0.35-0.09-0.55v-2.07h0.46v2.06c0,0.14,0.02,0.27,0.06,0.39
			c0.04,0.12,0.1,0.22,0.18,0.31c0.08,0.09,0.17,0.15,0.28,0.2C21.31,44.85,21.43,44.87,21.57,44.87z"/>
		<path class="st2" d="M24.18,44.85h1.47v0.39h-1.93v-3.4h0.46V44.85z"/>
		<path class="st2" d="M28.06,41.84v0.39h-1.1v3.01h-0.46v-3.01h-1.1v-0.39H28.06z"/>
		<path class="st2" d="M31.03,45.24h-0.36c-0.04,0-0.07-0.01-0.1-0.03c-0.03-0.02-0.04-0.05-0.06-0.08l-0.32-0.82h-1.53l-0.32,0.82
			c-0.01,0.03-0.03,0.05-0.06,0.08c-0.03,0.02-0.06,0.03-0.1,0.03h-0.36l1.36-3.4h0.47L31.03,45.24z M28.81,43.98h1.27l-0.53-1.38
			c-0.04-0.09-0.07-0.19-0.1-0.32c-0.02,0.06-0.04,0.12-0.05,0.18c-0.02,0.05-0.03,0.1-0.05,0.14L28.81,43.98z"/>
		<path class="st2" d="M34.41,43.54c0,0.25-0.04,0.49-0.12,0.7c-0.08,0.21-0.19,0.39-0.34,0.54c-0.15,0.15-0.32,0.26-0.53,0.35
			c-0.21,0.08-0.43,0.12-0.68,0.12h-1.27v-3.4h1.27c0.25,0,0.48,0.04,0.68,0.12c0.2,0.08,0.38,0.2,0.53,0.35
			c0.15,0.15,0.26,0.33,0.34,0.54C34.37,43.05,34.41,43.29,34.41,43.54z M33.94,43.54c0-0.21-0.03-0.4-0.09-0.56
			c-0.06-0.16-0.14-0.3-0.24-0.42c-0.1-0.11-0.23-0.2-0.38-0.26c-0.15-0.06-0.31-0.09-0.5-0.09h-0.81v2.66h0.81
			c0.18,0,0.35-0.03,0.5-0.09c0.15-0.06,0.28-0.15,0.38-0.26c0.1-0.11,0.19-0.25,0.24-0.42C33.91,43.93,33.94,43.75,33.94,43.54z"/>
		<path class="st2" d="M38.9,43.54c0,0.25-0.04,0.49-0.12,0.7c-0.08,0.21-0.19,0.39-0.34,0.54c-0.15,0.15-0.32,0.26-0.53,0.35
			c-0.21,0.08-0.43,0.12-0.68,0.12h-1.27v-3.4h1.27c0.25,0,0.48,0.04,0.68,0.12c0.21,0.08,0.38,0.2,0.53,0.35
			c0.15,0.15,0.26,0.33,0.34,0.54C38.86,43.05,38.9,43.29,38.9,43.54z M38.43,43.54c0-0.21-0.03-0.4-0.09-0.56
			c-0.06-0.16-0.14-0.3-0.24-0.42c-0.1-0.11-0.23-0.2-0.38-0.26c-0.15-0.06-0.31-0.09-0.5-0.09h-0.81v2.66h0.81
			c0.18,0,0.35-0.03,0.5-0.09c0.15-0.06,0.28-0.15,0.38-0.26c0.1-0.11,0.19-0.25,0.24-0.42C38.4,43.93,38.43,43.75,38.43,43.54z"/>
		<path class="st2" d="M41.62,41.84v0.37h-1.63v1.13h1.32v0.36h-1.32v1.16h1.63v0.37h-2.1v-3.4H41.62z"/>
		<path class="st2" d="M11.32,50.93h-0.36c-0.04,0-0.07-0.01-0.1-0.03c-0.03-0.02-0.04-0.05-0.06-0.08L10.49,50H8.97l-0.32,0.82
			c-0.01,0.03-0.03,0.05-0.06,0.08c-0.03,0.02-0.06,0.03-0.1,0.03H8.14l1.36-3.4h0.47L11.32,50.93z M9.1,49.67h1.27l-0.53-1.38
			c-0.03-0.09-0.07-0.19-0.1-0.32c-0.02,0.06-0.03,0.12-0.05,0.18c-0.02,0.05-0.03,0.1-0.05,0.14L9.1,49.67z"/>
		<path class="st2" d="M12.26,49.52v1.42H11.8v-3.4h0.96c0.22,0,0.4,0.02,0.56,0.07s0.29,0.11,0.39,0.19
			c0.1,0.08,0.18,0.18,0.23,0.3c0.05,0.12,0.07,0.25,0.07,0.39c0,0.12-0.02,0.23-0.06,0.34c-0.04,0.1-0.09,0.2-0.17,0.28
			c-0.07,0.08-0.16,0.15-0.26,0.21c-0.1,0.06-0.22,0.1-0.35,0.13c0.06,0.03,0.11,0.08,0.15,0.15l0.99,1.35h-0.41
			c-0.08,0-0.15-0.03-0.19-0.1l-0.88-1.21c-0.03-0.04-0.06-0.07-0.09-0.08c-0.03-0.02-0.08-0.03-0.14-0.03H12.26z M12.26,49.18h0.48
			c0.13,0,0.25-0.02,0.35-0.05c0.1-0.03,0.19-0.08,0.26-0.14s0.12-0.13,0.16-0.21c0.03-0.08,0.05-0.17,0.05-0.27
			c0-0.2-0.07-0.36-0.2-0.46c-0.13-0.1-0.33-0.15-0.6-0.15h-0.5V49.18z"/>
		<path class="st2" d="M17,47.53v0.39h-1.1v3.01h-0.46v-3.01h-1.1v-0.39H17z"/>
		<path class="st2" d="M19.58,47.53v0.37h-1.63v1.13h1.32v0.36h-1.32v1.16h1.63v0.37h-2.1v-3.4H19.58z"/>
		<path class="st2" d="M21.99,48.07c-0.01,0.02-0.03,0.04-0.05,0.05c-0.02,0.01-0.04,0.02-0.06,0.02c-0.03,0-0.06-0.01-0.09-0.04
			c-0.04-0.03-0.08-0.06-0.14-0.09c-0.05-0.03-0.12-0.06-0.2-0.09c-0.08-0.03-0.17-0.04-0.28-0.04c-0.1,0-0.19,0.01-0.27,0.04
			c-0.08,0.03-0.15,0.07-0.2,0.11c-0.05,0.05-0.09,0.1-0.12,0.17c-0.03,0.06-0.04,0.13-0.04,0.21c0,0.1,0.02,0.17,0.07,0.24
			c0.05,0.06,0.11,0.12,0.18,0.16c0.08,0.04,0.16,0.08,0.26,0.12c0.1,0.03,0.2,0.07,0.3,0.1s0.2,0.07,0.3,0.12s0.18,0.1,0.26,0.16
			c0.08,0.07,0.14,0.15,0.18,0.24c0.05,0.1,0.07,0.22,0.07,0.36c0,0.15-0.03,0.29-0.08,0.42c-0.05,0.13-0.12,0.24-0.22,0.34
			c-0.1,0.1-0.22,0.17-0.36,0.23c-0.14,0.06-0.3,0.08-0.48,0.08c-0.22,0-0.42-0.04-0.6-0.12c-0.18-0.08-0.34-0.19-0.46-0.32
			l0.13-0.22c0.01-0.02,0.03-0.03,0.05-0.04c0.02-0.01,0.04-0.02,0.06-0.02c0.03,0,0.07,0.02,0.11,0.05
			c0.04,0.04,0.1,0.07,0.16,0.12c0.06,0.04,0.14,0.08,0.23,0.12c0.09,0.04,0.2,0.05,0.33,0.05c0.11,0,0.21-0.02,0.29-0.05
			c0.09-0.03,0.16-0.07,0.22-0.13c0.06-0.05,0.1-0.12,0.14-0.2c0.03-0.08,0.05-0.16,0.05-0.25c0-0.1-0.02-0.19-0.07-0.25
			c-0.05-0.07-0.11-0.12-0.18-0.17c-0.08-0.04-0.16-0.08-0.26-0.11c-0.1-0.03-0.2-0.06-0.3-0.1c-0.1-0.03-0.2-0.07-0.3-0.11
			s-0.18-0.1-0.26-0.17c-0.08-0.07-0.14-0.15-0.18-0.25s-0.07-0.23-0.07-0.38c0-0.12,0.02-0.24,0.07-0.35
			c0.05-0.11,0.11-0.21,0.2-0.3c0.09-0.09,0.2-0.16,0.33-0.21c0.13-0.05,0.28-0.08,0.45-0.08c0.19,0,0.36,0.03,0.52,0.09
			c0.16,0.06,0.29,0.15,0.41,0.26L21.99,48.07z"/>
		<path class="st2" d="M24.99,49.58v1.35h-0.46v-1.35l-1.25-2.05h0.4c0.04,0,0.07,0.01,0.1,0.03c0.02,0.02,0.04,0.05,0.06,0.08
			l0.78,1.32c0.03,0.06,0.06,0.11,0.08,0.16s0.04,0.1,0.06,0.15c0.02-0.05,0.04-0.1,0.06-0.15c0.02-0.05,0.05-0.1,0.08-0.15
			l0.78-1.32c0.01-0.03,0.03-0.05,0.06-0.07c0.02-0.02,0.06-0.03,0.1-0.03h0.41L24.99,49.58z"/>
		<path class="st2" d="M30.53,49.24c0,0.25-0.04,0.49-0.12,0.7c-0.08,0.21-0.19,0.39-0.34,0.54c-0.15,0.15-0.32,0.26-0.53,0.35
			c-0.21,0.08-0.43,0.12-0.68,0.12h-1.27v-3.4h1.27c0.25,0,0.48,0.04,0.68,0.12c0.21,0.08,0.38,0.2,0.53,0.35
			c0.15,0.15,0.26,0.33,0.34,0.54C30.49,48.75,30.53,48.98,30.53,49.24z M30.05,49.24c0-0.21-0.03-0.4-0.09-0.56
			c-0.06-0.16-0.14-0.3-0.24-0.42c-0.1-0.11-0.23-0.2-0.38-0.26c-0.15-0.06-0.31-0.09-0.5-0.09h-0.81v2.66h0.81
			c0.18,0,0.35-0.03,0.5-0.09c0.15-0.06,0.28-0.15,0.38-0.26c0.1-0.11,0.19-0.25,0.24-0.42C30.03,49.63,30.05,49.44,30.05,49.24z"/>
		<path class="st2" d="M31.7,50.93h-0.46v-3.4h0.46V50.93z"/>
		<path class="st2" d="M34.35,48.07c-0.01,0.02-0.03,0.04-0.04,0.05c-0.02,0.01-0.04,0.02-0.06,0.02c-0.03,0-0.06-0.01-0.09-0.04
			c-0.04-0.03-0.08-0.06-0.14-0.09c-0.05-0.03-0.12-0.06-0.2-0.09c-0.08-0.03-0.17-0.04-0.28-0.04c-0.1,0-0.19,0.01-0.27,0.04
			c-0.08,0.03-0.14,0.07-0.2,0.11c-0.05,0.05-0.09,0.1-0.12,0.17c-0.03,0.06-0.04,0.13-0.04,0.21c0,0.1,0.02,0.17,0.07,0.24
			c0.05,0.06,0.11,0.12,0.19,0.16c0.08,0.04,0.16,0.08,0.26,0.12c0.1,0.03,0.2,0.07,0.3,0.1s0.2,0.07,0.3,0.12
			c0.1,0.04,0.18,0.1,0.26,0.16c0.08,0.07,0.14,0.15,0.19,0.24s0.07,0.22,0.07,0.36c0,0.15-0.03,0.29-0.08,0.42
			c-0.05,0.13-0.13,0.24-0.22,0.34c-0.1,0.1-0.22,0.17-0.36,0.23c-0.14,0.06-0.3,0.08-0.48,0.08c-0.22,0-0.42-0.04-0.6-0.12
			c-0.18-0.08-0.34-0.19-0.46-0.32l0.13-0.22c0.01-0.02,0.03-0.03,0.05-0.04c0.02-0.01,0.04-0.02,0.06-0.02
			c0.03,0,0.07,0.02,0.11,0.05c0.04,0.04,0.1,0.07,0.16,0.12c0.06,0.04,0.14,0.08,0.23,0.12c0.09,0.04,0.2,0.05,0.33,0.05
			c0.11,0,0.21-0.02,0.29-0.05c0.09-0.03,0.16-0.07,0.22-0.13c0.06-0.05,0.1-0.12,0.14-0.2c0.03-0.08,0.05-0.16,0.05-0.25
			c0-0.1-0.02-0.19-0.07-0.25c-0.05-0.07-0.11-0.12-0.18-0.17c-0.08-0.04-0.16-0.08-0.26-0.11c-0.1-0.03-0.2-0.06-0.3-0.1
			c-0.1-0.03-0.2-0.07-0.3-0.11s-0.18-0.1-0.26-0.17c-0.08-0.07-0.14-0.15-0.18-0.25c-0.05-0.1-0.07-0.23-0.07-0.38
			c0-0.12,0.02-0.24,0.07-0.35c0.05-0.11,0.11-0.21,0.2-0.3c0.09-0.09,0.2-0.16,0.33-0.21c0.13-0.05,0.28-0.08,0.45-0.08
			c0.19,0,0.36,0.03,0.52,0.09c0.16,0.06,0.29,0.15,0.41,0.26L34.35,48.07z"/>
		<path class="st2" d="M37.22,47.53v0.37h-1.63v1.13h1.32v0.36h-1.32v1.16h1.63v0.37h-2.1v-3.4H37.22z"/>
		<path class="st2" d="M38.21,47.55c0.02,0.01,0.04,0.03,0.07,0.06l1.97,2.56c-0.01-0.04-0.01-0.08-0.01-0.12c0-0.04,0-0.08,0-0.11
			v-2.41h0.4v3.4h-0.23c-0.04,0-0.07-0.01-0.09-0.02c-0.02-0.01-0.05-0.03-0.07-0.06l-1.97-2.56c0,0.04,0.01,0.08,0.01,0.12
			c0,0.04,0,0.07,0,0.1v2.42h-0.4v-3.4h0.24C38.16,47.53,38.19,47.54,38.21,47.55z M39.61,46.99c0.06,0,0.1-0.02,0.13-0.05
			c0.03-0.03,0.04-0.08,0.05-0.14h0.23c0,0.07-0.01,0.13-0.03,0.19c-0.02,0.06-0.04,0.11-0.08,0.15c-0.03,0.04-0.07,0.07-0.12,0.1
			c-0.05,0.02-0.11,0.03-0.17,0.03c-0.06,0-0.11-0.01-0.16-0.03c-0.05-0.02-0.1-0.04-0.15-0.07c-0.05-0.02-0.09-0.05-0.13-0.07
			c-0.04-0.02-0.08-0.03-0.12-0.03c-0.05,0-0.1,0.02-0.12,0.05c-0.03,0.03-0.05,0.08-0.05,0.14h-0.24c0-0.07,0.01-0.13,0.03-0.19
			c0.02-0.06,0.04-0.11,0.08-0.15c0.03-0.04,0.08-0.07,0.13-0.1c0.05-0.02,0.11-0.04,0.17-0.04c0.06,0,0.11,0.01,0.16,0.03
			c0.05,0.02,0.1,0.04,0.15,0.07c0.05,0.02,0.09,0.05,0.13,0.07C39.53,46.98,39.57,46.99,39.61,46.99z"/>
		<path class="st2" d="M44.63,49.24c0,0.25-0.04,0.49-0.12,0.7c-0.08,0.21-0.19,0.4-0.34,0.55c-0.15,0.15-0.32,0.27-0.53,0.36
			c-0.21,0.08-0.43,0.13-0.69,0.13s-0.48-0.04-0.68-0.13s-0.38-0.2-0.53-0.36c-0.15-0.15-0.26-0.34-0.34-0.55
			c-0.08-0.21-0.12-0.45-0.12-0.7c0-0.25,0.04-0.49,0.12-0.7c0.08-0.21,0.19-0.4,0.34-0.55c0.15-0.15,0.32-0.27,0.53-0.36
			c0.21-0.09,0.43-0.13,0.68-0.13s0.48,0.04,0.69,0.13c0.21,0.09,0.38,0.2,0.53,0.36c0.15,0.15,0.26,0.34,0.34,0.55
			C44.59,48.75,44.63,48.98,44.63,49.24z M44.16,49.24c0-0.21-0.03-0.4-0.09-0.56c-0.06-0.17-0.14-0.31-0.24-0.42
			c-0.1-0.11-0.23-0.2-0.38-0.26c-0.15-0.06-0.32-0.09-0.5-0.09c-0.18,0-0.35,0.03-0.5,0.09c-0.15,0.06-0.28,0.15-0.38,0.26
			c-0.1,0.11-0.19,0.25-0.24,0.42c-0.06,0.17-0.09,0.35-0.09,0.56c0,0.21,0.03,0.4,0.09,0.56c0.06,0.17,0.14,0.31,0.24,0.42
			c0.11,0.11,0.23,0.2,0.38,0.26c0.15,0.06,0.31,0.09,0.5,0.09c0.18,0,0.35-0.03,0.5-0.09c0.15-0.06,0.28-0.15,0.38-0.26
			c0.1-0.11,0.19-0.25,0.24-0.42C44.13,49.63,44.16,49.44,44.16,49.24z"/>
	</g>
</g>
</svg>
