<?xml version="1.0" encoding="utf-8"?>
<!-- Generator: Adobe Illustrator 24.0.2, SVG Export Plug-In . SVG Version: 6.00 Build 0)  -->
<svg version="1.1" id="Capa_1" xmlns="http://www.w3.org/2000/svg" xmlns:xlink="http://www.w3.org/1999/xlink" x="0px" y="0px"
	 viewBox="0 0 49.54 49.54" style="enable-background:new 0 0 49.54 49.54;" xml:space="preserve">
<style type="text/css">
	.st0{fill:#FFFFFF;}
	.st1{fill:#F08224;}
	.st2{fill:#020203;}
	.st3{fill:#789C4A;}
	.st4{fill:#853236;}
	.st5{fill:#BC8D47;}
	.st6{fill:#FF4713;}
	.st7{fill:#F09F54;}
	.st8{fill:none;stroke:#F09F54;stroke-width:0.7594;stroke-miterlimit:10;}
	.st9{fill:#EA8130;}
	.st10{fill:#3E7895;}
	.st11{fill:#B6CED7;}
	.st12{fill:#231F20;}
	.st13{fill:#065C7B;}
	.st14{fill:#00AF9A;}
	.st15{fill:#0083C1;}
	.st16{fill:#7B868C;}
	.st17{fill:#BAC0C3;}
	.st18{fill:#0B9691;}
	.st19{fill:#6BDAD5;}
	.st20{fill:#62C0BE;}
	.st21{fill:#009490;}
	.st22{fill:#036784;}
	.st23{fill:#82AEBD;}
	.st24{fill:#B0CCD9;}
	.st25{fill:none;}
	.st26{font-family:'Lato-Bold';}
	.st27{font-size:4.4559px;}
	.st28{fill:#CE0E2D;}
	.st29{fill:#29787B;}
	.st30{fill:#D11317;}
</style>
<g>
	<g>
		<rect class="st0" width="49.54" height="49.54"/>
	</g>
	<rect x="6.29" y="38.16" class="st25" width="36.97" height="9.78"/>
	<text transform="matrix(1 0 0 1 13.0444 41.4684)"><tspan x="0" y="0" class="st2 st26 st27">INSTITUTO</tspan><tspan x="1.16" y="5.35" class="st2 st26 st27">BALSEIRO</tspan></text>
	<path class="st28" d="M40.43,6.43c0.03,1.08-0.13,3.21-4.27,9.37c-2.57,3.84-12.53,15.47-21.51,16.69
		c-2.26,0.31-5.55,0.05-5.54-6.43c0-4.47,4.34-9.85,4.34-9.85s0.59-1.12,1.54-1.02c0.95,0.1,0.38,1.52,1.02,1.64
		c0.64,0.12,1.93,0.25,2.25,0.13c0.32-0.12,1.11-0.21,1.44-0.12c0.33,0.09,0.83-0.24,1.28,0c0.44,0.24,0.79,0.32,0.02,1.03
		c-0.77,0.72-4.51,4.73-5.29,6.62c-0.78,1.89-1.15,4.22,0.77,4.05c1.93-0.17,4.53-0.58,9.65-4.77c5.12-4.19,9.37-9.44,9.76-9.93
		c0.39-0.48,4.48-5.74,3.94-7.43C39.6,5.76,39.1,5.69,39.1,5.26c0-0.43,0.15-0.36,0.44-0.22C39.84,5.18,40.4,5.34,40.43,6.43
		 M16.2,13.8c0.31-0.06,1.23,0.02,1.77-0.11c0.33-0.08,0.15,0.67,0.33,1.11c0.18,0.44,0.75,0.43,1.04,0.41
		c0.29-0.01,0.74,0.43,1.06,0.65c0.32,0.22,2.02-0.05,3.29-0.55c1.27-0.5,2.46-2.58,1.33-4.74c-1.13-2.16-3.58-1.78-4.88-1.38
		c-1.3,0.4-4.31,3.92-4.31,3.92C15.42,13.56,15.92,13.85,16.2,13.8"/>
</g>
</svg>
