<?xml version="1.0" encoding="utf-8"?>
<!-- Generator: Adobe Illustrator 24.0.2, SVG Export Plug-In . SVG Version: 6.00 Build 0)  -->
<svg version="1.1" id="Capa_1" xmlns="http://www.w3.org/2000/svg" xmlns:xlink="http://www.w3.org/1999/xlink" x="0px" y="0px"
	 viewBox="0 0 52.77 52.77" style="enable-background:new 0 0 52.77 52.77;" xml:space="preserve">
<style type="text/css">
	.st0{fill:#FFFFFF;}
	.st1{fill:#F08224;}
	.st2{fill:#020203;}
	.st3{fill:#789C4A;}
	.st4{fill:#853236;}
	.st5{fill:#BC8D47;}
	.st6{fill:#FF4713;}
	.st7{fill:#F09F54;}
	.st8{fill:none;stroke:#F09F54;stroke-width:0.7594;stroke-miterlimit:10;}
	.st9{fill:#EA8130;}
	.st10{fill:#3E7895;}
	.st11{fill:#B6CED7;}
	.st12{fill:#231F20;}
	.st13{fill:#065C7B;}
	.st14{fill:#00AF9A;}
	.st15{fill:#0083C1;}
	.st16{fill:#7B868C;}
	.st17{fill:#BAC0C3;}
	.st18{fill:#0B9691;}
	.st19{fill:#6BDAD5;}
	.st20{fill:#62C0BE;}
	.st21{fill:#009490;}
	.st22{fill:#036784;}
	.st23{fill:#82AEBD;}
	.st24{fill:#B0CCD9;}
	.st25{fill:#CE0E2D;}
	.st26{fill:#29787B;}
	.st27{fill:#D11317;}
</style>
<g>
	<g>
		<rect class="st0" width="52.77" height="52.77"/>
	</g>
	<g>
		<g>
			<path class="st9" d="M20.83,7.37c0.48-0.1-0.29,0.28-0.51,0.55c-0.64,0.8-5,2.73-4.88,12.2c0.1,7.93,9.15,12.21,9.15,12.21
				S20.83,33.04,16,30.7c0,0-2.56-1.79-4.02-8.24C10.56,16.16,16.76,8.23,20.83,7.37"/>
			<path class="st10" d="M18.29,32.74c0,0,12,3.46,17.39-7.22c5.39-10.68-3.66-18.16-3.66-18.16s6,1.99,8.44,9.77
				c2.1,6.71-2.44,14.29-6.61,16.12C23.92,37.6,18.29,32.74,18.29,32.74"/>
			<path class="st11" d="M17.58,13.06c0,0,2.13-4.45,5.49-6.37c0,0,2.41-1.28,6.57,0c0,0,4.62,3.16,5.53,6.37c0,0-4.32-3.1-8.8-3.05
				C21.9,10.06,20.58,11.08,17.58,13.06"/>
		</g>
		<polygon class="st12" points="18.83,17.96 22.03,17.96 22.03,18.72 19.69,18.72 19.69,20.47 21.92,20.47 21.92,21.23 19.69,21.23 
			19.69,23.97 18.83,23.97 		"/>
		<g>
			<path class="st12" d="M26.91,18.95c-0.38-0.22-0.8-0.34-1.24-0.34c-1.39,0-2.31,1-2.31,2.35c0,1.41,1.02,2.35,2.26,2.35
				c0.43,0,1.01-0.11,1.31-0.29l0.05,0.84c-0.46,0.19-1.02,0.21-1.37,0.21c-1.9,0-3.17-1.22-3.17-3.13c0-1.85,1.34-3.08,3.18-3.08
				c0.46,0,0.92,0.07,1.35,0.26L26.91,18.95z"/>
		</g>
		<polygon class="st12" points="27.6,17.96 29.02,17.96 30.9,22.95 32.75,17.96 34.17,17.96 34.17,23.97 33.31,23.97 33.31,18.77 
			33.3,18.77 31.31,23.97 30.46,23.97 28.47,18.77 28.46,18.77 28.46,23.97 27.6,23.97 		"/>
	</g>
	<g>
		<path class="st2" d="M13.42,40.74v0.37h-1.63v1.19h1.4v0.37h-1.4v1.46h-0.46v-3.4H13.42z"/>
		<path class="st2" d="M16.49,44.14h-0.36c-0.04,0-0.07-0.01-0.1-0.03c-0.03-0.02-0.04-0.05-0.06-0.08l-0.32-0.82h-1.53l-0.32,0.82
			c-0.01,0.03-0.03,0.05-0.06,0.08c-0.03,0.02-0.06,0.03-0.1,0.03h-0.36l1.36-3.4h0.47L16.49,44.14z M14.26,42.88h1.27L15,41.5
			c-0.04-0.09-0.07-0.19-0.1-0.32c-0.02,0.06-0.04,0.12-0.05,0.18c-0.02,0.05-0.03,0.1-0.05,0.14L14.26,42.88z"/>
		<path class="st2" d="M19.22,43.44c0.03,0,0.05,0.01,0.07,0.03l0.18,0.2c-0.14,0.16-0.31,0.29-0.51,0.38
			c-0.2,0.09-0.44,0.14-0.72,0.14c-0.24,0-0.47-0.04-0.67-0.13c-0.2-0.08-0.37-0.2-0.51-0.36c-0.14-0.15-0.25-0.34-0.33-0.55
			s-0.12-0.45-0.12-0.71s0.04-0.49,0.12-0.71c0.08-0.21,0.2-0.4,0.35-0.55c0.15-0.15,0.33-0.27,0.54-0.36s0.44-0.13,0.69-0.13
			c0.25,0,0.47,0.04,0.65,0.12c0.18,0.08,0.34,0.18,0.48,0.32l-0.15,0.21c-0.01,0.02-0.02,0.03-0.04,0.04
			c-0.01,0.01-0.03,0.02-0.06,0.02c-0.02,0-0.04-0.01-0.07-0.02c-0.02-0.02-0.05-0.03-0.08-0.06c-0.03-0.02-0.07-0.05-0.11-0.07
			c-0.04-0.03-0.09-0.05-0.15-0.07s-0.13-0.04-0.2-0.06c-0.08-0.01-0.17-0.02-0.27-0.02c-0.18,0-0.35,0.03-0.5,0.09
			c-0.15,0.06-0.28,0.15-0.39,0.27c-0.11,0.12-0.19,0.26-0.25,0.42c-0.06,0.17-0.09,0.35-0.09,0.56c0,0.21,0.03,0.4,0.09,0.57
			c0.06,0.17,0.14,0.31,0.25,0.42c0.1,0.11,0.23,0.2,0.37,0.26c0.14,0.06,0.3,0.09,0.47,0.09c0.1,0,0.19-0.01,0.27-0.02
			c0.08-0.01,0.16-0.03,0.22-0.06c0.07-0.03,0.13-0.06,0.19-0.1c0.06-0.04,0.12-0.09,0.18-0.14C19.17,43.45,19.19,43.44,19.22,43.44
			z"/>
		<path class="st2" d="M21.4,43.78c0.14,0,0.27-0.02,0.38-0.07c0.11-0.05,0.2-0.11,0.28-0.2c0.08-0.09,0.14-0.19,0.18-0.31
			c0.04-0.12,0.06-0.25,0.06-0.39v-2.07h0.46v2.07c0,0.2-0.03,0.38-0.09,0.55c-0.06,0.17-0.15,0.31-0.27,0.44
			c-0.12,0.12-0.26,0.22-0.43,0.29c-0.17,0.07-0.36,0.1-0.56,0.1c-0.21,0-0.4-0.03-0.57-0.1c-0.17-0.07-0.31-0.17-0.43-0.29
			c-0.12-0.12-0.21-0.27-0.27-0.44c-0.06-0.17-0.09-0.35-0.09-0.55v-2.07h0.46v2.06c0,0.14,0.02,0.27,0.06,0.39
			c0.04,0.12,0.1,0.22,0.18,0.31c0.08,0.09,0.17,0.15,0.28,0.2C21.13,43.75,21.26,43.78,21.4,43.78z"/>
		<path class="st2" d="M24,43.76h1.47v0.39h-1.93v-3.4H24V43.76z"/>
		<path class="st2" d="M27.89,40.74v0.39h-1.1v3.01h-0.46v-3.01h-1.1v-0.39H27.89z"/>
		<path class="st2" d="M30.86,44.14H30.5c-0.04,0-0.07-0.01-0.1-0.03c-0.03-0.02-0.04-0.05-0.06-0.08l-0.32-0.82H28.5l-0.32,0.82
			c-0.01,0.03-0.03,0.05-0.06,0.08c-0.03,0.02-0.06,0.03-0.1,0.03h-0.36l1.36-3.4h0.47L30.86,44.14z M28.63,42.88h1.27l-0.53-1.38
			c-0.04-0.09-0.07-0.19-0.1-0.32c-0.02,0.06-0.04,0.12-0.05,0.18c-0.02,0.05-0.03,0.1-0.05,0.14L28.63,42.88z"/>
		<path class="st2" d="M34.23,42.44c0,0.25-0.04,0.49-0.12,0.7c-0.08,0.21-0.19,0.39-0.34,0.54c-0.15,0.15-0.32,0.26-0.53,0.35
			c-0.21,0.08-0.43,0.12-0.68,0.12h-1.27v-3.4h1.27c0.25,0,0.48,0.04,0.68,0.12c0.2,0.08,0.38,0.2,0.53,0.35
			c0.15,0.15,0.26,0.33,0.34,0.54C34.19,41.96,34.23,42.19,34.23,42.44z M33.76,42.44c0-0.21-0.03-0.4-0.09-0.56
			c-0.06-0.16-0.14-0.3-0.24-0.42c-0.1-0.11-0.23-0.2-0.38-0.26c-0.15-0.06-0.31-0.09-0.5-0.09h-0.81v2.66h0.81
			c0.18,0,0.35-0.03,0.5-0.09c0.15-0.06,0.28-0.15,0.38-0.26s0.19-0.25,0.24-0.42C33.73,42.84,33.76,42.65,33.76,42.44z"/>
		<path class="st2" d="M38.72,42.44c0,0.25-0.04,0.49-0.12,0.7c-0.08,0.21-0.19,0.39-0.34,0.54c-0.15,0.15-0.32,0.26-0.53,0.35
			c-0.21,0.08-0.43,0.12-0.68,0.12h-1.27v-3.4h1.27c0.25,0,0.48,0.04,0.68,0.12c0.21,0.08,0.38,0.2,0.53,0.35
			c0.15,0.15,0.26,0.33,0.34,0.54C38.68,41.96,38.72,42.19,38.72,42.44z M38.25,42.44c0-0.21-0.03-0.4-0.09-0.56
			c-0.06-0.16-0.14-0.3-0.24-0.42c-0.1-0.11-0.23-0.2-0.38-0.26c-0.15-0.06-0.31-0.09-0.5-0.09h-0.81v2.66h0.81
			c0.18,0,0.35-0.03,0.5-0.09c0.15-0.06,0.28-0.15,0.38-0.26c0.1-0.11,0.19-0.25,0.24-0.42C38.22,42.84,38.25,42.65,38.25,42.44z"/>
		<path class="st2" d="M41.45,40.74v0.37h-1.63v1.13h1.32v0.36h-1.32v1.16h1.63v0.37h-2.1v-3.4H41.45z"/>
		<path class="st2" d="M14.69,49.14c0.03,0,0.05,0.01,0.07,0.03l0.18,0.2c-0.14,0.16-0.31,0.29-0.51,0.38
			c-0.2,0.09-0.44,0.14-0.72,0.14c-0.25,0-0.47-0.04-0.67-0.13c-0.2-0.08-0.37-0.2-0.51-0.36c-0.14-0.15-0.25-0.34-0.33-0.55
			c-0.08-0.21-0.12-0.45-0.12-0.71c0-0.26,0.04-0.49,0.13-0.71c0.08-0.21,0.2-0.4,0.35-0.55c0.15-0.15,0.33-0.27,0.54-0.36
			c0.21-0.08,0.44-0.13,0.69-0.13c0.25,0,0.47,0.04,0.65,0.12s0.34,0.18,0.48,0.32l-0.15,0.21c-0.01,0.02-0.02,0.03-0.04,0.04
			c-0.01,0.01-0.04,0.02-0.06,0.02c-0.02,0-0.04-0.01-0.06-0.02c-0.02-0.02-0.05-0.03-0.08-0.06c-0.03-0.02-0.07-0.05-0.11-0.07
			c-0.04-0.03-0.09-0.05-0.15-0.07c-0.06-0.02-0.13-0.04-0.2-0.06c-0.08-0.01-0.17-0.02-0.27-0.02c-0.18,0-0.35,0.03-0.5,0.09
			c-0.15,0.06-0.28,0.15-0.39,0.27c-0.11,0.12-0.19,0.26-0.25,0.42c-0.06,0.17-0.09,0.35-0.09,0.56c0,0.21,0.03,0.4,0.09,0.57
			c0.06,0.17,0.14,0.31,0.25,0.42c0.11,0.11,0.23,0.2,0.37,0.26c0.14,0.06,0.3,0.09,0.46,0.09c0.1,0,0.19-0.01,0.27-0.02
			c0.08-0.01,0.15-0.03,0.22-0.06c0.07-0.03,0.13-0.06,0.19-0.1c0.06-0.04,0.12-0.09,0.18-0.14C14.64,49.15,14.67,49.14,14.69,49.14
			z"/>
		<path class="st2" d="M17.29,46.97c-0.01,0.02-0.03,0.04-0.04,0.05c-0.02,0.01-0.04,0.02-0.06,0.02c-0.03,0-0.06-0.01-0.09-0.04
			c-0.04-0.03-0.08-0.06-0.14-0.09c-0.05-0.03-0.12-0.06-0.2-0.09c-0.08-0.03-0.17-0.04-0.28-0.04c-0.1,0-0.19,0.01-0.27,0.04
			c-0.08,0.03-0.14,0.07-0.2,0.11c-0.05,0.05-0.09,0.1-0.12,0.17c-0.03,0.06-0.04,0.13-0.04,0.21c0,0.1,0.02,0.17,0.07,0.24
			c0.05,0.06,0.11,0.12,0.19,0.16c0.08,0.04,0.16,0.08,0.26,0.12c0.1,0.03,0.2,0.07,0.3,0.1c0.1,0.03,0.2,0.07,0.3,0.12
			c0.1,0.04,0.18,0.1,0.26,0.16c0.08,0.07,0.14,0.15,0.19,0.24c0.05,0.1,0.07,0.22,0.07,0.36c0,0.15-0.03,0.29-0.08,0.42
			c-0.05,0.13-0.13,0.24-0.22,0.34c-0.1,0.1-0.22,0.17-0.36,0.23c-0.14,0.06-0.3,0.08-0.48,0.08c-0.22,0-0.42-0.04-0.6-0.12
			c-0.18-0.08-0.34-0.19-0.46-0.32l0.13-0.22c0.01-0.02,0.03-0.03,0.05-0.04c0.02-0.01,0.04-0.02,0.06-0.02
			c0.03,0,0.07,0.02,0.11,0.05c0.04,0.04,0.1,0.07,0.16,0.12c0.06,0.04,0.14,0.08,0.23,0.12c0.09,0.04,0.2,0.05,0.33,0.05
			c0.11,0,0.21-0.02,0.29-0.05c0.09-0.03,0.16-0.07,0.22-0.13c0.06-0.05,0.1-0.12,0.14-0.2c0.03-0.08,0.05-0.16,0.05-0.25
			c0-0.1-0.02-0.19-0.07-0.25c-0.05-0.07-0.11-0.12-0.18-0.17c-0.08-0.04-0.16-0.08-0.26-0.11c-0.1-0.03-0.2-0.06-0.3-0.1
			c-0.1-0.03-0.2-0.07-0.3-0.11c-0.1-0.04-0.18-0.1-0.26-0.17c-0.08-0.07-0.14-0.15-0.18-0.25c-0.05-0.1-0.07-0.23-0.07-0.38
			c0-0.12,0.02-0.24,0.07-0.35c0.05-0.11,0.11-0.21,0.2-0.3c0.09-0.09,0.2-0.16,0.33-0.21c0.13-0.05,0.28-0.08,0.45-0.08
			c0.19,0,0.36,0.03,0.52,0.09c0.16,0.06,0.29,0.15,0.41,0.26L17.29,46.97z"/>
		<path class="st2" d="M17.86,49.58c0-0.04,0.01-0.08,0.02-0.12c0.01-0.04,0.04-0.07,0.06-0.1c0.03-0.03,0.06-0.05,0.09-0.06
			c0.04-0.02,0.08-0.02,0.12-0.02c0.04,0,0.08,0.01,0.12,0.02c0.04,0.02,0.07,0.04,0.1,0.06c0.03,0.03,0.05,0.06,0.06,0.1
			c0.01,0.04,0.02,0.08,0.02,0.12c0,0.04-0.01,0.08-0.02,0.12c-0.02,0.04-0.04,0.07-0.06,0.09c-0.03,0.03-0.06,0.05-0.1,0.06
			c-0.04,0.02-0.08,0.02-0.12,0.02c-0.04,0-0.08-0.01-0.12-0.02c-0.04-0.01-0.07-0.04-0.09-0.06c-0.03-0.03-0.05-0.06-0.06-0.09
			C17.87,49.66,17.86,49.62,17.86,49.58z"/>
		<path class="st2" d="M21.72,48.73c0.02,0.04,0.03,0.08,0.05,0.13c0.02-0.04,0.03-0.09,0.05-0.13s0.04-0.08,0.06-0.12l1.15-2.09
			c0.02-0.04,0.04-0.06,0.06-0.07c0.02-0.01,0.05-0.01,0.09-0.01h0.34v3.4h-0.4v-2.5c0-0.03,0-0.07,0-0.11c0-0.04,0-0.08,0.01-0.12
			l-1.17,2.13c-0.04,0.07-0.09,0.11-0.17,0.11h-0.07c-0.07,0-0.13-0.04-0.17-0.11l-1.19-2.13c0,0.04,0.01,0.08,0.01,0.12
			c0,0.04,0,0.08,0,0.11v2.5h-0.4v-3.4h0.34c0.04,0,0.07,0,0.1,0.01s0.04,0.03,0.06,0.07l1.17,2.09
			C21.68,48.65,21.7,48.69,21.72,48.73z"/>
		<path class="st2" d="M26.45,46.44v0.37h-1.63v1.13h1.32v0.36h-1.32v1.16h1.63v0.37h-2.1v-3.4H26.45z M26.24,45.61l-0.7,0.51
			c-0.03,0.02-0.05,0.03-0.07,0.04c-0.02,0.01-0.05,0.01-0.08,0.01h-0.33l0.5-0.48c0.02-0.02,0.03-0.03,0.04-0.04
			c0.01-0.01,0.03-0.02,0.04-0.02c0.01-0.01,0.03-0.01,0.05-0.01c0.02,0,0.04,0,0.07,0H26.24z"/>
		<path class="st2" d="M30.06,48.14c0,0.25-0.04,0.49-0.12,0.7c-0.08,0.21-0.19,0.39-0.34,0.54c-0.15,0.15-0.32,0.26-0.53,0.35
			c-0.21,0.08-0.43,0.12-0.68,0.12h-1.27v-3.4h1.27c0.25,0,0.48,0.04,0.68,0.12c0.2,0.08,0.38,0.2,0.53,0.35
			c0.15,0.15,0.26,0.33,0.34,0.54C30.02,47.65,30.06,47.89,30.06,48.14z M29.58,48.14c0-0.21-0.03-0.4-0.09-0.56
			c-0.06-0.16-0.14-0.3-0.24-0.42c-0.1-0.11-0.23-0.2-0.38-0.26c-0.15-0.06-0.31-0.09-0.5-0.09h-0.81v2.66h0.81
			c0.18,0,0.35-0.03,0.5-0.09c0.15-0.06,0.28-0.15,0.38-0.26s0.19-0.25,0.24-0.42C29.56,48.54,29.58,48.35,29.58,48.14z"/>
		<path class="st2" d="M31.23,49.84h-0.46v-3.4h0.46V49.84z"/>
		<path class="st2" d="M34.54,49.14c0.03,0,0.05,0.01,0.07,0.03l0.18,0.2c-0.14,0.16-0.31,0.29-0.51,0.38
			c-0.2,0.09-0.44,0.14-0.72,0.14c-0.24,0-0.47-0.04-0.67-0.13c-0.2-0.08-0.37-0.2-0.51-0.36c-0.14-0.15-0.25-0.34-0.33-0.55
			c-0.08-0.21-0.12-0.45-0.12-0.71c0-0.26,0.04-0.49,0.12-0.71c0.08-0.21,0.2-0.4,0.35-0.55c0.15-0.15,0.33-0.27,0.54-0.36
			c0.21-0.08,0.44-0.13,0.69-0.13c0.25,0,0.47,0.04,0.65,0.12c0.18,0.08,0.34,0.18,0.48,0.32l-0.15,0.21
			c-0.01,0.02-0.02,0.03-0.04,0.04c-0.01,0.01-0.03,0.02-0.06,0.02c-0.02,0-0.04-0.01-0.07-0.02c-0.02-0.02-0.05-0.03-0.08-0.06
			c-0.03-0.02-0.07-0.05-0.11-0.07c-0.04-0.03-0.09-0.05-0.15-0.07c-0.06-0.02-0.13-0.04-0.2-0.06c-0.08-0.01-0.17-0.02-0.27-0.02
			c-0.18,0-0.35,0.03-0.5,0.09c-0.15,0.06-0.28,0.15-0.39,0.27c-0.11,0.12-0.19,0.26-0.25,0.42c-0.06,0.17-0.09,0.35-0.09,0.56
			c0,0.21,0.03,0.4,0.09,0.57c0.06,0.17,0.14,0.31,0.25,0.42c0.1,0.11,0.23,0.2,0.37,0.26c0.14,0.06,0.3,0.09,0.47,0.09
			c0.1,0,0.19-0.01,0.27-0.02c0.08-0.01,0.16-0.03,0.22-0.06c0.07-0.03,0.13-0.06,0.19-0.1c0.06-0.04,0.12-0.09,0.18-0.14
			C34.49,49.15,34.51,49.14,34.54,49.14z"/>
		<path class="st2" d="M38.19,49.84h-0.36c-0.04,0-0.07-0.01-0.1-0.03c-0.03-0.02-0.04-0.05-0.06-0.08l-0.32-0.82h-1.53l-0.32,0.82
			c-0.01,0.03-0.03,0.05-0.06,0.08c-0.03,0.02-0.06,0.03-0.1,0.03H35l1.36-3.4h0.47L38.19,49.84z M35.96,48.58h1.27l-0.53-1.38
			c-0.04-0.09-0.07-0.19-0.1-0.32c-0.02,0.06-0.04,0.12-0.05,0.18c-0.02,0.05-0.03,0.1-0.05,0.14L35.96,48.58z"/>
		<path class="st2" d="M40.36,46.97c-0.01,0.02-0.03,0.04-0.04,0.05c-0.02,0.01-0.04,0.02-0.06,0.02c-0.03,0-0.06-0.01-0.09-0.04
			c-0.04-0.03-0.08-0.06-0.14-0.09c-0.05-0.03-0.12-0.06-0.2-0.09c-0.08-0.03-0.17-0.04-0.28-0.04c-0.1,0-0.19,0.01-0.27,0.04
			c-0.08,0.03-0.14,0.07-0.2,0.11c-0.05,0.05-0.09,0.1-0.12,0.17c-0.03,0.06-0.04,0.13-0.04,0.21c0,0.1,0.02,0.17,0.07,0.24
			c0.05,0.06,0.11,0.12,0.19,0.16c0.08,0.04,0.16,0.08,0.26,0.12c0.1,0.03,0.2,0.07,0.3,0.1c0.1,0.03,0.2,0.07,0.3,0.12
			c0.1,0.04,0.18,0.1,0.26,0.16c0.08,0.07,0.14,0.15,0.19,0.24s0.07,0.22,0.07,0.36c0,0.15-0.03,0.29-0.08,0.42
			c-0.05,0.13-0.13,0.24-0.22,0.34c-0.1,0.1-0.22,0.17-0.36,0.23c-0.14,0.06-0.3,0.08-0.48,0.08c-0.22,0-0.42-0.04-0.6-0.12
			c-0.18-0.08-0.34-0.19-0.46-0.32l0.13-0.22c0.01-0.02,0.03-0.03,0.05-0.04c0.02-0.01,0.04-0.02,0.06-0.02
			c0.03,0,0.07,0.02,0.11,0.05c0.04,0.04,0.1,0.07,0.16,0.12c0.06,0.04,0.14,0.08,0.23,0.12c0.09,0.04,0.2,0.05,0.33,0.05
			c0.11,0,0.21-0.02,0.29-0.05c0.09-0.03,0.16-0.07,0.22-0.13c0.06-0.05,0.1-0.12,0.14-0.2c0.03-0.08,0.05-0.16,0.05-0.25
			c0-0.1-0.02-0.19-0.07-0.25c-0.05-0.07-0.11-0.12-0.18-0.17c-0.08-0.04-0.16-0.08-0.26-0.11c-0.1-0.03-0.2-0.06-0.3-0.1
			c-0.1-0.03-0.2-0.07-0.3-0.11c-0.1-0.04-0.18-0.1-0.26-0.17c-0.08-0.07-0.14-0.15-0.18-0.25c-0.05-0.1-0.07-0.23-0.07-0.38
			c0-0.12,0.02-0.24,0.07-0.35c0.05-0.11,0.11-0.21,0.2-0.3c0.09-0.09,0.2-0.16,0.33-0.21c0.13-0.05,0.28-0.08,0.45-0.08
			c0.19,0,0.36,0.03,0.52,0.09c0.16,0.06,0.29,0.15,0.41,0.26L40.36,46.97z"/>
	</g>
</g>
</svg>
