<?xml version="1.0" encoding="utf-8"?>
<!-- Generator: Adobe Illustrator 24.0.2, SVG Export Plug-In . SVG Version: 6.00 Build 0)  -->
<svg version="1.1" id="Capa_1" xmlns="http://www.w3.org/2000/svg" xmlns:xlink="http://www.w3.org/1999/xlink" x="0px" y="0px"
	 viewBox="0 0 52.77 52.77" style="enable-background:new 0 0 52.77 52.77;" xml:space="preserve">
<style type="text/css">
	.st0{fill:#FFFFFF;}
	.st1{fill:#F08224;}
	.st2{fill:#020203;}
	.st3{fill:#789C4A;}
	.st4{fill:#853236;}
	.st5{fill:#BC8D47;}
	.st6{fill:#FF4713;}
	.st7{fill:#F09F54;}
	.st8{fill:none;stroke:#F09F54;stroke-width:0.7594;stroke-miterlimit:10;}
	.st9{fill:#EA8130;}
	.st10{fill:#3E7895;}
	.st11{fill:#B6CED7;}
	.st12{fill:#231F20;}
	.st13{fill:#065C7B;}
	.st14{fill:#00AF9A;}
	.st15{fill:#0083C1;}
	.st16{fill:#7B868C;}
	.st17{fill:#BAC0C3;}
	.st18{fill:#0B9691;}
	.st19{fill:#6BDAD5;}
	.st20{fill:#62C0BE;}
	.st21{fill:#009490;}
	.st22{fill:#036784;}
	.st23{fill:#82AEBD;}
	.st24{fill:#B0CCD9;}
	.st25{fill:#CE0E2D;}
	.st26{fill:#29787B;}
	.st27{fill:#D11317;}
</style>
<g>
	<g>
		<rect class="st0" width="52.77" height="52.77"/>
	</g>
	<g>
		<path class="st15" d="M25.64,7.35c-10.84-0.47-10.86,4.4-11.04,10.98c0,0.04,0,0.11-0.04,0.12c-0.04,0.01-0.81-0.05-1.33,0.77
			c-0.91,1.41-1.22,4.41-1.1,4.08c0.25-0.68,0.53-1.39,0.95-1.82c0.54-0.55,1.07-0.21,1.35,0c0.03,0.02,0.03,0.09,0.02,0.13
			c-0.29,3.93-1.19,8.2-4.6,12.2c7.18-0.1,8.27-5.31,8.74-11.11c0-0.05,0.01-0.15,0.05-0.18c0.83-0.55,1.52-1.24,2.08-1.94
			c0.86-1.09,1.59-2.29,1.43-2.1c-0.3,0.34-0.74,0.92-1.36,1.22c-0.91,0.43-1.17,0.39-1.95,0.28c-0.04-0.01-0.04-0.09-0.04-0.14
			C19.2,14.2,19.86,8.7,25.64,7.35 M33.61,7.35c-18.64-0.8-5.29,14.17-15.79,26.46c7.18-0.1,8.27-5.31,8.74-11.11
			c0-0.05,0.01-0.15,0.05-0.18c0.83-0.55,1.52-1.24,2.08-1.94c0.86-1.09,1.58-2.29,1.42-2.1c-0.29,0.34-0.74,0.92-1.36,1.22
			c-0.91,0.43-1.17,0.39-1.95,0.28c-0.04-0.01-0.04-0.09-0.04-0.14C27.17,14.2,27.82,8.7,33.61,7.35 M41.69,7.33
			C23.06,6.53,36.4,21.5,25.9,33.79C41.1,33.57,29.02,10.29,41.69,7.33 M42.92,29.19c-4.1,6.12-3.61-6.07-11.47,4.68
			C36.15,28.33,41.33,39.7,42.92,29.19"/>
	</g>
	<g>
		<path class="st2" d="M13.38,40.74v0.37h-1.63v1.19h1.4v0.37h-1.4v1.46h-0.46v-3.4H13.38z"/>
		<path class="st2" d="M16.46,44.14H16.1c-0.04,0-0.07-0.01-0.1-0.03c-0.03-0.02-0.04-0.05-0.06-0.08l-0.32-0.82H14.1l-0.32,0.82
			c-0.01,0.03-0.03,0.05-0.06,0.08c-0.03,0.02-0.06,0.03-0.1,0.03h-0.36l1.36-3.4h0.47L16.46,44.14z M14.23,42.88h1.27l-0.53-1.38
			c-0.03-0.09-0.07-0.19-0.1-0.32c-0.02,0.06-0.03,0.12-0.05,0.18c-0.02,0.05-0.03,0.1-0.05,0.14L14.23,42.88z"/>
		<path class="st2" d="M19.18,43.44c0.03,0,0.05,0.01,0.07,0.03l0.18,0.2c-0.14,0.16-0.31,0.29-0.51,0.38
			c-0.2,0.09-0.44,0.14-0.72,0.14c-0.25,0-0.47-0.04-0.67-0.13c-0.2-0.08-0.37-0.2-0.51-0.36c-0.14-0.15-0.25-0.34-0.33-0.55
			c-0.08-0.21-0.12-0.45-0.12-0.71s0.04-0.49,0.13-0.71c0.08-0.21,0.2-0.4,0.35-0.55c0.15-0.15,0.33-0.27,0.54-0.36
			c0.21-0.08,0.44-0.13,0.69-0.13c0.25,0,0.47,0.04,0.65,0.12s0.34,0.18,0.48,0.32l-0.15,0.21c-0.01,0.02-0.02,0.03-0.04,0.04
			c-0.01,0.01-0.04,0.02-0.06,0.02c-0.02,0-0.04-0.01-0.06-0.02c-0.02-0.02-0.05-0.03-0.08-0.06c-0.03-0.02-0.07-0.05-0.11-0.07
			c-0.04-0.03-0.09-0.05-0.15-0.07c-0.06-0.02-0.13-0.04-0.2-0.06s-0.17-0.02-0.27-0.02c-0.18,0-0.35,0.03-0.5,0.09
			c-0.15,0.06-0.28,0.15-0.39,0.27c-0.11,0.12-0.19,0.26-0.25,0.42c-0.06,0.17-0.09,0.35-0.09,0.56c0,0.21,0.03,0.4,0.09,0.57
			c0.06,0.17,0.14,0.31,0.25,0.42c0.11,0.11,0.23,0.2,0.37,0.26c0.14,0.06,0.3,0.09,0.46,0.09c0.1,0,0.19-0.01,0.27-0.02
			c0.08-0.01,0.15-0.03,0.22-0.06c0.07-0.03,0.13-0.06,0.19-0.1c0.06-0.04,0.12-0.09,0.18-0.14C19.13,43.45,19.16,43.44,19.18,43.44
			z"/>
		<path class="st2" d="M21.36,43.78c0.14,0,0.27-0.02,0.38-0.07c0.11-0.05,0.2-0.11,0.28-0.2c0.08-0.09,0.13-0.19,0.18-0.31
			c0.04-0.12,0.06-0.25,0.06-0.39v-2.07h0.46v2.07c0,0.2-0.03,0.38-0.09,0.55c-0.06,0.17-0.15,0.31-0.27,0.44
			c-0.12,0.12-0.26,0.22-0.43,0.29c-0.17,0.07-0.36,0.1-0.56,0.1s-0.4-0.03-0.56-0.1c-0.17-0.07-0.31-0.17-0.43-0.29
			c-0.12-0.12-0.21-0.27-0.27-0.44C20.03,43.19,20,43.01,20,42.81v-2.07h0.46v2.06c0,0.14,0.02,0.27,0.06,0.39
			c0.04,0.12,0.1,0.22,0.18,0.31c0.08,0.09,0.17,0.15,0.28,0.2C21.09,43.76,21.22,43.78,21.36,43.78z"/>
		<path class="st2" d="M23.96,43.76h1.47v0.39H23.5v-3.4h0.46V43.76z"/>
		<path class="st2" d="M27.85,40.74v0.39h-1.1v3.01h-0.46v-3.01h-1.1v-0.39H27.85z"/>
		<path class="st2" d="M30.82,44.14h-0.36c-0.04,0-0.07-0.01-0.1-0.03c-0.03-0.02-0.04-0.05-0.06-0.08l-0.32-0.82h-1.53l-0.32,0.82
			c-0.01,0.03-0.03,0.05-0.06,0.08c-0.03,0.02-0.06,0.03-0.1,0.03h-0.36l1.36-3.4h0.47L30.82,44.14z M28.59,42.88h1.27l-0.53-1.38
			c-0.03-0.09-0.07-0.19-0.1-0.32c-0.02,0.06-0.03,0.12-0.05,0.18c-0.02,0.05-0.03,0.1-0.05,0.14L28.59,42.88z"/>
		<path class="st2" d="M34.2,42.45c0,0.25-0.04,0.49-0.12,0.7c-0.08,0.21-0.19,0.39-0.34,0.54c-0.15,0.15-0.32,0.26-0.53,0.35
			c-0.21,0.08-0.43,0.12-0.68,0.12h-1.27v-3.4h1.27c0.25,0,0.48,0.04,0.68,0.12c0.21,0.08,0.38,0.2,0.53,0.35
			c0.15,0.15,0.26,0.33,0.34,0.54C34.16,41.96,34.2,42.19,34.2,42.45z M33.72,42.45c0-0.21-0.03-0.4-0.09-0.56
			c-0.06-0.16-0.14-0.3-0.24-0.42c-0.1-0.11-0.23-0.2-0.38-0.26c-0.15-0.06-0.31-0.09-0.5-0.09h-0.81v2.66h0.81
			c0.18,0,0.35-0.03,0.5-0.09c0.15-0.06,0.28-0.15,0.38-0.26c0.1-0.11,0.19-0.25,0.24-0.42C33.69,42.84,33.72,42.65,33.72,42.45z"/>
		<path class="st2" d="M38.69,42.45c0,0.25-0.04,0.49-0.12,0.7c-0.08,0.21-0.19,0.39-0.34,0.54c-0.15,0.15-0.32,0.26-0.53,0.35
			c-0.21,0.08-0.43,0.12-0.68,0.12h-1.27v-3.4h1.27c0.25,0,0.48,0.04,0.68,0.12c0.2,0.08,0.38,0.2,0.53,0.35
			c0.15,0.15,0.26,0.33,0.34,0.54C38.65,41.96,38.69,42.19,38.69,42.45z M38.21,42.45c0-0.21-0.03-0.4-0.09-0.56
			c-0.06-0.16-0.14-0.3-0.24-0.42c-0.1-0.11-0.23-0.2-0.38-0.26c-0.15-0.06-0.31-0.09-0.5-0.09H36.2v2.66h0.81
			c0.18,0,0.35-0.03,0.5-0.09c0.15-0.06,0.28-0.15,0.38-0.26s0.19-0.25,0.24-0.42C38.19,42.84,38.21,42.65,38.21,42.45z"/>
		<path class="st2" d="M41.41,40.74v0.37h-1.63v1.13h1.32v0.36h-1.32v1.16h1.63v0.37h-2.1v-3.4H41.41z"/>
		<path class="st2" d="M6.04,46.44v0.37H4.4V48h1.4v0.37H4.4v1.46H3.94v-3.4H6.04z"/>
		<path class="st2" d="M7.17,49.84H6.71v-3.4h0.46V49.84z"/>
		<path class="st2" d="M8.55,49.45h1.47v0.39H8.09v-3.4h0.46V49.45z"/>
		<path class="st2" d="M13.49,48.14c0,0.25-0.04,0.49-0.12,0.7c-0.08,0.21-0.19,0.4-0.34,0.55c-0.15,0.15-0.32,0.27-0.53,0.36
			s-0.43,0.13-0.68,0.13c-0.25,0-0.48-0.04-0.68-0.13c-0.21-0.08-0.38-0.2-0.53-0.36c-0.15-0.15-0.26-0.34-0.34-0.55
			c-0.08-0.21-0.12-0.45-0.12-0.7c0-0.25,0.04-0.49,0.12-0.7c0.08-0.21,0.19-0.4,0.34-0.55c0.15-0.15,0.32-0.27,0.53-0.36
			c0.21-0.09,0.43-0.13,0.68-0.13c0.25,0,0.48,0.04,0.68,0.13c0.21,0.09,0.38,0.2,0.53,0.36c0.15,0.15,0.26,0.34,0.34,0.55
			C13.45,47.65,13.49,47.89,13.49,48.14z M13.02,48.14c0-0.21-0.03-0.4-0.09-0.56c-0.06-0.17-0.14-0.31-0.24-0.42
			c-0.1-0.11-0.23-0.2-0.38-0.26c-0.15-0.06-0.31-0.09-0.5-0.09c-0.18,0-0.35,0.03-0.5,0.09c-0.15,0.06-0.28,0.15-0.38,0.26
			c-0.11,0.11-0.19,0.25-0.24,0.42c-0.06,0.17-0.09,0.35-0.09,0.56c0,0.21,0.03,0.4,0.09,0.56c0.06,0.17,0.14,0.31,0.24,0.42
			c0.1,0.11,0.23,0.2,0.38,0.26c0.15,0.06,0.31,0.09,0.5,0.09c0.18,0,0.35-0.03,0.5-0.09c0.15-0.06,0.28-0.15,0.38-0.26
			c0.1-0.11,0.19-0.25,0.24-0.42C12.99,48.54,13.02,48.35,13.02,48.14z"/>
		<path class="st2" d="M15.86,46.97c-0.01,0.02-0.03,0.04-0.05,0.05c-0.02,0.01-0.04,0.02-0.06,0.02c-0.03,0-0.06-0.01-0.09-0.04
			c-0.04-0.03-0.08-0.06-0.14-0.09c-0.05-0.03-0.12-0.06-0.2-0.09c-0.08-0.03-0.17-0.04-0.28-0.04c-0.1,0-0.19,0.01-0.27,0.04
			c-0.08,0.03-0.15,0.07-0.2,0.11c-0.05,0.05-0.09,0.1-0.12,0.17c-0.03,0.06-0.04,0.13-0.04,0.21c0,0.1,0.02,0.17,0.07,0.24
			c0.05,0.06,0.11,0.12,0.18,0.16c0.08,0.04,0.16,0.08,0.26,0.12c0.1,0.03,0.2,0.07,0.3,0.1c0.1,0.03,0.2,0.07,0.3,0.12
			c0.1,0.04,0.18,0.1,0.26,0.16c0.08,0.07,0.14,0.15,0.18,0.24c0.05,0.1,0.07,0.22,0.07,0.36c0,0.15-0.03,0.29-0.08,0.42
			c-0.05,0.13-0.12,0.24-0.22,0.34c-0.1,0.1-0.22,0.17-0.36,0.23c-0.14,0.06-0.3,0.08-0.48,0.08c-0.22,0-0.42-0.04-0.6-0.12
			c-0.18-0.08-0.34-0.19-0.46-0.32l0.13-0.22c0.01-0.02,0.03-0.03,0.05-0.04c0.02-0.01,0.04-0.02,0.06-0.02
			c0.03,0,0.07,0.02,0.11,0.05c0.04,0.04,0.1,0.07,0.16,0.12s0.14,0.08,0.23,0.12c0.09,0.04,0.2,0.05,0.33,0.05
			c0.11,0,0.21-0.02,0.29-0.05c0.09-0.03,0.16-0.07,0.22-0.13c0.06-0.05,0.1-0.12,0.14-0.2c0.03-0.08,0.05-0.16,0.05-0.25
			c0-0.1-0.02-0.19-0.07-0.25c-0.05-0.07-0.11-0.12-0.18-0.17c-0.08-0.04-0.16-0.08-0.26-0.11c-0.1-0.03-0.2-0.06-0.3-0.1
			c-0.1-0.03-0.2-0.07-0.3-0.11c-0.1-0.04-0.18-0.1-0.26-0.17c-0.08-0.07-0.14-0.15-0.18-0.25c-0.05-0.1-0.07-0.23-0.07-0.38
			c0-0.12,0.02-0.24,0.07-0.35c0.05-0.11,0.11-0.21,0.2-0.3c0.09-0.09,0.2-0.16,0.33-0.21c0.13-0.05,0.28-0.08,0.45-0.08
			c0.19,0,0.36,0.03,0.52,0.09c0.16,0.06,0.29,0.15,0.41,0.26L15.86,46.97z"/>
		<path class="st2" d="M19.8,48.14c0,0.25-0.04,0.49-0.12,0.7c-0.08,0.21-0.19,0.4-0.34,0.55c-0.15,0.15-0.32,0.27-0.53,0.36
			s-0.43,0.13-0.68,0.13c-0.25,0-0.48-0.04-0.68-0.13s-0.38-0.2-0.53-0.36c-0.15-0.15-0.26-0.34-0.34-0.55
			c-0.08-0.21-0.12-0.45-0.12-0.7c0-0.25,0.04-0.49,0.12-0.7c0.08-0.21,0.19-0.4,0.34-0.55c0.15-0.15,0.32-0.27,0.53-0.36
			c0.21-0.09,0.43-0.13,0.68-0.13c0.25,0,0.48,0.04,0.68,0.13c0.21,0.09,0.38,0.2,0.53,0.36c0.15,0.15,0.26,0.34,0.34,0.55
			C19.76,47.65,19.8,47.89,19.8,48.14z M19.32,48.14c0-0.21-0.03-0.4-0.09-0.56c-0.06-0.17-0.14-0.31-0.24-0.42
			c-0.1-0.11-0.23-0.2-0.38-0.26c-0.15-0.06-0.31-0.09-0.5-0.09c-0.18,0-0.35,0.03-0.5,0.09c-0.15,0.06-0.28,0.15-0.38,0.26
			c-0.11,0.11-0.19,0.25-0.24,0.42c-0.06,0.17-0.09,0.35-0.09,0.56c0,0.21,0.03,0.4,0.09,0.56c0.06,0.17,0.14,0.31,0.24,0.42
			c0.1,0.11,0.23,0.2,0.38,0.26c0.15,0.06,0.31,0.09,0.5,0.09c0.18,0,0.35-0.03,0.5-0.09c0.15-0.06,0.28-0.15,0.38-0.26
			c0.1-0.11,0.19-0.25,0.24-0.42S19.32,48.35,19.32,48.14z"/>
		<path class="st2" d="M22.52,46.44v0.37h-1.63V48h1.4v0.37h-1.4v1.46h-0.46v-3.4H22.52z"/>
		<path class="st2" d="M24.24,45.61l-0.7,0.51c-0.03,0.02-0.05,0.03-0.07,0.04s-0.05,0.01-0.08,0.01h-0.33l0.5-0.48
			c0.02-0.02,0.03-0.03,0.04-0.04c0.01-0.01,0.03-0.02,0.04-0.02c0.01-0.01,0.03-0.01,0.05-0.01c0.02,0,0.04,0,0.07,0H24.24z
			 M23.66,49.84H23.2v-3.4h0.46V49.84z"/>
		<path class="st2" d="M27.37,49.84h-0.36c-0.04,0-0.07-0.01-0.1-0.03c-0.03-0.02-0.04-0.05-0.06-0.08l-0.32-0.82h-1.53l-0.32,0.82
			c-0.01,0.03-0.03,0.05-0.06,0.08c-0.03,0.02-0.06,0.03-0.1,0.03h-0.36l1.36-3.4h0.47L27.37,49.84z M25.14,48.58h1.27l-0.53-1.38
			c-0.04-0.09-0.07-0.19-0.1-0.32c-0.02,0.06-0.04,0.12-0.05,0.18c-0.02,0.05-0.03,0.1-0.05,0.14L25.14,48.58z"/>
		<path class="st2" d="M30.02,48.49v1.35h-0.46v-1.35l-1.25-2.05h0.4c0.04,0,0.07,0.01,0.1,0.03c0.02,0.02,0.04,0.05,0.06,0.08
			l0.78,1.32c0.03,0.06,0.06,0.11,0.08,0.16c0.02,0.05,0.04,0.1,0.06,0.15c0.02-0.05,0.04-0.1,0.06-0.15
			c0.02-0.05,0.05-0.1,0.08-0.15l0.78-1.32c0.01-0.03,0.03-0.05,0.06-0.07c0.02-0.02,0.06-0.03,0.1-0.03h0.41L30.02,48.49z"/>
		<path class="st2" d="M33.07,49.45h1.47v0.39h-1.93v-3.4h0.46V49.45z"/>
		<path class="st2" d="M37.15,46.44v0.37h-1.63v1.13h1.32v0.36h-1.32v1.16h1.63v0.37h-2.1v-3.4H37.15z"/>
		<path class="st2" d="M40.13,46.44v0.39h-1.1v3.01h-0.46v-3.01h-1.1v-0.39H40.13z"/>
		<path class="st2" d="M41.12,48.42v1.42h-0.46v-3.4h0.96c0.22,0,0.4,0.02,0.56,0.07c0.16,0.04,0.29,0.11,0.39,0.19
			c0.1,0.08,0.18,0.18,0.23,0.3c0.05,0.12,0.07,0.25,0.07,0.39c0,0.12-0.02,0.23-0.06,0.34c-0.04,0.1-0.09,0.2-0.17,0.28
			c-0.07,0.08-0.16,0.15-0.26,0.21c-0.1,0.06-0.22,0.1-0.35,0.13c0.06,0.03,0.11,0.08,0.15,0.15l0.99,1.35h-0.41
			c-0.08,0-0.15-0.03-0.19-0.1l-0.88-1.21c-0.03-0.04-0.06-0.07-0.09-0.08c-0.03-0.02-0.08-0.03-0.14-0.03H41.12z M41.12,48.09h0.48
			c0.13,0,0.25-0.02,0.35-0.05c0.1-0.03,0.19-0.08,0.26-0.14s0.12-0.13,0.16-0.21c0.03-0.08,0.05-0.17,0.05-0.27
			c0-0.2-0.07-0.36-0.2-0.46c-0.13-0.1-0.33-0.15-0.6-0.15h-0.5V48.09z"/>
		<path class="st2" d="M46.47,49.84h-0.36c-0.04,0-0.07-0.01-0.1-0.03c-0.03-0.02-0.04-0.05-0.06-0.08l-0.32-0.82h-1.53l-0.32,0.82
			c-0.01,0.03-0.03,0.05-0.06,0.08c-0.03,0.02-0.06,0.03-0.1,0.03h-0.36l1.36-3.4h0.47L46.47,49.84z M44.24,48.58h1.27l-0.53-1.38
			c-0.03-0.09-0.07-0.19-0.1-0.32c-0.02,0.06-0.03,0.12-0.05,0.18c-0.02,0.05-0.03,0.1-0.05,0.14L44.24,48.58z"/>
		<path class="st2" d="M48.64,46.97c-0.01,0.02-0.03,0.04-0.05,0.05c-0.02,0.01-0.04,0.02-0.06,0.02c-0.03,0-0.06-0.01-0.09-0.04
			c-0.04-0.03-0.08-0.06-0.14-0.09c-0.05-0.03-0.12-0.06-0.2-0.09c-0.08-0.03-0.17-0.04-0.28-0.04c-0.1,0-0.19,0.01-0.27,0.04
			c-0.08,0.03-0.15,0.07-0.2,0.11c-0.05,0.05-0.09,0.1-0.12,0.17c-0.03,0.06-0.04,0.13-0.04,0.21c0,0.1,0.02,0.17,0.07,0.24
			c0.05,0.06,0.11,0.12,0.18,0.16c0.08,0.04,0.16,0.08,0.26,0.12c0.1,0.03,0.2,0.07,0.3,0.1c0.1,0.03,0.2,0.07,0.3,0.12
			c0.1,0.04,0.18,0.1,0.26,0.16c0.08,0.07,0.14,0.15,0.18,0.24c0.05,0.1,0.07,0.22,0.07,0.36c0,0.15-0.03,0.29-0.08,0.42
			c-0.05,0.13-0.12,0.24-0.22,0.34c-0.1,0.1-0.22,0.17-0.36,0.23c-0.14,0.06-0.3,0.08-0.48,0.08c-0.22,0-0.42-0.04-0.6-0.12
			c-0.18-0.08-0.34-0.19-0.46-0.32l0.13-0.22c0.01-0.02,0.03-0.03,0.05-0.04c0.02-0.01,0.04-0.02,0.06-0.02
			c0.03,0,0.07,0.02,0.11,0.05c0.04,0.04,0.1,0.07,0.16,0.12s0.14,0.08,0.23,0.12c0.09,0.04,0.2,0.05,0.33,0.05
			c0.11,0,0.21-0.02,0.29-0.05c0.09-0.03,0.16-0.07,0.22-0.13c0.06-0.05,0.1-0.12,0.14-0.2c0.03-0.08,0.05-0.16,0.05-0.25
			c0-0.1-0.02-0.19-0.07-0.25c-0.05-0.07-0.11-0.12-0.18-0.17c-0.08-0.04-0.16-0.08-0.26-0.11c-0.1-0.03-0.2-0.06-0.3-0.1
			c-0.1-0.03-0.2-0.07-0.3-0.11c-0.1-0.04-0.18-0.1-0.26-0.17c-0.08-0.07-0.14-0.15-0.18-0.25c-0.05-0.1-0.07-0.23-0.07-0.38
			c0-0.12,0.02-0.24,0.07-0.35c0.05-0.11,0.11-0.21,0.2-0.3c0.09-0.09,0.2-0.16,0.33-0.21c0.13-0.05,0.28-0.08,0.45-0.08
			c0.19,0,0.36,0.03,0.52,0.09c0.16,0.06,0.29,0.15,0.41,0.26L48.64,46.97z"/>
	</g>
</g>
</svg>
