<?xml version="1.0" encoding="utf-8"?>
<!-- Generator: Adobe Illustrator 24.0.2, SVG Export Plug-In . SVG Version: 6.00 Build 0)  -->
<svg version="1.1" id="Capa_1" xmlns="http://www.w3.org/2000/svg" xmlns:xlink="http://www.w3.org/1999/xlink" x="0px" y="0px"
	 viewBox="0 0 52.77 52.77" style="enable-background:new 0 0 52.77 52.77;" xml:space="preserve">
<style type="text/css">
	.st0{fill:#FFFFFF;}
	.st1{fill:#F08224;}
	.st2{fill:#020203;}
	.st3{fill:#789C4A;}
	.st4{fill:#853236;}
	.st5{fill:#BC8D47;}
	.st6{fill:#FF4713;}
	.st7{fill:#F09F54;}
	.st8{fill:none;stroke:#F09F54;stroke-width:0.7594;stroke-miterlimit:10;}
	.st9{fill:#EA8130;}
	.st10{fill:#3E7895;}
	.st11{fill:#B6CED7;}
	.st12{fill:#231F20;}
	.st13{fill:#065C7B;}
	.st14{fill:#00AF9A;}
	.st15{fill:#0083C1;}
	.st16{fill:#7B868C;}
	.st17{fill:#BAC0C3;}
	.st18{fill:#0B9691;}
	.st19{fill:#6BDAD5;}
	.st20{fill:#62C0BE;}
	.st21{fill:#009490;}
	.st22{fill:#036784;}
	.st23{fill:#82AEBD;}
	.st24{fill:#B0CCD9;}
	.st25{fill:#CE0E2D;}
	.st26{fill:#29787B;}
	.st27{fill:#D11317;}
</style>
<g>
	<g>
		<rect class="st0" width="52.77" height="52.77"/>
	</g>
	<g>
		<path class="st13" d="M21.69,8.74c0,0-3.32-0.15-5.97,4.03l-1.74,3.03c0,0-2.52,4.11-1.12,7.17l3.9,6.73
			c-0.24-0.43-1.15-2.39-0.25-5.48c0,0,0.87-3.75,5.53-10.79c1.78-2.68,4.69-4.69,6.22-4.71L21.69,8.74z M16.82,29.78l-0.05-0.09
			C16.8,29.76,16.82,29.78,16.82,29.78"/>
		<path class="st13" d="M21.69,8.74c0,0-3.32-0.15-5.97,4.03l-1.74,3.03c0,0-2.52,4.11-1.12,7.17l3.9,6.73
			c-0.24-0.43-1.15-2.39-0.25-5.48c0,0,0.87-3.75,5.53-10.79c1.78-2.68,4.69-4.69,6.22-4.71L21.69,8.74z M16.82,29.78l-0.05-0.09
			C16.8,29.76,16.82,29.78,16.82,29.78"/>
		<path class="st13" d="M27.47,10.95c2.26,1.89,5.37,5.05,8.21,11.96c1.8,4.37,0.27,7.03,0.27,7.03c2.12-3.61,4.27-7,4.35-7.84
			c0.26-2.68-1.77-6.56-3.47-9.18c-1.7-2.62-3.38-3.57-3.94-3.75c-0.35-0.09-0.7-0.12-1.03-0.12C29.43,9.05,27.47,10.95,27.47,10.95
			"/>
		<path class="st13" d="M26.27,26.85c-6.07,0-8.4-0.98-8.4-0.98c-0.36,1.49,0.06,3.2,0.06,3.2c0.97,3.65,4.89,3.39,4.89,3.39
			s4.88,0,7.06-0.03c2.18-0.02,3.34-0.64,4.54-2.34c1.2-1.71,0.48-4.72,0.48-4.72S31.5,26.85,26.27,26.85"/>
	</g>
	<g>
		<path class="st2" d="M13.42,40.74v0.37h-1.63v1.19h1.4v0.37h-1.4v1.46h-0.46v-3.4H13.42z"/>
		<path class="st2" d="M16.49,44.14h-0.36c-0.04,0-0.07-0.01-0.1-0.03c-0.03-0.02-0.04-0.05-0.06-0.08l-0.32-0.82h-1.53l-0.32,0.82
			c-0.01,0.03-0.03,0.05-0.06,0.08c-0.03,0.02-0.06,0.03-0.1,0.03h-0.36l1.36-3.4h0.47L16.49,44.14z M14.27,42.88h1.27L15,41.5
			c-0.03-0.09-0.07-0.19-0.1-0.32c-0.02,0.06-0.03,0.12-0.05,0.18c-0.02,0.05-0.03,0.1-0.05,0.14L14.27,42.88z"/>
		<path class="st2" d="M19.22,43.44c0.03,0,0.05,0.01,0.07,0.03l0.18,0.2c-0.14,0.16-0.31,0.29-0.51,0.38
			c-0.2,0.09-0.44,0.14-0.72,0.14c-0.25,0-0.47-0.04-0.67-0.13c-0.2-0.08-0.37-0.2-0.51-0.36c-0.14-0.15-0.25-0.34-0.33-0.55
			c-0.08-0.21-0.12-0.45-0.12-0.71s0.04-0.49,0.13-0.71c0.08-0.21,0.2-0.4,0.35-0.55c0.15-0.15,0.33-0.27,0.54-0.36
			c0.21-0.08,0.44-0.13,0.69-0.13c0.25,0,0.47,0.04,0.65,0.12s0.34,0.18,0.48,0.32l-0.15,0.21c-0.01,0.02-0.02,0.03-0.04,0.04
			c-0.01,0.01-0.04,0.02-0.06,0.02c-0.02,0-0.04-0.01-0.06-0.02c-0.02-0.02-0.05-0.03-0.08-0.06c-0.03-0.02-0.07-0.05-0.11-0.07
			c-0.04-0.03-0.09-0.05-0.15-0.07s-0.13-0.04-0.2-0.06s-0.17-0.02-0.27-0.02c-0.18,0-0.35,0.03-0.5,0.09
			c-0.15,0.06-0.28,0.15-0.39,0.27c-0.11,0.12-0.19,0.26-0.25,0.42c-0.06,0.17-0.09,0.35-0.09,0.56c0,0.21,0.03,0.4,0.09,0.57
			c0.06,0.17,0.14,0.31,0.25,0.42c0.11,0.11,0.23,0.2,0.37,0.26c0.14,0.06,0.3,0.09,0.46,0.09c0.1,0,0.19-0.01,0.27-0.02
			c0.08-0.01,0.15-0.03,0.22-0.06c0.07-0.03,0.13-0.06,0.19-0.1c0.06-0.04,0.12-0.09,0.18-0.14C19.17,43.45,19.19,43.44,19.22,43.44
			z"/>
		<path class="st2" d="M21.4,43.78c0.14,0,0.27-0.02,0.38-0.07c0.11-0.05,0.2-0.11,0.28-0.2c0.08-0.09,0.13-0.19,0.18-0.31
			c0.04-0.12,0.06-0.25,0.06-0.39v-2.07h0.46v2.07c0,0.2-0.03,0.38-0.09,0.55c-0.06,0.17-0.15,0.31-0.27,0.44
			c-0.12,0.12-0.26,0.22-0.43,0.29c-0.17,0.07-0.36,0.1-0.56,0.1s-0.4-0.03-0.56-0.1c-0.17-0.07-0.31-0.17-0.43-0.29
			c-0.12-0.12-0.21-0.27-0.27-0.44c-0.06-0.17-0.09-0.35-0.09-0.55v-2.07h0.46v2.06c0,0.14,0.02,0.27,0.06,0.39
			c0.04,0.12,0.1,0.22,0.18,0.31c0.08,0.09,0.17,0.15,0.28,0.2C21.13,43.75,21.26,43.78,21.4,43.78z"/>
		<path class="st2" d="M24,43.76h1.47v0.39h-1.93v-3.4H24V43.76z"/>
		<path class="st2" d="M27.89,40.74v0.39h-1.1v3.01h-0.46v-3.01h-1.1v-0.39H27.89z"/>
		<path class="st2" d="M30.86,44.14H30.5c-0.04,0-0.07-0.01-0.1-0.03c-0.03-0.02-0.04-0.05-0.06-0.08l-0.32-0.82H28.5l-0.32,0.82
			c-0.01,0.03-0.03,0.05-0.06,0.08c-0.03,0.02-0.06,0.03-0.1,0.03h-0.36l1.36-3.4h0.47L30.86,44.14z M28.63,42.88h1.27l-0.53-1.38
			c-0.03-0.09-0.07-0.19-0.1-0.32c-0.02,0.06-0.03,0.12-0.05,0.18c-0.02,0.05-0.03,0.1-0.05,0.14L28.63,42.88z"/>
		<path class="st2" d="M34.23,42.44c0,0.25-0.04,0.49-0.12,0.7c-0.08,0.21-0.19,0.39-0.34,0.54c-0.15,0.15-0.32,0.26-0.53,0.35
			c-0.21,0.08-0.43,0.12-0.68,0.12h-1.27v-3.4h1.27c0.25,0,0.48,0.04,0.68,0.12c0.21,0.08,0.38,0.2,0.53,0.35
			c0.15,0.15,0.26,0.33,0.34,0.54C34.19,41.96,34.23,42.19,34.23,42.44z M33.76,42.44c0-0.21-0.03-0.4-0.09-0.56
			c-0.06-0.16-0.14-0.3-0.24-0.42c-0.1-0.11-0.23-0.2-0.38-0.26c-0.15-0.06-0.31-0.09-0.5-0.09h-0.81v2.66h0.81
			c0.18,0,0.35-0.03,0.5-0.09c0.15-0.06,0.28-0.15,0.38-0.26c0.1-0.11,0.19-0.25,0.24-0.42C33.73,42.84,33.76,42.65,33.76,42.44z"/>
		<path class="st2" d="M38.72,42.44c0,0.25-0.04,0.49-0.12,0.7c-0.08,0.21-0.19,0.39-0.34,0.54c-0.15,0.15-0.32,0.26-0.53,0.35
			c-0.21,0.08-0.43,0.12-0.68,0.12h-1.27v-3.4h1.27c0.25,0,0.48,0.04,0.68,0.12c0.2,0.08,0.38,0.2,0.53,0.35
			c0.15,0.15,0.26,0.33,0.34,0.54C38.68,41.96,38.72,42.19,38.72,42.44z M38.25,42.44c0-0.21-0.03-0.4-0.09-0.56
			c-0.06-0.16-0.14-0.3-0.24-0.42c-0.1-0.11-0.23-0.2-0.38-0.26c-0.15-0.06-0.31-0.09-0.5-0.09h-0.81v2.66h0.81
			c0.18,0,0.35-0.03,0.5-0.09c0.15-0.06,0.28-0.15,0.38-0.26s0.19-0.25,0.24-0.42C38.22,42.84,38.25,42.65,38.25,42.44z"/>
		<path class="st2" d="M41.45,40.74v0.37h-1.63v1.13h1.32v0.36h-1.32v1.16h1.63v0.37h-2.1v-3.4H41.45z"/>
		<path class="st2" d="M13.84,49.84h-0.46v-3.4h0.46V49.84z"/>
		<path class="st2" d="M15.09,46.45c0.02,0.01,0.04,0.03,0.07,0.06l1.97,2.56c0-0.04-0.01-0.08-0.01-0.12c0-0.04,0-0.08,0-0.11
			v-2.41h0.4v3.4h-0.23c-0.04,0-0.07-0.01-0.09-0.02c-0.03-0.01-0.05-0.03-0.07-0.06l-1.97-2.56c0,0.04,0.01,0.08,0.01,0.12
			c0,0.04,0,0.07,0,0.1v2.42h-0.4v-3.4h0.24C15.04,46.44,15.07,46.44,15.09,46.45z"/>
		<path class="st2" d="M19.86,49.51c0.09,0,0.18,0,0.25-0.01c0.08-0.01,0.15-0.02,0.22-0.04c0.07-0.02,0.13-0.04,0.19-0.06
			c0.06-0.02,0.12-0.05,0.18-0.08v-0.75h-0.53c-0.03,0-0.05-0.01-0.07-0.03c-0.02-0.02-0.03-0.04-0.03-0.06V48.2h1.04v1.31
			c-0.09,0.06-0.17,0.12-0.27,0.16c-0.09,0.05-0.19,0.08-0.3,0.12c-0.1,0.03-0.22,0.05-0.34,0.07c-0.12,0.02-0.25,0.02-0.39,0.02
			c-0.25,0-0.47-0.04-0.68-0.13c-0.21-0.08-0.38-0.2-0.53-0.36c-0.15-0.15-0.27-0.34-0.35-0.55c-0.08-0.21-0.13-0.45-0.13-0.71
			c0-0.26,0.04-0.5,0.12-0.71c0.08-0.21,0.2-0.4,0.35-0.55c0.15-0.15,0.33-0.27,0.55-0.36c0.21-0.08,0.45-0.13,0.72-0.13
			c0.13,0,0.26,0.01,0.37,0.03c0.12,0.02,0.22,0.05,0.32,0.09c0.1,0.04,0.19,0.08,0.27,0.14c0.08,0.05,0.16,0.11,0.23,0.18
			l-0.13,0.21c-0.03,0.04-0.06,0.06-0.1,0.06c-0.03,0-0.05-0.01-0.08-0.03c-0.04-0.02-0.08-0.05-0.13-0.08
			c-0.05-0.03-0.11-0.06-0.18-0.09c-0.07-0.03-0.15-0.05-0.25-0.07c-0.1-0.02-0.21-0.03-0.34-0.03c-0.19,0-0.36,0.03-0.52,0.09
			c-0.16,0.06-0.29,0.15-0.4,0.27s-0.19,0.26-0.25,0.42c-0.06,0.17-0.09,0.35-0.09,0.56c0,0.22,0.03,0.41,0.09,0.58
			c0.06,0.17,0.15,0.31,0.26,0.43c0.11,0.12,0.24,0.21,0.39,0.27C19.51,49.47,19.68,49.51,19.86,49.51z"/>
		<path class="st2" d="M23.92,46.44v0.37h-1.63v1.13h1.32v0.36h-1.32v1.16h1.63v0.37h-2.1v-3.4H23.92z"/>
		<path class="st2" d="M24.91,46.45c0.02,0.01,0.04,0.03,0.07,0.06l1.97,2.56c0-0.04-0.01-0.08-0.01-0.12c0-0.04,0-0.08,0-0.11
			v-2.41h0.4v3.4h-0.23c-0.04,0-0.07-0.01-0.09-0.02c-0.03-0.01-0.05-0.03-0.07-0.06l-1.97-2.56c0,0.04,0.01,0.08,0.01,0.12
			c0,0.04,0,0.07,0,0.1v2.42h-0.4v-3.4h0.24C24.86,46.44,24.9,46.44,24.91,46.45z"/>
		<path class="st2" d="M28.72,49.84h-0.46v-3.4h0.46V49.84z"/>
		<path class="st2" d="M31.73,46.44v0.37h-1.63v1.13h1.32v0.36h-1.32v1.16h1.63v0.37h-2.1v-3.4H31.73z"/>
		<path class="st2" d="M32.89,48.42v1.42h-0.46v-3.4h0.96c0.22,0,0.4,0.02,0.56,0.07c0.16,0.04,0.29,0.11,0.39,0.19
			c0.1,0.08,0.18,0.18,0.23,0.3c0.05,0.12,0.07,0.25,0.07,0.39c0,0.12-0.02,0.23-0.06,0.34c-0.04,0.1-0.09,0.2-0.17,0.28
			c-0.07,0.08-0.16,0.15-0.26,0.21c-0.1,0.06-0.22,0.1-0.35,0.13c0.06,0.03,0.11,0.08,0.15,0.15l0.99,1.35h-0.41
			c-0.08,0-0.15-0.03-0.19-0.1l-0.88-1.21c-0.03-0.04-0.06-0.07-0.09-0.08c-0.03-0.02-0.08-0.03-0.14-0.03H32.89z M32.89,48.09h0.48
			c0.13,0,0.25-0.02,0.35-0.05c0.1-0.03,0.19-0.08,0.26-0.14c0.07-0.06,0.12-0.13,0.16-0.21c0.03-0.08,0.05-0.17,0.05-0.27
			c0-0.2-0.07-0.36-0.2-0.46c-0.13-0.1-0.33-0.15-0.6-0.15h-0.5V48.09z"/>
		<path class="st2" d="M36.58,45.61l-0.7,0.51c-0.03,0.02-0.05,0.03-0.07,0.04s-0.05,0.01-0.08,0.01H35.4l0.5-0.48
			c0.02-0.02,0.03-0.03,0.04-0.04c0.01-0.01,0.03-0.02,0.04-0.02c0.01-0.01,0.03-0.01,0.05-0.01c0.02,0,0.04,0,0.07,0H36.58z
			 M35.99,49.84h-0.46v-3.4h0.46V49.84z"/>
		<path class="st2" d="M39.7,49.84h-0.36c-0.04,0-0.07-0.01-0.1-0.03c-0.03-0.02-0.04-0.05-0.06-0.08l-0.32-0.82h-1.53l-0.32,0.82
			c-0.01,0.03-0.03,0.05-0.06,0.08c-0.03,0.02-0.06,0.03-0.1,0.03h-0.36l1.36-3.4h0.47L39.7,49.84z M37.47,48.58h1.27l-0.53-1.38
			c-0.03-0.09-0.07-0.19-0.1-0.32c-0.02,0.06-0.03,0.12-0.05,0.18c-0.02,0.05-0.03,0.1-0.05,0.14L37.47,48.58z"/>
	</g>
</g>
</svg>
