<?xml version="1.0" encoding="utf-8"?>
<!-- Generator: Adobe Illustrator 24.0.2, SVG Export Plug-In . SVG Version: 6.00 Build 0)  -->
<svg version="1.1" id="Capa_1" xmlns="http://www.w3.org/2000/svg" xmlns:xlink="http://www.w3.org/1999/xlink" x="0px" y="0px"
	 viewBox="0 0 52.77 52.77" style="enable-background:new 0 0 52.77 52.77;" xml:space="preserve">
<style type="text/css">
	.st0{fill:#FFFFFF;}
	.st1{fill:#F08224;}
	.st2{fill:#020203;}
	.st3{fill:#789C4A;}
	.st4{fill:#853236;}
	.st5{fill:#BC8D47;}
	.st6{fill:#FF4713;}
	.st7{fill:#F09F54;}
	.st8{fill:none;stroke:#F09F54;stroke-width:0.7594;stroke-miterlimit:10;}
	.st9{fill:#EA8130;}
	.st10{fill:#3E7895;}
	.st11{fill:#B6CED7;}
	.st12{fill:#231F20;}
	.st13{fill:#065C7B;}
	.st14{fill:#00AF9A;}
	.st15{fill:#0083C1;}
	.st16{fill:#7B868C;}
	.st17{fill:#BAC0C3;}
	.st18{fill:#0B9691;}
	.st19{fill:#6BDAD5;}
	.st20{fill:#62C0BE;}
	.st21{fill:#009490;}
	.st22{fill:#036784;}
	.st23{fill:#82AEBD;}
	.st24{fill:#B0CCD9;}
	.st25{fill:#CE0E2D;}
	.st26{fill:#29787B;}
	.st27{fill:#D11317;}
</style>
<g>
	<g>
		<rect class="st0" width="52.77" height="52.77"/>
	</g>
	<g>
		<path class="st7" d="M27.11,8.74c2.37,2.23,4.14,4.4,5.89,6.88c0,0-1.78,11.73-12.18,20.8c1.75-1.53-1.59,2.03,3.35-5.33
			c0.96-2.04,2.38-4.64,2.78-6.57C27.89,20.07,27.97,15.75,27.11,8.74"/>
		<path class="st7" d="M18.3,3.54c2.39,0.96,4.85,2.01,7.26,3.95c2.71,12.99,1.93,19.12-4.73,28.89
			c3.25-13.52,3.78-19.74-2.96-32.14C17.7,3.92,17.93,3.41,18.3,3.54"/>
		<path class="st7" d="M33.91,17.01c1.52,2.2,2.96,5.82,3.72,8.48c-5.7,5.58-11.53,10.14-16.85,10.93
			c8.78-8.93,10.5-11.29,13.21-19.7"/>
		<path class="st7" d="M37.9,26.44c0.63,1.79,0.98,4.2,1.11,5.22c0.04,0.28,0,0,0,0c0.04,0.47-0.27,0.72-0.45,0.8
			c-6.34,2.65-12.74,3.59-17.83,3.96c6.7-1.78,13.87-6.89,17.25-10.07"/>
		<path class="st0" d="M21.97,27.26c0,2.19-0.18,4.4-0.52,6.62c1.21-3.49,1.84-7.1,1.84-10.83c0-4.77-1.18-10.52-3.35-15.72
			c-2.07-1.67-5.36-3.49-5.36-3.49C14.2,3.6,13.5,3.74,13.82,4.22C19.81,11.77,21.97,19.09,21.97,27.26"/>
		<path class="st8" d="M21.97,27.26c0,2.19-0.18,4.4-0.52,6.62c1.21-3.49,1.84-7.1,1.84-10.83c0-4.77-1.18-10.52-3.35-15.72
			c-2.07-1.67-5.36-3.49-5.36-3.49C14.2,3.6,13.5,3.74,13.82,4.22C19.81,11.77,21.97,19.09,21.97,27.26"/>
		<path class="st0" d="M22.33,9.46c5.08,5.42,6.86,8.67,6.86,8.67c-1.89,10.9-3.84,11.36-8.4,18.16
			C24.87,27.09,25.33,19.62,22.33,9.46"/>
		<path class="st0" d="M30.04,19.62c0.97,1.51,2.69,5.66,2.69,5.66c-2.57,4.84-8.48,8.86-12,11.08
			C27.83,28.82,28.47,25.37,30.04,19.62"/>
		<path class="st0" d="M33.28,26.66c0.69,1.89,1.05,3.11,1.22,3.74c0.24,0.55-0.14,0.7-0.27,0.77c-4.63,2.68-9.55,4.16-13.51,5.14
			c5.07-2.17,10.31-7.01,12.54-9.71"/>
	</g>
	<g>
		<path class="st2" d="M9.51,40.85v0.37H7.88v1.19h1.4v0.37h-1.4v1.46H7.42v-3.4H9.51z"/>
		<path class="st2" d="M12.59,44.25h-0.36c-0.04,0-0.07-0.01-0.1-0.03c-0.03-0.02-0.04-0.05-0.06-0.08l-0.32-0.82h-1.53l-0.32,0.82
			c-0.01,0.03-0.03,0.05-0.06,0.08c-0.03,0.02-0.06,0.03-0.1,0.03H9.4l1.36-3.4h0.47L12.59,44.25z M10.36,42.99h1.27l-0.53-1.38
			c-0.04-0.09-0.07-0.19-0.1-0.32c-0.02,0.06-0.04,0.12-0.05,0.18c-0.02,0.05-0.03,0.1-0.05,0.14L10.36,42.99z"/>
		<path class="st2" d="M15.31,43.55c0.03,0,0.05,0.01,0.07,0.03l0.18,0.2c-0.14,0.16-0.31,0.29-0.51,0.38
			c-0.2,0.09-0.44,0.14-0.72,0.14c-0.24,0-0.47-0.04-0.67-0.13c-0.2-0.08-0.37-0.2-0.51-0.36c-0.14-0.15-0.25-0.34-0.33-0.55
			c-0.08-0.21-0.12-0.45-0.12-0.71c0-0.26,0.04-0.49,0.12-0.71c0.08-0.21,0.2-0.4,0.35-0.55c0.15-0.15,0.33-0.27,0.54-0.36
			c0.21-0.08,0.44-0.13,0.69-0.13c0.25,0,0.47,0.04,0.65,0.12c0.18,0.08,0.34,0.18,0.48,0.32l-0.15,0.21
			c-0.01,0.02-0.02,0.03-0.04,0.04c-0.01,0.01-0.03,0.02-0.06,0.02c-0.02,0-0.04-0.01-0.07-0.02c-0.02-0.02-0.05-0.03-0.08-0.06
			c-0.03-0.02-0.07-0.05-0.11-0.07c-0.04-0.03-0.09-0.05-0.15-0.07c-0.06-0.02-0.13-0.04-0.2-0.06c-0.08-0.01-0.17-0.02-0.27-0.02
			c-0.18,0-0.35,0.03-0.5,0.09c-0.15,0.06-0.28,0.15-0.39,0.27c-0.11,0.12-0.19,0.26-0.25,0.42c-0.06,0.17-0.09,0.35-0.09,0.56
			c0,0.21,0.03,0.4,0.09,0.57c0.06,0.17,0.14,0.31,0.25,0.42c0.1,0.11,0.23,0.2,0.37,0.26c0.14,0.06,0.3,0.09,0.47,0.09
			c0.1,0,0.19-0.01,0.27-0.02c0.08-0.01,0.16-0.03,0.22-0.06c0.07-0.03,0.13-0.06,0.19-0.1c0.06-0.04,0.12-0.09,0.18-0.14
			C15.26,43.56,15.29,43.55,15.31,43.55z"/>
		<path class="st2" d="M17.49,43.89c0.14,0,0.27-0.02,0.38-0.07c0.11-0.05,0.2-0.11,0.28-0.2s0.14-0.19,0.18-0.31
			c0.04-0.12,0.06-0.25,0.06-0.39v-2.07h0.46v2.07c0,0.2-0.03,0.38-0.09,0.55c-0.06,0.17-0.15,0.31-0.27,0.44
			c-0.12,0.12-0.26,0.22-0.43,0.29c-0.17,0.07-0.36,0.1-0.56,0.1c-0.21,0-0.4-0.03-0.57-0.1c-0.17-0.07-0.31-0.17-0.43-0.29
			c-0.12-0.12-0.21-0.27-0.27-0.44c-0.06-0.17-0.09-0.35-0.09-0.55v-2.07h0.46v2.06c0,0.14,0.02,0.27,0.06,0.39
			c0.04,0.12,0.1,0.22,0.18,0.31c0.08,0.09,0.17,0.15,0.28,0.2C17.22,43.86,17.35,43.89,17.49,43.89z"/>
		<path class="st2" d="M20.09,43.86h1.47v0.39h-1.93v-3.4h0.46V43.86z"/>
		<path class="st2" d="M23.98,40.85v0.39h-1.1v3.01h-0.46v-3.01h-1.1v-0.39H23.98z"/>
		<path class="st2" d="M26.95,44.25h-0.36c-0.04,0-0.07-0.01-0.1-0.03c-0.03-0.02-0.04-0.05-0.06-0.08l-0.32-0.82h-1.53l-0.32,0.82
			c-0.01,0.03-0.03,0.05-0.06,0.08c-0.03,0.02-0.06,0.03-0.1,0.03h-0.36l1.36-3.4h0.47L26.95,44.25z M24.72,42.99h1.27l-0.53-1.38
			c-0.04-0.09-0.07-0.19-0.1-0.32c-0.02,0.06-0.04,0.12-0.05,0.18c-0.02,0.05-0.03,0.1-0.05,0.14L24.72,42.99z"/>
		<path class="st2" d="M30.33,42.55c0,0.25-0.04,0.49-0.12,0.7c-0.08,0.21-0.19,0.39-0.34,0.54c-0.15,0.15-0.32,0.26-0.53,0.35
			c-0.21,0.08-0.43,0.12-0.68,0.12h-1.27v-3.4h1.27c0.25,0,0.48,0.04,0.68,0.12c0.2,0.08,0.38,0.2,0.53,0.35
			c0.15,0.15,0.26,0.33,0.34,0.54C30.29,42.07,30.33,42.3,30.33,42.55z M29.86,42.55c0-0.21-0.03-0.4-0.09-0.56
			c-0.06-0.16-0.14-0.3-0.24-0.42c-0.1-0.11-0.23-0.2-0.38-0.26c-0.15-0.06-0.31-0.09-0.5-0.09h-0.81v2.66h0.81
			c0.18,0,0.35-0.03,0.5-0.09c0.15-0.06,0.28-0.15,0.38-0.26s0.19-0.25,0.24-0.42C29.83,42.95,29.86,42.76,29.86,42.55z"/>
		<path class="st2" d="M34.82,42.55c0,0.25-0.04,0.49-0.12,0.7c-0.08,0.21-0.19,0.39-0.34,0.54c-0.15,0.15-0.32,0.26-0.53,0.35
			c-0.21,0.08-0.43,0.12-0.68,0.12h-1.27v-3.4h1.27c0.25,0,0.48,0.04,0.68,0.12c0.21,0.08,0.38,0.2,0.53,0.35
			c0.15,0.15,0.26,0.33,0.34,0.54C34.78,42.07,34.82,42.3,34.82,42.55z M34.35,42.55c0-0.21-0.03-0.4-0.09-0.56
			c-0.06-0.16-0.14-0.3-0.24-0.42c-0.1-0.11-0.23-0.2-0.38-0.26c-0.15-0.06-0.31-0.09-0.5-0.09h-0.81v2.66h0.81
			c0.18,0,0.35-0.03,0.5-0.09c0.15-0.06,0.28-0.15,0.38-0.26c0.1-0.11,0.19-0.25,0.24-0.42C34.32,42.95,34.35,42.76,34.35,42.55z"/>
		<path class="st2" d="M37.54,40.85v0.37h-1.63v1.13h1.32v0.36h-1.32v1.16h1.63v0.37h-2.1v-3.4H37.54z"/>
		<path class="st2" d="M41.51,43.55c0.03,0,0.05,0.01,0.07,0.03l0.18,0.2c-0.14,0.16-0.31,0.29-0.51,0.38
			c-0.2,0.09-0.44,0.14-0.72,0.14c-0.24,0-0.47-0.04-0.67-0.13c-0.2-0.08-0.37-0.2-0.51-0.36c-0.14-0.15-0.25-0.34-0.33-0.55
			c-0.08-0.21-0.12-0.45-0.12-0.71c0-0.26,0.04-0.49,0.12-0.71c0.08-0.21,0.2-0.4,0.35-0.55c0.15-0.15,0.33-0.27,0.54-0.36
			c0.21-0.08,0.44-0.13,0.69-0.13c0.25,0,0.47,0.04,0.65,0.12c0.18,0.08,0.34,0.18,0.48,0.32l-0.15,0.21
			c-0.01,0.02-0.02,0.03-0.04,0.04c-0.01,0.01-0.03,0.02-0.06,0.02c-0.02,0-0.04-0.01-0.07-0.02c-0.02-0.02-0.05-0.03-0.08-0.06
			c-0.03-0.02-0.07-0.05-0.11-0.07c-0.04-0.03-0.09-0.05-0.15-0.07c-0.06-0.02-0.13-0.04-0.2-0.06c-0.08-0.01-0.17-0.02-0.27-0.02
			c-0.18,0-0.35,0.03-0.5,0.09c-0.15,0.06-0.28,0.15-0.39,0.27c-0.11,0.12-0.19,0.26-0.25,0.42c-0.06,0.17-0.09,0.35-0.09,0.56
			c0,0.21,0.03,0.4,0.09,0.57c0.06,0.17,0.14,0.31,0.25,0.42c0.1,0.11,0.23,0.2,0.37,0.26c0.14,0.06,0.3,0.09,0.47,0.09
			c0.1,0,0.19-0.01,0.27-0.02c0.08-0.01,0.16-0.03,0.22-0.06c0.07-0.03,0.13-0.06,0.19-0.1c0.06-0.04,0.12-0.09,0.18-0.14
			C41.46,43.56,41.49,43.55,41.51,43.55z"/>
		<path class="st2" d="M44.11,41.38c-0.01,0.02-0.03,0.04-0.05,0.05c-0.02,0.01-0.04,0.02-0.06,0.02c-0.03,0-0.06-0.01-0.09-0.04
			c-0.04-0.03-0.08-0.06-0.14-0.09c-0.05-0.03-0.12-0.06-0.2-0.09c-0.08-0.03-0.17-0.04-0.28-0.04c-0.1,0-0.19,0.01-0.27,0.04
			c-0.08,0.03-0.15,0.07-0.2,0.11c-0.05,0.05-0.09,0.1-0.12,0.17c-0.03,0.06-0.04,0.13-0.04,0.21c0,0.1,0.02,0.17,0.07,0.24
			c0.05,0.06,0.11,0.12,0.18,0.16c0.08,0.04,0.16,0.08,0.26,0.12c0.1,0.03,0.2,0.07,0.3,0.1c0.1,0.03,0.2,0.07,0.3,0.12
			s0.18,0.1,0.26,0.16c0.08,0.07,0.14,0.15,0.18,0.24c0.05,0.1,0.07,0.22,0.07,0.36c0,0.15-0.03,0.29-0.08,0.42
			c-0.05,0.13-0.12,0.24-0.22,0.34c-0.1,0.1-0.22,0.17-0.36,0.23c-0.14,0.06-0.3,0.08-0.48,0.08c-0.22,0-0.42-0.04-0.6-0.12
			c-0.18-0.08-0.34-0.19-0.46-0.32l0.13-0.22c0.01-0.02,0.03-0.03,0.05-0.04c0.02-0.01,0.04-0.02,0.06-0.02
			c0.03,0,0.07,0.02,0.11,0.05c0.04,0.04,0.1,0.07,0.16,0.12c0.06,0.04,0.14,0.08,0.23,0.12c0.09,0.04,0.2,0.05,0.33,0.05
			c0.11,0,0.21-0.02,0.29-0.05c0.09-0.03,0.16-0.07,0.22-0.13c0.06-0.05,0.1-0.12,0.14-0.2c0.03-0.08,0.05-0.16,0.05-0.25
			c0-0.1-0.02-0.19-0.07-0.25c-0.05-0.07-0.11-0.12-0.18-0.17c-0.08-0.04-0.16-0.08-0.26-0.11c-0.1-0.03-0.2-0.06-0.3-0.1
			c-0.1-0.03-0.2-0.07-0.3-0.11c-0.1-0.04-0.18-0.1-0.26-0.17c-0.08-0.07-0.14-0.15-0.18-0.25s-0.07-0.23-0.07-0.38
			c0-0.12,0.02-0.24,0.07-0.35c0.05-0.11,0.11-0.21,0.2-0.3c0.09-0.09,0.2-0.16,0.33-0.21c0.13-0.05,0.28-0.08,0.45-0.08
			c0.19,0,0.36,0.03,0.52,0.09c0.16,0.06,0.29,0.15,0.41,0.26L44.11,41.38z"/>
		<path class="st2" d="M44.68,43.99c0-0.04,0.01-0.08,0.02-0.12c0.02-0.04,0.04-0.07,0.06-0.1c0.03-0.03,0.06-0.05,0.09-0.06
			c0.04-0.02,0.08-0.02,0.12-0.02c0.04,0,0.08,0.01,0.12,0.02c0.04,0.02,0.07,0.04,0.09,0.06c0.03,0.03,0.05,0.06,0.06,0.1
			c0.01,0.04,0.02,0.08,0.02,0.12c0,0.04-0.01,0.08-0.02,0.12c-0.01,0.04-0.04,0.07-0.06,0.09c-0.03,0.03-0.06,0.05-0.09,0.06
			c-0.04,0.02-0.08,0.02-0.12,0.02c-0.04,0-0.08-0.01-0.12-0.02c-0.04-0.01-0.07-0.04-0.09-0.06c-0.03-0.03-0.05-0.06-0.06-0.09
			C44.69,44.07,44.68,44.03,44.68,43.99z"/>
		<path class="st2" d="M1.86,48.68v1.27H1.4v-3.4h1c0.22,0,0.4,0.03,0.56,0.07c0.16,0.05,0.29,0.12,0.39,0.21s0.18,0.2,0.23,0.33
			c0.05,0.13,0.08,0.27,0.08,0.43c0,0.16-0.03,0.3-0.08,0.43c-0.06,0.13-0.14,0.24-0.24,0.34c-0.11,0.1-0.24,0.17-0.4,0.22
			c-0.16,0.05-0.34,0.08-0.54,0.08H1.86z M1.86,48.31H2.4c0.13,0,0.25-0.02,0.35-0.05c0.1-0.03,0.19-0.08,0.25-0.15
			c0.07-0.06,0.12-0.14,0.15-0.22c0.04-0.09,0.05-0.18,0.05-0.29c0-0.22-0.07-0.39-0.2-0.51c-0.13-0.12-0.34-0.18-0.61-0.18H1.86
			V48.31z"/>
		<path class="st2" d="M7.41,48.25c0,0.25-0.04,0.49-0.12,0.7c-0.08,0.21-0.19,0.4-0.34,0.55c-0.15,0.15-0.32,0.27-0.53,0.36
			c-0.21,0.08-0.43,0.13-0.69,0.13c-0.25,0-0.48-0.04-0.68-0.13c-0.21-0.08-0.38-0.2-0.53-0.36c-0.15-0.15-0.26-0.34-0.34-0.55
			c-0.08-0.21-0.12-0.45-0.12-0.7c0-0.25,0.04-0.49,0.12-0.7c0.08-0.21,0.19-0.4,0.34-0.55c0.15-0.15,0.32-0.27,0.53-0.36
			c0.21-0.09,0.43-0.13,0.68-0.13c0.25,0,0.48,0.04,0.69,0.13c0.21,0.09,0.38,0.2,0.53,0.36c0.15,0.15,0.26,0.34,0.34,0.55
			C7.37,47.76,7.41,47.99,7.41,48.25z M6.94,48.25c0-0.21-0.03-0.4-0.09-0.56c-0.06-0.17-0.14-0.31-0.24-0.42
			c-0.1-0.11-0.23-0.2-0.38-0.26c-0.15-0.06-0.32-0.09-0.5-0.09c-0.18,0-0.35,0.03-0.5,0.09c-0.15,0.06-0.28,0.15-0.38,0.26
			c-0.1,0.11-0.19,0.25-0.24,0.42c-0.06,0.17-0.09,0.35-0.09,0.56c0,0.21,0.03,0.4,0.09,0.56c0.06,0.17,0.14,0.31,0.24,0.42
			c0.11,0.11,0.23,0.2,0.38,0.26c0.15,0.06,0.31,0.09,0.5,0.09c0.18,0,0.35-0.03,0.5-0.09c0.15-0.06,0.28-0.15,0.38-0.26
			c0.1-0.11,0.19-0.25,0.24-0.42C6.91,48.64,6.94,48.46,6.94,48.25z"/>
		<path class="st2" d="M8.5,49.56h1.47v0.39H8.04v-3.4H8.5V49.56z"/>
		<path class="st2" d="M11.61,45.72l-0.7,0.51c-0.03,0.02-0.05,0.03-0.07,0.04s-0.05,0.01-0.08,0.01h-0.33l0.5-0.48
			c0.02-0.02,0.03-0.03,0.04-0.04c0.01-0.01,0.03-0.02,0.04-0.02c0.01-0.01,0.03-0.01,0.05-0.01c0.02,0,0.04,0,0.07,0H11.61z
			 M11.02,49.95h-0.46v-3.4h0.46V49.95z"/>
		<path class="st2" d="M14.25,46.55v0.39h-1.1v3.01h-0.46v-3.01h-1.1v-0.39H14.25z"/>
		<path class="st2" d="M15.28,49.95h-0.46v-3.4h0.46V49.95z"/>
		<path class="st2" d="M18.59,49.24c0.03,0,0.05,0.01,0.07,0.03l0.18,0.2c-0.14,0.16-0.31,0.29-0.51,0.38
			c-0.2,0.09-0.44,0.14-0.72,0.14c-0.24,0-0.47-0.04-0.67-0.13c-0.2-0.08-0.37-0.2-0.51-0.36c-0.14-0.15-0.25-0.34-0.33-0.55
			c-0.08-0.21-0.12-0.45-0.12-0.71c0-0.26,0.04-0.49,0.12-0.71c0.08-0.21,0.2-0.4,0.35-0.55c0.15-0.15,0.33-0.27,0.54-0.36
			s0.44-0.13,0.69-0.13c0.25,0,0.47,0.04,0.65,0.12c0.18,0.08,0.34,0.18,0.48,0.32l-0.15,0.21c-0.01,0.02-0.02,0.03-0.04,0.04
			c-0.01,0.01-0.03,0.02-0.06,0.02c-0.02,0-0.04-0.01-0.07-0.02c-0.02-0.02-0.05-0.03-0.08-0.06c-0.03-0.02-0.07-0.05-0.11-0.07
			c-0.04-0.03-0.09-0.05-0.15-0.07c-0.06-0.02-0.13-0.04-0.2-0.06c-0.08-0.01-0.17-0.02-0.27-0.02c-0.18,0-0.35,0.03-0.5,0.09
			c-0.15,0.06-0.28,0.15-0.39,0.27c-0.11,0.12-0.19,0.26-0.25,0.42c-0.06,0.17-0.09,0.35-0.09,0.56c0,0.21,0.03,0.4,0.09,0.57
			c0.06,0.17,0.14,0.31,0.25,0.42c0.1,0.11,0.23,0.2,0.37,0.26c0.14,0.06,0.3,0.09,0.47,0.09c0.1,0,0.19-0.01,0.27-0.02
			c0.08-0.01,0.16-0.03,0.22-0.06c0.07-0.03,0.13-0.06,0.19-0.1c0.06-0.04,0.12-0.09,0.18-0.14C18.54,49.26,18.56,49.24,18.59,49.24
			z"/>
		<path class="st2" d="M22.24,49.95h-0.36c-0.04,0-0.07-0.01-0.1-0.03c-0.03-0.02-0.04-0.05-0.06-0.08l-0.32-0.82h-1.53l-0.32,0.82
			c-0.01,0.03-0.03,0.05-0.06,0.08c-0.03,0.02-0.06,0.03-0.1,0.03h-0.36l1.36-3.4h0.47L22.24,49.95z M20.01,48.68h1.27l-0.53-1.38
			c-0.04-0.09-0.07-0.19-0.1-0.32c-0.02,0.06-0.04,0.12-0.05,0.18c-0.02,0.05-0.03,0.1-0.05,0.14L20.01,48.68z"/>
		<path class="st2" d="M24.41,47.08c-0.01,0.02-0.03,0.04-0.04,0.05c-0.02,0.01-0.04,0.02-0.06,0.02c-0.03,0-0.06-0.01-0.09-0.04
			c-0.04-0.03-0.08-0.06-0.14-0.09c-0.05-0.03-0.12-0.06-0.2-0.09c-0.08-0.03-0.17-0.04-0.28-0.04c-0.1,0-0.19,0.01-0.27,0.04
			c-0.08,0.03-0.14,0.07-0.2,0.11c-0.05,0.05-0.09,0.1-0.12,0.17c-0.03,0.06-0.04,0.13-0.04,0.21c0,0.1,0.02,0.17,0.07,0.24
			c0.05,0.06,0.11,0.12,0.19,0.16c0.08,0.04,0.16,0.08,0.26,0.12c0.1,0.03,0.2,0.07,0.3,0.1s0.2,0.07,0.3,0.12
			c0.1,0.04,0.18,0.1,0.26,0.16c0.08,0.07,0.14,0.15,0.19,0.24c0.05,0.1,0.07,0.22,0.07,0.36c0,0.15-0.03,0.29-0.08,0.42
			c-0.05,0.13-0.13,0.24-0.22,0.34s-0.22,0.17-0.36,0.23c-0.14,0.06-0.3,0.08-0.48,0.08c-0.22,0-0.42-0.04-0.6-0.12
			c-0.18-0.08-0.34-0.19-0.46-0.32l0.13-0.22c0.01-0.02,0.03-0.03,0.05-0.04c0.02-0.01,0.04-0.02,0.06-0.02
			c0.03,0,0.07,0.02,0.11,0.05c0.04,0.04,0.1,0.07,0.16,0.12c0.06,0.04,0.14,0.08,0.23,0.12c0.09,0.04,0.2,0.05,0.33,0.05
			c0.11,0,0.21-0.02,0.29-0.05c0.09-0.03,0.16-0.07,0.22-0.13c0.06-0.05,0.1-0.12,0.14-0.2c0.03-0.08,0.05-0.16,0.05-0.25
			c0-0.1-0.02-0.19-0.07-0.25s-0.11-0.12-0.18-0.17c-0.08-0.04-0.16-0.08-0.26-0.11c-0.1-0.03-0.2-0.06-0.3-0.1s-0.2-0.07-0.3-0.11
			c-0.1-0.04-0.18-0.1-0.26-0.17c-0.08-0.07-0.14-0.15-0.18-0.25c-0.05-0.1-0.07-0.23-0.07-0.38c0-0.12,0.02-0.24,0.07-0.35
			c0.05-0.11,0.11-0.21,0.2-0.3c0.09-0.09,0.2-0.16,0.33-0.21c0.13-0.05,0.28-0.08,0.45-0.08c0.19,0,0.36,0.03,0.52,0.09
			c0.16,0.06,0.29,0.15,0.41,0.26L24.41,47.08z"/>
		<path class="st2" d="M27.41,48.59v1.35h-0.46v-1.35l-1.25-2.05h0.4c0.04,0,0.07,0.01,0.1,0.03c0.02,0.02,0.04,0.05,0.06,0.08
			l0.78,1.32c0.03,0.06,0.06,0.11,0.08,0.16s0.04,0.1,0.06,0.15c0.02-0.05,0.04-0.1,0.06-0.15s0.05-0.1,0.08-0.15l0.78-1.32
			c0.01-0.03,0.03-0.05,0.06-0.07c0.03-0.02,0.06-0.03,0.1-0.03h0.41L27.41,48.59z"/>
		<path class="st2" d="M31.75,47.08c-0.01,0.02-0.03,0.04-0.04,0.05c-0.02,0.01-0.04,0.02-0.06,0.02c-0.03,0-0.06-0.01-0.09-0.04
			c-0.04-0.03-0.08-0.06-0.14-0.09c-0.05-0.03-0.12-0.06-0.2-0.09c-0.08-0.03-0.17-0.04-0.28-0.04c-0.1,0-0.19,0.01-0.27,0.04
			c-0.08,0.03-0.14,0.07-0.2,0.11c-0.05,0.05-0.09,0.1-0.12,0.17s-0.04,0.13-0.04,0.21c0,0.1,0.02,0.17,0.07,0.24
			c0.05,0.06,0.11,0.12,0.19,0.16c0.08,0.04,0.16,0.08,0.26,0.12c0.1,0.03,0.2,0.07,0.3,0.1s0.2,0.07,0.3,0.12
			c0.1,0.04,0.18,0.1,0.26,0.16c0.08,0.07,0.14,0.15,0.19,0.24c0.05,0.1,0.07,0.22,0.07,0.36c0,0.15-0.03,0.29-0.08,0.42
			c-0.05,0.13-0.13,0.24-0.22,0.34c-0.1,0.1-0.22,0.17-0.36,0.23c-0.14,0.06-0.3,0.08-0.48,0.08c-0.22,0-0.42-0.04-0.6-0.12
			c-0.18-0.08-0.34-0.19-0.46-0.32l0.13-0.22c0.01-0.02,0.03-0.03,0.05-0.04c0.02-0.01,0.04-0.02,0.06-0.02
			c0.03,0,0.07,0.02,0.11,0.05c0.04,0.04,0.1,0.07,0.16,0.12c0.06,0.04,0.14,0.08,0.23,0.12c0.09,0.04,0.2,0.05,0.33,0.05
			c0.11,0,0.21-0.02,0.29-0.05c0.09-0.03,0.16-0.07,0.22-0.13c0.06-0.05,0.1-0.12,0.14-0.2c0.03-0.08,0.05-0.16,0.05-0.25
			c0-0.1-0.02-0.19-0.07-0.25s-0.11-0.12-0.18-0.17c-0.08-0.04-0.16-0.08-0.26-0.11c-0.1-0.03-0.2-0.06-0.3-0.1
			c-0.1-0.03-0.2-0.07-0.3-0.11c-0.1-0.04-0.18-0.1-0.26-0.17c-0.08-0.07-0.14-0.15-0.18-0.25c-0.05-0.1-0.07-0.23-0.07-0.38
			c0-0.12,0.02-0.24,0.07-0.35c0.05-0.11,0.11-0.21,0.2-0.3c0.09-0.09,0.2-0.16,0.33-0.21c0.13-0.05,0.28-0.08,0.45-0.08
			c0.19,0,0.36,0.03,0.52,0.09c0.16,0.06,0.29,0.15,0.41,0.26L31.75,47.08z"/>
		<path class="st2" d="M35.68,48.25c0,0.25-0.04,0.49-0.12,0.7c-0.08,0.21-0.19,0.4-0.34,0.55c-0.15,0.15-0.32,0.27-0.53,0.36
			c-0.21,0.08-0.43,0.13-0.69,0.13c-0.25,0-0.48-0.04-0.68-0.13s-0.38-0.2-0.53-0.36c-0.15-0.15-0.26-0.34-0.34-0.55
			c-0.08-0.21-0.12-0.45-0.12-0.7c0-0.25,0.04-0.49,0.12-0.7c0.08-0.21,0.19-0.4,0.34-0.55c0.15-0.15,0.32-0.27,0.53-0.36
			c0.21-0.09,0.43-0.13,0.68-0.13c0.25,0,0.48,0.04,0.69,0.13c0.21,0.09,0.38,0.2,0.53,0.36c0.15,0.15,0.26,0.34,0.34,0.55
			C35.64,47.76,35.68,47.99,35.68,48.25z M35.21,48.25c0-0.21-0.03-0.4-0.09-0.56c-0.06-0.17-0.14-0.31-0.24-0.42
			c-0.1-0.11-0.23-0.2-0.38-0.26c-0.15-0.06-0.32-0.09-0.5-0.09c-0.18,0-0.35,0.03-0.5,0.09s-0.28,0.15-0.38,0.26
			c-0.1,0.11-0.19,0.25-0.24,0.42c-0.06,0.17-0.09,0.35-0.09,0.56c0,0.21,0.03,0.4,0.09,0.56c0.06,0.17,0.14,0.31,0.24,0.42
			c0.11,0.11,0.23,0.2,0.38,0.26c0.15,0.06,0.31,0.09,0.5,0.09c0.18,0,0.35-0.03,0.5-0.09c0.15-0.06,0.28-0.15,0.38-0.26
			c0.1-0.11,0.19-0.25,0.24-0.42C35.18,48.64,35.21,48.46,35.21,48.25z"/>
		<path class="st2" d="M38.7,49.24c0.03,0,0.05,0.01,0.07,0.03l0.18,0.2c-0.14,0.16-0.31,0.29-0.51,0.38
			c-0.2,0.09-0.44,0.14-0.72,0.14c-0.25,0-0.47-0.04-0.67-0.13s-0.37-0.2-0.51-0.36c-0.14-0.15-0.25-0.34-0.33-0.55
			c-0.08-0.21-0.12-0.45-0.12-0.71c0-0.26,0.04-0.49,0.13-0.71c0.08-0.21,0.2-0.4,0.35-0.55c0.15-0.15,0.33-0.27,0.54-0.36
			c0.21-0.08,0.44-0.13,0.69-0.13c0.25,0,0.47,0.04,0.65,0.12c0.18,0.08,0.34,0.18,0.48,0.32l-0.15,0.21
			c-0.01,0.02-0.02,0.03-0.04,0.04c-0.01,0.01-0.04,0.02-0.06,0.02c-0.02,0-0.04-0.01-0.06-0.02c-0.02-0.02-0.05-0.03-0.08-0.06
			c-0.03-0.02-0.07-0.05-0.11-0.07c-0.04-0.03-0.09-0.05-0.15-0.07c-0.06-0.02-0.13-0.04-0.2-0.06c-0.08-0.01-0.17-0.02-0.27-0.02
			c-0.18,0-0.35,0.03-0.5,0.09c-0.15,0.06-0.28,0.15-0.39,0.27c-0.11,0.12-0.19,0.26-0.25,0.42c-0.06,0.17-0.09,0.35-0.09,0.56
			c0,0.21,0.03,0.4,0.09,0.57c0.06,0.17,0.14,0.31,0.25,0.42c0.11,0.11,0.23,0.2,0.37,0.26c0.14,0.06,0.3,0.09,0.46,0.09
			c0.1,0,0.19-0.01,0.27-0.02c0.08-0.01,0.15-0.03,0.22-0.06c0.07-0.03,0.13-0.06,0.19-0.1c0.06-0.04,0.12-0.09,0.18-0.14
			C38.65,49.26,38.68,49.24,38.7,49.24z"/>
		<path class="st2" d="M40.1,49.95h-0.46v-3.4h0.46V49.95z"/>
		<path class="st2" d="M43.81,49.95h-0.36c-0.04,0-0.07-0.01-0.1-0.03c-0.03-0.02-0.04-0.05-0.06-0.08l-0.32-0.82h-1.53l-0.32,0.82
			c-0.01,0.03-0.03,0.05-0.06,0.08c-0.03,0.02-0.06,0.03-0.1,0.03h-0.36l1.36-3.4h0.47L43.81,49.95z M41.59,48.68h1.27l-0.53-1.38
			c-0.03-0.09-0.07-0.19-0.1-0.32c-0.02,0.06-0.03,0.12-0.05,0.18c-0.02,0.05-0.03,0.1-0.05,0.14L41.59,48.68z"/>
		<path class="st2" d="M44.7,49.56h1.47v0.39h-1.93v-3.4h0.46V49.56z"/>
		<path class="st2" d="M48.78,46.55v0.37h-1.63v1.13h1.32v0.36h-1.32v1.16h1.63v0.37h-2.1v-3.4H48.78z"/>
		<path class="st2" d="M51.18,47.08c-0.01,0.02-0.03,0.04-0.05,0.05c-0.02,0.01-0.04,0.02-0.06,0.02c-0.03,0-0.06-0.01-0.09-0.04
			c-0.04-0.03-0.08-0.06-0.14-0.09c-0.05-0.03-0.12-0.06-0.2-0.09c-0.08-0.03-0.17-0.04-0.28-0.04c-0.1,0-0.19,0.01-0.27,0.04
			c-0.08,0.03-0.15,0.07-0.2,0.11c-0.05,0.05-0.09,0.1-0.12,0.17c-0.03,0.06-0.04,0.13-0.04,0.21c0,0.1,0.02,0.17,0.07,0.24
			c0.05,0.06,0.11,0.12,0.18,0.16c0.08,0.04,0.16,0.08,0.26,0.12c0.1,0.03,0.2,0.07,0.3,0.1s0.2,0.07,0.3,0.12
			c0.1,0.04,0.18,0.1,0.26,0.16c0.08,0.07,0.14,0.15,0.18,0.24c0.05,0.1,0.07,0.22,0.07,0.36c0,0.15-0.03,0.29-0.08,0.42
			c-0.05,0.13-0.12,0.24-0.22,0.34s-0.22,0.17-0.36,0.23c-0.14,0.06-0.3,0.08-0.48,0.08c-0.22,0-0.42-0.04-0.6-0.12
			c-0.18-0.08-0.34-0.19-0.46-0.32l0.13-0.22c0.01-0.02,0.03-0.03,0.05-0.04c0.02-0.01,0.04-0.02,0.06-0.02
			c0.03,0,0.07,0.02,0.11,0.05c0.04,0.04,0.1,0.07,0.16,0.12c0.06,0.04,0.14,0.08,0.23,0.12c0.09,0.04,0.2,0.05,0.33,0.05
			c0.11,0,0.21-0.02,0.29-0.05c0.09-0.03,0.16-0.07,0.22-0.13c0.06-0.05,0.1-0.12,0.14-0.2c0.03-0.08,0.05-0.16,0.05-0.25
			c0-0.1-0.02-0.19-0.07-0.25c-0.05-0.07-0.11-0.12-0.18-0.17c-0.08-0.04-0.16-0.08-0.26-0.11c-0.1-0.03-0.2-0.06-0.3-0.1
			s-0.2-0.07-0.3-0.11c-0.1-0.04-0.18-0.1-0.26-0.17c-0.08-0.07-0.14-0.15-0.18-0.25s-0.07-0.23-0.07-0.38
			c0-0.12,0.02-0.24,0.07-0.35c0.05-0.11,0.11-0.21,0.2-0.3c0.09-0.09,0.2-0.16,0.33-0.21c0.13-0.05,0.28-0.08,0.45-0.08
			c0.19,0,0.36,0.03,0.52,0.09c0.16,0.06,0.29,0.15,0.41,0.26L51.18,47.08z"/>
	</g>
</g>
</svg>
