<?xml version="1.0" encoding="utf-8"?>
<!-- Generator: Adobe Illustrator 24.0.2, SVG Export Plug-In . SVG Version: 6.00 Build 0)  -->
<svg version="1.1" id="Capa_1" xmlns="http://www.w3.org/2000/svg" xmlns:xlink="http://www.w3.org/1999/xlink" x="0px" y="0px"
	 viewBox="0 0 402.27 325.53" style="enable-background:new 0 0 402.27 325.53;" xml:space="preserve">
<style type="text/css">
	.st0{fill:#D7EDF4;stroke:#FFFFFF;stroke-width:1.6765;stroke-miterlimit:10;}
	.st1{fill-rule:evenodd;clip-rule:evenodd;fill:#00A0DB;}
	.st2{fill-rule:evenodd;clip-rule:evenodd;fill:#0782BE;}
	.st3{fill-rule:evenodd;clip-rule:evenodd;fill:#FFFFFF;}
	.st4{fill-rule:evenodd;clip-rule:evenodd;fill:#E86537;}
	.st5{fill-rule:evenodd;clip-rule:evenodd;fill:#034569;}
	.st6{fill-rule:evenodd;clip-rule:evenodd;fill:#DE2A66;}
	.st7{fill-rule:evenodd;clip-rule:evenodd;fill:#057C40;}
	.st8{fill-rule:evenodd;clip-rule:evenodd;fill:#CF9521;}
	.st9{fill-rule:evenodd;clip-rule:evenodd;fill:#B31D42;}
	.st10{fill-rule:evenodd;clip-rule:evenodd;fill:#D9272E;}
	.st11{fill-rule:evenodd;clip-rule:evenodd;fill:#E34538;}
	.st12{fill-rule:evenodd;clip-rule:evenodd;fill:#EF9431;}
	.st13{fill-rule:evenodd;clip-rule:evenodd;fill:#ECB129;}
	.st14{fill-rule:evenodd;clip-rule:evenodd;fill:#F7BC13;}
	.st15{fill-rule:evenodd;clip-rule:evenodd;fill:#19A240;}
	.st16{fill-rule:evenodd;clip-rule:evenodd;fill:#02983B;}
	.st17{fill-rule:evenodd;clip-rule:evenodd;fill:#E13244;}
	.st18{fill-rule:evenodd;clip-rule:evenodd;fill:#066698;}
	.st19{fill-rule:evenodd;clip-rule:evenodd;fill:#008CC4;}
	.st20{fill-rule:evenodd;clip-rule:evenodd;fill:#00A3C6;}
	.st21{fill-rule:evenodd;clip-rule:evenodd;fill:#067FC2;stroke:#067FC2;stroke-width:0.25;stroke-miterlimit:22.9256;}
	.st22{fill:none;stroke:#067FC2;stroke-width:0.25;stroke-miterlimit:22.9256;}
	.st23{fill:none;stroke:#119AD7;stroke-width:0.25;stroke-miterlimit:22.9256;}
	.st24{fill-rule:evenodd;clip-rule:evenodd;fill:#067FC2;}
	.st25{fill-rule:evenodd;clip-rule:evenodd;fill:#E76639;}
	.st26{fill-rule:evenodd;clip-rule:evenodd;fill:#DD2C67;}
	.st27{fill-rule:evenodd;clip-rule:evenodd;fill:#037D40;}
	.st28{fill-rule:evenodd;clip-rule:evenodd;fill:#CD9424;}
	.st29{fill-rule:evenodd;clip-rule:evenodd;fill:#B21D42;}
	.st30{fill-rule:evenodd;clip-rule:evenodd;fill:#D8282E;}
	.st31{fill-rule:evenodd;clip-rule:evenodd;fill:#E3453A;}
	.st32{fill-rule:evenodd;clip-rule:evenodd;fill:#EF9433;}
	.st33{fill-rule:evenodd;clip-rule:evenodd;fill:#EBB029;}
	.st34{fill-rule:evenodd;clip-rule:evenodd;fill:#F7BB18;}
	.st35{fill-rule:evenodd;clip-rule:evenodd;fill:#E03344;}
	.st36{fill-rule:evenodd;clip-rule:evenodd;fill:#028BC4;}
	.st37{fill-rule:evenodd;clip-rule:evenodd;fill:#00A2C4;}
	.st38{fill:#FFFFFF;}
	.st39{fill:#CE6529;}
	.st40{fill:#D7EDF4;stroke:#FFFFFF;stroke-width:7.2304;stroke-miterlimit:10;}
</style>
<g>
	<g>
		<polygon class="st40" points="392.41,320.4 273.19,302.6 193.1,284.61 187,250.18 184.96,221.8 102.68,221.8 93.08,224.05 
			86.81,232.24 72.46,235.29 61.81,243.47 61.81,256.01 61.59,261.07 22.98,256.02 4.54,247.65 9.33,234.43 11.72,222.07 
			19.75,211.74 10.38,184.43 11.14,156.39 27.02,125.39 36.25,100.3 35.52,71.52 59.14,51.76 61.35,36.43 108.58,36.43 113.85,22.8 
			137.36,16.53 160.05,3.8 176.47,7.04 200.92,34.85 232.56,56.14 246.58,52.39 254.7,55.31 276.84,51.61 292.34,58.24 
			322.59,66.35 319.64,85.54 337.35,106.94 342.52,127.6 346.95,144.58 358.02,158.6 366.87,188.12 374.25,202.14 371.3,215.06 
			378.13,239.78 368.61,254.54 369.8,281.84 369.8,296.6 		"/>
	</g>
	<path class="st39" d="M118.77,62.97c-3.84,0-6.95,3.11-6.95,6.95c0,6.95,6.95,15.29,6.95,15.29s6.95-8.34,6.95-15.29
		C125.72,66.08,122.61,62.97,118.77,62.97z"/>
	<path class="st39" d="M161.77,89.97c-3.84,0-6.95,3.11-6.95,6.95c0,6.95,6.95,15.29,6.95,15.29s6.95-8.34,6.95-15.29
		C168.72,93.08,165.61,89.97,161.77,89.97z"/>
	<path class="st39" d="M118.77,123.97c-3.84,0-6.95,3.11-6.95,6.95c0,6.95,6.95,15.29,6.95,15.29s6.95-8.34,6.95-15.29
		C125.72,127.08,122.61,123.97,118.77,123.97z"/>
	<path class="st39" d="M247.77,144.97c-3.84,0-6.95,3.11-6.95,6.95c0,6.95,6.95,15.29,6.95,15.29s6.95-8.34,6.95-15.29
		C254.72,148.08,251.61,144.97,247.77,144.97z"/>
	<path class="st39" d="M225.77,95.97c-3.84,0-6.95,3.11-6.95,6.95c0,6.95,6.95,15.29,6.95,15.29s6.95-8.34,6.95-15.29
		C232.72,99.08,229.61,95.97,225.77,95.97z"/>
	<path class="st39" d="M196.77,157.97c-3.84,0-6.95,3.11-6.95,6.95c0,6.95,6.95,15.29,6.95,15.29s6.95-8.34,6.95-15.29
		C203.72,161.08,200.61,157.97,196.77,157.97z"/>
	<path class="st39" d="M269.77,220.97c-3.84,0-6.95,3.11-6.95,6.95c0,6.95,6.95,15.29,6.95,15.29s6.95-8.34,6.95-15.29
		C276.72,224.08,273.61,220.97,269.77,220.97z"/>
</g>
</svg>
