<?xml version="1.0" encoding="utf-8"?>
<!-- Generator: Adobe Illustrator 24.0.2, SVG Export Plug-In . SVG Version: 6.00 Build 0)  -->
<svg version="1.1" id="Capa_1" xmlns="http://www.w3.org/2000/svg" xmlns:xlink="http://www.w3.org/1999/xlink" x="0px" y="0px"
	 viewBox="0 0 145.94 35.33" style="enable-background:new 0 0 145.94 35.33;" xml:space="preserve">
<style type="text/css">
	.st0{fill:#FFFFFF;}
	.st1{opacity:0.7;}
	.st2{fill:#38B5D0;}
</style>
<g>
	<g>
		<g>
			<path class="st2" d="M11.84,14.23c0.1,0.26,0.2,0.52,0.3,0.78c0.1-0.27,0.2-0.53,0.3-0.78c0.11-0.25,0.23-0.49,0.36-0.75
				l7.03-12.78c0.12-0.22,0.26-0.36,0.39-0.41c0.13-0.05,0.33-0.07,0.58-0.07h2.07v20.78h-2.47V5.74c0-0.2,0-0.42,0.01-0.65
				c0.01-0.23,0.02-0.47,0.04-0.71l-7.12,12.99c-0.24,0.43-0.58,0.65-1.02,0.65h-0.41c-0.44,0-0.77-0.22-1.01-0.65L3.64,4.34
				c0.03,0.25,0.05,0.5,0.07,0.74c0.01,0.24,0.02,0.47,0.02,0.67v15.27H1.26V0.23h2.07c0.25,0,0.44,0.03,0.58,0.07
				c0.13,0.05,0.27,0.18,0.39,0.41l7.18,12.79C11.62,13.73,11.74,13.97,11.84,14.23z"/>
			<path class="st2" d="M45.03,21.01h-2.18c-0.25,0-0.45-0.06-0.61-0.19c-0.15-0.12-0.27-0.28-0.35-0.48l-1.94-5.02h-9.32
				l-1.94,5.02c-0.07,0.17-0.18,0.33-0.35,0.46c-0.16,0.14-0.37,0.2-0.61,0.2h-2.17l8.31-20.78h2.86L45.03,21.01z M31.42,13.3h7.76
				l-3.26-8.45c-0.21-0.52-0.42-1.17-0.62-1.96c-0.11,0.4-0.21,0.76-0.31,1.1c-0.1,0.33-0.2,0.62-0.3,0.88L31.42,13.3z"/>
			<path class="st2" d="M50.75,13.24v7.77h-2.8V0.23h6.13c1.31,0,2.46,0.15,3.43,0.46c0.97,0.3,1.78,0.74,2.41,1.3
				c0.64,0.56,1.11,1.24,1.43,2.03c0.31,0.79,0.47,1.68,0.47,2.65c0,0.97-0.17,1.85-0.51,2.65c-0.34,0.8-0.83,1.49-1.48,2.07
				c-0.65,0.58-1.46,1.03-2.43,1.36c-0.97,0.32-2.07,0.49-3.32,0.49H50.75z M50.75,11h3.34c0.8,0,1.51-0.11,2.12-0.32
				c0.61-0.21,1.13-0.51,1.54-0.89c0.41-0.38,0.73-0.84,0.94-1.37c0.21-0.53,0.32-1.12,0.32-1.75c0-1.32-0.41-2.36-1.23-3.1
				c-0.82-0.74-2.05-1.12-3.7-1.12h-3.34V11z"/>
			<path class="st2" d="M73.46,18.78c0.86,0,1.63-0.14,2.3-0.44c0.68-0.29,1.25-0.7,1.72-1.22c0.47-0.52,0.83-1.15,1.07-1.87
				c0.25-0.73,0.37-1.52,0.37-2.39V0.23h2.8v12.63c0,1.2-0.19,2.31-0.57,3.33c-0.38,1.03-0.93,1.91-1.64,2.66
				c-0.71,0.75-1.58,1.34-2.6,1.76c-1.02,0.43-2.18,0.64-3.45,0.64c-1.28,0-2.43-0.21-3.45-0.64c-1.02-0.42-1.89-1.01-2.61-1.76
				c-0.72-0.75-1.26-1.64-1.65-2.66c-0.38-1.02-0.57-2.14-0.57-3.33V0.23h2.8v12.62c0,0.87,0.12,1.67,0.37,2.39
				c0.25,0.73,0.6,1.35,1.07,1.87c0.47,0.52,1.04,0.93,1.73,1.23C71.82,18.63,72.59,18.78,73.46,18.78z"/>
			<path class="st2" d="M88.56,0.33c0.12,0.06,0.26,0.19,0.41,0.38L101,16.37c-0.03-0.25-0.05-0.5-0.06-0.73
				c-0.01-0.24-0.01-0.47-0.01-0.69V0.23h2.47v20.78h-1.42c-0.22,0-0.41-0.04-0.56-0.12c-0.15-0.08-0.3-0.21-0.44-0.39L88.95,4.86
				C88.97,5.1,88.99,5.34,89,5.57c0.01,0.23,0.01,0.44,0.01,0.64v14.8h-2.47V0.23H88C88.25,0.23,88.43,0.26,88.56,0.33z"/>
			<path class="st2" d="M123.12,16.72c0.15,0,0.29,0.06,0.42,0.19l1.1,1.2c-0.85,0.99-1.88,1.75-3.1,2.31
				c-1.21,0.55-2.67,0.83-4.39,0.83c-1.5,0-2.86-0.26-4.07-0.78c-1.22-0.52-2.26-1.24-3.12-2.18c-0.86-0.93-1.53-2.05-2-3.36
				c-0.47-1.31-0.71-2.74-0.71-4.31s0.25-3,0.76-4.31c0.51-1.31,1.22-2.43,2.14-3.36c0.92-0.94,2.02-1.67,3.3-2.18
				c1.28-0.52,2.69-0.78,4.24-0.78c1.53,0,2.84,0.24,3.95,0.71c1.11,0.47,2.09,1.12,2.95,1.93l-0.91,1.29
				c-0.07,0.1-0.14,0.18-0.23,0.24c-0.09,0.06-0.21,0.09-0.38,0.09c-0.12,0-0.26-0.05-0.4-0.14c-0.14-0.09-0.31-0.21-0.5-0.34
				c-0.19-0.14-0.42-0.28-0.68-0.44c-0.26-0.15-0.57-0.3-0.93-0.43c-0.36-0.14-0.77-0.25-1.25-0.34c-0.47-0.09-1.02-0.14-1.64-0.14
				c-1.11,0-2.13,0.19-3.05,0.57c-0.92,0.38-1.72,0.93-2.38,1.63c-0.67,0.71-1.19,1.57-1.56,2.58c-0.37,1.02-0.56,2.15-0.56,3.41
				c0,1.3,0.19,2.45,0.56,3.47c0.37,1.02,0.88,1.87,1.52,2.57c0.64,0.7,1.4,1.23,2.28,1.6c0.88,0.37,1.83,0.55,2.84,0.55
				c0.62,0,1.17-0.04,1.67-0.11c0.49-0.07,0.95-0.19,1.37-0.34c0.42-0.15,0.81-0.35,1.17-0.59c0.36-0.24,0.73-0.52,1.09-0.85
				C122.8,16.79,122.96,16.72,123.12,16.72z"/>
			<path class="st2" d="M136.41,18.78c0.86,0,1.63-0.14,2.3-0.44c0.68-0.29,1.25-0.7,1.72-1.22c0.47-0.52,0.83-1.15,1.07-1.87
				c0.25-0.73,0.37-1.52,0.37-2.39V0.23h2.8v12.63c0,1.2-0.19,2.31-0.57,3.33c-0.38,1.03-0.93,1.91-1.64,2.66
				c-0.71,0.75-1.58,1.34-2.6,1.76c-1.02,0.43-2.18,0.64-3.45,0.64c-1.28,0-2.43-0.21-3.45-0.64c-1.02-0.42-1.89-1.01-2.61-1.76
				c-0.71-0.75-1.26-1.64-1.65-2.66c-0.38-1.02-0.57-2.14-0.57-3.33V0.23h2.8v12.62c0,0.87,0.12,1.67,0.37,2.39
				c0.25,0.73,0.6,1.35,1.07,1.87c0.47,0.52,1.04,0.93,1.73,1.23C134.78,18.63,135.55,18.78,136.41,18.78z"/>
		</g>
		<g>
			<path class="st2" d="M2.68,33.93c0.02-0.04,0.03-0.08,0.05-0.12c0.02-0.04,0.03-0.08,0.06-0.11l2.11-3.73
				c0.02-0.03,0.04-0.05,0.06-0.06C4.97,29.91,5,29.9,5.03,29.9H5.3v5.37H4.96v-4.57c0-0.07,0-0.14,0.01-0.21l-2.11,3.75
				c-0.04,0.07-0.09,0.1-0.15,0.1H2.65c-0.06,0-0.11-0.03-0.15-0.1l-2.17-3.76c0.01,0.07,0.01,0.14,0.01,0.21v4.57H0V29.9h0.27
				c0.04,0,0.06,0,0.09,0.01c0.02,0.01,0.04,0.03,0.06,0.06l2.17,3.73C2.62,33.78,2.65,33.85,2.68,33.93z"/>
			<path class="st2" d="M10.94,35.27h-0.3c-0.04,0-0.06-0.01-0.09-0.03c-0.02-0.02-0.04-0.04-0.05-0.07l-0.63-1.56H7.23L6.6,35.17
				c-0.01,0.03-0.03,0.05-0.05,0.07c-0.03,0.02-0.06,0.03-0.09,0.03h-0.3l2.2-5.37h0.39L10.94,35.27z M7.34,33.32h2.41l-1.1-2.71
				c-0.02-0.04-0.04-0.09-0.05-0.15c-0.02-0.05-0.04-0.11-0.05-0.17c-0.02,0.06-0.04,0.12-0.05,0.17c-0.02,0.05-0.04,0.1-0.05,0.15
				L7.34,33.32z"/>
			<path class="st2" d="M12.29,33.11v2.16H11.9V29.9h1.38c0.63,0,1.1,0.14,1.42,0.41s0.48,0.67,0.48,1.18
				c0,0.24-0.04,0.45-0.13,0.65c-0.09,0.2-0.21,0.37-0.38,0.51c-0.16,0.14-0.36,0.25-0.6,0.33c-0.24,0.08-0.5,0.12-0.8,0.12H12.29z
				 M12.29,32.8h1c0.24,0,0.45-0.03,0.64-0.1c0.19-0.07,0.35-0.16,0.48-0.27c0.13-0.12,0.23-0.25,0.3-0.41
				c0.07-0.16,0.1-0.33,0.1-0.52c0-0.41-0.13-0.73-0.38-0.95c-0.25-0.22-0.63-0.33-1.14-0.33h-1V32.8z"/>
			<path class="st2" d="M19.51,29.9v0.32h-2.83v2.17h2.35v0.31h-2.35v2.24h2.83v0.32h-3.22V29.9H19.51z"/>
			<path class="st2" d="M25.56,32.58c0,0.41-0.06,0.79-0.19,1.13c-0.12,0.34-0.3,0.63-0.52,0.86c-0.23,0.24-0.49,0.42-0.81,0.55
				c-0.31,0.13-0.66,0.2-1.04,0.2c-0.38,0-0.72-0.07-1.04-0.2c-0.31-0.13-0.58-0.31-0.81-0.55s-0.4-0.53-0.53-0.86
				c-0.13-0.34-0.19-0.71-0.19-1.13c0-0.41,0.06-0.79,0.19-1.12c0.13-0.34,0.3-0.63,0.53-0.87c0.23-0.24,0.49-0.42,0.81-0.56
				c0.31-0.13,0.66-0.2,1.04-0.2c0.38,0,0.73,0.07,1.04,0.2c0.31,0.13,0.58,0.32,0.81,0.56c0.22,0.24,0.4,0.53,0.52,0.87
				C25.5,31.8,25.56,32.17,25.56,32.58z M25.16,32.58c0-0.37-0.05-0.71-0.16-1.01c-0.1-0.3-0.25-0.55-0.44-0.76
				c-0.19-0.21-0.42-0.37-0.68-0.48c-0.27-0.11-0.56-0.17-0.88-0.17c-0.32,0-0.61,0.06-0.87,0.17c-0.26,0.11-0.49,0.27-0.68,0.48
				c-0.19,0.21-0.34,0.46-0.44,0.76c-0.1,0.3-0.16,0.63-0.16,1.01c0,0.38,0.05,0.71,0.16,1.01c0.1,0.3,0.25,0.55,0.44,0.76
				c0.19,0.21,0.42,0.37,0.68,0.47s0.56,0.16,0.87,0.16c0.32,0,0.62-0.05,0.88-0.16c0.27-0.11,0.49-0.27,0.68-0.47
				c0.19-0.21,0.33-0.46,0.44-0.76S25.16,32.96,25.16,32.58z"/>
			<path class="st2" d="M32.81,32.58c0,0.41-0.06,0.79-0.19,1.12c-0.12,0.33-0.3,0.61-0.52,0.85c-0.23,0.23-0.49,0.41-0.81,0.53
				c-0.31,0.12-0.66,0.19-1.04,0.19h-1.96V29.9h1.96c0.38,0,0.73,0.06,1.04,0.19s0.58,0.3,0.81,0.53c0.23,0.23,0.4,0.51,0.52,0.85
				C32.75,31.8,32.81,32.17,32.81,32.58z M32.41,32.58c0-0.37-0.05-0.71-0.16-1s-0.25-0.54-0.44-0.74c-0.19-0.2-0.42-0.36-0.68-0.46
				c-0.27-0.11-0.56-0.16-0.88-0.16h-1.57v4.74h1.57c0.32,0,0.62-0.05,0.88-0.16c0.27-0.11,0.49-0.26,0.68-0.46
				c0.19-0.2,0.33-0.45,0.44-0.74C32.35,33.3,32.41,32.96,32.41,32.58z"/>
			<path class="st2" d="M37.27,29.9v0.32h-2.83v2.17h2.35v0.31h-2.35v2.24h2.83v0.32h-3.22V29.9H37.27z"/>
			<path class="st2" d="M39.26,29.9h0.31c0.04,0,0.06,0.01,0.09,0.03c0.02,0.02,0.04,0.04,0.05,0.07l1.83,4.45
				c0.05,0.12,0.09,0.24,0.12,0.37c0.03-0.14,0.06-0.26,0.11-0.37L43.59,30c0.01-0.03,0.03-0.05,0.05-0.07
				c0.02-0.02,0.05-0.03,0.09-0.03h0.3l-2.22,5.37h-0.35L39.26,29.9z"/>
			<path class="st2" d="M45.42,35.27h-0.39V29.9h0.39V35.27z"/>
			<path class="st2" d="M47.43,29.91c0.02,0.01,0.04,0.03,0.06,0.06l3.47,4.65c-0.01-0.08-0.01-0.15-0.01-0.22v-4.5h0.34v5.37h-0.19
				c-0.06,0-0.1-0.03-0.14-0.08l-3.49-4.66c0.01,0.08,0.01,0.15,0.01,0.22v4.52h-0.34V29.9h0.19C47.39,29.9,47.41,29.91,47.43,29.91
				z"/>
			<path class="st2" d="M56.8,34.37c0.03,0,0.05,0.01,0.06,0.03l0.15,0.16c-0.11,0.12-0.23,0.23-0.36,0.32
				c-0.13,0.1-0.27,0.18-0.43,0.24c-0.16,0.07-0.33,0.12-0.51,0.16c-0.19,0.04-0.39,0.05-0.61,0.05c-0.37,0-0.71-0.07-1.02-0.2
				c-0.31-0.13-0.58-0.31-0.8-0.55c-0.22-0.24-0.39-0.53-0.52-0.87c-0.12-0.34-0.19-0.72-0.19-1.13c0-0.41,0.06-0.78,0.19-1.12
				c0.13-0.34,0.31-0.63,0.54-0.87s0.51-0.43,0.83-0.56c0.32-0.13,0.68-0.2,1.07-0.2c0.2,0,0.37,0.01,0.54,0.04s0.31,0.07,0.45,0.13
				c0.14,0.05,0.27,0.12,0.4,0.2c0.12,0.08,0.25,0.17,0.36,0.28l-0.12,0.17c-0.02,0.03-0.05,0.05-0.09,0.05
				c-0.02,0-0.05-0.01-0.09-0.04c-0.04-0.03-0.08-0.06-0.13-0.1c-0.05-0.04-0.12-0.08-0.2-0.13c-0.08-0.05-0.17-0.09-0.28-0.13
				c-0.11-0.04-0.23-0.07-0.37-0.1c-0.14-0.03-0.3-0.04-0.47-0.04c-0.33,0-0.63,0.06-0.9,0.17c-0.27,0.11-0.51,0.27-0.71,0.48
				c-0.2,0.21-0.35,0.46-0.46,0.76c-0.11,0.3-0.17,0.63-0.17,1c0,0.38,0.05,0.72,0.16,1.02s0.26,0.55,0.45,0.76
				c0.19,0.21,0.42,0.36,0.68,0.47c0.26,0.11,0.55,0.16,0.85,0.16c0.19,0,0.36-0.01,0.51-0.04c0.15-0.03,0.29-0.06,0.42-0.11
				c0.13-0.05,0.24-0.11,0.35-0.19c0.11-0.07,0.22-0.16,0.32-0.26c0.01-0.01,0.02-0.02,0.04-0.02
				C56.77,34.37,56.78,34.37,56.8,34.37z"/>
			<path class="st2" d="M60.22,34.99c0.26,0,0.49-0.04,0.69-0.13c0.2-0.09,0.38-0.21,0.52-0.37c0.14-0.16,0.25-0.35,0.32-0.56
				c0.07-0.22,0.11-0.45,0.11-0.7V29.9h0.39v3.32c0,0.3-0.05,0.57-0.14,0.83c-0.09,0.26-0.23,0.48-0.4,0.67
				c-0.18,0.19-0.39,0.34-0.64,0.45c-0.25,0.11-0.53,0.16-0.85,0.16c-0.31,0-0.6-0.05-0.85-0.16c-0.25-0.11-0.47-0.26-0.64-0.45
				c-0.18-0.19-0.31-0.41-0.4-0.67c-0.09-0.26-0.14-0.53-0.14-0.83V29.9h0.39v3.32c0,0.25,0.04,0.48,0.11,0.7
				c0.07,0.22,0.18,0.4,0.32,0.56s0.31,0.28,0.52,0.38C59.73,34.95,59.96,34.99,60.22,34.99z"/>
			<path class="st2" d="M64.19,34.94h2.55v0.33H63.8V29.9h0.39V34.94z"/>
			<path class="st2" d="M71.72,35.27h-0.3c-0.04,0-0.06-0.01-0.09-0.03c-0.02-0.02-0.04-0.04-0.05-0.07l-0.63-1.56h-2.64l-0.63,1.56
				c-0.01,0.03-0.03,0.05-0.05,0.07c-0.03,0.02-0.06,0.03-0.09,0.03h-0.3l2.2-5.37h0.39L71.72,35.27z M68.13,33.32h2.41l-1.1-2.71
				c-0.02-0.04-0.04-0.09-0.05-0.15c-0.02-0.05-0.04-0.11-0.05-0.17c-0.02,0.06-0.04,0.12-0.05,0.17c-0.02,0.05-0.04,0.1-0.05,0.15
				L68.13,33.32z"/>
			<path class="st2" d="M76.36,34.37c0.03,0,0.05,0.01,0.07,0.03l0.15,0.16c-0.11,0.12-0.23,0.23-0.36,0.32
				c-0.13,0.1-0.27,0.18-0.43,0.24c-0.16,0.07-0.33,0.12-0.51,0.16c-0.19,0.04-0.39,0.05-0.61,0.05c-0.37,0-0.71-0.07-1.02-0.2
				c-0.31-0.13-0.58-0.31-0.8-0.55c-0.22-0.24-0.39-0.53-0.52-0.87c-0.12-0.34-0.19-0.72-0.19-1.13c0-0.41,0.06-0.78,0.19-1.12
				c0.13-0.34,0.31-0.63,0.54-0.87c0.23-0.24,0.51-0.43,0.83-0.56c0.32-0.13,0.68-0.2,1.07-0.2c0.2,0,0.37,0.01,0.53,0.04
				c0.16,0.03,0.31,0.07,0.45,0.13c0.14,0.05,0.27,0.12,0.4,0.2c0.12,0.08,0.25,0.17,0.36,0.28l-0.12,0.17
				c-0.02,0.03-0.05,0.05-0.09,0.05c-0.02,0-0.05-0.01-0.09-0.04c-0.04-0.03-0.08-0.06-0.14-0.1s-0.12-0.08-0.2-0.13
				c-0.08-0.05-0.17-0.09-0.28-0.13c-0.11-0.04-0.23-0.07-0.37-0.1c-0.14-0.03-0.3-0.04-0.47-0.04c-0.33,0-0.63,0.06-0.9,0.17
				c-0.27,0.11-0.51,0.27-0.71,0.48c-0.2,0.21-0.35,0.46-0.46,0.76c-0.11,0.3-0.17,0.63-0.17,1c0,0.38,0.05,0.72,0.16,1.02
				s0.26,0.55,0.45,0.76c0.19,0.21,0.42,0.36,0.68,0.47c0.26,0.11,0.55,0.16,0.85,0.16c0.19,0,0.36-0.01,0.51-0.04
				c0.15-0.03,0.29-0.06,0.42-0.11c0.13-0.05,0.24-0.11,0.35-0.19c0.11-0.07,0.22-0.16,0.32-0.26c0.01-0.01,0.02-0.02,0.04-0.02
				C76.33,34.37,76.34,34.37,76.36,34.37z"/>
			<path class="st2" d="M78.33,35.27h-0.39V29.9h0.39V35.27z"/>
			<path class="st2" d="M84.85,32.58c0,0.41-0.06,0.79-0.19,1.13c-0.12,0.34-0.3,0.63-0.52,0.86s-0.49,0.42-0.81,0.55
				c-0.31,0.13-0.66,0.2-1.04,0.2c-0.38,0-0.72-0.07-1.04-0.2c-0.31-0.13-0.58-0.31-0.81-0.55c-0.23-0.24-0.4-0.53-0.53-0.86
				s-0.19-0.71-0.19-1.13c0-0.41,0.06-0.79,0.19-1.12c0.13-0.34,0.3-0.63,0.53-0.87c0.22-0.24,0.49-0.42,0.81-0.56
				c0.31-0.13,0.66-0.2,1.04-0.2c0.38,0,0.73,0.07,1.04,0.2c0.31,0.13,0.58,0.32,0.81,0.56c0.22,0.24,0.4,0.53,0.52,0.87
				C84.79,31.8,84.85,32.17,84.85,32.58z M84.45,32.58c0-0.37-0.05-0.71-0.16-1.01c-0.1-0.3-0.25-0.55-0.44-0.76
				c-0.19-0.21-0.41-0.37-0.68-0.48c-0.27-0.11-0.56-0.17-0.88-0.17c-0.32,0-0.61,0.06-0.87,0.17c-0.26,0.11-0.49,0.27-0.68,0.48
				c-0.19,0.21-0.34,0.46-0.44,0.76c-0.11,0.3-0.16,0.63-0.16,1.01c0,0.38,0.05,0.71,0.16,1.01c0.1,0.3,0.25,0.55,0.44,0.76
				c0.19,0.21,0.42,0.37,0.68,0.47c0.26,0.11,0.56,0.16,0.87,0.16c0.32,0,0.62-0.05,0.88-0.16s0.49-0.27,0.68-0.47
				c0.19-0.21,0.33-0.46,0.44-0.76C84.4,33.3,84.45,32.96,84.45,32.58z M83.39,28.55l-1.11,0.82c-0.03,0.02-0.05,0.03-0.07,0.04
				c-0.02,0.01-0.05,0.01-0.08,0.01h-0.27l0.86-0.78c0.04-0.03,0.07-0.05,0.1-0.07c0.03-0.01,0.08-0.02,0.14-0.02H83.39z"/>
			<path class="st2" d="M86.39,29.91c0.02,0.01,0.04,0.03,0.06,0.06l3.48,4.65c-0.01-0.08-0.01-0.15-0.01-0.22v-4.5h0.34v5.37h-0.19
				c-0.06,0-0.1-0.03-0.14-0.08l-3.49-4.66c0.01,0.08,0.01,0.15,0.01,0.22v4.52h-0.34V29.9h0.19C86.34,29.9,86.37,29.91,86.39,29.91
				z"/>
			<path class="st2" d="M97.22,34.37c0.03,0,0.05,0.01,0.06,0.03l0.15,0.16c-0.11,0.12-0.23,0.23-0.36,0.32
				c-0.13,0.1-0.27,0.18-0.43,0.24c-0.16,0.07-0.33,0.12-0.51,0.16c-0.19,0.04-0.39,0.05-0.61,0.05c-0.37,0-0.71-0.07-1.02-0.2
				c-0.31-0.13-0.58-0.31-0.8-0.55c-0.22-0.24-0.39-0.53-0.52-0.87c-0.12-0.34-0.19-0.72-0.19-1.13c0-0.41,0.06-0.78,0.19-1.12
				c0.13-0.34,0.31-0.63,0.54-0.87c0.23-0.24,0.51-0.43,0.83-0.56c0.32-0.13,0.68-0.2,1.07-0.2c0.2,0,0.37,0.01,0.54,0.04
				c0.16,0.03,0.31,0.07,0.45,0.13c0.14,0.05,0.27,0.12,0.4,0.2c0.12,0.08,0.25,0.17,0.36,0.28l-0.12,0.17
				c-0.02,0.03-0.05,0.05-0.09,0.05c-0.02,0-0.05-0.01-0.09-0.04c-0.04-0.03-0.08-0.06-0.13-0.1s-0.12-0.08-0.2-0.13
				c-0.08-0.05-0.17-0.09-0.27-0.13c-0.11-0.04-0.23-0.07-0.37-0.1c-0.14-0.03-0.3-0.04-0.47-0.04c-0.33,0-0.63,0.06-0.9,0.17
				c-0.27,0.11-0.51,0.27-0.71,0.48c-0.2,0.21-0.35,0.46-0.46,0.76c-0.11,0.3-0.17,0.63-0.17,1c0,0.38,0.06,0.72,0.16,1.02
				s0.26,0.55,0.45,0.76c0.19,0.21,0.42,0.36,0.68,0.47c0.26,0.11,0.55,0.16,0.85,0.16c0.19,0,0.36-0.01,0.51-0.04
				c0.15-0.03,0.29-0.06,0.42-0.11c0.13-0.05,0.24-0.11,0.35-0.19c0.11-0.07,0.22-0.16,0.32-0.26c0.01-0.01,0.02-0.02,0.04-0.02
				C97.19,34.37,97.2,34.37,97.22,34.37z"/>
			<path class="st2" d="M103.44,32.58c0,0.41-0.06,0.79-0.19,1.13c-0.12,0.34-0.3,0.63-0.52,0.86c-0.22,0.24-0.49,0.42-0.81,0.55
				c-0.31,0.13-0.66,0.2-1.04,0.2c-0.38,0-0.72-0.07-1.04-0.2c-0.31-0.13-0.58-0.31-0.81-0.55c-0.23-0.24-0.4-0.53-0.53-0.86
				c-0.13-0.34-0.19-0.71-0.19-1.13c0-0.41,0.06-0.79,0.19-1.12c0.13-0.34,0.3-0.63,0.53-0.87c0.22-0.24,0.49-0.42,0.81-0.56
				c0.31-0.13,0.66-0.2,1.04-0.2c0.38,0,0.73,0.07,1.04,0.2c0.31,0.13,0.58,0.32,0.81,0.56c0.22,0.24,0.4,0.53,0.52,0.87
				C103.38,31.8,103.44,32.17,103.44,32.58z M103.04,32.58c0-0.37-0.05-0.71-0.16-1.01c-0.1-0.3-0.25-0.55-0.44-0.76
				c-0.19-0.21-0.41-0.37-0.68-0.48c-0.27-0.11-0.56-0.17-0.88-0.17c-0.32,0-0.61,0.06-0.87,0.17c-0.26,0.11-0.49,0.27-0.68,0.48
				c-0.19,0.21-0.34,0.46-0.44,0.76c-0.11,0.3-0.16,0.63-0.16,1.01c0,0.38,0.05,0.71,0.16,1.01c0.1,0.3,0.25,0.55,0.44,0.76
				c0.19,0.21,0.42,0.37,0.68,0.47s0.56,0.16,0.87,0.16c0.32,0,0.62-0.05,0.88-0.16c0.27-0.11,0.49-0.27,0.68-0.47
				c0.19-0.21,0.33-0.46,0.44-0.76C102.99,33.3,103.04,32.96,103.04,32.58z"/>
			<path class="st2" d="M104.98,29.91c0.02,0.01,0.04,0.03,0.06,0.06l3.48,4.65c-0.01-0.08-0.01-0.15-0.01-0.22v-4.5h0.34v5.37
				h-0.19c-0.06,0-0.1-0.03-0.14-0.08l-3.49-4.66c0.01,0.08,0.01,0.15,0.01,0.22v4.52h-0.34V29.9h0.19
				C104.93,29.9,104.96,29.91,104.98,29.91z"/>
			<path class="st2" d="M115.12,29.9v0.32h-2.83v2.17h2.35v0.31h-2.35v2.24h2.83v0.32h-3.22V29.9H115.12z"/>
			<path class="st2" d="M116.77,34.94h2.55v0.33h-2.93V29.9h0.39V34.94z"/>
			<path class="st2" d="M124.41,33.93c0.02-0.04,0.03-0.08,0.05-0.12c0.02-0.04,0.03-0.08,0.06-0.11l2.11-3.73
				c0.02-0.03,0.04-0.05,0.06-0.06c0.02-0.01,0.05-0.01,0.08-0.01h0.27v5.37h-0.34v-4.57c0-0.07,0-0.14,0.01-0.21l-2.11,3.75
				c-0.04,0.07-0.09,0.1-0.15,0.1h-0.06c-0.06,0-0.11-0.03-0.15-0.1l-2.17-3.76c0.01,0.07,0.01,0.14,0.01,0.21v4.57h-0.34V29.9H122
				c0.04,0,0.06,0,0.09,0.01c0.02,0.01,0.04,0.03,0.06,0.06l2.17,3.73C124.35,33.78,124.38,33.85,124.41,33.93z"/>
			<path class="st2" d="M131.85,29.9v0.32h-2.83v2.17h2.35v0.31h-2.35v2.24h2.83v0.32h-3.22V29.9H131.85z"/>
			<path class="st2" d="M137.63,32.58c0,0.41-0.06,0.79-0.19,1.12c-0.12,0.33-0.3,0.61-0.52,0.85c-0.22,0.23-0.49,0.41-0.81,0.53
				c-0.31,0.12-0.66,0.19-1.04,0.19h-1.96V29.9h1.96c0.38,0,0.73,0.06,1.04,0.19c0.31,0.12,0.58,0.3,0.81,0.53
				c0.23,0.23,0.4,0.51,0.52,0.85C137.57,31.8,137.63,32.17,137.63,32.58z M137.23,32.58c0-0.37-0.05-0.71-0.16-1
				s-0.25-0.54-0.44-0.74c-0.19-0.2-0.41-0.36-0.68-0.46c-0.27-0.11-0.56-0.16-0.88-0.16h-1.57v4.74h1.57
				c0.32,0,0.62-0.05,0.88-0.16c0.27-0.11,0.49-0.26,0.68-0.46c0.19-0.2,0.34-0.45,0.44-0.74C137.18,33.3,137.23,32.96,137.23,32.58
				z"/>
			<path class="st2" d="M139.41,35.27h-0.39V29.9h0.39V35.27z"/>
			<path class="st2" d="M145.94,32.58c0,0.41-0.06,0.79-0.19,1.13c-0.12,0.34-0.3,0.63-0.52,0.86c-0.22,0.24-0.49,0.42-0.81,0.55
				c-0.31,0.13-0.66,0.2-1.04,0.2c-0.38,0-0.72-0.07-1.04-0.2c-0.31-0.13-0.58-0.31-0.81-0.55c-0.23-0.24-0.4-0.53-0.53-0.86
				c-0.13-0.34-0.19-0.71-0.19-1.13c0-0.41,0.06-0.79,0.19-1.12c0.13-0.34,0.3-0.63,0.53-0.87c0.22-0.24,0.49-0.42,0.81-0.56
				c0.31-0.13,0.66-0.2,1.04-0.2c0.38,0,0.73,0.07,1.04,0.2c0.31,0.13,0.58,0.32,0.81,0.56c0.22,0.24,0.4,0.53,0.52,0.87
				C145.87,31.8,145.94,32.17,145.94,32.58z M145.53,32.58c0-0.37-0.05-0.71-0.16-1.01c-0.1-0.3-0.25-0.55-0.44-0.76
				c-0.19-0.21-0.41-0.37-0.68-0.48c-0.27-0.11-0.56-0.17-0.88-0.17c-0.32,0-0.61,0.06-0.87,0.17c-0.26,0.11-0.49,0.27-0.68,0.48
				c-0.19,0.21-0.34,0.46-0.44,0.76c-0.11,0.3-0.16,0.63-0.16,1.01c0,0.38,0.05,0.71,0.16,1.01c0.1,0.3,0.25,0.55,0.44,0.76
				c0.19,0.21,0.42,0.37,0.68,0.47c0.26,0.11,0.56,0.16,0.87,0.16c0.32,0,0.62-0.05,0.88-0.16c0.27-0.11,0.49-0.27,0.68-0.47
				c0.19-0.21,0.33-0.46,0.44-0.76C145.48,33.3,145.53,32.96,145.53,32.58z"/>
		</g>
	</g>
</g>
</svg>
