<?xml version="1.0" encoding="utf-8"?>
<!-- Generator: Adobe Illustrator 24.0.2, SVG Export Plug-In . SVG Version: 6.00 Build 0)  -->
<svg version="1.1" id="Capa_1" xmlns="http://www.w3.org/2000/svg" xmlns:xlink="http://www.w3.org/1999/xlink" x="0px" y="0px"
	 viewBox="0 0 72.88 18.37" style="enable-background:new 0 0 72.88 18.37;" xml:space="preserve">
<style type="text/css">
	.st0{fill:#FFFFFF;}
	.st1{opacity:0.7;}
	.st2{fill:#38B5D0;}
</style>
<g>
	<g>
		<path class="st0" d="M7.8,0c4.3,0,7.8,4.13,7.8,9.18c0,5.06-3.5,9.18-7.8,9.18c-4.3,0-7.8-4.12-7.8-9.18C0,4.13,3.5,0,7.8,0"/>
		<g class="st1">
			<path class="st2" d="M7.8,1.12c3.65,0,6.63,3.62,6.63,8.06c0,4.45-2.98,8.07-6.63,8.07c-3.65,0-6.63-3.62-6.63-8.07
				C1.17,4.74,4.15,1.12,7.8,1.12"/>
		</g>
		<path class="st0" d="M6.22,9.99l0.11-0.15l0.13-0.1C6.7,9.73,6.81,9.48,7.05,9.48c0.01-0.01,0.01-0.02,0.02-0.03
			C7.12,9.37,7.1,9.28,7.05,9.21C6.92,9.05,6.71,9.27,6.57,9.17C6.56,9.13,6.53,9.1,6.49,9.09c-0.12,0-0.14,0.15-0.23,0.18
			C6.17,9.35,6.11,9.45,6.08,9.56l0.04,0.3C6.15,9.91,6.17,9.96,6.22,9.99 M8.71,10.02C8.58,9.98,8.53,9.86,8.44,9.78
			C8.42,9.83,8.4,9.92,8.34,9.94c-0.03,0.02-0.05,0-0.09-0.01c-0.03-0.04-0.01-0.1-0.03-0.14C8.17,9.83,8.19,9.94,8.1,9.95
			c-0.06,0-0.09-0.07-0.15-0.11C7.92,9.85,7.92,9.87,7.89,9.88c-0.03,0-0.06-0.02-0.08-0.05c0-0.03,0.01-0.07,0.03-0.1l0.08-0.17
			C7.65,9.63,7.37,9.73,7.09,9.63L7.07,9.6l0.01-0.02L7.24,9.5c0.03-0.08,0-0.21,0.03-0.32c-0.01-0.1-0.15-0.14-0.11-0.26
			C7.17,8.9,7.19,8.89,7.19,8.87c-0.03,0-0.08,0.03-0.1,0.07c-0.01,0.01,0,0.03-0.01,0.04c0,0.01-0.02,0.02-0.04,0.04
			c-0.08-0.03-0.17,0-0.24,0.04C6.79,9.07,6.78,9.1,6.76,9.13c0,0.01-0.02,0.02-0.03,0.02c-0.02-0.05-0.02-0.1,0-0.15
			c0.07-0.09,0.21-0.13,0.33-0.2l0-0.02c-0.07-0.05-0.16-0.1-0.18-0.2C6.86,8.6,6.85,8.62,6.83,8.64C6.75,8.66,6.65,8.61,6.57,8.55
			C6.53,8.5,6.56,8.44,6.53,8.39C6.51,8.4,6.5,8.44,6.49,8.47C6.48,8.5,6.48,8.54,6.44,8.55c-0.06,0-0.09-0.06-0.12-0.12
			C6.32,8.37,6.28,8.31,6.31,8.25l-0.02,0C6.25,8.27,6.21,8.31,6.15,8.28C6.09,8.25,6.07,8.17,6.08,8.1c0-0.02,0.02-0.05,0.03-0.07
			L5.92,7.9C5.82,7.92,5.7,7.93,5.62,7.85V7.8C5.48,7.83,5.31,7.92,5.17,7.84C5.15,7.84,5.16,7.81,5.16,7.79
			c-0.14,0.05-0.29,0.08-0.43,0C4.69,7.75,4.69,7.71,4.71,7.67c0.06-0.07,0.17-0.06,0.25-0.12C4.79,7.56,4.58,7.64,4.4,7.53
			C4.38,7.5,4.38,7.47,4.38,7.43C4.25,7.42,4.08,7.45,3.95,7.34c-0.02-0.03-0.02-0.08,0.01-0.1c0.01-0.01,0.02-0.01,0.02-0.03
			C3.85,7.19,3.67,7.15,3.57,7.02C3.56,7,3.56,6.98,3.57,6.95l0.25-0.03L3.49,6.88c-0.08-0.07-0.22-0.1-0.2-0.21
			c0.04-0.03,0.09,0,0.13-0.03C3.28,6.61,3.08,6.57,3.01,6.41C2.99,6.39,3,6.37,3.01,6.34c0.01-0.01,0.01-0.02,0.03-0.03
			c0.52,0.1,1.04,0,1.57,0.06c0.02,0.02,0.02,0.06,0,0.09l0.01,0.02l0.22,0.08c0.01,0.02,0.03,0.04,0.04,0.07
			C4.96,6.77,5.2,6.65,5.24,6.8L5.4,6.88C5.39,6.84,5.36,6.8,5.38,6.76C5.4,6.74,5.44,6.73,5.46,6.71C5.36,6.65,5.2,6.73,5.11,6.63
			c-0.02-0.02,0-0.05,0.01-0.06l0.02-0.02c-0.11-0.04-0.29,0-0.4-0.1c0-0.03,0.01-0.06,0.04-0.08C4.9,6.32,5.02,6.36,5.15,6.35
			C5.5,6.33,5.92,6.3,6.14,6.59C6.37,6.8,6.56,7.02,6.8,7.23c0.51,0.23,0.38,0.99,0.78,1.27c0.1,0,0.16-0.09,0.24-0.13
			c0.34-0.54,0.81-0.87,1.49-0.79c0.7-0.26,1.37,0.18,2.05,0.27c0.04,0.03,0.03,0.09,0.03,0.14l0.42,0.18
			c0.47,0.17,0.96,0.38,1.45,0.38c0.03,0,0.06,0.03,0.07,0.05c0.02,0.05,0,0.09-0.04,0.12c-0.11,0.09-0.26,0.1-0.4,0.1
			c0.05,0.02,0.11,0,0.17,0.03c0.01,0.02,0.05,0.07,0.02,0.11C13.08,9,13.03,9,13,9.03c-0.31,0.12-0.6-0.03-0.9-0.1l0.22,0.21
			c0.04,0.11,0.15,0.18,0.11,0.29c0,0.01-0.02,0.01-0.03,0.02c-0.16,0.05-0.32-0.08-0.43-0.18l-0.15-0.1L11.82,9.2
			c0.08,0.11,0.29,0.17,0.26,0.34c-0.18,0.05-0.37-0.06-0.55-0.08l0,0.03c0.04,0.06,0.17,0.08,0.18,0.18L11.7,9.68
			c-0.24,0.02-0.53-0.13-0.72-0.28c-0.18-0.29-0.53-0.26-0.79-0.47l0.02,0.19l-0.01,0c-0.17,0.05-0.29-0.11-0.43-0.16L9.76,8.97
			c0.01,0.05,0.11,0.08,0.06,0.16c-0.35,0.11-0.6-0.31-0.91-0.33c-0.13,0.04-0.1,0.26-0.25,0.25l0.12,0.2
			C8.88,9.45,9.08,9.65,9.09,9.9C9.06,9.94,8.98,9.99,8.92,9.97L8.74,9.85C8.73,9.89,8.77,9.94,8.76,9.99
			C8.76,10,8.75,10.01,8.73,10.02H8.71z"/>
		<path class="st0" d="M10.46,8.24c-0.03,0-0.05,0-0.07,0l-0.08-0.1c-0.09-0.08-0.19-0.13-0.29-0.17C9.91,7.95,9.83,7.9,9.77,7.85
			c0.26,0.11,0.62,0.2,0.9,0.3L10.46,8.24z M4.61,6.38L4.61,6.38c0.02,0.02,0.02,0.06,0,0.09l0.01,0.02l0.22,0.08
			c0.01,0.02,0.03,0.04,0.04,0.07C4.96,6.77,5.2,6.65,5.24,6.8L5.4,6.88C5.39,6.84,5.36,6.8,5.38,6.76C5.4,6.74,5.44,6.73,5.46,6.71
			C5.36,6.65,5.2,6.73,5.11,6.63c-0.02-0.02,0-0.05,0.01-0.06l0.02-0.02c-0.11-0.04-0.29,0-0.4-0.1c0-0.03,0.01-0.06,0.04-0.08
			C4.74,6.38,4.66,6.38,4.61,6.38 M6.15,7.58l0.01-0.02C6.1,7.55,6.06,7.51,6.03,7.47c0-0.03,0.02-0.05,0.01-0.08l-0.1-0.04
			C5.87,7.31,5.9,7.24,5.92,7.19C5.85,7.15,5.77,7.17,5.74,7.1c-0.02-0.05,0-0.08,0.02-0.12l0-0.01c-0.02,0-0.05-0.02-0.07-0.01
			C5.64,6.98,5.59,7,5.58,7.04c0,0.11,0.17,0.09,0.2,0.15c0.02,0.05-0.04,0.06-0.03,0.1l0.16,0.09c0.03,0.03,0,0.07,0.01,0.1
			C5.99,7.54,6.08,7.56,6.15,7.58 M7.19,8.35L7.19,8.35C7.01,8.25,6.95,8,6.86,7.79C6.83,7.61,6.68,7.55,6.59,7.43L6.51,7.29
			c0.12,0.1,0.25,0.23,0.4,0.31c0.09,0.24,0.13,0.53,0.31,0.71l0.01,0.03L7.19,8.35z M8.27,8.1c0.26-0.26,0.69-0.18,1.01-0.3
			C9.02,7.83,8.77,7.81,8.52,7.86C8.39,7.89,8.31,7.98,8.27,8.1 M6.56,9.56L6.56,9.56c-0.06-0.03,0.02-0.11,0-0.16l0.02-0.02
			c0.05-0.02,0.11-0.03,0.15-0.01L6.65,9.54C6.63,9.55,6.6,9.56,6.57,9.56H6.56z M7.6,8.92c0.02,0,0.03-0.01,0.04-0.01l0.04-0.09
			c0.05-0.07,0.1-0.13,0.16-0.17c0.06-0.03,0.1-0.08,0.13-0.13c-0.14,0.12-0.34,0.23-0.5,0.34L7.6,8.92z M6.76,9.14
			c0.01-0.02,0.03-0.08,0.05-0.09C6.82,9.05,6.89,9,6.97,9c0.01,0,0.05,0,0.08,0.01c0,0,0.03-0.01,0.04-0.04
			C7.09,8.96,7.08,8.95,7.1,8.93c0.01-0.02,0.06-0.06,0.1-0.06c0,0-0.05,0.08-0.04,0.12c0.01,0.09,0.1,0.09,0.11,0.19
			c0,0.02-0.02,0.03-0.02,0.12c0,0.13,0.01,0.19-0.04,0.21C7.15,9.54,7.1,9.57,7.07,9.59C7.04,9.59,6.93,9.53,6.93,9.5
			c-0.01,0,0.08-0.02,0.11-0.02c0.03,0,0.08-0.11,0.05-0.2C7.06,9.19,7,9.14,6.91,9.15C6.83,9.16,6.77,9.18,6.77,9.18
			S6.75,9.16,6.76,9.14"/>
		<path class="st0" d="M7.78,15.35c-0.95-0.13-1.95-0.18-2.88-0.36c-0.05-0.72,0-1.43-0.02-2.14l0.03-1.4
			c0.14-0.03,0.33,0,0.45-0.14c1.07-0.08,1.92,0.27,2.38,0.43c0.24-0.11,0.49-0.18,0.81-0.27c0.71-0.21,1.41-0.15,2.09-0.03
			c0.11,0.94,0.01,1.98,0.04,2.95l-0.02,0.68C9.7,15.2,8.75,15.24,7.78,15.35L7.78,15.35z"/>
		<path class="st0" d="M2.47,5.51c0,0,0.42-0.18,0.69,0.14c0.27,0.32,0.62-0.52,1.1-0.14c0,0,0.66,0.27,1.44-0.27
			c0.78-0.54,1.12-1.46,2.02-1.4c0.9,0.06,0.71,0.07,1.54,1.16c0.83,1.09,1.32,0.73,1.47,0.85c0.15,0.12,0.27,0.19,0.67,0.03
			c0.4-0.16,0.43,0.24,0.61,0.27c0.19,0.03,0.43-0.03,0.75-0.03c0.32,0,0.53-0.05,0.53-0.05s-1.66-4.39-5.51-4.39
			C4.13,1.69,2.47,5.51,2.47,5.51"/>
		<path class="st0" d="M4.62,6.38L4.62,6.38c0.02,0.02,0.02,0.06,0,0.09l0.01,0.02l0.22,0.08c0.01,0.02,0.03,0.04,0.04,0.07
			C4.96,6.77,5.2,6.65,5.25,6.8l0.16,0.08C5.39,6.84,5.36,6.81,5.39,6.76C5.4,6.74,5.44,6.73,5.46,6.71
			C5.36,6.65,5.2,6.74,5.11,6.63c-0.02-0.02,0-0.05,0.01-0.06l0.02-0.02c-0.11-0.04-0.29,0-0.4-0.1c0-0.03,0.01-0.06,0.04-0.08
			C4.74,6.38,4.67,6.39,4.62,6.38 M6.16,7.58L6.16,7.58c-0.08-0.02-0.16-0.04-0.23-0.1c-0.01-0.03,0.02-0.07-0.01-0.1L5.75,7.3
			C5.74,7.26,5.8,7.24,5.78,7.19c-0.03-0.07-0.2-0.04-0.2-0.15C5.59,7,5.64,6.98,5.69,6.97c0.02,0,0.05,0.01,0.07,0.01l0,0.01
			C5.75,7.03,5.72,7.06,5.75,7.11c0.03,0.07,0.11,0.05,0.17,0.09C5.91,7.24,5.87,7.31,5.94,7.35l0.1,0.04
			c0.01,0.03-0.02,0.05-0.01,0.08C6.07,7.52,6.1,7.56,6.17,7.57L6.16,7.58z M7.2,8.35L7.2,8.35C7.01,8.25,6.96,8,6.86,7.79
			C6.84,7.62,6.69,7.56,6.6,7.43L6.51,7.3c0.12,0.1,0.25,0.23,0.4,0.31c0.09,0.24,0.13,0.53,0.31,0.71l0.01,0.03L7.2,8.35z
			 M10.06,8.29L10.06,8.29c-0.02-0.01-0.04-0.01-0.05-0.01c-0.02,0-0.03,0-0.05,0L9.95,8.27C9.94,8.25,9.94,8.23,9.94,8.22
			c0-0.01,0-0.02-0.01-0.03L9.8,8.06l0.02-0.03l0.29,0.12l0.02,0.01l0,0.02c0,0.01,0,0.03-0.01,0.04v0.05v0.02H10.06z M8.28,8.1
			L8.28,8.1c0.04-0.11,0.12-0.21,0.25-0.24c0.25-0.05,0.5-0.03,0.76-0.06C8.97,7.92,8.54,7.84,8.28,8.1 M10.31,8.22L10.31,8.22
			c-0.03-0.01-0.06-0.01-0.1-0.03c0.02-0.02,0.07,0,0.09-0.04c0.01-0.02,0-0.04,0.01-0.06l0.16,0.1l-0.01,0.01L10.31,8.22z
			 M10.69,8.14L10.69,8.14c0,0-0.01-0.01-0.03-0.02c0.12,0.02,0.22-0.1,0.34-0.03C10.92,8.13,10.8,8.13,10.69,8.14L10.69,8.14z
			 M6.23,9.73L6.23,9.73c0-0.02,0-0.02,0.03-0.04l0,0.03C6.26,9.72,6.25,9.72,6.23,9.73L6.23,9.73z M6.56,9.57L6.56,9.57
			c-0.06-0.03,0.02-0.11,0-0.16l0.02-0.02c0.05-0.02,0.11-0.03,0.15-0.01L6.65,9.54C6.63,9.55,6.6,9.57,6.58,9.57H6.56z M6.22,9.53
			L6.22,9.53L6.2,9.52c0-0.06,0.05-0.1,0.08-0.14c0.07-0.03,0.13-0.1,0.18-0.16c0.04,0.02,0,0.09-0.02,0.12
			C6.38,9.4,6.31,9.44,6.27,9.52C6.27,9.53,6.25,9.53,6.22,9.53 M7.6,8.93L7.6,8.93L7.47,8.87c0.16-0.12,0.36-0.23,0.5-0.34
			C7.94,8.58,7.9,8.62,7.84,8.66C7.78,8.7,7.73,8.75,7.68,8.83L7.64,8.92C7.63,8.92,7.62,8.93,7.6,8.93 M6.76,9.14
			C6.77,9.12,6.8,9.06,6.81,9.05C6.82,9.05,6.9,9.01,6.98,9c0.01,0,0.04,0,0.07,0.01c0,0,0.03-0.01,0.04-0.04
			C7.1,8.96,7.09,8.95,7.1,8.93c0.01-0.02,0.06-0.06,0.1-0.06c0,0-0.05,0.08-0.04,0.12c0.02,0.09,0.1,0.09,0.11,0.19
			c0,0.02-0.02,0.03-0.02,0.12c0,0.13,0.01,0.19-0.04,0.21c-0.06,0.03-0.1,0.06-0.14,0.07C7.04,9.6,6.94,9.54,6.93,9.5
			c-0.01,0,0.08-0.02,0.11-0.02c0.03,0,0.08-0.11,0.05-0.2C7.06,9.19,7,9.14,6.92,9.16C6.83,9.17,6.77,9.19,6.77,9.19
			S6.75,9.17,6.76,9.14"/>
		<path class="st0" d="M7.93,15.79L7.93,15.79C7.9,14.77,7.9,13.74,7.9,12.71c0.59-0.26,1.21-0.4,1.81-0.41l0.47,0.05l0.04,3.15
			c-0.43-0.04-0.85-0.04-1.28,0.03L7.93,15.79z M7.65,15.8c-0.73-0.29-1.45-0.45-2.19-0.43l-0.04-2.71v-0.32
			c0.28-0.12,0.63-0.03,0.93-0.02c0.43,0.07,0.86,0.21,1.29,0.4l0.03,2.36L7.65,15.8z"/>
		<path class="st0" d="M64.84,5.59c-0.83,0.93-1.24,2.13-1.24,3.6c0,1.5,0.41,2.71,1.24,3.62c0.82,0.91,1.96,1.37,3.41,1.37
			c1.45,0,2.58-0.46,3.4-1.38c0.82-0.92,1.24-2.12,1.24-3.62c0-1.46-0.42-2.65-1.25-3.59c-0.83-0.94-1.96-1.4-3.39-1.4
			C66.8,4.19,65.67,4.66,64.84,5.59 M65.86,11.86c-0.53-0.73-0.79-1.62-0.79-2.68c0-1.06,0.28-1.95,0.83-2.68
			c0.55-0.73,1.33-1.09,2.35-1.09c1.01,0,1.79,0.36,2.35,1.09c0.55,0.73,0.83,1.62,0.83,2.68c0,1.05-0.27,1.94-0.81,2.67
			c-0.54,0.73-1.33,1.1-2.37,1.1C67.18,12.96,66.39,12.59,65.86,11.86 M58.82,14h1.38V9.97l3.76-5.6l-1.61,0l-2.82,4.32l-2.86-4.32
			l-1.62,0l3.77,5.6V14z M54.3,4.36h-1.38v5.47c0,1-0.18,1.77-0.55,2.31c-0.36,0.54-0.97,0.81-1.82,0.81
			c-0.85,0-1.45-0.27-1.82-0.82c-0.36-0.55-0.55-1.32-0.55-2.3V4.36h-1.38v5.65c0,1.35,0.32,2.38,0.97,3.09
			c0.65,0.71,1.57,1.07,2.77,1.07s2.12-0.36,2.77-1.07c0.65-0.71,0.97-1.74,0.97-3.09V4.36z M45.77,4.61
			c-0.36-0.16-0.7-0.27-1.04-0.33c-0.33-0.06-0.71-0.09-1.13-0.09c-1.49,0-2.72,0.45-3.67,1.36c-0.95,0.91-1.43,2.1-1.43,3.59
			c0,1.54,0.46,2.76,1.39,3.67c0.93,0.91,2.16,1.36,3.7,1.36c0.39,0,0.78-0.02,1.15-0.07c0.37-0.05,0.72-0.14,1.05-0.28l-0.08-1.35
			c-0.23,0.14-0.55,0.25-0.95,0.34c-0.41,0.09-0.79,0.13-1.15,0.13c-1.02,0-1.88-0.35-2.58-1.05c-0.7-0.7-1.05-1.61-1.05-2.72
			c0-1.1,0.34-2,1.02-2.71c0.68-0.71,1.58-1.06,2.68-1.06c0.72,0,1.38,0.18,1.99,0.54L45.77,4.61z M29.63,14h1.38l0.03-7.92
			L35.41,14h1.77V4.36h-1.38l-0.03,7.74l-4.26-7.74l-1.88,0V14z M27.82,4.36h-1.38v5.47c0,1-0.18,1.77-0.55,2.31
			c-0.36,0.54-0.97,0.81-1.82,0.81c-0.85,0-1.45-0.27-1.82-0.82c-0.36-0.55-0.55-1.32-0.55-2.3V4.36h-1.38v5.65
			c0,1.35,0.32,2.38,0.97,3.09c0.65,0.71,1.57,1.07,2.77,1.07c1.2,0,2.12-0.36,2.77-1.07c0.65-0.71,0.97-1.74,0.97-3.09V4.36z"/>
	</g>
</g>
</svg>
