<?xml version="1.0" encoding="utf-8"?>
<!-- Generator: Adobe Illustrator 24.0.2, SVG Export Plug-In . SVG Version: 6.00 Build 0)  -->
<svg version="1.1" id="Capa_1" xmlns="http://www.w3.org/2000/svg" xmlns:xlink="http://www.w3.org/1999/xlink" x="0px" y="0px"
	 viewBox="0 0 173.11 41.91" style="enable-background:new 0 0 173.11 41.91;" xml:space="preserve">
<style type="text/css">
	.st0{fill:#FFFFFF;}
	.st1{opacity:0.7;}
	.st2{fill:#38B5D0;}
</style>
<g>
	<g>
		<path class="st0" d="M14.04,16.88c0.12,0.31,0.24,0.61,0.35,0.92c0.11-0.32,0.24-0.63,0.36-0.92c0.13-0.29,0.27-0.59,0.43-0.88
			l8.34-15.15c0.15-0.26,0.3-0.42,0.46-0.48c0.16-0.06,0.39-0.09,0.69-0.09h2.46v24.65h-2.92V6.81c0-0.24,0.01-0.5,0.02-0.77
			c0.01-0.28,0.03-0.56,0.05-0.84L15.84,20.6c-0.29,0.52-0.69,0.77-1.2,0.77h-0.48c-0.52,0-0.92-0.26-1.2-0.77L4.31,5.14
			c0.04,0.3,0.06,0.59,0.08,0.88c0.02,0.29,0.03,0.55,0.03,0.79v18.11H1.49V0.27h2.46c0.3,0,0.53,0.03,0.69,0.09
			C4.8,0.42,4.96,0.58,5.11,0.84l8.51,15.17C13.78,16.29,13.92,16.58,14.04,16.88z"/>
		<path class="st0" d="M53.42,24.92h-2.58c-0.3,0-0.54-0.07-0.72-0.22c-0.18-0.15-0.32-0.34-0.41-0.57l-2.3-5.95H36.34l-2.31,5.95
			c-0.08,0.21-0.22,0.39-0.41,0.55c-0.19,0.16-0.43,0.24-0.72,0.24h-2.58l9.86-24.65h3.39L53.42,24.92z M37.27,15.77h9.2L42.6,5.74
			c-0.25-0.62-0.5-1.39-0.74-2.32c-0.13,0.47-0.25,0.9-0.37,1.3c-0.12,0.39-0.24,0.74-0.35,1.04L37.27,15.77z"/>
		<path class="st0" d="M60.2,15.7v9.22h-3.32V0.27h7.28c1.56,0,2.92,0.18,4.07,0.54c1.15,0.36,2.11,0.88,2.86,1.54
			c0.76,0.67,1.32,1.47,1.69,2.41c0.37,0.94,0.56,1.99,0.56,3.15c0,1.15-0.2,2.2-0.6,3.15c-0.4,0.95-0.99,1.77-1.76,2.46
			c-0.77,0.69-1.74,1.23-2.88,1.61c-1.15,0.38-2.46,0.58-3.94,0.58H60.2z M60.2,13.05h3.96c0.95,0,1.79-0.13,2.52-0.38
			c0.73-0.25,1.34-0.61,1.83-1.06c0.49-0.45,0.87-0.99,1.12-1.62C69.87,9.36,70,8.67,70,7.91c0-1.57-0.49-2.8-1.45-3.68
			c-0.97-0.88-2.43-1.32-4.39-1.32H60.2V13.05z"/>
		<path class="st0" d="M87.13,22.27c1.02,0,1.93-0.17,2.73-0.52c0.8-0.34,1.48-0.83,2.04-1.44c0.56-0.62,0.98-1.36,1.27-2.22
			c0.29-0.86,0.44-1.81,0.44-2.84V0.27h3.32v14.98c0,1.42-0.23,2.74-0.68,3.96c-0.45,1.22-1.1,2.27-1.94,3.16
			c-0.84,0.89-1.87,1.59-3.09,2.09c-1.22,0.51-2.58,0.76-4.09,0.76c-1.51,0-2.88-0.25-4.09-0.76c-1.21-0.5-2.25-1.2-3.1-2.09
			c-0.85-0.89-1.5-1.94-1.95-3.16c-0.45-1.21-0.68-2.53-0.68-3.96V0.27h3.32v14.96c0,1.03,0.15,1.98,0.44,2.84
			c0.29,0.86,0.72,1.6,1.27,2.22c0.56,0.62,1.24,1.1,2.05,1.45C85.2,22.1,86.11,22.27,87.13,22.27z"/>
		<path class="st0" d="M105.04,0.39c0.14,0.08,0.31,0.23,0.49,0.46l14.28,18.58c-0.03-0.3-0.06-0.59-0.07-0.87
			c-0.01-0.28-0.02-0.55-0.02-0.82V0.27h2.92v24.65h-1.69c-0.26,0-0.49-0.05-0.66-0.14c-0.18-0.09-0.35-0.25-0.52-0.47L105.52,5.76
			c0.02,0.29,0.04,0.57,0.05,0.84c0.01,0.28,0.02,0.53,0.02,0.76v17.56h-2.92V0.27h1.72C104.68,0.27,104.9,0.31,105.04,0.39z"/>
		<path class="st0" d="M146.04,19.83c0.18,0,0.35,0.07,0.5,0.22l1.31,1.43c-1.01,1.17-2.23,2.08-3.67,2.74
			c-1.44,0.65-3.17,0.98-5.2,0.98c-1.78,0-3.39-0.31-4.83-0.92c-1.44-0.61-2.68-1.47-3.7-2.58c-1.02-1.11-1.81-2.43-2.37-3.98
			c-0.56-1.55-0.84-3.25-0.84-5.11s0.3-3.56,0.9-5.11c0.6-1.55,1.45-2.88,2.54-3.99c1.09-1.11,2.39-1.98,3.91-2.59
			c1.52-0.61,3.2-0.92,5.03-0.92c1.81,0,3.37,0.28,4.69,0.84c1.31,0.56,2.48,1.32,3.5,2.29l-1.08,1.53
			c-0.08,0.11-0.17,0.21-0.27,0.28c-0.1,0.08-0.25,0.11-0.45,0.11c-0.15,0-0.31-0.05-0.47-0.16c-0.17-0.11-0.36-0.24-0.59-0.4
			c-0.23-0.16-0.5-0.33-0.81-0.52c-0.31-0.18-0.68-0.35-1.1-0.52c-0.42-0.16-0.92-0.29-1.48-0.4c-0.56-0.11-1.21-0.16-1.94-0.16
			c-1.32,0-2.53,0.23-3.62,0.68c-1.09,0.45-2.04,1.1-2.83,1.94c-0.79,0.84-1.41,1.86-1.85,3.06c-0.44,1.2-0.66,2.55-0.66,4.04
			c0,1.54,0.22,2.91,0.66,4.11c0.44,1.2,1.04,2.22,1.81,3.05c0.76,0.83,1.67,1.46,2.71,1.9c1.04,0.44,2.17,0.65,3.37,0.65
			c0.73,0,1.39-0.04,1.98-0.13c0.58-0.09,1.13-0.22,1.62-0.4c0.5-0.18,0.96-0.41,1.39-0.7c0.43-0.28,0.86-0.62,1.3-1.01
			C145.67,19.92,145.85,19.83,146.04,19.83z"/>
		<path class="st0" d="M161.81,22.27c1.02,0,1.93-0.17,2.73-0.52c0.8-0.34,1.48-0.83,2.04-1.44c0.56-0.62,0.98-1.36,1.27-2.22
			c0.29-0.86,0.44-1.81,0.44-2.84V0.27h3.32v14.98c0,1.42-0.23,2.74-0.68,3.96c-0.45,1.22-1.1,2.27-1.94,3.16
			c-0.84,0.89-1.87,1.59-3.09,2.09c-1.22,0.51-2.58,0.76-4.09,0.76c-1.51,0-2.88-0.25-4.09-0.76c-1.21-0.5-2.25-1.2-3.1-2.09
			c-0.85-0.89-1.5-1.94-1.95-3.16c-0.45-1.21-0.68-2.53-0.68-3.96V0.27h3.32v14.96c0,1.03,0.15,1.98,0.44,2.84
			c0.29,0.86,0.72,1.6,1.27,2.22c0.56,0.62,1.24,1.1,2.05,1.45C159.87,22.1,160.79,22.27,161.81,22.27z"/>
	</g>
	<g>
		<path class="st0" d="M3.18,40.25c0.02-0.05,0.04-0.1,0.06-0.14c0.02-0.05,0.04-0.09,0.07-0.13l2.5-4.42
			c0.02-0.04,0.05-0.06,0.07-0.07s0.06-0.01,0.1-0.01h0.32v6.37h-0.4v-5.43c0-0.08,0-0.16,0.01-0.25l-2.51,4.45
			c-0.04,0.08-0.1,0.12-0.18,0.12H3.14c-0.08,0-0.13-0.04-0.18-0.12l-2.57-4.46c0.01,0.09,0.01,0.17,0.01,0.25v5.43H0v-6.37h0.31
			c0.04,0,0.08,0,0.1,0.01s0.05,0.03,0.07,0.07l2.57,4.43C3.1,40.07,3.14,40.16,3.18,40.25z"/>
		<path class="st0" d="M12.97,41.84h-0.36c-0.04,0-0.08-0.01-0.1-0.03c-0.03-0.02-0.05-0.05-0.06-0.09l-0.75-1.85H8.57l-0.75,1.85
			c-0.01,0.03-0.03,0.06-0.06,0.09c-0.03,0.02-0.07,0.04-0.11,0.04H7.3l2.61-6.37h0.46L12.97,41.84z M8.71,39.52h2.85l-1.3-3.22
			c-0.02-0.05-0.04-0.11-0.06-0.17s-0.04-0.13-0.06-0.21c-0.02,0.07-0.04,0.14-0.06,0.21s-0.04,0.12-0.06,0.18L8.71,39.52z"/>
		<path class="st0" d="M14.58,39.27v2.56h-0.46v-6.37h1.64c0.75,0,1.31,0.16,1.69,0.49s0.57,0.79,0.57,1.4
			c0,0.28-0.05,0.54-0.16,0.77s-0.25,0.44-0.45,0.61s-0.43,0.3-0.71,0.4c-0.28,0.09-0.59,0.14-0.94,0.14H14.58z M14.58,38.9h1.18
			c0.28,0,0.53-0.04,0.76-0.12c0.22-0.08,0.41-0.19,0.56-0.32c0.15-0.14,0.27-0.3,0.36-0.49s0.12-0.39,0.12-0.61
			c0-0.49-0.15-0.87-0.45-1.13c-0.3-0.26-0.75-0.4-1.35-0.4h-1.18V38.9z"/>
		<path class="st0" d="M23.14,35.47v0.38h-3.35v2.57h2.79v0.37h-2.79v2.66h3.35v0.38h-3.82v-6.37H23.14z"/>
		<path class="st0" d="M30.32,38.65c0,0.49-0.07,0.94-0.22,1.34s-0.35,0.74-0.62,1.03c-0.27,0.28-0.59,0.5-0.96,0.66
			c-0.37,0.15-0.78,0.23-1.24,0.23c-0.45,0-0.86-0.08-1.23-0.23c-0.37-0.15-0.69-0.37-0.96-0.66s-0.47-0.63-0.62-1.03
			s-0.22-0.85-0.22-1.34c0-0.49,0.07-0.93,0.22-1.33c0.15-0.4,0.36-0.74,0.62-1.03c0.27-0.28,0.59-0.5,0.96-0.66
			c0.37-0.16,0.78-0.23,1.23-0.23c0.45,0,0.87,0.08,1.24,0.23c0.37,0.15,0.69,0.37,0.96,0.66c0.27,0.28,0.47,0.63,0.62,1.03
			C30.25,37.72,30.32,38.16,30.32,38.65z M29.84,38.65c0-0.44-0.06-0.84-0.18-1.2s-0.3-0.65-0.52-0.9
			c-0.22-0.25-0.49-0.43-0.81-0.56c-0.31-0.13-0.66-0.2-1.05-0.2c-0.38,0-0.72,0.07-1.04,0.2s-0.58,0.32-0.81,0.56
			c-0.23,0.25-0.4,0.55-0.53,0.9s-0.19,0.75-0.19,1.2c0,0.45,0.06,0.85,0.19,1.2s0.3,0.65,0.53,0.9s0.5,0.43,0.81,0.56
			s0.66,0.19,1.04,0.19c0.38,0,0.73-0.06,1.05-0.19c0.32-0.13,0.58-0.32,0.81-0.56c0.22-0.25,0.4-0.55,0.52-0.9
			S29.84,39.1,29.84,38.65z"/>
		<path class="st0" d="M38.92,38.65c0,0.49-0.07,0.93-0.22,1.33s-0.35,0.73-0.62,1s-0.59,0.49-0.96,0.63
			c-0.37,0.15-0.78,0.22-1.24,0.22h-2.32v-6.37h2.32c0.45,0,0.87,0.07,1.24,0.22s0.69,0.36,0.96,0.63c0.27,0.28,0.47,0.61,0.62,1
			S38.92,38.16,38.92,38.65z M38.44,38.65c0-0.44-0.06-0.84-0.18-1.19s-0.3-0.64-0.52-0.88c-0.22-0.24-0.49-0.42-0.81-0.55
			s-0.66-0.19-1.05-0.19h-1.86v5.62h1.86c0.38,0,0.73-0.06,1.05-0.19s0.58-0.31,0.81-0.55c0.22-0.24,0.4-0.53,0.52-0.88
			C38.38,39.49,38.44,39.1,38.44,38.65z"/>
		<path class="st0" d="M44.21,35.47v0.38h-3.35v2.57h2.79v0.37h-2.79v2.66h3.35v0.38H40.4v-6.37H44.21z"/>
		<path class="st0" d="M46.57,35.47h0.36c0.04,0,0.08,0.01,0.1,0.03c0.03,0.02,0.05,0.05,0.06,0.09l2.17,5.28
			c0.06,0.14,0.1,0.29,0.14,0.44c0.03-0.16,0.08-0.31,0.13-0.44l2.16-5.28c0.01-0.03,0.04-0.06,0.06-0.09
			c0.03-0.02,0.06-0.04,0.11-0.04h0.36l-2.63,6.37H49.2L46.57,35.47z"/>
		<path class="st0" d="M53.88,41.84h-0.46v-6.37h0.46V41.84z"/>
		<path class="st0" d="M56.27,35.48c0.02,0.01,0.05,0.03,0.08,0.07l4.12,5.52c-0.01-0.09-0.01-0.18-0.01-0.26v-5.34h0.4v6.37h-0.22
			c-0.07,0-0.12-0.03-0.17-0.09l-4.14-5.53c0.01,0.09,0.01,0.18,0.01,0.26v5.36h-0.4v-6.37h0.23
			C56.21,35.47,56.24,35.47,56.27,35.48z"/>
		<path class="st0" d="M67.37,40.77c0.03,0,0.06,0.01,0.08,0.03l0.18,0.19c-0.13,0.14-0.28,0.27-0.43,0.38
			c-0.16,0.11-0.33,0.21-0.51,0.29s-0.39,0.14-0.61,0.18c-0.22,0.04-0.46,0.06-0.73,0.06c-0.44,0-0.85-0.08-1.21-0.23
			c-0.37-0.15-0.68-0.37-0.95-0.66c-0.26-0.28-0.47-0.63-0.61-1.03c-0.15-0.4-0.22-0.85-0.22-1.34c0-0.48,0.08-0.92,0.23-1.32
			s0.36-0.74,0.64-1.03s0.6-0.51,0.99-0.67c0.38-0.16,0.8-0.24,1.27-0.24c0.23,0,0.44,0.02,0.63,0.05s0.37,0.08,0.54,0.15
			s0.32,0.15,0.47,0.24c0.15,0.1,0.29,0.21,0.43,0.33l-0.14,0.2c-0.02,0.04-0.06,0.05-0.11,0.05c-0.03,0-0.06-0.02-0.1-0.05
			c-0.04-0.03-0.1-0.07-0.16-0.12s-0.14-0.1-0.23-0.15c-0.09-0.06-0.2-0.11-0.33-0.15c-0.13-0.05-0.27-0.09-0.44-0.12
			c-0.16-0.03-0.35-0.05-0.56-0.05c-0.39,0-0.74,0.07-1.07,0.2c-0.32,0.13-0.6,0.32-0.84,0.57c-0.23,0.25-0.42,0.55-0.55,0.9
			c-0.13,0.35-0.2,0.75-0.2,1.19c0,0.45,0.06,0.85,0.19,1.21s0.31,0.65,0.54,0.9c0.23,0.24,0.5,0.43,0.81,0.56
			c0.31,0.13,0.65,0.2,1.01,0.2c0.23,0,0.43-0.01,0.61-0.04c0.18-0.03,0.34-0.07,0.49-0.13c0.15-0.06,0.29-0.13,0.42-0.22
			c0.13-0.09,0.26-0.19,0.38-0.31c0.02-0.01,0.03-0.02,0.04-0.03C67.34,40.77,67.35,40.77,67.37,40.77z"/>
		<path class="st0" d="M71.43,41.51c0.31,0,0.58-0.05,0.82-0.16c0.24-0.11,0.45-0.25,0.61-0.44s0.3-0.41,0.38-0.67
			c0.09-0.26,0.13-0.53,0.13-0.83v-3.94h0.46v3.94c0,0.35-0.06,0.68-0.17,0.98c-0.11,0.3-0.27,0.57-0.48,0.8s-0.46,0.4-0.76,0.53
			s-0.63,0.19-1.01,0.19s-0.71-0.06-1.01-0.19c-0.3-0.13-0.55-0.31-0.76-0.53s-0.37-0.49-0.48-0.8c-0.11-0.3-0.17-0.63-0.17-0.98
			v-3.94h0.46v3.93c0,0.3,0.04,0.57,0.13,0.83c0.09,0.26,0.22,0.48,0.38,0.67s0.37,0.34,0.61,0.45
			C70.85,41.45,71.13,41.51,71.43,41.51z"/>
		<path class="st0" d="M76.14,41.44h3.02v0.39h-3.48v-6.37h0.46V41.44z"/>
		<path class="st0" d="M85.08,41.84h-0.36c-0.04,0-0.08-0.01-0.1-0.03c-0.03-0.02-0.05-0.05-0.06-0.09l-0.75-1.85h-3.13l-0.75,1.85
			c-0.01,0.03-0.03,0.06-0.06,0.09c-0.03,0.02-0.07,0.04-0.11,0.04h-0.35l2.61-6.37h0.46L85.08,41.84z M80.81,39.52h2.85l-1.3-3.22
			c-0.02-0.05-0.04-0.11-0.06-0.17s-0.04-0.13-0.06-0.21c-0.02,0.07-0.04,0.14-0.06,0.21s-0.04,0.12-0.06,0.18L80.81,39.52z"/>
		<path class="st0" d="M90.57,40.77c0.03,0,0.06,0.01,0.08,0.03l0.18,0.19c-0.13,0.14-0.28,0.27-0.43,0.38
			c-0.16,0.11-0.33,0.21-0.51,0.29s-0.39,0.14-0.61,0.18c-0.22,0.04-0.46,0.06-0.73,0.06c-0.44,0-0.85-0.08-1.21-0.23
			c-0.37-0.15-0.68-0.37-0.95-0.66c-0.26-0.28-0.47-0.63-0.61-1.03c-0.15-0.4-0.22-0.85-0.22-1.34c0-0.48,0.08-0.92,0.23-1.32
			s0.36-0.74,0.64-1.03s0.6-0.51,0.99-0.67c0.38-0.16,0.8-0.24,1.27-0.24c0.23,0,0.44,0.02,0.63,0.05c0.19,0.03,0.37,0.08,0.54,0.15
			c0.17,0.06,0.32,0.15,0.47,0.24c0.15,0.1,0.29,0.21,0.43,0.33l-0.14,0.2c-0.02,0.04-0.06,0.05-0.11,0.05
			c-0.03,0-0.06-0.02-0.1-0.05c-0.04-0.03-0.1-0.07-0.16-0.12s-0.14-0.1-0.23-0.15c-0.09-0.06-0.2-0.11-0.33-0.15
			c-0.13-0.05-0.27-0.09-0.44-0.12c-0.16-0.03-0.35-0.05-0.56-0.05c-0.39,0-0.74,0.07-1.07,0.2c-0.32,0.13-0.6,0.32-0.84,0.57
			c-0.23,0.25-0.42,0.55-0.55,0.9c-0.13,0.35-0.2,0.75-0.2,1.19c0,0.45,0.06,0.85,0.19,1.21s0.31,0.65,0.54,0.9
			c0.23,0.24,0.5,0.43,0.81,0.56c0.31,0.13,0.65,0.2,1.01,0.2c0.23,0,0.43-0.01,0.61-0.04c0.18-0.03,0.34-0.07,0.49-0.13
			s0.29-0.13,0.42-0.22c0.13-0.09,0.26-0.19,0.38-0.31c0.02-0.01,0.03-0.02,0.04-0.03C90.54,40.77,90.56,40.77,90.57,40.77z"/>
		<path class="st0" d="M92.91,41.84h-0.46v-6.37h0.46V41.84z"/>
		<path class="st0" d="M100.65,38.65c0,0.49-0.07,0.94-0.22,1.34c-0.15,0.4-0.35,0.74-0.62,1.03s-0.59,0.5-0.96,0.66
			c-0.37,0.15-0.79,0.23-1.24,0.23c-0.45,0-0.86-0.08-1.23-0.23c-0.37-0.15-0.69-0.37-0.96-0.66c-0.27-0.28-0.47-0.63-0.62-1.03
			s-0.22-0.85-0.22-1.34c0-0.49,0.07-0.93,0.22-1.33c0.15-0.4,0.36-0.74,0.62-1.03c0.27-0.28,0.59-0.5,0.96-0.66
			c0.37-0.16,0.78-0.23,1.23-0.23c0.45,0,0.87,0.08,1.24,0.23c0.37,0.15,0.69,0.37,0.96,0.66c0.27,0.28,0.47,0.63,0.62,1.03
			C100.58,37.72,100.65,38.16,100.65,38.65z M100.17,38.65c0-0.44-0.06-0.84-0.18-1.2s-0.3-0.65-0.52-0.9
			c-0.22-0.25-0.49-0.43-0.81-0.56s-0.66-0.2-1.05-0.2c-0.38,0-0.72,0.07-1.04,0.2s-0.58,0.32-0.81,0.56
			c-0.23,0.25-0.4,0.55-0.53,0.9c-0.13,0.35-0.19,0.75-0.19,1.2c0,0.45,0.06,0.85,0.19,1.2c0.12,0.35,0.3,0.65,0.53,0.9
			s0.5,0.43,0.81,0.56s0.66,0.19,1.04,0.19c0.38,0,0.73-0.06,1.05-0.19s0.58-0.32,0.81-0.56s0.4-0.55,0.52-0.9
			S100.17,39.1,100.17,38.65z M98.92,33.87l-1.31,0.97c-0.03,0.02-0.06,0.04-0.08,0.04c-0.03,0.01-0.06,0.01-0.09,0.01h-0.32
			l1.02-0.93c0.04-0.04,0.08-0.06,0.12-0.08c0.04-0.01,0.09-0.02,0.16-0.02H98.92z"/>
		<path class="st0" d="M102.47,35.48c0.02,0.01,0.05,0.03,0.08,0.07l4.12,5.52c-0.01-0.09-0.01-0.18-0.01-0.26v-5.34h0.41v6.37
			h-0.22c-0.07,0-0.12-0.03-0.17-0.09l-4.14-5.53c0.01,0.09,0.01,0.18,0.01,0.26v5.36h-0.4v-6.37h0.22
			C102.42,35.47,102.45,35.47,102.47,35.48z"/>
		<path class="st0" d="M115.32,40.77c0.03,0,0.06,0.01,0.08,0.03l0.18,0.19c-0.13,0.14-0.28,0.27-0.43,0.38
			c-0.16,0.11-0.33,0.21-0.51,0.29s-0.39,0.14-0.61,0.18s-0.46,0.06-0.73,0.06c-0.44,0-0.85-0.08-1.21-0.23
			c-0.37-0.15-0.68-0.37-0.95-0.66c-0.26-0.28-0.47-0.63-0.61-1.03c-0.15-0.4-0.22-0.85-0.22-1.34c0-0.48,0.08-0.92,0.23-1.32
			s0.37-0.74,0.64-1.03s0.6-0.51,0.99-0.67c0.38-0.16,0.8-0.24,1.27-0.24c0.23,0,0.44,0.02,0.63,0.05c0.19,0.03,0.37,0.08,0.54,0.15
			c0.17,0.06,0.32,0.15,0.47,0.24c0.15,0.1,0.29,0.21,0.43,0.33l-0.14,0.2c-0.02,0.04-0.06,0.05-0.11,0.05
			c-0.03,0-0.06-0.02-0.1-0.05c-0.04-0.03-0.09-0.07-0.16-0.12s-0.14-0.1-0.23-0.15c-0.09-0.06-0.2-0.11-0.33-0.15
			c-0.13-0.05-0.27-0.09-0.44-0.12c-0.17-0.03-0.35-0.05-0.56-0.05c-0.39,0-0.74,0.07-1.07,0.2s-0.6,0.32-0.84,0.57
			c-0.23,0.25-0.42,0.55-0.55,0.9s-0.2,0.75-0.2,1.19c0,0.45,0.07,0.85,0.19,1.21s0.31,0.65,0.54,0.9c0.23,0.24,0.5,0.43,0.81,0.56
			c0.31,0.13,0.65,0.2,1.01,0.2c0.23,0,0.43-0.01,0.61-0.04c0.18-0.03,0.34-0.07,0.49-0.13c0.15-0.06,0.29-0.13,0.42-0.22
			s0.26-0.19,0.38-0.31c0.01-0.01,0.03-0.02,0.04-0.03C115.28,40.77,115.3,40.77,115.32,40.77z"/>
		<path class="st0" d="M122.7,38.65c0,0.49-0.07,0.94-0.22,1.34c-0.15,0.4-0.35,0.74-0.62,1.03s-0.59,0.5-0.96,0.66
			c-0.37,0.15-0.79,0.23-1.24,0.23c-0.45,0-0.86-0.08-1.23-0.23c-0.37-0.15-0.69-0.37-0.96-0.66c-0.27-0.28-0.47-0.63-0.62-1.03
			s-0.22-0.85-0.22-1.34c0-0.49,0.07-0.93,0.22-1.33c0.15-0.4,0.36-0.74,0.62-1.03c0.27-0.28,0.59-0.5,0.96-0.66
			c0.37-0.16,0.78-0.23,1.23-0.23c0.45,0,0.87,0.08,1.24,0.23c0.37,0.15,0.69,0.37,0.96,0.66c0.27,0.28,0.47,0.63,0.62,1.03
			C122.63,37.72,122.7,38.16,122.7,38.65z M122.22,38.65c0-0.44-0.06-0.84-0.18-1.2s-0.3-0.65-0.52-0.9
			c-0.22-0.25-0.49-0.43-0.81-0.56s-0.66-0.2-1.05-0.2c-0.38,0-0.72,0.07-1.04,0.2s-0.58,0.32-0.81,0.56
			c-0.23,0.25-0.4,0.55-0.53,0.9c-0.13,0.35-0.19,0.75-0.19,1.2c0,0.45,0.06,0.85,0.19,1.2c0.12,0.35,0.3,0.65,0.53,0.9
			s0.5,0.43,0.81,0.56s0.66,0.19,1.04,0.19c0.38,0,0.73-0.06,1.05-0.19s0.58-0.32,0.81-0.56s0.4-0.55,0.52-0.9
			S122.22,39.1,122.22,38.65z"/>
		<path class="st0" d="M124.52,35.48c0.02,0.01,0.05,0.03,0.08,0.07l4.12,5.52c-0.01-0.09-0.01-0.18-0.01-0.26v-5.34h0.41v6.37
			h-0.22c-0.07,0-0.12-0.03-0.17-0.09l-4.14-5.53c0.01,0.09,0.01,0.18,0.01,0.26v5.36h-0.4v-6.37h0.22
			C124.46,35.47,124.5,35.47,124.52,35.48z"/>
		<path class="st0" d="M136.56,35.47v0.38h-3.35v2.57h2.79v0.37h-2.79v2.66h3.35v0.38h-3.82v-6.37H136.56z"/>
		<path class="st0" d="M138.52,41.44h3.02v0.39h-3.48v-6.37h0.46V41.44z"/>
		<path class="st0" d="M147.58,40.25c0.02-0.05,0.04-0.1,0.06-0.14c0.02-0.05,0.04-0.09,0.07-0.13l2.5-4.42
			c0.02-0.04,0.05-0.06,0.07-0.07c0.02-0.01,0.06-0.01,0.1-0.01h0.32v6.37h-0.41v-5.43c0-0.08,0-0.16,0.01-0.25l-2.51,4.45
			c-0.04,0.08-0.1,0.12-0.18,0.12h-0.07c-0.08,0-0.13-0.04-0.18-0.12l-2.57-4.46c0.01,0.09,0.01,0.17,0.01,0.25v5.43h-0.4v-6.37
			h0.31c0.04,0,0.08,0,0.1,0.01s0.05,0.03,0.07,0.07l2.57,4.43C147.5,40.07,147.54,40.16,147.58,40.25z"/>
		<path class="st0" d="M156.4,35.47v0.38h-3.35v2.57h2.79v0.37h-2.79v2.66h3.35v0.38h-3.82v-6.37H156.4z"/>
		<path class="st0" d="M163.26,38.65c0,0.49-0.07,0.93-0.22,1.33c-0.15,0.39-0.35,0.73-0.62,1c-0.27,0.28-0.59,0.49-0.96,0.63
			c-0.37,0.15-0.79,0.22-1.24,0.22h-2.32v-6.37h2.32c0.45,0,0.87,0.07,1.24,0.22s0.69,0.36,0.96,0.63c0.27,0.28,0.47,0.61,0.62,1
			C163.18,37.72,163.26,38.16,163.26,38.65z M162.78,38.65c0-0.44-0.06-0.84-0.18-1.19s-0.3-0.64-0.52-0.88
			c-0.22-0.24-0.49-0.42-0.81-0.55c-0.31-0.13-0.66-0.19-1.05-0.19h-1.86v5.62h1.86c0.38,0,0.73-0.06,1.05-0.19
			c0.32-0.13,0.58-0.31,0.81-0.55c0.22-0.24,0.4-0.53,0.52-0.88C162.72,39.49,162.78,39.1,162.78,38.65z"/>
		<path class="st0" d="M165.37,41.84h-0.46v-6.37h0.46V41.84z"/>
		<path class="st0" d="M173.11,38.65c0,0.49-0.07,0.94-0.22,1.34c-0.15,0.4-0.35,0.74-0.62,1.03s-0.59,0.5-0.96,0.66
			c-0.37,0.15-0.79,0.23-1.24,0.23c-0.45,0-0.86-0.08-1.23-0.23c-0.37-0.15-0.69-0.37-0.96-0.66c-0.27-0.28-0.47-0.63-0.62-1.03
			s-0.22-0.85-0.22-1.34c0-0.49,0.07-0.93,0.22-1.33c0.15-0.4,0.36-0.74,0.62-1.03c0.27-0.28,0.59-0.5,0.96-0.66
			c0.37-0.16,0.78-0.23,1.23-0.23c0.45,0,0.87,0.08,1.24,0.23c0.37,0.15,0.69,0.37,0.96,0.66c0.27,0.28,0.47,0.63,0.62,1.03
			C173.03,37.72,173.11,38.16,173.11,38.65z M172.63,38.65c0-0.44-0.06-0.84-0.18-1.2s-0.3-0.65-0.52-0.9
			c-0.22-0.25-0.49-0.43-0.81-0.56s-0.66-0.2-1.05-0.2c-0.38,0-0.72,0.07-1.04,0.2s-0.58,0.32-0.81,0.56
			c-0.23,0.25-0.4,0.55-0.53,0.9c-0.13,0.35-0.19,0.75-0.19,1.2c0,0.45,0.06,0.85,0.19,1.2c0.12,0.35,0.3,0.65,0.53,0.9
			s0.5,0.43,0.81,0.56s0.66,0.19,1.04,0.19c0.38,0,0.73-0.06,1.05-0.19s0.58-0.32,0.81-0.56s0.4-0.55,0.52-0.9
			S172.63,39.1,172.63,38.65z"/>
	</g>
</g>
</svg>
