<?xml version="1.0" encoding="utf-8"?>
<!-- Generator: Adobe Illustrator 24.0.2, SVG Export Plug-In . SVG Version: 6.00 Build 0)  -->
<svg version="1.1" id="Capa_1" xmlns="http://www.w3.org/2000/svg" xmlns:xlink="http://www.w3.org/1999/xlink" x="0px" y="0px"
	 viewBox="0 0 18.45 18.45" style="enable-background:new 0 0 18.45 18.45;" xml:space="preserve">
<style type="text/css">
	.st0{opacity:0.7;}
	.st1{fill:#38B5D0;}
</style>
<g class="st0">
	<g>
		<path class="st1" d="M17.94,15.49l-4.23-4.23c-0.63,0.98-1.46,1.81-2.45,2.45l4.23,4.23c0.68,0.68,1.77,0.68,2.45,0
			C18.62,17.27,18.62,16.17,17.94,15.49z"/>
		<path class="st1" d="M13.83,6.92C13.83,3.1,10.74,0,6.92,0C3.1,0,0,3.1,0,6.92c0,3.82,3.1,6.92,6.92,6.92
			C10.74,13.83,13.83,10.74,13.83,6.92z M6.92,12.11c-2.86,0-5.19-2.33-5.19-5.19c0-2.86,2.33-5.19,5.19-5.19
			c2.86,0,5.19,2.33,5.19,5.19C12.11,9.78,9.78,12.11,6.92,12.11z"/>
		<path class="st1" d="M2.88,6.92h1.15c0-1.59,1.29-2.88,2.88-2.88V2.88C4.69,2.88,2.88,4.69,2.88,6.92z"/>
	</g>
</g>
</svg>
