<?xml version="1.0" standalone="no"?>
<!DOCTYPE svg PUBLIC "-//W3C//DTD SVG 20010904//EN"
 "http://www.w3.org/TR/2001/REC-SVG-20010904/DTD/svg10.dtd">
<svg version="1.0" xmlns="http://www.w3.org/2000/svg"
 width="342.000000pt" height="402.000000pt" viewBox="0 0 342.000000 402.000000"
 preserveAspectRatio="xMidYMid meet">
<metadata>
Created by potrace 1.16, written by Peter Selinger 2001-2019
</metadata>
<g transform="translate(0.000000,402.000000) scale(0.100000,-0.100000)"
fill="#000000" stroke="none">
<path d="M1538 3760 c-209 -33 -417 -123 -594 -256 -39 -29 -118 -102 -176
-162 -417 -432 -594 -1094 -467 -1752 12 -58 40 -164 64 -236 262 -797 966
-1253 1651 -1070 691 186 1172 944 1141 1801 -7 180 -24 298 -67 461 -83 313
-231 581 -438 796 -207 214 -408 332 -677 399 -92 23 -343 34 -437 19z m272
-120 c365 -36 682 -252 935 -636 58 -87 165 -289 165 -310 0 -11 -128 -24
-237 -24 -45 0 -57 4 -76 26 -31 37 -54 43 -106 27 -58 -17 -102 -17 -127 2
-10 8 -39 15 -64 15 -54 0 -132 34 -184 81 -21 18 -82 92 -136 163 -53 72
-106 138 -116 148 -48 42 -217 52 -293 18 -28 -13 -86 -62 -158 -135 -124
-125 -180 -168 -257 -198 -65 -24 -179 -26 -224 -3 -45 23 -66 20 -142 -21
l-67 -37 -32 27 c-38 32 -71 42 -111 33 -17 -3 -30 -2 -30 2 0 17 90 169 150
254 36 51 115 143 175 204 214 215 457 338 720 363 113 11 110 11 215 1z
m-827 -1019 c16 0 27 -7 27 -15 0 -8 12 -19 28 -25 15 -6 41 -19 57 -28 59
-32 86 -45 90 -41 2 1 5 12 7 23 2 16 -3 21 -29 23 -19 2 -33 9 -33 16 0 8
-17 16 -41 20 -69 11 -42 31 47 34 147 6 155 3 270 -109 56 -54 107 -99 113
-99 15 0 56 -76 80 -151 25 -77 59 -116 88 -101 10 6 34 31 53 57 67 89 132
125 255 138 158 18 219 14 345 -22 141 -40 163 -49 156 -60 -12 -20 263 -119
358 -129 47 -6 62 -11 64 -25 3 -13 -6 -22 -27 -30 -22 -8 -29 -16 -26 -28 4
-10 -4 -20 -20 -27 -34 -16 -68 -15 -133 2 l-53 14 31 -34 c49 -56 37 -99 -21
-70 -29 14 -30 14 -24 -5 5 -16 1 -19 -29 -19 -19 0 -47 5 -63 11 l-28 10 24
-25 24 -26 -29 0 c-37 0 -123 40 -149 70 -16 18 -133 80 -151 80 -2 0 -4 -7
-4 -15 0 -20 -39 -19 -68 1 -20 14 -22 14 -22 0 0 -28 -60 -18 -120 19 -63 41
-85 43 -101 13 -7 -13 -16 -26 -21 -29 -5 -3 11 -39 36 -80 45 -72 58 -118 34
-120 -18 -2 -21 -1 -40 6 -13 5 -18 2 -18 -9 0 -23 -13 -20 -41 10 -22 24 -24
24 -36 7 -11 -14 -17 -15 -33 -6 -14 10 -20 10 -23 0 -3 -9 -9 -9 -26 1 -11 6
-28 12 -37 12 -11 0 -14 5 -9 18 4 9 10 23 13 31 4 11 1 13 -13 7 -35 -13
-132 -19 -150 -8 -17 9 -17 10 3 16 12 4 22 13 23 19 0 7 2 26 5 44 2 18 -1
35 -6 38 -6 3 -10 18 -10 32 0 25 -1 25 -18 10 -10 -10 -27 -17 -37 -17 -10 0
-27 -7 -37 -17 -17 -15 -18 -15 -18 0 0 9 15 24 33 33 17 9 34 18 36 20 9 8
-33 44 -50 44 -28 0 -49 11 -49 26 0 8 -4 14 -10 14 -5 0 -10 -4 -10 -10 0
-21 -22 -8 -34 20 -7 17 -15 27 -19 24 -11 -12 -39 19 -34 37 6 23 -15 41 -55
45 -18 2 -36 8 -41 13 -5 5 -24 4 -44 -2 -24 -8 -40 -8 -51 -1 -9 6 -33 9 -54
6 -29 -3 -38 0 -47 16 -9 17 -8 23 6 31 14 8 8 10 -28 11 -32 0 -49 5 -53 15
-3 9 -18 15 -35 15 -42 0 -61 9 -61 30 0 11 -12 20 -31 26 -40 11 -61 40 -39
54 12 8 9 10 -11 10 -32 0 -81 38 -61 47 9 3 -2 12 -27 24 -23 10 -41 24 -41
32 0 12 26 14 148 12 81 -1 159 -3 175 -4z m455 -603 c7 -7 34 -12 60 -13 43
0 47 -2 50 -26 3 -29 2 -30 -110 -86 -26 -13 -53 -33 -59 -44 -17 -32 -39 -4
-41 54 -2 42 2 51 37 87 43 44 46 45 63 28z m16 -493 c40 -8 111 -28 159 -44
l86 -29 49 18 c116 44 215 63 332 64 63 1 145 -3 182 -7 l67 -8 6 -62 c8 -71
3 -723 -5 -731 -3 -3 -24 -8 -46 -12 l-41 -6 -7 303 c-4 167 -9 306 -12 309
-3 3 -56 4 -117 4 -113 -1 -245 -28 -339 -68 l-38 -16 0 -290 0 -290 -23 0
c-22 0 -23 3 -22 78 0 42 -1 172 -2 288 l-3 212 -72 27 c-40 14 -109 35 -153
46 -82 19 -229 25 -254 10 -11 -7 -13 -63 -10 -306 l4 -297 -45 7 c-88 12 -80
-22 -79 328 1 172 4 346 8 387 l6 75 38 6 c21 3 43 12 50 19 15 15 175 7 281
-15z"/>
</g>
</svg>
