<?xml version="1.0" encoding="utf-8"?>
<!-- Generator: Adobe Illustrator 24.0.2, SVG Export Plug-In . SVG Version: 6.00 Build 0)  -->
<svg version="1.1" id="Capa_1" xmlns="http://www.w3.org/2000/svg" xmlns:xlink="http://www.w3.org/1999/xlink" x="0px" y="0px"
	 viewBox="0 0 229.32 379.56" style="enable-background:new 0 0 229.32 379.56;" xml:space="preserve">
<style type="text/css">
	.st0{fill:#D7EDF4;stroke:#FFFFFF;stroke-width:1.6765;stroke-miterlimit:10;}
	.st1{fill-rule:evenodd;clip-rule:evenodd;fill:#00A0DB;}
	.st2{fill-rule:evenodd;clip-rule:evenodd;fill:#0782BE;}
	.st3{fill-rule:evenodd;clip-rule:evenodd;fill:#FFFFFF;}
	.st4{fill-rule:evenodd;clip-rule:evenodd;fill:#E86537;}
	.st5{fill-rule:evenodd;clip-rule:evenodd;fill:#034569;}
	.st6{fill-rule:evenodd;clip-rule:evenodd;fill:#DE2A66;}
	.st7{fill-rule:evenodd;clip-rule:evenodd;fill:#057C40;}
	.st8{fill-rule:evenodd;clip-rule:evenodd;fill:#CF9521;}
	.st9{fill-rule:evenodd;clip-rule:evenodd;fill:#B31D42;}
	.st10{fill-rule:evenodd;clip-rule:evenodd;fill:#D9272E;}
	.st11{fill-rule:evenodd;clip-rule:evenodd;fill:#E34538;}
	.st12{fill-rule:evenodd;clip-rule:evenodd;fill:#EF9431;}
	.st13{fill-rule:evenodd;clip-rule:evenodd;fill:#ECB129;}
	.st14{fill-rule:evenodd;clip-rule:evenodd;fill:#F7BC13;}
	.st15{fill-rule:evenodd;clip-rule:evenodd;fill:#19A240;}
	.st16{fill-rule:evenodd;clip-rule:evenodd;fill:#02983B;}
	.st17{fill-rule:evenodd;clip-rule:evenodd;fill:#E13244;}
	.st18{fill-rule:evenodd;clip-rule:evenodd;fill:#066698;}
	.st19{fill-rule:evenodd;clip-rule:evenodd;fill:#008CC4;}
	.st20{fill-rule:evenodd;clip-rule:evenodd;fill:#00A3C6;}
	.st21{fill-rule:evenodd;clip-rule:evenodd;fill:#067FC2;stroke:#067FC2;stroke-width:0.25;stroke-miterlimit:22.9256;}
	.st22{fill:none;stroke:#067FC2;stroke-width:0.25;stroke-miterlimit:22.9256;}
	.st23{fill:none;stroke:#119AD7;stroke-width:0.25;stroke-miterlimit:22.9256;}
	.st24{fill-rule:evenodd;clip-rule:evenodd;fill:#067FC2;}
	.st25{fill-rule:evenodd;clip-rule:evenodd;fill:#E76639;}
	.st26{fill-rule:evenodd;clip-rule:evenodd;fill:#DD2C67;}
	.st27{fill-rule:evenodd;clip-rule:evenodd;fill:#037D40;}
	.st28{fill-rule:evenodd;clip-rule:evenodd;fill:#CD9424;}
	.st29{fill-rule:evenodd;clip-rule:evenodd;fill:#B21D42;}
	.st30{fill-rule:evenodd;clip-rule:evenodd;fill:#D8282E;}
	.st31{fill-rule:evenodd;clip-rule:evenodd;fill:#E3453A;}
	.st32{fill-rule:evenodd;clip-rule:evenodd;fill:#EF9433;}
	.st33{fill-rule:evenodd;clip-rule:evenodd;fill:#EBB029;}
	.st34{fill-rule:evenodd;clip-rule:evenodd;fill:#F7BB18;}
	.st35{fill-rule:evenodd;clip-rule:evenodd;fill:#E03344;}
	.st36{fill-rule:evenodd;clip-rule:evenodd;fill:#028BC4;}
	.st37{fill-rule:evenodd;clip-rule:evenodd;fill:#00A2C4;}
	.st38{fill:#FFFFFF;}
	.st39{fill:#CE6529;}
	.st40{fill:#D7EDF4;stroke:#FFFFFF;stroke-width:7.2304;stroke-miterlimit:10;}
</style>
<g>
	<polygon class="st0" points="89.7,60.13 80.37,60.13 80.37,65.42 88.96,65.42 	"/>
	<polygon class="st0" points="89.36,65.93 89.7,65.56 88.79,65.42 80.7,65.2 80.37,68.12 87.02,68.45 	"/>
	<polygon class="st0" points="96.72,54.46 94.49,55.12 89.7,60.57 89.25,64.7 89.7,64.86 97.14,66.68 96.27,65.2 96.24,64.86 
		96.24,62.2 98.4,61.48 99.8,59.47 95.47,57.53 	"/>
	<polygon class="st0" points="99.8,59.47 101.85,59.47 109.72,60.79 109.21,62.1 108.09,62.92 107.92,64.02 106.04,67.47 
		105.19,71.3 102.96,74.37 102.11,74.79 100.31,77.01 92.61,77.43 87.64,76.32 87.64,74.87 86.32,74.27 86.32,72.81 88.65,72.39 
		89.86,68.96 89.1,65.93 89.57,64.86 97.08,66.68 96.23,65.2 96.24,64.77 96.24,62.2 98.4,61.48 	"/>
	<path class="st0" d="M108.8,56.56v2.91l0.25,0.51l-0.18,1.71l-0.94,1.03l-0.09,1.2L106,67.42l-0.83,3.85l-1.93,2.47l0.94-0.93
		l1.35,0.05l0.3,2.1l1.65,1.04l0.74-0.88l0.88,0.68l0.63-0.37l9.71,5.35l0.24-7.57l6.56-2.5h2.52l0.04-12.77l9.15,0.52l-0.6-6.93
		c0,0-18.74,0-18.99,0c-0.26,0-2.31,0.52-2.31,0.52l-1.45,1.9l-3.33,0.71L108.8,56.56z"/>
	<polygon class="st0" points="119.71,80.94 109.48,75.21 109.09,75.81 108.21,75.12 107.47,75.81 105.82,74.87 105.52,72.86 
		103.67,73.16 102.65,74.5 102.11,74.77 100.31,76.99 98.35,81.8 99.8,83.2 103.22,81.78 105.87,79.79 108.52,79.07 111.94,78.97 
		116.04,81.5 119.95,83.25 	"/>
	<path class="st0" d="M119.94,83.25l0.92,17.58l-17.09,1.58l2.95,16l-23.36-10.52l-1.63-0.86l1.11-3.68l1.63-0.86l0.51-1.37
		l1.37-1.03l1.54-1.45l2.57-1.28l2.4-1.11l1.77-3.08l0.93-2.4V88.9l3.09-1.2l1.06-2.4l-0.22-2.05l3.22-1.33l3.07-2.13
		c0,0,2.41-0.64,2.69-0.72c0.28-0.08,3.44-0.09,3.44-0.09l4.1,2.52L119.94,83.25z"/>
	<polygon class="st0" points="51.67,73.21 53.29,74.71 54.45,74.68 53.26,74.68 54.45,74.68 55.24,75.04 55.24,76.58 58.14,78.21 
		60.97,77.43 65.13,78.69 68.91,79.26 72.29,82.57 71.84,84.51 73.09,85.76 73.09,86.5 79.53,88.04 81.59,88.84 86.56,89.87 
		87.39,93.18 91.34,95.23 92.16,96.57 87.89,98.65 84.99,101.13 84.48,102.5 82.85,104.37 81.74,109.06 79.26,109.06 75.33,106.47 
		71.93,104.38 70.19,103.91 67.11,102.08 65.52,101.45 63.58,99.59 38.71,96.84 	"/>
	<polygon class="st0" points="79.04,107.04 79.04,109.77 77.28,111.31 75.91,115.08 71.45,120.44 64.43,121.69 63.15,123.75 
		62.39,127.63 59.68,126.6 57.63,128.1 53.88,131.54 51.54,131.54 46.58,128.86 44.3,129.52 40.42,128.08 35.45,129.02 
		29.45,124.89 29.45,119.36 28.7,116.56 30.97,108.8 37.23,100.83 38.35,96.76 63.5,99.56 66.73,102 70.18,103.67 72.37,104.1 
		78.27,107.08 	"/>
	<polygon class="st0" points="120.87,100.92 103.78,102.46 105.38,118.44 79.04,107.04 79.04,109.77 77.28,111.31 75.91,115.08 
		71.45,120.44 64.43,121.69 63.15,123.75 62.39,127.63 59.68,126.6 57.63,128.1 53.88,131.54 51.54,131.54 46.58,128.86 
		44.3,129.52 40.42,128.08 36.78,129.02 32.12,124.97 32.89,128.12 32.12,130.67 33.4,133.91 34.09,136.82 37.34,145.2 
		35.11,150.84 37,152.72 35.8,156.66 30.04,158.03 28.27,159.91 31.86,161.62 34.6,164.19 40.76,166.79 41.45,174.52 45.55,174.52 
		47.26,175.81 50.17,178.22 53.77,179.41 55.14,182.5 57.36,183.27 59.93,187.16 64.72,186.28 63.86,185.07 66.77,184.21 
		71.05,182.84 76.18,180.33 81.74,177.19 79.26,175.99 82.68,159.57 98.26,158.88 99.8,153.92 105.27,153.24 111.09,152.22 
		114.85,151.38 118.45,151.38 117.93,138.83 120.16,136.45 122.55,137.57 	"/>
	<polygon class="st0" points="89.36,65.93 86.64,68.75 84.36,72.51 82.17,75.34 77.55,75.34 72.33,70.1 68.75,68.03 67.14,66.31 
		67.14,64.94 64.5,62.72 64.5,61.35 63.17,60.49 63.17,57.07 60.14,48.77 57.55,44.41 53.73,43.72 51.95,44.49 49.44,48.09 
		48.69,51.77 49.9,51.94 50,52.88 47.77,54.46 47.26,56.47 46.15,57.84 42.64,59.69 39.31,64.1 36.83,64.1 34.6,65.5 32.38,64.46 
		27.33,64.1 19.89,64.1 17.75,65.33 18.52,65.86 20.91,66.15 20.83,69.5 20.31,73.22 17.15,74.98 17.58,79.76 18.09,83.26 
		20.57,89.54 22.62,96.5 25.87,96.5 28.27,89.15 30.75,88.04 33.4,93.26 38.71,96.95 51.67,73.28 53.29,74.41 55.13,74.31 
		55.9,75.04 55.9,76.58 58.47,78.21 61.14,77.43 65.21,78.69 68.96,79.26 72.31,82.57 72.18,84.51 73.75,85.76 73.75,86.5 
		79.86,88.04 81.76,88.84 86.64,89.87 87.43,93.18 91.36,95.23 92.17,96.57 92.06,96.26 96.24,90.78 96.24,88.9 99,87.7 99.91,85.3 
		99.6,83.25 98.24,81.8 100.26,77.01 92.58,77.43 87.64,76.32 87.64,74.87 86.32,74.27 86.32,72.81 88.65,72.39 89.86,68.96 	"/>
	<polygon class="st0" points="122.52,137.38 120.14,135.98 117.93,137.85 118.37,147.77 125.29,146.86 130.94,150.06 142.4,150.06 
		158.66,150.06 162.42,144.11 164.82,144.11 163.79,121.62 155.06,121.62 154.55,99.91 153.53,95.95 154.55,91.05 158.32,70.38 
		139.49,66.15 136.75,57.41 126.65,57.24 126.65,69.39 125.12,69.31 119.51,72.98 119.67,83.25 120.72,100.83 	"/>
	<polygon class="st0" points="157,70.25 184.18,74.35 184.18,79.66 185.5,83.25 185.5,91.12 190.95,99.85 196.28,105.15 
		198.09,110.97 196.34,112.84 201.88,122.27 206.02,127.23 205.97,132.36 208.65,137.15 208.65,143.14 207.05,147.08 207.41,149.99 
		187.31,150.84 185.39,139.72 164.75,142.95 163.79,121.62 155.06,121.62 154.55,99.91 152.95,95.95 	"/>
	<polygon class="st0" points="185.46,74.4 157.81,70.27 139.24,66.1 137.83,58.11 137.36,51.53 118.28,51.53 116.05,52.06 
		114.6,53.95 111.27,54.66 108.8,56.56 108.8,59.47 108.75,60.64 99.8,59.47 95.52,57.53 96.63,54.46 97.19,51.6 99.05,49.2 
		96.88,42.87 97.05,36.37 100.73,29.18 102.87,23.36 102.7,16.69 108.18,12.11 108.69,8.55 119.65,8.55 120.87,5.39 126.32,3.94 
		131.58,0.99 135.39,1.74 141.06,8.18 148.39,13.12 151.64,12.25 153.53,12.93 158.66,12.07 162.25,13.61 169.27,15.49 
		168.58,19.94 172.69,24.9 173.89,29.69 174.91,33.63 177.48,36.88 179.53,43.72 181.25,46.97 180.56,49.97 182.14,55.7 
		179.94,59.12 180.21,65.45 180.21,68.88 	"/>
	<path class="st0" d="M97.05,36.38l-0.17,6.5l2.18,6.33l-1.84,2.39l-0.51,2.87l-2.22,0.66l-4.42,5.03l-8.82,0.03L80.7,65.2
		l-0.33,2.92l6.83,0.05l-2.83,4.34l-2.19,2.82h-4.62l-5.22-5.24l-3.58-2.06l-1.61-1.72v-1.37l-2.64-2.22v-1.37l-1.32-0.86v-3.42
		l-3.04-8.3l-2.59-4.36l-3.82-0.68l-1.78,0.77l-2.52,3.59l-0.74,3.68l1.21,0.17L50,52.88l-2.22,1.58l-0.51,2.01l-1.11,1.37
		l-3.51,1.84l-3.34,4.41h-2.48L34.6,65.5l-2.22-1.05l-4.59-0.33l-7.9-0.03l-3.31-4.63l-3.99-1.6l-1.03-6.77l-1.71-4.8l2.17-2.57
		l5.13,1.76l2.17-3.88l3.19-1.37l7.19,1.03l8.1,0.57l2.05-4.26l-1.14-2.7l-0.11-2.28l2.85-2.17l-0.46-5.82l-1.94-2.62l1.14-2.97
		l0.34-6.27l2.28-3.19l6.73-0.99l1.94-1.34h2.97l1.82,0.29l4.11-2.18c0,0,2.05-3.14,2.62-3.26c0.57-0.11,3.65-1.23,3.65-1.23
		l4.68,0.75l2.85,2.94l3.76,4.55l4.13,0.22l1.23,13.23l13.92-0.8l5.48-5.08l0.17,6.67l-2.14,5.82L97.05,36.38z"/>
	<polygon class="st0" points="207.98,149.96 187.6,150.83 185.53,140.84 164.82,144.11 162.42,144.11 158.66,150.06 130.94,150.06 
		125.29,146.86 118.37,149.32 118.45,151.38 114.85,151.38 111.32,152.11 105.27,153.73 99.8,154.17 98.26,159.01 82.68,159.63 
		79.26,176.03 81.74,177.21 76.18,180.33 71.05,182.84 63.86,185.06 64.72,186.26 59.93,187.12 57.36,183.18 55.14,182.33 
		53.77,179.07 50.17,177.53 46.98,175.38 45.55,174.52 41.45,174.52 40.76,166.79 34.6,164.87 31.86,161.96 27.1,160.08 
		24.16,163.42 24.16,166.93 25.8,169.83 18.09,178.39 13.58,184.09 13.58,187.12 23.88,193.04 25.19,193.04 26.05,193.51 
		33.8,197.13 36.77,198.08 39.85,199.19 44.07,200.25 48.63,202.61 51.03,208.18 55.71,212.62 56.16,218.63 59.7,222.13 
		61.47,222.13 64.15,224.12 66.09,224.12 69.28,226.33 71.79,224.15 101.91,228.53 115.82,240.71 132.02,274.29 196.48,271.51 
		196.25,269.21 188.6,256.43 184.5,252.2 178.68,249 174.46,244.67 171.72,238.28 169.67,238.51 168.98,234.52 162.71,227.44 
		162.6,225.39 163.62,223.91 161.45,219.91 159.06,217.06 159.51,215.01 157.31,209.3 157.73,205.77 157.73,200.63 155.59,197.56 
		157.32,171.55 159.45,170.4 164.5,169.38 169.94,170.98 172.6,169.95 179.12,169.61 182.13,170.86 185.41,171.32 188.83,171.66 
		194.88,169.95 197.62,168.24 199.33,166.41 202.07,168.35 208.8,169.95 215.64,169.04 215.07,166.53 213.47,164.86 212.56,162.62 
		209.99,162.62 209.14,159.11 208.34,155.01 	"/>
	<polygon class="st0" points="215.71,169.04 208.83,169.95 202.08,168.35 199.34,166.41 197.62,168.24 194.88,169.95 188.83,171.66 
		182.14,170.86 179.14,169.61 172.63,169.95 170.01,170.98 164.65,169.38 159.74,170.4 157.92,171.55 155.92,197.56 158.39,200.63 
		158.39,205.77 157.64,209.3 159.08,215.01 158.84,217.06 161.35,219.91 163.57,223.91 162.57,225.39 162.7,227.44 168.98,234.52 
		169.66,238.51 171.72,238.28 174.46,244.67 178.68,249 184.5,252.2 188.6,256.42 196.25,269.2 195.74,271.48 220.55,270.56 
		220.55,265.83 220.48,262.24 223.36,259.61 222.01,255.73 223.86,249.69 223.86,244.61 223.53,240.33 226.26,237.14 227.28,225.73 
		228.08,223.45 226.65,218.2 227.28,214.55 228.49,211.7 228.49,206.45 227.87,204.74 227.51,193.11 221.01,180.33 219.41,176.91 	
		"/>
	<polygon class="st0" points="16.04,187.99 23.88,192.38 25.19,192.38 26.05,193.18 33.8,196.97 39.85,199.26 44.07,200.29 
		48.63,202.63 51.03,208.19 55.71,212.63 56.16,218.3 59.7,221.47 61.47,221.47 64.15,223.46 66.09,223.46 69.28,226 71.79,223.99 
		101.91,228.45 115.82,240.67 132.02,275.1 131.37,287.6 134.36,287.6 138.81,377.97 135.9,378.49 129.4,378.72 124.61,374.85 
		118.7,374.03 112.03,371.43 109.89,369.37 104.67,371.16 98.43,370.04 94.32,365.93 92.95,360.54 85.68,357.29 76.78,354.55 
		64.89,354.89 56.93,349.85 54.19,340.43 53.51,335.22 47.44,332.31 43.24,330.17 41.96,327.52 35.46,322.55 30.75,319.39 
		24.25,314.34 26.05,311.35 25.87,306.73 21.43,303.39 18.09,303.3 18.52,297.14 13.21,289.02 15.35,284.22 14.92,280.37 
		12.7,278.32 14.07,276.01 12.7,271.48 17.32,268.31 14.67,263.01 15.52,260.78 10.99,253.34 12.19,250.77 10.99,247.69 
		12.27,245.81 7.39,240.68 9.7,235.71 7.39,232.89 1.41,232.55 0.89,226.99 6.88,224.59 11.67,223.65 12.19,219.37 10.3,213.9 
		12.96,210.73 12.36,206.96 13.21,201.66 16.04,197.64 12.53,193.03 	"/>
</g>
<path class="st39" d="M142.7,142.02c-3.84,0-6.95,3.11-6.95,6.95c0,6.95,6.95,15.29,6.95,15.29s6.95-8.34,6.95-15.29
	C149.65,145.14,146.54,142.02,142.7,142.02z"/>
<path class="st39" d="M89.7,114.02c-3.84,0-6.95,3.11-6.95,6.95c0,6.95,6.95,15.29,6.95,15.29s6.95-8.34,6.95-15.29
	C96.65,117.14,93.54,114.02,89.7,114.02z"/>
<path class="st39" d="M84.7,40.02c-3.84,0-6.95,3.11-6.95,6.95c0,6.95,6.95,15.29,6.95,15.29s6.95-8.34,6.95-15.29
	C91.65,43.14,88.54,40.02,84.7,40.02z"/>
<path class="st39" d="M80.7,62.02c-3.84,0-6.95,3.11-6.95,6.95c0,6.95,6.95,15.29,6.95,15.29s6.95-8.34,6.95-15.29
	C87.65,65.14,84.54,62.02,80.7,62.02z"/>
<path class="st39" d="M45.7,226.02c-3.84,0-6.95,3.11-6.95,6.95c0,6.95,6.95,15.29,6.95,15.29s6.95-8.34,6.95-15.29
	C52.65,229.14,49.54,226.02,45.7,226.02z"/>
<path class="st39" d="M78.7,255.02c-3.84,0-6.95,3.11-6.95,6.95c0,6.95,6.95,15.29,6.95,15.29s6.95-8.34,6.95-15.29
	C85.65,258.14,82.54,255.02,78.7,255.02z"/>
<path class="st39" d="M187.7,180.02c-3.84,0-6.95,3.11-6.95,6.95c0,6.95,6.95,15.29,6.95,15.29s6.95-8.34,6.95-15.29
	C194.65,183.14,191.54,180.02,187.7,180.02z"/>
<path class="st39" d="M171.7,83.02c-3.84,0-6.95,3.11-6.95,6.95c0,6.95,6.95,15.29,6.95,15.29s6.95-8.34,6.95-15.29
	C178.65,86.14,175.54,83.02,171.7,83.02z"/>
<path class="st39" d="M142.7,14.02c-3.84,0-6.95,3.11-6.95,6.95c0,6.95,6.95,15.29,6.95,15.29s6.95-8.34,6.95-15.29
	C149.65,17.14,146.54,14.02,142.7,14.02z"/>
</svg>
