<svg id="svg" version="1.1" xmlns="http://www.w3.org/2000/svg" xmlns:xlink="http://www.w3.org/1999/xlink" width="400" height="628.5258964143426" viewBox="0, 0, 400,628.5258964143426"><g id="svgg"><path id="path0" d="M120.941 35.351 C 114.313 39.153,116.968 49.147,124.606 49.147 C 132.479 49.147,134.815 38.308,127.649 35.021 C 125.622 34.091,122.904 34.225,120.941 35.351 M221.171 35.354 C 220.421 36.104,220.239 36.562,220.239 37.701 C 220.239 41.576,225.009 42.624,226.719 39.125 C 228.361 35.763,223.837 32.688,221.171 35.354 M84.497 48.891 C 83.489 49.450,82.894 50.580,82.880 51.961 C 82.849 54.998,86.544 56.477,88.721 54.299 C 91.582 51.438,88.053 46.920,84.497 48.891 M271.873 53.770 C 269.965 54.464,268.900 56.904,269.771 58.587 C 271.539 62.006,276.335 60.835,276.335 56.984 C 276.335 54.819,273.869 53.043,271.873 53.770 M150.884 67.060 C 147.914 70.030,151.516 74.564,155.107 72.374 C 158.061 70.573,156.574 65.981,153.036 65.977 C 152.246 65.976,151.687 66.258,150.884 67.060 M247.875 79.049 C 244.729 81.523,247.883 86.797,251.416 84.970 C 254.749 83.247,253.741 78.406,250.049 78.406 C 249.171 78.406,248.403 78.633,247.875 79.049 M208.287 83.810 C 206.522 84.540,205.614 86.676,206.335 88.402 C 207.783 91.867,212.881 90.905,212.901 87.163 C 212.915 84.640,210.508 82.891,208.287 83.810 M84.901 90.963 C 81.521 92.477,82.534 97.502,86.224 97.523 C 87.727 97.531,88.730 96.917,89.432 95.559 C 90.841 92.836,87.741 89.692,84.901 90.963 M119.841 92.841 C 119.402 93.062,118.765 93.760,118.424 94.392 C 116.522 97.921,121.380 101.186,124.064 98.182 C 126.603 95.341,123.263 91.117,119.841 92.841 M44.502 96.404 C 41.013 97.648,38.944 101.753,39.991 105.354 C 41.904 111.934,50.875 112.796,53.726 106.674 C 56.598 100.505,50.875 94.133,44.502 96.404 M290.359 104.920 C 285.592 105.757,282.981 111.232,285.239 115.658 C 287.557 120.201,294.070 120.928,297.417 117.018 C 302.027 111.632,297.391 103.686,290.359 104.920 M53.992 130.486 C 52.030 132.448,52.893 135.600,55.577 136.273 C 58.019 136.886,60.392 134.513,59.779 132.071 C 59.106 129.387,55.954 128.524,53.992 130.486 M230.859 131.510 C 227.594 133.120,228.799 138.020,232.455 138.001 C 236.153 137.981,237.182 132.873,233.774 131.449 C 232.420 130.883,232.118 130.890,230.859 131.510 M154.741 134.793 C 149.185 136.186,147.003 142.646,150.650 146.907 C 156.335 153.549,166.835 146.421,162.856 138.621 C 161.456 135.877,157.626 134.070,154.741 134.793 M102.151 149.439 C 95.010 152.692,97.359 163.570,105.203 163.570 C 112.849 163.570,115.497 153.581,108.860 149.773 C 106.901 148.650,104.182 148.514,102.151 149.439 M299.442 163.238 C 297.529 164.291,297.076 166.871,298.505 168.570 C 300.871 171.382,305.458 168.883,304.402 165.357 C 303.797 163.338,301.244 162.247,299.442 163.238 M198.564 164.745 C 189.679 167.618,191.881 180.258,201.111 179.371 C 207.170 178.788,209.829 171.439,205.621 166.903 C 203.981 165.135,200.576 164.094,198.564 164.745 M54.921 168.435 C 52.445 169.511,52.271 173.514,54.652 174.599 C 57.814 176.040,60.895 173.146,59.447 170.095 C 58.591 168.290,56.780 167.626,54.921 168.435 M80.124 171.693 C 77.660 172.178,76.738 175.848,78.650 177.556 C 81.675 180.258,85.833 176.962,83.963 173.346 C 83.525 172.499,81.761 171.393,81.046 171.518 C 80.909 171.541,80.494 171.620,80.124 171.693 M253.768 172.007 C 253.189 172.293,252.508 172.928,252.254 173.418 C 250.380 177.044,254.834 180.290,257.721 177.402 C 260.502 174.621,257.309 170.262,253.768 172.007 M68.945 201.901 C 65.637 203.339,66.802 208.446,70.438 208.446 C 74.122 208.446,75.239 203.298,71.862 201.887 C 70.542 201.336,70.240 201.337,68.945 201.901 M272.669 212.243 C 267.132 213.631,264.943 220.111,268.578 224.357 C 274.236 230.967,284.809 223.906,280.832 216.174 C 279.340 213.274,275.649 211.497,272.669 212.243 M113.386 217.825 C 107.521 219.918,106.619 227.893,111.881 231.143 C 116.830 234.200,123.158 230.675,123.158 224.861 C 123.158 219.760,118.123 216.135,113.386 217.825 M74.104 233.677 C 71.627 235.039,71.750 238.541,74.321 239.871 C 77.007 241.260,80.110 238.261,78.924 235.423 C 78.132 233.529,75.865 232.708,74.104 233.677 M332.517 239.393 C 326.366 242.437,327.092 251.273,333.658 253.285 C 340.339 255.331,345.830 247.346,341.650 241.663 C 339.667 238.965,335.481 237.925,332.517 239.393 M183.824 261.809 C 177.528 264.056,177.060 272.770,183.085 275.576 C 188.013 277.871,193.574 274.302,193.574 268.845 C 193.574 263.772,188.528 260.131,183.824 261.809 M75.781 265.359 C 72.643 267.062,73.952 271.873,77.553 271.873 C 79.310 271.873,80.956 270.227,80.956 268.469 C 80.956 265.748,78.160 264.068,75.781 265.359 M102.374 282.924 C 99.116 284.529,100.267 289.402,103.904 289.402 C 107.573 289.402,108.695 284.482,105.384 282.912 C 104.030 282.269,103.700 282.270,102.374 282.924 M58.713 286.259 C 56.893 286.779,55.868 289.331,56.770 291.097 C 57.772 293.055,60.392 293.543,62.116 292.092 C 65.043 289.630,62.454 285.192,58.713 286.259 M130.677 286.455 C 127.727 287.929,128.052 291.990,131.191 292.866 C 135.305 294.013,137.302 287.990,133.355 286.341 C 132.021 285.783,132.021 285.783,130.677 286.455 M228.685 286.188 C 223.081 287.592,220.948 294.041,224.655 298.372 C 228.557 302.932,236.036 301.034,237.454 295.125 C 238.685 289.993,233.715 284.927,228.685 286.188 M139.124 307.839 C 132.604 310.952,133.759 320.416,140.844 321.935 C 146.893 323.232,151.699 316.501,148.625 311.036 C 146.772 307.742,142.405 306.273,139.124 307.839 M286.074 312.808 C 279.730 315.160,279.019 323.389,284.897 326.442 C 290.919 329.571,297.543 323.812,295.285 317.412 C 294.009 313.794,289.497 311.539,286.074 312.808 M44.423 316.302 C 41.043 317.816,42.056 322.841,45.746 322.861 C 47.249 322.870,48.252 322.256,48.954 320.898 C 50.362 318.175,47.263 315.031,44.423 316.302 M364.781 328.588 C 362.691 329.443,362.115 332.618,363.752 334.256 C 364.959 335.463,367.352 335.520,368.575 334.371 C 371.348 331.766,368.315 327.142,364.781 328.588 M104.560 330.321 C 101.431 331.360,101.481 335.647,104.636 336.848 C 105.651 337.235,105.911 337.217,106.992 336.689 C 110.972 334.745,108.751 328.928,104.560 330.321 M164.622 356.562 C 160.680 357.510,161.543 363.347,165.624 363.347 C 169.322 363.347,170.257 358.215,166.821 356.779 C 165.714 356.316,165.663 356.311,164.622 356.562 M312.351 356.559 C 310.443 357.253,309.378 359.693,310.249 361.376 C 312.017 364.795,316.813 363.624,316.813 359.773 C 316.813 357.608,314.347 355.832,312.351 356.559 M31.713 374.789 C 24.558 378.109,26.906 388.908,34.784 388.908 C 40.934 388.908,44.400 382.076,40.782 377.082 C 38.873 374.446,34.717 373.395,31.713 374.789 M80.343 375.164 C 78.493 377.014,79.242 380.048,81.753 380.876 C 84.547 381.799,87.259 378.730,85.926 376.154 C 84.773 373.924,82.064 373.444,80.343 375.164 M360.956 380.044 C 353.610 383.253,355.818 394.308,363.806 394.308 C 370.229 394.308,373.619 386.978,369.449 382.106 C 367.491 379.818,363.623 378.879,360.956 380.044 M131.862 400.667 C 123.207 402.700,124.520 415.299,133.386 415.299 C 137.359 415.299,140.300 412.628,140.779 408.586 C 141.340 403.845,136.529 399.572,131.862 400.667 M84.100 419.058 C 80.103 421.139,78.951 426.424,81.706 430.036 C 85.804 435.409,94.431 432.868,94.918 426.145 C 95.350 420.169,89.423 416.286,84.100 419.058 M193.535 422.171 C 191.709 423.450,191.473 425.967,193.032 427.526 C 195.253 429.747,198.884 428.227,198.884 425.076 C 198.884 422.504,195.604 420.722,193.535 422.171 M248.765 427.074 C 247.155 427.733,246.172 429.816,246.707 431.435 C 247.910 435.081,253.386 434.347,253.386 430.541 C 253.386 427.906,251.037 426.144,248.765 427.074 M343.095 427.846 C 335.917 431.188,338.357 441.895,346.295 441.886 C 354.060 441.876,356.535 431.383,349.588 427.921 C 347.435 426.848,345.290 426.824,343.095 427.846 M295.721 439.749 C 293.623 441.051,293.653 444.432,295.774 445.684 C 298.130 447.076,300.983 445.447,300.983 442.709 C 300.983 439.965,298.041 438.310,295.721 439.749 M214.409 448.770 C 211.849 450.783,213.335 454.948,216.613 454.948 C 219.706 454.948,221.150 450.906,218.793 448.845 C 217.715 447.902,215.559 447.865,214.409 448.770 M42.315 450.203 C 39.064 452.031,40.533 456.733,44.355 456.733 C 45.868 456.733,47.490 454.938,47.490 453.264 C 47.490 450.664,44.568 448.936,42.315 450.203 M200.637 466.398 C 194.935 469.150,194.922 476.785,200.616 479.770 C 205.624 482.395,211.971 477.797,211.194 472.107 C 210.523 467.200,205.078 464.255,200.637 466.398 M52.496 485.742 C 50.953 486.956,50.682 489.220,51.910 490.642 C 54.098 493.174,58.008 491.760,58.008 488.437 C 58.008 485.607,54.715 483.997,52.496 485.742 M112.669 485.705 C 105.432 489.063,107.903 499.806,115.913 499.806 C 121.968 499.806,125.363 492.764,121.649 487.905 C 119.617 485.248,115.715 484.292,112.669 485.705 M167.753 515.205 C 163.837 516.912,165.871 522.863,169.982 521.728 C 173.094 520.869,173.188 515.060,170.090 515.060 C 169.828 515.060,169.423 514.993,169.189 514.912 C 168.956 514.831,168.310 514.963,167.753 515.205 M220.054 520.760 C 217.142 522.536,218.188 526.700,221.645 527.089 C 222.972 527.239,223.182 527.161,224.214 526.128 C 227.160 523.183,223.605 518.595,220.054 520.760 M91.574 527.793 C 90.314 528.561,89.880 529.344,89.880 530.848 C 89.880 533.353,93.194 535.111,95.230 533.686 C 98.965 531.070,95.461 525.423,91.574 527.793 M116.075 555.568 C 112.043 556.338,109.328 560.500,110.277 564.456 C 112.318 572.962,124.926 571.596,124.926 562.869 C 124.926 558.213,120.657 554.692,116.075 555.568 M176.963 582.142 C 171.621 583.810,170.003 590.791,174.065 594.645 C 178.750 599.090,186.548 595.750,186.558 589.294 C 186.565 584.240,181.746 580.648,176.963 582.142 M226.649 600.338 C 223.837 602.704,226.337 607.291,229.862 606.234 C 232.683 605.389,233.240 601.284,230.711 599.976 C 229.336 599.265,227.757 599.406,226.649 600.338 " stroke="none" fill="#34b4d4" fill-rule="evenodd"></path><path id="path1" d="M122.049 31.971 C 112.066 34.792,111.965 48.596,121.907 51.486 C 129.970 53.830,137.343 45.231,133.808 37.607 C 131.753 33.177,126.571 30.693,122.049 31.971 M221.581 31.914 C 217.182 33.182,216.151 39.995,219.940 42.758 C 222.831 44.867,227.030 44.003,228.751 40.947 C 231.660 35.779,227.287 30.268,221.581 31.914 M127.656 34.700 C 135.464 38.247,132.555 49.961,124.020 49.343 C 116.368 48.790,114.289 38.362,121.149 34.943 C 123.198 33.922,125.735 33.827,127.656 34.700 M226.167 35.187 C 228.552 37.571,226.955 41.434,223.586 41.434 C 220.709 41.434,219.055 38.615,220.402 36.008 C 221.512 33.863,224.427 33.447,226.167 35.187 M84.895 45.882 C 80.049 47.037,78.467 53.351,82.259 56.399 C 87.558 60.657,94.513 55.466,91.781 49.291 C 90.881 47.256,87.884 45.333,86.056 45.618 C 85.968 45.632,85.446 45.750,84.895 45.882 M88.319 48.856 C 90.303 50.191,90.574 52.803,88.903 54.474 C 86.679 56.698,83.064 55.459,82.645 52.329 C 82.218 49.146,85.639 47.052,88.319 48.856 M270.747 51.335 C 265.329 52.911,265.745 61.612,271.311 63.133 C 273.670 63.778,276.890 62.572,278.033 60.614 C 281.095 55.371,276.591 49.635,270.747 51.335 M274.991 54.043 C 277.228 55.611,277.094 59.182,274.751 60.393 C 270.797 62.438,267.166 57.418,270.490 54.500 C 271.741 53.401,273.779 53.195,274.991 54.043 M150.774 63.778 C 149.461 64.303,147.649 66.411,147.255 67.873 C 145.497 74.403,154.520 78.555,158.248 72.931 C 161.590 67.891,156.398 61.532,150.774 63.778 M154.686 66.092 C 157.679 67.342,157.497 71.973,154.416 72.990 C 150.918 74.145,147.991 70.028,150.333 67.245 C 151.668 65.658,152.880 65.337,154.686 66.092 M247.853 76.158 C 245.904 76.938,245.162 77.597,244.424 79.203 C 241.319 85.965,250.784 91.333,255.018 85.212 C 258.470 80.221,253.475 73.909,247.853 76.158 M251.803 78.571 C 255.136 80.294,253.816 85.418,250.040 85.418 C 248.761 85.418,248.383 85.260,247.458 84.335 C 244.438 81.315,247.992 76.600,251.803 78.571 M207.012 81.408 C 202.884 83.250,202.189 89.267,205.787 92.012 C 209.485 94.832,215.704 91.914,215.763 87.331 C 215.819 82.946,210.949 79.650,207.012 81.408 M210.902 83.657 C 214.608 84.720,213.466 90.837,209.562 90.837 C 205.496 90.837,204.490 85.274,208.260 83.643 C 209.215 83.230,209.416 83.231,210.902 83.657 M83.621 88.590 C 80.138 90.149,79.095 95.078,81.579 98.236 C 83.625 100.836,88.724 100.810,90.931 98.187 C 95.209 93.103,89.699 85.869,83.621 88.590 M118.556 90.598 C 115.062 92.363,114.306 96.992,117.031 99.947 C 120.926 104.173,127.504 101.647,127.478 95.936 C 127.456 91.105,122.922 88.392,118.556 90.598 M88.442 91.209 C 92.102 94.088,88.590 99.505,84.452 97.365 C 82.109 96.154,81.975 92.583,84.213 91.015 C 85.260 90.282,87.387 90.379,88.442 91.209 M124.260 93.562 C 125.224 94.614,125.317 94.878,125.174 96.152 C 124.698 100.373,119.014 100.923,117.918 96.853 C 116.885 93.016,121.544 90.598,124.260 93.562 M43.421 93.918 C 38.243 95.750,35.529 102.713,38.017 107.780 C 41.667 115.213,52.377 115.338,56.124 107.992 C 60.290 99.826,52.165 90.824,43.421 93.918 M50.557 96.517 C 54.378 98.482,55.883 103.073,53.931 106.810 C 50.162 114.024,39.498 111.467,39.529 103.357 C 39.550 97.698,45.580 93.958,50.557 96.517 M289.001 102.466 C 283.615 104.007,280.574 109.715,282.229 115.173 C 285.478 125.881,301.262 123.942,301.784 112.771 C 302.117 105.645,295.770 100.529,289.001 102.466 M294.751 105.036 C 300.015 107.232,301.099 114.277,296.746 118.002 C 291.089 122.845,282.369 117.273,284.442 110.140 C 285.702 105.808,290.686 103.340,294.751 105.036 M53.705 127.235 C 47.815 130.382,49.951 138.964,56.624 138.964 C 62.387 138.964,64.607 131.151,59.816 127.733 C 58.678 126.921,54.872 126.611,53.705 127.235 M230.211 128.840 C 228.075 129.526,226.295 132.173,226.295 134.661 C 226.295 140.491,234.190 143.069,237.362 138.276 C 240.778 133.114,236.104 126.948,230.211 128.840 M58.359 129.811 C 60.858 131.490,60.601 134.896,57.875 136.227 C 54.396 137.925,50.964 133.289,53.599 130.452 C 55.021 128.921,56.698 128.695,58.359 129.811 M234.513 131.493 C 237.588 133.647,236.039 138.327,232.250 138.327 C 229.565 138.327,227.673 134.677,229.268 132.575 C 230.437 131.033,233.078 130.489,234.513 131.493 M153.466 132.379 C 148.984 133.864,146.567 136.986,146.347 141.572 C 145.718 154.673,165.248 156.003,166.297 142.931 C 166.856 135.964,159.903 130.246,153.466 132.379 M160.270 135.548 C 165.179 138.796,165.157 145.597,160.227 148.645 C 152.876 153.190,144.836 143.652,150.548 137.162 C 153.063 134.304,157.323 133.597,160.270 135.548 M102.864 146.304 C 91.294 149.210,93.420 166.290,105.339 166.195 C 114.057 166.125,118.458 156.252,112.820 149.412 C 110.885 147.066,105.957 145.527,102.864 146.304 M109.193 149.658 C 112.507 151.707,113.745 155.869,112.106 159.450 C 108.922 166.405,98.408 164.638,97.627 157.016 C 96.981 150.701,103.831 146.343,109.193 149.658 M299.894 160.326 C 294.075 161.315,293.134 169.499,298.572 171.830 C 302.744 173.618,307.135 170.813,307.227 166.301 C 307.301 162.648,303.665 159.685,299.894 160.326 M197.610 162.190 C 186.215 165.962,188.759 182.553,200.636 181.930 C 213.590 181.250,213.678 162.909,200.731 162.076 C 199.452 161.993,198.048 162.045,197.610 162.190 M302.785 163.026 C 306.816 165.110,303.975 171.503,299.795 169.756 C 298.374 169.162,297.371 167.804,297.371 166.475 C 297.371 163.488,300.197 161.687,302.785 163.026 M203.277 164.956 C 206.623 166.352,208.558 170.075,207.792 173.645 C 205.893 182.499,192.695 181.159,192.690 172.112 C 192.686 166.602,198.234 162.853,203.277 164.956 M54.024 165.850 C 53.053 166.304,51.840 167.489,50.886 168.916 C 49.436 171.083,50.664 175.416,53.116 176.789 C 58.770 179.954,64.731 174.278,61.666 168.649 C 60.204 165.965,56.602 164.646,54.024 165.850 M58.300 168.432 C 60.498 169.569,60.664 172.755,58.615 174.479 C 56.917 175.907,54.085 175.354,53.073 173.397 C 51.323 170.013,54.860 166.654,58.300 168.432 M78.563 169.504 C 73.087 172.054,73.928 179.808,79.813 181.030 C 83.918 181.882,87.012 179.319,87.012 175.067 C 87.012 170.619,82.521 167.662,78.563 169.504 M253.359 169.210 C 248.269 170.867,247.697 178.001,252.454 180.502 C 257.845 183.336,263.675 177.242,260.597 171.990 C 259.209 169.622,255.945 168.368,253.359 169.210 M83.055 172.000 C 85.361 173.510,85.261 177.090,82.879 178.321 C 78.924 180.366,75.294 175.346,78.617 172.428 C 79.881 171.318,81.742 171.139,83.055 172.000 M257.184 171.938 C 259.571 173.173,259.602 176.864,257.237 178.261 C 255.353 179.374,252.879 178.642,251.957 176.699 C 250.389 173.394,253.869 170.224,257.184 171.938 M67.608 199.576 C 63.843 201.439,63.198 206.820,66.403 209.633 C 69.600 212.440,74.817 211.138,76.132 207.203 C 77.941 201.790,72.668 197.071,67.608 199.576 M72.743 202.061 C 74.646 203.558,74.675 206.145,72.808 207.784 C 69.963 210.282,65.737 207.445,66.928 203.837 C 67.669 201.591,70.893 200.606,72.743 202.061 M270.598 210.198 C 262.473 213.188,261.988 224.877,269.829 228.713 C 274.895 231.192,281.664 228.542,283.620 223.316 C 286.747 214.957,278.965 207.118,270.598 210.198 M277.085 212.390 C 283.246 214.965,283.480 223.695,277.463 226.497 C 269.585 230.165,262.761 219.991,269.056 213.961 C 271.057 212.044,274.599 211.351,277.085 212.390 M112.415 215.265 C 102.048 219.096,104.596 234.900,115.580 234.900 C 126.577 234.900,129.823 220.427,119.912 215.580 C 118.364 214.823,114.096 214.644,112.415 215.265 M119.102 217.962 C 124.772 220.884,124.827 228.807,119.196 231.711 C 114.118 234.329,108.207 230.645,108.207 224.861 C 108.207 219.122,114.105 215.388,119.102 217.962 M73.625 231.082 C 66.703 233.533,69.202 243.553,76.539 242.765 C 83.028 242.067,83.650 232.392,77.309 230.795 C 75.550 230.352,75.726 230.338,73.625 231.082 M77.447 233.464 C 80.293 234.936,79.964 238.930,76.891 240.214 C 74.759 241.105,72.032 239.263,72.032 236.932 C 72.032 233.926,74.850 232.122,77.447 233.464 M334.002 236.187 C 332.019 236.511,329.506 237.836,328.466 239.108 C 327.992 239.686,327.388 240.426,327.123 240.751 C 325.519 242.720,325.170 247.366,326.424 250.040 C 331.188 260.197,345.666 257.196,345.646 246.056 C 345.635 239.616,340.364 235.149,334.002 236.187 M339.690 239.575 C 343.136 241.705,344.370 247.073,342.142 250.243 C 337.915 256.257,328.807 254.094,328.065 246.900 C 327.421 240.664,334.370 236.286,339.690 239.575 M183.251 259.239 C 175.920 261.216,173.623 270.810,179.219 276.081 C 185.812 282.291,196.188 277.856,196.148 268.845 C 196.117 261.923,190.051 257.405,183.251 259.239 M189.608 261.981 C 195.229 264.879,195.202 272.824,189.563 275.731 C 182.936 279.147,175.787 271.500,179.571 265.043 C 181.646 261.502,186.065 260.154,189.608 261.981 M75.471 262.626 C 72.163 263.623,70.311 268.105,71.966 271.107 C 75.041 276.687,83.506 274.915,83.506 268.691 C 83.506 264.094,79.823 261.314,75.471 262.626 M79.598 265.359 C 80.694 266.078,81.400 267.761,81.154 269.072 C 80.649 271.763,77.012 273.069,75.080 271.254 C 71.665 268.046,75.687 262.797,79.598 265.359 M101.934 280.135 C 97.322 281.627,96.370 287.899,100.303 290.877 C 105.597 294.885,112.536 288.595,109.166 282.845 C 107.807 280.526,104.526 279.296,101.934 280.135 M105.858 282.890 C 108.003 283.999,108.218 287.033,106.274 288.741 C 102.634 291.937,97.872 286.600,101.413 283.292 C 102.538 282.241,104.296 282.082,105.858 282.890 M57.941 283.662 C 55.406 284.426,53.865 286.672,53.865 289.601 C 53.865 294.963,59.676 297.599,63.864 294.136 C 68.953 289.929,64.321 281.738,57.941 283.662 M130.481 283.649 C 125.914 284.739,124.420 291.025,127.985 294.155 C 132.058 297.731,138.161 294.916,138.044 289.514 C 137.948 285.078,134.781 282.622,130.481 283.649 M227.384 283.801 C 216.310 287.461,218.611 303.622,230.189 303.507 C 239.258 303.417,243.630 292.887,237.342 286.281 C 235.080 283.905,230.512 282.768,227.384 283.801 M61.806 286.360 C 63.988 287.489,64.239 290.535,62.290 292.247 C 59.162 294.993,54.668 291.495,56.578 287.801 C 57.477 286.063,59.925 285.388,61.806 286.360 M134.517 286.773 C 136.372 288.431,136.029 291.630,133.875 292.744 C 131.266 294.093,128.446 292.440,128.446 289.562 C 128.446 286.357,132.148 284.656,134.517 286.773 M234.314 287.026 C 239.123 290.406,239.051 297.023,234.172 300.039 C 228.138 303.770,220.598 297.660,222.962 290.956 C 224.545 286.465,230.555 284.385,234.314 287.026 M139.967 304.712 C 132.987 306.151,129.917 314.310,134.026 320.502 C 138.089 326.625,147.967 325.917,151.215 319.272 C 154.956 311.616,148.296 302.995,139.967 304.712 M144.730 307.369 C 148.930 308.871,151.025 313.897,149.130 317.928 C 146.586 323.340,138.815 323.741,135.651 318.623 C 131.931 312.605,138.074 304.990,144.730 307.369 M285.578 310.080 C 274.279 313.795,276.693 329.880,288.549 329.880 C 299.015 329.880,302.141 315.706,292.749 310.841 C 291.046 309.959,287.191 309.550,285.578 310.080 M291.911 313.126 C 293.485 313.940,295.361 316.356,295.782 318.111 C 297.676 326.003,287.128 331.070,282.215 324.629 C 277.272 318.149,284.665 309.379,291.911 313.126 M43.349 313.795 C 37.398 316.482,38.862 325.003,45.337 325.369 C 49.442 325.601,51.943 323.234,51.950 319.113 C 51.957 315.181,47.028 312.133,43.349 313.795 M48.128 316.733 C 51.458 319.751,47.967 324.769,43.974 322.704 C 40.682 321.002,42.008 315.857,45.737 315.857 C 46.844 315.857,47.377 316.052,48.128 316.733 M363.790 326.176 C 357.739 328.915,359.596 337.849,366.215 337.849 C 373.984 337.849,374.487 326.210,366.735 325.825 C 365.536 325.765,364.398 325.901,363.790 326.176 M103.841 327.645 C 101.167 328.451,99.162 331.681,99.585 334.501 C 100.154 338.295,104.454 340.738,107.974 339.268 C 115.101 336.290,111.234 325.415,103.841 327.645 M367.839 328.462 C 368.364 328.733,369.073 329.414,369.415 329.976 C 371.377 333.194,367.616 336.955,364.398 334.993 C 360.320 332.507,363.605 326.272,367.839 328.462 M108.239 330.964 C 110.623 333.348,109.027 337.211,105.657 337.211 C 104.379 337.211,104.001 337.052,103.076 336.127 C 100.691 333.743,102.288 329.880,105.657 329.880 C 106.936 329.880,107.314 330.039,108.239 330.964 M163.028 354.407 C 157.279 357.011,158.576 365.100,164.871 365.908 C 167.054 366.188,168.307 365.746,169.882 364.142 C 174.531 359.405,169.082 351.665,163.028 354.407 M310.934 354.437 C 303.645 358.074,308.417 368.800,315.857 365.502 C 317.902 364.595,318.071 364.410,319.041 362.023 C 321.092 356.975,315.791 352.014,310.934 354.437 M167.983 357.211 C 171.481 360.337,166.803 365.862,163.214 362.842 C 160.534 360.587,162.079 356.335,165.578 356.335 C 166.681 356.335,167.223 356.532,167.983 357.211 M315.469 356.832 C 317.706 358.399,317.572 361.971,315.230 363.182 C 311.115 365.309,307.601 359.887,311.239 357.026 C 312.295 356.196,314.421 356.098,315.469 356.832 M32.425 371.651 C 23.286 373.887,21.943 386.749,30.443 390.641 C 40.117 395.070,49.316 383.536,42.742 375.219 C 40.591 372.498,35.773 370.831,32.425 371.651 M80.065 372.139 C 75.392 374.468,75.464 380.998,80.187 383.087 C 87.548 386.343,92.618 375.828,85.441 372.191 C 83.288 371.101,82.170 371.090,80.065 372.139 M37.523 374.352 C 43.813 376.981,44.167 385.584,38.101 388.409 C 33.281 390.653,27.807 387.668,27.190 382.460 C 26.524 376.835,32.410 372.216,37.523 374.352 M85.101 374.741 C 86.906 376.377,86.893 378.840,85.073 380.372 C 82.710 382.360,79.044 380.632,79.044 377.530 C 79.044 374.464,82.857 372.708,85.101 374.741 M360.489 377.484 C 355.213 379.073,352.314 385.536,354.551 390.720 C 358.991 401.010,373.866 397.988,373.864 386.796 C 373.864 379.830,367.472 375.380,360.489 377.484 M366.260 379.653 C 369.295 380.562,371.451 383.585,371.451 386.932 C 371.451 393.813,363.475 397.157,358.517 392.357 C 352.700 386.725,358.439 377.309,366.260 379.653 M130.462 398.228 C 119.591 401.627,121.864 417.871,133.227 417.990 C 142.739 418.089,147.099 406.178,139.745 400.188 C 136.992 397.945,133.634 397.236,130.462 398.228 M136.345 400.813 C 141.333 402.894,142.643 409.764,138.754 413.447 C 133.821 418.119,125.782 414.723,125.782 407.968 C 125.782 402.480,131.330 398.721,136.345 400.813 M85.528 415.618 C 79.703 416.828,75.616 424.403,78.177 429.243 C 78.478 429.813,78.946 430.699,79.215 431.213 C 81.910 436.345,91.266 437.035,95.195 432.391 C 101.491 424.949,94.981 413.653,85.528 415.618 M90.040 418.204 C 91.851 418.704,94.478 421.394,94.980 423.264 C 97.443 432.432,84.572 437.306,80.664 428.685 C 77.918 422.628,83.492 416.397,90.040 418.204 M193.307 419.405 C 189.934 420.600,188.380 424.624,189.999 427.968 C 192.403 432.934,200.236 431.904,201.402 426.468 C 202.431 421.668,197.951 417.758,193.307 419.405 M197.278 421.876 C 199.210 423.017,199.723 425.268,198.474 427.124 C 197.140 429.108,194.528 429.379,192.857 427.708 C 189.805 424.657,193.573 419.687,197.278 421.876 M247.490 424.808 C 241.623 427.598,243.394 436.377,249.842 436.460 C 254.914 436.525,257.732 431.468,255.057 427.101 C 253.534 424.614,250.091 423.571,247.490 424.808 M341.875 425.476 C 332.290 430.249,335.608 444.622,346.294 444.622 C 353.006 444.622,357.805 438.050,355.894 431.478 C 354.226 425.739,347.301 422.774,341.875 425.476 M252.622 427.857 C 255.591 430.826,252.035 435.564,248.290 433.627 C 244.888 431.868,246.188 426.773,250.040 426.773 C 251.318 426.773,251.697 426.932,252.622 427.857 M350.133 427.880 C 356.900 431.845,354.003 442.135,346.119 442.135 C 339.499 442.135,336.121 434.119,340.674 429.215 C 343.025 426.682,347.106 426.106,350.133 427.880 M294.486 437.389 C 291.856 438.780,290.721 442.678,292.130 445.484 C 294.183 449.572,300.425 449.957,302.720 446.138 C 306.049 440.600,300.189 434.373,294.486 437.389 M299.113 439.337 C 301.844 440.479,301.880 444.726,299.169 446.013 C 297.809 446.658,297.264 446.664,295.970 446.051 C 291.591 443.972,294.636 437.467,299.113 439.337 M214.386 445.708 C 211.210 446.887,209.552 450.679,210.852 453.791 C 213.634 460.449,223.710 457.724,222.585 450.617 C 221.973 446.748,217.996 444.367,214.386 445.708 M41.216 447.791 C 37.355 449.544,36.830 455.528,40.304 458.178 C 42.427 459.797,46.236 459.582,48.236 457.730 C 53.324 453.018,47.590 444.897,41.216 447.791 M219.344 449.048 C 221.479 451.438,219.796 455.139,216.574 455.139 C 213.171 455.139,211.609 451.276,214.032 448.853 C 215.542 447.343,217.897 447.429,219.344 449.048 M46.215 450.313 C 49.984 453.079,45.941 458.971,42.072 456.352 C 40.411 455.228,39.857 453.422,40.666 451.766 C 41.758 449.528,44.255 448.874,46.215 450.313 M199.274 464.079 C 194.795 466.317,192.810 471.045,194.252 476.040 C 197.347 486.756,213.145 484.803,213.789 473.625 C 214.241 465.786,206.304 460.566,199.274 464.079 M207.639 466.431 C 212.146 469.073,212.823 474.995,209.032 478.629 C 205.907 481.624,201.100 481.371,198.117 478.053 C 192.363 471.653,200.208 462.076,207.639 466.431 M52.820 482.670 C 49.257 483.661,47.477 487.591,49.049 490.996 C 51.841 497.047,60.558 495.184,60.558 488.537 C 60.558 484.083,57.117 481.474,52.820 482.670 M113.382 482.578 C 106.049 484.305,103.259 493.634,108.394 499.252 C 114.361 505.781,125.116 502.073,125.813 493.247 C 126.358 486.355,120.109 480.993,113.382 482.578 M56.425 485.264 C 58.578 486.378,58.922 489.577,57.066 491.235 C 54.698 493.352,50.996 491.651,50.996 488.446 C 50.996 485.568,53.816 483.915,56.425 485.264 M119.057 485.535 C 121.852 486.837,123.410 489.305,123.410 492.430 C 123.410 499.540,114.787 502.779,110.084 497.435 C 104.591 491.195,111.509 482.020,119.057 485.535 M167.242 512.630 C 163.836 513.577,161.926 517.455,163.332 520.568 C 166.175 526.865,175.100 525.205,175.100 518.379 C 175.100 514.063,171.516 511.441,167.242 512.630 M171.086 515.238 C 174.132 517.372,172.684 522.072,168.981 522.072 C 166.928 522.072,165.418 520.519,165.418 518.406 C 165.418 515.526,168.799 513.637,171.086 515.238 M219.501 518.071 C 215.056 519.657,214.429 525.987,218.449 528.685 C 221.887 530.993,227.044 529.182,227.750 525.419 C 228.759 520.040,224.534 516.276,219.501 518.071 M223.270 520.300 C 223.874 520.552,224.666 521.233,225.030 521.813 C 226.920 524.830,223.573 528.590,220.361 527.058 C 215.951 524.956,218.766 518.418,223.270 520.300 M90.677 525.217 C 88.109 526.808,87.331 528.124,87.331 530.873 C 87.331 537.231,95.747 539.086,98.871 533.418 C 101.515 528.621,95.270 522.370,90.677 525.217 M95.548 527.679 C 96.821 528.513,97.378 530.266,96.853 531.782 C 95.909 534.505,92.754 535.292,90.763 533.301 C 87.575 530.113,91.760 525.197,95.548 527.679 M115.538 552.866 C 106.065 555.249,104.437 567.607,113.039 571.842 C 123.362 576.923,132.573 563.946,124.542 555.636 C 122.473 553.496,118.227 552.190,115.538 552.866 M120.637 555.826 C 125.432 558.054,126.694 563.931,123.223 567.873 C 118.523 573.214,109.960 569.983,109.960 562.869 C 109.960 557.298,115.683 553.523,120.637 555.826 M175.898 579.635 C 171.827 581.047,169.070 584.972,169.112 589.297 C 169.216 600.086,183.727 603.282,188.285 593.520 C 191.982 585.601,184.116 576.785,175.898 579.635 M182.105 582.112 C 187.069 584.186,188.371 590.862,184.556 594.678 C 178.242 600.992,167.946 592.860,172.634 585.261 C 174.518 582.206,178.869 580.759,182.105 582.112 M225.234 598.117 C 220.446 601.629,222.878 608.921,228.838 608.923 C 232.599 608.925,234.900 606.617,234.900 602.845 C 234.900 597.790,229.368 595.084,225.234 598.117 M230.767 599.687 C 234.022 601.370,232.747 606.534,229.077 606.534 C 225.317 606.534,223.783 602.430,226.644 600.023 C 227.772 599.075,229.336 598.947,230.767 599.687 " stroke="none" fill="#fbfbfc" fill-rule="evenodd"></path><path id="path2" d="M193.785 48.306 C 181.076 54.508,167.850 60.967,164.394 62.659 L 158.111 65.735 158.586 66.653 L 159.061 67.570 160.885 66.669 C 161.888 66.174,175.080 59.759,190.199 52.414 L 217.689 39.060 217.689 38.016 C 217.689 36.553,219.211 35.898,193.785 48.306 M229.787 37.689 C 229.774 38.325,229.391 39.559,228.706 41.163 C 228.536 41.563,228.735 41.773,229.540 42.040 C 230.555 42.378,230.922 43.069,238.702 59.300 C 247.701 78.073,246.860 76.564,248.041 76.065 L 248.911 75.697 243.473 64.382 C 240.482 58.159,237.062 51.043,235.874 48.569 L 233.713 44.070 237.892 46.062 C 240.191 47.158,247.579 50.722,254.310 53.981 C 269.021 61.105,267.885 60.667,267.144 58.924 L 266.569 57.568 249.539 49.366 L 232.510 41.164 231.394 39.069 C 230.218 36.860,229.810 36.509,229.787 37.689 M102.816 44.171 C 96.695 46.522,91.634 48.499,91.569 48.564 C 91.249 48.884,92.280 50.387,92.730 50.257 C 93.507 50.031,114.164 42.119,114.261 42.010 C 114.647 41.576,114.734 39.845,114.368 39.869 C 114.135 39.884,108.936 41.820,102.816 44.171 M215.317 62.010 C 209.758 81.469,209.801 81.256,211.382 81.270 C 211.759 81.273,212.066 80.807,212.376 79.761 C 215.077 70.636,222.562 43.970,222.452 43.860 C 222.374 43.782,221.938 43.624,221.485 43.510 L 220.661 43.303 215.317 62.010 M131.783 48.776 C 131.212 49.407,131.213 49.442,131.813 50.036 C 140.678 58.806,148.413 65.534,149.079 65.054 C 150.140 64.291,150.276 64.449,141.261 55.990 C 132.213 47.502,132.641 47.827,131.783 48.776 M90.590 56.178 L 89.913 56.899 104.005 73.809 L 118.097 90.720 119.131 90.298 L 120.164 89.877 105.815 72.667 C 97.923 63.202,91.421 55.458,91.366 55.458 C 91.311 55.458,90.962 55.782,90.590 56.178 M66.615 75.112 L 51.533 94.128 52.256 94.713 C 52.654 95.035,53.071 95.293,53.183 95.286 C 53.384 95.273,82.461 58.677,82.977 57.786 C 83.231 57.348,82.444 56.096,81.915 56.096 C 81.795 56.096,74.911 64.653,66.615 75.112 M86.932 57.909 C 86.625 57.989,86.372 58.223,86.368 58.430 C 86.365 58.636,86.081 64.972,85.737 72.510 C 84.937 90.052,84.902 88.206,86.032 88.040 C 87.169 87.873,87.112 88.391,87.807 71.873 C 88.469 56.147,88.553 57.486,86.932 57.909 M275.148 62.797 C 274.446 63.078,274.471 63.173,277.806 72.895 C 279.658 78.293,282.702 87.190,284.571 92.667 C 288.123 103.078,288.222 103.268,289.644 102.365 C 290.088 102.083,276.761 62.753,276.170 62.596 C 275.997 62.550,275.538 62.641,275.148 62.797 M158.274 72.833 C 157.570 73.907,154.628 72.977,180.652 79.907 C 204.950 86.378,203.987 86.192,203.983 84.403 C 203.982 84.077,173.822 75.772,159.494 72.153 C 159.016 72.032,158.673 72.223,158.274 72.833 M137.157 82.015 C 131.342 87.130,126.496 91.404,126.388 91.513 C 126.147 91.755,126.857 93.386,127.203 93.386 C 127.382 93.386,146.555 76.808,148.960 74.574 C 149.212 74.340,148.256 72.672,147.888 72.703 C 147.801 72.710,142.972 76.901,137.157 82.015 M255.158 84.956 C 254.857 85.416,254.658 85.831,254.716 85.877 C 254.773 85.924,261.175 90.723,268.941 96.542 L 283.061 107.122 283.671 106.390 C 284.007 105.987,284.280 105.586,284.279 105.498 C 284.276 105.339,256.378 84.386,255.937 84.211 C 255.810 84.161,255.460 84.496,255.158 84.956 M166.215 90.863 C 138.741 94.199,129.655 95.200,128.956 94.968 C 127.555 94.503,127.490 94.553,127.490 96.093 L 127.490 97.525 128.685 97.491 C 129.582 97.465,204.838 123.348,205.128 123.782 C 205.144 123.806,205.022 125.187,204.857 126.853 L 204.557 129.880 185.067 133.818 C 174.348 135.984,165.538 137.793,165.489 137.838 C 165.187 138.116,166.134 139.599,166.606 139.586 C 166.917 139.577,175.490 137.875,185.657 135.802 C 195.825 133.730,204.181 132.066,204.228 132.104 C 204.275 132.143,203.665 138.471,202.874 146.167 C 201.125 163.173,201.154 162.231,202.390 162.231 C 202.916 162.231,203.344 162.124,203.340 161.992 C 203.309 160.813,206.307 132.317,206.500 131.959 C 206.670 131.643,208.901 131.057,213.258 130.183 L 219.761 128.878 223.474 130.172 L 227.186 131.465 227.831 130.673 L 228.475 129.880 227.784 129.516 C 227.403 129.316,226.482 128.971,225.737 128.749 C 223.735 128.153,223.942 128.045,229.183 126.963 C 233.334 126.105,233.956 126.042,233.782 126.492 C 233.256 127.852,233.230 128.765,233.719 128.765 C 233.989 128.765,234.427 128.848,234.691 128.949 C 235.050 129.087,235.312 128.686,235.730 127.359 C 236.038 126.382,236.515 125.520,236.790 125.441 C 237.066 125.363,239.913 124.778,243.117 124.143 L 248.944 122.987 255.866 129.490 C 259.674 133.067,267.880 140.766,274.104 146.600 C 280.327 152.434,285.393 157.370,285.361 157.568 C 284.556 162.637,278.704 194.658,278.549 194.844 C 278.428 194.988,274.288 191.510,269.349 187.115 C 264.410 182.720,260.311 179.124,260.240 179.124 C 260.169 179.124,259.476 179.552,258.699 180.077 L 257.287 181.030 263.444 195.568 C 266.831 203.565,269.666 210.170,269.744 210.248 C 269.982 210.486,271.554 209.990,271.554 209.677 C 271.554 209.394,260.629 183.373,260.031 182.231 C 259.497 181.213,259.990 181.620,269.069 189.705 C 276.412 196.246,278.071 197.872,277.998 198.460 C 277.948 198.857,277.483 201.507,276.964 204.348 C 275.922 210.052,275.911 209.724,277.147 209.815 L 278.036 209.880 278.937 204.946 C 279.432 202.231,279.884 199.871,279.940 199.701 C 279.997 199.530,280.677 199.981,281.450 200.703 L 282.857 202.015 280.867 206.107 C 278.568 210.834,278.657 210.455,279.680 211.125 L 280.475 211.646 282.463 207.656 C 283.556 205.461,284.525 203.665,284.616 203.666 C 284.707 203.666,294.220 212.056,305.756 222.311 C 317.293 232.566,326.842 240.956,326.977 240.956 C 327.589 240.956,328.098 239.355,327.629 238.910 C 327.377 238.671,317.920 230.272,306.614 220.245 C 295.307 210.219,285.938 201.849,285.794 201.645 C 285.633 201.418,288.244 195.684,292.565 186.773 L 299.597 172.271 298.723 171.903 C 297.550 171.410,298.305 170.103,290.695 185.802 C 286.947 193.534,283.776 199.819,283.649 199.770 C 283.521 199.721,282.735 199.051,281.903 198.280 L 280.390 196.878 283.672 178.678 C 285.477 168.668,287.041 160.150,287.147 159.749 C 287.324 159.083,287.668 159.327,291.152 162.587 L 294.964 166.154 295.225 164.910 C 295.472 163.736,295.418 163.604,294.277 162.574 C 293.612 161.974,291.861 160.335,290.386 158.931 L 287.705 156.380 290.530 140.660 C 292.084 132.014,293.453 125.048,293.573 125.179 C 293.694 125.311,295.959 133.307,298.609 142.948 C 303.256 159.863,303.462 160.509,304.462 161.346 C 306.467 163.026,306.932 165.285,300.445 141.833 L 294.935 121.912 293.523 122.021 C 291.619 122.167,292.019 120.770,288.943 138.008 C 287.426 146.510,286.084 153.718,285.961 154.026 C 285.781 154.477,282.387 151.448,268.640 138.568 C 252.628 123.565,251.597 122.535,252.383 122.318 C 252.845 122.190,259.749 120.774,267.727 119.171 C 284.214 115.858,282.511 116.333,282.245 115.124 L 282.039 114.186 266.518 117.320 C 257.981 119.044,250.704 120.527,250.348 120.615 C 249.761 120.759,241.354 113.461,241.017 112.514 C 240.963 112.361,242.787 106.815,245.071 100.188 C 247.355 93.562,249.117 88.034,248.988 87.904 C 247.636 86.552,247.476 86.864,243.213 99.207 L 239.167 110.924 227.426 99.924 C 214.519 87.832,215.457 88.590,214.897 89.795 C 214.421 90.819,213.468 89.807,225.339 100.885 C 229.809 105.056,234.570 109.531,235.919 110.828 L 238.373 113.186 236.604 118.346 C 235.631 121.184,234.775 123.568,234.702 123.644 C 234.630 123.721,231.303 124.451,227.309 125.267 L 220.048 126.752 213.849 124.610 C 208.711 122.835,207.633 122.357,207.551 121.817 C 207.465 121.247,209.720 98.042,210.213 94.422 L 210.398 93.068 209.336 93.068 L 208.275 93.068 206.884 107.012 C 206.119 114.681,205.379 121.081,205.241 121.234 C 205.026 121.472,135.384 97.446,134.753 96.916 C 134.628 96.811,149.974 94.878,168.856 92.620 C 187.738 90.362,203.271 88.470,203.373 88.415 C 203.710 88.233,203.282 86.374,202.912 86.413 C 202.713 86.434,186.199 88.437,166.215 90.863 M92.430 93.800 L 92.430 94.857 103.347 95.566 C 109.351 95.956,114.498 96.270,114.785 96.265 C 115.349 96.254,115.833 94.343,115.272 94.343 C 114.516 94.343,95.614 93.066,94.104 92.913 L 92.430 92.743 92.430 93.800 M68.547 97.448 C 55.483 100.421,56.635 100.054,56.911 101.158 C 57.183 102.239,56.248 102.371,69.188 99.423 C 81.994 96.505,80.750 96.915,80.417 95.724 L 80.159 94.805 68.547 97.448 M101.506 107.076 C 89.941 113.332,86.828 114.892,86.735 114.477 C 86.596 113.858,87.284 102.249,87.537 100.934 C 87.702 100.078,87.658 100.040,86.644 100.137 L 85.578 100.239 85.187 105.657 C 84.972 108.637,84.685 112.269,84.549 113.726 L 84.303 116.377 76.680 120.493 L 69.057 124.608 61.540 118.306 C 52.555 110.771,53.427 111.346,52.084 112.069 C 50.726 112.800,50.692 112.348,52.699 120.319 L 54.385 127.012 55.320 126.901 C 55.834 126.840,56.297 126.751,56.348 126.702 C 56.399 126.654,55.738 123.817,54.880 120.398 L 53.320 114.181 59.976 119.766 C 63.637 122.837,66.694 125.451,66.770 125.573 C 66.846 125.696,65.623 126.474,64.052 127.302 C 62.481 128.131,61.195 128.880,61.195 128.967 C 61.195 129.125,61.832 130.416,62.017 130.632 C 62.071 130.695,63.618 129.940,65.455 128.955 L 68.796 127.162 75.832 133.076 C 79.702 136.329,82.866 139.163,82.862 139.375 C 82.830 141.237,81.267 162.027,81.150 162.144 C 81.066 162.227,77.008 163.293,72.132 164.510 C 67.256 165.728,62.738 166.864,62.091 167.035 L 60.914 167.345 61.429 168.242 L 61.944 169.140 71.211 166.809 C 76.308 165.528,80.622 164.475,80.797 164.470 C 80.989 164.465,81.072 165.302,81.007 166.576 C 80.803 170.540,82.688 170.505,83.018 166.539 L 83.244 163.834 84.411 163.526 C 85.053 163.357,87.970 162.622,90.894 161.894 L 96.210 160.569 95.849 159.727 C 95.651 159.264,95.464 158.843,95.434 158.792 C 95.403 158.740,92.761 159.356,89.562 160.159 C 86.363 160.963,83.667 161.542,83.572 161.447 C 83.411 161.287,84.243 147.047,84.673 142.589 L 84.861 140.636 90.699 145.537 C 97.068 150.885,96.821 150.736,97.581 149.689 C 98.107 148.964,98.076 148.932,91.620 143.564 C 85.184 138.212,85.131 138.157,85.117 136.892 C 85.089 134.334,86.360 117.816,86.603 117.592 C 86.740 117.465,93.537 113.755,101.707 109.347 C 119.230 99.893,117.863 100.748,116.902 99.844 L 116.160 99.148 101.506 107.076 M113.856 123.769 C 110.653 135.895,108.035 145.973,108.040 146.164 C 108.047 146.475,109.640 147.407,109.782 147.183 C 109.892 147.011,121.703 102.155,121.648 102.119 C 121.618 102.100,121.163 102.002,120.637 101.903 L 119.681 101.722 113.856 123.769 M284.058 112.191 C 284.058 112.805,284.124 113.056,284.204 112.749 C 284.284 112.442,284.284 111.940,284.204 111.633 C 284.124 111.327,284.058 111.578,284.058 112.191 M245.190 119.520 L 247.033 121.275 242.162 122.257 C 239.483 122.797,237.254 123.215,237.209 123.185 C 237.164 123.155,237.796 121.234,238.614 118.917 L 240.100 114.705 241.724 116.235 C 242.616 117.077,244.176 118.555,245.190 119.520 M83.681 127.555 C 83.385 132.165,83.116 136.029,83.085 136.141 C 83.054 136.254,80.270 134.032,76.900 131.204 L 70.772 126.062 71.801 125.526 C 72.366 125.232,75.336 123.627,78.401 121.959 C 81.466 120.292,84.030 118.983,84.097 119.051 C 84.165 119.119,83.978 122.946,83.681 127.555 M211.729 126.054 C 216.284 127.610,216.285 127.513,211.713 128.424 C 209.653 128.834,207.657 129.237,207.277 129.318 C 206.635 129.456,206.596 129.369,206.736 128.080 C 207.042 125.239,207.210 124.582,207.604 124.681 C 207.821 124.736,209.678 125.354,211.729 126.054 M53.536 139.022 C 53.530 139.429,52.897 146.287,52.128 154.263 C 51.360 162.239,50.756 168.790,50.787 168.821 C 50.818 168.852,51.331 168.296,51.927 167.586 L 53.011 166.295 54.292 152.782 C 55.076 144.509,55.457 139.162,55.276 138.993 C 54.487 138.257,53.546 138.273,53.536 139.022 M217.052 151.094 C 211.530 158.097,207.012 163.933,207.012 164.064 C 207.012 164.195,207.258 164.651,207.559 165.076 L 208.107 165.849 208.721 165.076 C 228.809 139.778,228.788 139.807,228.245 139.058 C 227.420 137.921,227.554 137.777,217.052 151.094 M148.418 152.112 C 147.842 153.382,145.540 158.526,143.304 163.541 L 139.238 172.659 132.328 172.860 C 128.528 172.970,117.530 173.139,107.888 173.234 C 86.748 173.444,87.012 173.425,87.012 174.688 L 87.012 175.625 97.450 175.429 C 107.066 175.249,138.101 174.775,138.218 174.807 C 138.289 174.826,132.352 188.075,132.220 188.192 C 132.160 188.245,119.633 191.655,104.382 195.771 L 76.653 203.253 76.554 204.256 C 76.421 205.592,73.884 206.169,104.143 197.975 C 118.912 193.976,130.997 190.788,130.998 190.890 C 130.999 190.992,128.541 196.582,125.536 203.312 L 120.072 215.549 120.824 216.116 C 121.856 216.895,121.330 217.857,127.823 203.324 C 131.988 194.001,133.873 190.118,134.333 189.912 C 134.870 189.672,162.853 182.036,162.876 182.123 C 174.892 228.277,183.231 258.973,183.774 259.046 C 185.415 259.265,185.590 260.051,175.152 220.505 C 169.623 199.558,165.100 182.209,165.100 181.953 C 165.100 181.609,168.413 180.591,177.745 178.071 C 184.700 176.193,190.417 174.621,190.449 174.579 C 190.481 174.537,190.438 173.944,190.353 173.263 L 190.199 172.023 176.308 172.147 L 162.418 172.271 159.787 162.270 C 156.827 151.019,157.181 151.954,155.934 152.089 L 154.993 152.191 157.640 162.221 C 159.095 167.737,160.254 172.283,160.214 172.322 C 159.972 172.564,141.441 172.801,141.572 172.560 C 144.436 167.298,151.090 150.982,150.594 150.434 C 149.727 149.476,149.552 149.611,148.418 152.112 M62.470 172.007 C 62.470 172.590,62.578 173.067,62.709 173.066 C 62.841 173.065,65.582 173.442,68.801 173.904 C 73.708 174.608,74.698 174.672,74.931 174.304 C 75.274 173.763,75.305 172.752,74.980 172.740 C 74.849 172.734,71.980 172.329,68.606 171.838 L 62.470 170.946 62.470 172.007 M210.359 172.082 C 210.359 173.206,208.260 172.899,230.120 174.973 C 239.323 175.845,247.390 176.636,248.048 176.730 C 249.234 176.899,249.243 176.892,249.243 175.781 C 249.243 174.833,249.133 174.661,248.526 174.660 C 248.131 174.659,239.705 173.871,229.801 172.908 C 208.392 170.828,210.359 170.911,210.359 172.082 M303.426 171.897 C 302.988 172.084,302.582 172.268,302.524 172.307 C 302.465 172.345,308.445 186.337,315.811 203.399 C 323.177 220.462,329.496 235.109,329.854 235.948 L 330.505 237.473 331.478 236.970 C 332.013 236.693,332.388 236.365,332.312 236.241 C 332.235 236.117,325.981 221.679,318.415 204.155 C 302.530 167.369,304.435 171.468,303.426 171.897 M184.064 174.200 C 183.486 174.428,164.829 179.442,164.559 179.442 C 164.414 179.442,164.000 178.297,163.641 176.898 L 162.987 174.353 171.454 174.263 C 176.110 174.213,180.924 174.150,182.151 174.123 C 183.378 174.096,184.239 174.131,184.064 174.200 M161.570 177.100 C 161.950 178.617,162.147 179.958,162.007 180.079 C 161.641 180.397,135.366 187.424,135.192 187.251 C 135.112 187.171,136.307 184.308,137.847 180.888 L 140.648 174.671 149.607 174.581 C 154.534 174.532,159.086 174.458,159.722 174.417 L 160.878 174.343 161.570 177.100 M78.423 181.485 C 78.287 181.852,76.794 185.846,75.104 190.362 C 73.414 194.877,72.032 198.691,72.032 198.836 C 72.032 199.096,73.635 199.953,73.783 199.773 C 73.938 199.584,80.637 181.573,80.637 181.346 C 80.637 180.710,78.665 180.834,78.423 181.485 M203.108 181.580 C 202.133 181.767,201.490 178.735,210.527 216.566 C 215.002 235.299,218.552 250.739,218.414 250.877 C 218.277 251.014,213.002 254.017,206.692 257.551 C 193.252 265.078,194.952 263.958,195.418 264.979 C 195.932 266.107,194.916 266.568,207.650 259.429 C 213.916 255.915,219.098 253.096,219.165 253.163 C 219.232 253.230,220.860 259.869,222.783 267.917 C 224.705 275.965,226.360 282.886,226.460 283.298 C 226.625 283.978,227.877 284.101,228.481 283.497 C 228.545 283.433,226.916 276.333,224.861 267.718 C 222.806 259.103,221.248 251.941,221.399 251.802 C 221.550 251.663,231.749 245.913,244.064 239.024 C 256.378 232.135,266.450 226.345,266.444 226.158 C 266.382 224.082,266.967 223.806,243.182 237.123 C 230.894 244.003,220.753 249.544,220.646 249.437 C 220.539 249.331,217.394 236.442,213.657 220.797 C 209.920 205.151,206.271 189.876,205.549 186.853 C 204.826 183.829,204.142 181.374,204.030 181.398 C 203.917 181.422,203.502 181.504,203.108 181.580 M193.680 220.159 C 190.917 241.151,188.663 258.483,188.671 258.674 C 188.684 258.994,190.260 259.901,190.441 259.693 C 190.485 259.643,192.765 242.534,195.508 221.673 C 198.250 200.813,200.574 183.351,200.671 182.869 C 200.836 182.051,200.775 181.992,199.775 181.992 L 198.703 181.992 193.680 220.159 M76.167 207.033 C 75.996 207.482,75.857 207.895,75.857 207.949 C 75.857 208.004,82.619 211.172,90.885 214.989 C 106.818 222.348,106.773 222.332,106.773 220.386 C 106.773 220.085,77.308 206.215,76.669 206.215 C 76.564 206.215,76.338 206.583,76.167 207.033 M70.535 212.168 C 70.638 212.838,71.182 217.402,71.745 222.311 C 72.929 232.637,72.657 231.505,73.827 231.001 L 74.763 230.598 73.631 220.876 L 72.499 211.155 71.424 211.052 L 70.349 210.949 70.535 212.168 M92.430 229.046 C 78.077 232.267,79.363 231.859,80.375 232.871 L 81.188 233.684 93.572 230.929 C 107.403 227.853,106.282 228.197,106.008 227.106 C 105.736 226.020,106.237 225.948,92.430 229.046 M277.664 228.965 L 276.604 229.343 289.718 244.435 C 296.930 252.736,302.714 259.628,302.571 259.752 C 302.428 259.876,288.004 266.197,270.518 273.798 C 253.032 281.400,238.725 287.778,238.725 287.972 C 238.725 289.989,237.300 290.527,272.015 275.409 C 289.842 267.646,304.463 261.343,304.506 261.404 C 304.549 261.464,307.405 264.764,310.853 268.736 L 317.122 275.958 307.051 293.597 C 301.513 303.298,296.706 311.689,296.370 312.243 C 295.760 313.250,295.760 313.251,296.501 314.113 L 297.242 314.974 307.406 297.168 C 312.997 287.375,317.800 278.980,318.080 278.513 L 318.590 277.664 332.442 293.611 L 346.295 309.557 348.091 318.683 C 349.079 323.702,349.842 327.859,349.786 327.920 C 349.731 327.981,338.275 326.081,324.329 323.697 C 295.054 318.693,298.327 319.119,298.327 320.313 C 298.327 321.482,295.034 320.791,324.143 325.731 C 337.554 328.006,348.949 329.982,349.465 330.121 L 350.404 330.373 355.059 353.951 L 359.714 377.530 360.488 377.441 C 360.913 377.392,361.358 377.249,361.476 377.122 C 361.594 376.996,359.632 366.499,357.115 353.796 C 354.599 341.094,352.569 330.671,352.605 330.635 C 352.641 330.599,354.176 330.842,356.017 331.176 C 360.258 331.945,360.063 331.960,360.224 330.857 C 360.383 329.778,360.642 329.881,355.697 329.055 C 353.857 328.748,352.295 328.453,352.227 328.401 C 352.058 328.271,349.037 313.172,349.156 313.051 C 349.208 312.997,351.990 316.107,355.338 319.961 C 362.165 327.821,361.908 327.578,362.671 326.887 C 362.978 326.609,363.743 326.201,364.371 325.980 L 365.513 325.578 351.908 290.837 L 338.303 256.096 337.256 256.145 C 336.680 256.172,336.125 256.278,336.023 256.381 C 335.921 256.483,337.995 267.505,340.632 280.873 C 343.270 294.242,345.408 305.196,345.383 305.216 C 345.359 305.236,339.565 298.601,332.509 290.470 L 319.680 275.688 325.418 265.659 C 328.573 260.143,331.155 255.508,331.155 255.359 C 331.155 255.054,329.623 254.162,329.454 254.369 C 329.394 254.442,326.844 258.894,323.787 264.262 L 318.229 274.023 312.412 267.316 C 309.212 263.627,306.706 260.501,306.843 260.369 C 306.980 260.237,311.466 258.232,316.813 255.913 C 328.171 250.987,327.613 251.359,326.218 249.634 C 326.179 249.586,321.430 251.610,315.663 254.131 C 309.897 256.652,305.075 258.657,304.948 258.587 C 304.821 258.516,299.084 251.979,292.199 244.059 C 285.314 236.140,279.466 229.419,279.203 229.124 C 278.796 228.666,278.568 228.643,277.664 228.965 M100.819 241.224 L 93.546 251.054 91.633 249.302 C 90.582 248.339,87.808 245.750,85.470 243.550 L 81.218 239.549 80.617 240.332 C 79.841 241.342,79.308 240.686,86.056 247.029 C 89.299 250.078,91.937 252.729,91.918 252.920 C 91.899 253.112,89.863 255.994,87.393 259.325 L 82.902 265.383 83.284 266.662 L 83.665 267.941 88.446 261.443 C 91.076 257.869,93.378 254.815,93.564 254.656 C 93.782 254.468,99.712 259.817,110.544 269.974 L 127.189 285.581 127.977 285.065 C 128.410 284.781,128.765 284.455,128.765 284.340 C 128.765 284.159,98.412 255.528,95.947 253.382 L 95.026 252.582 102.328 242.720 L 109.631 232.858 108.943 232.126 C 108.565 231.724,108.219 231.394,108.174 231.394 C 108.129 231.394,104.819 235.818,100.819 241.224 M115.139 232.570 C 115.446 232.650,115.948 232.650,116.255 232.570 C 116.562 232.490,116.311 232.425,115.697 232.425 C 115.084 232.425,114.833 232.490,115.139 232.570 M118.486 234.483 C 117.781 234.667,117.041 231.354,124.024 259.284 C 130.372 284.676,130.235 284.239,131.601 283.373 C 131.978 283.135,124.682 252.652,120.132 235.458 C 119.824 234.293,119.637 234.182,118.486 234.483 M76.096 242.810 L 75.219 242.911 75.219 252.805 L 75.219 262.699 76.095 262.479 C 76.577 262.358,77.009 262.221,77.056 262.174 C 77.103 262.127,77.103 257.728,77.056 252.399 L 76.972 242.709 76.096 242.810 M185.578 261.256 C 185.884 261.336,186.386 261.336,186.693 261.256 C 187.000 261.175,186.749 261.110,186.135 261.110 C 185.522 261.110,185.271 261.175,185.578 261.256 M351.189 294.718 C 357.144 309.938,362.326 323.179,362.704 324.143 C 363.083 325.108,363.246 325.753,363.068 325.578 C 362.889 325.402,359.464 321.480,355.456 316.862 L 348.168 308.464 344.070 287.698 C 339.210 263.076,339.662 265.475,340.052 266.351 C 340.222 266.733,345.233 279.498,351.189 294.718 M81.628 272.847 C 80.684 273.634,79.674 272.919,89.699 278.566 L 98.283 283.401 98.856 282.657 C 99.170 282.247,99.431 281.841,99.434 281.753 C 99.439 281.592,82.786 272.182,82.529 272.202 C 82.453 272.208,82.047 272.498,81.628 272.847 M68.192 278.587 L 63.642 284.663 64.417 285.439 L 65.193 286.214 69.648 280.271 C 74.785 273.419,74.491 273.928,73.768 273.129 C 72.932 272.205,73.074 272.066,68.192 278.587 M171.118 282.586 L 163.910 289.793 151.358 289.115 C 144.454 288.742,138.625 288.439,138.406 288.442 C 138.180 288.444,138.008 288.847,138.008 289.375 C 138.008 290.298,138.022 290.305,140.319 290.495 C 142.698 290.692,160.102 291.633,161.361 291.633 C 161.897 291.633,160.323 293.378,154.794 298.911 L 147.521 306.189 148.384 306.755 L 149.248 307.321 156.994 299.580 L 164.739 291.839 190.178 293.182 C 204.170 293.921,216.657 294.612,217.928 294.717 L 220.239 294.909 220.239 293.923 C 220.239 293.056,220.114 292.918,219.203 292.779 C 218.190 292.625,168.901 290.013,167.334 290.031 C 166.679 290.038,167.709 288.869,173.213 283.361 C 179.816 276.752,179.880 276.675,179.296 276.030 C 178.472 275.120,179.037 274.667,171.118 282.586 M110.017 286.251 L 110.120 287.323 117.998 288.299 C 126.330 289.332,126.215 289.338,126.215 287.838 C 126.215 287.352,125.325 287.173,119.124 286.415 C 115.223 285.938,111.555 285.465,110.973 285.363 C 109.933 285.183,109.916 285.198,110.017 286.251 M91.752 300.634 C 87.515 306.289,84.005 310.970,83.951 311.035 C 83.870 311.133,70.570 298.996,66.085 294.731 L 64.761 293.471 63.945 294.066 C 62.889 294.836,62.047 293.897,72.032 303.087 C 76.853 307.525,81.195 311.538,81.682 312.006 L 82.566 312.858 78.397 318.421 C 76.104 321.481,74.120 324.093,73.988 324.225 C 73.856 324.358,68.892 323.318,62.957 321.914 C 57.021 320.511,52.128 319.399,52.083 319.444 C 52.038 319.490,51.954 319.944,51.897 320.454 L 51.793 321.381 61.992 323.768 C 67.602 325.081,72.247 326.201,72.315 326.256 C 72.478 326.388,60.142 342.918,59.866 342.935 C 59.749 342.942,56.809 339.012,53.333 334.200 L 47.012 325.452 45.521 325.435 L 44.029 325.418 43.690 327.092 C 42.891 331.030,35.378 370.982,35.378 371.292 C 35.378 371.888,37.231 371.691,37.412 371.076 C 37.502 370.769,39.382 360.908,41.590 349.163 C 43.798 337.418,45.634 327.711,45.671 327.592 C 45.740 327.365,57.646 343.585,58.119 344.550 C 58.332 344.983,56.210 348.008,48.294 358.556 C 42.741 365.956,38.245 372.049,38.302 372.097 C 38.529 372.288,39.809 372.908,39.976 372.908 C 40.073 372.908,44.476 367.135,49.760 360.080 C 55.044 353.024,59.469 347.138,59.593 346.999 C 59.717 346.860,64.087 352.618,69.304 359.794 L 78.790 372.842 79.689 372.326 C 80.183 372.042,80.499 371.668,80.392 371.494 C 80.284 371.320,76.021 365.436,70.917 358.418 C 65.814 351.399,61.533 345.483,61.405 345.271 C 61.262 345.033,63.782 341.406,67.961 335.837 L 74.750 326.790 86.698 329.606 C 100.283 332.807,99.622 332.708,99.901 331.596 C 100.168 330.532,101.611 330.993,88.139 327.833 C 81.659 326.312,76.317 325.028,76.267 324.979 C 76.097 324.809,83.898 314.582,84.197 314.582 C 84.362 314.582,88.134 317.952,92.580 322.072 C 101.250 330.107,100.958 329.892,101.863 328.889 C 102.465 328.222,102.461 328.209,101.325 327.216 C 100.694 326.665,96.857 323.146,92.797 319.395 L 85.415 312.575 86.160 311.586 C 93.032 302.473,101.036 291.699,101.036 291.563 C 101.036 291.467,100.680 291.155,100.245 290.870 L 99.455 290.352 91.752 300.634 M52.779 304.457 L 48.401 313.774 49.096 314.337 C 49.479 314.647,49.883 314.899,49.995 314.897 C 50.234 314.894,58.964 296.373,58.964 295.871 C 58.964 295.587,58.011 295.159,57.344 295.144 C 57.241 295.141,55.187 299.332,52.779 304.457 M236.548 301.297 C 236.019 301.860,235.935 302.113,236.238 302.228 C 247.555 306.537,278.313 317.810,278.430 317.692 C 278.520 317.602,278.624 317.143,278.660 316.672 C 278.725 315.823,278.573 315.760,258.645 308.338 C 235.146 299.585,237.463 300.323,236.548 301.297 M196.095 327.730 C 181.326 342.499,169.243 354.740,169.243 354.931 C 169.243 355.123,169.537 355.546,169.896 355.871 C 170.928 356.804,225.171 302.561,224.237 301.530 C 223.912 301.170,223.489 300.876,223.297 300.876 C 223.104 300.876,210.863 312.960,196.095 327.730 M230.334 303.665 C 230.256 303.797,226.566 317.673,222.136 334.502 C 217.705 351.331,214.038 365.152,213.988 365.216 C 213.938 365.280,204.674 364.022,193.403 362.419 C 182.131 360.816,172.622 359.473,172.271 359.434 C 171.773 359.378,171.612 359.577,171.538 360.341 L 171.442 361.320 192.453 364.325 L 213.465 367.331 206.468 393.843 L 199.472 420.356 200.208 421.353 C 200.861 422.235,200.972 422.284,201.181 421.772 C 201.402 421.233,215.458 368.033,215.458 367.738 C 215.458 367.598,266.217 374.796,266.380 374.959 C 266.430 375.009,263.019 386.131,258.799 399.675 C 254.578 413.219,251.187 424.361,251.261 424.435 C 251.336 424.510,251.793 424.600,252.278 424.636 L 253.159 424.701 260.867 400.000 C 267.664 378.217,268.647 375.305,269.188 375.348 C 270.071 375.418,289.227 378.101,289.325 378.168 C 289.554 378.326,290.309 385.798,290.126 386.095 C 290.008 386.286,281.980 395.300,272.286 406.128 C 262.593 416.955,254.661 425.954,254.661 426.126 C 254.661 426.298,254.948 426.908,255.298 427.482 C 255.648 428.056,255.934 429.059,255.935 429.710 C 255.937 431.241,254.382 430.669,273.996 436.359 C 283.315 439.063,290.897 441.319,290.844 441.372 C 290.775 441.443,223.121 449.397,222.550 449.402 C 222.231 449.404,222.563 451.052,222.909 451.184 C 223.274 451.324,287.483 444.036,290.546 443.507 C 291.415 443.357,291.535 443.206,291.572 442.223 C 291.595 441.611,291.774 440.812,291.968 440.448 C 292.466 439.518,293.495 439.884,276.268 434.861 C 267.628 432.342,259.556 429.979,258.331 429.610 L 256.104 428.940 274.835 421.917 C 285.137 418.054,293.616 414.949,293.677 415.017 C 293.739 415.084,294.347 419.944,295.029 425.817 L 296.270 436.494 297.343 436.597 L 298.416 436.700 298.231 435.482 C 297.655 431.669,295.738 414.276,295.879 414.135 C 296.010 414.004,313.148 407.521,328.016 401.979 L 329.816 401.308 331.793 405.896 C 332.880 408.420,333.719 410.621,333.658 410.788 C 333.596 410.954,326.733 416.787,318.406 423.750 C 310.080 430.713,302.868 436.795,302.381 437.264 L 301.495 438.118 302.226 438.805 L 302.956 439.491 318.725 426.279 C 327.397 419.013,334.578 413.068,334.683 413.068 C 334.787 413.068,336.131 416.008,337.670 419.602 C 340.622 426.495,340.592 426.450,341.627 425.578 L 342.289 425.020 339.407 418.327 C 337.643 414.231,336.627 411.487,336.788 411.256 C 336.933 411.048,341.462 407.195,346.853 402.694 C 356.843 394.352,357.079 394.110,356.081 393.206 C 355.542 392.718,354.926 393.176,345.642 400.961 C 340.216 405.511,335.705 409.234,335.618 409.234 C 335.324 409.234,331.866 400.800,332.070 400.582 C 332.180 400.463,337.363 398.467,343.586 396.146 C 356.830 391.204,355.168 391.980,354.702 390.958 C 354.174 389.798,355.794 389.281,333.046 397.863 L 330.953 398.653 327.686 391.008 C 325.890 386.803,324.465 383.322,324.521 383.273 C 324.576 383.225,330.932 384.095,338.645 385.207 C 355.248 387.602,353.785 387.494,353.785 386.320 C 353.785 385.179,355.355 385.505,338.327 383.111 C 330.789 382.051,324.334 381.121,323.984 381.044 C 323.491 380.936,322.593 379.140,320.043 373.161 C 316.172 364.084,316.812 365.181,315.628 365.594 L 314.658 365.932 317.767 373.165 C 319.554 377.325,320.723 380.430,320.517 380.472 C 319.973 380.583,301.230 377.830,301.005 377.605 C 300.897 377.498,303.147 374.805,306.004 371.621 L 311.200 365.833 310.421 365.235 C 309.412 364.460,310.050 363.914,303.796 370.901 C 300.782 374.266,298.201 377.092,298.058 377.180 C 297.783 377.350,291.606 376.493,291.364 376.251 C 291.285 376.172,289.993 365.655,288.492 352.880 L 285.763 329.651 284.815 329.293 C 284.293 329.096,283.818 328.984,283.759 329.043 C 283.700 329.102,284.888 339.651,286.400 352.485 C 287.911 365.319,289.095 375.872,289.030 375.937 C 288.878 376.089,269.640 373.331,269.437 373.129 C 269.353 373.045,272.393 362.994,276.193 350.792 L 283.101 328.608 282.347 327.992 C 281.295 327.132,281.855 325.602,274.245 350.120 C 270.436 362.390,267.225 372.537,267.111 372.668 C 266.907 372.901,216.572 365.841,216.268 365.537 C 216.183 365.452,219.765 351.550,224.228 334.644 C 233.518 299.456,232.604 303.426,231.413 303.426 C 230.898 303.426,230.412 303.534,230.334 303.665 M280.552 320.000 C 280.552 320.614,280.618 320.865,280.698 320.558 C 280.778 320.251,280.778 319.749,280.698 319.442 C 280.618 319.135,280.552 319.386,280.552 320.000 M128.106 322.023 C 125.377 323.277,120.325 325.572,116.880 327.124 L 110.615 329.945 111.086 330.857 L 111.558 331.769 112.910 331.184 C 116.095 329.808,134.334 321.549,134.455 321.428 C 134.641 321.243,133.584 319.674,133.299 319.712 C 133.172 319.729,130.835 320.769,128.106 322.023 M145.251 324.247 L 144.366 324.622 153.115 339.602 C 162.260 355.259,162.351 355.386,163.604 354.133 C 163.841 353.896,147.424 325.223,146.493 324.247 C 146.219 323.960,145.928 323.960,145.251 324.247 M293.898 328.258 C 293.395 328.640,293.221 328.987,293.388 329.279 C 293.527 329.522,297.229 335.386,301.616 342.311 C 306.003 349.235,309.614 354.935,309.640 354.977 C 309.755 355.161,311.390 354.235,311.392 353.985 C 311.395 353.694,295.619 328.730,295.011 328.063 C 294.741 327.767,294.487 327.812,293.898 328.258 M365.259 338.482 C 365.259 338.830,364.760 346.898,364.150 356.410 C 363.540 365.922,363.002 374.422,362.955 375.299 C 362.833 377.543,364.706 377.853,364.880 375.618 C 364.934 374.916,365.511 366.131,366.161 356.096 L 367.344 337.849 366.301 337.849 C 365.474 337.849,365.259 337.979,365.259 338.482 M93.457 355.159 L 84.809 371.790 85.599 372.204 C 86.034 372.432,86.516 372.540,86.670 372.445 C 86.878 372.316,103.254 341.109,103.845 339.715 C 103.900 339.586,103.531 339.265,103.025 339.004 L 102.104 338.528 93.457 355.159 M318.882 362.396 L 318.405 363.318 320.557 364.567 C 329.653 369.847,354.185 383.767,354.252 383.686 C 355.681 381.973,357.477 383.236,336.970 371.529 L 319.358 361.474 318.882 362.396 M169.879 364.145 L 169.132 364.940 180.863 392.319 L 192.594 419.699 193.535 419.371 C 194.728 418.955,196.019 422.299,182.488 390.764 C 168.999 359.330,170.811 363.153,169.879 364.145 M124.303 370.380 C 104.757 373.513,88.754 376.080,88.740 376.086 C 88.582 376.151,89.061 378.008,89.236 378.008 C 89.367 378.008,106.093 375.364,126.405 372.132 C 146.716 368.900,163.357 366.283,163.385 366.315 C 163.413 366.348,157.843 373.734,151.008 382.728 C 138.959 398.584,138.598 399.100,139.140 399.700 C 140.071 400.729,139.984 400.830,153.123 383.488 C 167.359 364.697,166.557 365.897,164.887 365.895 C 164.215 365.895,163.196 365.608,162.622 365.258 C 161.205 364.394,163.946 364.028,124.303 370.380 M296.048 379.134 C 296.110 379.193,295.961 379.526,295.718 379.874 C 295.088 380.774,292.224 383.807,292.118 383.686 C 292.069 383.631,291.927 382.456,291.801 381.075 L 291.571 378.565 293.754 378.796 C 294.954 378.923,295.987 379.075,296.048 379.134 M310.596 381.195 C 316.703 382.071,321.773 382.862,321.863 382.952 C 322.335 383.424,328.884 399.208,328.683 399.390 C 328.239 399.793,295.731 411.853,295.558 411.680 C 295.463 411.585,294.731 405.929,293.931 399.112 L 292.477 386.717 295.641 383.170 C 297.381 381.219,298.960 379.618,299.149 379.612 C 299.338 379.606,304.489 380.319,310.596 381.195 M77.254 386.450 C 76.222 388.464,75.227 390.114,75.042 390.116 C 74.857 390.118,67.996 388.829,59.796 387.251 C 42.378 383.900,44.526 384.161,44.082 385.339 C 43.883 385.865,43.788 386.295,43.871 386.295 C 44.242 386.295,74.115 392.099,74.206 392.189 C 74.263 392.245,72.602 395.603,70.514 399.652 L 66.720 407.014 54.356 397.738 L 41.991 388.461 41.237 389.216 L 40.483 389.970 53.057 399.367 C 59.973 404.536,65.637 408.851,65.644 408.957 C 65.651 409.063,61.283 417.694,55.936 428.137 C 50.590 438.580,46.216 447.243,46.218 447.387 C 46.220 447.628,47.855 448.537,47.975 448.363 C 48.004 448.321,52.375 439.753,57.689 429.323 C 63.003 418.892,67.377 410.322,67.408 410.278 C 67.440 410.234,70.140 412.206,73.409 414.660 C 76.677 417.115,79.475 419.124,79.626 419.124 C 80.135 419.124,81.079 417.843,80.773 417.567 C 80.611 417.420,77.825 415.322,74.582 412.904 C 71.339 410.486,68.637 408.469,68.577 408.422 C 68.370 408.258,76.279 392.928,76.642 392.789 C 76.843 392.712,87.886 394.744,101.182 397.304 L 125.357 401.960 126.079 401.060 C 126.525 400.505,126.659 400.128,126.429 400.078 C 124.879 399.740,77.938 390.757,77.722 390.757 C 77.570 390.757,78.250 389.152,79.233 387.191 C 80.909 383.850,80.986 383.599,80.450 383.207 C 79.429 382.460,79.156 382.737,77.254 386.450 M356.090 386.932 C 356.090 387.546,356.155 387.797,356.236 387.490 C 356.316 387.183,356.316 386.681,356.236 386.375 C 356.155 386.068,356.090 386.319,356.090 386.932 M292.091 400.834 C 292.856 407.300,293.450 412.624,293.411 412.666 C 293.207 412.885,257.698 426.091,257.594 425.987 C 257.457 425.851,290.465 388.872,290.609 388.999 C 290.659 389.043,291.326 394.369,292.091 400.834 M36.653 391.362 C 36.046 391.532,35.876 391.771,35.937 392.366 C 35.981 392.796,37.522 405.225,39.363 419.987 C 41.203 434.749,42.709 446.904,42.709 446.999 C 42.709 447.374,44.622 447.149,44.636 446.773 C 44.668 445.837,37.760 391.079,37.613 391.107 C 37.523 391.125,37.092 391.240,36.653 391.362 M357.291 394.759 C 357.291 394.931,350.892 422.781,350.422 424.651 C 350.248 425.344,351.650 426.464,352.113 426.002 C 352.200 425.915,353.753 419.419,355.564 411.567 C 357.376 403.715,358.932 396.993,359.023 396.628 C 359.142 396.151,358.923 395.769,358.239 395.264 C 357.718 394.878,357.291 394.651,357.291 394.759 M125.652 407.968 C 125.652 408.582,125.717 408.833,125.797 408.526 C 125.878 408.219,125.878 407.717,125.797 407.410 C 125.717 407.104,125.652 407.355,125.652 407.968 M140.950 407.968 C 140.950 408.582,141.016 408.833,141.096 408.526 C 141.176 408.219,141.176 407.717,141.096 407.410 C 141.016 407.104,140.950 407.355,140.950 407.968 M143.235 409.736 C 143.123 410.182,143.111 410.627,143.208 410.725 C 143.415 410.932,188.889 422.629,189.486 422.629 C 190.106 422.629,191.043 421.061,190.529 420.883 C 189.804 420.632,143.946 408.924,143.687 408.924 C 143.551 408.924,143.347 409.290,143.235 409.736 M141.684 413.573 C 141.011 414.602,136.983 412.331,169.851 429.452 C 185.524 437.617,198.383 444.334,198.427 444.379 C 198.471 444.425,199.277 448.622,200.217 453.705 L 201.927 462.948 202.955 463.048 C 203.521 463.103,203.984 463.059,203.984 462.950 C 203.984 462.734,201.237 447.890,200.925 446.424 C 200.734 445.524,200.768 445.536,205.517 448.017 C 208.148 449.393,210.373 450.446,210.463 450.358 C 211.731 449.110,211.208 448.605,205.659 445.723 L 200.272 442.926 199.210 437.001 C 198.627 433.742,198.096 430.977,198.032 430.856 C 197.778 430.380,195.994 431.300,196.146 431.828 C 196.421 432.778,197.958 441.512,197.862 441.583 C 197.811 441.621,185.294 435.150,170.047 427.201 C 154.800 419.252,142.302 412.749,142.275 412.749 C 142.247 412.749,141.982 413.120,141.684 413.573 M137.147 417.215 L 136.445 417.498 137.064 419.347 C 140.482 429.564,156.734 481.473,156.562 481.620 C 156.437 481.726,149.594 483.280,141.355 485.072 C 123.200 489.022,125.157 488.477,125.417 489.511 C 125.534 489.977,125.681 490.409,125.744 490.472 C 125.807 490.535,132.828 489.052,141.345 487.175 C 149.862 485.299,157.012 483.833,157.233 483.918 C 157.581 484.051,160.767 493.364,160.542 493.588 C 160.496 493.634,146.479 501.089,129.393 510.156 C 112.306 519.223,98.285 526.670,98.235 526.706 C 98.039 526.844,98.923 528.446,99.195 528.446 C 99.354 528.446,113.263 521.125,130.105 512.176 C 146.947 503.228,160.859 495.877,161.021 495.842 C 161.277 495.785,163.301 501.716,165.903 510.144 C 166.688 512.684,166.710 512.716,167.652 512.578 C 168.890 512.396,169.001 512.985,165.903 503.271 C 164.423 498.628,163.331 494.709,163.477 494.562 C 163.624 494.416,170.682 490.609,179.163 486.103 C 195.381 477.484,195.477 477.421,194.173 476.117 C 194.045 475.989,186.925 479.612,178.350 484.167 C 169.775 488.722,162.653 492.337,162.523 492.200 C 162.128 491.785,159.609 483.472,159.816 483.265 C 159.922 483.159,167.610 481.400,176.900 479.355 C 195.754 475.206,194.105 475.677,193.879 474.502 C 193.670 473.414,196.080 473.018,176.096 477.425 C 166.629 479.513,158.873 481.197,158.859 481.168 C 158.846 481.139,154.256 466.666,148.660 449.005 C 143.064 431.344,138.343 416.902,138.167 416.913 C 137.992 416.924,137.533 417.060,137.147 417.215 M63.506 439.393 C 55.398 444.581,48.770 448.991,48.775 449.194 C 48.833 451.297,48.851 451.288,64.286 441.428 C 81.183 430.634,79.593 431.783,79.047 430.763 C 78.472 429.689,79.983 428.851,63.506 439.393 M232.849 439.807 C 220.622 447.540,220.930 447.304,221.761 448.327 C 222.309 449.004,222.338 448.988,233.695 441.794 C 239.956 437.827,245.069 434.438,245.058 434.263 C 244.918 432.153,245.039 432.098,232.849 439.807 M91.575 434.744 C 90.893 435.018,91.058 435.563,99.381 460.535 L 107.883 486.047 108.680 485.250 L 109.476 484.454 101.173 459.538 C 96.607 445.834,92.735 434.587,92.571 434.544 C 92.406 434.500,91.958 434.591,91.575 434.744 M84.480 435.771 C 84.489 436.169,85.543 448.255,86.820 462.629 C 88.098 477.004,89.105 488.814,89.059 488.873 C 88.969 488.987,66.820 487.784,62.869 487.451 L 60.558 487.256 60.558 488.243 C 60.558 489.527,59.574 489.396,75.595 490.247 L 89.197 490.970 89.361 491.939 C 89.452 492.472,90.139 500.044,90.889 508.765 L 92.252 524.622 93.308 524.622 L 94.365 524.622 94.182 523.108 C 93.911 520.855,91.475 492.713,91.474 491.829 C 91.474 491.072,91.489 491.069,94.104 491.267 C 95.550 491.377,98.758 491.560,101.232 491.675 L 105.731 491.884 105.872 490.926 L 106.012 489.968 102.966 489.773 C 101.291 489.665,97.948 489.480,95.538 489.362 C 91.835 489.180,91.153 489.067,91.140 488.637 C 91.086 486.866,86.472 435.691,86.357 435.592 C 85.666 434.990,84.464 435.105,84.480 435.771 M320.478 438.094 C 312.590 439.204,305.526 440.203,304.781 440.315 C 303.608 440.490,303.426 440.622,303.426 441.304 C 303.426 442.542,303.469 442.540,319.559 440.327 C 338.826 437.678,336.871 438.057,336.597 437.023 C 336.284 435.844,336.646 435.820,320.478 438.094 M214.950 458.852 C 215.059 459.702,216.221 471.801,217.531 485.737 C 218.842 499.673,219.988 511.721,220.078 512.510 C 220.168 513.299,217.756 506.773,214.718 498.008 C 209.145 481.932,208.913 481.409,207.738 482.302 C 207.286 482.644,218.555 516.988,219.395 517.827 C 219.753 518.186,222.471 517.464,222.478 517.008 C 222.485 516.537,216.979 457.903,216.919 457.806 C 216.904 457.783,216.411 457.660,215.822 457.534 L 214.752 457.305 214.950 458.852 M46.016 458.959 C 45.353 459.227,45.412 459.477,48.862 470.987 L 52.386 482.741 53.285 482.609 C 53.779 482.537,54.188 482.314,54.194 482.115 C 54.220 481.248,47.299 458.654,47.012 458.669 C 46.837 458.678,46.388 458.809,46.016 458.959 M211.389 472.988 C 211.389 473.602,211.454 473.853,211.534 473.546 C 211.615 473.239,211.615 472.737,211.534 472.430 C 211.454 472.124,211.389 472.375,211.389 472.988 M58.182 493.370 C 57.609 494.004,57.651 494.068,60.752 497.297 C 62.486 499.102,69.486 506.419,76.307 513.557 C 83.129 520.694,88.808 526.534,88.927 526.534 C 89.904 526.534,90.278 525.223,89.534 524.402 C 86.163 520.678,59.411 492.888,59.128 492.817 C 58.929 492.767,58.503 493.015,58.182 493.370 M144.542 537.898 C 121.642 557.533,124.101 555.237,125.035 556.115 L 125.784 556.818 145.362 540.043 C 167.194 521.337,165.360 523.060,164.389 522.166 L 163.665 521.500 144.542 537.898 M171.859 523.741 C 170.903 524.202,170.732 523.894,175.902 530.994 C 178.372 534.387,180.345 537.212,180.284 537.272 C 179.790 537.766,173.320 539.796,173.209 539.492 C 173.135 539.289,172.423 535.911,171.627 531.985 C 170.830 528.059,170.122 524.755,170.053 524.643 C 169.798 524.230,168.127 524.526,168.184 524.974 C 168.215 525.218,168.916 528.762,169.741 532.849 C 170.612 537.159,171.124 540.396,170.960 540.557 C 170.805 540.710,160.721 544.436,148.552 548.838 C 123.176 558.017,125.820 556.933,126.290 557.965 C 126.779 559.038,124.908 559.624,149.745 550.623 C 161.723 546.283,171.584 542.793,171.659 542.868 C 171.785 542.994,179.124 578.378,179.124 578.859 C 179.124 579.102,181.014 579.571,181.208 579.376 C 181.278 579.306,179.617 570.880,177.516 560.651 C 175.416 550.422,173.736 542.015,173.783 541.968 C 173.915 541.835,181.808 538.989,181.845 539.060 C 181.863 539.095,185.318 543.857,189.522 549.641 C 193.727 555.426,197.271 560.331,197.397 560.541 C 197.532 560.766,195.047 565.070,191.357 571.004 L 185.087 581.085 185.769 581.768 C 186.683 582.681,186.348 583.117,193.134 572.185 C 196.318 567.054,199.023 562.918,199.143 562.995 C 199.264 563.072,205.100 571.029,212.112 580.677 C 219.124 590.325,224.932 598.222,225.020 598.226 C 225.108 598.230,225.522 597.969,225.941 597.647 L 226.702 597.062 214.179 579.886 C 207.292 570.439,201.329 562.277,200.928 561.749 L 200.199 560.789 209.902 545.178 L 219.606 529.567 218.886 529.014 C 218.491 528.709,218.086 528.457,217.986 528.453 C 217.886 528.449,213.583 535.255,208.424 543.577 C 203.265 551.900,198.949 558.677,198.834 558.637 C 198.381 558.483,183.973 538.473,184.171 538.273 C 184.332 538.111,200.330 532.252,215.548 526.783 C 216.420 526.470,216.521 525.638,215.784 524.840 C 215.653 524.697,208.189 527.243,199.200 530.497 C 190.210 533.752,182.768 536.414,182.661 536.414 C 182.555 536.414,180.326 533.474,177.709 529.880 C 175.091 526.287,172.868 523.356,172.769 523.368 C 172.671 523.380,172.261 523.548,171.859 523.741 M222.709 529.663 C 221.593 529.791,221.368 526.018,224.706 563.028 C 228.084 600.485,227.654 596.972,228.859 596.972 C 229.377 596.972,229.801 596.855,229.801 596.712 C 229.801 596.084,223.735 529.864,223.664 529.721 C 223.621 529.633,223.191 529.607,222.709 529.663 M97.077 535.431 C 96.545 536.018,96.767 536.385,103.117 545.391 C 111.007 556.581,110.405 555.872,111.272 555.005 C 112.094 554.183,112.774 555.339,104.861 544.109 C 98.119 534.541,98.001 534.409,97.077 535.431 M126.724 566.952 L 126.240 567.888 147.662 576.207 C 159.444 580.782,169.325 584.613,169.620 584.719 C 169.995 584.854,170.297 584.640,170.626 584.004 L 171.095 583.097 149.410 574.656 C 137.483 570.013,127.608 566.170,127.467 566.115 C 127.325 566.060,126.991 566.437,126.724 566.952 M188.317 593.287 C 187.793 594.438,186.828 594.091,204.060 598.930 C 221.813 603.914,220.421 603.614,220.698 602.512 C 220.975 601.409,222.570 601.965,205.231 597.118 C 196.744 594.746,189.551 592.729,189.246 592.637 C 188.865 592.522,188.573 592.727,188.317 593.287 " stroke="none" fill="#d4f3f4" fill-rule="evenodd"></path><path id="path3" d="M148.600 142.151 C 148.600 142.765,148.665 143.016,148.746 142.709 C 148.826 142.402,148.826 141.900,148.746 141.594 C 148.665 141.287,148.600 141.538,148.600 142.151 M199.765 179.668 C 200.161 179.744,200.735 179.741,201.040 179.661 C 201.344 179.581,201.020 179.519,200.319 179.523 C 199.618 179.526,199.368 179.591,199.765 179.668 M108.128 224.861 C 108.132 225.562,108.197 225.811,108.273 225.415 C 108.349 225.018,108.347 224.444,108.267 224.140 C 108.187 223.835,108.125 224.159,108.128 224.861 M222.544 293.546 C 222.544 294.159,222.610 294.410,222.690 294.104 C 222.770 293.797,222.770 293.295,222.690 292.988 C 222.610 292.681,222.544 292.932,222.544 293.546 M287.733 327.556 C 288.129 327.632,288.703 327.629,289.008 327.550 C 289.312 327.470,288.988 327.408,288.287 327.411 C 287.586 327.415,287.336 327.480,287.733 327.556 M345.741 426.998 C 346.137 427.075,346.711 427.072,347.016 426.992 C 347.320 426.912,346.996 426.850,346.295 426.853 C 345.594 426.857,345.344 426.922,345.741 426.998 M203.271 465.564 C 203.667 465.640,204.241 465.637,204.546 465.558 C 204.850 465.478,204.526 465.415,203.825 465.419 C 203.124 465.423,202.874 465.488,203.271 465.564 M108.122 492.430 C 108.122 493.044,108.187 493.295,108.268 492.988 C 108.348 492.681,108.348 492.179,108.268 491.873 C 108.187 491.566,108.122 491.817,108.122 492.430 " stroke="none" fill="#94d8e8" fill-rule="evenodd"></path><path id="path4" d="M124.064 34.323 C 124.371 34.403,124.873 34.403,125.179 34.323 C 125.486 34.243,125.235 34.178,124.622 34.178 C 124.008 34.178,123.757 34.243,124.064 34.323 M291.394 119.742 C 291.701 119.822,292.203 119.822,292.510 119.742 C 292.817 119.661,292.566 119.596,291.952 119.596 C 291.339 119.596,291.088 119.661,291.394 119.742 M104.622 148.746 C 104.928 148.826,105.430 148.826,105.737 148.746 C 106.044 148.665,105.793 148.600,105.179 148.600 C 104.566 148.600,104.315 148.665,104.622 148.746 M34.183 374.084 C 34.490 374.164,34.992 374.164,35.299 374.084 C 35.606 374.004,35.355 373.938,34.741 373.938 C 34.127 373.938,33.876 374.004,34.183 374.084 M363.426 379.503 C 363.733 379.583,364.235 379.583,364.542 379.503 C 364.849 379.422,364.598 379.357,363.984 379.357 C 363.371 379.357,363.120 379.422,363.426 379.503 M115.139 485.001 C 115.446 485.081,115.948 485.081,116.255 485.001 C 116.562 484.920,116.311 484.855,115.697 484.855 C 115.084 484.855,114.833 484.920,115.139 485.001 M117.052 570.419 C 117.359 570.499,117.861 570.499,118.167 570.419 C 118.474 570.339,118.223 570.273,117.610 570.273 C 116.996 570.273,116.745 570.339,117.052 570.419 " stroke="none" fill="#64c9dc" fill-rule="evenodd"></path></g></svg>