<?xml version="1.0" standalone="no"?>
<!DOCTYPE svg PUBLIC "-//W3C//DTD SVG 20010904//EN"
 "http://www.w3.org/TR/2001/REC-SVG-20010904/DTD/svg10.dtd">
<svg version="1.0" xmlns="http://www.w3.org/2000/svg"
 width="1072.000000pt" height="467.000000pt" viewBox="0 0 1072.000000 467.000000"
 preserveAspectRatio="xMidYMid meet">
<metadata>
Created by potrace 1.16, written by Peter Selinger 2001-2019
</metadata>
<g transform="translate(0.000000,467.000000) scale(0.100000,-0.100000)"
fill="#000000" stroke="none">
<path d="M6105 3026 c-86 -32 -97 -75 -93 -340 3 -178 5 -205 23 -233 36 -61
128 -82 179 -42 21 17 26 18 26 5 0 -12 11 -16 45 -16 l45 0 0 170 0 170 -80
0 -80 0 0 -45 c0 -41 2 -45 25 -45 24 0 25 -3 25 -61 0 -71 -12 -99 -43 -99
-44 0 -47 12 -47 227 l0 203 26 12 c40 19 58 1 62 -61 l3 -51 55 0 54 0 0 50
c0 67 -25 127 -62 146 -43 22 -117 27 -163 10z"/>
<path d="M7434 3022 c-49 -23 -74 -70 -74 -136 0 -70 23 -113 110 -201 58 -60
80 -90 85 -117 9 -48 -8 -78 -44 -78 -35 0 -41 14 -41 86 l0 54 -55 0 -55 0 0
-67 c0 -119 49 -173 155 -173 102 0 155 56 155 163 0 82 -18 116 -115 217 -67
69 -85 95 -85 117 0 35 16 53 47 53 26 0 43 -27 43 -69 0 -30 1 -31 50 -31
l50 0 0 55 c0 97 -33 132 -134 141 -37 4 -62 0 -92 -14z"/>
<path d="M8109 3031 c-51 -17 -71 -33 -90 -74 -16 -37 -19 -67 -19 -242 0
-177 3 -205 20 -243 15 -33 29 -47 60 -60 28 -12 40 -23 40 -37 0 -18 12 -23
98 -38 53 -10 100 -17 105 -17 4 0 7 20 7 45 0 40 -2 45 -23 45 -36 0 -39 10
-12 41 32 39 37 83 33 301 -3 202 -6 213 -69 260 -28 21 -111 32 -150 19z m85
-107 c24 -24 24 -399 -1 -426 -20 -22 -37 -23 -57 -2 -14 13 -16 47 -16 218 0
208 3 226 41 226 10 0 25 -7 33 -16z"/>
<path d="M4710 2715 l0 -315 130 0 130 0 0 45 0 45 -75 0 -75 0 0 90 0 90 55
0 55 0 0 50 0 50 -55 0 -55 0 0 80 0 80 75 0 75 0 0 50 0 50 -130 0 -130 0 0
-315z"/>
<path d="M5010 2715 l0 -315 50 0 50 0 0 168 1 167 53 -165 52 -165 52 -3 52
-3 0 315 0 316 -50 0 -50 0 -1 -152 -1 -153 -49 153 -50 152 -54 0 -55 0 0
-315z"/>
<path d="M5360 2715 l0 -315 130 0 130 0 0 45 0 45 -70 0 -70 0 0 90 0 90 50
0 50 0 0 50 0 50 -50 0 -50 0 0 80 0 80 70 0 70 0 0 50 0 50 -130 0 -130 0 0
-315z"/>
<path d="M5660 2715 l0 -315 60 0 60 0 1 123 1 122 41 -122 41 -123 63 0 62 0
-49 140 -49 140 27 14 c40 21 52 56 52 152 0 156 -31 184 -204 184 l-106 0 0
-315z"/>
<path d="M6370 2715 l0 -315 60 0 60 0 0 315 0 315 -60 0 -60 0 0 -315z"/>
<path d="M6630 3023 c0 -4 -25 -139 -55 -299 -30 -161 -55 -300 -55 -308 0
-13 12 -16 54 -16 l54 0 7 55 6 55 54 0 53 0 7 -55 6 -55 60 0 c32 0 59 3 59
8 0 4 -26 144 -58 312 l-59 305 -66 3 c-37 2 -67 0 -67 -5z"/>
<path d="M7097 3008 c-3 -13 -29 -144 -56 -293 -28 -148 -53 -280 -56 -292 -5
-22 -2 -23 49 -23 59 0 58 -1 71 73 6 37 6 37 55 37 53 0 52 0 65 -72 l6 -38
60 0 c56 0 59 1 54 23 -3 12 -25 130 -50 262 -25 132 -50 264 -56 293 l-10 52
-64 0 c-57 0 -63 -2 -68 -22z"/>
<path d="M7710 2715 l0 -315 130 0 130 0 0 45 0 45 -75 0 -75 0 0 90 0 90 55
0 55 0 0 50 0 50 -55 0 -55 0 0 80 0 80 75 0 75 0 0 50 0 50 -130 0 -130 0 0
-315z"/>
<path d="M8372 2756 c3 -259 4 -276 24 -303 11 -15 36 -36 55 -46 45 -24 138
-19 177 10 54 40 57 56 60 346 l4 267 -56 0 -56 0 0 -251 c0 -153 -4 -258 -10
-270 -12 -21 -50 -25 -68 -7 -9 9 -12 83 -12 270 l0 258 -61 0 -60 0 3 -274z"/>
<path d="M8730 2715 l0 -315 55 0 55 0 0 315 0 315 -55 0 -55 0 0 -315z"/>
<path d="M8890 2715 l0 -315 113 0 c120 0 147 8 179 50 40 55 32 235 -11 262
-18 11 -18 12 0 42 14 23 19 50 19 104 0 144 -33 172 -200 172 l-100 0 0 -315z
m181 -45 c16 -9 19 -22 19 -80 0 -78 -13 -100 -61 -100 l-29 0 0 95 0 95 26 0
c14 0 34 -5 45 -10z"/>
<path d="M9240 2715 l0 -315 120 0 120 0 0 45 0 45 -60 0 -60 0 0 270 0 270
-60 0 -60 0 0 -315z"/>
<path d="M9510 2715 l0 -315 130 0 130 0 0 45 0 45 -70 0 -70 0 0 90 0 90 50
0 50 0 0 50 0 50 -50 0 -50 0 0 80 0 80 70 0 70 0 0 50 0 50 -130 0 -130 0 0
-315z"/>
<path d="M3470 2915 l0 -105 191 0 c177 0 190 -1 185 -17 -8 -30 -326 -1256
-326 -1259 0 -2 59 -4 130 -4 72 0 130 2 130 5 0 2 72 281 160 619 l160 615 0
125 0 126 -315 0 -315 0 0 -105z"/>
<path d="M5592 2160 c-51 -12 -89 -55 -103 -114 -7 -32 -10 -121 -8 -236 4
-164 6 -189 24 -220 53 -91 215 -95 279 -7 19 26 21 45 24 239 4 241 -4 282
-61 317 -38 23 -109 33 -155 21z m84 -104 c17 -13 19 -30 22 -198 3 -198 -4
-230 -46 -236 -49 -7 -52 6 -52 219 0 166 2 200 16 213 19 20 35 20 60 2z"/>
<path d="M6030 2159 c-90 -27 -100 -58 -100 -321 0 -188 2 -217 18 -247 25
-47 74 -71 142 -71 109 0 150 52 150 190 l0 80 -55 0 -54 0 -3 -82 -3 -83 -30
-3 c-51 -6 -55 11 -55 218 0 152 3 190 16 208 17 24 43 29 62 10 7 -7 12 -38
12 -70 l0 -58 55 0 55 0 0 65 c0 115 -33 157 -130 169 -25 3 -61 0 -80 -5z"/>
<path d="M6382 2160 c-46 -11 -90 -56 -103 -103 -6 -24 -9 -118 -7 -236 3
-175 5 -200 23 -231 26 -45 77 -70 140 -70 70 0 115 25 143 80 22 43 23 53 20
255 -3 229 -9 254 -67 288 -33 19 -106 28 -149 17z m79 -100 c18 -10 19 -23
19 -213 0 -213 -3 -227 -45 -227 -42 0 -45 14 -45 221 0 166 2 200 16 213 18
19 28 20 55 6z"/>
<path d="M4690 2153 c0 -4 27 -95 60 -204 58 -190 60 -201 60 -308 l0 -111 55
0 55 0 0 115 c0 112 2 122 56 303 31 103 59 193 62 200 3 10 -9 12 -54 10
l-58 -3 -14 -50 c-7 -27 -20 -75 -29 -105 l-16 -55 -18 65 c-10 36 -23 84 -29
108 l-11 42 -59 0 c-33 0 -60 -3 -60 -7z"/>
<path d="M5140 1845 l0 -315 45 0 45 0 2 177 3 177 55 -177 55 -177 52 0 53 0
0 315 0 315 -50 0 -50 0 -1 -157 c0 -103 -4 -149 -9 -133 -5 14 -28 85 -51
158 l-41 132 -54 0 -54 0 0 -315z"/>
<path d="M6630 1845 l0 -315 50 0 50 0 0 178 1 177 56 -177 56 -178 54 0 53 0
0 315 0 315 -50 0 -50 0 -1 -157 -1 -158 -51 158 -51 157 -58 0 -58 0 0 -315z"/>
<path d="M6970 2110 l0 -50 45 0 45 0 0 -265 0 -265 55 0 55 0 0 265 0 265 45
0 45 0 0 50 0 50 -145 0 -145 0 0 -50z"/>
<path d="M7335 2148 c-4 -14 -115 -602 -115 -612 0 -3 24 -6 54 -6 l54 0 9 53
8 52 52 3 51 3 9 -53 8 -53 58 -3 c41 -2 57 1 57 10 0 7 -25 149 -57 316 l-57
302 -63 0 c-42 0 -65 -4 -68 -12z"/>
<path d="M7600 1845 l0 -315 50 0 50 0 1 168 0 167 29 -145 c41 -205 36 -190
69 -190 28 0 29 1 45 93 9 50 23 126 30 167 l14 75 1 -167 1 -168 55 0 55 0 0
315 0 315 -74 0 -73 0 -23 -142 c-13 -79 -26 -149 -30 -156 -3 -7 -19 57 -35
142 l-29 156 -68 0 -68 0 0 -315z"/>
<path d="M8030 1845 l0 -315 60 0 60 0 0 315 0 315 -60 0 -60 0 0 -315z"/>
<path d="M8180 1845 l0 -315 50 0 50 0 1 173 c0 110 4 163 9 147 5 -14 30 -91
55 -172 l47 -148 49 0 49 0 0 315 0 315 -45 0 -45 0 -2 -162 -3 -162 -50 162
-50 162 -57 0 -58 0 0 -315z"/>
<path d="M8627 2138 c-3 -13 -29 -147 -57 -298 -28 -151 -53 -283 -56 -292 -5
-16 2 -18 50 -18 59 0 58 -1 71 73 6 37 6 37 55 37 53 0 52 0 65 -72 l6 -38
60 0 c56 0 59 1 54 23 -3 12 -25 130 -50 262 -25 132 -50 264 -56 293 l-10 52
-64 0 c-57 0 -63 -2 -68 -22z"/>
<path d="M8900 1845 l0 -315 45 0 45 0 2 177 3 178 55 -178 55 -177 53 0 52 0
0 315 0 315 -50 0 -50 0 -1 -157 c0 -87 -2 -153 -4 -148 -2 6 -25 76 -50 158
l-47 147 -54 0 -54 0 0 -315z"/>
<path d="M9230 2110 l0 -50 45 0 45 0 0 -265 0 -265 55 0 55 0 0 265 0 265 45
0 45 0 0 50 0 50 -145 0 -145 0 0 -50z"/>
<path d="M9540 1845 l0 -315 130 0 130 0 0 45 0 45 -70 0 -70 0 0 90 0 90 50
0 50 0 0 50 0 50 -50 0 -50 0 0 80 0 80 70 0 70 0 0 50 0 50 -130 0 -130 0 0
-315z"/>
</g>
</svg>
