<?xml version="1.0" encoding="utf-8"?>
<!-- Generator: Adobe Illustrator 24.0.2, SVG Export Plug-In . SVG Version: 6.00 Build 0)  -->
<svg version="1.1" id="Capa_1" xmlns="http://www.w3.org/2000/svg" xmlns:xlink="http://www.w3.org/1999/xlink" x="0px" y="0px"
	 viewBox="0 0 69.82 69.82" style="enable-background:new 0 0 69.82 69.82;" xml:space="preserve">
<style type="text/css">
	.st0{fill:#D3A13C;}
	.st1{fill:#4D9748;}
	.st2{fill:#D32E3C;}
	.st3{fill:#E0432F;}
	.st4{fill:#2DAFD2;}
	.st5{fill:#B8252F;}
	.st6{fill:#9A2142;}
	.st7{fill:#E46831;}
	.st8{fill:#EEBB27;}
	.st9{fill:#EE9830;}
	.st10{fill:#B6872F;}
	.st11{fill:#CE2364;}
	.st12{fill:#268BC3;}
	.st13{fill:#5DAE49;}
	.st14{fill:#427D44;}
	.st15{fill:#1C4769;}
	.st16{fill:#0B6695;}
	.st17{fill:#FFFFFF;}
	.st18{fill-rule:evenodd;clip-rule:evenodd;fill:#00A0DB;}
	.st19{fill-rule:evenodd;clip-rule:evenodd;fill:#0782BE;}
	.st20{fill-rule:evenodd;clip-rule:evenodd;fill:#FFFFFF;}
	.st21{fill-rule:evenodd;clip-rule:evenodd;fill:#E86537;}
	.st22{fill-rule:evenodd;clip-rule:evenodd;fill:#034569;}
	.st23{fill-rule:evenodd;clip-rule:evenodd;fill:#DE2A66;}
	.st24{fill-rule:evenodd;clip-rule:evenodd;fill:#057C40;}
	.st25{fill-rule:evenodd;clip-rule:evenodd;fill:#CF9521;}
	.st26{fill-rule:evenodd;clip-rule:evenodd;fill:#B31D42;}
	.st27{fill-rule:evenodd;clip-rule:evenodd;fill:#D9272E;}
	.st28{fill-rule:evenodd;clip-rule:evenodd;fill:#E34538;}
	.st29{fill-rule:evenodd;clip-rule:evenodd;fill:#EF9431;}
	.st30{fill-rule:evenodd;clip-rule:evenodd;fill:#ECB129;}
	.st31{fill-rule:evenodd;clip-rule:evenodd;fill:#F7BC13;}
	.st32{fill-rule:evenodd;clip-rule:evenodd;fill:#19A240;}
	.st33{fill-rule:evenodd;clip-rule:evenodd;fill:#02983B;}
	.st34{fill-rule:evenodd;clip-rule:evenodd;fill:#E13244;}
	.st35{fill-rule:evenodd;clip-rule:evenodd;fill:#066698;}
	.st36{fill-rule:evenodd;clip-rule:evenodd;fill:#008CC4;}
	.st37{fill-rule:evenodd;clip-rule:evenodd;fill:#00A3C6;}
	.st38{fill-rule:evenodd;clip-rule:evenodd;fill:#067FC2;stroke:#067FC2;stroke-width:0.25;stroke-miterlimit:22.9256;}
	.st39{fill:none;stroke:#067FC2;stroke-width:0.25;stroke-miterlimit:22.9256;}
	.st40{fill:none;stroke:#119AD7;stroke-width:0.25;stroke-miterlimit:22.9256;}
	.st41{fill-rule:evenodd;clip-rule:evenodd;fill:#067FC2;}
</style>
<circle class="st11" cx="34.91" cy="34.91" r="34.91"/>
<polygon class="st17" points="13.3,17.35 13.3,25.94 15.18,25.94 15.18,14.72 13.68,14.72 11.94,16.76 11.94,18.73 11.95,18.73 
	13.28,17.35 "/>
<g>
	<path class="st17" d="M22.07,23.04v-5.43c0-1.75-0.88-3.03-2.8-3.03c-1.9,0-2.78,1.27-2.78,3.03v5.43c0,1.74,0.88,3.03,2.78,3.03
		C21.19,26.07,22.07,24.78,22.07,23.04 M18.38,23.34v-6.02c0-0.68,0.25-1.16,0.89-1.16c0.66,0,0.91,0.48,0.91,1.16v6.02
		c0,0.68-0.25,1.16-0.91,1.16C18.62,24.5,18.38,24.02,18.38,23.34"/>
</g>
<g>
	<path class="st17" d="M26.4,15.91c0.66,0,0.94,0.34,0.94,0.96v0.34c0,0.46-0.16,0.75-0.52,0.87c0.39,0.11,0.53,0.43,0.53,0.88v0.66
		c0,0.19,0.01,0.36,0.08,0.51h-0.48c-0.05-0.12-0.08-0.23-0.08-0.51v-0.66c0-0.48-0.22-0.63-0.61-0.63h-0.33v1.8h-0.47v-4.22H26.4z
		 M26.28,17.9c0.37,0,0.6-0.12,0.6-0.58v-0.4c0-0.38-0.14-0.58-0.49-0.58h-0.46v1.56H26.28z"/>
	<path class="st17" d="M29.34,17.78v0.42h-1.03v1.5h1.27v0.43h-1.74v-4.22h1.74v0.43h-1.27v1.44H29.34z"/>
	<path class="st17" d="M30.99,15.91c0.66,0,0.96,0.4,0.96,1.05v2.13c0,0.64-0.3,1.04-0.96,1.04h-0.99v-4.22H30.99z M30.99,19.7
		c0.34,0,0.5-0.21,0.5-0.6v-2.17c0-0.39-0.16-0.6-0.51-0.6h-0.51v3.36H30.99z"/>
	<path class="st17" d="M32.84,19.14c0,0.38,0.15,0.61,0.49,0.61c0.34,0,0.49-0.23,0.49-0.61v-3.22h0.44v3.2
		c0,0.64-0.3,1.07-0.95,1.07c-0.64,0-0.94-0.43-0.94-1.07v-3.2h0.46V19.14z"/>
	<path class="st17" d="M36.58,16.93v0.38h-0.45v-0.4c0-0.38-0.15-0.61-0.49-0.61c-0.34,0-0.49,0.23-0.49,0.61v2.23
		c0,0.38,0.16,0.61,0.49,0.61c0.34,0,0.49-0.23,0.49-0.61v-0.55h0.45v0.52c0,0.64-0.3,1.06-0.95,1.06c-0.64,0-0.95-0.42-0.95-1.06
		v-2.18c0-0.64,0.3-1.06,0.95-1.06C36.28,15.87,36.58,16.29,36.58,16.93z"/>
	<path class="st17" d="M38.87,16.93v0.38h-0.45v-0.4c0-0.38-0.15-0.61-0.49-0.61c-0.34,0-0.49,0.23-0.49,0.61v2.23
		c0,0.38,0.16,0.61,0.49,0.61c0.34,0,0.49-0.23,0.49-0.61v-0.55h0.45v0.52c0,0.64-0.3,1.06-0.95,1.06c-0.64,0-0.95-0.42-0.95-1.06
		v-2.18c0-0.64,0.3-1.06,0.95-1.06C38.57,15.87,38.87,16.29,38.87,16.93z"/>
	<path class="st17" d="M39.77,15.91v4.22H39.3v-4.22H39.77z"/>
	<path class="st17" d="M42.15,16.93v2.18c0,0.64-0.32,1.06-0.97,1.06c-0.65,0-0.96-0.42-0.96-1.06v-2.18c0-0.64,0.32-1.06,0.96-1.06
		C41.83,15.87,42.15,16.29,42.15,16.93z M40.68,16.91v2.23c0,0.39,0.16,0.61,0.5,0.61c0.34,0,0.5-0.22,0.5-0.61v-2.23
		c0-0.38-0.16-0.61-0.5-0.61C40.84,16.3,40.68,16.53,40.68,16.91z M41.78,15.04l-0.56,0.62h-0.33l0.42-0.62H41.78z"/>
	<path class="st17" d="M43.01,20.13h-0.42v-4.22h0.6l0.98,3.05v-3.05h0.42v4.22h-0.49l-1.08-3.41V20.13z"/>
	<path class="st17" d="M46.98,15.91c0.66,0,0.96,0.4,0.96,1.05v2.13c0,0.64-0.3,1.04-0.96,1.04h-0.99v-4.22H46.98z M46.98,19.7
		c0.34,0,0.5-0.21,0.5-0.6v-2.17c0-0.39-0.16-0.6-0.51-0.6h-0.5v3.36H46.98z"/>
	<path class="st17" d="M49.88,17.78v0.42h-1.03v1.5h1.26v0.43h-1.73v-4.22h1.73v0.43h-1.26v1.44H49.88z"/>
	<path class="st17" d="M51.48,20.13v-4.22h0.47v3.79h1.2v0.43H51.48z"/>
	<path class="st17" d="M53.99,19.28l-0.16,0.85h-0.43l0.81-4.22h0.68l0.81,4.22h-0.47l-0.16-0.85H53.99z M54.05,18.88h0.94
		l-0.48-2.43L54.05,18.88z"/>
	<path class="st17" d="M57.88,16.93v0.11h-0.45V16.9c0-0.38-0.14-0.6-0.48-0.6c-0.34,0-0.48,0.22-0.48,0.6
		c0,0.95,1.42,1.04,1.42,2.22c0,0.64-0.31,1.05-0.95,1.05c-0.64,0-0.95-0.41-0.95-1.05v-0.24h0.44v0.26c0,0.38,0.16,0.6,0.49,0.6
		c0.34,0,0.49-0.22,0.49-0.6c0-0.94-1.41-1.03-1.41-2.22c0-0.65,0.3-1.05,0.93-1.05C57.58,15.87,57.88,16.29,57.88,16.93z"/>
	<path class="st17" d="M26.45,21.94c0.66,0,0.96,0.4,0.96,1.05v2.13c0,0.64-0.3,1.04-0.96,1.04h-0.99v-4.22H26.45z M26.45,25.73
		c0.34,0,0.5-0.21,0.5-0.6v-2.17c0-0.38-0.16-0.6-0.51-0.6h-0.51v3.36H26.45z"/>
	<path class="st17" d="M29.35,23.81v0.42h-1.03v1.5h1.27v0.43h-1.74v-4.22h1.74v0.43h-1.27v1.44H29.35z"/>
	<path class="st17" d="M31.84,22.95v0.12H31.4v-0.14c0-0.38-0.14-0.6-0.48-0.6c-0.34,0-0.48,0.22-0.48,0.6
		c0,0.95,1.42,1.04,1.42,2.22c0,0.64-0.31,1.05-0.95,1.05c-0.64,0-0.95-0.42-0.95-1.05V24.9h0.44v0.27c0,0.38,0.16,0.6,0.49,0.6
		c0.34,0,0.49-0.22,0.49-0.6c0-0.94-1.41-1.03-1.41-2.22c0-0.65,0.3-1.05,0.93-1.05C31.54,21.9,31.84,22.31,31.84,22.95z"/>
	<path class="st17" d="M32.73,21.94v4.22h-0.47v-4.22H32.73z"/>
	<path class="st17" d="M35.07,22.96v0.36h-0.45v-0.38c0-0.38-0.15-0.61-0.49-0.61c-0.34,0-0.49,0.23-0.49,0.61v2.23
		c0,0.38,0.16,0.61,0.49,0.61c0.34,0,0.49-0.23,0.49-0.61v-0.84h-0.43V23.9h0.88v1.24c0,0.64-0.3,1.06-0.95,1.06
		c-0.64,0-0.95-0.42-0.95-1.06v-2.18c0-0.64,0.3-1.06,0.95-1.06C34.77,21.9,35.07,22.32,35.07,22.96z"/>
	<path class="st17" d="M35.96,25.16c0,0.38,0.15,0.61,0.49,0.61c0.34,0,0.49-0.23,0.49-0.61v-3.22h0.44v3.2
		c0,0.64-0.29,1.07-0.95,1.07c-0.64,0-0.94-0.43-0.94-1.07v-3.2h0.46V25.16z"/>
	<path class="st17" d="M38.33,25.31l-0.16,0.85h-0.43l0.81-4.22h0.68l0.81,4.22h-0.47l-0.16-0.85H38.33z M38.38,24.9h0.94
		l-0.48-2.43L38.38,24.9z"/>
	<path class="st17" d="M40.39,26.16v-4.22h0.47v3.79h1.21v0.43H40.39z"/>
	<path class="st17" d="M43.41,21.94c0.66,0,0.96,0.4,0.96,1.05v2.13c0,0.64-0.3,1.04-0.96,1.04h-0.99v-4.22H43.41z M43.4,25.73
		c0.34,0,0.5-0.21,0.5-0.6v-2.17c0-0.38-0.16-0.6-0.51-0.6h-0.51v3.36H43.4z"/>
	<path class="st17" d="M45.28,25.31l-0.16,0.85h-0.43l0.81-4.22h0.68l0.81,4.22h-0.47l-0.16-0.85H45.28z M45.34,24.9h0.94
		l-0.48-2.43L45.34,24.9z"/>
	<path class="st17" d="M48.33,21.94c0.66,0,0.96,0.4,0.96,1.05v2.13c0,0.64-0.3,1.04-0.96,1.04h-0.99v-4.22H48.33z M48.33,25.73
		c0.34,0,0.5-0.21,0.5-0.6v-2.17c0-0.38-0.16-0.6-0.51-0.6h-0.51v3.36H48.33z"/>
	<path class="st17" d="M51.23,23.81v0.42H50.2v1.5h1.27v0.43h-1.73v-4.22h1.73v0.43H50.2v1.44H51.23z"/>
	<path class="st17" d="M53.72,22.95v0.12h-0.45v-0.14c0-0.38-0.14-0.6-0.48-0.6c-0.34,0-0.48,0.22-0.48,0.6
		c0,0.95,1.42,1.04,1.42,2.22c0,0.64-0.31,1.05-0.95,1.05c-0.64,0-0.95-0.42-0.95-1.05V24.9h0.44v0.27c0,0.38,0.16,0.6,0.49,0.6
		c0.34,0,0.49-0.22,0.49-0.6c0-0.94-1.41-1.03-1.41-2.22c0-0.65,0.3-1.05,0.93-1.05C53.42,21.9,53.72,22.31,53.72,22.95z"/>
</g>
<g>
	<g>
		<path class="st17" d="M40.38,47.37h-9.74c-0.06,0-0.11,0.05-0.11,0.11v2.21c0,0.06,0.05,0.11,0.11,0.11h9.74
			c0.06,0,0.11-0.05,0.11-0.11v-2.21C40.48,47.41,40.44,47.37,40.38,47.37"/>
	</g>
	<g>
		<path class="st17" d="M40.48,43.32c0-0.06-0.05-0.11-0.11-0.11H32.3h-1.67c-0.06,0-0.11,0.05-0.11,0.11v0.87v1.34
			c0,0.06,0.05,0.11,0.11,0.11h9.74c0.06,0,0.11-0.05,0.11-0.11V43.32z"/>
	</g>
	<g>
		<path class="st17" d="M46.12,44.18c-0.4-1.61-1.13-3.04-2.09-4.26l-0.02,0.02c0.31,0.47,0.59,0.96,0.83,1.48
			c1.26,2.32,1.65,5.12,0.85,7.85c-1.6,5.49-7.35,8.64-12.83,7.04c-2.31-0.67-4.2-2.08-5.5-3.89c-0.81-1.05-1.43-2.27-1.77-3.64
			c-1.3-5.24,1.88-10.54,7.12-11.84c3.24-0.81,6.5,0.11,8.82,2.17c0.02,0.02,0.04,0.04,0.06,0.06c0.06,0.05,0.14,0.08,0.22,0.08
			c0.09,0,0.18-0.04,0.24-0.09l0.04-0.04l1.24-1.22l0.08-0.08c0.05-0.06,0.08-0.14,0.08-0.22c0-0.1-0.04-0.18-0.1-0.25
			c-0.01-0.01-0.03-0.02-0.04-0.04c-2.86-2.56-6.89-3.71-10.9-2.71c-6.43,1.6-10.35,8.11-8.75,14.54c0.67,2.7,2.21,4.95,4.23,6.54
			c2.02,1.66,4.59,2.6,7.29,2.57c0.87-0.01,1.75-0.12,2.63-0.33C43.94,56.39,47.63,50.25,46.12,44.18"/>
	</g>
</g>
</svg>
