<?xml version="1.0" standalone="no"?>
<!DOCTYPE svg PUBLIC "-//W3C//DTD SVG 20010904//EN"
 "http://www.w3.org/TR/2001/REC-SVG-20010904/DTD/svg10.dtd">
<svg version="1.0" xmlns="http://www.w3.org/2000/svg"
 width="1072.000000pt" height="467.000000pt" viewBox="0 0 1072.000000 467.000000"
 preserveAspectRatio="xMidYMid meet">
<metadata>
Created by potrace 1.16, written by Peter Selinger 2001-2019
</metadata>
<g transform="translate(0.000000,467.000000) scale(0.100000,-0.100000)"
fill="#000000" stroke="none">
<path d="M1626 3745 c-723 -104 -1256 -744 -1223 -1470 30 -670 498 -1215
1154 -1346 142 -28 373 -30 518 -4 591 104 1056 568 1161 1160 26 146 24 367
-5 513 -112 576 -549 1018 -1121 1133 -128 26 -355 33 -484 14z m-103 -784
c112 -56 201 -53 294 10 l41 29 52 -35 c28 -19 67 -37 86 -41 72 -13 166 10
244 61 24 16 27 16 77 -18 83 -56 169 -65 267 -27 38 14 48 3 44 -46 -3 -36
-7 -41 -57 -66 -86 -44 -174 -35 -253 25 l-42 33 -48 -32 c-69 -47 -141 -60
-220 -39 -35 9 -83 29 -108 45 -39 25 -46 27 -60 15 -9 -8 -42 -26 -74 -41
-81 -37 -170 -37 -242 -1 -27 14 -56 32 -63 41 -11 13 -18 11 -55 -18 -84 -64
-199 -73 -276 -22 -37 24 -40 30 -40 71 0 25 4 45 9 45 5 0 28 -7 52 -16 69
-24 150 -21 213 10 30 15 60 33 66 42 7 8 16 13 19 12 3 -2 37 -18 74 -37z
m-10 -230 c107 -61 213 -61 296 0 23 16 45 29 51 29 6 0 28 -13 50 -29 85 -61
174 -61 297 0 l62 32 47 -32 c26 -17 66 -36 88 -42 50 -14 133 -6 175 16 40
20 51 13 51 -34 0 -40 -14 -58 -65 -83 -76 -38 -164 -28 -246 29 -51 35 -51
35 -72 15 -86 -78 -231 -80 -348 -6 l-38 24 -65 -36 c-108 -59 -200 -59 -299
0 l-55 34 -47 -34 c-85 -60 -194 -64 -272 -11 -28 19 -33 28 -33 63 0 22 2 43
5 46 3 3 29 -3 58 -13 91 -32 186 -18 252 36 38 31 45 31 108 -4z m-343 -346
c86 -18 198 -100 262 -192 l29 -43 77 55 c96 66 265 149 352 172 87 22 227 22
305 -1 131 -39 286 -142 391 -261 39 -45 54 -70 50 -83 -10 -31 -167 -181
-240 -229 -111 -75 -202 -105 -326 -111 -87 -4 -119 -1 -184 17 -108 30 -211
79 -329 157 -54 36 -99 64 -101 62 -35 -55 -98 -127 -140 -158 -74 -56 -196
-97 -219 -74 -3 4 9 36 27 73 99 195 100 349 5 538 -39 77 -41 98 -11 89 10
-2 33 -8 52 -11z"/>
<path d="M2179 2175 c-54 -29 -60 -107 -12 -145 37 -29 79 -26 114 9 46 46 37
106 -21 136 -35 18 -47 18 -81 0z"/>
<path d="M3756 3003 l-116 -137 0 -133 c0 -73 4 -133 9 -133 5 0 46 39 90 86
l81 87 0 -562 0 -561 130 0 130 0 0 745 0 745 -104 0 -104 0 -116 -137z"/>
<path d="M4367 2592 c-216 -546 -217 -549 -217 -625 l0 -77 220 0 220 0 0
-120 0 -120 125 0 125 0 0 120 0 120 50 0 50 0 0 100 0 100 -50 0 -50 0 0 525
0 525 -128 0 -128 0 -217 -548z m233 -212 l0 -290 -105 0 c-58 0 -105 3 -105
8 0 9 204 572 208 572 1 0 2 -130 2 -290z"/>
<path d="M5580 3023 c1 -10 27 -153 58 -318 l57 -300 62 -3 61 -3 11 53 c6 29
31 161 56 293 25 132 48 252 51 268 6 27 5 27 -49 27 -64 0 -54 23 -93 -217
-16 -95 -30 -170 -33 -168 -2 3 -18 89 -35 193 l-32 187 -57 3 c-49 3 -57 1
-57 -15z"/>
<path d="M5970 2720 l0 -320 60 0 60 0 0 320 0 320 -60 0 -60 0 0 -320z"/>
<path d="M6140 2720 l0 -322 113 3 c122 4 150 14 184 66 15 23 18 57 21 234 3
190 2 212 -16 253 -29 64 -62 78 -194 84 l-108 5 0 -323z m181 210 c18 -10 19
-23 19 -208 0 -141 -3 -201 -12 -210 -7 -7 -27 -12 -45 -12 l-33 0 0 220 0
220 26 0 c14 0 34 -5 45 -10z"/>
<path d="M6595 3028 c-6 -18 -115 -603 -115 -617 0 -7 21 -11 54 -11 l54 0 8
58 9 57 51 3 52 3 8 -58 9 -58 58 -3 c41 -2 57 1 57 10 0 7 -25 151 -57 320
l-58 308 -63 0 c-41 0 -64 -4 -67 -12z"/>
<path d="M5649 2147 c-18 -12 -39 -34 -46 -47 -15 -30 -17 -128 -3 -165 6 -15
48 -67 95 -115 81 -84 85 -91 85 -133 0 -48 -17 -71 -47 -65 -24 5 -43 45 -43
96 l0 42 -50 0 -50 0 0 -70 c0 -118 41 -163 150 -164 100 -1 148 42 157 141 8
90 -7 123 -108 229 -77 81 -89 98 -89 128 0 42 28 63 59 47 22 -12 31 -32 31
-72 0 -28 1 -29 50 -29 l50 0 0 50 c0 107 -44 150 -153 150 -40 0 -63 -6 -88
-23z"/>
<path d="M5942 1893 c3 -298 7 -316 71 -350 43 -22 146 -23 181 0 57 38 61 58
64 350 l3 267 -55 0 -56 0 0 -254 c0 -218 -2 -257 -16 -270 -18 -19 -28 -20
-55 -6 -18 10 -19 24 -19 270 l0 260 -61 0 -60 0 3 -267z"/>
<path d="M6310 1845 l0 -315 98 0 c186 0 212 23 212 183 0 90 -2 100 -24 122
l-24 24 20 38 c25 48 22 176 -6 218 -24 37 -54 45 -172 45 l-104 0 0 -315z
m190 -54 c5 -11 10 -43 10 -71 0 -70 -12 -90 -55 -90 l-35 0 0 90 0 90 35 0
c24 0 37 -6 45 -19z"/>
<path d="M6660 1845 l0 -315 50 0 50 0 1 173 1 172 28 -135 c15 -74 30 -152
34 -172 6 -34 10 -38 36 -38 25 0 30 5 35 33 3 17 16 91 29 162 l24 130 1
-162 1 -163 55 0 55 0 0 315 0 315 -73 0 -73 0 -24 -146 c-13 -80 -26 -147
-29 -149 -3 -2 -19 64 -35 146 l-28 149 -69 0 -69 0 0 -315z"/>
<path d="M7206 2143 c-3 -10 -28 -139 -56 -288 -27 -148 -53 -282 -56 -297 -6
-28 -5 -28 49 -28 54 0 56 1 61 30 3 17 9 44 12 60 5 28 8 30 53 30 l48 0 12
-60 12 -60 60 0 c53 0 60 2 55 18 -3 9 -26 127 -51 262 -25 135 -50 269 -56
298 l-10 52 -64 0 c-52 0 -65 -3 -69 -17z"/>
<path d="M7490 1845 l0 -315 55 0 55 0 1 133 1 132 45 -132 45 -133 59 0 c32
0 59 4 59 9 0 5 -20 67 -45 137 -25 69 -45 129 -45 133 0 3 13 14 29 23 39 21
55 80 48 173 -9 135 -34 155 -196 155 l-111 0 0 -315z"/>
<path d="M7840 1845 l0 -315 60 0 60 0 0 315 0 315 -60 0 -60 0 0 -315z"/>
<path d="M8010 1845 l0 -315 50 0 50 0 2 167 3 166 51 -164 52 -164 51 -3 51
-3 0 315 0 316 -50 0 -50 0 -1 -147 -1 -148 -47 145 -47 145 -57 3 -57 3 0
-316z"/>
<path d="M8467 2138 c-3 -13 -29 -147 -57 -298 -28 -151 -53 -283 -56 -292 -5
-16 2 -18 50 -18 60 0 59 -1 71 78 l7 42 48 0 c53 0 53 0 65 -77 l7 -43 60 0
c57 0 60 1 55 23 -3 12 -29 146 -57 297 -28 151 -53 283 -56 293 -4 14 -17 17
-69 17 -57 0 -63 -2 -68 -22z"/>
</g>
</svg>
