<?xml version="1.0" encoding="utf-8"?>
<!-- Generator: Adobe Illustrator 24.0.2, SVG Export Plug-In . SVG Version: 6.00 Build 0)  -->
<svg version="1.1" id="Capa_1" xmlns="http://www.w3.org/2000/svg" xmlns:xlink="http://www.w3.org/1999/xlink" x="0px" y="0px"
	 viewBox="0 0 69.82 69.82" style="enable-background:new 0 0 69.82 69.82;" xml:space="preserve">
<style type="text/css">
	.st0{fill:#D3A13C;}
	.st1{fill:#4D9748;}
	.st2{fill:#D32E3C;}
	.st3{fill:#E0432F;}
	.st4{fill:#2DAFD2;}
	.st5{fill:#B8252F;}
	.st6{fill:#9A2142;}
	.st7{fill:#E46831;}
	.st8{fill:#EEBB27;}
	.st9{fill:#EE9830;}
	.st10{fill:#B6872F;}
	.st11{fill:#CE2364;}
	.st12{fill:#268BC3;}
	.st13{fill:#5DAE49;}
	.st14{fill:#427D44;}
	.st15{fill:#1C4769;}
	.st16{fill:#0B6695;}
	.st17{fill:#FFFFFF;}
	.st18{fill-rule:evenodd;clip-rule:evenodd;fill:#00A0DB;}
	.st19{fill-rule:evenodd;clip-rule:evenodd;fill:#0782BE;}
	.st20{fill-rule:evenodd;clip-rule:evenodd;fill:#FFFFFF;}
	.st21{fill-rule:evenodd;clip-rule:evenodd;fill:#E86537;}
	.st22{fill-rule:evenodd;clip-rule:evenodd;fill:#034569;}
	.st23{fill-rule:evenodd;clip-rule:evenodd;fill:#DE2A66;}
	.st24{fill-rule:evenodd;clip-rule:evenodd;fill:#057C40;}
	.st25{fill-rule:evenodd;clip-rule:evenodd;fill:#CF9521;}
	.st26{fill-rule:evenodd;clip-rule:evenodd;fill:#B31D42;}
	.st27{fill-rule:evenodd;clip-rule:evenodd;fill:#D9272E;}
	.st28{fill-rule:evenodd;clip-rule:evenodd;fill:#E34538;}
	.st29{fill-rule:evenodd;clip-rule:evenodd;fill:#EF9431;}
	.st30{fill-rule:evenodd;clip-rule:evenodd;fill:#ECB129;}
	.st31{fill-rule:evenodd;clip-rule:evenodd;fill:#F7BC13;}
	.st32{fill-rule:evenodd;clip-rule:evenodd;fill:#19A240;}
	.st33{fill-rule:evenodd;clip-rule:evenodd;fill:#02983B;}
	.st34{fill-rule:evenodd;clip-rule:evenodd;fill:#E13244;}
	.st35{fill-rule:evenodd;clip-rule:evenodd;fill:#066698;}
	.st36{fill-rule:evenodd;clip-rule:evenodd;fill:#008CC4;}
	.st37{fill-rule:evenodd;clip-rule:evenodd;fill:#00A3C6;}
	.st38{fill-rule:evenodd;clip-rule:evenodd;fill:#067FC2;stroke:#067FC2;stroke-width:0.25;stroke-miterlimit:22.9256;}
	.st39{fill:none;stroke:#067FC2;stroke-width:0.25;stroke-miterlimit:22.9256;}
	.st40{fill:none;stroke:#119AD7;stroke-width:0.25;stroke-miterlimit:22.9256;}
	.st41{fill-rule:evenodd;clip-rule:evenodd;fill:#067FC2;}
</style>
<circle class="st6" cx="34.91" cy="34.91" r="34.91"/>
<g>
	<path class="st17" d="M19.19,21.61v-1.22c0-1.07-0.38-1.85-1.26-2.25c0.74-0.36,1.09-1.02,1.09-1.95v-0.46
		c0-1.75-0.91-2.69-2.64-2.69c-1.72,0-2.61,0.94-2.61,2.69v0.46c0,0.91,0.33,1.59,1.06,1.95c-0.88,0.4-1.24,1.17-1.24,2.25v1.22
		c0,1.7,0.81,2.89,2.79,2.89C18.38,24.5,19.19,23.31,19.19,21.61 M15.53,15.61c0-0.68,0.23-1.08,0.84-1.08
		c0.63,0,0.86,0.4,0.86,1.08v0.76c0,0.68-0.23,1.08-0.86,1.08c-0.61,0-0.84-0.4-0.84-1.08V15.61z M17.3,21.81
		c0,0.68-0.25,1.16-0.92,1.16c-0.66,0-0.91-0.48-0.91-1.16v-1.82c0-0.68,0.25-1.16,0.91-1.16c0.68,0,0.92,0.48,0.92,1.16V21.81z"/>
</g>
<g>
	<path class="st17" d="M22.77,18.03v-4.02h-0.82v-0.45h2.14v0.45h-0.82v4.02H22.77z"/>
	<path class="st17" d="M25.42,13.56c0.7,0,1,0.36,1,1.02v0.36c0,0.49-0.17,0.8-0.56,0.92c0.41,0.12,0.56,0.45,0.56,0.93v0.7
		c0,0.2,0.01,0.38,0.09,0.54h-0.5c-0.06-0.13-0.08-0.24-0.08-0.54v-0.7c0-0.5-0.24-0.66-0.65-0.66h-0.35v1.91h-0.5v-4.47H25.42z
		 M25.29,15.67c0.4,0,0.63-0.13,0.63-0.61v-0.43c0-0.4-0.15-0.61-0.52-0.61h-0.49v1.66H25.29z"/>
	<path class="st17" d="M27.44,17.13l-0.17,0.9h-0.46l0.86-4.47h0.72l0.86,4.47h-0.5l-0.17-0.9H27.44z M27.51,16.7h1L28,14.12
		L27.51,16.7z"/>
	<path class="st17" d="M30.64,13.56c0.7,0,0.97,0.33,0.97,0.99v0.21c0,0.47-0.13,0.77-0.52,0.89c0.43,0.12,0.6,0.47,0.6,0.96v0.38
		c0,0.67-0.33,1.05-1.02,1.05h-1.03v-4.47H30.64z M30.51,15.45c0.4,0,0.6-0.13,0.6-0.59V14.6c0-0.4-0.13-0.59-0.49-0.59h-0.49v1.44
		H30.51z M30.66,17.57c0.36,0,0.53-0.19,0.53-0.61v-0.4c0-0.5-0.2-0.66-0.63-0.66h-0.43v1.67H30.66z"/>
	<path class="st17" d="M32.64,17.13l-0.17,0.9h-0.46l0.86-4.47h0.72l0.86,4.47h-0.5l-0.17-0.9H32.64z M32.71,16.7h1l-0.5-2.58
		L32.71,16.7z"/>
	<path class="st17" d="M34.71,17.57c0.08,0.01,0.17,0.01,0.25,0.01c0.33-0.02,0.52-0.17,0.52-0.63v-3.4h0.49v3.37
		c0,0.84-0.42,1.1-0.95,1.11c-0.11,0-0.2,0.01-0.31-0.01V17.57z"/>
	<path class="st17" d="M36.42,14.64c0-0.68,0.34-1.12,1.02-1.12c0.69,0,1.03,0.44,1.03,1.12v2.31c0,0.68-0.34,1.12-1.03,1.12
		c-0.68,0-1.02-0.45-1.02-1.12V14.64z M36.92,16.97c0,0.41,0.17,0.64,0.53,0.64c0.36,0,0.53-0.24,0.53-0.64v-2.36
		c0-0.4-0.17-0.65-0.53-0.65c-0.36,0-0.53,0.24-0.53,0.65V16.97z"/>
	<path class="st17" d="M40.98,13.56c0.7,0,1.01,0.42,1.01,1.11v2.25c0,0.68-0.32,1.11-1.01,1.11h-1.05v-4.47H40.98z M40.98,17.57
		c0.36,0,0.53-0.22,0.53-0.63v-2.3c0-0.41-0.17-0.63-0.54-0.63h-0.54v3.56H40.98z"/>
	<path class="st17" d="M44.05,15.54v0.45h-1.09v1.59h1.34v0.45h-1.84v-4.47h1.84v0.45h-1.34v1.53H44.05z"/>
	<path class="st17" d="M46.74,14.64v0.4h-0.47v-0.43c0-0.4-0.16-0.65-0.52-0.65c-0.36,0-0.52,0.24-0.52,0.65v2.36
		c0,0.4,0.17,0.64,0.52,0.64c0.36,0,0.52-0.24,0.52-0.64v-0.58h0.47v0.56c0,0.68-0.32,1.12-1.01,1.12c-0.68,0-1-0.45-1-1.12v-2.31
		c0-0.68,0.32-1.12,1-1.12C46.42,13.51,46.74,13.96,46.74,14.64z"/>
	<path class="st17" d="M48.78,15.54v0.45h-1.09v1.59h1.34v0.45h-1.84v-4.47h1.84v0.45h-1.34v1.53H48.78z"/>
	<path class="st17" d="M49.93,18.03h-0.45v-4.47h0.63l1.03,3.23v-3.23h0.44v4.47h-0.52l-1.14-3.62V18.03z"/>
	<path class="st17" d="M52.75,18.03v-4.02h-0.82v-0.45h2.14v0.45h-0.82v4.02H52.75z"/>
	<path class="st17" d="M55.99,15.54v0.45H54.9v1.59h1.34v0.45H54.4v-4.47h1.84v0.45H54.9v1.53H55.99z"/>
	<path class="st17" d="M22.91,22.81l-0.95-2.87h0.52l0.7,2.2l0.7-2.2h0.47l-0.95,2.87v1.6h-0.49V22.81z"/>
	<path class="st17" d="M27.68,21.02v0.4h-0.47V21c0-0.4-0.16-0.65-0.52-0.65c-0.36,0-0.52,0.24-0.52,0.65v2.36
		c0,0.4,0.17,0.65,0.52,0.65c0.36,0,0.52-0.24,0.52-0.65v-0.58h0.47v0.55c0,0.68-0.32,1.13-1.01,1.13c-0.68,0-1-0.45-1-1.13v-2.31
		c0-0.68,0.32-1.13,1-1.13C27.36,19.9,27.68,20.35,27.68,21.02z"/>
	<path class="st17" d="M29.13,19.94c0.7,0,1,0.36,1,1.02v0.36c0,0.49-0.17,0.8-0.56,0.92c0.41,0.12,0.56,0.45,0.56,0.93v0.7
		c0,0.2,0.01,0.38,0.09,0.54h-0.5c-0.06-0.13-0.08-0.24-0.08-0.54v-0.7c0-0.5-0.24-0.66-0.65-0.66h-0.35v1.91h-0.5v-4.47H29.13z
		 M29,22.05c0.4,0,0.63-0.13,0.63-0.61v-0.43c0-0.4-0.15-0.61-0.52-0.61h-0.49v1.65H29z"/>
	<path class="st17" d="M32.24,21.92v0.45h-1.09v1.59h1.34v0.45h-1.84v-4.47h1.84v0.45h-1.34v1.53H32.24z"/>
	<path class="st17" d="M34.92,21.02v0.4h-0.47V21c0-0.4-0.16-0.65-0.52-0.65c-0.36,0-0.52,0.24-0.52,0.65v2.36
		c0,0.4,0.17,0.65,0.52,0.65c0.36,0,0.52-0.24,0.52-0.65v-0.58h0.47v0.55c0,0.68-0.32,1.13-1.01,1.13c-0.68,0-1-0.45-1-1.13v-2.31
		c0-0.68,0.32-1.13,1-1.13C34.6,19.9,34.92,20.35,34.92,21.02z"/>
	<path class="st17" d="M35.87,19.94v4.47h-0.5v-4.47H35.87z"/>
	<path class="st17" d="M38.03,24.41h-0.48l-0.74-3.56v3.56h-0.43v-4.47h0.7l0.74,3.57l0.71-3.57h0.7v4.47h-0.47v-3.6L38.03,24.41z"
		/>
	<path class="st17" d="M40.22,19.94v4.47h-0.5v-4.47H40.22z"/>
	<path class="st17" d="M42.32,21.92v0.45h-1.09v1.59h1.34v0.45h-1.84v-4.47h1.84v0.45h-1.34v1.53H42.32z"/>
	<path class="st17" d="M43.47,24.42h-0.45v-4.47h0.63l1.04,3.23v-3.23h0.44v4.47h-0.52l-1.14-3.62V24.42z"/>
	<path class="st17" d="M46.29,24.42V20.4h-0.82v-0.45h2.14v0.45h-0.82v4.02H46.29z"/>
	<path class="st17" d="M47.91,21.02c0-0.68,0.34-1.13,1.02-1.13c0.69,0,1.03,0.44,1.03,1.13v2.31c0,0.68-0.34,1.13-1.03,1.13
		c-0.68,0-1.02-0.45-1.02-1.13V21.02z M48.4,23.36c0,0.41,0.17,0.65,0.53,0.65c0.36,0,0.53-0.24,0.53-0.65V21
		c0-0.4-0.17-0.65-0.53-0.65c-0.36,0-0.53,0.24-0.53,0.65V23.36z"/>
	<path class="st17" d="M23.71,28.31v0.45h-1.09v1.59h1.34v0.45h-1.84v-4.47h1.84v0.45h-1.34v1.53H23.71z"/>
	<path class="st17" d="M26.39,27.41v0.4h-0.47v-0.43c0-0.4-0.16-0.65-0.52-0.65c-0.36,0-0.52,0.24-0.52,0.65v2.36
		c0,0.4,0.17,0.65,0.52,0.65c0.36,0,0.52-0.24,0.52-0.65v-0.58h0.47v0.55c0,0.68-0.32,1.13-1.01,1.13c-0.68,0-1-0.45-1-1.13v-2.31
		c0-0.68,0.32-1.12,1-1.12C26.08,26.29,26.39,26.73,26.39,27.41z"/>
	<path class="st17" d="M26.81,27.41c0-0.68,0.34-1.12,1.02-1.12c0.69,0,1.03,0.44,1.03,1.12v2.31c0,0.68-0.34,1.13-1.03,1.13
		c-0.68,0-1.02-0.45-1.02-1.13V27.41z M27.3,29.75c0,0.41,0.17,0.65,0.53,0.65c0.36,0,0.53-0.24,0.53-0.65v-2.36
		c0-0.4-0.17-0.65-0.53-0.65c-0.36,0-0.53,0.24-0.53,0.65V29.75z"/>
	<path class="st17" d="M29.77,30.8h-0.45v-4.47h0.63l1.03,3.23v-3.23h0.44v4.47h-0.52l-1.14-3.62V30.8z"/>
	<path class="st17" d="M33.96,27.41v2.31c0,0.68-0.34,1.13-1.03,1.13c-0.68,0-1.02-0.45-1.02-1.13v-2.31c0-0.68,0.34-1.12,1.02-1.12
		C33.62,26.29,33.96,26.73,33.96,27.41z M32.4,27.39v2.36c0,0.41,0.17,0.65,0.53,0.65c0.36,0,0.53-0.24,0.53-0.65v-2.36
		c0-0.4-0.17-0.65-0.53-0.65C32.57,26.74,32.4,26.98,32.4,27.39z M33.56,25.41l-0.59,0.66h-0.34l0.45-0.66H33.56z"/>
	<path class="st17" d="M36.08,30.8H35.6l-0.74-3.56v3.56h-0.43v-4.47h0.7l0.74,3.57l0.71-3.57h0.7v4.47h-0.47v-3.6L36.08,30.8z"/>
	<path class="st17" d="M38.27,26.33v4.47h-0.5v-4.47H38.27z"/>
	<path class="st17" d="M40.75,27.41v0.4h-0.47v-0.43c0-0.4-0.16-0.65-0.52-0.65c-0.36,0-0.52,0.24-0.52,0.65v2.36
		c0,0.4,0.17,0.65,0.52,0.65c0.36,0,0.52-0.24,0.52-0.65v-0.58h0.47v0.55c0,0.68-0.32,1.13-1.01,1.13c-0.68,0-1-0.45-1-1.13v-2.31
		c0-0.68,0.32-1.12,1-1.12C40.43,26.29,40.75,26.73,40.75,27.41z"/>
	<path class="st17" d="M41.17,27.41c0-0.68,0.34-1.12,1.02-1.12c0.69,0,1.03,0.44,1.03,1.12v2.31c0,0.68-0.34,1.13-1.03,1.13
		c-0.68,0-1.02-0.45-1.02-1.13V27.41z M41.66,29.75c0,0.41,0.17,0.65,0.53,0.65c0.36,0,0.53-0.24,0.53-0.65v-2.36
		c0-0.4-0.17-0.65-0.53-0.65c-0.36,0-0.53,0.24-0.53,0.65V29.75z"/>
</g>
<g>
	<g>
		<path class="st17" d="M44.38,41.88l-4.96,4.71c-0.19,0.19-0.28,0.32-0.28,0.71v13.21c0,0.16,0.13,0.28,0.28,0.28h5.12
			c0.16,0,0.28-0.13,0.28-0.28V42C44.82,41.84,44.7,41.56,44.38,41.88"/>
	</g>
	<g>
		<path class="st17" d="M30.1,48.02l-4.96,4.71c-0.19,0.19-0.28,0.32-0.28,0.71v7.07c0,0.16,0.13,0.28,0.28,0.28h5.12
			c0.16,0,0.28-0.13,0.28-0.28V48.14C30.55,47.98,30.43,47.7,30.1,48.02"/>
	</g>
	<g>
		<path class="st17" d="M46.63,36.17c0-0.04-0.01-0.08-0.04-0.11c-0.03-0.03-0.06-0.04-0.09-0.04l-0.03,0l-0.04,0l-3.79,0.86
			l-0.07,0.01c-0.03,0-0.05,0.02-0.07,0.04c-0.06,0.06-0.06,0.15,0,0.2l0.04,0.04l0.87,0.87l-8.6,8.6l-3.97-3.97
			c-0.05-0.05-0.12-0.05-0.16,0l-1.08,1.08c0,0,0,0,0,0l-6.37,6.36c-0.04,0.04-0.04,0.12,0,0.16l1.08,1.08
			c0.04,0.04,0.12,0.04,0.16,0l6.29-6.28l2.88,2.88c0,0,0,0.01,0.01,0.01l1.08,1.08c0.04,0.05,0.12,0.05,0.16,0l9.76-9.76l0.91,0.91
			c0.05,0.06,0.15,0.06,0.2,0c0.03-0.03,0.04-0.06,0.04-0.09v-0.01l0.83-3.87L46.63,36.17z"/>
	</g>
	<g>
		<path class="st17" d="M37.27,48.85l-2.4,2.42c-0.05,0.04-0.11,0.04-0.15-0.01l-2.17-2.21c-0.4-0.4-0.48-0.08-0.48,0.08v11.39
			c0,0.16,0.13,0.28,0.28,0.28h5.12c0.15,0,0.28-0.13,0.28-0.28V48.94C37.74,48.78,37.62,48.5,37.27,48.85"/>
	</g>
</g>
</svg>
