<?xml version="1.0" standalone="no"?>
<!DOCTYPE svg PUBLIC "-//W3C//DTD SVG 20010904//EN"
 "http://www.w3.org/TR/2001/REC-SVG-20010904/DTD/svg10.dtd">
<svg version="1.0" xmlns="http://www.w3.org/2000/svg"
 width="1072.000000pt" height="467.000000pt" viewBox="0 0 1072.000000 467.000000"
 preserveAspectRatio="xMidYMid meet">
<metadata>
Created by potrace 1.16, written by Peter Selinger 2001-2019
</metadata>
<g transform="translate(0.000000,467.000000) scale(0.100000,-0.100000)"
fill="#000000" stroke="none">
<path d="M5493 3458 c3 -13 29 -144 57 -293 28 -148 53 -282 56 -297 5 -27 8
-28 70 -28 58 0 64 2 69 23 8 35 115 601 115 609 0 5 -26 8 -58 8 l-58 0 -28
-177 c-16 -98 -31 -181 -35 -185 -3 -4 -19 76 -35 177 l-30 185 -64 0 c-62 0
-64 -1 -59 -22z"/>
<path d="M5870 3160 l0 -320 65 0 65 0 0 320 0 320 -65 0 -65 0 0 -320z"/>
<path d="M6020 3160 l0 -322 120 4 c136 5 160 15 195 84 18 35 20 59 20 239 0
182 -2 203 -20 234 -39 66 -63 76 -196 80 l-119 3 0 -322z m198 208 c9 -9 12
-68 12 -204 0 -209 -4 -224 -56 -224 l-24 0 0 220 0 220 28 0 c15 0 33 -5 40
-12z"/>
<path d="M6461 3428 c-12 -56 -111 -581 -111 -585 0 -2 26 -3 59 -3 l59 0 8
58 9 57 47 3 c51 3 44 12 64 -88 5 -30 7 -30 68 -30 l63 0 -23 123 c-13 67
-41 211 -61 320 l-37 197 -67 0 -68 0 -10 -52z"/>
<path d="M3758 2982 l-118 -137 0 -132 c0 -73 4 -133 9 -133 4 0 45 37 90 83
l81 82 0 -557 0 -558 135 0 135 0 0 745 0 745 -107 0 -108 0 -117 -138z"/>
<path d="M4220 2695 l0 -425 125 0 125 0 0 45 c0 80 36 125 100 125 85 0 95
-31 95 -305 0 -277 -9 -305 -99 -305 -79 0 -105 57 -106 233 l0 97 -121 0
-121 0 5 -152 c4 -168 12 -203 60 -275 108 -162 462 -165 584 -5 59 78 65 117
61 434 -3 274 -4 285 -27 336 -29 65 -95 125 -156 142 -55 15 -159 9 -200 -13
-17 -8 -40 -25 -52 -37 l-23 -21 0 171 0 170 215 0 215 0 0 105 0 105 -340 0
-340 0 0 -425z"/>
<path d="M6603 2640 c-72 -37 -78 -61 -78 -305 0 -184 2 -215 18 -247 35 -69
149 -100 227 -60 51 26 71 69 78 167 l5 85 -61 0 -61 0 -3 -76 c-2 -60 -7 -79
-20 -88 -13 -8 -23 -8 -35 0 -16 10 -18 32 -18 219 0 187 2 209 18 219 33 21
52 -4 55 -73 l3 -61 61 0 61 0 -6 70 c-10 119 -46 161 -144 167 -45 3 -68 -1
-100 -17z"/>
<path d="M6952 2641 c-73 -34 -82 -67 -82 -306 0 -177 3 -205 20 -243 26 -57
87 -86 167 -80 64 6 100 29 128 84 18 35 20 59 20 239 0 180 -2 204 -20 239
-29 57 -64 79 -132 83 -43 3 -69 -2 -101 -16z m116 -93 c9 -9 12 -70 12 -213
0 -213 -3 -225 -47 -225 -36 0 -43 35 -43 225 0 96 4 185 10 199 10 28 47 35
68 14z"/>
<path d="M7301 2643 c-48 -24 -71 -67 -71 -135 0 -31 4 -68 10 -83 5 -14 48
-66 95 -116 l86 -90 -3 -52 c-3 -46 -6 -52 -26 -55 -39 -6 -52 15 -52 79 l0
59 -55 0 -55 0 0 -72 c0 -117 47 -168 155 -168 119 0 185 94 155 221 -11 44
-25 65 -100 143 -48 50 -90 104 -94 119 -10 40 9 69 42 65 25 -3 27 -7 30 -50
l3 -48 60 0 59 0 0 48 c0 97 -57 152 -155 152 -27 0 -65 -8 -84 -17z"/>
<path d="M7791 2643 c-56 -30 -76 -65 -76 -136 1 -80 18 -110 116 -213 71 -74
79 -87 79 -121 0 -44 -14 -63 -46 -63 -27 0 -34 17 -34 86 l0 54 -61 0 -62 0
5 -76 c4 -53 11 -83 25 -102 57 -79 193 -83 263 -8 21 23 25 39 28 100 5 93
-6 115 -114 228 -67 68 -84 92 -84 116 0 35 20 55 52 50 20 -3 23 -10 26 -50
l3 -48 60 0 59 0 0 33 c0 53 -18 101 -49 131 -39 37 -137 47 -190 19z"/>
<path d="M9494 2646 c-56 -24 -74 -59 -74 -141 0 -86 13 -109 122 -222 66 -68
69 -74 66 -114 -3 -49 -27 -71 -55 -53 -13 8 -19 27 -21 73 l-3 61 -54 0 -55
0 0 -79 c0 -65 4 -83 22 -106 61 -78 219 -72 269 9 21 35 26 145 9 191 -6 15
-48 66 -93 113 -46 48 -87 99 -91 115 -10 40 9 69 42 65 25 -3 27 -7 30 -50
l3 -48 60 0 59 0 0 48 c0 62 -26 113 -70 134 -41 21 -122 23 -166 4z"/>
<path d="M5510 2335 l0 -315 114 0 c101 0 117 2 147 23 60 40 64 58 64 292 0
234 -4 252 -64 292 -30 21 -46 23 -147 23 l-114 0 0 -315z m174 215 l26 -10 0
-205 0 -205 -26 -10 c-56 -22 -54 -29 -54 215 0 244 -2 237 54 215z"/>
<path d="M5870 2335 l0 -315 130 0 130 0 0 45 0 45 -70 0 -70 0 0 90 0 90 50
0 50 0 0 50 0 50 -50 0 -50 0 0 85 0 85 70 0 70 0 0 45 0 45 -130 0 -130 0 0
-315z"/>
<path d="M6240 2335 l0 -315 135 0 135 0 0 45 0 45 -75 0 -75 0 0 90 0 90 55
0 55 0 0 50 0 50 -55 0 -55 0 0 85 0 85 75 0 75 0 0 45 0 45 -135 0 -135 0 0
-315z"/>
<path d="M7570 2335 l0 -315 60 0 60 0 0 315 0 315 -60 0 -60 0 0 -315z"/>
<path d="M8030 2605 l0 -45 40 0 40 0 0 -270 0 -270 65 0 65 0 0 270 0 270 45
0 45 0 0 45 0 45 -150 0 -150 0 0 -45z"/>
<path d="M8340 2335 l0 -315 135 0 135 0 0 45 0 45 -70 0 -70 0 0 90 0 90 50
0 50 0 0 50 0 50 -50 0 -50 0 0 85 0 85 70 0 70 0 0 45 0 45 -135 0 -135 0 0
-315z"/>
<path d="M8630 2335 l0 -315 55 0 55 0 1 143 1 142 29 -140 c15 -77 28 -141
29 -142 0 -2 16 -3 35 -3 21 0 35 5 35 13 1 6 12 73 25 147 l23 135 1 -147 1
-148 60 0 60 0 0 315 0 315 -78 0 -78 0 -24 -145 c-14 -82 -27 -138 -31 -128
-3 10 -17 75 -30 145 l-24 128 -72 0 -73 0 0 -315z"/>
<path d="M9111 2373 c-28 -153 -54 -295 -58 -315 l-6 -38 62 0 c58 0 61 1 61
24 0 13 3 38 6 55 6 29 9 31 54 31 l48 0 7 -55 6 -55 66 0 65 0 -6 28 c-3 15
-28 149 -56 297 -28 149 -53 278 -56 288 -4 14 -17 17 -73 17 l-67 0 -53 -277z"/>
<path d="M5490 1780 l0 -50 45 0 45 0 0 -270 0 -270 65 0 65 0 0 270 0 270 40
0 40 0 0 50 0 50 -150 0 -150 0 0 -50z"/>
<path d="M5810 1510 l0 -320 135 0 135 0 0 50 0 50 -75 0 -75 0 0 90 0 90 55
0 55 0 0 45 0 45 -55 0 -55 0 0 85 0 85 75 0 75 0 0 50 0 50 -135 0 -135 0 0
-320z"/>
<path d="M6100 1511 l0 -321 60 0 60 0 1 123 1 122 41 -122 41 -123 64 0 c57
0 64 2 59 18 -2 9 -25 74 -50 144 l-45 126 28 12 c40 17 55 61 55 160 0 65 -4
92 -18 113 -33 51 -60 60 -183 65 l-114 5 0 -322z"/>
<path d="M6440 1511 l0 -321 60 0 60 0 0 123 1 122 42 -122 42 -123 62 0 c35
0 63 2 63 4 0 3 -22 68 -49 144 l-49 140 23 10 c45 21 59 57 59 151 1 95 -12
132 -56 164 -23 17 -47 21 -143 25 l-115 5 0 -322z"/>
<path d="M6780 1510 l0 -320 135 0 135 0 0 50 0 50 -75 0 -75 0 0 90 0 90 55
0 55 0 0 45 0 45 -55 0 -55 0 0 85 0 85 75 0 75 0 0 50 0 50 -135 0 -135 0 0
-320z"/>
<path d="M7122 1810 c-61 -37 -80 -135 -43 -217 11 -23 53 -77 95 -121 46 -48
78 -91 82 -108 7 -39 -11 -84 -34 -84 -31 0 -42 22 -42 82 l0 58 -60 0 -60 0
0 -60 c0 -68 16 -115 50 -145 33 -30 163 -34 206 -7 40 26 64 78 64 141 0 76
-20 112 -115 211 -72 75 -85 93 -85 122 0 38 15 58 42 58 23 0 38 -30 38 -74
l0 -36 55 0 55 0 0 58 c0 62 -21 106 -62 128 -38 21 -147 17 -186 -6z"/>
<path d="M7380 1780 l0 -50 40 0 40 0 0 -270 0 -270 65 0 65 0 0 270 0 270 40
0 40 0 0 50 0 50 -145 0 -145 0 0 -50z"/>
<path d="M7690 1511 l0 -321 60 0 60 0 1 118 0 117 41 -117 41 -118 64 0 c34
0 63 2 63 4 0 2 -22 67 -49 145 -47 132 -49 140 -31 146 11 3 29 18 40 32 17
22 20 40 20 122 0 159 -24 183 -195 189 l-115 5 0 -322z"/>
<path d="M8030 1510 l0 -320 135 0 135 0 0 50 0 50 -75 0 -75 0 0 90 0 90 55
0 55 0 0 45 0 45 -55 0 -55 0 0 85 0 85 75 0 75 0 0 50 0 50 -135 0 -135 0 0
-320z"/>
<path d="M8381 1817 c-40 -20 -64 -62 -69 -120 -7 -82 10 -118 102 -215 46
-48 86 -99 90 -114 13 -57 -13 -96 -55 -83 -16 5 -19 17 -19 71 l0 64 -60 0
-60 0 0 -65 c0 -73 15 -112 56 -144 21 -17 41 -21 96 -21 113 0 156 36 165
140 8 87 -8 121 -108 226 -76 79 -89 98 -89 126 0 35 15 58 36 58 24 0 44 -32
44 -71 l0 -39 55 0 55 0 0 51 c0 63 -24 115 -61 134 -34 18 -145 19 -178 2z"/>
</g>
</svg>
