<?xml version="1.0" standalone="no"?>
<!DOCTYPE svg PUBLIC "-//W3C//DTD SVG 20010904//EN"
 "http://www.w3.org/TR/2001/REC-SVG-20010904/DTD/svg10.dtd">
<svg version="1.0" xmlns="http://www.w3.org/2000/svg"
 width="1072.000000pt" height="467.000000pt" viewBox="0 0 1072.000000 467.000000"
 preserveAspectRatio="xMidYMid meet">
<metadata>
Created by potrace 1.16, written by Peter Selinger 2001-2019
</metadata>
<g transform="translate(0.000000,467.000000) scale(0.100000,-0.100000)"
fill="#000000" stroke="none">
<path d="M1525 3760 c-491 -45 -923 -338 -1143 -776 -51 -102 -104 -253 -128
-369 -26 -124 -26 -421 -1 -548 59 -291 186 -528 396 -737 209 -207 435 -329
724 -392 146 -31 418 -31 563 0 198 43 376 118 532 224 99 68 304 272 365 365
108 163 183 340 223 523 27 121 27 448 1 570 -62 288 -188 521 -392 725 -246
247 -542 385 -885 415 -125 11 -136 11 -255 0z m-716 -965 c50 -25 57 -90 15
-132 -21 -21 -32 -24 -62 -19 -74 11 -98 92 -41 140 35 30 49 32 88 11z m1750
-11 c47 -39 42 -102 -10 -129 -40 -21 -66 -19 -94 10 -42 41 -32 105 20 133
31 17 51 14 84 -14z m-1064 -49 c34 -33 32 -70 -5 -107 -36 -36 -71 -33 -108
9 -65 72 45 167 113 98z m434 15 c31 -16 45 -64 29 -97 -38 -79 -148 -56 -148
32 0 53 70 92 119 65z m-998 -168 c29 -32 29 -34 29 -151 0 -110 1 -119 20
-124 11 -3 29 -21 41 -41 20 -34 24 -36 70 -36 46 0 50 2 75 40 15 22 34 40
43 40 12 0 24 26 45 98 16 53 35 109 42 123 20 40 61 52 164 48 114 -5 116 -7
166 -167 38 -120 37 -147 -2 -147 -23 0 -38 29 -65 123 -12 40 -23 71 -26 69
-2 -3 14 -72 36 -154 23 -82 41 -154 41 -161 0 -7 -15 -12 -40 -12 l-39 0 -3
-121 c-3 -103 -6 -124 -20 -133 -13 -8 -23 -8 -35 0 -15 9 -18 30 -21 133 -1
67 -7 121 -12 121 -5 0 -11 -54 -12 -121 -3 -103 -6 -124 -21 -133 -12 -8 -22
-8 -35 0 -14 9 -17 30 -20 133 l-3 121 -39 0 c-22 0 -40 5 -40 10 0 6 18 75
40 155 48 173 51 210 6 70 -30 -95 -33 -100 -60 -100 -23 -1 -33 -10 -59 -57
-31 -56 -31 -58 -19 -118 7 -33 15 -67 19 -75 3 -9 -1 -15 -10 -15 -12 0 -17
-13 -19 -56 -3 -60 -20 -83 -52 -71 -12 5 -16 21 -18 69 l-1 63 -6 -59 c-6
-62 -24 -85 -55 -73 -12 5 -16 20 -16 67 0 47 -3 60 -15 60 -19 0 -19 8 1 84
l16 61 -33 61 c-26 50 -36 60 -54 56 -35 -6 -44 18 -48 129 -1 57 -4 -27 -5
-186 -2 -244 -4 -294 -18 -313 -18 -26 -46 -28 -68 -6 -13 13 -16 45 -16 190
0 107 -4 174 -10 174 -6 0 -11 -72 -12 -182 l-3 -183 -27 -9 c-57 -20 -58 -14
-58 310 0 184 -4 295 -10 299 -6 4 -10 -31 -10 -96 0 -85 -3 -106 -18 -123
-13 -14 -29 -77 -51 -196 -18 -96 -34 -177 -37 -179 -12 -13 -8 19 22 179 26
135 32 180 23 196 -7 13 -9 72 -7 156 3 119 5 139 23 158 32 35 53 40 178 37
l119 -2 29 -33z m1736 5 l28 -27 0 -148 0 -147 -24 -3 c-13 -2 -28 2 -32 10
-5 7 -9 59 -9 116 0 66 -4 101 -10 97 -6 -4 -10 -115 -10 -299 0 -324 -1 -330
-58 -310 l-27 9 -3 183 c-1 110 -6 182 -12 182 -6 0 -10 -67 -10 -174 0 -145
-3 -177 -16 -190 -22 -22 -50 -20 -68 6 -14 19 -16 68 -18 313 -1 186 -4 251
-7 181 -6 -114 -17 -137 -55 -123 -14 5 -16 26 -16 145 0 127 2 142 21 166 32
41 53 46 181 43 114 -2 119 -3 145 -30z m-658 -34 c23 -21 38 -55 65 -142 37
-121 36 -151 -5 -151 -23 0 -36 28 -65 135 -10 39 -20 63 -21 55 -2 -8 15 -80
36 -159 22 -80 38 -148 35 -153 -3 -4 -21 -8 -40 -8 l-34 0 0 -118 c0 -121 -6
-142 -40 -142 -38 0 -49 31 -53 150 l-3 115 -2 -121 c-2 -123 -8 -144 -43
-144 -37 0 -49 38 -49 152 l0 108 -35 0 c-27 0 -35 4 -35 18 0 9 18 82 40 161
44 157 48 208 5 65 -29 -96 -44 -120 -69 -111 -30 12 -29 38 4 145 50 166 54
170 192 171 82 1 90 -1 117 -26z m274 -312 c19 -7 32 -29 55 -87 16 -43 28
-84 25 -91 -10 -26 -34 -12 -53 30 l-19 42 0 -121 c-1 -130 -9 -152 -51 -139
-17 5 -20 15 -22 73 l-1 67 -6 -60 c-7 -69 -15 -85 -41 -85 -31 0 -40 32 -41
147 l-1 108 -15 -42 c-10 -30 -20 -43 -34 -43 -26 0 -24 21 6 100 28 71 42 94
65 103 24 9 107 8 133 -2z"/>
<path d="M3586 2964 l-116 -136 0 -134 c0 -75 4 -134 9 -134 5 0 46 39 90 87
l81 87 0 -567 0 -567 130 0 130 0 0 750 0 750 -104 0 -103 0 -117 -136z"/>
<path d="M4360 2775 l0 -315 55 0 55 0 0 135 0 135 55 0 55 0 0 50 0 50 -55 0
-55 0 0 85 0 85 70 0 70 0 0 45 0 45 -125 0 -125 0 0 -315z"/>
<path d="M4650 2775 l0 -315 55 0 55 0 0 315 0 315 -55 0 -55 0 0 -315z"/>
<path d="M4810 2775 l0 -315 50 0 50 0 1 178 0 177 56 -177 57 -178 53 0 53 0
0 315 0 315 -50 0 -50 0 -1 -157 -1 -158 -51 158 -51 157 -58 0 -58 0 0 -315z"/>
<path d="M6342 2223 c-33 -6 -88 -66 -96 -103 -8 -42 -8 -388 0 -430 11 -51
61 -97 117 -105 104 -16 177 27 196 116 14 64 14 350 0 409 -21 94 -101 135
-217 113z m92 -109 c13 -13 16 -46 16 -208 0 -208 -5 -231 -50 -224 -44 6 -51
37 -48 234 3 189 9 214 49 214 9 0 25 -7 33 -16z"/>
<path d="M4360 1905 l0 -315 106 0 c200 0 213 20 214 314 0 181 -2 204 -20
242 -30 61 -64 74 -194 74 l-106 0 0 -315z m181 206 c24 -19 24 -22 24 -206 0
-184 0 -187 -24 -206 -13 -10 -34 -19 -47 -19 l-24 0 0 225 0 225 24 0 c13 0
34 -9 47 -19z"/>
<path d="M4730 1905 l0 -315 130 0 130 0 0 45 0 45 -75 0 -75 0 0 90 0 90 55
0 55 0 0 50 0 50 -55 0 -55 0 0 85 0 85 75 0 75 0 0 45 0 45 -130 0 -130 0 0
-315z"/>
<path d="M5130 1905 l0 -315 120 0 120 0 0 45 0 45 -60 0 -60 0 0 270 0 270
-60 0 -60 0 0 -315z"/>
<path d="M5505 2198 c-3 -13 -28 -144 -56 -293 -28 -148 -53 -280 -56 -292 -5
-22 -2 -23 50 -23 58 0 67 7 67 55 0 46 9 55 61 55 48 0 48 0 54 -37 13 -75
11 -73 76 -73 53 0 60 2 55 18 -3 9 -28 139 -56 287 -28 149 -53 282 -56 298
-5 26 -8 27 -70 27 -58 0 -64 -2 -69 -22z"/>
<path d="M5890 1905 l0 -315 55 0 55 0 0 105 0 105 45 0 c59 0 109 21 132 56
15 23 18 49 18 154 0 138 -6 159 -58 190 -26 17 -51 20 -139 20 l-108 0 0
-315z m182 202 c13 -20 10 -191 -4 -205 -7 -7 -25 -12 -40 -12 l-28 0 0 121 0
122 32 -7 c18 -3 36 -12 40 -19z"/>
<path d="M6620 1905 l0 -315 110 0 c172 0 200 24 200 175 0 86 -9 120 -39 142
-14 10 -14 13 4 33 17 19 20 36 20 114 -1 145 -26 166 -196 166 l-99 0 0 -315z
m184 -51 c11 -11 16 -35 16 -79 0 -55 -3 -66 -22 -79 -12 -9 -33 -16 -45 -16
-22 0 -23 3 -23 95 l0 95 29 0 c16 0 37 -7 45 -16z"/>
<path d="M6970 1905 l0 -315 60 0 60 0 1 123 1 122 41 -122 41 -123 63 0 63 0
-50 140 -49 140 28 14 c39 21 51 56 51 152 0 158 -28 184 -205 184 l-105 0 0
-315z"/>
<path d="M7330 1905 l0 -315 130 0 130 0 0 45 0 45 -75 0 -75 0 0 90 0 90 55
0 55 0 0 50 0 50 -55 0 -55 0 0 85 0 85 75 0 75 0 0 45 0 45 -130 0 -130 0 0
-315z"/>
<path d="M7640 2175 l0 -44 73 -3 74 -3 -79 -215 c-61 -166 -78 -226 -78 -267
l0 -53 135 0 135 0 0 45 0 45 -75 0 c-41 0 -75 2 -75 4 0 3 36 103 80 223 58
159 80 231 80 265 l0 48 -135 0 -135 0 0 -45z"/>
<path d="M8046 2193 c-3 -16 -28 -149 -56 -298 -28 -148 -53 -278 -56 -288 -5
-16 0 -18 53 -15 l58 3 8 53 9 53 51 -3 52 -3 8 -52 9 -53 60 0 c57 0 60 1 55
23 -3 12 -29 146 -57 297 -28 151 -54 283 -56 293 -4 14 -17 17 -69 17 -61 0
-64 -1 -69 -27z"/>
</g>
</svg>
