<?xml version="1.0" encoding="utf-8"?>
<!-- Generator: Adobe Illustrator 24.0.2, SVG Export Plug-In . SVG Version: 6.00 Build 0)  -->
<svg version="1.1" id="Capa_1" xmlns="http://www.w3.org/2000/svg" xmlns:xlink="http://www.w3.org/1999/xlink" x="0px" y="0px"
	 viewBox="0 0 69.82 69.82" style="enable-background:new 0 0 69.82 69.82;" xml:space="preserve">
<style type="text/css">
	.st0{fill:#D3A13C;}
	.st1{fill:#4D9748;}
	.st2{fill:#D32E3C;}
	.st3{fill:#E0432F;}
	.st4{fill:#2DAFD2;}
	.st5{fill:#B8252F;}
	.st6{fill:#9A2142;}
	.st7{fill:#E46831;}
	.st8{fill:#EEBB27;}
	.st9{fill:#EE9830;}
	.st10{fill:#B6872F;}
	.st11{fill:#CE2364;}
	.st12{fill:#268BC3;}
	.st13{fill:#5DAE49;}
	.st14{fill:#427D44;}
	.st15{fill:#1C4769;}
	.st16{fill:#0B6695;}
	.st17{fill:#FFFFFF;}
	.st18{fill-rule:evenodd;clip-rule:evenodd;fill:#00A0DB;}
	.st19{fill-rule:evenodd;clip-rule:evenodd;fill:#0782BE;}
	.st20{fill-rule:evenodd;clip-rule:evenodd;fill:#FFFFFF;}
	.st21{fill-rule:evenodd;clip-rule:evenodd;fill:#E86537;}
	.st22{fill-rule:evenodd;clip-rule:evenodd;fill:#034569;}
	.st23{fill-rule:evenodd;clip-rule:evenodd;fill:#DE2A66;}
	.st24{fill-rule:evenodd;clip-rule:evenodd;fill:#057C40;}
	.st25{fill-rule:evenodd;clip-rule:evenodd;fill:#CF9521;}
	.st26{fill-rule:evenodd;clip-rule:evenodd;fill:#B31D42;}
	.st27{fill-rule:evenodd;clip-rule:evenodd;fill:#D9272E;}
	.st28{fill-rule:evenodd;clip-rule:evenodd;fill:#E34538;}
	.st29{fill-rule:evenodd;clip-rule:evenodd;fill:#EF9431;}
	.st30{fill-rule:evenodd;clip-rule:evenodd;fill:#ECB129;}
	.st31{fill-rule:evenodd;clip-rule:evenodd;fill:#F7BC13;}
	.st32{fill-rule:evenodd;clip-rule:evenodd;fill:#19A240;}
	.st33{fill-rule:evenodd;clip-rule:evenodd;fill:#02983B;}
	.st34{fill-rule:evenodd;clip-rule:evenodd;fill:#E13244;}
	.st35{fill-rule:evenodd;clip-rule:evenodd;fill:#066698;}
	.st36{fill-rule:evenodd;clip-rule:evenodd;fill:#008CC4;}
	.st37{fill-rule:evenodd;clip-rule:evenodd;fill:#00A3C6;}
	.st38{fill-rule:evenodd;clip-rule:evenodd;fill:#067FC2;stroke:#067FC2;stroke-width:0.25;stroke-miterlimit:22.9256;}
	.st39{fill:none;stroke:#067FC2;stroke-width:0.25;stroke-miterlimit:22.9256;}
	.st40{fill:none;stroke:#119AD7;stroke-width:0.25;stroke-miterlimit:22.9256;}
	.st41{fill-rule:evenodd;clip-rule:evenodd;fill:#067FC2;}
</style>
<circle class="st16" cx="34.91" cy="34.91" r="34.91"/>
<polygon class="st17" points="13.9,13.94 13.9,15.91 13.91,15.91 15.24,14.53 15.25,14.53 15.25,23.11 17.14,23.11 17.14,11.91 
	15.63,11.91 "/>
<path class="st17" d="M23.73,20.42v-1.65c0-1.84-0.73-2.76-2.08-2.76c-0.79,0-1.27,0.36-1.55,0.91h-0.02V14.5
	c0-0.68,0.21-1.16,0.89-1.16c0.68,0,0.88,0.4,0.88,1.09v0.75h1.72v-0.6c0-1.65-0.54-2.81-2.63-2.81c-1.98,0-2.73,1.27-2.73,3.03
	v5.46c0,1.74,0.76,2.99,2.75,2.99C22.96,23.25,23.73,22.16,23.73,20.42 M21.87,20.58c0,0.71-0.26,1.12-0.91,1.12
	c-0.63,0-0.88-0.43-0.88-1.12v-2.05c0.03-0.63,0.3-1.02,0.89-1.02c0.64,0,0.89,0.4,0.89,1.12V20.58z"/>
<g>
	<path class="st17" d="M29.03,12.06c0.7,0,0.99,0.41,0.99,1.08v0.53c0,0.7-0.33,1.07-1.03,1.07h-0.44v1.74h-0.49v-4.42H29.03z
		 M28.99,14.3c0.37,0,0.54-0.17,0.54-0.59v-0.59c0-0.4-0.14-0.61-0.51-0.61h-0.47v1.79H28.99z"/>
	<path class="st17" d="M30.82,15.59l-0.17,0.89H30.2l0.85-4.42h0.71l0.85,4.42h-0.49l-0.17-0.89H30.82z M30.89,15.17h0.99l-0.5-2.55
		L30.89,15.17z"/>
	<path class="st17" d="M34.93,16.49h-2.01v-0.44l1.52-3.53h-1.45v-0.45h1.95v0.44l-1.52,3.53h1.51V16.49z"/>
	<path class="st17" d="M35.6,16.49h-0.18v-0.61h0.47v0.57l-0.25,0.6h-0.2L35.6,16.49z"/>
	<path class="st17" d="M37.25,16.04c0.08,0.01,0.17,0.01,0.25,0.01c0.32-0.02,0.52-0.17,0.52-0.62v-3.36h0.49v3.33
		c0,0.83-0.41,1.09-0.94,1.1c-0.11,0-0.2,0.01-0.31-0.01V16.04z"/>
	<path class="st17" d="M39.46,15.44c0,0.4,0.16,0.64,0.52,0.64c0.35,0,0.51-0.24,0.51-0.64v-3.38h0.46v3.36
		c0,0.67-0.31,1.12-0.99,1.12c-0.68,0-0.99-0.45-0.99-1.12v-3.36h0.49V15.44z"/>
	<path class="st17" d="M43.35,13.12v0.12h-0.47V13.1c0-0.4-0.15-0.63-0.5-0.63c-0.35,0-0.51,0.23-0.51,0.63
		c0,0.99,1.49,1.09,1.49,2.33c0,0.67-0.32,1.11-1,1.11c-0.68,0-0.99-0.44-0.99-1.11v-0.25h0.46v0.28c0,0.4,0.17,0.63,0.52,0.63
		c0.35,0,0.52-0.23,0.52-0.63c0-0.99-1.48-1.08-1.48-2.33c0-0.68,0.32-1.11,0.98-1.11C43.04,12.02,43.35,12.45,43.35,13.12z"/>
	<path class="st17" d="M44.43,16.49v-3.98h-0.82v-0.45h2.12v0.45h-0.82v3.98H44.43z"/>
	<path class="st17" d="M46.56,12.06v4.42h-0.49v-4.42H46.56z"/>
	<path class="st17" d="M49.01,13.13v0.4h-0.47V13.1c0-0.4-0.16-0.64-0.52-0.64c-0.35,0-0.52,0.24-0.52,0.64v2.34
		c0,0.4,0.16,0.64,0.52,0.64c0.36,0,0.52-0.24,0.52-0.64v-0.58h0.47v0.55c0,0.67-0.32,1.11-1,1.11c-0.68,0-0.99-0.44-0.99-1.11
		v-2.29c0-0.67,0.32-1.11,0.99-1.11C48.7,12.02,49.01,12.46,49.01,13.13z"/>
	<path class="st17" d="M49.96,12.06v4.42h-0.49v-4.42H49.96z"/>
	<path class="st17" d="M50.96,15.59l-0.17,0.89h-0.46l0.85-4.42h0.71l0.85,4.42h-0.49l-0.17-0.89H50.96z M51.02,15.17h0.99
		l-0.5-2.55L51.02,15.17z"/>
	<path class="st17" d="M55.68,14.02v0.44H54.6v1.57h1.33v0.45h-1.82v-4.42h1.82v0.45H54.6v1.51H55.68z"/>
	<path class="st17" d="M28.55,18.38v4.42h-0.49v-4.42H28.55z"/>
	<path class="st17" d="M29.5,22.81h-0.44v-4.42h0.63l1.02,3.2v-3.2h0.44v4.42h-0.51l-1.13-3.58V22.81z"/>
	<path class="st17" d="M33.56,19.44v0.12h-0.47v-0.15c0-0.4-0.15-0.63-0.51-0.63c-0.35,0-0.51,0.23-0.51,0.63
		c0,0.99,1.49,1.09,1.49,2.33c0,0.67-0.32,1.11-1,1.11c-0.68,0-0.99-0.44-0.99-1.11v-0.25h0.46v0.28c0,0.4,0.16,0.63,0.52,0.63
		c0.35,0,0.52-0.23,0.52-0.63c0-0.99-1.48-1.08-1.48-2.33c0-0.68,0.32-1.11,0.98-1.11C33.24,18.34,33.56,18.77,33.56,19.44z"/>
	<path class="st17" d="M34.63,22.81v-3.98h-0.81v-0.45h2.12v0.45h-0.82v3.98H34.63z"/>
	<path class="st17" d="M36.76,18.38v4.42h-0.49v-4.42H36.76z"/>
	<path class="st17" d="M37.91,22.81v-3.98h-0.82v-0.45h2.12v0.45h-0.82v3.98H37.91z"/>
	<path class="st17" d="M40.01,21.76c0,0.4,0.16,0.64,0.52,0.64c0.35,0,0.51-0.24,0.51-0.64v-3.38h0.46v3.36
		c0,0.67-0.31,1.12-0.99,1.12c-0.68,0-0.99-0.45-0.99-1.12v-3.36h0.49V21.76z"/>
	<path class="st17" d="M43.95,19.45v0.4h-0.47v-0.42c0-0.4-0.16-0.64-0.52-0.64c-0.35,0-0.52,0.24-0.52,0.64v2.34
		c0,0.4,0.16,0.64,0.52,0.64c0.36,0,0.52-0.24,0.52-0.64v-0.58h0.47v0.55c0,0.67-0.32,1.11-1,1.11c-0.68,0-0.99-0.44-0.99-1.11
		v-2.29c0-0.67,0.32-1.11,0.99-1.11C43.63,18.34,43.95,18.78,43.95,19.45z"/>
	<path class="st17" d="M44.89,18.38v4.42h-0.49v-4.42H44.89z"/>
	<path class="st17" d="M45.35,19.45c0-0.68,0.33-1.11,1.01-1.11c0.68,0,1.02,0.44,1.02,1.11v2.29c0,0.67-0.34,1.11-1.02,1.11
		c-0.68,0-1.01-0.44-1.01-1.11V19.45z M45.84,21.76c0,0.4,0.17,0.64,0.52,0.64c0.36,0,0.53-0.23,0.53-0.64v-2.34
		c0-0.4-0.17-0.64-0.53-0.64c-0.35,0-0.52,0.24-0.52,0.64V21.76z"/>
	<path class="st17" d="M48.29,22.81h-0.44v-4.42h0.63l1.02,3.2v-3.2h0.44v4.42h-0.51l-1.13-3.58V22.81z"/>
	<path class="st17" d="M52.01,20.34v0.44h-1.08v1.58h1.33v0.45h-1.82v-4.42h1.82v0.45h-1.33v1.51H52.01z"/>
	<path class="st17" d="M54.63,19.44v0.12h-0.47v-0.15c0-0.4-0.15-0.63-0.5-0.63c-0.35,0-0.51,0.23-0.51,0.63
		c0,0.99,1.49,1.09,1.49,2.33c0,0.67-0.32,1.11-1,1.11c-0.68,0-0.99-0.44-0.99-1.11v-0.25h0.46v0.28c0,0.4,0.16,0.63,0.52,0.63
		c0.35,0,0.52-0.23,0.52-0.63c0-0.99-1.48-1.08-1.48-2.33c0-0.68,0.32-1.11,0.98-1.11C54.31,18.34,54.63,18.77,54.63,19.44z"/>
	<path class="st17" d="M29.98,25.76v0.12h-0.47v-0.15c0-0.4-0.15-0.63-0.51-0.63s-0.51,0.23-0.51,0.63c0,0.99,1.49,1.09,1.49,2.33
		c0,0.67-0.32,1.11-1,1.11c-0.68,0-0.99-0.44-0.99-1.11v-0.25h0.46v0.28c0,0.4,0.16,0.63,0.52,0.63c0.35,0,0.52-0.23,0.52-0.63
		c0-0.99-1.48-1.08-1.48-2.33c0-0.68,0.32-1.11,0.98-1.11C29.66,24.66,29.98,25.09,29.98,25.76z"/>
	<path class="st17" d="M30.38,25.77c0-0.68,0.33-1.11,1.01-1.11c0.68,0,1.02,0.44,1.02,1.11v2.29c0,0.67-0.34,1.11-1.02,1.11
		c-0.68,0-1.01-0.44-1.01-1.11V25.77z M30.86,28.08c0,0.41,0.17,0.64,0.53,0.64c0.36,0,0.53-0.23,0.53-0.64v-2.34
		c0-0.4-0.17-0.64-0.53-0.64c-0.35,0-0.53,0.24-0.53,0.64V28.08z"/>
	<path class="st17" d="M32.87,29.13V24.7h0.49v3.98h1.26v0.45H32.87z"/>
	<path class="st17" d="M35.49,24.7v4.42H35V24.7H35.49z"/>
	<path class="st17" d="M37.04,24.7c0.69,0,1,0.42,1,1.1v2.23c0,0.68-0.32,1.09-1,1.09H36V24.7H37.04z M37.03,28.68
		c0.35,0,0.53-0.22,0.53-0.63v-2.28c0-0.41-0.17-0.63-0.53-0.63h-0.53v3.53H37.03z"/>
	<path class="st17" d="M39,28.24l-0.17,0.89h-0.46l0.85-4.42h0.71l0.85,4.42h-0.49l-0.17-0.89H39z M39.06,27.81h0.99l-0.5-2.55
		L39.06,27.81z"/>
	<path class="st17" d="M42.15,24.7c0.7,0,0.99,0.35,0.99,1.01v0.36c0,0.49-0.17,0.79-0.55,0.91c0.4,0.12,0.56,0.45,0.56,0.92v0.69
		c0,0.2,0.01,0.38,0.09,0.53h-0.5c-0.06-0.13-0.08-0.24-0.08-0.54v-0.69c0-0.5-0.23-0.66-0.64-0.66h-0.35v1.89h-0.49V24.7H42.15z
		 M42.02,26.79c0.39,0,0.63-0.13,0.63-0.61v-0.42c0-0.4-0.15-0.61-0.51-0.61h-0.48v1.64H42.02z"/>
	<path class="st17" d="M44.15,24.7v4.42h-0.49V24.7H44.15z"/>
	<path class="st17" d="M45.15,28.24l-0.17,0.89h-0.46l0.85-4.42h0.71l0.85,4.42h-0.49l-0.17-0.89H45.15z M45.22,27.81h0.99
		l-0.5-2.55L45.22,27.81z"/>
	<path class="st17" d="M49.24,25.76v0.12h-0.47v-0.15c0-0.4-0.15-0.63-0.51-0.63c-0.35,0-0.51,0.23-0.51,0.63
		c0,0.99,1.49,1.09,1.49,2.33c0,0.67-0.32,1.11-1,1.11c-0.68,0-0.99-0.44-0.99-1.11v-0.25h0.46v0.28c0,0.4,0.16,0.63,0.52,0.63
		c0.35,0,0.52-0.23,0.52-0.63c0-0.99-1.48-1.08-1.48-2.33c0-0.68,0.32-1.11,0.98-1.11C48.92,24.66,49.24,25.09,49.24,25.76z"/>
</g>
<g>
	<path class="st17" d="M44.67,33.4c0,0-0.56,0.75-0.4,1.47c0.16,0.73,0.99,1.16,0.99,1.16s0.56-0.75,0.4-1.47
		C45.5,33.84,44.67,33.4,44.67,33.4"/>
	<path class="st17" d="M43.76,37.66c0,0,0.56-0.75,0.4-1.47c-0.16-0.73-0.99-1.16-0.99-1.16s-0.56,0.75-0.4,1.47
		C42.93,37.23,43.76,37.66,43.76,37.66"/>
	<path class="st17" d="M46.07,36.87c0,0,0.59,0.6,1.27,0.54c0.68-0.06,1.18-0.76,1.18-0.76s-0.59-0.6-1.27-0.54
		C46.57,36.17,46.07,36.87,46.07,36.87"/>
	<path class="st17" d="M47.04,33.67c-0.55,0.56-0.47,1.54-0.47,1.54s0.97,0.08,1.52-0.47c0.55-0.56,0.47-1.54,0.47-1.54
		S47.59,33.11,47.04,33.67"/>
	<path class="st17" d="M45.83,39.08c0.67,0.08,1.31-0.5,1.31-0.5S46.67,37.88,46,37.8c-0.67-0.08-1.31,0.5-1.31,0.5
		S45.15,39,45.83,39.08"/>
	<path class="st17" d="M46.43,50.78h-5.03c-0.39,0-0.71,0.32-0.71,0.71c0,0.39,0.32,0.71,0.71,0.71h5.03c0.39,0,0.71-0.32,0.71-0.71
		C47.14,51.1,46.82,50.78,46.43,50.78"/>
	<g>
		<path class="st17" d="M46.43,58.63h-5.03c-0.39,0-0.71,0.32-0.71,0.71c0,0.39,0.32,0.71,0.71,0.71h5.03
			c0.39,0,0.71-0.32,0.71-0.71C47.14,58.95,46.82,58.63,46.43,58.63"/>
	</g>
	<path class="st17" d="M23.79,49.05c-0.12-0.04-0.24-0.07-0.35-0.09C23.44,48.96,23.57,49,23.79,49.05"/>
	<path class="st17" d="M46.24,52.7h-4.66c-0.22,0-0.41,0.18-0.41,0.41v1.41l-3.04,0.33l-4.45-0.1v-2.72
		c0.59-0.08,1.18-0.19,1.77-0.36c4.28-1.21,5.21-4.75,5.12-7.2c-0.09-2.49,0.71-3.46,1.85-3.89c0.33-0.12,0.65-0.2,0.95-0.25
		c0.01,0.61,0.14,1.33,0.41,2.17c0.1,0,0.2-0.01,0.3-0.02c-0.29-0.87-0.41-1.58-0.42-2.19c0.59-0.07,1.01-0.03,1.01-0.03
		s-0.4-0.21-0.96-0.69c0.19-1.18,0.9-1.91,1.62-2.65c0.4-0.41,0.81-0.83,1.13-1.33l-0.25-0.16c-0.31,0.48-0.71,0.89-1.1,1.28
		c-0.71,0.72-1.42,1.46-1.66,2.63c-0.23-0.21-0.48-0.45-0.73-0.74c-1.06-1.18-2.42-0.31-4.35,1.49c-1.94,1.8-4.38,1.87-6.76-0.57
		c-3.14-3.22-5.88-3.2-7.76-3.02c1.29,0.55,1.74,1.75,2.39,4.8c0.68,3.2,2.4,4.65,4.75,4.85c-1.31,0.46-1.37,1.2-3.13,2.41
		c-1.37,0.95-3.29,0.65-4.08,0.47c1.43,0.45,3.13,1.95,4.65,2.47c0.88,0.3,1.82,0.49,2.77,0.57v2.6l-7.97-0.18v1.81l14.88-0.34
		l3.04,0.33v1.41c0,0.22,0.18,0.41,0.41,0.41h4.66c0.22,0,0.41-0.18,0.41-0.41v-4.63C46.65,52.88,46.47,52.7,46.24,52.7
		 M31.95,52.13c0.33,0.01,0.66,0,1-0.03v2.63l-1-0.02V52.13z"/>
	<path class="st17" d="M22.81,56.03c0,0.38-0.27,0.69-0.6,0.69h-0.36c-0.33,0-0.6-0.31-0.6-0.69v-1.25c0-0.38,0.27-0.69,0.6-0.69
		h0.36c0.33,0,0.6,0.31,0.6,0.69V56.03z"/>
</g>
</svg>
