<?xml version="1.0" encoding="utf-8"?>
<!-- Generator: Adobe Illustrator 24.0.2, SVG Export Plug-In . SVG Version: 6.00 Build 0)  -->
<svg version="1.1" id="Capa_1" xmlns="http://www.w3.org/2000/svg" xmlns:xlink="http://www.w3.org/1999/xlink" x="0px" y="0px"
	 viewBox="0 0 69.82 69.82" style="enable-background:new 0 0 69.82 69.82;" xml:space="preserve">
<style type="text/css">
	.st0{fill:#D3A13C;}
	.st1{fill:#4D9748;}
	.st2{fill:#D32E3C;}
	.st3{fill:#E0432F;}
	.st4{fill:#2DAFD2;}
	.st5{fill:#B8252F;}
	.st6{fill:#9A2142;}
	.st7{fill:#E46831;}
	.st8{fill:#EEBB27;}
	.st9{fill:#EE9830;}
	.st10{fill:#B6872F;}
	.st11{fill:#CE2364;}
	.st12{fill:#268BC3;}
	.st13{fill:#5DAE49;}
	.st14{fill:#427D44;}
	.st15{fill:#1C4769;}
	.st16{fill:#0B6695;}
	.st17{fill:#FFFFFF;}
	.st18{fill-rule:evenodd;clip-rule:evenodd;fill:#00A0DB;}
	.st19{fill-rule:evenodd;clip-rule:evenodd;fill:#0782BE;}
	.st20{fill-rule:evenodd;clip-rule:evenodd;fill:#FFFFFF;}
	.st21{fill-rule:evenodd;clip-rule:evenodd;fill:#E86537;}
	.st22{fill-rule:evenodd;clip-rule:evenodd;fill:#034569;}
	.st23{fill-rule:evenodd;clip-rule:evenodd;fill:#DE2A66;}
	.st24{fill-rule:evenodd;clip-rule:evenodd;fill:#057C40;}
	.st25{fill-rule:evenodd;clip-rule:evenodd;fill:#CF9521;}
	.st26{fill-rule:evenodd;clip-rule:evenodd;fill:#B31D42;}
	.st27{fill-rule:evenodd;clip-rule:evenodd;fill:#D9272E;}
	.st28{fill-rule:evenodd;clip-rule:evenodd;fill:#E34538;}
	.st29{fill-rule:evenodd;clip-rule:evenodd;fill:#EF9431;}
	.st30{fill-rule:evenodd;clip-rule:evenodd;fill:#ECB129;}
	.st31{fill-rule:evenodd;clip-rule:evenodd;fill:#F7BC13;}
	.st32{fill-rule:evenodd;clip-rule:evenodd;fill:#19A240;}
	.st33{fill-rule:evenodd;clip-rule:evenodd;fill:#02983B;}
	.st34{fill-rule:evenodd;clip-rule:evenodd;fill:#E13244;}
	.st35{fill-rule:evenodd;clip-rule:evenodd;fill:#066698;}
	.st36{fill-rule:evenodd;clip-rule:evenodd;fill:#008CC4;}
	.st37{fill-rule:evenodd;clip-rule:evenodd;fill:#00A3C6;}
	.st38{fill-rule:evenodd;clip-rule:evenodd;fill:#067FC2;stroke:#067FC2;stroke-width:0.25;stroke-miterlimit:22.9256;}
	.st39{fill:none;stroke:#067FC2;stroke-width:0.25;stroke-miterlimit:22.9256;}
	.st40{fill:none;stroke:#119AD7;stroke-width:0.25;stroke-miterlimit:22.9256;}
	.st41{fill-rule:evenodd;clip-rule:evenodd;fill:#067FC2;}
</style>
<circle class="st1" cx="34.91" cy="34.91" r="34.91"/>
<g>
	<path class="st17" d="M21.09,26.91c1.9,0,2.73-1.01,2.73-2.56V22.7c0-1.02-0.45-1.69-1.39-1.9c0.78-0.25,1.29-0.88,1.29-1.82V18
		c0-1.59-0.76-2.56-2.5-2.56c-1.95,0-2.63,1.16-2.63,2.81v0.99h1.72V18.1c0-0.69,0.21-1.09,0.81-1.09c0.59,0,0.81,0.4,0.81,1.01
		v1.21c0,0.59-0.4,0.91-1.01,0.91h-0.71v1.44h0.79c0.66,0,0.92,0.31,0.92,0.91v1.85c0,0.59-0.26,1.01-0.84,1.01
		c-0.64,0-0.88-0.43-0.88-1.09v-1.6H18.5v1.47C18.5,25.82,19.18,26.91,21.09,26.91"/>
	<path class="st17" d="M29.86,16.12v0.14H29.3v-0.18c0-0.48-0.18-0.76-0.61-0.76c-0.43,0-0.61,0.28-0.61,0.75
		c0,1.2,1.79,1.31,1.79,2.81c0,0.81-0.39,1.33-1.2,1.33c-0.81,0-1.2-0.52-1.2-1.33v-0.3h0.56v0.33c0,0.48,0.2,0.76,0.62,0.76
		c0.43,0,0.63-0.28,0.63-0.76c0-1.19-1.78-1.3-1.78-2.8c0-0.82,0.38-1.33,1.18-1.33C29.48,14.79,29.86,15.32,29.86,16.12z"/>
	<path class="st17" d="M30.99,19.1l-0.21,1.07h-0.55l1.02-5.33h0.86l1.02,5.33h-0.59l-0.21-1.07H30.99z M31.06,18.59h1.19l-0.6-3.08
		L31.06,18.59z"/>
	<path class="st17" d="M33.6,20.17v-5.33h0.59v4.79h1.52v0.54H33.6z"/>
	<path class="st17" d="M36.73,18.92c0,0.48,0.19,0.77,0.62,0.77c0.43,0,0.62-0.29,0.62-0.77v-4.07h0.55v4.04
		c0,0.81-0.37,1.35-1.2,1.35c-0.81,0-1.19-0.54-1.19-1.35v-4.04h0.59V18.92z"/>
	<path class="st17" d="M40.36,14.84c0.83,0,1.21,0.5,1.21,1.33v2.69c0,0.81-0.38,1.32-1.21,1.32h-1.25v-5.33H40.36z M40.35,19.63
		c0.43,0,0.63-0.27,0.63-0.75v-2.74c0-0.49-0.21-0.75-0.64-0.75h-0.64v4.25H40.35z"/>
	<path class="st17" d="M44.25,18.26l-1.13-3.42h0.62l0.83,2.62l0.84-2.62h0.56l-1.13,3.42v1.91h-0.59V18.26z"/>
	<path class="st17" d="M28.75,22.46c0.83,0,1.16,0.4,1.16,1.18v0.25c0,0.56-0.16,0.91-0.63,1.06C29.8,25.09,30,25.5,30,26.09v0.45
		c0,0.8-0.39,1.25-1.22,1.25h-1.23v-5.33H28.75z M28.61,24.72c0.47,0,0.72-0.15,0.72-0.71V23.7c0-0.47-0.16-0.7-0.59-0.7h-0.59v1.72
		H28.61z M28.78,27.25c0.43,0,0.63-0.23,0.63-0.72v-0.47c0-0.59-0.24-0.79-0.75-0.79h-0.52v1.99H28.78z"/>
	<path class="st17" d="M31.13,22.46v5.33h-0.59v-5.33H31.13z"/>
	<path class="st17" d="M33.64,24.82v0.53h-1.3v1.9h1.6v0.54h-2.19v-5.33h2.19V23h-1.6v1.82H33.64z"/>
	<path class="st17" d="M35.01,27.79h-0.53v-5.33h0.75l1.23,3.85v-3.85h0.53v5.33h-0.62l-1.36-4.31V27.79z"/>
	<path class="st17" d="M39.49,24.82v0.53h-1.3v1.9h1.6v0.54H37.6v-5.33h2.19V23h-1.6v1.82H39.49z"/>
	<path class="st17" d="M42.64,23.74v0.14h-0.56V23.7c0-0.48-0.18-0.76-0.61-0.76c-0.43,0-0.61,0.28-0.61,0.75
		c0,1.2,1.79,1.31,1.79,2.81c0,0.81-0.39,1.33-1.2,1.33c-0.81,0-1.2-0.53-1.2-1.33v-0.3h0.56v0.33c0,0.48,0.2,0.76,0.62,0.76
		c0.43,0,0.62-0.28,0.62-0.76c0-1.19-1.78-1.3-1.78-2.8c0-0.82,0.38-1.33,1.18-1.33C42.26,22.4,42.64,22.93,42.64,23.74z"/>
	<path class="st17" d="M43.94,27.79V23h-0.98v-0.54h2.55V23h-0.98v4.79H43.94z"/>
	<path class="st17" d="M46.22,26.71l-0.21,1.07h-0.55l1.02-5.33h0.86l1.02,5.33h-0.59l-0.21-1.07H46.22z M46.3,26.2h1.19l-0.6-3.08
		L46.3,26.2z"/>
	<path class="st17" d="M50.02,22.46c0.84,0,1.19,0.43,1.19,1.22v0.43c0,0.59-0.21,0.95-0.66,1.1c0.49,0.14,0.67,0.54,0.67,1.11v0.83
		c0,0.24,0.01,0.46,0.11,0.64h-0.6c-0.07-0.15-0.1-0.29-0.1-0.65V26.3c0-0.6-0.28-0.79-0.78-0.79h-0.42v2.28h-0.59v-5.33H50.02z
		 M49.87,24.97c0.47,0,0.75-0.15,0.75-0.73v-0.51c0-0.48-0.17-0.73-0.62-0.73h-0.58v1.97H49.87z"/>
</g>
<g>
	<g>
		<path class="st17" d="M51.26,50.05c0-1.37-0.88-2.48-2.21-2.48c-0.67,0-1.47,0.73-1.91,1.18c-0.44-0.45-1.19-1.18-1.85-1.18
			c-1.33,0-2.27,1.11-2.27,2.48c0,0.69,0.27,1.31,0.71,1.76l3.42,3.42l3.41-3.42l0,0C50.98,51.35,51.26,50.73,51.26,50.05"/>
	</g>
	<g>
		<path class="st17" d="M36.71,60.81c-0.01,0-0.02,0-0.03,0c-0.26-0.02-0.47-0.21-0.52-0.46l-1.74-10.11l-2.63,4.88
			c-0.12,0.21-0.36,0.33-0.59,0.29c-0.24-0.04-0.42-0.23-0.46-0.47l-1.12-7.8l-2.04,4.59c-0.09,0.2-0.29,0.33-0.51,0.33h-7.94
			c-0.31,0-0.56-0.25-0.56-0.56c0-0.31,0.25-0.56,0.56-0.56h7.57l2.69-6.03c0.1-0.23,0.34-0.36,0.59-0.33
			c0.25,0.03,0.44,0.23,0.48,0.48l1.15,8.04l2.59-4.81c0.11-0.21,0.35-0.33,0.58-0.29c0.24,0.04,0.42,0.22,0.46,0.46l1.61,9.36
			l5.86-19.46c0.07-0.22,0.26-0.38,0.49-0.4c0.23-0.02,0.45,0.11,0.55,0.32l3.08,6.39c0.13,0.28,0.02,0.61-0.26,0.75
			c-0.28,0.13-0.62,0.02-0.75-0.26l-2.45-5.09l-6.13,20.36C37.17,60.65,36.95,60.81,36.71,60.81"/>
	</g>
</g>
</svg>
