<?xml version="1.0" standalone="no"?>
<!DOCTYPE svg PUBLIC "-//W3C//DTD SVG 20010904//EN"
 "http://www.w3.org/TR/2001/REC-SVG-20010904/DTD/svg10.dtd">
<svg version="1.0" xmlns="http://www.w3.org/2000/svg"
 width="1072.000000pt" height="467.000000pt" viewBox="0 0 1072.000000 467.000000"
 preserveAspectRatio="xMidYMid meet">
<metadata>
Created by potrace 1.16, written by Peter Selinger 2001-2019
</metadata>
<g transform="translate(0.000000,467.000000) scale(0.100000,-0.100000)"
fill="#000000" stroke="none">
<path d="M5453 3460 c-60 -36 -68 -64 -71 -270 -4 -214 5 -273 48 -315 35 -34
98 -47 161 -34 79 17 109 72 109 202 l0 67 -55 0 -55 0 0 -74 c0 -76 -13 -106
-45 -106 -7 0 -21 7 -29 16 -14 13 -16 47 -16 213 0 207 3 221 45 221 34 0 45
-20 45 -82 l0 -58 55 0 55 0 -1 58 c-2 132 -44 182 -153 182 -43 0 -71 -6 -93
-20z"/>
<path d="M7742 3460 c-40 -24 -62 -73 -62 -135 0 -68 22 -109 104 -194 88 -91
100 -112 91 -157 -4 -25 -12 -35 -31 -40 -39 -10 -54 11 -54 77 l0 59 -55 0
-55 0 0 -66 c0 -119 42 -166 149 -167 107 -1 153 43 159 152 5 88 -7 111 -114
223 -89 92 -103 127 -68 162 34 35 74 6 74 -55 l0 -39 50 0 50 0 0 54 c0 72
-12 102 -52 126 -46 28 -141 27 -186 0z"/>
<path d="M5740 3155 l0 -315 60 0 60 0 0 315 0 315 -60 0 -60 0 0 -315z"/>
<path d="M5912 3196 c3 -260 4 -276 24 -303 11 -15 33 -34 48 -41 38 -19 136
-18 173 2 58 30 63 55 63 350 l0 266 -50 0 -50 0 0 -239 c0 -132 -4 -251 -9
-264 -14 -37 -50 -45 -73 -17 -16 20 -18 46 -18 271 l0 249 -55 0 -56 0 3
-274z"/>
<path d="M6270 3155 l0 -315 103 0 c125 0 174 18 201 74 15 32 17 65 14 262
l-3 226 -37 34 -38 34 -120 0 -120 0 0 -315z m192 208 c16 -14 18 -35 18 -204
0 -207 -3 -219 -61 -219 l-29 0 0 220 0 220 27 0 c14 0 35 -7 45 -17z"/>
<path d="M6721 3418 c-6 -29 -31 -163 -56 -298 -26 -135 -48 -253 -51 -262 -5
-16 2 -18 51 -18 61 0 60 -1 70 73 l6 47 49 0 c53 0 53 0 65 -77 l7 -43 60 0
60 0 -6 28 c-3 15 -28 149 -56 297 -28 149 -53 278 -56 288 -4 14 -17 17 -69
17 l-64 0 -10 -52z"/>
<path d="M7010 3155 l0 -315 103 0 c128 0 179 20 204 77 21 48 30 317 15 418
-10 61 -16 74 -46 103 l-36 32 -120 0 -120 0 0 -315z m192 208 c16 -14 18 -35
18 -204 0 -207 -3 -219 -61 -219 l-29 0 0 220 0 220 27 0 c14 0 35 -7 45 -17z"/>
<path d="M7380 3155 l0 -315 130 0 130 0 0 50 0 50 -70 0 -70 0 0 90 0 90 50
0 50 0 0 45 0 45 -50 0 -50 0 0 85 0 85 70 0 70 0 0 45 0 45 -130 0 -130 0 0
-315z"/>
<path d="M8125 3428 c7 -24 33 -111 59 -195 44 -144 46 -157 46 -272 l0 -121
60 0 60 0 0 128 c0 127 1 131 55 312 30 101 55 185 55 187 0 2 -25 3 -55 3
l-54 0 -15 -52 c-9 -29 -20 -75 -27 -101 -6 -27 -15 -45 -19 -40 -4 4 -18 50
-31 101 l-24 92 -61 0 -62 0 13 -42z"/>
<path d="M3885 2916 l-115 -134 0 -136 c0 -75 2 -136 5 -136 2 0 42 39 89 88
l85 87 1 -562 0 -563 130 0 130 0 0 745 0 745 -105 0 -104 0 -116 -134z"/>
<path d="M4453 2917 l-112 -132 -1 -140 0 -140 90 90 90 90 0 -563 0 -562 130
0 130 0 0 745 0 745 -107 0 -108 0 -112 -133z"/>
<path d="M5484 2650 c-18 -6 -46 -26 -62 -44 -39 -45 -45 -90 -40 -316 3 -198
13 -230 78 -262 44 -22 121 -23 166 -2 50 24 67 64 72 167 l4 87 -56 0 -56 0
0 -73 c0 -77 -9 -97 -45 -97 -42 0 -45 14 -45 221 0 166 2 200 16 213 38 39
74 5 74 -70 l0 -54 56 0 57 0 -6 76 c-6 79 -21 113 -61 139 -30 20 -111 27
-152 15z"/>
<path d="M5852 2651 c-51 -13 -89 -56 -103 -115 -7 -32 -10 -121 -8 -236 4
-163 6 -189 24 -219 54 -91 215 -96 279 -8 19 26 21 45 24 242 3 196 2 218
-16 259 -13 28 -31 50 -51 60 -38 20 -106 28 -149 17z m84 -105 c17 -13 19
-30 22 -198 3 -198 -4 -230 -46 -236 -49 -7 -52 6 -52 219 0 166 2 200 16 213
19 20 35 20 60 2z"/>
<path d="M8962 2651 c-64 -16 -102 -74 -102 -153 1 -63 29 -115 105 -188 72
-71 95 -105 95 -145 0 -32 -34 -67 -57 -58 -27 10 -33 23 -33 81 l0 52 -55 0
-55 0 0 -62 c0 -113 51 -168 153 -168 109 0 157 50 157 163 0 87 -12 110 -116
219 -66 67 -84 93 -84 115 0 34 16 53 45 53 32 0 45 -20 45 -67 l0 -43 56 0
57 0 -6 59 c-8 75 -24 109 -59 127 -36 18 -104 25 -146 15z"/>
<path d="M6120 2335 l0 -315 50 0 50 0 1 158 1 157 31 -157 31 -158 31 0 31 0
30 173 29 172 3 -172 2 -173 50 0 50 0 0 315 0 315 -69 0 -69 0 -17 -97 c-10
-54 -23 -127 -29 -163 l-12 -65 -27 145 c-38 199 -27 180 -103 180 l-64 0 0
-315z"/>
<path d="M6562 2376 c3 -259 4 -276 24 -303 29 -39 80 -63 137 -63 62 0 108
22 132 63 18 29 20 55 23 305 l3 272 -55 0 -56 0 0 -251 c0 -153 -4 -258 -10
-270 -12 -21 -50 -25 -68 -7 -9 9 -12 83 -12 270 l0 258 -61 0 -60 0 3 -274z"/>
<path d="M6930 2335 l0 -315 45 0 45 0 2 178 3 177 55 -177 55 -178 52 0 53 0
0 315 0 315 -50 0 -50 0 -1 -157 c0 -87 -2 -153 -4 -148 -2 6 -25 76 -50 158
l-47 147 -54 0 -54 0 0 -315z"/>
<path d="M7290 2335 l0 -315 55 0 55 0 0 315 0 315 -55 0 -55 0 0 -315z"/>
<path d="M7450 2334 l0 -316 124 4 c122 3 125 4 155 32 44 43 54 100 50 311
-4 159 -6 184 -24 215 -33 56 -73 70 -197 70 l-108 0 0 -316z m198 204 c8 -8
12 -67 12 -202 0 -209 -5 -226 -62 -226 l-28 0 0 220 0 220 33 0 c18 0 38 -5
45 -12z"/>
<path d="M7910 2641 c0 -5 -25 -140 -55 -299 -30 -159 -55 -297 -55 -306 0
-13 11 -16 54 -16 l54 0 7 55 6 55 54 0 53 0 7 -55 6 -55 60 0 c32 0 59 3 59
8 0 4 -27 144 -59 312 l-58 305 -66 3 c-39 2 -67 -1 -67 -7z"/>
<path d="M8190 2334 l0 -316 124 4 c122 3 125 4 155 32 44 43 54 100 50 311
-4 159 -6 184 -24 215 -33 56 -73 70 -197 70 l-108 0 0 -316z m198 204 c8 -8
12 -67 12 -202 0 -209 -5 -226 -62 -226 l-28 0 0 220 0 220 33 0 c18 0 38 -5
45 -12z"/>
<path d="M8570 2335 l0 -315 130 0 130 0 0 45 0 45 -75 0 -75 0 0 90 0 90 50
0 50 0 0 50 0 50 -50 0 -50 0 0 80 0 80 75 0 75 0 0 50 0 50 -130 0 -130 0 0
-315z"/>
<path d="M5455 1816 c-49 -21 -68 -51 -73 -111 -8 -97 1 -117 98 -221 85 -89
90 -97 90 -138 0 -50 -18 -71 -54 -62 -26 6 -36 30 -36 94 l0 42 -50 0 -50 0
0 -72 c0 -122 38 -162 151 -162 102 0 146 38 156 136 9 92 -8 128 -108 233
-77 82 -89 98 -89 129 0 25 6 38 19 46 38 20 71 -15 71 -76 0 -22 4 -24 50
-24 l50 0 0 51 c0 66 -23 113 -65 133 -40 19 -119 20 -160 2z"/>
<path d="M5810 1812 c-19 -9 -43 -33 -55 -52 -18 -32 -20 -52 -20 -257 0 -244
1 -246 69 -297 37 -28 137 -29 182 -2 64 38 69 58 72 291 3 202 2 212 -20 255
-28 55 -73 80 -143 80 -28 0 -65 -8 -85 -18z m118 -94 c9 -9 12 -70 12 -215 0
-190 -1 -203 -19 -213 -27 -14 -37 -13 -55 6 -14 13 -16 47 -16 213 0 207 3
221 45 221 12 0 26 -5 33 -12z"/>
<path d="M6172 1813 c-57 -28 -83 -107 -62 -193 10 -43 26 -65 101 -145 72
-77 89 -100 89 -125 0 -43 -17 -70 -43 -70 -36 0 -47 19 -47 82 l0 58 -55 0
-55 0 0 -62 c0 -117 50 -173 153 -173 116 1 157 44 157 165 0 88 -9 106 -100
195 -101 99 -123 148 -79 179 39 27 69 3 69 -56 l0 -38 56 0 57 0 -6 60 c-6
72 -26 107 -72 126 -45 19 -122 17 -163 -3z"/>
<path d="M8592 1813 c-57 -28 -83 -107 -62 -193 10 -43 26 -65 101 -145 72
-77 89 -100 89 -125 0 -43 -17 -70 -43 -70 -36 0 -47 19 -47 82 l0 58 -56 0
-57 0 5 -74 c8 -118 48 -161 153 -161 114 1 155 45 155 165 0 86 -10 108 -85
180 -110 106 -138 163 -94 194 39 27 69 3 69 -56 l0 -38 56 0 57 0 -6 60 c-6
72 -26 107 -72 126 -45 19 -122 17 -163 -3z"/>
<path d="M6430 1775 l0 -45 45 0 45 0 0 -270 0 -270 55 0 55 0 0 270 0 270 45
0 45 0 0 45 0 45 -145 0 -145 0 0 -45z"/>
<path d="M6760 1505 l0 -315 130 0 130 0 0 50 0 50 -75 0 -75 0 0 90 0 90 55
0 55 0 0 45 0 45 -55 0 -55 0 0 85 0 85 75 0 75 0 0 45 0 45 -130 0 -130 0 0
-315z"/>
<path d="M7060 1505 l0 -315 50 0 50 0 2 177 3 177 55 -177 55 -177 52 0 53 0
0 315 0 315 -50 0 -50 0 -1 -157 c0 -87 -2 -153 -4 -148 -2 6 -25 76 -50 158
l-47 147 -59 0 -59 0 0 -315z"/>
<path d="M7430 1505 l0 -315 55 0 55 0 0 315 0 315 -55 0 -55 0 0 -315z"/>
<path d="M7590 1505 l0 -315 105 0 c113 0 156 11 190 50 17 19 20 36 20 126 0
99 -1 105 -26 130 -26 26 -26 27 -8 45 16 16 19 34 19 115 0 96 0 96 -34 130
l-34 34 -116 0 -116 0 0 -315z"/>
<path d="M7950 1505 l0 -315 120 0 120 0 0 50 0 50 -60 0 -60 0 0 265 0 265
-60 0 -60 0 0 -315z"/>
<path d="M8230 1505 l0 -315 130 0 130 0 0 50 0 50 -75 0 -75 0 0 90 0 90 55
0 55 0 0 45 0 45 -55 0 -55 0 0 85 0 85 75 0 75 0 0 45 0 45 -130 0 -130 0 0
-315z"/>
</g>
</svg>
