<?xml version="1.0" standalone="no"?>
<!DOCTYPE svg PUBLIC "-//W3C//DTD SVG 20010904//EN"
 "http://www.w3.org/TR/2001/REC-SVG-20010904/DTD/svg10.dtd">
<svg version="1.0" xmlns="http://www.w3.org/2000/svg"
 width="1072.000000pt" height="467.000000pt" viewBox="0 0 1072.000000 467.000000"
 preserveAspectRatio="xMidYMid meet">
<metadata>
Created by potrace 1.16, written by Peter Selinger 2001-2019
</metadata>
<g transform="translate(0.000000,467.000000) scale(0.100000,-0.100000)"
fill="#000000" stroke="none">
<path d="M1665 3754 c-348 -53 -602 -178 -836 -413 -211 -210 -330 -431 -395
-731 -26 -120 -27 -429 -1 -550 96 -450 374 -812 772 -1005 208 -102 340 -134
581 -142 261 -9 445 28 661 132 429 205 722 596 799 1065 12 72 15 138 11 270
-8 244 -39 375 -142 585 -192 395 -552 673 -995 770 -73 16 -388 29 -455 19z
m460 -900 c167 -28 349 -102 505 -207 84 -57 239 -203 288 -271 l32 -44 -42
-54 c-179 -229 -473 -405 -776 -465 -130 -25 -367 -23 -499 6 -176 37 -331
102 -483 204 -81 53 -293 260 -305 296 -9 29 42 97 150 199 304 288 702 406
1130 336z"/>
<path d="M1825 2760 c-27 -5 -70 -17 -95 -27 l-45 -18 55 -5 c45 -4 55 -9 58
-25 2 -11 13 -30 25 -42 11 -13 19 -24 16 -26 -34 -27 -82 -48 -91 -39 -6 6
-2 15 14 26 22 16 21 17 -42 10 -106 -11 -141 -37 -82 -61 26 -11 33 -10 52 7
41 35 64 17 25 -20 -19 -18 -30 -21 -63 -15 -47 8 -97 -13 -105 -45 -4 -16
-10 -19 -36 -14 -27 6 -31 4 -31 -15 0 -25 13 -23 78 6 29 14 35 14 50 1 9 -9
22 -13 29 -11 6 2 14 -1 18 -6 3 -6 15 -11 26 -11 21 0 25 -20 7 -38 -16 -16
-58 -15 -99 2 -67 27 -87 28 -109 4 -25 -27 -27 -110 -4 -187 12 -43 18 -51
32 -46 41 18 58 15 90 -13 17 -16 32 -36 32 -45 0 -9 5 -19 10 -22 6 -3 10
-18 10 -33 0 -15 5 -34 10 -42 26 -41 120 80 120 156 0 18 8 38 20 49 26 24
25 41 -4 60 -25 17 -53 71 -42 82 3 4 19 -6 34 -20 31 -30 63 -35 82 -12 9 11
4 22 -29 56 -22 23 -38 46 -35 51 9 15 86 -36 96 -64 7 -18 21 -31 46 -39 20
-6 45 -19 55 -28 17 -14 20 -14 32 3 8 10 11 24 9 30 -7 17 20 38 38 31 8 -3
21 -24 28 -45 13 -39 65 -99 76 -88 3 4 0 16 -6 28 -18 34 -4 68 35 84 31 14
34 18 29 45 -7 33 10 43 33 20 6 -6 16 -8 22 -5 31 20 -12 132 -80 210 -101
115 -251 170 -394 146z"/>
<path d="M2215 2188 c-86 -28 -101 -37 -114 -65 -8 -18 -9 -35 -1 -57 9 -29
14 -31 59 -33 45 -2 52 1 74 30 37 49 67 114 61 131 -3 9 -9 15 -13 15 -3 -1
-33 -11 -66 -21z"/>
<path d="M2090 1983 c-8 -3 -25 -15 -38 -26 l-22 -21 -74 24 c-50 15 -86 21
-111 17 -39 -6 -75 -31 -75 -52 0 -28 156 -34 241 -9 59 17 129 53 129 66 0 9
-27 9 -50 1z"/>
<path d="M4457 3139 c-164 -39 -236 -161 -237 -401 l0 -98 120 0 120 0 0 105
c0 146 22 185 104 185 22 0 45 -9 63 -24 28 -24 28 -25 31 -158 2 -94 -1 -140
-10 -158 -20 -38 -73 -60 -145 -60 l-63 0 0 -100 0 -100 70 0 c81 0 126 -18
140 -56 6 -14 10 -97 10 -185 0 -181 -8 -211 -65 -235 -45 -19 -90 -8 -120 28
-24 28 -25 35 -25 174 l0 144 -120 0 -120 0 0 -147 c0 -197 20 -272 92 -344
62 -61 106 -74 258 -74 117 0 141 3 181 21 67 31 123 86 150 147 21 47 24 70
27 237 3 117 0 204 -7 236 -14 59 -64 124 -111 144 -16 7 -30 15 -29 19 0 3
19 20 42 36 25 18 52 50 67 80 24 47 25 59 24 205 0 137 -3 162 -23 212 -30
77 -99 139 -179 162 -62 17 -182 20 -245 5z"/>
<path d="M3762 2998 l-112 -133 0 -140 0 -140 90 90 90 90 0 -563 0 -562 130
0 130 0 0 745 0 745 -108 0 -107 0 -113 -132z"/>
<path d="M5924 3030 c-43 -14 -82 -55 -95 -103 -6 -24 -9 -116 -7 -236 3 -175
5 -200 23 -231 26 -44 77 -70 138 -70 108 0 147 46 155 181 l5 89 -57 0 -56 0
0 -73 c0 -77 -9 -97 -45 -97 -42 0 -45 14 -45 221 0 166 2 200 16 213 38 39
74 5 74 -70 l0 -54 56 0 57 0 -7 77 c-6 79 -20 112 -59 137 -29 19 -114 28
-153 16z"/>
<path d="M6284 3030 c-43 -14 -82 -55 -95 -103 -6 -24 -9 -116 -7 -236 3 -221
11 -250 78 -283 44 -22 121 -23 166 -2 49 23 66 63 72 166 l5 88 -57 0 -56 0
0 -73 c0 -77 -9 -97 -45 -97 -42 0 -45 14 -45 221 0 166 2 200 16 213 38 39
74 5 74 -70 l0 -54 56 0 57 0 -6 76 c-8 111 -40 148 -132 158 -27 3 -64 1 -81
-4z"/>
<path d="M6807 3026 c-90 -33 -97 -56 -97 -313 0 -228 6 -255 62 -297 42 -30
133 -34 185 -8 68 35 73 57 73 310 0 212 -1 220 -23 253 -12 19 -34 40 -49 47
-42 20 -109 24 -151 8z m95 -103 c16 -14 18 -35 18 -205 0 -111 -4 -197 -10
-209 -11 -20 -45 -25 -70 -9 -23 14 -28 381 -5 416 18 28 41 31 67 7z"/>
<path d="M5497 2723 c-32 -169 -57 -311 -57 -315 0 -5 24 -8 54 -8 l55 0 6 55
7 55 53 0 54 0 6 -55 7 -55 59 0 c50 0 59 3 58 18 0 9 -26 150 -57 312 l-57
295 -65 3 -65 3 -58 -308z"/>
<path d="M6540 2715 l0 -315 60 0 60 0 0 315 0 315 -60 0 -60 0 0 -315z"/>
<path d="M7080 2715 l0 -315 50 0 50 0 2 175 3 175 54 -175 54 -175 54 0 53 0
0 315 0 315 -50 0 -50 0 -1 -157 -1 -158 -51 158 -50 157 -59 0 -58 0 0 -315z"/>
<path d="M5450 1841 l0 -321 60 0 60 0 0 109 0 109 65 4 c55 3 70 8 93 31 26
27 27 31 30 158 5 204 -9 221 -195 227 l-113 4 0 -321z m188 207 c8 -8 12 -46
12 -103 0 -99 -7 -115 -52 -115 l-28 0 0 115 0 115 28 0 c15 0 33 -5 40 -12z"/>
<path d="M5874 2141 c-58 -35 -64 -65 -64 -301 0 -199 1 -215 22 -251 26 -47
70 -69 140 -69 66 0 115 25 140 71 16 30 18 59 18 247 0 238 -6 268 -62 302
-45 27 -150 28 -194 1z m126 -91 c19 -19 20 -33 20 -206 0 -109 -4 -193 -10
-205 -7 -12 -21 -19 -40 -19 -19 0 -33 7 -40 19 -6 12 -10 96 -10 205 0 173 1
187 20 206 11 11 25 20 30 20 6 0 19 -9 30 -20z"/>
<path d="M6180 1840 l0 -320 60 0 60 0 1 123 0 122 43 -120 43 -120 62 -3 c33
-2 61 -1 61 1 0 3 -22 67 -50 143 -49 134 -51 153 -17 154 4 0 16 15 27 33 16
26 20 50 20 123 0 151 -36 182 -212 183 l-98 1 0 -320z"/>
<path d="M6630 1840 l0 -320 130 0 130 0 0 50 0 50 -70 0 -70 0 0 90 0 90 50
0 50 0 0 45 0 45 -50 0 -50 0 0 85 0 85 70 0 70 0 0 50 0 50 -130 0 -130 0 0
-320z"/>
<path d="M6940 1840 l0 -320 120 0 120 0 0 50 0 50 -65 0 -65 0 0 270 0 270
-55 0 -55 0 0 -320z"/>
<path d="M7367 2130 c-52 -46 -59 -81 -55 -308 3 -219 8 -240 67 -279 26 -18
48 -23 93 -23 113 0 148 40 156 182 l5 88 -56 0 -56 0 -3 -76 c-3 -64 -6 -79
-23 -90 -18 -12 -24 -11 -43 2 -21 15 -22 20 -22 214 0 167 2 201 16 214 38
39 74 5 74 -70 l0 -54 55 0 55 0 0 40 c0 68 -20 136 -46 161 -21 20 -38 24
-103 27 -76 4 -79 3 -114 -28z"/>
<path d="M7670 1840 l0 -320 120 0 120 0 0 50 0 50 -60 0 -60 0 0 270 0 270
-60 0 -60 0 0 -320z"/>
<path d="M7950 1840 l0 -320 55 0 55 0 0 320 0 320 -55 0 -55 0 0 -320z"/>
<path d="M8110 1840 l0 -320 50 0 50 0 1 173 1 172 28 -135 c15 -74 31 -152
34 -172 6 -33 10 -38 35 -38 28 0 29 1 46 98 44 248 43 246 44 65 l1 -163 55
0 55 0 0 320 0 321 -72 -3 -73 -3 -25 -147 c-13 -82 -27 -148 -30 -148 -4 0
-19 68 -35 150 l-29 150 -68 0 -68 0 0 -320z"/>
<path d="M8655 2138 c-7 -32 -115 -604 -115 -612 0 -3 24 -6 54 -6 l54 0 7 43
c12 77 12 77 65 77 46 0 49 -2 54 -30 3 -16 9 -43 12 -60 5 -29 7 -30 65 -30
56 0 59 1 54 23 -8 35 -115 601 -115 609 0 5 -29 8 -65 8 -59 0 -65 -2 -70
-22z"/>
</g>
</svg>
