<?xml version="1.0" standalone="no"?>
<!DOCTYPE svg PUBLIC "-//W3C//DTD SVG 20010904//EN"
 "http://www.w3.org/TR/2001/REC-SVG-20010904/DTD/svg10.dtd">
<svg version="1.0" xmlns="http://www.w3.org/2000/svg"
 width="1072.000000pt" height="467.000000pt" viewBox="0 0 1072.000000 467.000000"
 preserveAspectRatio="xMidYMid meet">
<metadata>
Created by potrace 1.16, written by Peter Selinger 2001-2019
</metadata>
<g transform="translate(0.000000,467.000000) scale(0.100000,-0.100000)"
fill="#000000" stroke="none">
<path d="M1655 3749 c-480 -66 -885 -351 -1096 -772 -246 -489 -194 -1073 134
-1508 76 -102 233 -251 338 -321 167 -112 357 -188 564 -225 133 -24 370 -21
508 6 579 115 1018 556 1134 1138 26 134 24 415 -5 550 -124 573 -564 1008
-1133 1118 -102 20 -348 28 -444 14z m840 -719 c3 -5 -23 -40 -57 -78 -35 -38
-72 -88 -83 -111 l-19 -42 30 -24 29 -24 -29 -1 c-28 0 -29 -1 -23 -47 3 -27
9 -56 12 -65 5 -12 2 -18 -8 -18 -9 0 -18 20 -27 60 -14 67 -21 70 -79 40 -58
-29 -78 -80 -84 -215 -7 -128 -29 -203 -82 -275 -58 -79 -160 -136 -297 -165
-28 -5 -28 -7 -28 -80 l0 -75 158 1 c86 1 182 4 212 7 l55 7 5 50 5 50 160 0
160 0 0 -155 0 -155 -160 0 -160 0 -3 47 c-3 42 -6 49 -30 55 -32 9 -578 8
-834 -2 l-178 -7 0 60 0 59 230 -5 230 -5 0 71 0 70 -45 7 c-74 11 -151 41
-239 95 -46 27 -103 59 -127 70 -43 20 -43 21 -9 14 19 -4 63 -7 98 -6 80 1
126 23 219 106 l72 64 -33 6 c-50 10 -120 59 -155 110 -38 54 -54 97 -82 220
-28 118 -49 166 -88 198 -17 15 -31 30 -31 34 0 4 39 4 87 2 139 -9 230 -52
363 -175 91 -84 139 -107 220 -107 77 0 104 12 192 90 72 64 157 109 189 99
11 -4 35 -20 53 -35 l33 -29 17 36 c13 27 143 183 153 183 1 0 4 -4 8 -10z
m33 -902 c17 -17 15 -38 -5 -60 -14 -16 -34 -18 -170 -18 -85 0 -162 4 -172
10 -25 13 -33 37 -21 61 10 18 23 19 183 19 121 0 177 -4 185 -12z m-10 -454
c12 -8 22 -24 22 -34 0 -41 -35 -50 -197 -50 -140 0 -155 2 -173 20 -11 11
-20 25 -20 30 0 6 9 19 20 30 18 18 33 20 173 20 122 0 157 -3 175 -16z"/>
<path d="M7662 3521 c-71 -18 -110 -91 -97 -180 9 -62 17 -74 106 -167 43 -45
81 -93 84 -107 10 -38 2 -68 -20 -83 -18 -12 -24 -11 -43 2 -18 12 -22 25 -22
70 l0 54 -56 0 -57 0 5 -74 c3 -47 11 -85 22 -101 46 -71 200 -74 261 -6 13
16 20 41 23 86 7 111 0 127 -98 229 -49 50 -91 103 -95 118 -9 35 10 68 38 68
34 0 47 -19 47 -67 l0 -43 56 0 57 0 -5 63 c-6 71 -25 108 -64 126 -36 16
-102 22 -142 12z"/>
<path d="M8486 3520 c-16 -5 -42 -21 -57 -36 -42 -40 -51 -105 -47 -318 3
-159 5 -185 23 -215 26 -44 78 -71 138 -71 113 0 156 53 157 193 l0 77 -55 0
-55 0 0 -73 c0 -43 -5 -78 -12 -85 -18 -18 -56 -14 -68 7 -6 12 -10 98 -10
210 0 159 3 192 16 205 18 19 45 21 62 4 7 -7 12 -38 12 -70 l0 -58 56 0 57 0
-5 73 c-6 86 -22 123 -60 143 -37 19 -114 26 -152 14z"/>
<path d="M5590 3205 l0 -315 55 0 55 0 0 105 0 105 50 0 c28 0 64 7 80 15 54
28 60 47 60 188 0 196 -19 217 -200 217 l-100 0 0 -315z m178 203 c8 -8 12
-46 12 -103 0 -99 -7 -115 -52 -115 l-28 0 0 115 0 115 28 0 c15 0 33 -5 40
-12z"/>
<path d="M6000 3512 c0 -4 -25 -138 -55 -297 -30 -160 -55 -298 -55 -307 0
-15 9 -18 54 -18 l54 0 7 55 7 56 51 -3 52 -3 8 -52 9 -53 60 0 60 0 -6 28
c-3 15 -28 149 -56 297 -28 149 -53 278 -56 288 -4 14 -17 17 -70 17 -35 0
-64 -3 -64 -8z"/>
<path d="M6290 3470 l0 -50 70 0 c39 0 70 -4 70 -8 0 -4 -34 -100 -75 -213
-57 -156 -75 -216 -75 -256 l0 -53 135 0 135 0 0 45 0 45 -75 0 c-41 0 -75 2
-75 3 0 2 36 102 80 221 59 162 80 231 80 267 l0 49 -135 0 -135 0 0 -50z"/>
<path d="M7038 3253 c-3 -256 -4 -268 -22 -271 -31 -6 -46 26 -46 100 l0 68
-55 0 -55 0 0 -62 c1 -94 14 -147 44 -177 24 -23 34 -26 100 -26 60 0 80 4
103 21 45 34 51 75 52 357 l1 257 -60 0 -60 0 -2 -267z"/>
<path d="M7210 3248 c0 -256 1 -275 20 -306 24 -40 73 -62 135 -62 71 0 112
22 135 72 18 39 20 67 20 306 l0 262 -55 0 -55 0 0 -258 c0 -187 -3 -261 -12
-270 -18 -18 -56 -14 -68 7 -6 12 -10 117 -10 270 l0 251 -55 0 -55 0 0 -272z"/>
<path d="M7890 3470 l0 -50 45 0 45 0 0 -265 0 -265 55 0 55 0 0 265 0 265 45
0 45 0 0 50 0 50 -145 0 -145 0 0 -50z"/>
<path d="M8220 3205 l0 -315 55 0 55 0 0 315 0 315 -55 0 -55 0 0 -315z"/>
<path d="M8740 3205 l0 -315 60 0 60 0 0 315 0 315 -60 0 -60 0 0 -315z"/>
<path d="M9001 3468 c-6 -29 -31 -163 -56 -298 -25 -135 -48 -253 -51 -263 -5
-16 0 -18 53 -15 l58 3 8 53 9 52 48 0 c53 0 52 0 65 -72 l6 -38 61 0 c57 0
60 1 55 23 -3 12 -29 144 -57 292 -28 149 -54 280 -57 293 -5 20 -11 22 -68
22 l-64 0 -10 -52z"/>
<path d="M4503 3170 c-151 -32 -239 -131 -263 -295 -13 -91 -13 -829 0 -920
27 -184 133 -284 319 -301 39 -4 97 -2 136 5 138 24 220 92 256 213 19 61 20
87 16 295 -4 246 -9 274 -60 349 -47 71 -108 99 -212 99 -90 0 -147 -22 -184
-72 l-20 -28 -1 165 c0 174 8 226 39 254 26 23 84 31 121 16 45 -19 60 -56 60
-150 l0 -80 121 0 122 0 -6 113 c-3 68 -12 132 -23 162 -23 66 -94 136 -159
159 -59 20 -203 29 -262 16z m156 -774 c45 -24 54 -57 59 -222 7 -246 -16
-304 -118 -304 -41 0 -52 4 -74 30 -34 42 -38 71 -34 266 2 141 6 173 20 194
35 49 94 63 147 36z"/>
<path d="M3776 3024 l-116 -136 0 -134 c0 -75 4 -134 9 -134 5 0 46 39 90 88
l81 87 0 -562 0 -563 130 0 130 0 0 745 0 745 -104 0 -103 0 -117 -136z"/>
<path d="M5590 2335 l0 -315 125 0 125 0 0 45 0 45 -70 0 -70 0 0 90 0 90 50
0 50 0 0 45 0 45 -50 0 -50 0 0 85 0 85 70 0 70 0 0 50 0 50 -125 0 -125 0 0
-315z"/>
<path d="M5990 2335 l0 -315 55 0 55 0 0 315 0 315 -55 0 -55 0 0 -315z"/>
<path d="M6150 2335 l0 -315 50 0 50 0 1 173 c1 195 -5 199 69 -40 l41 -133
50 0 49 0 0 315 0 315 -45 0 -45 0 -2 -162 -3 -161 -50 161 -50 162 -57 0 -58
0 0 -315z"/>
<path d="M6568 2633 c-38 -24 -58 -71 -58 -132 0 -75 19 -110 111 -205 73 -77
82 -90 83 -126 1 -53 -23 -78 -59 -62 -23 11 -25 17 -25 72 l0 60 -56 0 -56 0
4 -80 c3 -74 5 -82 35 -112 29 -29 40 -33 100 -36 120 -6 173 44 173 161 0 79
-16 108 -115 210 -72 73 -85 91 -85 120 0 36 15 57 41 57 29 0 49 -29 49 -71
l0 -39 51 0 51 0 -4 70 c-3 60 -8 74 -31 98 -24 24 -36 27 -105 30 -60 2 -83
-1 -104 -15z"/>
<path d="M6840 2600 l0 -50 40 0 40 0 0 -265 0 -265 60 0 60 0 0 265 0 265 45
0 45 0 0 50 0 50 -145 0 -145 0 0 -50z"/>
<path d="M7160 2335 l0 -315 60 0 60 0 0 315 0 315 -60 0 -60 0 0 -315z"/>
<path d="M7320 2600 l0 -50 40 0 40 0 0 -265 0 -265 60 0 60 0 0 265 0 265 45
0 45 0 0 50 0 50 -145 0 -145 0 0 -50z"/>
<path d="M7642 2383 c3 -296 6 -309 67 -350 26 -18 48 -23 93 -23 77 0 114 20
139 73 17 38 19 68 19 305 l0 262 -55 0 -55 0 0 -258 c0 -271 -2 -282 -45
-282 -43 0 -45 11 -45 282 l0 258 -61 0 -60 0 3 -267z"/>
<path d="M8074 2631 c-57 -35 -64 -65 -64 -297 0 -189 2 -212 20 -250 26 -52
68 -74 142 -74 65 0 95 15 125 59 20 29 23 47 23 122 l0 89 -50 0 -50 0 0 -59
c0 -84 -12 -111 -50 -111 -45 0 -50 25 -50 231 0 166 1 180 20 199 11 11 26
20 34 20 25 0 46 -42 46 -92 l0 -48 50 0 50 0 0 65 c0 124 -38 165 -152 165
-44 0 -72 -6 -94 -19z"/>
<path d="M8370 2335 l0 -315 55 0 55 0 0 315 0 315 -55 0 -55 0 0 -315z"/>
<path d="M8603 2630 c-63 -38 -68 -60 -68 -300 0 -198 2 -218 20 -250 27 -46
76 -70 146 -70 67 0 115 27 141 80 15 30 18 65 18 239 0 184 -2 209 -20 246
-27 56 -63 75 -142 75 -45 0 -72 -6 -95 -20z m123 -84 c17 -13 19 -29 22 -198
3 -198 -4 -230 -46 -236 -49 -7 -52 6 -52 216 0 168 2 198 17 214 19 22 33 23
59 4z"/>
<path d="M8910 2335 l0 -315 50 0 50 0 2 167 3 166 51 -164 52 -164 51 -3 51
-3 0 315 0 316 -45 0 -45 0 0 -167 -1 -168 -53 165 -52 165 -57 3 -57 3 0
-316z"/>
<path d="M9270 2335 l0 -315 130 0 130 0 0 45 0 45 -70 0 -70 0 0 90 0 90 50
0 50 0 0 45 0 45 -50 0 -50 0 0 85 0 85 70 0 70 0 0 50 0 50 -130 0 -130 0 0
-315z"/>
<path d="M9628 2634 c-40 -21 -58 -64 -58 -134 0 -79 14 -105 111 -206 75 -78
79 -85 79 -128 0 -34 -5 -48 -19 -56 -42 -22 -71 16 -71 91 l0 39 -50 0 -50 0
0 -71 c0 -114 42 -159 149 -159 103 0 149 41 158 140 8 87 -8 122 -108 227
-76 79 -89 98 -89 127 0 40 21 60 54 52 24 -6 36 -30 36 -78 0 -27 2 -28 50
-28 l50 0 0 58 c0 66 -25 117 -66 132 -38 15 -145 11 -176 -6z"/>
<path d="M5650 1767 c-43 -22 -70 -74 -70 -134 0 -77 20 -115 109 -207 87 -90
105 -129 77 -171 -18 -27 -45 -32 -64 -13 -7 7 -12 38 -12 70 l0 58 -55 0 -55
0 0 -66 c0 -120 41 -164 152 -164 76 0 122 24 144 75 16 40 19 132 4 170 -5
14 -50 68 -100 120 -78 82 -90 100 -90 130 0 33 20 55 49 55 22 0 41 -33 41
-71 l0 -39 50 0 50 0 0 54 c0 72 -12 102 -52 126 -38 23 -138 27 -178 7z"/>
<path d="M6003 1761 c-63 -40 -68 -62 -68 -301 0 -239 5 -261 68 -301 48 -30
165 -24 203 11 49 46 54 73 54 290 0 217 -5 244 -54 290 -38 35 -155 41 -203
11z m123 -85 c17 -13 19 -30 22 -187 2 -96 1 -188 -3 -206 -8 -44 -38 -60 -71
-38 l-24 15 0 200 c0 194 1 199 22 214 27 19 29 20 54 2z"/>
<path d="M6310 1460 l0 -320 120 0 120 0 0 50 0 50 -60 0 -60 0 0 270 0 270
-60 0 -60 0 0 -320z"/>
<path d="M6590 1460 l0 -320 55 0 55 0 0 320 0 320 -55 0 -55 0 0 -320z"/>
<path d="M6750 1460 l0 -322 113 4 c127 4 166 18 194 71 16 28 18 60 18 247 0
205 -1 217 -22 251 -32 51 -63 62 -190 67 l-113 4 0 -322z m194 204 c13 -13
16 -46 16 -204 0 -208 -3 -220 -61 -220 l-29 0 0 220 0 220 29 0 c16 0 37 -7
45 -16z"/>
<path d="M7210 1771 c0 -5 -25 -140 -55 -300 -30 -160 -55 -300 -55 -311 0
-19 5 -21 53 -18 l52 3 9 58 8 58 52 -3 51 -3 9 -57 8 -58 59 0 c33 0 59 3 59
8 0 8 -107 574 -115 610 -5 20 -11 22 -70 22 -36 0 -65 -4 -65 -9z"/>
<path d="M7555 1770 c-44 -18 -69 -58 -73 -119 -6 -87 10 -123 100 -217 46
-48 83 -96 88 -115 17 -58 -27 -110 -65 -79 -10 8 -15 32 -15 71 l0 59 -55 0
-55 0 0 -66 c0 -121 40 -164 152 -164 108 0 158 50 158 160 0 75 -22 116 -115
211 -75 76 -85 91 -85 122 0 26 6 39 20 47 43 23 70 -5 70 -72 0 -27 2 -28 50
-28 l50 0 0 55 c0 103 -43 145 -147 144 -32 0 -67 -4 -78 -9z"/>
</g>
</svg>
