<?xml version="1.0" standalone="no"?>
<!DOCTYPE svg PUBLIC "-//W3C//DTD SVG 20010904//EN"
 "http://www.w3.org/TR/2001/REC-SVG-20010904/DTD/svg10.dtd">
<svg version="1.0" xmlns="http://www.w3.org/2000/svg"
 width="1072.000000pt" height="467.000000pt" viewBox="0 0 1072.000000 467.000000"
 preserveAspectRatio="xMidYMid meet">
<metadata>
Created by potrace 1.16, written by Peter Selinger 2001-2019
</metadata>
<g transform="translate(0.000000,467.000000) scale(0.100000,-0.100000)"
fill="#000000" stroke="none">
<path d="M1636 3749 c-508 -70 -948 -415 -1136 -892 -69 -176 -83 -252 -88
-483 -5 -239 5 -318 64 -492 151 -457 529 -808 1001 -933 106 -29 136 -32 305
-37 147 -3 209 -1 290 13 599 99 1068 568 1173 1174 20 112 19 352 -1 472 -19
112 -79 300 -127 395 -99 197 -275 403 -450 528 -101 72 -274 161 -379 196
-134 43 -246 61 -418 65 -91 2 -196 0 -234 -6z m351 -763 c70 -40 146 -84 168
-96 66 -38 65 -34 65 -249 l1 -196 167 -95 167 -96 0 -224 0 -224 -175 -102
c-96 -56 -183 -103 -194 -103 -10 -1 -92 42 -183 94 -90 52 -166 95 -168 95
-2 0 -78 -43 -168 -95 -91 -52 -172 -95 -182 -95 -17 0 -337 180 -367 208 -16
13 -18 38 -18 222 0 179 2 209 16 221 9 8 87 55 173 105 l156 90 3 202 c2 196
3 202 25 216 102 67 337 195 359 196 15 0 80 -31 155 -74z"/>
<path d="M1520 2635 l0 -147 33 20 c17 11 66 39 107 62 125 72 123 61 23 117
-48 28 -105 60 -125 73 l-38 22 0 -147z"/>
<path d="M2035 2716 c-61 -36 -116 -69 -123 -73 -13 -8 20 -30 191 -127 l47
-27 0 146 c0 80 -1 145 -3 145 -1 0 -52 -29 -112 -64z"/>
<path d="M1685 2512 c-60 -34 -116 -66 -124 -71 -9 -6 24 -30 110 -79 l124
-71 3 69 c2 38 2 102 0 142 l-3 74 -110 -64z"/>
<path d="M1870 2434 c0 -80 3 -143 8 -141 4 2 60 35 125 72 65 37 117 69 115
70 -2 2 -58 35 -125 74 l-123 70 0 -145z"/>
<path d="M2042 2317 c-129 -74 -142 -83 -125 -95 32 -23 257 -152 266 -152 5
0 39 17 75 39 37 21 100 57 140 80 l74 43 -104 60 c-56 33 -121 70 -143 83
l-40 23 -143 -81z"/>
<path d="M2358 2097 l-138 -82 0 -167 0 -166 140 81 140 82 0 167 c0 93 -1
168 -2 167 -2 -1 -65 -38 -140 -82z"/>
<path d="M1170 2007 l0 -162 140 -82 140 -81 0 166 0 167 -134 78 c-74 42
-137 77 -140 77 -3 0 -6 -73 -6 -163z"/>
<path d="M1675 2105 c-60 -36 -111 -69 -113 -74 -2 -7 218 -141 233 -141 3 0
5 63 5 140 0 77 -3 140 -7 140 -5 0 -57 -30 -118 -65z"/>
<path d="M1520 1826 l0 -144 124 71 c69 40 122 75 118 79 -8 7 -233 138 -238
138 -2 0 -4 -65 -4 -144z"/>
<path d="M6173 3460 c-42 -25 -63 -68 -63 -130 0 -73 18 -107 109 -204 l82
-86 -3 -53 c-3 -48 -5 -52 -30 -55 -34 -4 -48 25 -48 94 l0 44 -56 0 -56 0 4
-81 c3 -79 4 -82 40 -115 39 -35 61 -40 143 -35 83 6 135 69 135 164 -1 65
-32 119 -119 209 -72 74 -81 87 -81 120 0 27 6 40 19 48 38 20 61 -7 61 -72 0
-27 2 -28 55 -28 l55 0 0 51 c0 103 -48 149 -157 149 -40 0 -68 -6 -90 -20z"/>
<path d="M4850 3155 l0 -315 60 0 60 0 0 315 0 315 -60 0 -60 0 0 -315z"/>
<path d="M5010 3155 l0 -315 55 0 55 0 0 173 1 172 53 -170 52 -170 57 -3 57
-3 0 316 0 315 -55 0 -55 0 -1 -142 -1 -143 -45 143 -46 142 -64 0 -63 0 0
-315z"/>
<path d="M5380 3155 l0 -315 108 0 c132 0 166 14 200 80 22 43 23 53 20 251
-3 200 -4 206 -28 242 -13 20 -35 41 -48 46 -13 6 -74 11 -137 11 l-115 0 0
-315z m195 201 c14 -21 16 -54 13 -211 -3 -202 -4 -205 -60 -205 l-28 0 0 220
0 220 30 0 c20 0 34 -8 45 -24z"/>
<path d="M5750 3213 c0 -232 2 -262 19 -300 25 -55 66 -75 148 -75 71 0 103
15 133 65 18 30 20 52 20 300 l0 267 -55 0 -55 0 0 -254 c0 -218 -2 -257 -16
-270 -21 -22 -40 -20 -58 6 -14 19 -16 62 -16 270 l0 248 -60 0 -60 0 0 -257z"/>
<path d="M6440 3425 l0 -45 40 0 40 0 0 -270 0 -270 65 0 65 0 0 270 0 270 45
0 45 0 0 45 0 45 -150 0 -150 0 0 -45z"/>
<path d="M6760 3155 l0 -315 65 0 65 0 1 113 1 112 37 -110 38 -110 66 -3 66
-3 -46 128 c-25 70 -47 135 -50 144 -3 9 6 20 22 27 37 17 55 68 55 158 0 147
-32 174 -204 174 l-116 0 0 -315z"/>
<path d="M7120 3155 l0 -315 60 0 60 0 0 315 0 315 -60 0 -60 0 0 -315z"/>
<path d="M7380 3461 c0 -4 -25 -138 -55 -297 -30 -159 -55 -297 -55 -307 0
-16 8 -18 58 -15 l57 3 9 58 8 58 47 -3 46 -3 9 -57 9 -58 64 0 65 0 -6 28
c-3 15 -28 149 -56 297 -28 149 -53 278 -56 288 -4 14 -17 17 -75 17 -38 0
-69 -4 -69 -9z"/>
<path d="M3900 3117 c-116 -27 -189 -89 -231 -193 -22 -56 -24 -71 -24 -284 0
-187 3 -235 18 -282 22 -72 71 -136 127 -168 38 -21 58 -25 130 -25 95 0 149
21 190 72 13 17 19 21 16 10 -3 -10 -6 -92 -6 -181 0 -153 -1 -165 -23 -197
-28 -42 -73 -56 -127 -40 -55 16 -70 49 -70 151 l0 80 -126 0 -127 0 6 -107
c7 -140 26 -193 92 -259 69 -69 127 -89 265 -89 138 0 194 20 271 95 45 44 61
69 80 125 l24 70 0 470 c0 415 -2 476 -17 525 -34 108 -101 180 -201 216 -58
21 -200 27 -267 11z m187 -231 l28 -24 3 -201 c3 -168 1 -206 -13 -234 -25
-53 -83 -71 -140 -45 -49 22 -55 50 -55 258 0 242 11 269 107 270 30 0 50 -7
70 -24z"/>
<path d="M7666 2889 c-10 -101 -11 -99 32 -99 37 0 37 0 65 74 15 40 27 76 27
79 0 4 -26 7 -59 7 l-58 0 -7 -61z"/>
<path d="M5846 2650 c-41 -13 -84 -58 -96 -99 -5 -20 -10 -122 -10 -226 0
-178 1 -194 23 -235 28 -56 73 -80 148 -80 66 0 111 25 143 80 19 32 21 51 21
240 0 185 -2 209 -20 245 -11 22 -34 48 -52 58 -37 21 -117 30 -157 17z m92
-102 c9 -9 12 -70 12 -213 0 -213 -3 -225 -47 -225 -36 0 -43 35 -43 228 0
145 3 182 16 200 17 24 43 29 62 10z"/>
<path d="M6899 2651 c-51 -17 -71 -33 -90 -74 -16 -37 -19 -67 -19 -247 0
-230 6 -255 69 -297 26 -18 48 -23 95 -23 115 0 156 49 156 190 l0 80 -55 0
-55 0 0 -66 c0 -77 -12 -104 -45 -104 -42 0 -46 26 -43 236 2 160 6 196 18
204 40 26 63 3 68 -69 l4 -61 54 0 54 0 0 66 c0 78 -18 123 -60 147 -34 21
-114 30 -151 18z"/>
<path d="M7417 2646 c-95 -35 -102 -56 -102 -311 0 -194 2 -213 21 -245 32
-55 77 -80 143 -80 75 0 120 24 149 81 22 42 23 51 20 256 -3 230 -5 237 -69
285 -33 25 -114 32 -162 14z m97 -108 c13 -18 16 -55 16 -200 0 -97 -4 -188
-10 -202 -10 -28 -47 -35 -68 -14 -15 15 -17 390 -2 419 14 26 45 24 64 -3z"/>
<path d="M4850 2335 l0 -315 60 0 60 0 0 315 0 315 -60 0 -60 0 0 -315z"/>
<path d="M5010 2335 l0 -315 55 0 55 0 0 168 1 167 52 -165 53 -165 57 -3 57
-3 0 316 0 315 -55 0 -55 0 -1 -147 0 -148 -46 148 -47 147 -63 0 -63 0 0
-315z"/>
<path d="M5380 2335 l0 -315 56 0 56 0 -4 166 -3 166 53 -166 53 -166 54 0 55
0 0 315 0 315 -56 0 -56 0 3 -155 c3 -131 2 -149 -8 -118 -6 21 -28 91 -49
156 l-37 117 -58 0 -59 0 0 -315z"/>
<path d="M6085 2628 c3 -13 25 -131 50 -263 25 -132 50 -264 56 -293 l11 -53
66 3 67 3 57 300 c31 165 57 306 58 313 0 8 -18 12 -58 12 l-58 0 -30 -185
c-16 -101 -31 -181 -35 -177 -3 4 -18 87 -34 185 l-28 177 -64 0 c-61 0 -63
-1 -58 -22z"/>
<path d="M6520 2641 c0 -4 -25 -138 -55 -297 -30 -159 -55 -297 -55 -306 0
-15 9 -18 54 -18 59 0 58 -1 71 73 l6 38 47 -3 47 -3 8 -52 9 -53 64 0 c62 0
64 1 59 23 -3 12 -25 130 -50 262 -25 132 -50 264 -56 293 l-10 52 -70 0 c-38
0 -69 -4 -69 -9z"/>
<path d="M7150 2335 l0 -315 60 0 60 0 0 315 0 315 -60 0 -60 0 0 -315z"/>
<path d="M7690 2335 l0 -315 55 0 55 0 1 158 c0 102 4 148 9 132 5 -14 28 -85
51 -157 l41 -133 54 0 54 0 0 315 0 315 -50 0 -50 0 -1 -157 c-1 -87 -4 -149
-6 -138 -3 11 -25 82 -50 158 l-44 137 -59 0 -60 0 0 -315z"/>
<path d="M8150 2335 l0 -315 135 0 135 0 0 45 0 45 -75 0 -75 0 0 90 0 90 55
0 55 0 0 50 0 50 -55 0 -55 0 0 80 0 80 75 0 75 0 0 50 0 50 -135 0 -135 0 0
-315z"/>
<path d="M6771 1812 c-44 -22 -71 -73 -71 -135 0 -71 21 -109 110 -202 l81
-85 -3 -52 c-3 -52 -4 -53 -33 -53 l-30 0 -3 68 -3 67 -59 0 -60 0 0 -66 c0
-121 44 -168 155 -168 103 0 152 42 162 140 9 83 -14 129 -113 229 -77 78 -84
88 -84 125 0 49 25 67 58 44 16 -11 22 -26 22 -55 l0 -39 55 0 55 0 0 53 c0
64 -15 94 -59 124 -43 29 -130 31 -180 5z"/>
<path d="M8150 1812 c-19 -9 -43 -33 -55 -52 -18 -32 -20 -52 -20 -257 0 -208
1 -223 21 -249 40 -54 70 -69 137 -69 120 1 157 46 157 189 l0 86 -55 0 -55 0
0 -71 c0 -78 -11 -109 -39 -109 -38 0 -42 20 -39 236 l3 209 23 3 c39 6 52
-15 52 -79 l0 -59 55 0 55 0 0 73 c0 83 -12 113 -59 144 -43 29 -129 31 -181
5z"/>
<path d="M4850 1505 l0 -315 60 0 60 0 0 315 0 315 -60 0 -60 0 0 -315z"/>
<path d="M5010 1505 l0 -315 55 0 55 0 0 173 1 172 36 -115 c19 -63 43 -140
52 -170 l17 -55 57 -3 57 -3 0 316 0 315 -55 0 -55 0 -1 -142 -1 -143 -46 143
-45 142 -64 0 -63 0 0 -315z"/>
<path d="M5380 1505 l0 -315 60 0 60 0 0 140 0 140 55 0 55 0 0 45 0 45 -55 0
-55 0 0 85 0 85 70 0 70 0 0 45 0 45 -130 0 -130 0 0 -315z"/>
<path d="M5670 1505 l0 -315 60 0 60 0 1 118 0 117 41 -117 41 -118 64 0 c34
0 63 2 63 3 0 2 -22 68 -50 145 -36 104 -46 142 -36 142 8 0 26 14 40 31 24
28 26 38 26 125 0 161 -25 184 -200 184 l-110 0 0 -315z"/>
<path d="M6120 1811 c0 -4 -25 -138 -55 -297 -30 -159 -55 -297 -55 -307 0
-16 8 -18 57 -15 42 2 58 7 60 18 12 92 10 90 62 90 l49 0 7 -55 6 -55 66 0
c63 0 65 1 60 23 -3 12 -29 146 -57 297 -28 151 -54 283 -56 293 -4 14 -17 17
-75 17 -38 0 -69 -4 -69 -9z"/>
<path d="M6400 1505 l0 -315 135 0 135 0 0 50 0 50 -70 0 -70 0 0 90 0 90 50
0 50 0 0 45 0 45 -50 0 -50 0 0 85 0 85 70 0 70 0 0 45 0 45 -135 0 -135 0 0
-315z"/>
<path d="M7030 1775 l0 -45 40 0 40 0 0 -270 0 -270 65 0 65 0 0 270 0 270 45
0 45 0 0 45 0 45 -150 0 -150 0 0 -45z"/>
<path d="M7350 1505 l0 -315 65 0 65 0 1 113 1 112 37 -110 38 -110 66 -3 66
-3 -45 128 c-26 70 -48 135 -50 143 -3 9 8 22 26 32 42 24 52 58 48 163 -3 97
-19 132 -66 154 -13 6 -74 11 -137 11 l-115 0 0 -315z"/>
<path d="M7710 1558 c0 -289 4 -309 62 -352 40 -29 155 -29 195 0 60 44 63 63
63 352 l0 262 -55 0 -55 0 0 -242 c0 -250 -6 -289 -42 -296 -8 -2 -23 4 -32
13 -14 14 -16 50 -16 271 l0 254 -60 0 -60 0 0 -262z"/>
<path d="M8410 1775 l0 -45 45 0 45 0 0 -270 0 -270 60 0 60 0 0 270 0 270 45
0 45 0 0 45 0 45 -150 0 -150 0 0 -45z"/>
<path d="M8740 1553 c0 -248 2 -270 20 -300 31 -52 65 -68 141 -68 78 0 112
19 141 76 16 30 18 66 18 297 l0 262 -60 0 -60 0 0 -258 c0 -267 -2 -282 -42
-282 -34 0 -38 34 -38 289 l0 251 -60 0 -60 0 0 -267z"/>
<path d="M9100 1505 l0 -315 60 0 60 0 1 118 0 117 42 -117 42 -118 62 0 c35
0 63 4 63 8 0 5 -20 64 -45 132 -25 68 -45 129 -45 136 0 7 9 15 19 19 35 11
54 55 59 135 5 96 -11 146 -57 177 -30 21 -46 23 -147 23 l-114 0 0 -315z"/>
<path d="M9497 1518 c-32 -167 -57 -309 -57 -315 0 -9 18 -13 59 -13 l59 0 7
55 6 55 49 0 49 0 6 -55 7 -55 59 0 59 0 0 38 c-1 20 -24 161 -53 312 l-53
275 -70 3 -70 3 -57 -303z"/>
</g>
</svg>
