<?xml version="1.0" encoding="utf-8"?>
<!-- Generator: Adobe Illustrator 24.0.2, SVG Export Plug-In . SVG Version: 6.00 Build 0)  -->
<svg version="1.1" id="Capa_1" xmlns="http://www.w3.org/2000/svg" xmlns:xlink="http://www.w3.org/1999/xlink" x="0px" y="0px"
	 viewBox="0 0 69.82 69.82" style="enable-background:new 0 0 69.82 69.82;" xml:space="preserve">
<style type="text/css">
	.st0{fill:#D3A13C;}
	.st1{fill:#4D9748;}
	.st2{fill:#D32E3C;}
	.st3{fill:#E0432F;}
	.st4{fill:#2DAFD2;}
	.st5{fill:#B8252F;}
	.st6{fill:#9A2142;}
	.st7{fill:#E46831;}
	.st8{fill:#EEBB27;}
	.st9{fill:#EE9830;}
	.st10{fill:#B6872F;}
	.st11{fill:#CE2364;}
	.st12{fill:#268BC3;}
	.st13{fill:#5DAE49;}
	.st14{fill:#427D44;}
	.st15{fill:#1C4769;}
	.st16{fill:#0B6695;}
	.st17{fill:#FFFFFF;}
	.st18{fill-rule:evenodd;clip-rule:evenodd;fill:#00A0DB;}
	.st19{fill-rule:evenodd;clip-rule:evenodd;fill:#0782BE;}
	.st20{fill-rule:evenodd;clip-rule:evenodd;fill:#FFFFFF;}
	.st21{fill-rule:evenodd;clip-rule:evenodd;fill:#E86537;}
	.st22{fill-rule:evenodd;clip-rule:evenodd;fill:#034569;}
	.st23{fill-rule:evenodd;clip-rule:evenodd;fill:#DE2A66;}
	.st24{fill-rule:evenodd;clip-rule:evenodd;fill:#057C40;}
	.st25{fill-rule:evenodd;clip-rule:evenodd;fill:#CF9521;}
	.st26{fill-rule:evenodd;clip-rule:evenodd;fill:#B31D42;}
	.st27{fill-rule:evenodd;clip-rule:evenodd;fill:#D9272E;}
	.st28{fill-rule:evenodd;clip-rule:evenodd;fill:#E34538;}
	.st29{fill-rule:evenodd;clip-rule:evenodd;fill:#EF9431;}
	.st30{fill-rule:evenodd;clip-rule:evenodd;fill:#ECB129;}
	.st31{fill-rule:evenodd;clip-rule:evenodd;fill:#F7BC13;}
	.st32{fill-rule:evenodd;clip-rule:evenodd;fill:#19A240;}
	.st33{fill-rule:evenodd;clip-rule:evenodd;fill:#02983B;}
	.st34{fill-rule:evenodd;clip-rule:evenodd;fill:#E13244;}
	.st35{fill-rule:evenodd;clip-rule:evenodd;fill:#066698;}
	.st36{fill-rule:evenodd;clip-rule:evenodd;fill:#008CC4;}
	.st37{fill-rule:evenodd;clip-rule:evenodd;fill:#00A3C6;}
	.st38{fill-rule:evenodd;clip-rule:evenodd;fill:#067FC2;stroke:#067FC2;stroke-width:0.25;stroke-miterlimit:22.9256;}
	.st39{fill:none;stroke:#067FC2;stroke-width:0.25;stroke-miterlimit:22.9256;}
	.st40{fill:none;stroke:#119AD7;stroke-width:0.25;stroke-miterlimit:22.9256;}
	.st41{fill-rule:evenodd;clip-rule:evenodd;fill:#067FC2;}
</style>
<circle class="st14" cx="34.91" cy="34.91" r="34.91"/>
<polygon class="st17" points="17.41,12.68 17.41,23.88 15.52,23.88 15.52,15.3 15.51,15.3 14.18,16.68 14.17,16.68 14.17,14.71 
	15.9,12.68 "/>
<g>
	<path class="st17" d="M23.62,15.11v0.97c0,0.94-0.51,1.57-1.29,1.82c0.94,0.21,1.39,0.88,1.39,1.9v1.65c0,1.55-0.83,2.56-2.73,2.56
		c-1.92,0-2.6-1.09-2.6-2.79v-1.47h1.72v1.6c0,0.66,0.23,1.09,0.88,1.09c0.58,0,0.84-0.41,0.84-1.01v-1.85
		c0-0.59-0.26-0.91-0.92-0.91h-0.79v-1.44h0.71c0.61,0,1.01-0.31,1.01-0.91v-1.21c0-0.61-0.21-1.01-0.81-1.01
		c-0.59,0-0.81,0.4-0.81,1.09v1.14H18.5v-0.99c0-1.65,0.68-2.81,2.63-2.81C22.86,12.55,23.62,13.52,23.62,15.11"/>
</g>
<g>
	<path class="st17" d="M27.51,16.94l-0.16,0.85h-0.44l0.81-4.23h0.68l0.81,4.23h-0.47l-0.16-0.85H27.51z M27.57,16.54h0.94
		l-0.48-2.44L27.57,16.54z"/>
	<path class="st17" d="M31.45,14.59v0.38H31v-0.4c0-0.38-0.15-0.61-0.5-0.61c-0.34,0-0.5,0.23-0.5,0.61v2.24
		c0,0.38,0.16,0.61,0.5,0.61c0.34,0,0.5-0.23,0.5-0.61v-0.55h0.45v0.53c0,0.64-0.3,1.07-0.96,1.07c-0.65,0-0.95-0.42-0.95-1.07
		v-2.19c0-0.64,0.3-1.07,0.95-1.07C31.15,13.52,31.45,13.94,31.45,14.59z"/>
	<path class="st17" d="M33.75,14.59v0.38H33.3v-0.4c0-0.38-0.15-0.61-0.5-0.61c-0.34,0-0.5,0.23-0.5,0.61v2.24
		c0,0.38,0.16,0.61,0.5,0.61c0.35,0,0.5-0.23,0.5-0.61v-0.55h0.45v0.53c0,0.64-0.3,1.07-0.96,1.07c-0.65,0-0.95-0.42-0.95-1.07
		v-2.19c0-0.64,0.3-1.07,0.95-1.07C33.45,13.52,33.75,13.94,33.75,14.59z"/>
	<path class="st17" d="M34.65,13.56v4.23h-0.47v-4.23H34.65z"/>
	<path class="st17" d="M37.04,14.59v2.19c0,0.64-0.32,1.07-0.97,1.07c-0.65,0-0.97-0.42-0.97-1.07v-2.19c0-0.65,0.32-1.07,0.97-1.07
		C36.72,13.52,37.04,13.94,37.04,14.59z M35.56,14.56v2.24c0,0.39,0.16,0.61,0.5,0.61c0.34,0,0.5-0.22,0.5-0.61v-2.24
		c0-0.38-0.16-0.61-0.5-0.61C35.73,13.95,35.56,14.18,35.56,14.56z M36.66,12.69l-0.56,0.62h-0.33l0.42-0.62H36.66z"/>
	<path class="st17" d="M37.9,17.8h-0.42v-4.23h0.6l0.98,3.06v-3.06h0.42v4.23h-0.49l-1.08-3.42V17.8z"/>
	<path class="st17" d="M41.82,13.56c0.67,0,0.95,0.39,0.95,1.03v0.51c0,0.67-0.31,1.02-0.99,1.02h-0.42v1.67H40.9v-4.23H41.82z
		 M41.79,15.7c0.35,0,0.52-0.16,0.52-0.57v-0.56c0-0.39-0.14-0.58-0.48-0.58h-0.45v1.71H41.79z"/>
	<path class="st17" d="M43.11,14.59c0-0.65,0.32-1.07,0.97-1.07c0.65,0,0.97,0.42,0.97,1.07v2.19c0,0.64-0.32,1.07-0.97,1.07
		c-0.65,0-0.97-0.42-0.97-1.07V14.59z M43.57,16.8c0,0.39,0.16,0.61,0.5,0.61c0.34,0,0.5-0.22,0.5-0.61v-2.24
		c0-0.38-0.16-0.61-0.5-0.61c-0.34,0-0.5,0.23-0.5,0.61V16.8z"/>
	<path class="st17" d="M46.44,13.56c0.67,0,0.94,0.34,0.94,0.97v0.34c0,0.47-0.16,0.76-0.53,0.87c0.39,0.11,0.53,0.43,0.53,0.88
		v0.66c0,0.19,0.01,0.36,0.08,0.51h-0.48c-0.05-0.12-0.08-0.23-0.08-0.51v-0.67c0-0.48-0.22-0.63-0.62-0.63h-0.33v1.81h-0.47v-4.23
		H46.44z M46.32,15.56c0.38,0,0.6-0.12,0.6-0.58v-0.4c0-0.38-0.14-0.58-0.49-0.58h-0.46v1.57H46.32z"/>
	<path class="st17" d="M50.32,15.44v0.42h-1.03v1.51h1.27v0.43h-1.74v-4.23h1.74v0.43h-1.27v1.45H50.32z"/>
	<path class="st17" d="M50.99,17.8v-4.23h0.47v3.8h1.21v0.43H50.99z"/>
	<path class="st17" d="M28.9,20.63v0.38h-0.45v-0.4c0-0.38-0.15-0.61-0.5-0.61c-0.34,0-0.5,0.23-0.5,0.61v2.24
		c0,0.38,0.16,0.61,0.5,0.61c0.34,0,0.5-0.23,0.5-0.61V22.3h0.45v0.53c0,0.64-0.3,1.07-0.96,1.07c-0.65,0-0.95-0.42-0.95-1.07v-2.19
		c0-0.64,0.3-1.06,0.95-1.06C28.6,19.57,28.9,19.99,28.9,20.63z"/>
	<path class="st17" d="M29.33,23.85v-4.23h0.47v3.8h1.21v0.43H29.33z"/>
	<path class="st17" d="M31.84,19.61v4.23h-0.47v-4.23H31.84z"/>
	<path class="st17" d="M33.89,23.84h-0.45l-0.7-3.37v3.38h-0.41v-4.23h0.66l0.7,3.38l0.67-3.38h0.66v4.23h-0.45v-3.41L33.89,23.84z"
		/>
	<path class="st17" d="M35.97,22.99l-0.16,0.85h-0.44l0.81-4.23h0.68l0.81,4.23H37.2l-0.16-0.85H35.97z M36.03,22.59h0.94
		l-0.48-2.44L36.03,22.59z"/>
</g>
<g>
	<path class="st17" d="M52.81,47.88c-1.29-1.8-7.09-8.99-17.89-8.99c-10.8,0-16.61,7.19-17.9,8.99c-0.05,0.08-0.1,0.14-0.14,0.2
		c0.04,0.06,0.09,0.13,0.14,0.2c1.29,1.8,7.09,8.99,17.9,8.99c10.8,0,16.61-7.19,17.89-8.99c0.06-0.08,0.1-0.14,0.14-0.2
		C52.91,48.03,52.86,47.96,52.81,47.88 M28.89,43.44c0.1-0.14,0.42-0.55,0.46-0.6c0.08-0.11,0.25-0.13,0.36-0.15
		c0.11-0.02,0.27,0.04,0.29,0.13c0.02,0.09-0.04,0.42-0.1,0.48c-0.16,0.16-0.57,0.4-0.8,0.36C28.93,43.63,28.86,43.49,28.89,43.44
		 M28.5,44.2c0.02-0.02,0.03-0.04,0.04-0.04c0.14-0.15,0.41-0.19,0.59-0.22c0.19-0.03,0.44,0.06,0.47,0.19
		c0.03,0.12-0.47,0.35-0.56,0.44c-0.26,0.24-0.67,0.73-0.91,0.78c-0.08,0.02-0.14,0.01-0.19-0.02C28.1,44.93,28.29,44.56,28.5,44.2
		 M32.55,52.5c-0.15,0.58-0.32,0.78-0.46,0.96c-0.15,0.18-0.68,0.42-1.03,0.39c-0.34-0.03-0.39-0.94-0.39-1.41
		c0-0.16-0.23,0.32-0.35-0.66c-0.08-0.63-0.48,0.07-0.51-0.35c-0.03-0.42-0.23-0.33-0.44-0.59c-0.21-0.26-0.47,0.03-0.77,0.16
		c-0.29,0.13-0.17,0.2-0.59,0.07c-0.01,0-0.02-0.01-0.03-0.01c-0.38-0.9-0.59-1.89-0.59-2.93c0-0.25,0.01-0.5,0.04-0.75
		c0.01-0.03,0.03-0.05,0.05-0.07c0.4-0.47,0.39-0.58,0.39-0.58l0.44-0.15c0,0,0.7,0.11,1.23,0.31c0.44,0.16,1.12,0.53,1.52,0.37
		c0.29-0.12,0.51-0.28,0.49-0.52c-0.03-0.3-0.27-0.37-0.56-0.17c-0.11,0.08-0.33-0.45-0.51-0.43c-0.18,0.03,0.22,0.62,0.07,0.65
		c-0.15,0.03-0.45-0.62-0.51-0.73c-0.05-0.1-0.29-0.36-0.5-0.17c-0.44,0.42-1.16,0.4-1.31,0.5c-0.44,0.33-0.56-0.11-0.55-0.38
		c0.02-0.06,0.04-0.12,0.06-0.18c0.14-0.16,0.66-0.21,0.84-0.09c0.2,0.13,0.33-0.03,0.41-0.11c0.08-0.08,0.05-0.2,0-0.31
		c-0.05-0.1,0.1-0.18,0.2-0.21c0.1-0.03,0.44-0.26,0.57-0.34c0.14-0.08,0.83-0.16,1.14-0.01c0.31,0.16,0.6,0.03,0.75-0.15
		c0.19-0.23,0.44-0.4,0.55-0.46c0.11-0.05-0.27-0.4-0.58-0.02c-0.31,0.38-0.47,0.42-0.62,0.42c-0.15,0-1.01-0.22-1.12-0.49
		c-0.11-0.27,0.27-0.48,0.59-0.63c0.32-0.15,1.2-0.15,1.42-0.2c0.46-0.1,1.04-0.33,1.33-0.13c0.29,0.2-1.23,0.54-0.73,0.81
		c0.18,0.1,0.98-0.46,1.26-0.61c0.65-0.33-0.63-0.44-0.46-1.12c0.19-0.77-1.56-0.47-2.44-0.41c1.17-0.75,2.56-1.19,4.05-1.19
		c3.55,0,6.52,2.46,7.32,5.77c0.01,0.16-0.02,0.28-0.04,0.35c-0.07,0.27-0.58,0.5-0.88,0.07c-0.08-0.11-0.4-0.42-0.39,0.11
		c0.01,0.52,0.51,0.57,0.03,0.89c-0.48,0.31-0.57,0.24-0.79,0.32c-0.22,0.08-0.44,0.62-0.38,0.9c0.05,0.29,0.74,1.07,0.23,1.04
		c-0.12-0.01-1.02-0.62-1.17-1.02c-0.16-0.42-0.33-0.82-0.45-1.14c-0.12-0.31-0.44-0.39-0.71-0.21c-0.27,0.18,0.07,0.37-0.12,0.76
		c-0.19,0.39-0.33,0.74-0.61,0.42c-0.73-0.84-1.8-0.43-1.97-1.36c-0.09-0.51-0.53-0.46-0.89-0.75c-0.37-0.29-0.57-0.44-0.63-0.23
		c-0.05,0.18,1.15,1.14,1.24,1.38c0.13,0.36-0.36,0.68-0.72,0.77c-0.36,0.08-0.51-0.2-0.86-0.57c-0.35-0.36-0.5-0.63-0.53-0.34
		c-0.04,0.41,0.33,1.02,0.69,1.25c0.3,0.19,0.65,0.28,0.55,0.59c-0.1,0.31,0,0.14-0.34,0.47c-0.34,0.34-0.41,0.45-0.38,0.92
		c0.02,0.47-0.1,0.5-0.17,0.89C32.86,52.26,32.69,51.92,32.55,52.5 M40.62,49.5c0.25-0.02,0.63,0.33,0.48,0.46
		c-0.15,0.13-0.53,0.08-0.72-0.06C40.19,49.75,40.5,49.51,40.62,49.5 M40.3,49.26c-0.08-0.03-0.15-0.11-0.21-0.29
		c-0.06-0.19,0.09-0.29,0.25-0.22c0.15,0.08,0.36,0.31,0.36,0.43C40.68,49.31,40.38,49.3,40.3,49.26 M36.98,49.25
		c-0.15,0.13-0.53,0.08-0.72-0.07c-0.19-0.15,0.12-0.39,0.23-0.4C36.74,48.76,37.12,49.12,36.98,49.25 M33.9,50.75
		c-0.1,0.17-0.39,1.43-0.58,1.29c-0.19-0.15,0.08-1.47,0.13-1.57C33.76,49.92,34.4,49.95,33.9,50.75 M34.93,55.65
		c-0.74,0-1.44-0.11-2.11-0.3c-0.1-0.08-0.15-0.21-0.09-0.37c0.23-0.61,0.93-0.84,1.47-0.9c1.22-0.12,2.82,0.79,3.08,0.64
		c0.26-0.15,0.77-0.82,1.53-0.79c0.52,0.02,0.51,0.11,0.69,0.17C38.22,55.07,36.64,55.65,34.93,55.65 M40.23,53.46
		c-0.08-0.02-0.15-0.05-0.24-0.09c-0.41-0.21-0.36,0.13-0.56,0.05c-0.2-0.08,0.23-0.54-0.38-0.15c-0.6,0.39-0.44-0.06-0.7-0.73
		c-0.27-0.67,0.3-1.44,0.78-1.61c0.65-0.24,1.06-0.28,1.37-0.36c0.9-0.23,1.09-0.76,1.26-0.44c0.03,0.06,0.06,0.12,0.09,0.17
		c0.05,0.1,0.11,0.29,0.12,0.49C41.57,51.81,40.98,52.71,40.23,53.46 M42.29,49.66c-0.2-0.05-1.05-1.22-0.38-1.99
		c0.11-0.13-0.22-0.5-0.13-0.5c0.36-0.03,0.56,0.2,0.66,0.53c0.01,0.14,0.01,0.29,0.01,0.44C42.45,48.65,42.4,49.17,42.29,49.66"/>
</g>
</svg>
