<?xml version="1.0" encoding="utf-8"?>
<!-- Generator: Adobe Illustrator 24.0.2, SVG Export Plug-In . SVG Version: 6.00 Build 0)  -->
<svg version="1.1" id="Capa_1" xmlns="http://www.w3.org/2000/svg" xmlns:xlink="http://www.w3.org/1999/xlink" x="0px" y="0px"
	 viewBox="0 0 69.82 69.82" style="enable-background:new 0 0 69.82 69.82;" xml:space="preserve">
<style type="text/css">
	.st0{fill:#D3A13C;}
	.st1{fill:#4D9748;}
	.st2{fill:#D32E3C;}
	.st3{fill:#E0432F;}
	.st4{fill:#2DAFD2;}
	.st5{fill:#B8252F;}
	.st6{fill:#9A2142;}
	.st7{fill:#E46831;}
	.st8{fill:#EEBB27;}
	.st9{fill:#EE9830;}
	.st10{fill:#B6872F;}
	.st11{fill:#CE2364;}
	.st12{fill:#268BC3;}
	.st13{fill:#5DAE49;}
	.st14{fill:#427D44;}
	.st15{fill:#1C4769;}
	.st16{fill:#0B6695;}
	.st17{fill:#FFFFFF;}
	.st18{fill-rule:evenodd;clip-rule:evenodd;fill:#00A0DB;}
	.st19{fill-rule:evenodd;clip-rule:evenodd;fill:#0782BE;}
	.st20{fill-rule:evenodd;clip-rule:evenodd;fill:#FFFFFF;}
	.st21{fill-rule:evenodd;clip-rule:evenodd;fill:#E86537;}
	.st22{fill-rule:evenodd;clip-rule:evenodd;fill:#034569;}
	.st23{fill-rule:evenodd;clip-rule:evenodd;fill:#DE2A66;}
	.st24{fill-rule:evenodd;clip-rule:evenodd;fill:#057C40;}
	.st25{fill-rule:evenodd;clip-rule:evenodd;fill:#CF9521;}
	.st26{fill-rule:evenodd;clip-rule:evenodd;fill:#B31D42;}
	.st27{fill-rule:evenodd;clip-rule:evenodd;fill:#D9272E;}
	.st28{fill-rule:evenodd;clip-rule:evenodd;fill:#E34538;}
	.st29{fill-rule:evenodd;clip-rule:evenodd;fill:#EF9431;}
	.st30{fill-rule:evenodd;clip-rule:evenodd;fill:#ECB129;}
	.st31{fill-rule:evenodd;clip-rule:evenodd;fill:#F7BC13;}
	.st32{fill-rule:evenodd;clip-rule:evenodd;fill:#19A240;}
	.st33{fill-rule:evenodd;clip-rule:evenodd;fill:#02983B;}
	.st34{fill-rule:evenodd;clip-rule:evenodd;fill:#E13244;}
	.st35{fill-rule:evenodd;clip-rule:evenodd;fill:#066698;}
	.st36{fill-rule:evenodd;clip-rule:evenodd;fill:#008CC4;}
	.st37{fill-rule:evenodd;clip-rule:evenodd;fill:#00A3C6;}
	.st38{fill-rule:evenodd;clip-rule:evenodd;fill:#067FC2;stroke:#067FC2;stroke-width:0.25;stroke-miterlimit:22.9256;}
	.st39{fill:none;stroke:#067FC2;stroke-width:0.25;stroke-miterlimit:22.9256;}
	.st40{fill:none;stroke:#119AD7;stroke-width:0.25;stroke-miterlimit:22.9256;}
	.st41{fill-rule:evenodd;clip-rule:evenodd;fill:#067FC2;}
</style>
<circle class="st7" cx="34.91" cy="34.91" r="34.91"/>
<g>
	<path class="st17" d="M18.96,16.01c0-1.74-0.76-2.99-2.74-2.99c-2,0-2.78,1.09-2.78,2.82v1.65c0,1.84,0.73,2.76,2.08,2.76
		c0.79,0,1.27-0.36,1.55-0.91h0.02v2.41c0,0.68-0.26,1.16-0.94,1.16c-0.68,0-0.92-0.4-0.92-1.09v-0.74h-1.72v0.59
		c0,1.65,0.59,2.81,2.68,2.81c1.98,0,2.78-1.27,2.78-3.02V16.01z M17.09,17.73c-0.03,0.63-0.3,1.02-0.89,1.02
		c-0.64,0-0.89-0.4-0.89-1.12v-1.95c0-0.71,0.26-1.12,0.91-1.12c0.63,0,0.88,0.43,0.88,1.12V17.73z"/>
</g>
<g>
	<path class="st17" d="M22.55,13.31v4.65h-0.52v-4.65H22.55z"/>
	<path class="st17" d="M23.53,17.96h-0.46v-4.65h0.66l1.08,3.36v-3.36h0.46v4.65h-0.54l-1.19-3.76V17.96z"/>
	<path class="st17" d="M26.88,13.31c0.72,0,1.05,0.44,1.05,1.16v2.34c0,0.71-0.33,1.15-1.05,1.15h-1.09v-4.65H26.88z M26.87,17.49
		c0.37,0,0.55-0.23,0.55-0.66v-2.39c0-0.43-0.18-0.66-0.56-0.66h-0.56v3.7H26.87z"/>
	<path class="st17" d="M28.91,16.86c0,0.42,0.16,0.67,0.54,0.67c0.37,0,0.54-0.25,0.54-0.67v-3.55h0.48v3.52
		c0,0.7-0.33,1.17-1.04,1.17c-0.71,0-1.03-0.47-1.03-1.17v-3.52h0.51V16.86z"/>
	<path class="st17" d="M33,14.43v0.13h-0.49V14.4c0-0.42-0.16-0.66-0.53-0.66c-0.37,0-0.53,0.25-0.53,0.66
		c0,1.04,1.56,1.14,1.56,2.45c0,0.7-0.34,1.16-1.05,1.16c-0.71,0-1.04-0.46-1.04-1.16v-0.27h0.48v0.29c0,0.42,0.17,0.66,0.54,0.66
		c0.37,0,0.54-0.25,0.54-0.66c0-1.04-1.55-1.14-1.55-2.44c0-0.72,0.33-1.16,1.03-1.16C32.67,13.27,33,13.73,33,14.43z"/>
	<path class="st17" d="M34.13,17.96v-4.17h-0.86v-0.47h2.22v0.47h-0.86v4.17H34.13z"/>
	<path class="st17" d="M36.88,13.31c0.73,0,1.04,0.37,1.04,1.06v0.38c0,0.51-0.18,0.83-0.58,0.96c0.42,0.13,0.58,0.47,0.58,0.97
		v0.72c0,0.2,0.01,0.4,0.09,0.56h-0.52c-0.06-0.13-0.09-0.25-0.09-0.56v-0.73c0-0.52-0.25-0.69-0.68-0.69h-0.37v1.98h-0.52v-4.65
		H36.88z M36.75,15.5c0.41,0,0.66-0.13,0.66-0.64v-0.44c0-0.42-0.15-0.64-0.54-0.64h-0.5v1.72H36.75z"/>
	<path class="st17" d="M38.98,13.31v4.65h-0.52v-4.65H38.98z"/>
	<path class="st17" d="M40.03,17.02l-0.18,0.94h-0.48l0.89-4.65h0.75l0.89,4.65h-0.52l-0.18-0.94H40.03z M40.1,16.58h1.04
		l-0.52-2.68L40.1,16.58z"/>
	<path class="st17" d="M42.53,17.96h-0.19v-0.64h0.5v0.6l-0.26,0.63h-0.21L42.53,17.96z"/>
	<path class="st17" d="M22.55,19.95v4.65h-0.52v-4.65H22.55z"/>
	<path class="st17" d="M23.53,24.6h-0.46v-4.65h0.66l1.08,3.36v-3.36h0.46v4.65h-0.54l-1.19-3.76V24.6z"/>
	<path class="st17" d="M26.25,24.6h-0.46v-4.65h0.66l1.08,3.36v-3.36h0.46v4.65h-0.54l-1.19-3.76V24.6z"/>
	<path class="st17" d="M28.47,21.07c0-0.71,0.35-1.17,1.06-1.17c0.72,0,1.07,0.46,1.07,1.17v2.4c0,0.7-0.35,1.17-1.07,1.17
		c-0.71,0-1.06-0.46-1.06-1.17V21.07z M28.98,23.5c0,0.42,0.18,0.67,0.55,0.67c0.38,0,0.55-0.25,0.55-0.67v-2.46
		c0-0.42-0.17-0.67-0.55-0.67c-0.37,0-0.55,0.25-0.55,0.67V23.5z"/>
	<path class="st17" d="M31.47,19.95l0.76,4.04l0.75-4.04h0.48l-0.87,4.65h-0.76l-0.88-4.65H31.47z"/>
	<path class="st17" d="M34.21,23.66l-0.18,0.94h-0.48l0.89-4.65h0.75l0.89,4.65h-0.52l-0.18-0.94H34.21z M34.28,23.22h1.04
		l-0.52-2.68L34.28,23.22z"/>
	<path class="st17" d="M38.53,21.07v0.42h-0.49v-0.44c0-0.42-0.17-0.67-0.54-0.67c-0.37,0-0.54,0.25-0.54,0.67v2.46
		c0,0.42,0.17,0.67,0.54,0.67c0.38,0,0.54-0.25,0.54-0.67v-0.6h0.49v0.58c0,0.7-0.33,1.17-1.05,1.17c-0.71,0-1.04-0.46-1.04-1.17
		v-2.4c0-0.7,0.33-1.17,1.04-1.17C38.2,19.9,38.53,20.37,38.53,21.07z"/>
	<path class="st17" d="M39.52,19.95v4.65h-0.52v-4.65H39.52z"/>
	<path class="st17" d="M42.14,21.07v2.4c0,0.7-0.35,1.17-1.07,1.17c-0.71,0-1.06-0.46-1.06-1.17v-2.4c0-0.71,0.35-1.17,1.06-1.17
		C41.79,19.9,42.14,20.36,42.14,21.07z M40.53,21.05v2.46c0,0.42,0.18,0.67,0.55,0.67c0.38,0,0.55-0.25,0.55-0.67v-2.46
		c0-0.42-0.17-0.67-0.55-0.67C40.7,20.38,40.53,20.63,40.53,21.05z M41.73,18.99l-0.62,0.68h-0.36l0.46-0.68H41.73z"/>
	<path class="st17" d="M43.09,24.6h-0.46v-4.65h0.66l1.08,3.36v-3.36h0.46v4.65h-0.54l-1.19-3.76V24.6z"/>
	<path class="st17" d="M48.03,22.01v0.46H46.9v1.65h1.39v0.47h-1.91v-4.65h1.91v0.47H46.9v1.59H48.03z"/>
	<path class="st17" d="M22.55,26.59v4.65h-0.52v-4.65H22.55z"/>
	<path class="st17" d="M23.53,31.23h-0.46v-4.65h0.66l1.08,3.36v-3.36h0.46v4.65h-0.54l-1.19-3.76V31.23z"/>
	<path class="st17" d="M27.38,28.75v0.47h-1.07v2.01h-0.52v-4.65h1.84v0.47h-1.33v1.69H27.38z"/>
	<path class="st17" d="M29.08,26.59c0.73,0,1.04,0.37,1.04,1.06v0.38c0,0.51-0.18,0.83-0.58,0.95c0.42,0.13,0.58,0.47,0.58,0.97
		v0.72c0,0.21,0.01,0.4,0.09,0.56h-0.52c-0.06-0.13-0.09-0.25-0.09-0.56v-0.73c0-0.52-0.25-0.69-0.68-0.69h-0.37v1.98h-0.52v-4.65
		H29.08z M28.95,28.78c0.41,0,0.66-0.13,0.66-0.64V27.7c0-0.42-0.15-0.64-0.54-0.64h-0.5v1.72H28.95z"/>
	<path class="st17" d="M31.19,30.3l-0.18,0.94h-0.48l0.89-4.65h0.75l0.89,4.65h-0.52l-0.18-0.94H31.19z M31.25,29.85h1.04
		l-0.52-2.68L31.25,29.85z"/>
	<path class="st17" d="M35.12,28.64v0.46h-1.13v1.65h1.39v0.47h-1.91v-4.65h1.91v0.47h-1.39v1.59H35.12z"/>
	<path class="st17" d="M37.86,27.7v0.13h-0.49v-0.15c0-0.42-0.16-0.66-0.53-0.66c-0.37,0-0.53,0.25-0.53,0.66
		c0,1.04,1.56,1.14,1.56,2.45c0,0.7-0.34,1.16-1.05,1.16c-0.71,0-1.04-0.46-1.04-1.16v-0.27h0.49v0.29c0,0.42,0.17,0.66,0.54,0.66
		c0.37,0,0.54-0.25,0.54-0.66c0-1.04-1.55-1.13-1.55-2.44c0-0.72,0.33-1.16,1.03-1.16C37.53,26.54,37.86,27,37.86,27.7z"/>
	<path class="st17" d="M38.99,31.23v-4.17h-0.86v-0.47h2.22v0.47H39.5v4.17H38.99z"/>
	<path class="st17" d="M41.75,26.59c0.73,0,1.04,0.37,1.04,1.06v0.38c0,0.51-0.18,0.83-0.58,0.95c0.42,0.13,0.58,0.47,0.58,0.97
		v0.72c0,0.21,0.01,0.4,0.09,0.56h-0.52c-0.06-0.13-0.09-0.25-0.09-0.56v-0.73c0-0.52-0.25-0.69-0.68-0.69h-0.37v1.98h-0.52v-4.65
		H41.75z M41.61,28.78c0.41,0,0.66-0.13,0.66-0.64V27.7c0-0.42-0.15-0.64-0.54-0.64h-0.5v1.72H41.61z"/>
	<path class="st17" d="M43.82,30.14c0,0.42,0.17,0.67,0.54,0.67c0.37,0,0.54-0.25,0.54-0.67v-3.55h0.48v3.52
		c0,0.7-0.33,1.17-1.04,1.17c-0.71,0-1.04-0.47-1.04-1.17v-3.52h0.51V30.14z"/>
	<path class="st17" d="M47.94,27.71v0.42h-0.49v-0.44c0-0.42-0.17-0.67-0.54-0.67c-0.37,0-0.54,0.25-0.54,0.67v2.46
		c0,0.42,0.17,0.67,0.54,0.67c0.38,0,0.54-0.25,0.54-0.67v-0.6h0.49v0.58c0,0.7-0.33,1.17-1.05,1.17c-0.71,0-1.04-0.46-1.04-1.17
		v-2.4c0-0.7,0.33-1.17,1.04-1.17C47.61,26.54,47.94,27.01,47.94,27.71z"/>
	<path class="st17" d="M49.09,31.23v-4.17h-0.86v-0.47h2.22v0.47H49.6v4.17H49.09z"/>
	<path class="st17" d="M51.3,30.14c0,0.42,0.17,0.67,0.54,0.67c0.37,0,0.54-0.25,0.54-0.67v-3.55h0.48v3.52
		c0,0.7-0.32,1.17-1.04,1.17c-0.71,0-1.03-0.47-1.03-1.17v-3.52h0.51V30.14z"/>
	<path class="st17" d="M54.41,26.59c0.73,0,1.04,0.37,1.04,1.06v0.38c0,0.51-0.18,0.83-0.58,0.95c0.42,0.13,0.58,0.47,0.58,0.97
		v0.72c0,0.21,0.01,0.4,0.09,0.56h-0.53c-0.06-0.13-0.09-0.25-0.09-0.56v-0.73c0-0.52-0.25-0.69-0.68-0.69h-0.37v1.98h-0.52v-4.65
		H54.41z M54.28,28.78c0.41,0,0.66-0.13,0.66-0.64V27.7c0-0.42-0.15-0.64-0.54-0.64h-0.5v1.72H54.28z"/>
	<path class="st17" d="M56.51,30.3l-0.18,0.94h-0.48l0.89-4.65h0.75l0.89,4.65h-0.52l-0.18-0.94H56.51z M56.58,29.85h1.04
		l-0.52-2.68L56.58,29.85z"/>
</g>
<g>
	<path class="st17" d="M47.09,49.69l-5.79-3.34v-6.69c0-0.14-0.08-0.27-0.2-0.34l-5.99-3.46c-0.12-0.07-0.27-0.07-0.4,0l-5.99,3.46
		c-0.12,0.07-0.2,0.2-0.2,0.34v6.69l-5.79,3.34c-0.12,0.07-0.2,0.2-0.2,0.34v6.92c0,0.14,0.08,0.27,0.2,0.34l5.99,3.46
		c0.06,0.04,0.13,0.05,0.2,0.05c0.07,0,0.14-0.02,0.2-0.05l5.79-3.34l5.79,3.34c0.06,0.04,0.13,0.05,0.2,0.05
		c0.07,0,0.14-0.02,0.2-0.05l5.99-3.46c0.12-0.07,0.2-0.2,0.2-0.34v-6.92C47.29,49.89,47.22,49.76,47.09,49.69 M34.52,56.26
		l-4.81-2.78l4.81-2.77V56.26z M40.11,46.57l-4.8,2.77V43.8L40.11,46.57z M34.52,49.35l-4.8-2.77l4.8-2.78V49.35z M35.7,50.03l5.2-3
		l5.2,3l-5.2,3L35.7,50.03z M40.51,45.89l-4.8-2.78l4.8-2.77V45.89z M34.12,43.11l-4.8,2.78v-5.55L34.12,43.11z M28.53,59.72l-5.2-3
		v-6.01l5.2,3V59.72z M29.32,59.72v-5.55l4.8,2.78L29.32,59.72z M46.5,56.72l-5.2,3v-6l5.2-3V56.72z"/>
</g>
</svg>
