<?xml version="1.0" encoding="utf-8"?>
<!-- Generator: Adobe Illustrator 24.0.2, SVG Export Plug-In . SVG Version: 6.00 Build 0)  -->
<svg version="1.1" id="Capa_1" xmlns="http://www.w3.org/2000/svg" xmlns:xlink="http://www.w3.org/1999/xlink" x="0px" y="0px"
	 viewBox="0 0 69.82 69.82" style="enable-background:new 0 0 69.82 69.82;" xml:space="preserve">
<style type="text/css">
	.st0{fill:#D3A13C;}
	.st1{fill:#4D9748;}
	.st2{fill:#D32E3C;}
	.st3{fill:#E0432F;}
	.st4{fill:#2DAFD2;}
	.st5{fill:#B8252F;}
	.st6{fill:#9A2142;}
	.st7{fill:#E46831;}
	.st8{fill:#EEBB27;}
	.st9{fill:#EE9830;}
	.st10{fill:#B6872F;}
	.st11{fill:#CE2364;}
	.st12{fill:#268BC3;}
	.st13{fill:#5DAE49;}
	.st14{fill:#427D44;}
	.st15{fill:#1C4769;}
	.st16{fill:#0B6695;}
	.st17{fill:#FFFFFF;}
	.st18{fill-rule:evenodd;clip-rule:evenodd;fill:#00A0DB;}
	.st19{fill-rule:evenodd;clip-rule:evenodd;fill:#0782BE;}
	.st20{fill-rule:evenodd;clip-rule:evenodd;fill:#FFFFFF;}
	.st21{fill-rule:evenodd;clip-rule:evenodd;fill:#E86537;}
	.st22{fill-rule:evenodd;clip-rule:evenodd;fill:#034569;}
	.st23{fill-rule:evenodd;clip-rule:evenodd;fill:#DE2A66;}
	.st24{fill-rule:evenodd;clip-rule:evenodd;fill:#057C40;}
	.st25{fill-rule:evenodd;clip-rule:evenodd;fill:#CF9521;}
	.st26{fill-rule:evenodd;clip-rule:evenodd;fill:#B31D42;}
	.st27{fill-rule:evenodd;clip-rule:evenodd;fill:#D9272E;}
	.st28{fill-rule:evenodd;clip-rule:evenodd;fill:#E34538;}
	.st29{fill-rule:evenodd;clip-rule:evenodd;fill:#EF9431;}
	.st30{fill-rule:evenodd;clip-rule:evenodd;fill:#ECB129;}
	.st31{fill-rule:evenodd;clip-rule:evenodd;fill:#F7BC13;}
	.st32{fill-rule:evenodd;clip-rule:evenodd;fill:#19A240;}
	.st33{fill-rule:evenodd;clip-rule:evenodd;fill:#02983B;}
	.st34{fill-rule:evenodd;clip-rule:evenodd;fill:#E13244;}
	.st35{fill-rule:evenodd;clip-rule:evenodd;fill:#066698;}
	.st36{fill-rule:evenodd;clip-rule:evenodd;fill:#008CC4;}
	.st37{fill-rule:evenodd;clip-rule:evenodd;fill:#00A3C6;}
	.st38{fill-rule:evenodd;clip-rule:evenodd;fill:#067FC2;stroke:#067FC2;stroke-width:0.25;stroke-miterlimit:22.9256;}
	.st39{fill:none;stroke:#067FC2;stroke-width:0.25;stroke-miterlimit:22.9256;}
	.st40{fill:none;stroke:#119AD7;stroke-width:0.25;stroke-miterlimit:22.9256;}
	.st41{fill-rule:evenodd;clip-rule:evenodd;fill:#067FC2;}
</style>
<circle class="st9" cx="34.91" cy="34.91" r="34.91"/>
<polygon class="st17" points="14.77,14.15 14.77,16.12 14.78,16.12 16.1,14.75 16.12,14.75 16.12,23.33 18.01,23.33 18.01,12.12 
	16.5,12.12 "/>
<polygon class="st17" points="19.06,14.15 19.06,16.12 19.08,16.12 20.4,14.75 20.42,14.75 20.42,23.33 22.3,23.33 22.3,12.12 
	20.8,12.12 "/>
<g>
	<path class="st17" d="M27.92,13.3v0.41h-0.48v-0.44c0-0.41-0.16-0.66-0.54-0.66c-0.37,0-0.54,0.25-0.54,0.66v2.42
		c0,0.41,0.17,0.66,0.54,0.66c0.37,0,0.54-0.25,0.54-0.66v-0.6h0.48v0.57c0,0.69-0.33,1.15-1.03,1.15c-0.7,0-1.03-0.46-1.03-1.15
		V13.3c0-0.69,0.33-1.15,1.03-1.15C27.59,12.15,27.92,12.61,27.92,13.3z"/>
	<path class="st17" d="M28.89,12.2v4.58h-0.51V12.2H28.89z"/>
	<path class="st17" d="M29.9,15.69c0,0.41,0.16,0.66,0.54,0.66c0.37,0,0.53-0.25,0.53-0.66v-3.5h0.48v3.47
		c0,0.69-0.32,1.16-1.03,1.16c-0.7,0-1.02-0.46-1.02-1.16V12.2h0.5V15.69z"/>
	<path class="st17" d="M33.02,12.2c0.71,0,1.04,0.43,1.04,1.14v2.31c0,0.7-0.33,1.13-1.04,1.13h-1.07V12.2H33.02z M33.01,16.31
		c0.37,0,0.54-0.23,0.54-0.65v-2.36c0-0.42-0.18-0.65-0.55-0.65h-0.55v3.65H33.01z"/>
	<path class="st17" d="M35.05,15.85l-0.18,0.92H34.4l0.88-4.58h0.74l0.88,4.58h-0.51l-0.18-0.92H35.05z M35.11,15.41h1.02
		l-0.52-2.64L35.11,15.41z"/>
	<path class="st17" d="M38.36,12.2c0.71,0,1.04,0.43,1.04,1.14v2.31c0,0.7-0.33,1.13-1.04,1.13h-1.07V12.2H38.36z M38.36,16.31
		c0.37,0,0.54-0.23,0.54-0.65v-2.36c0-0.42-0.18-0.65-0.55-0.65H37.8v3.65H38.36z"/>
	<path class="st17" d="M41.51,14.22v0.46h-1.12v1.63h1.37v0.46h-1.88V12.2h1.88v0.46h-1.37v1.56H41.51z"/>
	<path class="st17" d="M44.22,13.29v0.12h-0.48v-0.15c0-0.41-0.16-0.65-0.52-0.65c-0.37,0-0.52,0.24-0.52,0.65
		c0,1.03,1.54,1.12,1.54,2.41c0,0.69-0.33,1.14-1.03,1.14c-0.7,0-1.03-0.45-1.03-1.14v-0.26h0.48v0.29c0,0.41,0.17,0.65,0.54,0.65
		c0.37,0,0.54-0.24,0.54-0.65c0-1.02-1.53-1.12-1.53-2.41c0-0.71,0.33-1.14,1.01-1.14C43.89,12.15,44.22,12.6,44.22,13.29z"/>
	<path class="st17" d="M46.49,15.13l-0.97-2.94h0.53l0.71,2.25l0.72-2.25h0.48L47,15.13v1.64h-0.5V15.13z"/>
	<path class="st17" d="M27.92,19.84v0.41h-0.48v-0.44c0-0.41-0.16-0.66-0.54-0.66c-0.37,0-0.54,0.25-0.54,0.66v2.42
		c0,0.41,0.17,0.66,0.54,0.66c0.37,0,0.54-0.25,0.54-0.66v-0.59h0.48v0.57c0,0.69-0.33,1.15-1.03,1.15c-0.7,0-1.03-0.46-1.03-1.15
		v-2.37c0-0.69,0.33-1.15,1.03-1.15C27.59,18.69,27.92,19.15,27.92,19.84z"/>
	<path class="st17" d="M28.34,19.84c0-0.7,0.35-1.15,1.05-1.15c0.71,0,1.05,0.45,1.05,1.15v2.37c0,0.69-0.35,1.15-1.05,1.15
		c-0.7,0-1.05-0.46-1.05-1.15V19.84z M28.85,22.23c0,0.42,0.18,0.66,0.54,0.66c0.37,0,0.54-0.24,0.54-0.66v-2.42
		c0-0.41-0.17-0.66-0.54-0.66c-0.37,0-0.54,0.25-0.54,0.66V22.23z"/>
	<path class="st17" d="M32.61,23.31h-0.49l-0.76-3.64v3.65h-0.44v-4.58h0.71l0.75,3.66l0.73-3.66h0.71v4.58h-0.48v-3.68L32.61,23.31
		z"/>
	<path class="st17" d="M34.83,22.23c0,0.41,0.16,0.66,0.54,0.66c0.37,0,0.53-0.25,0.53-0.66v-3.5h0.48v3.47
		c0,0.69-0.32,1.16-1.03,1.16c-0.7,0-1.02-0.46-1.02-1.16v-3.47h0.5V22.23z"/>
	<path class="st17" d="M37.33,23.31h-0.46v-4.58h0.65l1.06,3.31v-3.31h0.45v4.58H38.5l-1.17-3.7V23.31z"/>
	<path class="st17" d="M40.06,18.74v4.58h-0.51v-4.58H40.06z"/>
	<path class="st17" d="M41.66,18.74c0.71,0,1.04,0.43,1.04,1.14v2.31c0,0.7-0.33,1.13-1.04,1.13h-1.07v-4.58H41.66z M41.65,22.85
		c0.37,0,0.54-0.23,0.54-0.65v-2.35c0-0.42-0.18-0.65-0.55-0.65H41.1v3.65H41.65z"/>
	<path class="st17" d="M43.69,22.39l-0.18,0.92h-0.47l0.88-4.58h0.74l0.88,4.58h-0.51l-0.18-0.92H43.69z M43.75,21.95h1.02
		l-0.52-2.64L43.75,21.95z"/>
	<path class="st17" d="M47.01,18.74c0.71,0,1.04,0.43,1.04,1.14v2.31c0,0.7-0.33,1.13-1.04,1.13h-1.07v-4.58H47.01z M47,22.85
		c0.37,0,0.54-0.23,0.54-0.65v-2.35c0-0.42-0.18-0.65-0.55-0.65h-0.55v3.65H47z"/>
	<path class="st17" d="M50.15,20.76v0.46h-1.12v1.63h1.37v0.46h-1.88v-4.58h1.88v0.46h-1.37v1.56H50.15z"/>
	<path class="st17" d="M52.86,19.83v0.12h-0.48v-0.15c0-0.41-0.16-0.65-0.52-0.65c-0.37,0-0.52,0.24-0.52,0.65
		c0,1.03,1.54,1.13,1.54,2.41c0,0.69-0.33,1.14-1.03,1.14c-0.7,0-1.03-0.45-1.03-1.14v-0.26h0.48v0.29c0,0.41,0.17,0.65,0.54,0.65
		c0.37,0,0.54-0.24,0.54-0.65c0-1.02-1.53-1.12-1.53-2.41c0-0.71,0.33-1.15,1.01-1.15C52.53,18.69,52.86,19.14,52.86,19.83z"/>
	<path class="st17" d="M27.88,26.38v0.12H27.4v-0.15c0-0.41-0.16-0.65-0.52-0.65c-0.37,0-0.52,0.24-0.52,0.65
		c0,1.03,1.54,1.13,1.54,2.41c0,0.69-0.33,1.14-1.03,1.14c-0.7,0-1.03-0.45-1.03-1.14v-0.26h0.48v0.29c0,0.41,0.17,0.65,0.54,0.65
		c0.37,0,0.54-0.24,0.54-0.65c0-1.02-1.53-1.12-1.53-2.41c0-0.71,0.33-1.15,1.01-1.15C27.55,25.23,27.88,25.68,27.88,26.38z"/>
	<path class="st17" d="M28.29,26.38c0-0.7,0.35-1.15,1.05-1.15c0.71,0,1.05,0.45,1.05,1.15v2.37c0,0.69-0.35,1.15-1.05,1.15
		c-0.7,0-1.05-0.46-1.05-1.15V26.38z M28.8,28.78c0,0.42,0.18,0.66,0.54,0.66c0.37,0,0.54-0.24,0.54-0.66v-2.42
		c0-0.41-0.17-0.66-0.54-0.66c-0.37,0-0.54,0.25-0.54,0.66V28.78z"/>
	<path class="st17" d="M32.86,26.38v0.12h-0.48v-0.15c0-0.41-0.16-0.65-0.52-0.65s-0.52,0.24-0.52,0.65c0,1.03,1.54,1.13,1.54,2.41
		c0,0.69-0.33,1.14-1.03,1.14c-0.7,0-1.03-0.45-1.03-1.14v-0.26h0.48v0.29c0,0.41,0.17,0.65,0.54,0.65c0.37,0,0.54-0.24,0.54-0.65
		c0-1.02-1.53-1.12-1.53-2.41c0-0.71,0.33-1.15,1.01-1.15C32.53,25.23,32.86,25.68,32.86,26.38z"/>
	<path class="st17" d="M33.97,29.86v-4.12h-0.84v-0.46h2.19v0.46h-0.84v4.12H33.97z"/>
	<path class="st17" d="M37.29,27.3v0.46h-1.12v1.63h1.37v0.46h-1.88v-4.58h1.88v0.46h-1.37v1.56H37.29z"/>
	<path class="st17" d="M38.47,29.86h-0.46v-4.58h0.65l1.06,3.31v-3.31h0.45v4.58h-0.53l-1.17-3.7V29.86z"/>
	<path class="st17" d="M41.2,25.28v4.58h-0.51v-4.58H41.2z"/>
	<path class="st17" d="M42.75,25.28c0.71,0,0.99,0.34,0.99,1.01v0.21c0,0.48-0.14,0.79-0.54,0.91c0.45,0.12,0.62,0.48,0.62,0.98
		v0.39c0,0.69-0.33,1.07-1.05,1.07h-1.05v-4.58H42.75z M42.63,27.22c0.41,0,0.61-0.13,0.61-0.61v-0.27c0-0.41-0.14-0.6-0.5-0.6h-0.5
		v1.48H42.63z M42.78,29.39c0.37,0,0.54-0.2,0.54-0.62v-0.41c0-0.51-0.2-0.68-0.64-0.68h-0.45v1.71H42.78z"/>
	<path class="st17" d="M44.29,29.86v-4.58h0.51v4.11h1.31v0.46H44.29z"/>
	<path class="st17" d="M48.12,27.3v0.46H47v1.63h1.37v0.46h-1.88v-4.58h1.88v0.46H47v1.56H48.12z"/>
	<path class="st17" d="M50.83,26.38v0.12h-0.48v-0.15c0-0.41-0.16-0.65-0.52-0.65c-0.37,0-0.52,0.24-0.52,0.65
		c0,1.03,1.54,1.13,1.54,2.41c0,0.69-0.33,1.14-1.03,1.14c-0.7,0-1.03-0.45-1.03-1.14v-0.26h0.48v0.29c0,0.41,0.17,0.65,0.54,0.65
		c0.37,0,0.54-0.24,0.54-0.65c0-1.02-1.53-1.12-1.53-2.41c0-0.71,0.33-1.15,1.01-1.15C50.5,25.23,50.83,25.68,50.83,26.38z"/>
</g>
<g>
	<g>
		<path class="st17" d="M18.58,52.86h0.08h7.26c0.1,0,0.18-0.08,0.18-0.18c0-0.04-0.02-0.09-0.05-0.12l-0.01-0.01l-3.65-4.72
			l-0.04-0.04c-0.03-0.04-0.08-0.06-0.13-0.06c-0.04,0-0.09,0.02-0.12,0.05l-0.02,0.03l-0.03,0.04l-3.56,4.67l-0.05,0.07
			c-0.02,0.03-0.03,0.06-0.03,0.1C18.4,52.78,18.48,52.86,18.58,52.86"/>
	</g>
	<g>
		<path class="st17" d="M25.89,53.52h-7.35c-0.1,0-0.18,0.08-0.18,0.18v5.75c0,0.1,0.08,0.18,0.18,0.18h2.37v-3.62
			c0-0.1,0.08-0.18,0.18-0.18h2.2c0.1,0,0.18,0.08,0.18,0.18v3.62h2.43c0.1,0,0.18-0.08,0.18-0.18V53.7
			C26.07,53.6,25.99,53.52,25.89,53.52"/>
	</g>
	<g>
		<path class="st17" d="M51.28,52.02h-7.27c-0.1,0-0.18,0.08-0.18,0.17v7.34c0,0.09,0.08,0.17,0.18,0.17h7.27
			c0.1,0,0.18-0.08,0.18-0.17v-7.34C51.46,52.09,51.38,52.02,51.28,52.02 M47.3,56.81c0,0.1-0.08,0.17-0.18,0.17h-2.17
			c-0.1,0-0.18-0.08-0.18-0.17v-1.32c0-0.1,0.08-0.17,0.18-0.17h2.17c0.1,0,0.18,0.08,0.18,0.17V56.81z M47.3,54.37
			c0,0.1-0.08,0.17-0.18,0.17h-2.17c-0.1,0-0.18-0.08-0.18-0.17v-1.32c0-0.1,0.08-0.17,0.18-0.17h2.17c0.1,0,0.18,0.08,0.18,0.17
			V54.37z M50.63,56.81c0,0.1-0.08,0.17-0.18,0.17h-2.17c-0.1,0-0.18-0.08-0.18-0.17v-1.32c0-0.1,0.08-0.17,0.18-0.17h2.17
			c0.1,0,0.18,0.08,0.18,0.17V56.81z M50.63,54.37c0,0.1-0.08,0.17-0.18,0.17h-2.17c-0.1,0-0.18-0.08-0.18-0.17v-1.32
			c0-0.1,0.08-0.17,0.18-0.17h2.17c0.1,0,0.18,0.08,0.18,0.17V54.37z"/>
	</g>
	<g>
		<path class="st17" d="M34.38,34.97h-7.12c-0.1,0-0.17,0.08-0.17,0.17v24.32c0,0.1,0.08,0.17,0.17,0.17h7.12
			c0.1,0,0.18-0.08,0.18-0.17V35.15C34.55,35.05,34.47,34.97,34.38,34.97 M30.15,56.87c0,0.05-0.04,0.09-0.09,0.09h-1.63
			c-0.05,0-0.09-0.04-0.09-0.09v-1.82c0-0.05,0.04-0.09,0.09-0.09h1.63c0.05,0,0.09,0.04,0.09,0.09V56.87z M30.15,52.7
			c0,0.05-0.04,0.09-0.09,0.09h-1.63c-0.05,0-0.09-0.04-0.09-0.09v-1.82c0-0.05,0.04-0.09,0.09-0.09h1.63
			c0.05,0,0.09,0.04,0.09,0.09V52.7z M30.15,48.53c0,0.05-0.04,0.09-0.09,0.09h-1.63c-0.05,0-0.09-0.04-0.09-0.09v-1.82
			c0-0.05,0.04-0.09,0.09-0.09h1.63c0.05,0,0.09,0.04,0.09,0.09V48.53z M30.15,44.36c0,0.05-0.04,0.09-0.09,0.09h-1.63
			c-0.05,0-0.09-0.04-0.09-0.09v-1.82c0-0.05,0.04-0.09,0.09-0.09h1.63c0.05,0,0.09,0.04,0.09,0.09V44.36z M30.15,40.19
			c0,0.05-0.04,0.09-0.09,0.09h-1.63c-0.05,0-0.09-0.04-0.09-0.09v-1.82c0-0.05,0.04-0.09,0.09-0.09h1.63
			c0.05,0,0.09,0.04,0.09,0.09V40.19z M33.34,56.87c0,0.05-0.04,0.09-0.09,0.09h-1.63c-0.05,0-0.09-0.04-0.09-0.09v-1.82
			c0-0.05,0.04-0.09,0.09-0.09h1.63c0.05,0,0.09,0.04,0.09,0.09V56.87z M33.34,52.7c0,0.05-0.04,0.09-0.09,0.09h-1.63
			c-0.05,0-0.09-0.04-0.09-0.09v-1.82c0-0.05,0.04-0.09,0.09-0.09h1.63c0.05,0,0.09,0.04,0.09,0.09V52.7z M33.34,48.53
			c0,0.05-0.04,0.09-0.09,0.09h-1.63c-0.05,0-0.09-0.04-0.09-0.09v-1.82c0-0.05,0.04-0.09,0.09-0.09h1.63
			c0.05,0,0.09,0.04,0.09,0.09V48.53z M33.34,44.36c0,0.05-0.04,0.09-0.09,0.09h-1.63c-0.05,0-0.09-0.04-0.09-0.09v-1.82
			c0-0.05,0.04-0.09,0.09-0.09h1.63c0.05,0,0.09,0.04,0.09,0.09V44.36z M33.34,40.19c0,0.05-0.04,0.09-0.09,0.09h-1.63
			c-0.05,0-0.09-0.04-0.09-0.09v-1.82c0-0.05,0.04-0.09,0.09-0.09h1.63c0.05,0,0.09,0.04,0.09,0.09V40.19z"/>
	</g>
	<g>
		<path class="st17" d="M51.45,51.28c0,0.08-0.07,0.15-0.15,0.15h-7.32c-0.08,0-0.15-0.07-0.15-0.15v-1.46
			c0-0.08,0.07-0.15,0.15-0.15h7.32c0.08,0,0.15,0.07,0.15,0.15V51.28z"/>
	</g>
	<g>
		<path class="st17" d="M42.97,39.57c-0.02-0.08-0.09-0.14-0.18-0.14c-0.04,0-0.07,0.01-0.1,0.03c0,0-0.01,0.01-0.01,0.01
			l-0.06,0.08l-6.99,8.87l-0.03,0.04c-0.04,0.04-0.06,0.08-0.06,0.14v0.01V59.5c0,0.1,0.08,0.17,0.17,0.17h7.11
			c0.1,0,0.17-0.08,0.17-0.17V39.64C42.99,39.61,42.99,39.59,42.97,39.57 M40.03,44.38l0.05-0.06c0.48-0.61,1.29-1.61,1.68-2.09
			l0.05-0.06c0.04-0.04,0.09-0.07,0.16-0.07c0.1,0,0.17,0.07,0.19,0.16v0.08v0.06v2.1c0,0.11-0.08,0.2-0.19,0.2c0,0-0.01,0-0.01,0
			c0,0-0.01,0-0.01,0h-1.66H40.2c0,0-0.01,0-0.01,0c0,0-0.01,0-0.01,0c-0.11,0-0.19-0.09-0.19-0.2
			C39.99,44.46,40.01,44.42,40.03,44.38 M38.92,56.81c0,0.1-0.08,0.17-0.17,0.17h-2.12c-0.1,0-0.17-0.08-0.17-0.17v-1.33
			c0-0.1,0.08-0.17,0.17-0.17h2.12c0.1,0,0.17,0.08,0.17,0.17V56.81z M38.92,54.36c0,0.1-0.08,0.17-0.17,0.17h-2.12
			c-0.1,0-0.17-0.08-0.17-0.17v-1.33c0-0.1,0.08-0.17,0.17-0.17h2.12c0.1,0,0.17,0.08,0.17,0.17V54.36z M38.92,51.9
			c0,0.1-0.08,0.17-0.17,0.17h-2.12c-0.1,0-0.17-0.08-0.17-0.17v-1.33c0-0.1,0.08-0.17,0.17-0.17h2.12c0.1,0,0.17,0.08,0.17,0.17
			V51.9z M38.93,46.53v0.06v2.86c0,0.1-0.08,0.17-0.17,0.17h-2.12c-0.1,0-0.17-0.08-0.17-0.17V49.1v-0.01
			c0-0.02,0.01-0.04,0.01-0.07c0-0.01,0-0.01,0.01-0.02c0-0.01,0.01-0.02,0.01-0.02c0.01-0.01,0.01-0.02,0.02-0.03
			c0.27-0.39,1.49-1.89,2.01-2.52l0.05-0.06c0.04-0.04,0.09-0.07,0.16-0.07c0.1,0,0.17,0.07,0.19,0.16V46.53z M42.17,56.81
			c0,0.1-0.08,0.17-0.17,0.17h-2.12c-0.1,0-0.17-0.08-0.17-0.17v-1.33c0-0.1,0.08-0.17,0.17-0.17h2.12c0.09,0,0.17,0.08,0.17,0.17
			V56.81z M42.17,54.36c0,0.1-0.08,0.17-0.17,0.17h-2.12c-0.1,0-0.17-0.08-0.17-0.17v-1.33c0-0.1,0.08-0.17,0.17-0.17h2.12
			c0.09,0,0.17,0.08,0.17,0.17V54.36z M42.17,51.9c0,0.1-0.08,0.17-0.17,0.17h-2.12c-0.1,0-0.17-0.08-0.17-0.17v-1.33
			c0-0.1,0.08-0.17,0.17-0.17h2.12c0.09,0,0.17,0.08,0.17,0.17V51.9z M42.17,49.45c0,0.1-0.08,0.17-0.17,0.17h-2.12
			c-0.1,0-0.17-0.08-0.17-0.17v-1.33c0-0.1,0.08-0.17,0.17-0.17h2.12c0.09,0,0.17,0.08,0.17,0.17V49.45z M42.17,47
			c0,0.1-0.08,0.17-0.17,0.17h-2.12c-0.1,0-0.17-0.08-0.17-0.17v-1.33c0-0.1,0.08-0.17,0.17-0.17h2.12c0.09,0,0.17,0.08,0.17,0.17
			V47z"/>
	</g>
</g>
</svg>
