<?xml version="1.0" standalone="no"?>
<!DOCTYPE svg PUBLIC "-//W3C//DTD SVG 20010904//EN"
 "http://www.w3.org/TR/2001/REC-SVG-20010904/DTD/svg10.dtd">
<svg version="1.0" xmlns="http://www.w3.org/2000/svg"
 width="1072.000000pt" height="467.000000pt" viewBox="0 0 1072.000000 467.000000"
 preserveAspectRatio="xMidYMid meet">
<metadata>
Created by potrace 1.16, written by Peter Selinger 2001-2019
</metadata>
<g transform="translate(0.000000,467.000000) scale(0.100000,-0.100000)"
fill="#000000" stroke="none">
<path d="M3851 3079 c-73 -29 -141 -98 -172 -175 -24 -59 -24 -59 -27 -537 -3
-539 -1 -559 66 -657 53 -79 136 -120 254 -127 214 -14 338 55 394 217 27 79
28 454 1 545 -41 135 -122 198 -257 198 -86 0 -140 -21 -184 -73 l-26 -32 0
159 c0 87 4 175 9 196 18 77 84 113 154 84 47 -20 58 -45 65 -144 l5 -83 115
0 114 0 -4 118 c-6 171 -43 242 -153 300 -45 24 -63 27 -175 29 -108 3 -132 0
-179 -18z m207 -750 c60 -21 67 -44 70 -243 4 -212 -5 -253 -64 -281 -69 -32
-136 3 -155 82 -5 21 -9 101 -9 178 0 217 19 262 116 274 6 0 25 -4 42 -10z"/>
<path d="M5591 3072 c-72 -36 -76 -49 -79 -280 -2 -114 0 -222 3 -240 16 -86
108 -132 185 -94 31 15 40 16 40 6 0 -10 13 -14 45 -14 l45 0 0 170 0 170 -80
0 -80 0 0 -45 c0 -41 2 -45 25 -45 24 0 25 -3 25 -58 0 -67 -20 -105 -53 -100
-39 6 -47 41 -47 228 0 190 7 220 54 220 34 0 46 -19 46 -72 l0 -48 56 0 57 0
-6 65 c-8 81 -27 118 -71 139 -45 21 -122 20 -165 -2z"/>
<path d="M5240 3076 c0 -6 -108 -584 -114 -609 -4 -16 2 -18 52 -15 l57 3 8
53 9 53 51 -3 52 -3 9 -52 9 -53 58 0 c33 0 59 3 59 8 0 4 -27 144 -59 312
l-58 305 -66 3 c-37 2 -67 1 -67 -2z"/>
<path d="M5880 2809 c0 -255 1 -274 20 -304 26 -42 70 -60 142 -60 67 1 103
22 130 76 16 30 18 66 18 297 l0 262 -55 0 -55 0 0 -260 c0 -246 -1 -260 -19
-270 -27 -14 -37 -13 -55 6 -14 13 -16 52 -16 270 l0 254 -55 0 -55 0 0 -271z"/>
<path d="M6267 2773 c-32 -170 -57 -311 -57 -315 0 -5 24 -8 54 -8 l55 0 6 55
7 55 53 0 53 0 9 -52 8 -53 58 -3 c42 -2 57 1 57 10 0 7 -25 149 -57 316 l-57
302 -66 0 -65 0 -58 -307z"/>
<path d="M6700 2765 l0 -315 120 0 120 0 0 50 0 50 -60 0 -60 0 0 265 0 265
-60 0 -60 0 0 -315z"/>
<path d="M6980 2765 l0 -315 55 0 55 0 0 315 0 315 -55 0 -55 0 0 -315z"/>
<path d="M7140 2765 l0 -315 50 0 50 0 1 173 1 172 28 -135 c15 -74 30 -152
34 -172 6 -34 10 -38 36 -38 25 0 30 5 35 33 3 17 16 91 29 162 l24 130 1
-162 1 -163 55 0 55 0 0 315 0 316 -72 -3 -73 -3 -25 -142 c-14 -78 -27 -144
-30 -147 -3 -2 -18 63 -34 145 l-28 149 -69 0 -69 0 0 -315z"/>
<path d="M7590 2765 l0 -315 55 0 55 0 0 104 0 103 62 6 c110 10 137 50 137
209 1 115 -16 171 -60 193 -20 11 -61 15 -139 15 l-110 0 0 -315z m171 215
c17 -10 19 -22 19 -110 0 -88 -2 -100 -19 -110 -11 -5 -29 -10 -40 -10 -20 0
-21 5 -21 120 0 115 1 120 21 120 11 0 29 -5 40 -10z"/>
<path d="M7940 2765 l0 -315 60 0 60 0 0 315 0 315 -60 0 -60 0 0 -315z"/>
<path d="M8205 3068 c-4 -13 -115 -602 -115 -612 0 -3 24 -6 54 -6 l54 0 9 53
8 52 52 3 52 3 6 -38 c13 -74 12 -73 71 -73 46 0 54 3 54 19 0 10 -25 149 -55
307 -30 159 -55 292 -55 296 0 14 -130 9 -135 -4z"/>
<path d="M5674 2206 c-67 -29 -96 -106 -74 -197 10 -42 26 -65 101 -144 80
-85 89 -98 89 -133 0 -43 -14 -62 -45 -62 -34 0 -45 20 -45 82 l0 58 -56 0
-57 0 5 -72 c6 -93 25 -131 78 -152 79 -32 170 -13 207 43 19 28 23 47 23 108
0 41 -5 84 -11 96 -6 12 -49 60 -95 108 -45 47 -86 97 -89 111 -10 38 10 68
44 68 32 0 41 -14 41 -66 l0 -34 56 0 57 0 -6 60 c-3 34 -13 72 -22 86 -32 50
-133 69 -201 40z"/>
<path d="M9031 2202 c-19 -9 -44 -30 -55 -45 -20 -26 -21 -44 -24 -250 -2
-197 -1 -226 15 -256 30 -57 65 -76 142 -76 76 0 110 16 141 68 18 29 20 52
20 253 0 213 -1 222 -23 255 -29 43 -80 69 -137 69 -25 0 -60 -8 -79 -18z
m113 -98 c24 -24 24 -389 -1 -416 -22 -24 -49 -23 -67 4 -13 18 -16 56 -16
203 0 147 3 185 16 203 18 26 46 28 68 6z"/>
<path d="M5125 2198 c2 -7 29 -96 60 -196 53 -179 55 -187 55 -303 l0 -119 60
0 60 0 0 127 c0 125 1 129 55 309 30 101 55 185 55 189 0 3 -25 5 -55 5 l-54
0 -12 -42 c-6 -24 -19 -72 -29 -108 l-17 -65 -15 55 c-9 30 -22 78 -30 105
l-14 50 -62 3 c-47 2 -61 0 -57 -10z"/>
<path d="M6031 2158 c-6 -29 -31 -161 -56 -293 -25 -132 -47 -250 -50 -262 -5
-22 -2 -23 49 -23 59 0 58 -1 71 73 6 37 6 37 55 37 53 0 52 0 65 -72 l6 -38
61 0 c57 0 60 1 55 23 -3 12 -29 144 -57 292 -28 149 -54 280 -57 293 -5 20
-11 22 -68 22 l-64 0 -10 -52z"/>
<path d="M6320 1895 l0 -315 50 0 50 0 1 173 c1 195 -6 199 70 -40 l41 -133
49 0 49 0 0 315 0 315 -45 0 -45 0 -2 -160 -3 -160 -50 160 -50 160 -57 0 -58
0 0 -315z"/>
<path d="M6680 1895 l0 -315 130 0 130 0 0 45 0 45 -70 0 -70 0 0 90 0 90 50
0 50 0 0 50 0 50 -50 0 -50 0 0 85 0 85 70 0 70 0 0 45 0 45 -130 0 -130 0 0
-315z"/>
<path d="M7085 2188 c-2 -13 -27 -144 -55 -293 -28 -148 -52 -280 -55 -292 -5
-22 -2 -23 49 -23 59 0 58 -1 71 73 6 37 6 37 55 37 53 0 52 0 65 -72 l6 -38
60 0 c56 0 59 1 54 23 -2 12 -25 130 -50 262 -25 132 -50 264 -56 293 l-10 52
-65 0 c-58 0 -64 -2 -69 -22z"/>
<path d="M7370 1895 l0 -315 50 0 50 0 1 163 1 162 32 -160 31 -160 31 -3 31
-3 29 173 29 173 3 -172 2 -173 50 0 50 0 0 315 0 315 -69 0 -69 0 -12 -67
c-6 -38 -19 -111 -28 -163 l-17 -95 -30 160 -30 160 -68 3 -67 3 0 -316z"/>
<path d="M7810 1895 l0 -315 60 0 60 0 0 315 0 315 -60 0 -60 0 0 -315z"/>
<path d="M7980 1895 l0 -315 130 0 130 0 0 45 0 45 -75 0 -75 0 0 90 0 90 55
0 55 0 0 50 0 50 -55 0 -55 0 0 85 0 85 75 0 75 0 0 45 0 45 -130 0 -130 0 0
-315z"/>
<path d="M8280 1895 l0 -315 50 0 50 0 2 176 3 177 55 -177 54 -176 53 0 53 0
0 315 0 315 -50 0 -50 0 -1 -157 0 -158 -40 120 c-21 66 -44 137 -49 158 l-11
37 -59 0 -60 0 0 -315z"/>
<path d="M8630 2165 l0 -45 45 0 45 0 0 -270 0 -270 60 0 60 0 0 270 0 270 40
0 40 0 0 45 0 45 -145 0 -145 0 0 -45z"/>
</g>
</svg>
