<?xml version="1.0" standalone="no"?>
<!DOCTYPE svg PUBLIC "-//W3C//DTD SVG 20010904//EN"
 "http://www.w3.org/TR/2001/REC-SVG-20010904/DTD/svg10.dtd">
<svg version="1.0" xmlns="http://www.w3.org/2000/svg"
 width="1072.000000pt" height="467.000000pt" viewBox="0 0 1072.000000 467.000000"
 preserveAspectRatio="xMidYMid meet">
<metadata>
Created by potrace 1.16, written by Peter Selinger 2001-2019
</metadata>
<g transform="translate(0.000000,467.000000) scale(0.100000,-0.100000)"
fill="#000000" stroke="none">
<path d="M1615 3745 c-530 -86 -955 -441 -1133 -945 -134 -382 -89 -843 117
-1190 139 -233 356 -437 594 -557 96 -48 284 -108 396 -127 120 -20 356 -21
476 -1 262 42 513 161 712 337 239 210 400 495 459 813 28 146 25 403 -4 542
-75 348 -264 648 -541 856 -160 121 -342 204 -551 253 -136 32 -388 41 -525
19z m405 -735 c111 -31 290 -137 290 -172 0 -11 -90 -98 -102 -98 -4 0 -37 20
-72 44 -377 258 -886 -4 -886 -456 0 -144 34 -244 125 -364 80 -107 198 -185
330 -220 68 -18 227 -18 299 1 157 41 311 165 379 305 55 113 71 186 64 305
-6 111 -26 181 -83 284 -28 51 -31 62 -15 46 12 -10 40 -55 62 -100 124 -252
76 -554 -120 -755 -122 -125 -263 -188 -441 -197 -87 -5 -120 -2 -188 15 -314
80 -535 362 -535 682 1 120 22 212 75 320 34 69 59 102 133 175 118 118 213
170 370 201 89 17 217 11 315 -16z m108 -572 l-3 -73 -290 0 -290 0 -3 73 -3
72 296 0 296 0 -3 -72z m2 -243 l0 -75 -292 2 -293 3 -3 59 c-2 32 -1 65 2 72
4 11 60 14 296 14 l290 0 0 -75z"/>
<path d="M4505 3056 c-132 -42 -212 -145 -235 -301 -12 -89 -13 -786 0 -884
18 -136 84 -237 188 -288 53 -26 66 -28 177 -28 116 0 123 1 188 33 77 38 123
90 159 180 23 56 23 66 26 502 3 302 0 466 -8 510 -23 132 -108 237 -222 274
-61 19 -214 21 -273 2z m197 -220 c46 -29 48 -47 48 -526 0 -479 0 -480 -48
-523 -23 -21 -88 -25 -120 -8 -12 6 -30 26 -39 44 -16 29 -18 72 -18 487 0
421 1 458 18 488 31 56 103 73 159 38z"/>
<path d="M3778 2922 l-118 -137 0 -132 c0 -73 3 -133 7 -133 4 0 45 37 90 82
l83 83 0 -563 0 -562 130 0 130 0 0 750 0 750 -102 0 -103 0 -117 -138z"/>
<path d="M6955 3026 c-85 -32 -97 -78 -93 -335 3 -175 5 -200 23 -231 30 -51
76 -72 153 -68 54 4 67 8 93 34 35 35 48 83 49 172 l0 62 -55 0 -55 0 0 -73
c0 -77 -9 -97 -45 -97 -42 0 -45 14 -45 225 0 212 3 225 47 225 30 0 43 -28
43 -89 l0 -51 56 0 57 0 -6 76 c-6 79 -21 113 -61 139 -34 23 -114 28 -161 11z"/>
<path d="M7315 3025 c-22 -8 -41 -15 -42 -15 -1 0 -12 -17 -25 -37 -22 -37
-23 -45 -23 -258 0 -202 2 -223 20 -254 26 -45 78 -71 138 -71 108 0 149 48
155 182 l4 88 -56 0 -56 0 0 -73 c0 -77 -9 -97 -45 -97 -42 0 -45 14 -45 221
0 166 2 200 16 213 18 19 45 21 62 4 7 -7 12 -38 12 -70 l0 -58 56 0 57 0 -6
73 c-6 87 -22 124 -59 143 -43 22 -117 27 -163 9z"/>
<path d="M7831 3018 c-76 -39 -81 -59 -81 -303 0 -230 6 -257 62 -298 33 -24
114 -33 160 -18 92 30 112 98 106 356 -3 147 -6 175 -23 204 -29 50 -64 71
-126 77 -44 4 -62 1 -98 -18z m113 -94 c13 -13 16 -46 16 -205 0 -112 -4 -198
-10 -210 -14 -26 -55 -24 -74 3 -13 18 -16 56 -16 203 0 147 3 185 16 203 18
26 46 28 68 6z"/>
<path d="M10096 3030 c-79 -24 -114 -111 -85 -214 8 -28 36 -65 94 -126 46
-48 87 -99 91 -114 15 -61 -23 -109 -64 -80 -18 13 -22 25 -22 75 l0 59 -55 0
-55 0 0 -67 c0 -118 49 -173 153 -173 109 0 157 50 157 163 0 88 -13 112 -116
218 -67 68 -84 93 -84 116 0 34 16 53 45 53 31 0 45 -19 45 -62 l0 -38 56 0
57 0 -7 56 c-3 31 -13 68 -21 84 -25 48 -115 72 -189 50z"/>
<path d="M5470 2715 l0 -315 55 0 55 0 1 128 1 127 42 -125 43 -125 61 -3 c34
-2 62 -1 62 2 0 3 -21 63 -46 135 l-46 131 36 34 36 33 0 104 c0 63 -5 114
-13 129 -22 44 -70 60 -184 60 l-103 0 0 -315z"/>
<path d="M5820 2715 l0 -315 130 0 130 0 0 45 0 45 -70 0 -70 0 0 90 0 90 50
0 50 0 0 50 0 50 -50 0 -50 0 0 80 0 80 70 0 70 0 0 50 0 50 -130 0 -130 0 0
-315z"/>
<path d="M6130 2715 l0 -315 106 0 c133 0 168 14 196 77 18 40 19 64 16 252
-3 229 -7 242 -71 281 -26 17 -51 20 -139 20 l-108 0 0 -315z m188 203 c14
-14 17 -384 4 -406 -5 -7 -25 -15 -45 -19 l-37 -6 0 222 0 221 33 0 c18 0 38
-5 45 -12z"/>
<path d="M6500 2764 c0 -228 2 -271 17 -301 43 -91 220 -98 273 -11 19 31 20
50 20 306 l0 272 -50 0 -50 0 0 -248 c0 -208 -2 -251 -16 -270 -8 -12 -24 -22
-34 -22 -10 0 -26 10 -34 22 -14 19 -16 62 -16 270 l0 248 -55 0 -55 0 0 -266z"/>
<path d="M7580 2715 l0 -315 60 0 60 0 0 315 0 315 -60 0 -60 0 0 -315z"/>
<path d="M8120 2715 l0 -315 50 0 50 0 2 176 3 177 55 -177 54 -176 53 0 53 0
0 315 0 315 -50 0 -50 0 -1 -157 c-1 -178 5 -182 -65 40 l-37 117 -58 0 -59 0
0 -315z"/>
<path d="M8580 2714 l0 -316 124 4 c122 3 125 4 155 32 44 42 54 105 49 315
-3 155 -5 180 -23 211 -33 56 -73 70 -197 70 l-108 0 0 -316z m198 204 c9 -9
12 -68 12 -204 0 -188 -1 -193 -22 -208 -12 -9 -33 -16 -45 -16 l-23 0 0 220
0 220 33 0 c18 0 38 -5 45 -12z"/>
<path d="M8960 2715 l0 -315 130 0 130 0 0 45 0 45 -75 0 -75 0 0 90 0 90 50
0 50 0 0 50 0 50 -50 0 -50 0 0 80 0 80 75 0 75 0 0 50 0 50 -130 0 -130 0 0
-315z"/>
<path d="M9360 2715 l0 -315 120 0 120 0 0 45 0 45 -65 0 -65 0 0 270 0 270
-55 0 -55 0 0 -315z"/>
<path d="M9681 2742 c-29 -158 -56 -299 -58 -314 -5 -28 -5 -28 50 -28 l56 0
6 55 7 55 53 0 54 0 6 -55 7 -55 59 0 c33 0 59 3 59 8 1 4 -25 145 -57 315
l-57 307 -66 0 -65 0 -54 -288z"/>
<path d="M6239 2161 c-75 -25 -99 -60 -99 -151 0 -79 15 -107 111 -206 72 -75
79 -85 79 -122 0 -38 -19 -72 -41 -72 -26 0 -49 42 -49 90 l0 50 -50 0 -50 0
0 -70 c0 -43 6 -82 15 -99 22 -43 75 -64 153 -59 59 4 67 7 97 39 36 40 51
102 39 166 -10 58 -26 82 -104 158 -87 84 -109 125 -85 161 32 49 75 24 75
-43 l0 -43 55 0 55 0 0 53 c0 63 -25 117 -61 135 -36 16 -108 23 -140 13z"/>
<path d="M6760 2159 c-19 -6 -43 -18 -54 -27 -42 -39 -46 -61 -46 -292 0 -239
3 -258 56 -299 36 -29 112 -29 148 0 21 17 26 18 26 5 0 -12 10 -16 40 -16
l40 0 0 170 0 170 -80 0 -80 0 0 -45 c0 -41 2 -45 25 -45 24 0 25 -2 25 -68 0
-40 -5 -73 -12 -80 -18 -18 -56 -14 -68 7 -6 12 -10 96 -10 203 0 150 3 188
16 206 34 49 84 10 84 -65 l0 -43 50 0 50 0 0 60 c0 109 -34 152 -130 164 -25
3 -61 0 -80 -5z"/>
<path d="M9545 2161 c-76 -19 -105 -61 -105 -151 0 -74 19 -109 109 -203 77
-80 81 -86 81 -130 0 -54 -24 -76 -60 -57 -17 9 -20 21 -20 70 l0 60 -56 0
-56 0 4 -80 c3 -74 5 -82 35 -112 28 -28 40 -33 96 -36 47 -3 74 1 100 13 57
27 72 58 72 151 0 93 -8 108 -127 227 -56 56 -68 74 -68 100 0 39 15 57 47 57
27 0 43 -27 43 -74 l0 -36 50 0 50 0 0 58 c0 64 -13 97 -50 123 -29 21 -102
31 -145 20z"/>
<path d="M5470 1846 l0 -316 110 0 c122 0 154 10 186 57 17 25 19 51 22 243 2
190 1 219 -15 249 -33 64 -61 76 -189 79 l-114 4 0 -316z m195 190 c14 -21 16
-53 13 -206 -3 -166 -5 -183 -22 -196 -11 -8 -32 -14 -48 -14 l-28 0 0 220 0
220 35 0 c26 0 39 -6 50 -24z"/>
<path d="M5840 1845 l0 -315 130 0 130 0 0 45 0 45 -75 0 -75 0 0 90 0 90 55
0 55 0 0 50 0 50 -55 0 -55 0 0 80 0 80 75 0 75 0 0 50 0 50 -130 0 -130 0 0
-315z"/>
<path d="M6490 1845 l0 -315 60 0 60 0 0 315 0 315 -60 0 -60 0 0 -315z"/>
<path d="M7022 1887 c3 -243 5 -276 21 -300 29 -44 75 -67 135 -67 67 0 112
21 137 63 18 29 20 55 23 305 l4 272 -56 0 -56 0 0 -251 c0 -153 -4 -258 -10
-270 -12 -21 -50 -25 -68 -7 -9 9 -12 83 -12 270 l0 258 -61 0 -60 0 3 -273z"/>
<path d="M7445 2013 c-15 -82 -42 -223 -60 -315 l-32 -168 57 0 58 0 7 55 7
56 51 -3 52 -3 8 -52 9 -53 60 0 60 0 -6 28 c-3 15 -28 149 -56 297 -28 149
-53 278 -56 288 -4 14 -17 17 -68 17 l-64 0 -27 -147z"/>
<path d="M7750 1845 l0 -315 120 0 120 0 0 45 0 45 -60 0 -60 0 0 270 0 270
-60 0 -60 0 0 -315z"/>
<path d="M8030 1844 l0 -316 124 4 c191 5 196 13 196 314 0 172 -3 212 -17
241 -25 54 -75 73 -200 73 l-103 0 0 -316z m194 200 c13 -13 16 -46 16 -200 0
-171 -1 -185 -20 -204 -11 -11 -33 -20 -50 -20 l-30 0 0 220 0 220 34 0 c19 0
42 -7 50 -16z"/>
<path d="M8481 2108 c-6 -29 -31 -161 -56 -293 -25 -132 -47 -250 -50 -262 -5
-22 -2 -23 49 -23 59 0 58 -1 71 73 6 37 6 37 55 37 53 0 52 0 65 -72 l6 -38
60 0 c53 0 60 2 55 18 -3 9 -28 139 -56 287 -28 149 -53 282 -56 298 -5 26 -8
27 -69 27 l-64 0 -10 -52z"/>
<path d="M8770 1844 l0 -316 124 4 c191 5 196 13 196 314 0 172 -3 212 -17
241 -25 54 -75 73 -200 73 l-103 0 0 -316z m194 200 c13 -13 16 -46 16 -200 0
-171 -1 -185 -20 -204 -11 -11 -31 -20 -45 -20 l-25 0 0 220 0 220 29 0 c16 0
37 -7 45 -16z"/>
<path d="M9140 1845 l0 -315 130 0 130 0 0 45 0 45 -70 0 -70 0 0 90 0 90 50
0 50 0 0 50 0 50 -50 0 -50 0 0 80 0 80 70 0 70 0 0 50 0 50 -130 0 -130 0 0
-315z"/>
</g>
</svg>
