<?xml version="1.0" encoding="utf-8"?>
<!-- Generator: Adobe Illustrator 24.0.2, SVG Export Plug-In . SVG Version: 6.00 Build 0)  -->
<svg version="1.1" id="Capa_1" xmlns="http://www.w3.org/2000/svg" xmlns:xlink="http://www.w3.org/1999/xlink" x="0px" y="0px"
	 viewBox="0 0 94.27 59.82" style="enable-background:new 0 0 94.27 59.82;" xml:space="preserve">
<style type="text/css">
	.st0{fill:#D3A13C;}
	.st1{fill:#4D9748;}
	.st2{fill:#D32E3C;}
	.st3{fill:#E0432F;}
	.st4{fill:#2DAFD2;}
	.st5{fill:#B8252F;}
	.st6{fill:#9A2142;}
	.st7{fill:#E46831;}
	.st8{fill:#EEBB27;}
	.st9{fill:#EE9830;}
	.st10{fill:#B6872F;}
	.st11{fill:#CE2364;}
	.st12{fill:#268BC3;}
	.st13{fill:#5DAE49;}
	.st14{fill:#427D44;}
	.st15{fill:#1C4769;}
	.st16{fill:#0B6695;}
	.st17{fill:#FFFFFF;}
	.st18{fill-rule:evenodd;clip-rule:evenodd;fill:#00A0DB;}
	.st19{fill-rule:evenodd;clip-rule:evenodd;fill:#0782BE;}
	.st20{fill-rule:evenodd;clip-rule:evenodd;fill:#FFFFFF;}
	.st21{fill-rule:evenodd;clip-rule:evenodd;fill:#E86537;}
	.st22{fill-rule:evenodd;clip-rule:evenodd;fill:#034569;}
	.st23{fill-rule:evenodd;clip-rule:evenodd;fill:#DE2A66;}
	.st24{fill-rule:evenodd;clip-rule:evenodd;fill:#057C40;}
	.st25{fill-rule:evenodd;clip-rule:evenodd;fill:#CF9521;}
	.st26{fill-rule:evenodd;clip-rule:evenodd;fill:#B31D42;}
	.st27{fill-rule:evenodd;clip-rule:evenodd;fill:#D9272E;}
	.st28{fill-rule:evenodd;clip-rule:evenodd;fill:#E34538;}
	.st29{fill-rule:evenodd;clip-rule:evenodd;fill:#EF9431;}
	.st30{fill-rule:evenodd;clip-rule:evenodd;fill:#ECB129;}
	.st31{fill-rule:evenodd;clip-rule:evenodd;fill:#F7BC13;}
	.st32{fill-rule:evenodd;clip-rule:evenodd;fill:#19A240;}
	.st33{fill-rule:evenodd;clip-rule:evenodd;fill:#02983B;}
	.st34{fill-rule:evenodd;clip-rule:evenodd;fill:#E13244;}
	.st35{fill-rule:evenodd;clip-rule:evenodd;fill:#066698;}
	.st36{fill-rule:evenodd;clip-rule:evenodd;fill:#008CC4;}
	.st37{fill-rule:evenodd;clip-rule:evenodd;fill:#00A3C6;}
	.st38{fill-rule:evenodd;clip-rule:evenodd;fill:#067FC2;stroke:#067FC2;stroke-width:0.25;stroke-miterlimit:22.9256;}
	.st39{fill:none;stroke:#067FC2;stroke-width:0.25;stroke-miterlimit:22.9256;}
	.st40{fill:none;stroke:#119AD7;stroke-width:0.25;stroke-miterlimit:22.9256;}
	.st41{fill-rule:evenodd;clip-rule:evenodd;fill:#067FC2;}
</style>
<g>
	<g>
		<path class="st18" d="M72.31,49.95c1.27,0,2.52-0.03,3.77,0.01c0.53,0.02,1.07,0.13,1.55,0.4c0.45,0.24,0.73,0.64,1.04,1.02
			c0.13,0.52,0.33,1.03,0.24,1.57c-0.08,0.46-0.27,0.89-0.59,1.22c-0.19,0.2-0.45,0.33-0.68,0.49c0.4,0.11,0.78,0.32,1.06,0.67
			c0.25,0.3,0.4,0.65,0.46,1.04c0.02,0.13,0.07,0.25,0.08,0.38c0.02,0.49-0.1,0.95-0.3,1.39c-0.23,0.5-0.62,0.87-1.1,1.14
			c-0.43,0.24-0.89,0.35-1.38,0.42c-0.69,0.11-1.37,0.04-2.06,0.06c-0.69,0.02-1.39,0-2.1,0C72.31,56.5,72.31,53.24,72.31,49.95z
			 M74.27,55.59c0,0.84,0,1.64,0,2.45c0.52,0,1.02,0,1.52,0c0.49,0,0.88-0.2,1.19-0.56c0.06-0.07,0.13-0.15,0.13-0.23
			c0-0.24,0.19-0.47,0.01-0.71c0.01-0.44-0.61-0.94-1.09-0.95C75.45,55.58,74.87,55.59,74.27,55.59z M74.27,53.96
			c0.51,0,1,0.02,1.49-0.01c0.33-0.02,0.65-0.15,0.9-0.39c0.27-0.27,0.34-0.63,0.23-1.03c-0.02-0.09-0.01-0.18-0.02-0.26
			c-0.11-0.11-0.21-0.21-0.3-0.3c-0.19-0.2-0.44-0.28-0.69-0.3c-0.53-0.02-1.06-0.01-1.6-0.01C74.27,52.43,74.27,53.17,74.27,53.96z
			"/>
		<path class="st19" d="M14.81,23.94c1.82,0,3.61-0.04,5.41,0.02c0.76,0.03,1.53,0.19,2.22,0.57c0.64,0.34,1.05,0.92,1.49,1.46
			c0.19,0.74,0.48,1.47,0.35,2.26c-0.11,0.66-0.39,1.27-0.85,1.75c-0.28,0.29-0.65,0.48-0.98,0.7c0.58,0.16,1.12,0.47,1.52,0.97
			c0.35,0.44,0.57,0.93,0.66,1.48c0.03,0.18,0.1,0.36,0.11,0.54c0.03,0.7-0.14,1.37-0.43,1.99c-0.33,0.71-0.89,1.24-1.58,1.63
			c-0.62,0.35-1.28,0.49-1.98,0.61c-0.99,0.16-1.97,0.06-2.95,0.09c-0.99,0.03-1.99,0.01-3,0.01
			C14.81,33.33,14.81,28.66,14.81,23.94z M17.62,32.03c0,1.21,0,2.35,0,3.52c0.74,0,1.46,0,2.18,0c0.7,0,1.26-0.29,1.71-0.81
			c0.08-0.1,0.18-0.22,0.18-0.33c-0.01-0.34,0.28-0.68,0.01-1.02c0.02-0.63-0.88-1.34-1.56-1.36
			C19.31,32.01,18.48,32.03,17.62,32.03z M17.62,29.68c0.73,0,1.43,0.03,2.13-0.01c0.48-0.03,0.93-0.21,1.29-0.56
			c0.39-0.38,0.49-0.91,0.33-1.48c-0.03-0.12-0.02-0.26-0.02-0.37c-0.16-0.16-0.3-0.29-0.43-0.44c-0.27-0.28-0.63-0.41-0.99-0.42
			c-0.76-0.03-1.52-0.01-2.29-0.01C17.62,27.49,17.62,28.56,17.62,29.68z"/>
		<path class="st19" d="M6.59,23.68c1.32,0.04,2.35,0.22,3.32,0.7c0.91,0.45,1.62,1.1,2.26,1.89c0.56,0.69,0.9,1.47,1.17,2.27
			c0.17,0.52,0.31,1.07,0.29,1.64c-0.01,0.16-0.05,0.33,0.09,0.49c0.07,0.08,0.07,0.29,0.01,0.39c-0.16,0.29-0.06,0.6-0.11,0.89
			c-0.13,0.7-0.24,1.39-0.51,2.07c-0.44,1.09-1.1,2-1.97,2.75c-0.71,0.61-1.54,1.02-2.47,1.23c-0.82,0.19-1.65,0.3-2.48,0.21
			c-0.87-0.1-1.72-0.31-2.51-0.73c-0.45-0.23-0.88-0.5-1.22-0.87c-0.32-0.35-0.68-0.67-0.97-1.05c-0.45-0.6-0.75-1.25-0.98-1.94
			c-0.09-0.27-0.26-0.53-0.24-0.84c0.01-0.29-0.2-0.54-0.12-0.83c-0.21-0.46-0.11-0.94-0.11-1.42c0-0.38,0.14-0.76,0.19-1.14
			c0.06-0.48,0.22-0.92,0.39-1.37c0.2-0.57,0.47-1.1,0.82-1.6c0.29-0.42,0.66-0.74,1.01-1.1c0.6-0.63,1.35-1.02,2.17-1.27
			C5.32,23.84,6.07,23.62,6.59,23.68z M10.69,30.96c-0.03-0.42,0.02-0.89-0.1-1.37c-0.09-0.38-0.2-0.74-0.33-1.1
			c-0.24-0.67-0.74-1.13-1.25-1.59c-0.22-0.2-0.52-0.32-0.8-0.46c-0.18-0.09-0.4-0.13-0.58-0.15c-0.5-0.06-1.01-0.05-1.52-0.01
			c-0.26,0.02-0.53,0.13-0.77,0.25c-0.49,0.22-0.91,0.61-1.31,1.06c-0.35,0.39-0.53,0.87-0.73,1.34c-0.27,0.63-0.25,1.31-0.34,1.96
			c-0.07,0.47,0.19,0.93,0.11,1.41c0.17,0.25,0.15,0.57,0.25,0.83c0.11,0.27,0.27,0.51,0.41,0.77c0.28,0.54,0.71,0.94,1.21,1.27
			c0.84,0.56,1.8,0.47,2.73,0.47c0.14-0.24,0.47,0.01,0.61-0.23c1.76-0.82,2.23-2.24,2.4-3.66C10.71,31.52,10.69,31.27,10.69,30.96z
			"/>
		<path class="st19" d="M33.22,23.95c2.97,0,5.91,0,8.87,0c0,0.85,0,1.68,0,2.56c-2.01,0-4.03,0-6.06,0c0,1.07,0,2.1,0,3.15
			c1.97,0,3.93,0,5.96,0c0.02,0.83,0,1.64,0.01,2.47c-1.99,0-3.96,0-5.95,0c0,1.1,0,2.19,0,3.29c2.01,0,4.01,0,6.05,0
			c0,0.87,0,1.72,0,2.58c-2.96,0-5.9,0-8.87,0C33.22,33.33,33.22,28.67,33.22,23.95z"/>
		<path class="st19" d="M91,27.69c0.04-0.75-0.46-1.1-1.01-1.38c-0.4-0.2-1.34-0.16-1.84-0.04c-0.2,0.05-0.43,0.03-0.58,0.15
			c-0.22,0.18-0.4,0.42-0.68,0.74c-0.03,0.17-0.09,0.48-0.13,0.75c0.05,0.08,0.07,0.11,0.08,0.15c0.3,0.81,1.02,1.06,1.73,1.29
			c0.98,0.31,1.97,0.64,2.94,0.97c0.61,0.21,1.22,0.53,1.68,1.05c0.46,0.52,0.78,1.09,0.88,1.81c0.04,0.3,0.13,0.6,0.09,0.89
			c-0.08,0.52-0.11,1.06-0.34,1.55c-0.3,0.64-0.75,1.17-1.28,1.64c-0.22,0.19-1.24,0.75-1.5,0.76c-0.34,0.02-0.66,0.21-1.01,0.13
			c-0.5,0.2-1.02,0.11-1.53,0.11c-0.82-0.01-1.62-0.2-2.37-0.5c-0.52-0.21-1.02-0.55-1.4-1.01c-0.33-0.4-0.6-0.84-0.75-1.33
			c-0.17-0.51-0.3-1.04-0.23-1.59c0.08-0.01,0.14-0.02,0.19-0.02c0.86,0,1.71,0,2.61,0c-0.03,0.45,0.18,0.83,0.37,1.2
			c0.2,0.38,0.62,0.53,0.99,0.67c0.57,0.21,1.18,0.16,1.76,0.12c0.41-0.03,0.78-0.28,1.15-0.46c0.24-0.12,0.37-0.36,0.43-0.63
			c0.05-0.24,0.25-0.48,0-0.72c-0.03-0.47-0.34-0.68-0.73-0.88c-0.76-0.39-1.58-0.63-2.37-0.93c-0.56-0.21-1.12-0.43-1.68-0.61
			c-0.75-0.25-1.29-0.78-1.79-1.34c-0.3-0.34-0.46-0.79-0.58-1.22c-0.25-0.9-0.17-1.54,0.18-2.46c0.1-0.27,0.31-0.5,0.39-0.78
			c0.08-0.3,0.47-0.35,0.48-0.68c0.66-0.45,1.26-0.97,2.11-1.15c0.78-0.16,1.54-0.25,2.31-0.19c0.49,0.04,0.98,0.13,1.46,0.28
			c0.47,0.15,0.92,0.36,1.31,0.65c0.67,0.5,1.13,1.18,1.37,2c0.1,0.33,0.15,0.66,0.09,1.02C92.88,27.69,91.97,27.69,91,27.69z"/>
		<path class="st19" d="M63.4,34.15c0.13-0.4,0.3-0.78,0.38-1.19c0.09-0.49,0.25-0.96,0.38-1.43c0.14-0.5,0.25-1.02,0.44-1.52
			c0.17-0.46,0.21-0.97,0.38-1.43c0.13-0.34,0.2-0.7,0.33-1.04c0.13-0.32,0.15-0.68,0.25-1.01c0.1-0.37,0.24-0.72,0.35-1.09
			c0.13-0.42,0.23-0.84,0.36-1.26c0.03-0.08,0.09-0.16,0.14-0.24c0.96,0,1.91,0,2.92,0c-0.05,0.21-0.08,0.41-0.13,0.59
			c-0.27,0.83-0.55,1.65-0.82,2.47c-0.25,0.76-0.48,1.52-0.73,2.28c-0.34,1.03-0.69,2.06-1.03,3.09c-0.18,0.53-0.33,1.08-0.5,1.61
			c-0.3,0.93-0.61,1.86-0.91,2.79c-0.13,0.4-0.26,0.79-0.4,1.21c-0.96,0-1.96,0-2.94,0c-1.51-4.65-3.03-9.32-4.56-14.02
			c1.04,0,2.03,0,3.08,0c0.11,0.37,0.24,0.78,0.37,1.19c0.23,0.74,0.45,1.49,0.67,2.24c0.14,0.47,0.26,0.95,0.39,1.42
			c0.13,0.47,0.18,0.97,0.46,1.39c-0.01,0.51,0.25,0.95,0.37,1.43c0.11,0.47,0.2,0.96,0.45,1.39C63.04,33.45,63.34,33.76,63.4,34.15
			z"/>
		<path class="st19" d="M46.09,37.99c0-3.82,0-7.63,0-11.45c-1.2,0-2.39,0-3.63,0c-0.01-0.87,0-1.71-0.01-2.58
			c3.39,0,6.77,0,10.18,0c0.05,0.83,0,1.67,0.03,2.54c-1.25,0-2.48,0-3.74,0c0,3.83,0,7.65,0,11.49
			C47.97,37.99,47.06,37.99,46.09,37.99z"/>
		<path class="st19" d="M25,38.14c0-0.85,0-1.65,0-2.48c0.63,0,1.25,0.02,1.87-0.01c0.51-0.02,1.01-0.12,1.34-0.58
			c0.11-0.16,0.19-0.35,0.28-0.54c0-2.65,0-5.32,0-8.01c-1.16,0-2.31,0-3.44,0c-0.06-0.06-0.1-0.1-0.16-0.17c0-0.73,0-1.49,0-2.27
			c0.04-0.03,0.09-0.09,0.14-0.14c2.09,0,4.17,0,6.28,0c0,0.2,0,0.4,0,0.59c0,3.12,0,6.25,0,9.37c0,0.24-0.03,0.48-0.1,0.72
			c-0.06,0.24-0.06,0.51-0.13,0.77c-0.06,0.23-0.25,0.4-0.25,0.66c0,0.13-0.25,0.18-0.23,0.37c-0.55,0.57-1.09,1.15-1.9,1.34
			c-0.49,0.12-0.99,0.16-1.48,0.26C26.5,38.17,25.77,38.07,25,38.14z"/>
		<path class="st18" d="M47.51,59.69c-0.66,0-1.26,0-1.88,0c0-3.31,0-6.6,0-9.92c0.67,0,1.36,0,2.07,0
			c1.31,2.17,2.63,4.35,4.01,6.63c0-2.29,0-4.46,0-6.65c0.64,0,1.24,0,1.86,0c0,3.3,0,6.6,0,9.95c-0.3,0.02-0.62,0.01-0.95,0.01
			c-0.31,0-0.63,0-1,0c-0.19-0.29-0.4-0.61-0.61-0.93c-0.42-0.67-0.84-1.33-1.23-2.01c-0.25-0.43-0.5-0.85-0.76-1.27
			c-0.4-0.67-0.81-1.34-1.23-2.01c-0.09-0.14-0.16-0.3-0.27-0.53C47.51,55.24,47.51,57.44,47.51,59.69z"/>
		<path class="st18" d="M10.33,49.73c0.68,0,1.31,0,1.97,0c0.01,0.15,0.02,0.29,0.02,0.44c0,1.95,0,3.9,0,5.85
			c0,0.7,0.27,1.29,0.81,1.71c0.6,0.47,1.99,0.46,2.6,0c0.56-0.42,0.79-1.04,0.8-1.71c0.02-1.89,0.01-3.79,0.01-5.68
			c0-0.19,0-0.38,0-0.6c0.66,0,1.3,0,1.99,0c0,0.13,0,0.28,0,0.43c0,1.99,0,3.98,0,5.97c0,0.8-0.46,2-1.08,2.6
			c-0.41,0.4-0.89,0.66-1.4,0.89c-0.24,0.11-0.54,0.16-0.81,0.17c-0.54,0.02-1.09,0-1.64,0.01c-0.34,0-0.64-0.13-0.96-0.24
			c-0.69-0.23-1.19-0.73-1.64-1.26c-0.29-0.34-0.44-0.79-0.56-1.23c-0.1-0.38-0.13-0.78-0.13-1.18c0.01-1.85,0.01-3.71,0.01-5.56
			C10.33,50.16,10.33,49.96,10.33,49.73z"/>
		<path class="st18" d="M65.8,49.75c0.7,0,1.36,0,2.09,0c0.07,0.19,0.17,0.41,0.24,0.62c0.28,0.82,0.56,1.64,0.89,2.44
			c0.14,0.33,0.21,0.69,0.34,1.03c0.27,0.75,0.56,1.49,0.82,2.23c0.3,0.85,0.58,1.71,0.88,2.56c0.09,0.25,0.22,0.49,0.31,0.75
			c0.03,0.08,0.03,0.18,0.04,0.3c-0.74,0-1.45,0-2.18,0c-0.21-0.68-0.43-1.38-0.65-2.07c-1.23,0-2.41,0-3.58,0
			c-0.23,0.69-0.45,1.36-0.69,2.07c-0.68,0-1.41,0-2.15,0C63.38,56.36,64.59,53.05,65.8,49.75z M66.77,52.22
			c-0.43,1.34-0.82,2.58-1.22,3.83c0.85,0,1.66,0,2.51,0C67.65,54.77,67.24,53.54,66.77,52.22z"/>
		<path class="st18" d="M27.44,52.3c-0.66,0.07-1.31-0.09-1.97,0.17c0.01-0.46-0.23-0.78-0.56-0.96c-0.38-0.22-0.84-0.37-1.29-0.22
			c-0.3,0.1-0.65,0.1-0.9,0.4c-0.25,0.31-0.44,0.6-0.2,1c0.02,0.03,0,0.08,0,0.12c0.31,0.48,0.83,0.64,1.34,0.79
			c0.63,0.18,1.24,0.41,1.86,0.61c0.41,0.13,0.82,0.36,1.13,0.65c0.37,0.34,0.67,0.78,0.71,1.34c0.02,0.24,0.16,0.46,0.12,0.71
			c-0.15,0.94-0.33,1.64-1.33,2.33c-0.58,0.4-1.18,0.6-1.87,0.58c-0.41-0.01-0.82,0.01-1.23,0c-1.17-0.04-2.06-0.57-2.69-1.55
			c-0.11-0.48-0.39-0.94-0.24-1.48c0.63,0,1.27,0,1.94,0c0.03,0.23,0,0.5,0.21,0.7c0.21,0.2,0.38,0.46,0.66,0.53
			c0.25,0.06,0.48,0.17,0.76,0.17c0.49,0.01,0.9-0.16,1.32-0.36c0.35-0.16,0.45-0.5,0.44-0.77c-0.01-0.29-0.13-0.6-0.49-0.79
			c-0.63-0.33-1.31-0.51-1.96-0.79c-0.38-0.17-0.78-0.28-1.17-0.43c-0.68-0.27-1.15-0.8-1.41-1.44c-0.18-0.44-0.36-0.94-0.12-1.46
			c0.1-0.21,0.04-0.49,0.15-0.7c0.45-0.85,1.07-1.49,2.06-1.73c0.71-0.18,1.42-0.09,2.12-0.08c0.38,0,0.8,0.16,1.13,0.35
			c0.47,0.27,0.91,0.64,1.15,1.14C27.3,51.48,27.48,51.86,27.44,52.3z"/>
		<path class="st18" d="M8.32,52.3c-0.67,0.05-1.31-0.09-1.97,0.16c0-0.32,0-0.63-0.25-0.79c-0.31-0.21-0.64-0.4-1.06-0.42
			c-0.49-0.02-0.91,0.16-1.31,0.37c-0.13,0.07-0.2,0.25-0.34,0.43c0.03,0.22,0.02,0.49,0.09,0.74c0.12,0.42,0.53,0.55,0.87,0.69
			c0.53,0.22,1.09,0.37,1.65,0.55c0.26,0.08,0.51,0.14,0.77,0.27c0.57,0.28,0.84,0.39,1.2,0.77c0.39,0.4,0.59,0.9,0.59,1.45
			c0,0.35,0.12,0.73-0.11,1.07c-0.17,0.94-0.69,1.44-1.28,1.77c-0.54,0.3-1.1,0.51-1.74,0.48c-0.41-0.02-0.82-0.01-1.23,0
			c-0.84,0.01-1.54-0.35-2.16-0.85c-0.42-0.35-0.63-0.85-0.74-1.38c-0.05-0.25-0.1-0.5-0.16-0.79c0.69,0,1.33,0,1.97,0
			c0.09,0.23,0.17,0.49,0.3,0.72c0.22,0.38,0.62,0.58,1,0.64c0.37,0.06,0.78,0.1,1.18-0.08c0.46-0.21,0.48-0.17,0.97-0.65
			c0-0.23,0-0.46,0-0.75c-0.22-0.17-0.44-0.43-0.73-0.55c-0.58-0.25-1.2-0.41-1.79-0.64c-0.56-0.21-1.16-0.38-1.63-0.72
			c-0.6-0.43-1.02-1.04-1.01-1.85c0-0.1,0-0.2,0-0.29c-0.05-0.66,0.18-1.21,0.56-1.76c0.37-0.54,0.84-0.86,1.44-1.06
			c0.3-0.1,0.6-0.2,0.92-0.18c0.37,0.02,0.74,0.02,1.11,0c0.63-0.02,1.18,0.23,1.71,0.54c0.19,0.11,0.4,0.24,0.52,0.42
			c0.24,0.34,0.45,0.71,0.62,1.09C8.38,51.83,8.32,52.06,8.32,52.3z"/>
		<path class="st18" d="M37.55,49.75c2.11,0,4.19,0,6.29,0c0,0.57,0,1.13,0,1.74c-1.42,0-2.86,0-4.31,0c0,0.8,0,1.55,0,2.33
			c1.38,0,2.76,0,4.18,0c0.06,0.3,0.02,0.59,0.03,0.87c0.01,0.29,0,0.58,0,0.89c-1.4,0-2.78,0-4.19,0c0,0.79,0,1.56,0,2.35
			c1.42,0,2.84,0,4.29,0c0,0.59,0,1.17,0,1.76c-2.1,0-4.18,0-6.29,0C37.55,56.39,37.55,53.09,37.55,49.75z"/>
		<path class="st18" d="M89.79,51.49c0,0.82,0,1.57,0,2.35c1.39,0,2.78,0,4.18,0c0,0.59,0,1.17,0,1.77c-1.39,0-2.77,0-4.17,0
			c0,0.77,0,1.53,0,2.33c0.69,0.04,1.4,0.01,2.12,0.02c0.72,0.01,1.44,0,2.18,0c0,0.58,0,1.14,0,1.73c-2.08,0-4.18,0-6.3,0
			c0-3.3,0-6.59,0-9.91c2.09,0,4.19,0,6.3,0c0,0.57,0,1.13,0,1.71C92.68,51.49,91.26,51.49,89.79,51.49z"/>
		<path class="st19" d="M53.73,24.1c0.06-0.06,0.1-0.1,0.14-0.14c0.88,0,1.75,0,2.61,0c0.06,0.06,0.1,0.1,0.15,0.15
			c0,4.58,0,9.16,0,13.74c-0.05,0.05-0.09,0.09-0.15,0.15c-0.86,0-1.73,0-2.61,0c-0.04-0.04-0.08-0.08-0.14-0.14
			C53.73,33.3,53.73,28.71,53.73,24.1z"/>
		<path class="st18" d="M33.44,59.69c-0.7,0-1.33,0-2.01,0c0-0.19,0-0.38,0-0.57c0-2.36,0-4.72,0-7.08c0-0.19,0.06-0.4-0.2-0.54
			c-0.79,0-1.63,0-2.48,0c0-0.58,0-1.14,0-1.73c2.39,0,4.8,0,7.23,0c0,0.55,0,1.11,0,1.73c-0.83,0-1.67,0-2.54,0
			C33.44,54.22,33.44,56.93,33.44,59.69z"/>
		<path class="st18" d="M57.83,51.69c-0.1-0.1-0.14-0.14-0.2-0.2c-0.81,0-1.65,0-2.5,0c0-0.58,0-1.14,0-1.73c2.4,0,4.8,0,7.23,0
			c0,0.56,0,1.12,0,1.72c-0.83,0-1.68,0-2.54,0c0,2.75,0,5.46,0,8.21c-0.34,0.02-0.66,0.01-0.99,0.01c-0.33,0-0.66,0-1,0
			C57.83,57.02,57.83,54.35,57.83,51.69z"/>
		<path class="st18" d="M80.78,49.76c0.66,0,1.29,0,1.95,0c0,2.68,0,5.35,0,7.99c0.03,0.04,0.04,0.05,0.06,0.06
			c0.01,0.01,0.03,0.02,0.05,0.02c1.25,0,2.49,0,3.76,0c0,0.62,0,1.22,0,1.82c-0.47,0.08-4.27,0.1-5.82,0.03
			C80.78,56.4,80.78,53.1,80.78,49.76z"/>
		<path class="st18" d="M66.96,42.97c0,1.34,0,2.58,0,3.83c-0.41,0-0.77,0-1.16,0c0-1.97,0-3.94,0-5.95c0.2,0,0.43-0.01,0.66-0.01
			c0.23,0,0.46,0,0.69,0c0.21,0.48,0.44,0.93,0.62,1.41c0.23,0.61,0.56,1.17,0.72,1.81c0.07,0.27,0.27,0.51,0.42,0.78
			c0.58-1.34,1.15-2.66,1.72-3.99c0.45,0,0.89,0,1.35,0c0,1.98,0,3.95,0,5.94c-0.37,0-0.75,0-1.17,0c0-1.24,0-2.48,0-3.72
			c-0.02,0-0.04,0-0.06-0.01c-0.49,1.24-0.98,2.48-1.48,3.74c-0.24,0-0.49,0-0.75,0C68.02,45.56,67.51,44.32,66.96,42.97z"/>
		<path class="st18" d="M79.26,43c0,1.26,0,2.53,0,3.8c-0.38,0-0.75,0-1.14,0c0-1.98,0-3.96,0-5.95c0.39,0,0.78,0,1.23,0
			c0.49,0.53,0.8,1.25,1.21,1.89c0.41,0.65,0.81,1.3,1.22,1.95c0.02-0.01,0.04-0.01,0.04-0.02c0.01-0.01,0.03-0.03,0.03-0.05
			c0-1.25,0-2.5,0-3.77c0.39,0,0.77,0,1.16,0c0,1.97,0,3.94,0,5.93c-0.4,0-0.8,0-1.26,0c-0.8-1.24-1.54-2.59-2.39-3.86
			C79.32,42.95,79.29,42.97,79.26,43z"/>
		<path class="st18" d="M40.79,46.8c-0.42,0-0.83,0-1.24,0c-0.77-1.28-1.54-2.57-2.34-3.9c-0.07,0.68-0.02,1.31-0.03,1.94
			c-0.01,0.64,0,1.28,0,1.95c-0.38,0-0.74,0-1.11,0c-0.09-0.46-0.11-4-0.04-5.94c0.4,0,0.81,0,1.25,0c0.76,1.26,1.53,2.55,2.36,3.94
			c0-1.38,0-2.66,0-3.94c0.41,0,0.77,0,1.16,0C40.79,42.81,40.79,44.78,40.79,46.8z"/>
		<path class="st18" d="M17.88,46.79c-1.01,0-2.04,0-3.08,0c0-1.98,0-3.94,0-5.96c0.13,0,0.28,0,0.43,0c0.61,0,1.21-0.01,1.81,0.01
			c0.36,0.01,0.74-0.01,1.05,0.13c0.55,0.24,1.08,0.53,1.41,1.11c0.41,0.74,0.51,1.58,0.42,2.22c-0.1,0.71-0.35,1.41-0.95,1.88
			c-0.21,0.16-0.39,0.4-0.71,0.41C18.15,46.58,18.02,46.71,17.88,46.79z M16.13,45.86c0.25,0,0.52,0.02,0.79,0
			c0.18-0.01,0.37-0.05,0.53-0.12c0.37-0.15,0.73-0.3,0.93-0.71c0.24-0.49,0.31-1,0.26-1.53c-0.09-0.94-0.63-1.54-1.65-1.62
			c-0.29-0.03-0.58,0-0.87,0c-0.06,0.06-0.12,0.11-0.16,0.16c0,1.23,0,2.46,0,3.67C16.03,45.76,16.07,45.8,16.13,45.86z"/>
		<path class="st18" d="M1.56,40.82c0.81,0,1.61-0.04,2.4,0.02c0.5,0.04,1.01,0.14,1.47,0.4c0.33,0.18,0.59,0.44,0.79,0.73
			c0.25,0.35,0.37,0.79,0.48,1.2c0.07,0.25-0.07,1.13-0.1,1.47c-0.09,0.89-0.65,1.44-1.33,1.89c-0.23,0.15-0.54,0.25-0.82,0.26
			c-0.95,0.03-1.91,0.01-2.88,0.01C1.56,44.8,1.56,42.82,1.56,40.82z M5.41,43.17c-0.06-0.14-0.08-0.2-0.12-0.27
			c-0.34-0.68-0.88-1.04-1.65-1.03c-0.25,0-0.51,0-0.75,0c-0.06,0.06-0.11,0.11-0.16,0.16c0,1.23,0,2.46,0,3.67
			c0.06,0.06,0.1,0.1,0.14,0.14c0.63,0.1,1.23-0.01,1.85-0.27c0.02-0.02,0.08-0.07,0.13-0.13c0.36-0.4,0.61-0.84,0.57-1.4
			C5.39,43.73,5.41,43.44,5.41,43.17z"/>
		<path class="st18" d="M50.08,46.92c-0.56,0-0.92-0.05-1.19-0.2c-0.54-0.3-1.02-0.64-1.29-1.26c-0.16-0.38-0.39-0.71-0.34-1.15
			c-0.18-0.19-0.17-0.45-0.1-0.65c0.16-0.5,0.16-1.03,0.44-1.52c0.38-0.67,1-0.98,1.61-1.33c0.35,0.08,0.67-0.16,1-0.11
			c0.38,0.05,0.78,0.1,1.11,0.27c0.51,0.26,0.94,0.59,1.24,1.15c0.39,0.73,0.55,1.49,0.43,2.27c-0.09,0.56-0.26,1.14-0.72,1.57
			c-0.39,0.38-0.78,0.73-1.33,0.89C50.62,46.95,50.32,46.86,50.08,46.92z M49.53,41.9c-0.51,0.31-0.78,0.61-0.94,1.06
			c-0.2,0.56-0.23,1.13-0.04,1.7c0.28,0.86,0.94,1.27,1.65,1.21c0.25-0.02,0.51-0.07,0.68-0.2c0.3-0.22,0.6-0.48,0.72-0.87
			c0.18-0.61,0.21-1.22,0-1.83c-0.21-0.6-0.56-1.07-1.28-1.1c-0.06,0-0.13-0.07-0.18-0.1C49.97,41.97,49.73,41.84,49.53,41.9z"/>
		<path class="st18" d="M91.35,46.92c-0.54,0.05-1.02-0.05-1.47-0.33c-0.7-0.43-1.16-1.03-1.35-1.83c-0.04-0.16-0.09-0.32-0.11-0.48
			c-0.02-0.17,0-0.35-0.01-0.52c-0.01-0.69,0.26-1.27,0.61-1.85c0.33-0.54,0.81-0.87,1.39-1c0.45-0.1,0.92-0.37,1.4-0.07
			c0.52-0.04,0.89,0.28,1.3,0.53c0.48,0.3,0.72,0.76,0.92,1.25c0.08,0.2,0.16,0.41,0.14,0.65c-0.01,0.18,0.11,0.36,0.1,0.54
			c-0.05,0.9-0.27,1.75-0.96,2.4C92.75,46.73,92.11,47.03,91.35,46.92z M92.75,42.65c-0.07-0.07-0.13-0.12-0.18-0.18
			c-0.31-0.34-0.63-0.67-1.17-0.58c-0.21-0.2-0.4,0.02-0.6,0.04c-0.21,0.02-0.47,0.18-0.59,0.36c-0.23,0.32-0.48,0.67-0.5,1.08
			c-0.03,0.6-0.08,1.22,0.25,1.77c0.05,0.08,0.14,0.14,0.21,0.21c0.14,0.14,0.28,0.28,0.44,0.44c0.36,0.04,0.76,0.09,1.06,0.12
			c0.15-0.08,0.22-0.11,0.28-0.14c0.71-0.31,0.96-0.94,1.03-1.65c0.04-0.43,0.03-0.86-0.22-1.25
			C92.72,42.81,92.75,42.72,92.75,42.65z"/>
		<path class="st18" d="M25.58,45.06c0.39,0,0.75,0,1.15,0c0.15,0.28,0.22,0.67,0.62,0.77c0.18,0.04,0.38,0.13,0.56,0.09
			c0.34-0.06,0.72-0.09,0.94-0.52c0-0.04,0-0.15,0-0.29c-0.17-0.23-0.39-0.43-0.68-0.53c-0.48-0.17-0.96-0.31-1.44-0.47
			c-0.55-0.19-1.03-0.88-1.03-1.47c0-0.16,0-0.31,0-0.44c0.08-0.13,0.18-0.24,0.2-0.36c0.1-0.48,0.49-0.67,0.84-0.9
			c0.01-0.01,0.05,0.01,0.06,0c0.17-0.26,0.46-0.04,0.69-0.18c0.19-0.12,0.46-0.1,0.71,0.02c0.14,0.07,0.33,0.04,0.44,0.05
			c0.75,0.31,1.28,0.73,1.28,1.61c-0.19,0.01-0.38,0.01-0.56,0.02c-0.19,0-0.38,0-0.56,0c-0.26-0.55-0.67-0.77-1.35-0.68
			c-0.17,0.16-0.39,0.39-0.59,0.59c0.09,0.57,0.51,0.66,0.88,0.8c0.41,0.15,0.83,0.25,1.23,0.42c0.43,0.17,0.83,0.42,0.95,0.93
			c0.01,0.05,0.08,0.09,0.11,0.13c0,0.17,0,0.35,0,0.52c0.02,0.71-0.43,1.4-1.21,1.65c-0.4,0.12-0.79,0.09-1.18,0.11
			c-0.54,0.03-1.04-0.09-1.44-0.47c-0.26,0.03-0.1-0.33-0.32-0.34C25.72,45.78,25.53,45.46,25.58,45.06z"/>
		<path class="st18" d="M32.39,45.75c0.86,0,1.69,0,2.54,0c0,0.35,0,0.67,0,1.03c-1.27,0-2.54,0-3.84,0c0-1.93,0-3.86,0-5.79
			c0.04-0.04,0.08-0.08,0.14-0.14c1.21,0,2.43,0,3.7,0c0.03,0.32,0,0.66,0.01,1.02c-0.86,0-1.69,0-2.55,0c0,0.48,0,0.93,0,1.41
			c0.8,0,1.59,0,2.41,0c0,0.36,0,0.7,0,1.06c-0.81,0-1.6,0-2.42,0C32.39,44.8,32.39,45.25,32.39,45.75z"/>
		<path class="st18" d="M77.15,40.85c0,0.35,0,0.67,0,1.02c-0.84,0-1.68,0-2.49,0c-0.07,0.08-0.13,0.13-0.17,0.17
			c0,0.42,0,0.82,0,1.25c0.85,0,1.69,0,2.54,0c0,0.34,0,0.67,0,1.02c0.01-0.01,0,0.01-0.02,0.02c-0.01,0.01-0.03,0.02-0.05,0.02
			c-0.78,0-1.55,0-2.31,0c-0.06,0.06-0.1,0.1-0.16,0.16c0,0.39,0,0.79,0,1.24c0.88,0,1.77,0,2.67,0c0,0.37,0,0.69,0,1.04
			c-1.27,0-2.53,0-3.8,0c-0.08-0.47-0.11-4.17-0.04-5.94C74.57,40.85,75.83,40.85,77.15,40.85z"/>
		<path class="st18" d="M21.02,40.83c1.25,0,2.47,0,3.71,0c0,0.34,0,0.66,0,1.03c-0.79,0-1.6,0-2.37,0
			c-0.08,0.08-0.12,0.12-0.18,0.18c0,0.39,0,0.8,0,1.22c0.84,0,1.67,0,2.54,0c0,0.36,0,0.7,0,1.06c-0.83,0-1.66,0-2.52,0
			c0,0.48,0,0.93,0,1.41c0.84,0,1.67,0,2.53,0c0,0.36,0,0.7,0,1.05c-1.24,0-2.46,0-3.71,0C21.02,44.82,21.02,42.85,21.02,40.83z"/>
		<path class="st18" d="M8.95,43.28c0.85,0,1.69,0,2.54,0c0,0.35,0,0.67,0,1.04c-0.84,0-1.68,0-2.55,0c0,0.48,0,0.93,0,1.41
			c0.85,0,1.69,0,2.55,0c0,0.37,0,0.69,0,1.04c-1.23,0-2.46,0-3.68,0c-0.08-0.46-0.1-4.54-0.03-5.94c1.22,0,2.45,0,3.7,0
			c0,0.33,0,0.67,0,1.03c-0.8,0-1.59,0-2.37,0c-0.06,0.06-0.1,0.1-0.16,0.17C8.95,42.41,8.95,42.82,8.95,43.28z"/>
		<path class="st18" d="M58.62,40.85c0.42,1.45,0.83,2.87,1.26,4.33c0.13-0.42,0.29-0.82,0.39-1.23c0.12-0.5,0.28-0.98,0.41-1.47
			c0.1-0.37,0.19-0.74,0.3-1.1c0.06-0.19,0.16-0.36,0.23-0.53c0.41,0,0.78,0,1.14,0c0.13,0.31-0.06,0.55-0.14,0.8
			c-0.27,0.84-0.64,1.66-0.84,2.52c-0.2,0.83-0.57,1.61-0.74,2.45c-0.01,0.07-0.09,0.12-0.15,0.19c-0.4,0-0.8,0-1.26,0
			c-0.15-0.48-0.3-0.98-0.46-1.48c-0.16-0.5-0.32-1-0.49-1.5c-0.16-0.48-0.33-0.95-0.48-1.44c-0.15-0.5-0.43-0.96-0.44-1.53
			C57.77,40.85,58.17,40.85,58.62,40.85z"/>
		<path class="st18" d="M41.61,40.84c0.48,0,0.88,0,1.28,0c0.42,1.44,0.84,2.87,1.27,4.35c0.1-0.3,0.26-0.55,0.27-0.81
			c0.01-0.37,0.17-0.68,0.27-1.01c0.15-0.5,0.23-1.03,0.44-1.51c0.13-0.31,0.18-0.67,0.27-1.01c0.41,0,0.81,0,1.22,0
			c0.14,0.17-0.04,0.3-0.07,0.45c-0.12,0.55-0.3,1.08-0.48,1.62c-0.32,0.98-0.65,1.95-0.97,2.93c-0.08,0.24-0.13,0.49-0.2,0.74
			c-0.02,0.07-0.08,0.12-0.13,0.2c-0.4,0-0.81,0-1.27,0c-0.22-0.61-0.49-1.24-0.67-1.9c-0.19-0.68-0.4-1.35-0.62-2.03
			C42.01,42.2,41.72,41.57,41.61,40.84z"/>
		<path class="st18" d="M88.28,41.89c-0.5,0-0.99,0-1.45,0c-0.06,0.06-0.1,0.1-0.16,0.16c0,1.56,0,3.13,0,4.73
			c-0.39,0-0.77,0-1.17,0c0-1.61,0-3.22,0-4.89c-0.26,0-0.51,0-0.75,0c-0.25,0-0.5,0-0.77,0c0-0.35,0-0.67,0-1.03
			c1.41,0,2.85,0,4.3,0C88.28,41.18,88.28,41.51,88.28,41.89z"/>
		<path class="st18" d="M54.08,40.84c0.39,0,0.75,0,1.14,0c0,1.63,0,3.24,0,4.84c0.03,0.03,0.04,0.05,0.06,0.05
			c0.01,0.01,0.03,0.02,0.05,0.02c0.74,0,1.48,0,2.24,0c0,0.35,0,0.67,0,1.03c-1.14,0-2.3,0-3.48,0
			C54.08,44.82,54.08,42.86,54.08,40.84z"/>
		<path class="st18" d="M64.36,46.8c-0.38,0-0.74,0-1.13,0c0-1.94,0-3.88,0-5.81c0.05-0.05,0.09-0.09,0.14-0.14
			c0.31,0,0.64,0,0.99,0C64.36,42.83,64.36,44.81,64.36,46.8z"/>
	</g>
	<g>
		<path class="st20" d="M75.6,27.23c0-1.08,0-2.13,0-3.22c-0.79,0.02-1.51,0.1-2.23,0.44c0.4,1.02,0.77,1.99,1.16,2.97
			C74.93,27.36,75.25,27.3,75.6,27.23z M73.82,34.93c-0.57,0.92-1.11,1.81-1.68,2.73c0.7,0.45,1.38,0.71,2.18,0.83
			c0.2-1.08,0.39-2.11,0.58-3.15C74.52,35.19,74.21,35.07,73.82,34.93z M68.72,33.13c1.05-0.3,2.05-0.58,3.07-0.88
			c-0.03-0.41-0.06-0.75-0.09-1.15c-1.08-0.1-2.12-0.19-3.18-0.28C68.41,31.65,68.5,32.36,68.72,33.13z M71.89,32.63
			c-1.04,0.3-2.04,0.58-3.08,0.88c0.26,0.8,0.55,1.45,1.06,2.08c0.88-0.66,1.71-1.29,2.54-1.92C72.22,33.29,72.08,33,71.89,32.63z
			 M77.85,34.88c-0.36,0.15-0.68,0.28-1.05,0.44c0.2,1.06,0.39,2.09,0.59,3.16c0.81-0.17,1.49-0.42,2.15-0.86
			C78.96,36.68,78.41,35.8,77.85,34.88z M79.86,30.77c1.09-0.1,2.12-0.2,3.2-0.3c-0.07-0.82-0.27-1.51-0.63-2.23
			c-0.98,0.49-1.92,0.96-2.88,1.44C79.65,30.05,79.75,30.37,79.86,30.77z M83.09,30.84c-1.1,0.1-2.13,0.2-3.18,0.3
			c-0.04,0.41-0.08,0.74-0.12,1.11c1.06,0.3,2.07,0.59,3.12,0.89C83.07,32.35,83.21,31.66,83.09,30.84z M71.81,37.46
			c0.58-0.94,1.13-1.82,1.68-2.72c-0.3-0.27-0.56-0.5-0.85-0.76c-0.85,0.65-1.68,1.29-2.55,1.95
			C70.62,36.53,71.11,37.04,71.81,37.46z M78.62,24.61c-0.4,1.03-0.77,2-1.14,2.97c0.36,0.22,0.64,0.4,0.95,0.59
			c0.72-0.79,1.43-1.57,2.15-2.36C79.98,25.29,79.39,24.9,78.62,24.61z M79.86,37.4c0.69-0.46,1.24-0.92,1.67-1.57
			c-0.88-0.66-1.7-1.28-2.52-1.9c-0.31,0.28-0.56,0.52-0.83,0.76C78.75,35.61,79.29,36.48,79.86,37.4z M69.38,27.86
			c0.99,0.49,1.92,0.95,2.86,1.42c0.24-0.32,0.45-0.6,0.67-0.9c-0.72-0.79-1.41-1.55-2.12-2.33C70.17,26.58,69.74,27.13,69.38,27.86
			z M80.88,26.1c-0.74,0.8-1.44,1.57-2.16,2.36c0.25,0.32,0.45,0.58,0.69,0.87c0.96-0.48,1.88-0.93,2.83-1.41
			C81.88,27.2,81.47,26.63,80.88,26.1z M76.04,27.24c0.37,0.07,0.71,0.14,1.08,0.21c0.39-1.02,0.76-2,1.15-3
			c-0.76-0.31-1.46-0.44-2.23-0.42C76.04,25.11,76.04,26.14,76.04,27.24z M71.07,25.76c0.73,0.8,1.44,1.57,2.16,2.37
			c0.32-0.2,0.6-0.37,0.93-0.57c-0.39-1-0.76-1.97-1.16-2.99C72.27,24.88,71.66,25.23,71.07,25.76z M72.02,29.65
			c-0.95-0.48-1.86-0.93-2.79-1.39c-0.4,0.7-0.56,1.37-0.66,2.14c1.08,0.1,2.09,0.19,3.13,0.28C71.81,30.33,71.9,30.03,72.02,29.65z
			 M79.26,33.59c0.86,0.64,1.67,1.25,2.51,1.88c0.46-0.62,0.79-1.19,0.93-1.95c-1-0.29-1.97-0.57-2.97-0.86
			C79.56,32.99,79.43,33.26,79.26,33.59z"/>
		<path class="st21" d="M74.71,38.6c0.18-1.05,0.36-2.1,0.55-3.17c0.43,0,0.77,0,1.18,0c0.2,1.07,0.39,2.12,0.58,3.17
			C76.25,38.6,75.48,38.6,74.71,38.6z"/>
		<path class="st22" d="M75.6,27.23c-0.34,0.06-0.67,0.12-1.07,0.2c-0.38-0.99-0.76-1.96-1.16-2.97c0.72-0.34,1.43-0.42,2.23-0.44
			C75.6,25.1,75.6,26.15,75.6,27.23z"/>
		<path class="st23" d="M73.82,34.93c0.39,0.15,0.7,0.26,1.08,0.41c-0.19,1.04-0.38,2.07-0.58,3.15c-0.8-0.12-1.48-0.38-2.18-0.83
			C72.71,36.74,73.25,35.85,73.82,34.93z"/>
		<path class="st24" d="M68.72,33.13c-0.22-0.77-0.31-1.48-0.2-2.31c1.06,0.09,2.1,0.19,3.18,0.28c0.03,0.4,0.06,0.74,0.09,1.15
			C70.77,32.55,69.77,32.83,68.72,33.13z"/>
		<path class="st25" d="M71.89,32.63c0.19,0.37,0.33,0.67,0.52,1.04c-0.83,0.63-1.66,1.26-2.54,1.92c-0.5-0.63-0.8-1.28-1.06-2.08
			C69.85,33.21,70.85,32.93,71.89,32.63z"/>
		<path class="st26" d="M77.85,34.88c0.57,0.92,1.12,1.81,1.69,2.74c-0.66,0.44-1.34,0.7-2.15,0.86c-0.2-1.07-0.4-2.1-0.59-3.16
			C77.17,35.16,77.49,35.03,77.85,34.88z"/>
		<path class="st27" d="M79.86,30.77c-0.12-0.41-0.21-0.72-0.31-1.09c0.96-0.48,1.9-0.95,2.88-1.44c0.37,0.72,0.57,1.41,0.63,2.23
			C81.98,30.57,80.95,30.67,79.86,30.77z"/>
		<path class="st28" d="M83.09,30.84c0.12,0.82-0.02,1.51-0.18,2.3c-1.06-0.3-2.06-0.59-3.12-0.89c0.04-0.37,0.08-0.7,0.12-1.11
			C80.95,31.04,81.99,30.95,83.09,30.84z"/>
		<path class="st29" d="M71.81,37.46c-0.7-0.41-1.19-0.92-1.72-1.54c0.87-0.66,1.7-1.3,2.55-1.95c0.29,0.26,0.55,0.49,0.85,0.76
			C72.94,35.63,72.39,36.51,71.81,37.46z"/>
		<path class="st30" d="M78.62,24.61c0.77,0.29,1.36,0.68,1.96,1.21c-0.72,0.79-1.42,1.56-2.15,2.36c-0.31-0.19-0.59-0.36-0.95-0.59
			C77.85,26.61,78.23,25.64,78.62,24.61z"/>
		<path class="st31" d="M79.86,37.4c-0.57-0.92-1.11-1.79-1.68-2.71c0.27-0.25,0.52-0.48,0.83-0.76c0.82,0.62,1.64,1.24,2.52,1.9
			C81.1,36.48,80.55,36.94,79.86,37.4z"/>
		<path class="st32" d="M69.38,27.86c0.37-0.72,0.8-1.28,1.41-1.81c0.71,0.78,1.4,1.54,2.12,2.33c-0.22,0.3-0.43,0.58-0.67,0.9
			C71.29,28.81,70.37,28.35,69.38,27.86z"/>
		<path class="st33" d="M80.88,26.1c0.59,0.53,1,1.1,1.36,1.82c-0.96,0.48-1.88,0.93-2.83,1.41c-0.24-0.3-0.44-0.55-0.69-0.87
			C79.44,27.67,80.15,26.9,80.88,26.1z"/>
		<path class="st34" d="M76.04,27.24c0-1.1,0-2.13,0-3.21c0.77-0.02,1.47,0.11,2.23,0.42c-0.39,1.01-0.76,1.98-1.15,3
			C76.75,27.38,76.42,27.31,76.04,27.24z"/>
		<path class="st35" d="M71.07,25.76c0.59-0.52,1.2-0.88,1.93-1.19c0.4,1.02,0.78,1.99,1.16,2.99c-0.33,0.2-0.61,0.37-0.93,0.57
			C72.51,27.33,71.8,26.56,71.07,25.76z"/>
		<path class="st36" d="M72.02,29.65c-0.12,0.38-0.21,0.68-0.32,1.03c-1.04-0.09-2.05-0.18-3.13-0.28c0.1-0.77,0.26-1.43,0.66-2.14
			C70.16,28.72,71.07,29.17,72.02,29.65z"/>
		<path class="st37" d="M79.26,33.59c0.17-0.33,0.3-0.6,0.47-0.93c1,0.29,1.97,0.57,2.97,0.86c-0.14,0.76-0.47,1.33-0.93,1.95
			C80.92,34.83,80.11,34.23,79.26,33.59z"/>
	</g>
	<g>
		<path class="st38" d="M41.4,0.81c-0.75,0.75-1.23,1.71-2.05,2.4c-0.24,0.2-0.49,0.37-0.75,0.63C38.81,2.36,39.8,1,41.4,0.81
			L41.4,0.81z"/>
		<path class="st38" d="M54.07,0.81c0.75,0.75,1.22,1.71,2.05,2.4c0.24,0.2,0.49,0.37,0.75,0.63C56.65,2.37,55.67,1.01,54.07,0.81
			L54.07,0.81z"/>
		<path class="st38" d="M39.33,1.79c-1.1,0.59-0.9,2.01-1.28,2.91l0.03,0.01c0.37-0.88,1.78-1.09,2.19-2.1
			c-0.03,1.87-1.96,2.22-2.74,3.65C37.48,4.61,37.12,2.37,39.33,1.79L39.33,1.79z"/>
		<path class="st38" d="M56.14,1.8c1.11,0.59,0.9,2.01,1.28,2.91l-0.04,0.01c-0.37-0.88-1.78-1.09-2.19-2.1
			c0.03,1.87,1.96,2.22,2.74,3.65C57.98,4.61,58.35,2.38,56.14,1.8L56.14,1.8z"/>
		<path class="st38" d="M37.4,3.41c-0.59,1.09,0.04,2.16-0.18,3.97c0.01,0.01,0.01,0.04,0.04,0.03c0.35-1.58,1.66-1.83,2-2.62
			c-0.24,1.79-1.82,2.68-2.09,4.29C37.1,8.25,35.22,5.51,37.4,3.41L37.4,3.41z"/>
		<path class="st38" d="M58.07,3.42c0.59,1.09-0.04,2.16,0.18,3.97c-0.01,0.01-0.01,0.04-0.04,0.03c-0.34-1.58-1.65-1.83-2-2.62
			c0.23,1.79,1.81,2.68,2.09,4.29C58.37,8.26,60.24,5.51,58.07,3.42L58.07,3.42z"/>
		<path class="st38" d="M36.15,6.43c-0.24,1.15,0.84,2.51,1.11,4.09c0.02,0.01,0.03-0.01,0.04-0.02c-0.09-1.22,0.26-1.81,0.89-2.72
			c0.15-0.25,0.24-0.52,0.32-0.8c0.31,0.42,0.01,1.33-0.31,2.46c-0.23,0.8-0.55,1.49-0.46,2.68c-0.4-0.48-1.57-1.93-1.68-2.49
			C35.71,8.56,35.65,7.47,36.15,6.43L36.15,6.43z"/>
		<path class="st38" d="M59.31,6.43c0.24,1.15-0.84,2.51-1.12,4.09c-0.02,0.01-0.03-0.01-0.04-0.02c0.09-1.22-0.26-1.81-0.89-2.72
			c-0.15-0.25-0.24-0.52-0.32-0.8c-0.31,0.42-0.01,1.33,0.31,2.46c0.23,0.8,0.55,1.49,0.46,2.68c0.4-0.48,1.57-1.93,1.68-2.49
			C59.75,8.56,59.82,7.48,59.31,6.43L59.31,6.43z"/>
		<path class="st38" d="M35.85,9.93c0.15,1.3,1.78,2.29,2.47,3.49c0.02,0.01,0.03-0.01,0.03-0.02c-0.68-1.43,0.1-2.49,0.08-3.68
			c0.82,1.82,0.14,3.16,1.09,5.18C37.14,13.65,35.49,12.19,35.85,9.93L35.85,9.93z"/>
		<path class="st38" d="M59.61,9.94c-0.15,1.3-1.78,2.29-2.47,3.49c-0.02,0.01-0.03-0.01-0.03-0.02c0.68-1.43-0.1-2.49-0.07-3.68
			c-0.83,1.82-0.15,3.16-1.09,5.18C58.32,13.65,59.98,12.19,59.61,9.94L59.61,9.94z"/>
		<path class="st38" d="M36.59,13.16c0.2,0.47,0.71,0.95,1.39,1.35c0.85,0.5,1.69,0.67,2.49,1.43c-0.76-0.9-0.91-1.71-1.26-3.87
			c0.64,0.61,1,1.39,1.32,2.28c0.3,0.84,0.47,1.8,1.29,2.49c-0.62-0.25-1.93-0.28-3.02-0.81C37.63,15.46,36.82,14.38,36.59,13.16
			L36.59,13.16z"/>
		<path class="st38" d="M58.87,13.16c-0.2,0.47-0.71,0.95-1.39,1.35c-0.85,0.5-1.69,0.67-2.49,1.43c0.76-0.9,0.91-1.7,1.27-3.87
			c-0.64,0.61-1,1.39-1.32,2.28c-0.3,0.84-0.47,1.8-1.29,2.49c0.62-0.25,1.93-0.28,3.02-0.81C57.83,15.47,58.64,14.38,58.87,13.16
			L58.87,13.16z"/>
		<path class="st38" d="M38.33,16.01c1.26,1.31,3.4,0.86,4.56,1.15c-1.24-0.56-1.57-1.66-2.09-2.65c1.26,0.49,1.91,2.45,4.15,2.82
			c-1.18,0.15-2.63,1.02-4.53,0.52C39.47,17.55,38.8,16.97,38.33,16.01L38.33,16.01z"/>
		<path class="st38" d="M57.13,16.01c-1.26,1.31-3.4,0.86-4.56,1.15c1.24-0.56,1.57-1.66,2.09-2.65c-1.26,0.49-1.91,2.45-4.15,2.82
			c1.18,0.15,2.62,1.02,4.53,0.52C55.99,17.55,56.66,16.97,57.13,16.01L57.13,16.01z"/>
		<path class="st38" d="M53.8,19.09c-1.26,0.48-2.59,0.07-3.58-0.69c-0.45-0.3-1.3-0.89-1.91-0.72c0.95,0.45,1.76,1.04,2.57,1.84
			c-0.14,0.16-0.34,0.33-0.51,0.46c-0.78-0.86-1.65-1.62-2.62-2.1c-0.8,0.33-2.09,1.43-2.63,2.11l-0.54-0.48
			c0.81-0.83,1.63-1.35,2.6-1.81c-0.93-0.22-1.46,0.38-2.14,0.85c-0.84,0.6-2.18,1.01-3.21,0.6c-0.55-0.22-1.13-0.54-1.51-1.07
			c0.8,0.56,2.32,0.46,3.24,0.09c1.23-0.55,2.48-1.24,4.18-0.69c1.3-0.44,2.56-0.13,3.73,0.51c1.24,0.54,2.37,0.78,3.65,0.1
			C54.72,18.59,54.37,18.89,53.8,19.09L53.8,19.09z"/>
		<path class="st39" d="M47.6,0.13c4.53,0,8.19,3.67,8.19,8.2c0,4.52-3.67,8.19-8.2,8.19c-4.53,0-8.19-3.67-8.19-8.2
			C39.4,3.79,43.07,0.12,47.6,0.13L47.6,0.13z M47.59,1.73c3.64,0,6.59,2.95,6.59,6.59c0,3.64-2.95,6.59-6.59,6.58
			c-3.64,0-6.59-2.95-6.59-6.59C41.01,4.68,43.96,1.73,47.59,1.73L47.59,1.73z M47.59,3.39c2.72,0,4.93,2.21,4.93,4.93
			c0,2.72-2.21,4.93-4.93,4.93c-2.72,0-4.93-2.21-4.93-4.93C42.66,5.6,44.87,3.39,47.59,3.39L47.59,3.39z M47.59,5.15
			c1.75,0,3.17,1.42,3.17,3.17c0,1.75-1.42,3.17-3.17,3.17c-1.75,0-3.17-1.42-3.17-3.17C44.42,6.57,45.84,5.15,47.59,5.15
			L47.59,5.15z"/>
		<path class="st40" d="M47.59,6.78c0.85,0,1.54,0.71,1.54,1.59c0,0.88-0.69,1.59-1.54,1.59c-0.85,0-1.54-0.71-1.54-1.59
			C46.05,7.49,46.74,6.78,47.59,6.78L47.59,6.78z"/>
		<path class="st39" d="M47.6,0.16l0,16.31 M41.83,2.55l11.53,11.54"/>
		<line class="st40" x1="55.75" y1="8.32" x2="39.44" y2="8.32"/>
		<line class="st39" x1="53.36" y1="2.56" x2="41.82" y2="14.09"/>
		<path class="st41" d="M40.7,10.07l-0.1,0l-0.02-0.04l-0.06-0.01l-0.09,0l-0.07,0.01l-0.05,0.05l-0.03,0.05l-0.03,0.04l0,0.06
			l-0.03,0.04l-0.03,0.05l-0.03,0.04l0,0.08l-0.02,0.07l0,0.08l0,0.07l0,0.06l0.03,0.04l0,0.07l0.02,0.06l0.03,0.04l0.02,0.07
			l0.04,0.05l0.05,0.07l0.01,0.07l0.1,0.02l0.07,0.02l0.07,0.07l0.03,0.05l0.05,0.05l0.04,0.03l0.07,0.02l0.07,0l-0.01-0.05
			l0.04-0.01L41,11.43l0.05,0.06l0.06,0.04l0.04,0.05l0.04,0.04l0.08,0.05l0.04,0.01l0.09,0.03l0.05,0.04l0.04,0.05l0,0.05
			l0.04,0.06l0.03,0.05l0.07,0.12l0.05,0.03l0.24,0.02l0.11,0.21l0.25,0.17l0.37,0.37l0.19,0.01l0.06,0.02l0.52,0.02l0.08,0.04
			l0.04,0.03l0.06,0.01l0.07,0l0.06,0l0.11-0.02l0.06-0.03l0.05-0.04l0.05-0.05l0.08-0.01l0.15-0.01l0.05-0.05l0.13,0l0.18,0
			l0.1-0.1l0-0.15l-0.15-0.23l-0.14-0.19l-0.08-0.12l-0.08-0.14l-0.1-0.11l-0.11-0.11l-0.09-0.07l0-0.11l0.07-0.06l0.03-0.09
			l0.01-0.07l0-0.1l-0.01-0.08l-0.04-0.04l-0.04-0.13l-0.03-0.06l-0.05-0.05l-0.04-0.02l0.02-0.32l-0.04-0.02l0.03-0.27l-0.05-0.03
			l-0.01-0.11l-0.04-0.03l0.01-0.24l-0.06-0.06l0-0.1L43.43,9.3l-0.02-0.25l-0.04-0.03l0.01-0.07l0.05-0.05l0.06-0.04l0.09-0.03
			L43.7,8.7l0.01-0.16l0.2,0L44,8.49l0.02-0.1l-0.04-0.13l-0.04-0.08l-0.02-0.06l-0.04-0.04l0.01-0.08l0.06-0.05l0.06-0.01
			l0.04-0.04l0.2,0l0.04,0.05l0.06,0.05l0.02,0.09l0.02,0.15l-0.04,0.03l0,0.27l0.05,0.08l-0.04,0.05L44.3,8.75l-0.14,0l-0.04-0.05
			l-0.06-0.01l-0.02-0.04l-0.12,0.02l0,0.13l0.03,0.05L43.96,9l-0.07,0.02l-0.06,0.05l-0.07,0.03l0.02,0.08l0.07,0.07l0.05,0.07
			l0.06,0.03l0.05-0.01l0.01-0.04l0.04-0.02l0-0.06l0.01-0.16l0.04-0.03l0.02-0.04l0.04,0l0.01-0.04l0.14,0l0,0.04l0.14,0L44.5,9
			l0.07,0l0.06,0L44.7,9l0.02,0.03l0.16,0.01l0.03,0.04l0.12,0.01l0.12,0.15l0.16,0.02l0.22,0.32l0.09,0.01l0.02-0.13l0.06,0l0,0.06
			l0.03,0.03l0.01,0.29l0.05,0l0.24-0.2l0-0.2l0.04,0l0-0.05l0.1,0l0.1,0.09l0.13,0.01l0.11,0.01l0.11,0l0.13-0.02l0.08,0.01
			l0.16-0.05l0.08-0.01l0.01-0.05l0.21,0.01l0.11-0.1l0.01-0.1l0-0.08l0.07-0.11l0.03-0.08l0.05-0.05l0-0.07l0.03-0.04l0-0.05
			l-0.05-0.02l0-0.11l-0.08-0.03L47.47,8.5L47,8.5l-0.1,0.1l0,0.19l-0.09,0.09L46.74,8.9l-0.04,0.09l-0.04,0.04l-0.01,0.06l-0.14,0
			l0-0.05l-0.04,0l0-0.04l0.13-0.01l0.02-0.04l0.03-0.01l0-0.06l0.01-0.06l0-0.07l0.04-0.04l0.01-0.06l0.05-0.04l0.03-0.03l0-0.08
			l-0.06-0.01l0-0.05l0-0.08l-0.15-0.02L46.6,8.25l-0.04-0.03l0.01-0.08l0.04-0.02l0.01-0.17l0.04-0.07l0.03-0.06l0.05-0.06
			l0.06-0.06l0.07-0.06l0.05-0.06l0.03-0.04l0.07-0.02l0.07-0.02l0.03-0.05l0.07-0.01l0.07-0.03l0.07-0.05l0.04-0.04l0.07-0.05
			l0.02-0.04l0-0.05l0-0.05l0-0.04l-0.04-0.02l0-0.19l0.04,0l0.02-0.04l0.12,0l0,0.08l-0.04,0L47.55,6.9L47.51,6.9l-0.03,0.03
			l0,0.05l0,0.05l0.03,0.04l0.05,0.04l0.04,0.06l0.05,0.04l0.08,0.04l0.07,0.02l0.05,0.04l0.1,0l0.08,0.01l0.08,0.04l0.07,0.07
			l0.06,0.07l0.06,0.05l0.02,0.05l0.07,0l0.02,0.08l0,0.09l0,0.06l0.05,0.02l-0.01,0.1L48.4,7.98l-0.04,0.03l-0.03,0.04l-0.03,0.03
			L48.3,8.15l0.01,0.06l0.04,0.03l0.03,0.04l0.05,0.04l0.06,0.02l0.02,0.05l0.04,0.05l-0.02,0.08l0,0.05l0.01,0.05l0.01,0.07
			l0.05,0.05l0.05,0.06l0,0.07l-0.02,0.07l-0.05,0.05l-0.02,0.06l0.01,0.06l-0.04,0.04l-0.07-0.01l-0.08,0L48.3,9.15l-0.08,0.02
			L48.17,9.2l-0.05,0.02l-0.03,0.05l-0.03,0.05l-0.01,0.07l-0.03,0.04l-0.03,0.04l0,0.09l-0.03,0.03l-0.06,0.07l-0.03,0.06
			l-0.05,0.05L47.77,9.8l-0.03,0.04L47.71,9.9l-0.03,0.05l-0.05,0.05l-0.04,0.07l0,0.06l-0.06,0.03l-0.02,0.06l0,0.06l0,0.07
			l-0.04,0.03l-0.01,0.07l0.01,0.05l0,0.05l0.01,0.07l0.05,0.03l0.03,0.03l0,0.04l-0.02,0.03l-0.04,0l-0.03,0l-0.05,0.01l-0.04,0.02
			l-0.03,0.02l-0.03,0.02l0,0.03l-0.02,0.02l-0.01,0.03l0.02,0.01l0,0.03l0.03,0.01l0.03,0.01l0,0.04c0,0-0.02,0.01-0.03,0.01
			c-0.01,0-0.06,0-0.06,0l0,0.04l-0.01,0.04l0,0.03l-0.01,0.04l-0.04,0.01l-0.01,0.03l-0.04,0l-0.07,0l-0.02,0.03l-0.01,0.03l0,0.04
			l-0.03,0.03l-0.02,0.06l-0.04,0.04l-0.05,0.05l0,0.07l-0.03,0.05l-0.06,0.04l-0.06,0.02l-0.04,0.04l-0.05,0.03l-0.05,0.03
			l-0.04,0.05l0,0.06l-0.05,0.04l-0.03,0.06l0.02,0.06l-0.05,0.03l-0.04,0.04l-0.06,0.05l-0.01,0.07l0,0.07l0.02,0.05l0.06,0.07
			l0.04,0.03l0,0.08l0.03,0.04l0.05,0.07l0.04,0.06l0.02,0.05l0.05,0.05l0.05,0.01l0.05,0.05l0.08,0.02l0.1,0.04l0.08,0.05
			l0.07,0.02l0.04,0.05l0.05,0.04l0.07,0.03l0.04,0.07l0.04,0.02l0.07,0.04l0.07,0.05l0.07,0.05l0.06,0.05l0.05,0.05l0.06,0.04
			l0.05,0.04l0.04,0.04l0.05,0.04l0.08,0.02l0.44,0.03l0.01,0.06l0.01,0.07l-0.03,0.02l-0.04,0.05l-0.04,0.06l-0.02,0.08l0.02,0.04
			l0.02,0.04l-0.01,0.05l0.04,0.07l0.04,0.01l0.04,0.06l0.05,0.06l0.08,0.02l0.06,0.04l0.07,0.03l0.06,0.06l0.06,0.04l0.03,0.07
			l0.05,0.06l0.06,0.05l0.02,0.03l0.03,0.04l0.05,0.06l0.04,0.03l0.04,0.05l0.05,0.04l0.06,0.03L49.38,15l0.07,0.02l0.05,0.03
			l0.05,0.03l0.05,0.04l0.04,0.06l0.08,0.04l0.05,0.03l0.07,0.04l0.05-0.01l0.06,0l0.07-0.03l0.03-0.03l0.05-0.05l0.1-0.06
			l0.06-0.04l0.08-0.05l0.06-0.07l0.07-0.05l0.08-0.07l0.07-0.07l0.08-0.06l0.07-0.08l0.05-0.07l0.05-0.08l0.06-0.09l0.05-0.08
			l0.02-0.08l0.04-0.08l0.05-0.08l0.02-0.08l0.01-0.09l0.04-0.06l0.03-0.07l0.03-0.08l0.01-0.07l0.02-0.07l0.02-0.04l0-0.06l0-0.05
			l-0.03-0.06l-0.04-0.04l0-0.07l0.04-0.02l0.02-0.08l0.03-0.03l0.02-0.06l0.04-0.03l0.02-0.05l0.03-0.04l0.03-0.05l0.03-0.06
			l0-0.05l-0.03-0.05l-0.03-0.04l-0.05-0.03l-0.03-0.02l-0.06-0.04l-0.02-0.05l-0.05-0.03l-0.05,0l-0.03-0.03l-0.03-0.04l-0.04-0.02
			l-0.03-0.03l0-0.05l0-0.07l0.03-0.04l0.03-0.06l0-0.05l0.05-0.04l0.05-0.02l0.05,0.01l0.04,0.04l0.03,0.04l0.06,0.04l0.02,0.04
			l0.05,0.05l0.04,0.01l0,0.06l0.05,0.03c0.03,0.03,0.05,0.07,0.05,0.07l0.04,0.04l0.03,0.02l0.03,0.07l0.04,0.04l0.02,0.06
			l0.02,0.05l0,0.06l0.03,0.05l0.04,0.05l0.04,0.04l0.04,0.02l0.08-0.01l0.05-0.02l0.04,0l0.07-0.01l0.07,0l0.07-0.01l0.01-0.04
			l0.06-0.01l0-0.05l-0.01-0.08l0.02-0.07l0-0.08l-0.04-0.06l-0.01-0.07l-0.04-0.04l-0.01-0.08l0-0.09l0-0.06l-0.04-0.04l0-0.07
			l-0.03-0.04l-0.05-0.03l-0.04-0.04l-0.05-0.02l-0.04-0.04l-0.06,0l-0.08,0l0,0.04l-0.01,0.04l0,0.04l-0.02,0.02l-0.04-0.01
			l-0.03-0.02l0-0.03l-0.01-0.02l-0.03-0.02l-0.02-0.03l-0.01-0.02l-0.04-0.02l-0.02-0.03l-0.03-0.03l-0.04-0.02l-0.03-0.03
			l-0.03-0.02l-0.04-0.02l-0.02-0.04l-0.03-0.02l0-0.07l-0.02-0.05l-0.03,0l-0.01-0.04l0-0.06l-0.02-0.04l-0.02-0.05l-0.05-0.01
			l-0.05,0l-0.04-0.03l0-0.05l-0.02-0.05l-0.03-0.03l-0.02-0.05l-0.01-0.03l-0.04-0.02l-0.04,0.01l-0.04-0.01l-0.01,0.03l0,0.04
			l-0.04,0.02l0,0.04l-0.03,0.03l-0.02,0.04l-0.01,0.04l0,0.05l0,0.04l-0.02,0.04l-0.04,0.04l-0.03,0.05l-0.08,0.04l-0.08,0
			l-0.12,0.01l-0.09-0.04l-0.11,0.02l-0.08-0.02l-0.12-0.01l-0.06-0.04l-0.07,0l-0.09-0.05l-0.09,0l-0.07-0.06l-0.07,0l-0.08-0.01
			l-0.06,0.01l-0.01-0.08l-0.08-0.04l0-0.05l0.08-0.02l0.06,0.01l0.07-0.01l0.08,0l0.09,0.02l0.08,0.02l0.08,0.02l0.04,0.07l0.07,0
			l0.08,0.02l0.08,0.01l0.08,0.01l0.07,0.01l0.06,0.03l0.06,0.01l0.1,0l0.08-0.01l0.04-0.03l0-0.06l0.05-0.07l0-0.07l0.04-0.07
			l0.05-0.06l0.02-0.07l-0.01-0.05l0.02-0.08l0.01-0.06L51,10.73l0-0.06l0.02-0.05l0.01-0.1l0.02-0.04l-0.01-0.09l-0.01-0.08
			l-0.04-0.06l-0.03-0.07c-0.04,0-0.07,0-0.07,0l0-0.04l0.01-0.04l0.05-0.01l0.01-0.03l0.03-0.03l0.01-0.04l0.02-0.03l0.02-0.03
			l0.02-0.03l0.03-0.03l0.04-0.03l0.01-0.03l0.04,0l0.01,0.03l0.03,0.02l0.01,0.03l0.03,0.01l0.03-0.01l0.03,0l0.03,0l0.01-0.03
			l0.01-0.03l0.01-0.03l0-0.03l0-0.03l0.08,0l0.04,0l0.03,0.03l0.05,0l0.04-0.02l0.05,0.01l0.06,0l0.05-0.01l0.06,0.01l0.07-0.01
			l0.07,0l0.05-0.04c0-0.05,0.05-0.06,0.05-0.06l0.06,0.01l0.02,0.04l0.05,0.02l0.05,0l0.05,0l0.04,0.01l0.04,0.01l0.04,0l0.03,0
			l0.03,0.01l0.03,0l0.02-0.02l0,0.03l0.02,0.02l0.02,0l0.03,0.01l0.04-0.01l0.02-0.02l-0.01-0.03c0,0,0-0.02,0.01-0.03
			c0.01-0.01,0.01-0.03,0.01-0.03l0.02-0.03l0.03-0.02c0,0,0.02,0.01,0.03,0.01c0.01,0,0.02-0.01,0.03-0.01
			c0.01,0,0.03,0.02,0.03,0.02l0.05-0.01l0.01-0.02l0.03-0.01l0.02-0.01l0-0.04l0.02-0.04l-0.02-0.02l0.01-0.04l-0.02-0.03
			l-0.03-0.04L52.84,9.3l0.01-0.04l-0.04-0.03L52.78,9.2l0.03-0.08l0.01-0.06l0.02-0.04c0.03-0.02,0.03-0.07,0.03-0.07l-0.02-0.06
			l0.01-0.04l0.03-0.05l-0.03-0.05l0.02-0.89l-0.03-0.04l0-0.06l-0.01-0.08l0-0.07l0-0.08L52.8,7.49l0-0.29l0.04-0.04l0-0.1
			L52.8,7.02l-0.01-0.05l-0.09,0l0,0.06c-0.04,0.01-0.04,0.07-0.04,0.07l-0.03,0.04L52.6,7.19l-0.02,0.08l0,0.05l-0.08,0l0,0.11
			l-0.02,0.06l-0.05,0.03l0,0.06l-0.02,0.05L52.4,7.68l0,0.15l0.01,0.14l0.04,0.04l0,0.24c0,0,0,0.09,0,0.11
			c0,0.02,0.02,0.11,0.02,0.11l-0.04,0.12l-0.02,0.32l-0.05,0.03l-0.04,0.07l0.01,0.08l0,0.06l-0.04,0.01l0.01,0.13l-0.03,0.03
			l-0.03-0.01l-0.01-0.03l0-0.03l-0.01-0.03L52.2,9.15l-0.02-0.03l-0.03-0.05c0,0-0.02-0.03-0.04-0.04C52.1,9.03,52.06,9,52.06,9
			l-0.04-0.03l-0.03-0.06c0,0-0.03-0.02-0.04-0.03c-0.01-0.01-0.03-0.04-0.03-0.04l0-0.06L51.9,8.71l-0.04-0.05L51.83,8.6
			l-0.03-0.04l0.04-0.02l0.02,0l0.03,0l0.04,0l0.04-0.02L52,8.54l0.07,0l0.04-0.03l0-0.04l0.03-0.04l0.02-0.04l-0.01-0.05l0.01-0.04
			l0-0.04l0.01-0.04l0.01-0.03l0-0.03l0.02-0.02l0-0.09l-0.06-0.02l-0.05,0l-0.02,0l-0.01-0.04l-0.03-0.02l0-0.04l-0.03-0.01l0-0.04
			l0-0.05l0.01-0.04l0.03,0l0.01-0.04l0.01-0.03l0.03,0l0.01-0.03l0.04,0l0.03-0.02l0.04,0.02l0.03-0.03l0.01-0.03l0.03-0.01
			l0.01-0.05l0.03-0.04l0.04-0.07l0.04-0.08l0.02-0.07l0.02-0.02l0.02-0.01l0.02-0.01l0-0.03l0-0.02l0.01-0.05l0-0.08l0.03-0.01
			l0.01-0.05l0.03-0.02l0.01-0.04l0-0.08l-0.01-0.07l0-0.05l-0.03-0.03l-0.01-0.07l0.01-0.12l0-0.07l0.04-0.02l0.02-0.06L52.6,6.36
			l0-0.06l0-0.05l-0.04-0.03l-0.01-0.07l0-0.08l-0.04-0.02l-0.03-0.03l-0.04,0L52.41,6l-0.02-0.02l-0.03,0l-0.02-0.05l0-0.04
			l0.04-0.01l0.03-0.03L52.4,5.82l0.01-0.04l0-0.05l-0.02-0.05l-0.03,0l-0.04-0.02l-0.02-0.03L52.3,5.6l0-0.05l0-0.11l-0.04-0.02
			l-0.01-0.04l-0.05,0l-0.03,0l-0.06,0L52.06,5.4l-0.02,0.01l-0.03,0.02l-0.05,0l-0.03-0.01l-0.02-0.04l0-0.05l0-0.05l-0.04-0.01
			l0-0.04l-0.02-0.04l-0.03-0.01l-0.04-0.05l-0.03-0.02l-0.1-0.1l-0.08-0.08L51.5,4.8l-0.05-0.08l-0.03-0.06l-0.05-0.08l-0.06-0.06
			l-0.05-0.06l-0.03-0.11l-0.02-0.06l0-0.09l-0.02-0.03l-0.01-0.05l-0.02-0.04l-0.04-0.03l0-0.04l-0.02-0.02l-0.03-0.01l-0.01-0.02
			l-0.02,0l-0.02,0l-0.03,0l-0.03,0l-0.01-0.02l-0.02-0.03l-0.04,0L50.85,3.9l-0.01-0.02l-0.01-0.01l-0.03-0.03L50.76,3.8
			l-0.02-0.03l-0.02-0.02l-0.05-0.04l-0.03-0.03l-0.03-0.04l-0.04-0.03l-0.02-0.02l-0.01-0.03l-0.07,0l-0.04,0l0,0.03l0.02,0.03
			l-0.02,0.03l0.02,0.03l0,0.03l0.03,0.03l0.03,0.04l0.01,0.04l-0.02,0.06l0.02,0.04l0.01,0.05l0,0.03l0.04,0.03l0.02,0.03
			l0.03,0.03l0.04,0.06l0.01,0.03l0.01,0.05l0.03,0.03l0.02,0.04l0,0.05l0.03,0.02c0,0,0.01,0.02,0.01,0.03
			c0,0.01,0.02,0.04,0.02,0.04L50.8,4.5c0,0,0.01,0.03,0.03,0.04c0.01,0.01,0.02,0.03,0.02,0.03l0.03,0.03l0.04,0.02l0,0.04
			l0.04,0.11l0.02,0.06l0.05,0.05l0.01,0.06l0.03,0.06l0.05,0.04l0.02,0.05l0.04,0.05l0,0.06l0.05,0.02l0.04,0.05l0.05,0.06
			l0.05,0.06l0.05,0.06c0,0,0.04,0.07,0.05,0.08c0.01,0.02,0.06,0.08,0.06,0.08s0.04,0.01,0.06,0.03c0.02,0.02,0.04,0.06,0.04,0.06
			l0.05,0.08l0.02,0.07l0,0.06l0,0.04l0,0.04l-0.02,0.05l-0.02,0.03c0,0-0.02,0.03-0.02,0.04c0,0.01-0.03,0.03-0.03,0.03
			s-0.02,0.06-0.01,0.07c0,0.01,0.01,0.02,0.01,0.03c0,0.01,0.01,0.02,0.02,0.03c0.01,0.01,0.03,0.02,0.03,0.02l0.04,0.03l0.05,0.03
			l0.05,0.03l0.05,0.04l0.07,0.03l0.06,0.03l0.06,0.07l0.07,0.07l0.05,0.07l0.03,0.1l0.04,0.12l0.01,0.08l0.01,0.08l0.02,0.02
			l0,0.03l0,0.04l-0.01,0.03l-0.01,0.04l-0.01,0.05l-0.03,0.04l0,0.04L52.2,7.38l-0.03,0.03l-0.03,0.03l-0.04,0.02L52.08,7.5
			l-0.03,0.02l-0.1,0l0-0.06l-0.02-0.02l0.02-0.03l0.02-0.04l0.01-0.03L52,7.31l0.01-0.02l0.02-0.04l0.02-0.03l0.02-0.03l0-0.05
			l0.01-0.03l0.02-0.03l0-0.03l-0.02-0.04L52.07,7c0,0-0.02-0.01-0.02-0.03c0-0.01,0.01-0.02,0-0.03c-0.01-0.01-0.02-0.01-0.02-0.01
			s-0.01-0.01-0.02-0.02C52,6.91,51.98,6.88,51.98,6.88s0-0.01-0.03-0.03c-0.03-0.01-0.04-0.02-0.04-0.02L51.9,6.81l-0.03-0.03
			l-0.04-0.02l-0.02-0.02l-0.02-0.02c0,0-0.03,0-0.04,0c-0.01,0-0.04,0-0.04,0l-0.03,0l-0.03,0.03l-0.03,0.03L51.6,6.81l-0.03,0.01
			l-0.11,0l-0.03-0.02c0,0-0.01-0.02-0.01-0.03c0-0.01,0-0.05,0-0.05l0.02-0.02l0.02-0.02l0-0.02l-0.01-0.02l-0.01-0.02l0-0.02
			L51.41,6.6L51.4,6.58l-0.06-0.06l-0.03-0.05L51.3,6.41l-0.05-0.04l-0.03-0.05l-0.05-0.05c0,0-0.03-0.05-0.05-0.04
			c-0.02,0-0.06,0-0.06,0l-0.06-0.05l-0.04,0.01L50.91,6.2c0,0-0.06-0.02-0.08-0.02c-0.01,0-0.06,0-0.08,0c-0.01,0-0.01,0-0.05,0
			c-0.04,0-0.08,0-0.08,0s0-0.02-0.03-0.02c-0.03,0-0.06,0-0.07,0c-0.02,0.01-0.03,0.01-0.04,0.01c-0.01,0-0.04-0.02-0.04-0.02
			l-0.04,0c0,0-0.02,0-0.03,0c-0.01,0-0.03,0-0.03-0.01c-0.01-0.01-0.02-0.02-0.02-0.02s-0.02-0.01-0.03-0.01
			c-0.02,0-0.06,0.02-0.06,0.02L50.2,6.19l-0.04,0.04l-0.03,0.03L50.11,6.3l-0.02,0.03l0,0.06l-0.01,0.06l0,0.04l-0.01,0.03
			l-0.04-0.01l-0.04,0l-0.01-0.03l-0.03-0.03l-0.01-0.03L49.93,6.4l0.01-0.04l0-0.06l0-0.04l-0.03-0.03L49.87,6.2l0-0.03l0-0.04
			l-0.03-0.02l-0.02-0.04l0-0.04L49.8,6.01l-0.02-0.03l0-0.04l0-0.03l-0.02-0.03l-0.01-0.03l-0.04,0.01l-0.03,0.02
			c0,0-0.04,0.01-0.04,0.02c0,0.01-0.01,0.03-0.01,0.03l-0.02,0.01l-0.03,0.04l-0.03,0.03l-0.03,0.03l-0.05,0.01l-0.04,0.03l0,0.05
			l-0.02,0.01l0,0.04l0.02,0.02l0.01,0.02l0.03,0.01l0.03,0l0.02,0c0.01,0.02,0.01,0.04,0.01,0.04l-0.01,0.04L49.5,6.32l-0.03,0
			l-0.01,0.02l-0.02,0.02L49.4,6.41l-0.04,0.01l-0.04,0.01L49.3,6.47l-0.04,0.02l-0.04,0.01l-0.04,0.04l-0.02,0.03l-0.04,0.02
			l-0.03,0.03l-0.03,0.02l-0.03,0.01L49,6.7l-0.01,0.03l-0.04,0.03l-0.01,0.04l-0.03,0.03l-0.03,0.03l-0.04,0.01l-0.05,0l-0.05,0
			l-0.03-0.02L48.69,6.8l-0.03-0.03l-0.03-0.03l-0.02-0.02L48.56,6.7l-0.02-0.03l-0.04,0L48.48,6.7L48.46,6.7l-0.04,0L48.4,6.73
			l-0.03,0l-0.02,0.03l-0.04,0L48.3,6.73l0-0.04l0.01-0.03l0.02,0l0.02,0l0.02-0.02l0.02,0.02l0.03-0.01l0.01-0.02
			c0,0,0-0.02,0.01-0.02c0.01,0,0.04,0,0.04,0l0.03-0.02l0.02-0.01l0.02-0.02l0.03,0l0.03-0.03l0.04-0.02l0.02-0.02
			c0,0,0.01-0.02,0.01-0.03c0-0.01,0.03-0.03,0.03-0.03l0.03-0.03l0.02-0.02l0.01-0.05l0.02-0.02l0.03-0.02l0-0.04l0.01-0.04
			L48.8,6.15l0.01-0.05l0-0.05L48.78,6l-0.03-0.03l-0.01-0.04l-0.03-0.01l-0.04,0.02l-0.04,0.01l0,0.02l-0.04,0.03l-0.01,0.03
			l-0.03,0.01l-0.03,0.03l-0.01,0.02l-0.03,0.03l-0.03,0.03l-0.03,0.01l-0.04,0.03l-0.02,0.03l-0.04,0.01l-0.03,0.02l-0.07,0.01
			l-0.02-0.03l-0.04-0.03l-0.04-0.03l-0.03-0.03l-0.03,0.01l-0.03-0.03l-0.04-0.02l-0.04,0.01L47.9,6.1l-0.05,0l-0.01,0.03
			c0,0-0.02,0-0.04,0c-0.02,0-0.08,0-0.08,0l-0.06,0.01l-0.02,0.02l-0.05,0l-0.22,0.01l-0.04,0l-0.05,0.03l-0.02,0.03l-0.08,0
			l-0.03-0.04l-0.01-0.03l-0.02-0.02l0-0.03l-0.02-0.03l-0.03,0l-0.03,0.02l-0.01,0.03l-0.02,0.03l-0.04,0.03l-0.03,0.06l0.01,0.03
			l-0.03,0.04l0,0.04l0,0.06l-0.01,0.04l-0.03,0.03l-0.06,0.04l-0.03,0.05l-0.18,0l-0.06-0.05L46.5,6.56l-0.07,0l-0.07,0l-0.01-0.05
			l-0.05-0.03l-0.04-0.01l-0.08,0.02l-0.03,0.02l-0.03,0.04l-0.04-0.01L46.05,6.5l0-0.03l0.01-0.04l0-0.05l-0.02-0.04L46.01,6.3
			c0,0-0.02-0.01-0.02-0.02c0-0.01-0.07-0.03-0.07-0.03L45.9,6.24l-0.04-0.02l-0.22-0.06l-0.06,0l-0.09-0.02L45.44,6.1l-0.12-0.02
			l-0.04-0.04l-0.11,0L45.1,6.05l-0.21,0.22l-0.06,0.04l-0.07,0.03l-0.06,0.02l-0.11,0.09l-0.04,0.06l-0.06,0.07l-0.07,0.11
			L44.35,6.7l-0.06,0l-0.07,0.02l-0.06,0.05l-0.05,0.06l0,0.06l0,0.07L44.06,7L44,6.99l-0.06,0l-0.05,0.03l-0.06,0l-0.1,0.11
			l-0.04,0.05l-0.03,0.08l-0.04,0.06l-0.05,0.07c0,0-0.05,0.05-0.05,0.07c0,0.02-0.04,0.1-0.04,0.1s-0.01,0.05-0.01,0.06
			c0,0.02,0.01,0.09,0.01,0.09l0,0.14l0.01,0.09l0.04,0.07l0.01,0.09l0.04,0.05l-0.01,0.09l-0.01,0.1L43.5,8.41l-0.06,0.06
			l-0.05,0.05l-0.04,0.03L43.29,8.6l-0.06,0.07l0.01,0.08c0,0,0,0.06-0.02,0.08c-0.02,0.02-0.01,0.07-0.01,0.07l-0.02,0.03
			l-0.01,0.04l0,0.04l0,0.04l0.02,0.02l0.02,0.04l0,0.03c0,0-0.01,0.05-0.01,0.06c0,0.01,0.01,0.06,0.01,0.06L43.2,9.28L43.15,9.3
			l-0.03,0.03l-0.03,0l-0.05-0.02l-0.03-0.04l-0.03-0.03c0,0-0.03-0.01-0.05-0.01c-0.01,0-0.03-0.01-0.03-0.01l-0.05-0.04
			l-0.04-0.03L42.8,9.12l-0.07,0l-0.05-0.03l-0.05-0.04L42.55,9l-0.03-0.04l-0.08-0.03l-0.04,0.01l-0.07,0.01l-0.05,0.05l-0.05,0.05
			l-0.05,0.03l-0.04,0.06l-0.06,0.04l-0.05,0.04c0,0-0.07,0.04-0.07,0.05c0,0.01-0.05,0.07-0.05,0.07l-0.03,0.04l-0.04,0.04
			l-0.01,0.05L41.8,9.5c0,0-0.02,0.01-0.02,0.02c0,0,0.01,0.03,0.01,0.03l-0.03,0.02L41.75,9.6c0,0,0,0.01,0.01,0.02
			c0,0.01,0.01,0.02,0.01,0.02l0.01,0.07l0,0.08l0,0.12l-0.01,0.1l-0.02,0.04l-0.04,0.05l-0.03,0.03l0,0.04l-0.08,0.01l-0.12,0
			l-0.02-0.04c0,0-0.04-0.02-0.05-0.01c-0.02,0-0.08,0-0.08,0l-0.11-0.01l-0.07,0l-0.02-0.04l-0.06,0l0.01-0.03l-0.01-0.05
			l-0.03-0.02l-0.01-0.04l-0.08,0l-0.08,0l-0.07,0l-0.04,0.03L40.75,10l0,0.03l-0.04,0.02L40.7,10.07L40.7,10.07z M45.83,8.65
			l-0.05,0l-0.04,0l0-0.04l0.03-0.01l0.02-0.04l0.03-0.01l0.04,0L45.85,8.5l0.02-0.05l0-0.04l0.02-0.05l0.02-0.03l0.05-0.02
			l0.01-0.04l0.08,0l0.05-0.02l0.05,0l0.06,0.02l0.05,0L46.3,8.3l0.03,0.04l0.02,0.04l0.02,0.03l0.02,0.03l0,0.03l0.03,0.02
			c0,0,0.03,0.01,0.04,0.01c0.01,0,0.05,0.01,0.05,0.01l0.04,0.01l0.01,0.04l0.01,0.04L46.51,8.6l-0.03-0.03l-0.02-0.01l-0.03,0.01
			l-0.01-0.02l-0.03,0l-0.04,0l-0.05,0l-0.05,0l-0.03-0.01l-0.04,0.01l0,0.03l-0.05-0.01L46.1,8.55l-0.05-0.01l-0.02,0.01
			l-0.03,0.03l-0.04,0l-0.05,0l-0.05,0l-0.04,0.02L45.83,8.65L45.83,8.65z M49.45,9.63l0.05,0l0.02,0.03l0.03,0.03l0,0.03l0.03,0.03
			l0.05,0.01l0.01,0.03l0,0.03l0.03,0.02l0.04,0.02l0.02,0.04l0.04,0.04c0,0,0.01,0.03,0.01,0.05s-0.02,0.07-0.02,0.07l-0.02,0.03
			l-0.03-0.01l-0.02-0.03c0,0-0.01-0.04-0.03-0.04c-0.01,0-0.04-0.01-0.04-0.01l0-0.04L49.6,9.92l-0.04,0l-0.01-0.03l-0.01-0.02
			l-0.03,0l-0.03,0.01c0,0-0.01,0.02-0.02,0.03c0,0.01-0.03,0.01-0.03,0.01l0-0.03l0.01-0.03l0.01-0.03L49.43,9.8l0.01-0.05l0-0.05
			l-0.01-0.04L49.45,9.63L49.45,9.63z M48.94,10.51L49,10.52l0.04-0.03l0.03-0.03l0.04-0.01l0.06-0.04l0.04-0.02l0.05-0.03
			l0.03-0.03l0-0.06l-0.07,0l-0.06,0.03l-0.05,0.03l-0.07,0.03l-0.01,0.05l-0.05,0.02l-0.04,0.02L48.94,10.51L48.94,10.51z
			 M50.32,10.43l0,0.05l0.04,0.01l0.02-0.02l0.05,0l0.03,0.02l0.04,0l0.03-0.01l0.02-0.02l0-0.03l0.02-0.02l0.03-0.03l0.02-0.02
			l0.01-0.02l0.03-0.03l0-0.03l0.02-0.03l-0.01-0.03l-0.05,0c0,0-0.01,0.01-0.01,0.02c0,0.01-0.01,0.04-0.01,0.04l-0.03,0
			l-0.03,0.01c0,0-0.02,0.01-0.02,0.02c0,0.01,0,0.04,0,0.04l-0.01,0.02l-0.03,0.02l0,0.02l-0.04,0l-0.04-0.02l-0.02-0.02
			l-0.02,0.02L50.32,10.43L50.32,10.43z"/>
		<polygon class="st41" points="51.16,4 51.13,3.97 51.09,3.96 51.07,3.94 51.05,3.87 51.02,3.87 51.02,3.82 51.02,3.74 50.99,3.71 
			50.96,3.67 50.93,3.66 50.92,3.48 50.96,3.47 50.98,3.44 50.97,3.41 50.94,3.38 50.9,3.35 50.86,3.33 50.83,3.26 50.81,3.21 
			50.76,3.12 50.73,3.08 50.7,3 50.67,2.96 50.67,2.9 50.67,2.81 50.68,2.77 50.72,2.77 50.72,2.7 50.73,2.65 50.76,2.62 
			50.77,2.58 50.77,2.52 50.78,2.47 50.81,2.44 50.83,2.39 50.87,2.36 50.91,2.33 50.95,2.33 50.99,2.32 51.01,2.28 51.05,2.29 
			51.12,2.29 51.17,2.28 51.24,2.28 51.29,2.29 51.34,2.29 51.37,2.32 51.43,2.33 51.47,2.33 51.5,2.34 51.52,2.37 51.55,2.38 
			51.59,2.38 51.63,2.38 51.66,2.39 51.66,2.43 51.7,2.44 51.72,2.46 51.73,2.49 51.75,2.49 51.78,2.51 51.81,2.54 51.85,2.54 
			51.88,2.55 51.91,2.58 51.96,2.61 51.98,2.64 52.02,2.67 52.05,2.71 52.1,2.76 52.16,2.79 52.18,2.85 52.24,2.91 52.25,3.01 
			52.28,3.08 52.32,3.14 52.36,3.19 52.52,3.38 52.55,3.42 52.55,3.49 52.56,3.56 52.56,3.61 52.59,3.77 52.65,3.8 52.7,3.85 
			52.75,3.9 52.82,3.99 52.88,4.01 52.92,4.03 52.97,4.07 53.04,4.12 53.06,4.17 53.1,4.23 53.12,4.28 53.14,4.34 53.18,4.39 
			53.24,4.44 53.29,4.49 53.36,4.54 53.39,4.6 53.44,4.65 53.47,4.69 53.5,4.76 53.52,4.82 53.56,4.88 53.63,4.95 53.69,5 
			53.72,5.07 53.79,5.16 53.82,5.19 53.84,5.23 53.85,5.28 53.86,5.33 53.89,5.39 53.89,5.45 53.9,5.51 53.89,5.56 53.87,5.64 
			53.84,5.68 53.81,5.71 53.77,5.75 53.7,5.77 53.63,5.78 53.62,5.82 53.53,5.82 53.49,5.82 53.43,5.82 53.39,5.83 53.37,5.85 
			53.33,5.84 53.28,5.84 53.25,5.82 53.22,5.79 53.19,5.77 53.19,5.72 53.18,5.69 53.15,5.66 53.13,5.62 53.12,5.59 53.05,5.52 
			52.95,5.42 52.87,5.35 52.79,5.29 52.74,5.27 52.58,5.23 52.54,5.17 52.48,5.11 52.33,5.08 52.29,5.01 52.22,4.96 52.17,4.91 
			52.15,4.84 52.11,4.78 52.08,4.76 51.89,4.73 51.82,4.69 51.77,4.65 51.74,4.6 51.7,4.54 51.7,4.47 51.7,4.32 51.66,4.29 
			51.66,4.15 51.64,4.08 51.6,4.05 51.59,3.99 51.55,3.97 51.52,3.94 51.48,3.91 51.4,3.88 51.35,3.9 51.29,3.91 51.24,3.92 
			51.19,3.95 51.19,3.98 51.16,4 		"/>
		<polygon class="st41" points="51.5,2.1 51.52,2.14 51.51,2.19 51.55,2.22 51.57,2.26 51.61,2.28 51.64,2.3 51.64,2.35 51.68,2.37 
			51.72,2.37 51.75,2.39 51.78,2.42 51.81,2.44 51.85,2.45 51.89,2.46 51.93,2.46 51.95,2.42 51.98,2.39 51.97,2.35 51.99,2.3 
			51.97,2.28 51.94,2.25 51.95,2.21 51.97,2.17 51.96,2.15 51.93,2.12 51.91,2.12 51.88,2.09 51.87,2.07 51.85,2.03 51.81,2.03 
			51.72,2.03 51.68,2.03 51.64,2.02 51.61,2.02 51.56,2.03 51.51,2.03 51.5,2.1 		"/>
		<path class="st41" d="M48.04,1.29l0.06,0.05l0.07,0.07l0.08,0.05l0.11,0.05l0.11,0l0.08,0l0.12,0l0.07-0.04l0.11,0L49,1.46
			l0.12-0.02l0.08,0.02l0.09-0.01l0.09-0.03l0.07-0.06l0.1-0.06l0.01-0.09l-0.05-0.07l-0.07-0.07l-0.05-0.03
			c0,0-0.06-0.04-0.08-0.05c-0.02-0.01-0.08-0.04-0.08-0.04l-0.07,0l-0.12,0.02l-0.1,0.02l-0.19,0L48.7,1.03l-0.06,0.05L48.52,1.1
			l-0.11,0.04l-0.13,0.02l-0.08,0.01l-0.08,0L48.04,1.29L48.04,1.29z"/>
	</g>
</g>
</svg>
