<?xml version="1.0" encoding="utf-8"?>
<!-- Generator: Adobe Illustrator 24.0.2, SVG Export Plug-In . SVG Version: 6.00 Build 0)  -->
<svg version="1.1" id="Capa_1" xmlns="http://www.w3.org/2000/svg" xmlns:xlink="http://www.w3.org/1999/xlink" x="0px" y="0px"
	 viewBox="0 0 69.82 69.82" style="enable-background:new 0 0 69.82 69.82;" xml:space="preserve">
<style type="text/css">
	.st0{fill:#D3A13C;}
	.st1{fill:#4D9748;}
	.st2{fill:#D32E3C;}
	.st3{fill:#E0432F;}
	.st4{fill:#2DAFD2;}
	.st5{fill:#B8252F;}
	.st6{fill:#9A2142;}
	.st7{fill:#E46831;}
	.st8{fill:#EEBB27;}
	.st9{fill:#EE9830;}
	.st10{fill:#B6872F;}
	.st11{fill:#CE2364;}
	.st12{fill:#268BC3;}
	.st13{fill:#5DAE49;}
	.st14{fill:#427D44;}
	.st15{fill:#1C4769;}
	.st16{fill:#0B6695;}
	.st17{fill:#FFFFFF;}
	.st18{fill-rule:evenodd;clip-rule:evenodd;fill:#00A0DB;}
	.st19{fill-rule:evenodd;clip-rule:evenodd;fill:#0782BE;}
	.st20{fill-rule:evenodd;clip-rule:evenodd;fill:#FFFFFF;}
	.st21{fill-rule:evenodd;clip-rule:evenodd;fill:#E86537;}
	.st22{fill-rule:evenodd;clip-rule:evenodd;fill:#034569;}
	.st23{fill-rule:evenodd;clip-rule:evenodd;fill:#DE2A66;}
	.st24{fill-rule:evenodd;clip-rule:evenodd;fill:#057C40;}
	.st25{fill-rule:evenodd;clip-rule:evenodd;fill:#CF9521;}
	.st26{fill-rule:evenodd;clip-rule:evenodd;fill:#B31D42;}
	.st27{fill-rule:evenodd;clip-rule:evenodd;fill:#D9272E;}
	.st28{fill-rule:evenodd;clip-rule:evenodd;fill:#E34538;}
	.st29{fill-rule:evenodd;clip-rule:evenodd;fill:#EF9431;}
	.st30{fill-rule:evenodd;clip-rule:evenodd;fill:#ECB129;}
	.st31{fill-rule:evenodd;clip-rule:evenodd;fill:#F7BC13;}
	.st32{fill-rule:evenodd;clip-rule:evenodd;fill:#19A240;}
	.st33{fill-rule:evenodd;clip-rule:evenodd;fill:#02983B;}
	.st34{fill-rule:evenodd;clip-rule:evenodd;fill:#E13244;}
	.st35{fill-rule:evenodd;clip-rule:evenodd;fill:#066698;}
	.st36{fill-rule:evenodd;clip-rule:evenodd;fill:#008CC4;}
	.st37{fill-rule:evenodd;clip-rule:evenodd;fill:#00A3C6;}
	.st38{fill-rule:evenodd;clip-rule:evenodd;fill:#067FC2;stroke:#067FC2;stroke-width:0.25;stroke-miterlimit:22.9256;}
	.st39{fill:none;stroke:#067FC2;stroke-width:0.25;stroke-miterlimit:22.9256;}
	.st40{fill:none;stroke:#119AD7;stroke-width:0.25;stroke-miterlimit:22.9256;}
	.st41{fill-rule:evenodd;clip-rule:evenodd;fill:#067FC2;}
</style>
<circle class="st0" cx="34.91" cy="34.91" r="34.91"/>
<g>
	<g>
		<path class="st17" d="M26.79,25.19H23.7v-0.53c0-0.88,0.31-1.21,0.79-1.72l1.21-1.27c0.98-1.04,1.19-1.7,1.19-2.83v-1.09
			c0-1.6-0.78-2.36-2.46-2.36c-1.65,0-2.5,0.88-2.5,2.45v1.35h1.72v-1.41c0-0.68,0.33-0.88,0.73-0.88c0.36,0,0.68,0.15,0.68,0.84
			v0.93c0,0.93-0.08,1.29-0.69,1.93l-1.06,1.13c-1.02,1.09-1.4,1.82-1.4,2.93v2.07h4.89V25.19z"/>
	</g>
	<g>
		<path class="st17" d="M30.62,17.68V20h-0.57v-5.16h0.57v2.32h1.27v-2.32h0.58V20h-0.58v-2.32H30.62z"/>
		<path class="st17" d="M33.63,18.96L33.43,20H32.9l0.99-5.16h0.83L35.71,20h-0.57l-0.2-1.04H33.63z M33.71,18.46h1.15l-0.58-2.98
			L33.71,18.46z"/>
		<path class="st17" d="M38.06,19.99h-0.55l-0.86-4.1V20h-0.5v-5.16h0.8l0.85,4.12l0.82-4.12h0.8V20h-0.54v-4.15L38.06,19.99z"/>
		<path class="st17" d="M41.17,14.84c0.8,0,1.12,0.38,1.12,1.14v0.24c0,0.54-0.16,0.88-0.6,1.02c0.5,0.14,0.69,0.54,0.69,1.11v0.43
			C42.38,19.56,42,20,41.2,20h-1.19v-5.16H41.17z M41.03,17.03c0.46,0,0.69-0.15,0.69-0.69v-0.3c0-0.46-0.15-0.68-0.57-0.68h-0.57
			v1.67H41.03z M41.2,19.47c0.42,0,0.61-0.22,0.61-0.7v-0.46c0-0.57-0.23-0.77-0.72-0.77h-0.5v1.92H41.2z"/>
		<path class="st17" d="M44.05,14.84c0.81,0,1.15,0.41,1.15,1.18v0.42c0,0.57-0.2,0.92-0.64,1.06c0.47,0.14,0.65,0.52,0.65,1.08v0.8
			c0,0.23,0.01,0.44,0.1,0.62h-0.58c-0.07-0.15-0.1-0.28-0.1-0.63v-0.81c0-0.58-0.27-0.77-0.75-0.77h-0.41V20H42.9v-5.16H44.05z
			 M43.9,17.27c0.46,0,0.73-0.15,0.73-0.71v-0.49c0-0.46-0.17-0.71-0.6-0.71h-0.56v1.91H43.9z"/>
		<path class="st17" d="M47.64,17.12v0.52h-1.26v1.83h1.55V20H45.8v-5.16h2.12v0.52h-1.55v1.76H47.64z"/>
		<path class="st17" d="M32.32,23.45v0.46h-0.54v-0.49c0-0.46-0.18-0.74-0.6-0.74c-0.41,0-0.6,0.28-0.6,0.74v2.73
			c0,0.46,0.19,0.74,0.6,0.74c0.42,0,0.6-0.28,0.6-0.74v-0.67h0.54v0.64c0,0.78-0.37,1.3-1.16,1.3c-0.79,0-1.16-0.52-1.16-1.3v-2.67
			c0-0.78,0.37-1.3,1.16-1.3C31.95,22.16,32.32,22.67,32.32,23.45z"/>
		<path class="st17" d="M34.68,24.49v0.52h-1.26v1.83h1.55v0.52h-2.12v-5.16h2.12v0.52h-1.55v1.76H34.68z"/>
		<path class="st17" d="M36.65,22.21c0.81,0,1.15,0.41,1.15,1.18v0.42c0,0.57-0.2,0.92-0.64,1.06c0.47,0.14,0.65,0.52,0.65,1.08v0.8
			c0,0.23,0.01,0.44,0.1,0.62h-0.58c-0.07-0.15-0.1-0.28-0.1-0.63v-0.81c0-0.58-0.27-0.77-0.75-0.77h-0.4v2.2H35.5v-5.16H36.65z
			 M36.5,24.64c0.46,0,0.73-0.15,0.73-0.71v-0.49c0-0.46-0.17-0.71-0.6-0.71h-0.56v1.91H36.5z"/>
		<path class="st17" d="M38.36,23.45c0-0.79,0.39-1.3,1.18-1.3c0.79,0,1.19,0.51,1.19,1.3v2.67c0,0.78-0.39,1.3-1.19,1.3
			c-0.79,0-1.18-0.52-1.18-1.3V23.45z M38.92,26.15c0,0.47,0.2,0.74,0.61,0.74c0.42,0,0.61-0.27,0.61-0.74v-2.73
			c0-0.46-0.19-0.74-0.61-0.74c-0.41,0-0.61,0.28-0.61,0.74V26.15z"/>
	</g>
</g>
<g>
	<g>
		<path class="st17" d="M30.68,58.06v0.69c0,0,0,0.01,0,0.01c0,0.01,0,0.01,0,0.02c0.01,0.17,0.15,0.3,0.32,0.31c0,0,0,0,0.01,0
			c0,0,0.01,0,0.01,0h8.04c0,0,0,0,0.01,0c0,0,0,0,0.01,0c0.18,0,0.32-0.15,0.32-0.32c0,0,0,0,0,0c0,0,0,0,0,0v-0.78
			c4.53-1.48,7.92-5.15,8.66-9.62c0-0.01,0-0.02,0-0.03c0-0.02,0-0.03,0-0.04c0-0.18-0.14-0.33-0.33-0.33H22.25H22.1
			c-0.18,0-0.33,0.15-0.33,0.33l0.02,0.15C22.57,52.94,26.06,56.63,30.68,58.06"/>
	</g>
	<g>
		<path class="st17" d="M39.37,37.02c-0.11,0.15-2.58,3.71,0.06,6.6c1.21,1.32,1.1,2.49,0.76,3.28h1.69
			c0.34-1.16,0.2-2.62-1.17-4.13c-1.94-2.12,0.03-4.99,0.05-5.04c0.23-0.33,0.11-0.75-0.27-0.95C40.1,36.59,39.61,36.7,39.37,37.02"
			/>
	</g>
	<g>
		<path class="st17" d="M35.09,46.9h1.69c0.34-1.17,0.2-2.62-1.17-4.13c-1.94-2.12,0.02-4.99,0.05-5.04
			c0.23-0.33,0.11-0.75-0.28-0.95c-0.38-0.2-0.88-0.09-1.11,0.23c-0.11,0.15-2.58,3.71,0.05,6.6C35.54,44.94,35.43,46.11,35.09,46.9
			"/>
	</g>
	<g>
		<path class="st17" d="M29.17,37.02c-0.11,0.15-2.58,3.71,0.05,6.6c1.21,1.32,1.11,2.49,0.76,3.28h1.69
			c0.34-1.16,0.2-2.62-1.17-4.13c-1.94-2.12,0.02-4.99,0.06-5.04c0.23-0.33,0.11-0.75-0.28-0.95C29.9,36.59,29.41,36.7,29.17,37.02"
			/>
	</g>
</g>
</svg>
