<?xml version="1.0" standalone="no"?>
<!DOCTYPE svg PUBLIC "-//W3C//DTD SVG 20010904//EN"
 "http://www.w3.org/TR/2001/REC-SVG-20010904/DTD/svg10.dtd">
<svg version="1.0" xmlns="http://www.w3.org/2000/svg"
 width="1072.000000pt" height="467.000000pt" viewBox="0 0 1072.000000 467.000000"
 preserveAspectRatio="xMidYMid meet">
<metadata>
Created by potrace 1.16, written by Peter Selinger 2001-2019
</metadata>
<g transform="translate(0.000000,467.000000) scale(0.100000,-0.100000)"
fill="#000000" stroke="none">
<path d="M1692 3760 c-170 -17 -355 -71 -515 -151 -244 -124 -492 -372 -616
-616 -175 -347 -204 -748 -81 -1114 152 -455 533 -808 999 -924 495 -123 1003
16 1361 375 202 201 330 438 392 723 31 145 31 427 0 569 -98 446 -364 793
-761 992 -234 118 -516 171 -779 146z m768 -845 l0 -186 -67 3 -68 3 -5 58 -5
58 -67 -68 -68 -68 20 -33 c81 -132 80 -334 -3 -474 -52 -90 -166 -176 -274
-208 l-43 -13 0 -64 0 -63 70 0 71 0 -3 -72 -3 -73 -67 -3 -68 -3 0 -64 0 -65
-75 0 -75 0 0 65 0 64 -67 3 -68 3 -3 73 -3 72 71 0 70 0 0 64 0 63 -38 7
c-67 10 -175 72 -231 131 -152 161 -173 394 -53 581 39 60 94 112 162 151 138
81 340 75 473 -13 l40 -26 69 69 69 68 -63 5 -63 5 -3 68 -3 67 186 0 185 0 0
-185z"/>
<path d="M1689 2767 c-88 -33 -165 -104 -202 -186 -31 -68 -30 -198 1 -266 45
-98 141 -174 246 -195 146 -30 300 49 365 185 36 74 40 182 11 259 -28 73 -95
148 -165 184 -61 31 -196 41 -256 19z m321 -232 l0 -55 -215 0 -215 0 0 55 0
55 215 0 215 0 0 -55z m0 -180 l0 -55 -215 0 -215 0 0 55 0 55 215 0 215 0 0
-55z"/>
<path d="M3780 2675 l0 -425 114 0 114 0 7 57 c12 96 77 138 154 98 45 -23 51
-58 51 -292 0 -268 -11 -303 -99 -303 -88 0 -111 43 -111 209 l0 121 -120 0
-120 0 0 -107 c0 -137 14 -224 46 -290 53 -109 164 -160 333 -150 124 7 183
28 242 87 79 79 84 106 84 445 l0 290 -28 60 c-53 113 -109 149 -232 149 -86
0 -126 -14 -177 -62 l-28 -26 0 172 0 172 215 0 215 0 0 110 0 110 -330 0
-330 0 0 -425z"/>
<path d="M5466 3090 c-48 -15 -84 -58 -97 -114 -7 -32 -10 -120 -7 -236 4
-194 9 -221 56 -263 40 -36 125 -34 162 3 20 20 20 20 20 0 0 -17 7 -20 40
-20 l40 0 0 170 0 170 -80 0 -80 0 0 -45 c0 -41 2 -45 25 -45 24 0 25 -2 25
-68 0 -40 -5 -73 -12 -80 -18 -18 -56 -14 -68 7 -6 12 -10 98 -10 210 0 159 3
192 16 205 38 39 74 11 74 -56 l0 -48 55 0 55 0 0 55 c0 67 -19 118 -53 140
-30 20 -121 28 -161 15z"/>
<path d="M5200 2775 l0 -315 55 0 55 0 0 315 0 315 -55 0 -55 0 0 -315z"/>
<path d="M5730 2828 c0 -231 2 -267 18 -297 25 -50 63 -74 124 -79 68 -5 121
16 148 60 19 31 20 50 20 306 l0 272 -50 0 -50 0 0 -242 c0 -134 -3 -253 -6
-266 -8 -30 -50 -40 -72 -18 -15 15 -17 50 -20 271 l-3 255 -54 0 -55 0 0
-262z"/>
<path d="M6171 3038 c-6 -29 -31 -161 -56 -293 -25 -132 -47 -250 -50 -262 -5
-22 -2 -23 49 -23 59 0 58 -1 71 73 6 37 6 37 55 37 53 0 52 0 65 -72 l6 -38
60 0 c56 0 59 1 54 23 -2 12 -25 130 -50 262 -25 132 -50 264 -56 293 l-10 52
-64 0 -64 0 -10 -52z"/>
<path d="M6460 2775 l0 -315 120 0 120 0 0 45 0 45 -60 0 -60 0 0 270 0 270
-60 0 -60 0 0 -315z"/>
<path d="M6740 2775 l0 -315 105 0 c133 0 168 13 195 72 17 38 20 66 20 243 0
295 -14 315 -214 315 l-106 0 0 -315z m195 191 c14 -21 16 -53 13 -205 -2
-112 -7 -184 -14 -191 -6 -6 -27 -13 -47 -17 l-37 -6 0 222 0 221 35 0 c26 0
39 -6 50 -24z"/>
<path d="M7196 3078 c-3 -7 -27 -137 -55 -288 -29 -151 -54 -287 -57 -302 -6
-28 -5 -28 50 -28 l55 0 6 38 c4 20 7 44 8 52 2 11 17 16 54 18 l52 3 6 -44
c10 -64 15 -68 77 -65 l54 3 -27 140 c-14 77 -41 218 -59 313 l-33 172 -64 0
c-42 0 -65 -4 -67 -12z"/>
<path d="M7480 2775 l0 -315 108 0 c124 0 164 14 194 70 16 30 18 60 18 240
-1 301 -14 320 -214 320 l-106 0 0 -315z m190 205 c12 -8 15 -42 15 -204 0
-127 -4 -199 -11 -206 -6 -6 -27 -13 -47 -17 l-37 -6 0 222 0 221 33 0 c17 0
39 -5 47 -10z"/>
<path d="M6082 2221 c-51 -13 -89 -56 -103 -115 -7 -31 -10 -122 -7 -236 2
-152 6 -191 21 -220 32 -65 111 -89 177 -55 17 9 30 11 30 5 0 -5 20 -10 45
-10 l45 0 0 170 0 170 -80 0 -80 0 0 -45 c0 -41 2 -45 25 -45 24 0 25 -2 25
-68 0 -72 -10 -92 -45 -92 -42 0 -45 14 -45 221 0 166 2 200 16 213 18 19 45
21 62 4 7 -7 12 -36 12 -65 l0 -53 55 0 55 0 0 55 c0 71 -24 132 -61 151 -37
18 -105 25 -147 15z"/>
<path d="M7770 2219 c-19 -6 -43 -18 -54 -27 -42 -39 -46 -61 -46 -287 0 -250
5 -272 73 -307 52 -26 143 -22 185 8 56 42 62 69 62 299 0 233 -6 262 -67 297
-38 23 -108 30 -153 17z m95 -113 c23 -35 18 -402 -5 -416 -25 -16 -59 -11
-70 9 -6 12 -10 97 -10 207 0 160 2 190 17 206 22 25 50 23 68 -6z"/>
<path d="M5200 1905 l0 -315 113 0 c95 0 117 3 145 20 56 34 62 65 62 292 0
183 -2 206 -20 244 -29 58 -71 74 -200 74 l-100 0 0 -315z m194 193 c13 -18
16 -56 16 -200 0 -165 -2 -180 -20 -198 -11 -11 -33 -20 -50 -20 l-30 0 0 220
0 220 34 0 c25 0 39 -7 50 -22z"/>
<path d="M5570 1905 l0 -315 130 0 130 0 0 45 0 45 -70 0 -70 0 0 90 0 90 50
0 50 0 0 50 0 50 -50 0 -50 0 0 80 0 80 70 0 70 0 0 50 0 50 -130 0 -130 0 0
-315z"/>
<path d="M6340 1905 l0 -315 130 0 130 0 0 45 0 45 -75 0 -75 0 0 90 0 90 55
0 55 0 0 50 0 50 -55 0 -55 0 0 80 0 80 75 0 75 0 0 50 0 50 -130 0 -130 0 0
-315z"/>
<path d="M6640 1905 l0 -315 50 0 50 0 2 175 3 176 54 -176 55 -175 53 0 53 0
0 315 0 315 -50 0 -50 0 -1 -157 -1 -158 -51 158 -50 157 -59 0 -58 0 0 -315z"/>
<path d="M7010 1905 l0 -315 130 0 130 0 0 45 0 45 -75 0 -75 0 0 90 0 90 55
0 55 0 0 50 0 50 -55 0 -55 0 0 80 0 80 75 0 75 0 0 50 0 50 -130 0 -130 0 0
-315z"/>
<path d="M7310 1905 l0 -315 60 0 60 0 1 118 0 117 42 -117 41 -118 63 0 63 0
-11 28 c-6 15 -26 70 -44 122 -19 52 -37 103 -40 112 -5 12 2 21 23 32 39 20
52 60 52 155 0 145 -41 181 -207 181 l-103 0 0 -315z"/>
</g>
</svg>
