<?xml version="1.0" encoding="utf-8"?>
<!-- Generator: Adobe Illustrator 24.0.2, SVG Export Plug-In . SVG Version: 6.00 Build 0)  -->
<svg version="1.1" id="Capa_1" xmlns="http://www.w3.org/2000/svg" xmlns:xlink="http://www.w3.org/1999/xlink" x="0px" y="0px"
	 viewBox="0 0 69.82 69.82" style="enable-background:new 0 0 69.82 69.82;" xml:space="preserve">
<style type="text/css">
	.st0{fill:#D3A13C;}
	.st1{fill:#4D9748;}
	.st2{fill:#D32E3C;}
	.st3{fill:#E0432F;}
	.st4{fill:#2DAFD2;}
	.st5{fill:#B8252F;}
	.st6{fill:#9A2142;}
	.st7{fill:#E46831;}
	.st8{fill:#EEBB27;}
	.st9{fill:#EE9830;}
	.st10{fill:#B6872F;}
	.st11{fill:#CE2364;}
	.st12{fill:#268BC3;}
	.st13{fill:#5DAE49;}
	.st14{fill:#427D44;}
	.st15{fill:#1C4769;}
	.st16{fill:#0B6695;}
	.st17{fill:#FFFFFF;}
	.st18{fill-rule:evenodd;clip-rule:evenodd;fill:#00A0DB;}
	.st19{fill-rule:evenodd;clip-rule:evenodd;fill:#0782BE;}
	.st20{fill-rule:evenodd;clip-rule:evenodd;fill:#FFFFFF;}
	.st21{fill-rule:evenodd;clip-rule:evenodd;fill:#E86537;}
	.st22{fill-rule:evenodd;clip-rule:evenodd;fill:#034569;}
	.st23{fill-rule:evenodd;clip-rule:evenodd;fill:#DE2A66;}
	.st24{fill-rule:evenodd;clip-rule:evenodd;fill:#057C40;}
	.st25{fill-rule:evenodd;clip-rule:evenodd;fill:#CF9521;}
	.st26{fill-rule:evenodd;clip-rule:evenodd;fill:#B31D42;}
	.st27{fill-rule:evenodd;clip-rule:evenodd;fill:#D9272E;}
	.st28{fill-rule:evenodd;clip-rule:evenodd;fill:#E34538;}
	.st29{fill-rule:evenodd;clip-rule:evenodd;fill:#EF9431;}
	.st30{fill-rule:evenodd;clip-rule:evenodd;fill:#ECB129;}
	.st31{fill-rule:evenodd;clip-rule:evenodd;fill:#F7BC13;}
	.st32{fill-rule:evenodd;clip-rule:evenodd;fill:#19A240;}
	.st33{fill-rule:evenodd;clip-rule:evenodd;fill:#02983B;}
	.st34{fill-rule:evenodd;clip-rule:evenodd;fill:#E13244;}
	.st35{fill-rule:evenodd;clip-rule:evenodd;fill:#066698;}
	.st36{fill-rule:evenodd;clip-rule:evenodd;fill:#008CC4;}
	.st37{fill-rule:evenodd;clip-rule:evenodd;fill:#00A3C6;}
	.st38{fill-rule:evenodd;clip-rule:evenodd;fill:#067FC2;stroke:#067FC2;stroke-width:0.25;stroke-miterlimit:22.9256;}
	.st39{fill:none;stroke:#067FC2;stroke-width:0.25;stroke-miterlimit:22.9256;}
	.st40{fill:none;stroke:#119AD7;stroke-width:0.25;stroke-miterlimit:22.9256;}
	.st41{fill-rule:evenodd;clip-rule:evenodd;fill:#067FC2;}
</style>
<circle class="st13" cx="34.91" cy="34.91" r="34.91"/>
<polygon class="st17" points="15.53,13.38 15.53,15.35 15.54,15.35 16.87,13.98 16.88,13.98 16.88,22.56 18.77,22.56 18.77,11.35 
	17.26,11.35 "/>
<g>
	<path class="st17" d="M23.25,14.9c-0.74,0-1.29,0.26-1.59,0.78h-0.02v-2.79h3.24v-1.54h-4.96v6.32h1.72v-0.25
		c0-0.66,0.3-1.02,0.83-1.02c0.58,0,0.81,0.4,0.81,1.01v2.71c0,0.6-0.21,1.01-0.79,1.01c-0.64,0-0.88-0.43-0.88-1.09v-1.41h-1.72
		v1.27c0,1.7,0.68,2.79,2.6,2.79c1.9,0,2.68-1.01,2.68-2.56v-2.74C25.16,15.61,24.26,14.9,23.25,14.9"/>
</g>
<g>
	<path class="st17" d="M28.89,11.37l0.74,3.93l0.73-3.93h0.46l-0.84,4.51h-0.74l-0.85-4.51H28.89z"/>
	<path class="st17" d="M31.71,11.37v4.51h-0.5v-4.51H31.71z"/>
	<path class="st17" d="M33.28,11.37c0.7,0,1.03,0.42,1.03,1.12v2.28c0,0.69-0.32,1.12-1.03,1.12h-1.06v-4.51H33.28z M33.28,15.43
		c0.36,0,0.54-0.23,0.54-0.64v-2.32c0-0.41-0.17-0.64-0.54-0.64h-0.54v3.6H33.28z"/>
	<path class="st17" d="M35.28,14.98l-0.17,0.91h-0.46l0.86-4.51h0.73l0.86,4.51h-0.5l-0.17-0.91H35.28z M35.35,14.55h1.01l-0.51-2.6
		L35.35,14.55z"/>
	<path class="st17" d="M39.55,11.37c0.7,0,1.02,0.42,1.02,1.12v2.28c0,0.69-0.32,1.12-1.02,1.12h-1.06v-4.51H39.55z M39.54,15.43
		c0.36,0,0.54-0.23,0.54-0.64v-2.32c0-0.41-0.17-0.64-0.54-0.64H39v3.6H39.54z"/>
	<path class="st17" d="M42.65,13.37v0.45h-1.1v1.61h1.35v0.46h-1.86v-4.51h1.86v0.46h-1.35v1.54H42.65z"/>
	<path class="st17" d="M30.12,19.82v0.45h-1.1v1.61h1.35v0.46h-1.86v-4.51h1.86v0.46h-1.35v1.54H30.12z"/>
	<path class="st17" d="M32.83,18.91v0.41h-0.48v-0.43c0-0.41-0.16-0.65-0.53-0.65c-0.36,0-0.53,0.25-0.53,0.65v2.38
		c0,0.41,0.17,0.65,0.53,0.65c0.37,0,0.53-0.25,0.53-0.65v-0.59h0.48v0.56c0,0.68-0.32,1.13-1.02,1.13c-0.69,0-1.01-0.45-1.01-1.13
		v-2.33c0-0.68,0.32-1.14,1.01-1.14C32.5,17.77,32.83,18.22,32.83,18.91z"/>
	<path class="st17" d="M33.25,18.91c0-0.69,0.34-1.14,1.03-1.14c0.7,0,1.04,0.45,1.04,1.14v2.33c0,0.68-0.34,1.13-1.04,1.13
		c-0.69,0-1.03-0.45-1.03-1.13V18.91z M33.74,21.27c0,0.41,0.17,0.65,0.54,0.65c0.37,0,0.54-0.24,0.54-0.65v-2.38
		c0-0.41-0.17-0.65-0.54-0.65c-0.36,0-0.54,0.25-0.54,0.65V21.27z"/>
	<path class="st17" d="M37.74,18.9v0.12h-0.48v-0.15c0-0.41-0.15-0.64-0.52-0.64c-0.36,0-0.52,0.24-0.52,0.64
		c0,1.01,1.51,1.11,1.51,2.38c0,0.68-0.33,1.13-1.02,1.13c-0.69,0-1.01-0.44-1.01-1.13v-0.26h0.47v0.28c0,0.41,0.17,0.64,0.53,0.64
		c0.36,0,0.53-0.24,0.53-0.64c0-1.01-1.51-1.1-1.51-2.37c0-0.7,0.32-1.13,1-1.13C37.42,17.77,37.74,18.22,37.74,18.9z"/>
	<path class="st17" d="M38.69,17.82v4.51h-0.5v-4.51H38.69z"/>
	<path class="st17" d="M41.16,18.9v0.12h-0.48v-0.15c0-0.41-0.15-0.64-0.52-0.64c-0.36,0-0.52,0.24-0.52,0.64
		c0,1.01,1.52,1.11,1.52,2.38c0,0.68-0.33,1.13-1.02,1.13c-0.69,0-1.01-0.44-1.01-1.13v-0.26h0.47v0.28c0,0.41,0.17,0.64,0.53,0.64
		c0.36,0,0.53-0.24,0.53-0.64c0-1.01-1.51-1.1-1.51-2.37c0-0.7,0.32-1.13,1-1.13C40.84,17.77,41.16,18.22,41.16,18.9z"/>
	<path class="st17" d="M42.26,22.33v-4.05h-0.83v-0.46h2.16v0.46h-0.83v4.05H42.26z"/>
	<path class="st17" d="M45.53,19.82v0.45h-1.1v1.61h1.35v0.46h-1.86v-4.51h1.86v0.46h-1.35v1.54H45.53z"/>
	<path class="st17" d="M47.91,22.33h-0.48l-0.75-3.59v3.6h-0.44v-4.51h0.7l0.74,3.6l0.72-3.6h0.7v4.51h-0.48V18.7L47.91,22.33z"/>
	<path class="st17" d="M50.13,21.42l-0.17,0.91h-0.46l0.86-4.51h0.73l0.86,4.51h-0.5l-0.17-0.91H50.13z M50.19,20.99h1.01l-0.51-2.6
		L50.19,20.99z"/>
	<path class="st17" d="M54.29,18.9v0.12h-0.48v-0.15c0-0.41-0.15-0.64-0.52-0.64c-0.36,0-0.52,0.24-0.52,0.64
		c0,1.01,1.51,1.11,1.51,2.38c0,0.68-0.33,1.13-1.02,1.13c-0.69,0-1.01-0.44-1.01-1.13v-0.26h0.47v0.28c0,0.41,0.17,0.64,0.53,0.64
		c0.36,0,0.53-0.24,0.53-0.64c0-1.01-1.51-1.1-1.51-2.37c0-0.7,0.32-1.13,1-1.13C53.97,17.77,54.29,18.22,54.29,18.9z"/>
	<path class="st17" d="M29.16,28.78v-4.06h-0.83v-0.46h2.16v0.46h-0.83v4.06H29.16z"/>
	<path class="st17" d="M32.44,26.26v0.45h-1.1v1.61h1.35v0.46h-1.86v-4.51h1.86v0.46h-1.35v1.54H32.44z"/>
	<path class="st17" d="M34.16,24.27c0.71,0,1.01,0.36,1.01,1.03v0.37c0,0.5-0.17,0.81-0.56,0.93c0.41,0.12,0.57,0.46,0.57,0.94v0.7
		c0,0.2,0.01,0.39,0.09,0.54h-0.51c-0.06-0.13-0.08-0.25-0.08-0.55v-0.71c0-0.51-0.24-0.67-0.66-0.67h-0.35v1.93h-0.5v-4.51H34.16z
		 M34.03,26.39c0.4,0,0.64-0.13,0.64-0.62v-0.43c0-0.41-0.15-0.62-0.52-0.62h-0.49v1.67H34.03z"/>
	<path class="st17" d="M36.7,24.27c0.71,0,1,0.36,1,1.03v0.37c0,0.5-0.17,0.81-0.56,0.93c0.41,0.12,0.57,0.46,0.57,0.94v0.7
		c0,0.2,0.01,0.39,0.09,0.54h-0.51c-0.06-0.13-0.08-0.25-0.08-0.55v-0.71c0-0.51-0.24-0.67-0.66-0.67H36.2v1.93h-0.5v-4.51H36.7z
		 M36.57,26.39c0.4,0,0.64-0.13,0.64-0.62v-0.43c0-0.41-0.15-0.62-0.52-0.62H36.2v1.67H36.57z"/>
	<path class="st17" d="M39.84,26.26v0.45h-1.1v1.61h1.35v0.46h-1.86v-4.51h1.86v0.46h-1.35v1.54H39.84z"/>
	<path class="st17" d="M42.51,25.35v0.12h-0.48v-0.15c0-0.41-0.16-0.64-0.52-0.64c-0.36,0-0.52,0.24-0.52,0.64
		c0,1.01,1.51,1.11,1.51,2.38c0,0.68-0.33,1.13-1.02,1.13c-0.69,0-1.01-0.45-1.01-1.13v-0.26h0.47v0.28c0,0.41,0.17,0.64,0.53,0.64
		c0.36,0,0.53-0.24,0.53-0.64c0-1.01-1.51-1.1-1.51-2.37c0-0.7,0.32-1.13,1-1.13C42.19,24.22,42.51,24.67,42.51,25.35z"/>
	<path class="st17" d="M43.6,28.78v-4.06h-0.83v-0.46h2.16v0.46H44.1v4.06H43.6z"/>
	<path class="st17" d="M46.28,24.27c0.71,0,1.01,0.36,1.01,1.03v0.37c0,0.5-0.17,0.81-0.56,0.93c0.41,0.12,0.57,0.46,0.57,0.94v0.7
		c0,0.2,0.01,0.39,0.09,0.54h-0.51c-0.06-0.13-0.08-0.25-0.08-0.55v-0.71c0-0.51-0.24-0.67-0.66-0.67h-0.35v1.93h-0.5v-4.51H46.28z
		 M46.15,26.39c0.4,0,0.64-0.13,0.64-0.62v-0.43c0-0.41-0.15-0.62-0.52-0.62h-0.49v1.67H46.15z"/>
	<path class="st17" d="M49.42,26.26v0.45h-1.1v1.61h1.35v0.46h-1.86v-4.51h1.86v0.46h-1.35v1.54H49.42z"/>
	<path class="st17" d="M52.09,25.35v0.12h-0.48v-0.15c0-0.41-0.15-0.64-0.52-0.64c-0.36,0-0.52,0.24-0.52,0.64
		c0,1.01,1.52,1.11,1.52,2.38c0,0.68-0.33,1.13-1.02,1.13c-0.69,0-1.01-0.45-1.01-1.13v-0.26h0.47v0.28c0,0.41,0.17,0.64,0.53,0.64
		c0.36,0,0.53-0.24,0.53-0.64c0-1.01-1.51-1.1-1.51-2.37c0-0.7,0.32-1.13,1-1.13C51.76,24.22,52.09,24.67,52.09,25.35z"/>
</g>
<g>
	<g>
		<path class="st17" d="M30.97,48.65c0.06,0,0.11,0.05,0.11,0.11v3.55c0,0.06-0.05,0.11-0.11,0.11h-1.44
			c-0.06,0-0.11-0.05-0.11-0.11v-3.55c0-0.06,0.05-0.11,0.11-0.11H30.97z"/>
	</g>
	<g>
		<path class="st17" d="M46.75,53.94H23.08c-0.06,0-0.11,0.05-0.11,0.11v1.45c0,0.06,0.05,0.11,0.11,0.11h23.67
			c0.06,0,0.11-0.05,0.11-0.11v-1.45C46.86,53.99,46.81,53.94,46.75,53.94"/>
	</g>
	<g>
		<path class="st17" d="M46.75,56.81H23.08c-0.06,0-0.11,0.05-0.11,0.11v1.45c0,0.06,0.05,0.11,0.11,0.11h23.67
			c0.06,0,0.11-0.05,0.11-0.11v-1.45C46.86,56.86,46.81,56.81,46.75,56.81"/>
	</g>
	<g>
		<path class="st17" d="M42.24,44.72c-0.3-0.23-1.08-0.77-2.05-0.77c-0.69,0-1.33,0.27-1.9,0.81c-0.04,0.04-0.06,0.09-0.06,0.15
			v0.13c0,0.06,0.02,0.12,0.07,0.16c0.05,0.04,0.1,0.05,0.17,0.04c0.01,0,0.03-0.01,0.04-0.01c0.04-0.02,0.09-0.04,0.12-0.08
			c0.13-0.08,0.46-0.2,0.95-0.2c0.5,0,1.49,0.13,2.44,1.02l0.02,0.02c0.05,0.05,0.13,0.09,0.21,0.09c0.07,0,0.15-0.03,0.2-0.08
			l0.02-0.02c0.96-0.89,1.94-1.02,2.44-1.02c0.49,0,0.83,0.11,0.95,0.2c0.03,0.03,0.08,0.06,0.13,0.08c0.02,0.01,0.08,0.02,0.14,0
			c0.09-0.03,0.15-0.1,0.15-0.2v-0.11c0-0.05-0.02-0.11-0.06-0.15c-0.58-0.55-1.23-0.83-1.92-0.83
			C43.33,43.94,42.55,44.48,42.24,44.72"/>
	</g>
	<g>
		<path class="st17" d="M40.77,35.28c-0.05,0.02-0.09,0.07-0.1,0.12l-0.02,0.08c-0.02,0.06-0.01,0.13,0.03,0.18
			c0.04,0.05,0.09,0.08,0.15,0.08c0.01,0,0.02,0,0.03,0c0.04,0,0.08-0.01,0.11-0.03c0.02,0,0.06-0.02,0.14-0.02
			c0.11,0,1.06,0.03,1.69,1.1l0.01,0.02c0.04,0.06,0.09,0.1,0.15,0.12c0.02,0.01,0.05,0.01,0.08,0.01c0.04,0,0.09-0.01,0.12-0.03
			l0.02-0.01c0.34-0.17,0.7-0.26,1.06-0.26c0.6,0,0.99,0.24,1.08,0.35c0.02,0.03,0.05,0.06,0.08,0.09c0.02,0.01,0.06,0.03,0.08,0.04
			c0.01,0,0.02,0,0.04,0c0.01,0,0.01,0,0.02,0c0.03,0,0.06-0.01,0.09-0.02c0.05-0.02,0.09-0.07,0.1-0.12l0.02-0.07
			c0.01-0.02,0.01-0.04,0.01-0.06c0-0.04-0.01-0.07-0.03-0.1c-0.46-0.8-1.13-0.96-1.61-0.96c-0.36,0-0.67,0.09-0.85,0.16
			c-0.22-0.29-0.77-0.89-1.6-0.89C41.37,35.06,41.07,35.13,40.77,35.28"/>
	</g>
	<g>
		<path class="st17" d="M35.77,38.92l0.01,0.11c0,0.07,0.04,0.12,0.09,0.16c0.05,0.03,0.11,0.04,0.16,0.02
			c0.01,0,0.02-0.01,0.04-0.01c0.04-0.02,0.08-0.04,0.1-0.08c0.1-0.07,0.42-0.2,0.9-0.2c0.46,0,1.16,0.12,1.87,0.71l0.02,0.02
			c0.05,0.04,0.12,0.07,0.18,0.07h0.02c0.08-0.01,0.14-0.04,0.19-0.09l0.02-0.02c0.79-0.83,1.64-0.96,2.08-0.96
			c0.31,0,0.53,0.06,0.62,0.11c0.03,0.03,0.07,0.05,0.12,0.06c0.01,0,0.05,0.01,0.09,0.01c0.01,0,0.03-0.01,0.05-0.01
			c0.08-0.03,0.14-0.11,0.13-0.2l0-0.09c0-0.06-0.03-0.11-0.07-0.14c-0.47-0.4-0.98-0.6-1.51-0.6c-0.83,0-1.5,0.49-1.77,0.73
			C38.84,38.35,38.22,38,37.51,38c-0.63,0-1.19,0.26-1.68,0.78C35.79,38.81,35.77,38.87,35.77,38.92"/>
	</g>
	<g>
		<path class="st17" d="M23.79,40.82c0-1.42,1.15-2.57,2.57-2.57c0.06,0,0.11,0.01,0.16,0.01c0.14-1.79,1.63-3.21,3.46-3.21
			c1.92,0,3.47,1.55,3.47,3.47c0,0.54-0.13,1.05-0.35,1.51c1.74,0.38,3.04,1.93,3.04,3.79c0,2.14-1.74,3.88-3.88,3.88
			c-0.16,0-5.18-0.03-5.18-0.03c-1.52,0-2.75-1.23-2.75-2.75c0-0.73,0.29-1.39,0.75-1.88C24.32,42.61,23.79,41.78,23.79,40.82"/>
	</g>
</g>
</svg>
