<?xml version="1.0" encoding="utf-8"?>
<!-- Generator: Adobe Illustrator 24.0.2, SVG Export Plug-In . SVG Version: 6.00 Build 0)  -->
<svg version="1.1" id="Capa_1" xmlns="http://www.w3.org/2000/svg" xmlns:xlink="http://www.w3.org/1999/xlink" x="0px" y="0px"
	 viewBox="0 0 69.82 69.82" style="enable-background:new 0 0 69.82 69.82;" xml:space="preserve">
<style type="text/css">
	.st0{fill:#D3A13C;}
	.st1{fill:#4D9748;}
	.st2{fill:#D32E3C;}
	.st3{fill:#E0432F;}
	.st4{fill:#2DAFD2;}
	.st5{fill:#B8252F;}
	.st6{fill:#9A2142;}
	.st7{fill:#E46831;}
	.st8{fill:#EEBB27;}
	.st9{fill:#EE9830;}
	.st10{fill:#B6872F;}
	.st11{fill:#CE2364;}
	.st12{fill:#268BC3;}
	.st13{fill:#5DAE49;}
	.st14{fill:#427D44;}
	.st15{fill:#1C4769;}
	.st16{fill:#0B6695;}
	.st17{fill:#FFFFFF;}
	.st18{fill-rule:evenodd;clip-rule:evenodd;fill:#00A0DB;}
	.st19{fill-rule:evenodd;clip-rule:evenodd;fill:#0782BE;}
	.st20{fill-rule:evenodd;clip-rule:evenodd;fill:#FFFFFF;}
	.st21{fill-rule:evenodd;clip-rule:evenodd;fill:#E86537;}
	.st22{fill-rule:evenodd;clip-rule:evenodd;fill:#034569;}
	.st23{fill-rule:evenodd;clip-rule:evenodd;fill:#DE2A66;}
	.st24{fill-rule:evenodd;clip-rule:evenodd;fill:#057C40;}
	.st25{fill-rule:evenodd;clip-rule:evenodd;fill:#CF9521;}
	.st26{fill-rule:evenodd;clip-rule:evenodd;fill:#B31D42;}
	.st27{fill-rule:evenodd;clip-rule:evenodd;fill:#D9272E;}
	.st28{fill-rule:evenodd;clip-rule:evenodd;fill:#E34538;}
	.st29{fill-rule:evenodd;clip-rule:evenodd;fill:#EF9431;}
	.st30{fill-rule:evenodd;clip-rule:evenodd;fill:#ECB129;}
	.st31{fill-rule:evenodd;clip-rule:evenodd;fill:#F7BC13;}
	.st32{fill-rule:evenodd;clip-rule:evenodd;fill:#19A240;}
	.st33{fill-rule:evenodd;clip-rule:evenodd;fill:#02983B;}
	.st34{fill-rule:evenodd;clip-rule:evenodd;fill:#E13244;}
	.st35{fill-rule:evenodd;clip-rule:evenodd;fill:#066698;}
	.st36{fill-rule:evenodd;clip-rule:evenodd;fill:#008CC4;}
	.st37{fill-rule:evenodd;clip-rule:evenodd;fill:#00A3C6;}
	.st38{fill-rule:evenodd;clip-rule:evenodd;fill:#067FC2;stroke:#067FC2;stroke-width:0.25;stroke-miterlimit:22.9256;}
	.st39{fill:none;stroke:#067FC2;stroke-width:0.25;stroke-miterlimit:22.9256;}
	.st40{fill:none;stroke:#119AD7;stroke-width:0.25;stroke-miterlimit:22.9256;}
	.st41{fill-rule:evenodd;clip-rule:evenodd;fill:#067FC2;}
</style>
<circle class="st3" cx="34.91" cy="34.91" r="34.91"/>
<g>
	<g>
		<path class="st17" d="M22.55,19.1c-0.74,0-1.29,0.26-1.59,0.78h-0.02v-2.79h3.24v-1.54h-4.96v6.31h1.72v-0.25
			c0-0.66,0.3-1.02,0.83-1.02c0.58,0,0.81,0.4,0.81,1.01v2.71c0,0.6-0.22,1.01-0.79,1.01c-0.65,0-0.88-0.43-0.88-1.09v-1.41h-1.72
			v1.27c0,1.7,0.68,2.79,2.6,2.79c1.9,0,2.68-1.01,2.68-2.56v-2.74C24.46,19.81,23.55,19.1,22.55,19.1"/>
	</g>
	<g>
		<path class="st17" d="M28.32,14.91v5.12h-0.57v-5.12H28.32z"/>
		<path class="st17" d="M31.16,16.14v0.44h-0.54v-0.47c0-0.46-0.18-0.74-0.6-0.74c-0.41,0-0.6,0.28-0.6,0.74v2.7
			c0,0.46,0.19,0.74,0.6,0.74c0.42,0,0.6-0.28,0.6-0.74v-1.02h-0.53v-0.51h1.07v1.5c0,0.77-0.37,1.29-1.15,1.29
			c-0.78,0-1.15-0.51-1.15-1.29v-2.65c0-0.77,0.36-1.29,1.15-1.29C30.79,14.85,31.16,15.37,31.16,16.14z"/>
		<path class="st17" d="M32.24,18.82c0,0.46,0.18,0.74,0.6,0.74c0.41,0,0.59-0.28,0.59-0.74v-3.91h0.53v3.88
			c0,0.77-0.36,1.29-1.15,1.29c-0.78,0-1.14-0.52-1.14-1.29v-3.88h0.56V18.82z"/>
		<path class="st17" d="M35.11,18.99l-0.2,1.03h-0.53l0.98-5.12h0.83l0.98,5.12H36.6l-0.2-1.03H35.11z M35.18,18.5h1.14l-0.58-2.95
			L35.18,18.5z"/>
		<path class="st17" d="M37.61,20.02v-5.12h0.57v4.6h1.46v0.52H37.61z"/>
		<path class="st17" d="M41.27,14.91c0.8,0,1.16,0.48,1.16,1.27v2.58c0,0.78-0.37,1.26-1.16,1.26h-1.2v-5.12H41.27z M41.27,19.5
			c0.41,0,0.61-0.26,0.61-0.72v-2.63c0-0.47-0.2-0.72-0.61-0.72h-0.61v4.08H41.27z"/>
		<path class="st17" d="M43.54,18.99l-0.2,1.03h-0.53l0.98-5.12h0.83l0.98,5.12h-0.57l-0.2-1.03H43.54z M43.61,18.5h1.14l-0.58-2.95
			L43.61,18.5z"/>
		<path class="st17" d="M47.25,14.91c0.8,0,1.16,0.48,1.16,1.27v2.58c0,0.78-0.37,1.26-1.16,1.26h-1.2v-5.12H47.25z M47.24,19.5
			c0.41,0,0.61-0.26,0.61-0.72v-2.63c0-0.47-0.2-0.72-0.61-0.72h-0.61v4.08H47.24z"/>
		<path class="st17" d="M28.95,22.21c0.8,0,1.16,0.48,1.16,1.27v2.58c0,0.78-0.37,1.26-1.16,1.26h-1.2v-5.12H28.95z M28.94,26.81
			c0.41,0,0.61-0.26,0.61-0.72v-2.63c0-0.47-0.2-0.72-0.61-0.72h-0.61v4.08H28.94z"/>
		<path class="st17" d="M32.46,24.48v0.51h-1.25v1.82h1.53v0.52h-2.1v-5.12h2.1v0.52h-1.53v1.75H32.46z"/>
		<path class="st17" d="M36.66,23.45v0.44h-0.54v-0.47c0-0.46-0.18-0.74-0.6-0.74c-0.41,0-0.6,0.28-0.6,0.74v2.7
			c0,0.46,0.19,0.74,0.6,0.74c0.42,0,0.6-0.28,0.6-0.74V25.1h-0.53v-0.51h1.07v1.51c0,0.77-0.37,1.29-1.15,1.29
			c-0.78,0-1.15-0.51-1.15-1.29v-2.65c0-0.78,0.37-1.29,1.15-1.29C36.3,22.16,36.66,22.67,36.66,23.45z"/>
		<path class="st17" d="M39.02,24.48v0.51h-1.25v1.82h1.54v0.52H37.2v-5.12h2.11v0.52h-1.54v1.75H39.02z M38.98,21.18l-0.68,0.75
			H37.9l0.51-0.75H38.98z"/>
		<path class="st17" d="M40.34,27.33h-0.51v-5.12h0.72l1.18,3.7v-3.7h0.5v5.12h-0.59l-1.31-4.14V27.33z"/>
		<path class="st17" d="M44.64,24.48v0.51h-1.25v1.82h1.53v0.52h-2.1v-5.12h2.1v0.52h-1.53v1.75H44.64z"/>
		<path class="st17" d="M46.59,22.21c0.8,0,1.14,0.41,1.14,1.17v0.42c0,0.56-0.2,0.91-0.64,1.05c0.47,0.14,0.64,0.52,0.64,1.07v0.8
			c0,0.23,0.01,0.44,0.1,0.61h-0.58c-0.07-0.15-0.09-0.28-0.09-0.62v-0.8c0-0.58-0.27-0.76-0.75-0.76h-0.4v2.19h-0.57v-5.12H46.59z
			 M46.45,24.62c0.45,0,0.72-0.15,0.72-0.7v-0.49c0-0.46-0.17-0.7-0.59-0.7h-0.56v1.89H46.45z"/>
		<path class="st17" d="M48.29,23.45c0-0.78,0.39-1.29,1.17-1.29c0.79,0,1.18,0.5,1.18,1.29v2.65c0,0.77-0.39,1.29-1.18,1.29
			c-0.78,0-1.17-0.51-1.17-1.29V23.45z M48.85,26.12c0,0.47,0.2,0.74,0.61,0.74c0.42,0,0.61-0.27,0.61-0.74v-2.7
			c0-0.46-0.19-0.74-0.61-0.74c-0.41,0-0.61,0.28-0.61,0.74V26.12z"/>
	</g>
</g>
<g>
	<g>
		<path class="st17" d="M44.45,35.72h-6.06c-0.04,0-0.08,0.03-0.08,0.08v2.01c0,0.04,0.04,0.08,0.08,0.08h2.41l-2.68,2.68
			c-1.35-1.06-3.05-1.69-4.89-1.69c-4.38,0-7.94,3.56-7.94,7.94c0,4.03,3.02,7.36,6.91,7.87V57h-2.39c-0.05,0-0.08,0.03-0.08,0.08
			v2.16c0,0.04,0.03,0.08,0.08,0.08h2.39v2.28c0,0.04,0.03,0.08,0.08,0.08h2.16c0.04,0,0.08-0.04,0.08-0.08v-2.28h2.39
			c0.04,0,0.08-0.04,0.08-0.08v-2.16c0-0.04-0.04-0.08-0.08-0.08h-2.39v-2.36c3.77-0.62,6.65-3.89,6.65-7.83
			c0-1.7-0.54-3.27-1.45-4.56l2.64-2.64v2.25c0,0.04,0.04,0.08,0.08,0.08h2.01c0.04,0,0.08-0.03,0.08-0.08V35.8
			C44.53,35.76,44.49,35.72,44.45,35.72 M33.23,52.65c-3.22,0-5.84-2.62-5.84-5.84s2.62-5.84,5.84-5.84c3.22,0,5.84,2.62,5.84,5.84
			S36.45,52.65,33.23,52.65"/>
	</g>
	<g>
		<path class="st17" d="M36.8,44.41h-7.08c-0.04,0-0.08,0.03-0.08,0.07v1.71c0,0.04,0.03,0.07,0.08,0.07h7.08
			c0.04,0,0.08-0.03,0.08-0.07v-1.71C36.88,44.45,36.84,44.41,36.8,44.41"/>
	</g>
	<g>
		<path class="st17" d="M36.8,47.48h-7.08c-0.04,0-0.08,0.03-0.08,0.07v1.71c0,0.04,0.03,0.07,0.08,0.07h7.08
			c0.04,0,0.08-0.03,0.08-0.07v-1.71C36.88,47.51,36.84,47.48,36.8,47.48"/>
	</g>
</g>
</svg>
