<?xml version="1.0" encoding="utf-8"?>
<!-- Generator: Adobe Illustrator 24.0.2, SVG Export Plug-In . SVG Version: 6.00 Build 0)  -->
<svg version="1.1" id="Capa_1" xmlns="http://www.w3.org/2000/svg" xmlns:xlink="http://www.w3.org/1999/xlink" x="0px" y="0px"
	 viewBox="0 0 69.82 69.82" style="enable-background:new 0 0 69.82 69.82;" xml:space="preserve">
<style type="text/css">
	.st0{fill:#D3A13C;}
	.st1{fill:#4D9748;}
	.st2{fill:#D32E3C;}
	.st3{fill:#E0432F;}
	.st4{fill:#2DAFD2;}
	.st5{fill:#B8252F;}
	.st6{fill:#9A2142;}
	.st7{fill:#E46831;}
	.st8{fill:#EEBB27;}
	.st9{fill:#EE9830;}
	.st10{fill:#B6872F;}
	.st11{fill:#CE2364;}
	.st12{fill:#268BC3;}
	.st13{fill:#5DAE49;}
	.st14{fill:#427D44;}
	.st15{fill:#1C4769;}
	.st16{fill:#0B6695;}
	.st17{fill:#FFFFFF;}
	.st18{fill-rule:evenodd;clip-rule:evenodd;fill:#00A0DB;}
	.st19{fill-rule:evenodd;clip-rule:evenodd;fill:#0782BE;}
	.st20{fill-rule:evenodd;clip-rule:evenodd;fill:#FFFFFF;}
	.st21{fill-rule:evenodd;clip-rule:evenodd;fill:#E86537;}
	.st22{fill-rule:evenodd;clip-rule:evenodd;fill:#034569;}
	.st23{fill-rule:evenodd;clip-rule:evenodd;fill:#DE2A66;}
	.st24{fill-rule:evenodd;clip-rule:evenodd;fill:#057C40;}
	.st25{fill-rule:evenodd;clip-rule:evenodd;fill:#CF9521;}
	.st26{fill-rule:evenodd;clip-rule:evenodd;fill:#B31D42;}
	.st27{fill-rule:evenodd;clip-rule:evenodd;fill:#D9272E;}
	.st28{fill-rule:evenodd;clip-rule:evenodd;fill:#E34538;}
	.st29{fill-rule:evenodd;clip-rule:evenodd;fill:#EF9431;}
	.st30{fill-rule:evenodd;clip-rule:evenodd;fill:#ECB129;}
	.st31{fill-rule:evenodd;clip-rule:evenodd;fill:#F7BC13;}
	.st32{fill-rule:evenodd;clip-rule:evenodd;fill:#19A240;}
	.st33{fill-rule:evenodd;clip-rule:evenodd;fill:#02983B;}
	.st34{fill-rule:evenodd;clip-rule:evenodd;fill:#E13244;}
	.st35{fill-rule:evenodd;clip-rule:evenodd;fill:#066698;}
	.st36{fill-rule:evenodd;clip-rule:evenodd;fill:#008CC4;}
	.st37{fill-rule:evenodd;clip-rule:evenodd;fill:#00A3C6;}
	.st38{fill-rule:evenodd;clip-rule:evenodd;fill:#067FC2;stroke:#067FC2;stroke-width:0.25;stroke-miterlimit:22.9256;}
	.st39{fill:none;stroke:#067FC2;stroke-width:0.25;stroke-miterlimit:22.9256;}
	.st40{fill:none;stroke:#119AD7;stroke-width:0.25;stroke-miterlimit:22.9256;}
	.st41{fill-rule:evenodd;clip-rule:evenodd;fill:#067FC2;}
</style>
<circle class="st2" cx="34.91" cy="34.91" r="34.91"/>
<g>
	<polygon class="st17" points="22.94,18.2 22.96,18.2 22.96,26.78 24.85,26.78 24.85,15.58 23.34,15.58 21.61,17.61 21.61,19.58 
		21.62,19.58 	"/>
	<g>
		<path class="st17" d="M30.47,17.38v0.52H29.3v2.21h-0.57V15h2.03v0.52H29.3v1.86H30.47z"/>
		<path class="st17" d="M31.78,15v5.11h-0.57V15H31.78z"/>
		<path class="st17" d="M32.86,20.11h-0.51V15h0.72l1.18,3.69V15h0.5v5.11h-0.59l-1.31-4.13V20.11z"/>
		<path class="st17" d="M37.67,15c0.8,0,1.16,0.48,1.16,1.27v2.58c0,0.78-0.36,1.26-1.16,1.26h-1.2V15H37.67z M37.67,19.6
			c0.41,0,0.61-0.25,0.61-0.72v-2.63c0-0.47-0.2-0.72-0.61-0.72h-0.61v4.07H37.67z"/>
		<path class="st17" d="M41.18,17.27v0.51h-1.25v1.82h1.53v0.52h-2.1V15h2.1v0.52h-1.53v1.74H41.18z"/>
		<path class="st17" d="M43.13,20.11V15h0.57v4.59h1.46v0.52H43.13z"/>
		<path class="st17" d="M46.16,19.08l-0.2,1.03h-0.53L46.42,15h0.82l0.98,5.11h-0.57l-0.2-1.03H46.16z M46.23,18.6h1.14l-0.58-2.95
			L46.23,18.6z"/>
		<path class="st17" d="M29.84,22.3c0.8,0,1.15,0.47,1.15,1.25v0.61c0,0.81-0.38,1.23-1.19,1.23h-0.5v2.01h-0.57V22.3H29.84z
			 M29.8,24.89c0.42,0,0.63-0.2,0.63-0.69v-0.68c0-0.47-0.17-0.7-0.58-0.7H29.3v2.06H29.8z"/>
		<path class="st17" d="M31.39,23.54c0-0.78,0.39-1.29,1.17-1.29c0.79,0,1.18,0.5,1.18,1.29v2.64c0,0.77-0.39,1.29-1.18,1.29
			c-0.78,0-1.17-0.51-1.17-1.29V23.54z M31.95,26.21c0,0.47,0.2,0.74,0.61,0.74c0.42,0,0.61-0.27,0.61-0.74v-2.7
			c0-0.46-0.19-0.74-0.61-0.74c-0.41,0-0.61,0.28-0.61,0.74V26.21z"/>
		<path class="st17" d="M35.42,22.3c0.8,0,1.11,0.38,1.11,1.13v0.24c0,0.54-0.15,0.88-0.6,1.01c0.5,0.14,0.69,0.53,0.69,1.1v0.43
			c0,0.77-0.37,1.2-1.17,1.2h-1.18V22.3H35.42z M35.28,24.47c0.45,0,0.69-0.14,0.69-0.68v-0.3c0-0.45-0.15-0.67-0.56-0.67h-0.56
			v1.65H35.28z M35.45,26.89c0.42,0,0.61-0.22,0.61-0.69v-0.45c0-0.57-0.23-0.76-0.72-0.76h-0.5v1.91H35.45z"/>
		<path class="st17" d="M38.27,22.3c0.8,0,1.14,0.41,1.14,1.17v0.42c0,0.56-0.2,0.91-0.63,1.05c0.47,0.14,0.64,0.52,0.64,1.07v0.8
			c0,0.23,0.01,0.44,0.1,0.61h-0.58c-0.07-0.15-0.09-0.28-0.09-0.62v-0.8c0-0.58-0.27-0.76-0.74-0.76h-0.4v2.18h-0.57V22.3H38.27z
			 M38.13,24.71c0.45,0,0.72-0.15,0.72-0.7v-0.49c0-0.46-0.17-0.7-0.59-0.7H37.7v1.89H38.13z"/>
		<path class="st17" d="M41.83,24.57v0.51h-1.25v1.82h1.53v0.52h-2.1V22.3h2.1v0.52h-1.53v1.74H41.83z"/>
		<path class="st17" d="M44.88,27.41h-2.32V26.9l1.75-4.08h-1.67V22.3h2.25v0.51l-1.76,4.08h1.74V27.41z"/>
		<path class="st17" d="M45.98,26.38l-0.2,1.03h-0.53l0.98-5.11h0.82l0.98,5.11h-0.57l-0.2-1.03H45.98z M46.05,25.89h1.14
			l-0.58-2.95L46.05,25.89z"/>
	</g>
</g>
<g>
	<g>
		<path class="st17" d="M48.86,43.59c0-0.75,0.6-1.35,1.35-1.35c0.74,0,1.35,0.6,1.35,1.35c0,0.75-0.6,1.35-1.35,1.35
			C49.46,44.94,48.86,44.34,48.86,43.59"/>
	</g>
	<g>
		<path class="st17" d="M51.78,45.46c0.92,0.08,1.63,0.85,1.63,1.79v0.45v0.2V51c0,0.29-0.24,0.52-0.52,0.52
			c-0.29,0-0.52-0.24-0.52-0.52v-3.21c0-0.12-0.04-0.28-0.25-0.28c-0.15,0-0.18,0.16-0.19,0.26v9.63c0,0.41-0.33,0.75-0.75,0.75
			c-0.42,0-0.75-0.34-0.75-0.75v-5.55c0-0.06-0.02-0.22-0.21-0.22h0c-0.19,0-0.21,0.16-0.22,0.22v5.55c0,0.41-0.33,0.75-0.75,0.75
			c-0.42,0-0.75-0.34-0.75-0.75v-9.63c0-0.1-0.04-0.26-0.19-0.26c-0.22,0-0.25,0.16-0.25,0.28V51c0,0.29-0.23,0.52-0.52,0.52
			C47.23,51.52,47,51.29,47,51v-3.1v-0.2v-0.45c0-0.94,0.72-1.71,1.63-1.79c0.03,0,0.06-0.01,0.1-0.01h1.48h1.47
			C51.72,45.46,51.75,45.46,51.78,45.46"/>
	</g>
	<g>
		<path class="st17" d="M40.83,44.3c0-0.71-0.57-1.28-1.28-1.28c-0.71,0-1.28,0.57-1.28,1.28c0,0.71,0.57,1.28,1.28,1.28
			C40.26,45.58,40.83,45.01,40.83,44.3"/>
	</g>
	<g>
		<path class="st17" d="M36.98,47.2l-1.06,3.46c0,0-0.19,0.63,0.35,0.79c0.54,0.16,0.7-0.46,0.7-0.46l0.86-2.89
			c0,0,0.05-0.22,0.21-0.17c0.17,0.05,0.1,0.29,0.1,0.29l-1.49,5.41h1.39v3.87c0,0.37,0.3,0.67,0.67,0.67c0.37,0,0.67-0.3,0.67-0.67
			v-3.87h0.19h0.19v3.87c0,0.37,0.3,0.67,0.67,0.67c0.37,0,0.67-0.3,0.67-0.67v-3.87h1.39l-1.49-5.41c0,0-0.06-0.24,0.1-0.29
			c0.17-0.05,0.21,0.17,0.21,0.17l0.86,2.89c0,0,0.16,0.62,0.7,0.46c0.54-0.16,0.35-0.79,0.35-0.79l-1.06-3.46c0,0-0.38-1-1.22-1
			h-1.35H38.2C37.36,46.2,36.98,47.2,36.98,47.2"/>
	</g>
	<g>
		<path class="st17" d="M33.18,44.3c0-0.71-0.57-1.28-1.28-1.28c-0.71,0-1.28,0.57-1.28,1.28c0,0.71,0.57,1.28,1.28,1.28
			C32.6,45.58,33.18,45.01,33.18,44.3"/>
	</g>
	<g>
		<path class="st17" d="M29.32,47.2l-1.06,3.46c0,0-0.19,0.63,0.35,0.79c0.54,0.16,0.7-0.46,0.7-0.46l0.86-2.89
			c0,0,0.05-0.22,0.21-0.17c0.17,0.05,0.1,0.29,0.1,0.29l-1.49,5.41h1.39v3.87c0,0.37,0.3,0.67,0.67,0.67c0.37,0,0.66-0.3,0.66-0.67
			v-3.87h0.19h0.19v3.87c0,0.37,0.3,0.67,0.67,0.67c0.37,0,0.67-0.3,0.67-0.67v-3.87h1.39l-1.49-5.41c0,0-0.06-0.24,0.1-0.29
			c0.17-0.05,0.21,0.17,0.21,0.17l0.86,2.89c0,0,0.16,0.62,0.7,0.46c0.54-0.16,0.35-0.79,0.35-0.79l-1.06-3.46c0,0-0.38-1-1.22-1
			H31.9h-1.36C29.71,46.2,29.32,47.2,29.32,47.2"/>
	</g>
	<g>
		<path class="st17" d="M45.12,51.45c0.59,0,1.06-0.48,1.06-1.06c0-0.59-0.48-1.06-1.06-1.06c-0.59,0-1.06,0.47-1.06,1.06
			C44.06,50.98,44.53,51.45,45.12,51.45"/>
	</g>
	<g>
		<path class="st17" d="M42.57,54.76c-0.05,0.12-0.09,0.39,0.15,0.5c0.29,0.14,0.46-0.15,0.46-0.15l0.58-1.84c0,0,0.1-0.12,0.1,0
			v4.34h0c0,0.3,0.24,0.54,0.54,0.54c0.3,0,0.55-0.24,0.55-0.54V55.9c0,0-0.03-0.24,0.16-0.24c0.2,0,0.17,0.24,0.17,0.24v1.71
			c0,0.3,0.25,0.54,0.55,0.54c0.3,0,0.55-0.24,0.55-0.54v-4.34c0-0.13,0.07-0.04,0.07-0.04l0.45,1.26c0,0,0.2,0.56,0.26,0.59
			c0.21,0.09,0.44-0.01,0.53-0.22c0.06-0.13,0.04-0.28-0.04-0.39l0,0c-0.01-0.04-0.68-1.67-0.75-1.9c-0.24-0.7-0.68-0.69-1.1-0.71
			c-0.42-0.01-0.67,0-0.67,0s-0.27-0.01-0.82,0.01c-0.55,0.02-0.73,0.3-1.34,1.88C42.87,53.98,42.57,54.71,42.57,54.76L42.57,54.76z
			"/>
	</g>
	<g>
		<path class="st17" d="M21.76,43.59c0-0.75-0.61-1.35-1.35-1.35c-0.75,0-1.35,0.6-1.35,1.35c0,0.75,0.6,1.35,1.35,1.35
			C21.16,44.94,21.76,44.34,21.76,43.59"/>
	</g>
	<g>
		<path class="st17" d="M18.84,45.46c-0.92,0.08-1.63,0.85-1.63,1.79v0.45v0.2V51c0,0.29,0.24,0.52,0.52,0.52
			c0.29,0,0.52-0.24,0.52-0.52v-3.21c0-0.12,0.04-0.28,0.25-0.28c0.15,0,0.18,0.16,0.19,0.26v9.63c0,0.41,0.33,0.75,0.75,0.75
			c0.42,0,0.75-0.34,0.75-0.75v-5.55c0-0.06,0.02-0.22,0.21-0.22l0,0c0.19,0,0.21,0.16,0.22,0.22v5.55c0,0.41,0.34,0.75,0.75,0.75
			c0.42,0,0.75-0.34,0.75-0.75v-9.63c0-0.1,0.04-0.26,0.19-0.26c0.22,0,0.25,0.16,0.25,0.28V51c0,0.29,0.23,0.52,0.52,0.52
			c0.29,0,0.52-0.24,0.52-0.52v-3.1v-0.2v-0.45c0-0.94-0.72-1.71-1.64-1.79c-0.03,0-0.06-0.01-0.1-0.01h-1.48h-1.47
			C18.9,45.46,18.87,45.46,18.84,45.46"/>
	</g>
	<g>
		<path class="st17" d="M16.46,57.95C16.46,57.95,16.46,57.95,16.46,57.95c-0.04-0.01-0.06-0.03-0.05-0.06l1.2-6.35
			c0-0.03,0.03-0.05,0.06-0.04c0.03,0,0.05,0.03,0.04,0.06l-1.2,6.35C16.51,57.93,16.49,57.95,16.46,57.95z"/>
	</g>
	<g>
		<path class="st17" d="M24.26,50.9c-0.07-0.11-0.19-0.18-0.33-0.18c-0.21,0-0.39,0.17-0.39,0.39c0,0.06,0.04,0.17,0.04,0.17
			l1.07,1.94c0,0,0.07,0.13,0.07,0.26v4.17h0c0,0.29,0.23,0.52,0.52,0.52c0.29,0,0.52-0.23,0.52-0.52v-1.65c0,0-0.03-0.23,0.16-0.23
			c0.19,0,0.16,0.23,0.16,0.23v1.65c0,0.29,0.24,0.52,0.53,0.52c0.29,0,0.52-0.23,0.52-0.52v-4.17c0-0.12,0.07-0.26,0.07-0.26
			l0.99-1.79c0,0,0.12-0.26,0.12-0.32c0-0.21-0.17-0.39-0.39-0.39c-0.14,0-0.26,0.07-0.33,0.18l0,0c-0.03,0.03-0.53,0.91-0.69,1.07
			c-0.17,0.17-0.33,0.16-0.33,0.16h-0.64h-0.64c0,0-0.16,0.02-0.33-0.16C24.79,51.81,24.3,50.92,24.26,50.9L24.26,50.9z"/>
	</g>
	<g>
		<path class="st17" d="M25.93,51.45c0.59,0,1.06-0.48,1.06-1.06c0-0.59-0.47-1.06-1.06-1.06s-1.06,0.47-1.06,1.06
			C24.87,50.98,25.35,51.45,25.93,51.45"/>
	</g>
	<g>
		<polygon class="st17" points="25.93,52.95 27.14,53.83 27.71,55.93 25.93,55.93 24.16,55.93 24.73,53.83 		"/>
	</g>
</g>
</svg>
