<?xml version="1.0" encoding="utf-8"?>
<!-- Generator: Adobe Illustrator 24.0.2, SVG Export Plug-In . SVG Version: 6.00 Build 0)  -->
<svg version="1.1" id="Capa_1" xmlns="http://www.w3.org/2000/svg" xmlns:xlink="http://www.w3.org/1999/xlink" x="0px" y="0px"
	 viewBox="0 0 69.82 69.82" style="enable-background:new 0 0 69.82 69.82;" xml:space="preserve">
<style type="text/css">
	.st0{fill:#D3A13C;}
	.st1{fill:#4D9748;}
	.st2{fill:#D32E3C;}
	.st3{fill:#E0432F;}
	.st4{fill:#2DAFD2;}
	.st5{fill:#B8252F;}
	.st6{fill:#9A2142;}
	.st7{fill:#E46831;}
	.st8{fill:#EEBB27;}
	.st9{fill:#EE9830;}
	.st10{fill:#B6872F;}
	.st11{fill:#CE2364;}
	.st12{fill:#268BC3;}
	.st13{fill:#5DAE49;}
	.st14{fill:#427D44;}
	.st15{fill:#1C4769;}
	.st16{fill:#0B6695;}
	.st17{fill:#FFFFFF;}
	.st18{fill-rule:evenodd;clip-rule:evenodd;fill:#00A0DB;}
	.st19{fill-rule:evenodd;clip-rule:evenodd;fill:#0782BE;}
	.st20{fill-rule:evenodd;clip-rule:evenodd;fill:#FFFFFF;}
	.st21{fill-rule:evenodd;clip-rule:evenodd;fill:#E86537;}
	.st22{fill-rule:evenodd;clip-rule:evenodd;fill:#034569;}
	.st23{fill-rule:evenodd;clip-rule:evenodd;fill:#DE2A66;}
	.st24{fill-rule:evenodd;clip-rule:evenodd;fill:#057C40;}
	.st25{fill-rule:evenodd;clip-rule:evenodd;fill:#CF9521;}
	.st26{fill-rule:evenodd;clip-rule:evenodd;fill:#B31D42;}
	.st27{fill-rule:evenodd;clip-rule:evenodd;fill:#D9272E;}
	.st28{fill-rule:evenodd;clip-rule:evenodd;fill:#E34538;}
	.st29{fill-rule:evenodd;clip-rule:evenodd;fill:#EF9431;}
	.st30{fill-rule:evenodd;clip-rule:evenodd;fill:#ECB129;}
	.st31{fill-rule:evenodd;clip-rule:evenodd;fill:#F7BC13;}
	.st32{fill-rule:evenodd;clip-rule:evenodd;fill:#19A240;}
	.st33{fill-rule:evenodd;clip-rule:evenodd;fill:#02983B;}
	.st34{fill-rule:evenodd;clip-rule:evenodd;fill:#E13244;}
	.st35{fill-rule:evenodd;clip-rule:evenodd;fill:#066698;}
	.st36{fill-rule:evenodd;clip-rule:evenodd;fill:#008CC4;}
	.st37{fill-rule:evenodd;clip-rule:evenodd;fill:#00A3C6;}
	.st38{fill-rule:evenodd;clip-rule:evenodd;fill:#067FC2;stroke:#067FC2;stroke-width:0.25;stroke-miterlimit:22.9256;}
	.st39{fill:none;stroke:#067FC2;stroke-width:0.25;stroke-miterlimit:22.9256;}
	.st40{fill:none;stroke:#119AD7;stroke-width:0.25;stroke-miterlimit:22.9256;}
	.st41{fill-rule:evenodd;clip-rule:evenodd;fill:#067FC2;}
</style>
<circle class="st5" cx="34.91" cy="34.91" r="34.91"/>
<g>
	<path class="st17" d="M22.33,26.76h1.78v-1.82h0.76v-1.47h-0.76v-7.92h-1.85L19,23.79v1.16h3.32V26.76z M20.66,23.47l1.69-4.61
		h0.02v4.61H20.66z"/>
	<g>
		<path class="st17" d="M29.85,17.9v0.47H28.7v1.68h1.42v0.48h-1.95V15.8h1.95v0.48H28.7v1.62H29.85z"/>
		<path class="st17" d="M31.71,15.8c0.74,0,1.08,0.45,1.08,1.18v2.39c0,0.72-0.34,1.17-1.08,1.17H30.6V15.8H31.71z M31.71,20.06
			c0.38,0,0.56-0.24,0.56-0.67v-2.44c0-0.43-0.18-0.67-0.57-0.67h-0.57v3.78H31.71z"/>
		<path class="st17" d="M33.78,19.42c0,0.43,0.17,0.68,0.55,0.68c0.38,0,0.55-0.26,0.55-0.68V15.8h0.49v3.59
			c0,0.72-0.33,1.2-1.06,1.2c-0.72,0-1.06-0.48-1.06-1.2V15.8h0.52V19.42z"/>
		<path class="st17" d="M37.99,16.94v0.43h-0.5v-0.45c0-0.43-0.17-0.68-0.55-0.68c-0.38,0-0.55,0.26-0.55,0.68v2.5
			c0,0.43,0.18,0.68,0.55,0.68c0.39,0,0.55-0.26,0.55-0.68V18.8h0.5v0.59c0,0.72-0.34,1.19-1.07,1.19c-0.72,0-1.06-0.47-1.06-1.19
			v-2.45c0-0.72,0.34-1.19,1.06-1.19C37.65,15.75,37.99,16.23,37.99,16.94z"/>
		<path class="st17" d="M39.01,19.58l-0.18,0.95h-0.49l0.91-4.74h0.76l0.91,4.74h-0.53l-0.18-0.95H39.01z M39.08,19.13h1.06
			L39.6,16.4L39.08,19.13z"/>
		<path class="st17" d="M43.41,16.94v0.43h-0.5v-0.45c0-0.43-0.17-0.68-0.55-0.68c-0.38,0-0.55,0.26-0.55,0.68v2.5
			c0,0.43,0.18,0.68,0.55,0.68c0.39,0,0.55-0.26,0.55-0.68V18.8h0.5v0.59c0,0.72-0.34,1.19-1.07,1.19c-0.72,0-1.06-0.47-1.06-1.19
			v-2.45c0-0.72,0.34-1.19,1.06-1.19C43.07,15.75,43.41,16.23,43.41,16.94z"/>
		<path class="st17" d="M44.42,15.8v4.74h-0.53V15.8H44.42z"/>
		<path class="st17" d="M47.09,16.94v2.45c0,0.72-0.36,1.19-1.09,1.19c-0.72,0-1.08-0.47-1.08-1.19v-2.45
			c0-0.72,0.36-1.19,1.08-1.19C46.73,15.75,47.09,16.22,47.09,16.94z M45.44,16.92v2.5c0,0.43,0.18,0.68,0.56,0.68
			c0.39,0,0.56-0.25,0.56-0.68v-2.5c0-0.43-0.18-0.68-0.56-0.68C45.63,16.23,45.44,16.49,45.44,16.92z M46.67,14.82l-0.63,0.7h-0.36
			l0.47-0.7H46.67z"/>
		<path class="st17" d="M48.06,20.54h-0.47V15.8h0.67l1.1,3.42V15.8h0.47v4.74h-0.55l-1.21-3.83V20.54z"/>
		<path class="st17" d="M29.28,22.57c0.74,0,1.08,0.45,1.08,1.18v2.39c0,0.72-0.34,1.17-1.08,1.17h-1.11v-4.74H29.28z M29.27,26.82
			c0.38,0,0.56-0.24,0.56-0.67v-2.44c0-0.43-0.18-0.67-0.57-0.67H28.7v3.78H29.27z"/>
		<path class="st17" d="M32.53,24.66v0.47h-1.16v1.69h1.42v0.48h-1.95v-4.74h1.95v0.48h-1.42v1.62H32.53z"/>
		<path class="st17" d="M36.42,23.71v0.43h-0.5v-0.45c0-0.43-0.17-0.68-0.55-0.68c-0.38,0-0.55,0.26-0.55,0.68v2.5
			c0,0.43,0.18,0.68,0.55,0.68c0.39,0,0.55-0.26,0.55-0.68v-0.62h0.5v0.59c0,0.72-0.34,1.19-1.07,1.19c-0.72,0-1.06-0.47-1.06-1.19
			v-2.45c0-0.72,0.34-1.19,1.06-1.19C36.08,22.52,36.42,22.99,36.42,23.71z"/>
		<path class="st17" d="M37.44,26.35l-0.18,0.95h-0.49l0.91-4.74h0.76l0.91,4.74h-0.53l-0.18-0.95H37.44z M37.51,25.89h1.06
			l-0.53-2.73L37.51,25.89z"/>
		<path class="st17" d="M39.76,27.3v-4.74h0.53v4.26h1.35v0.48H39.76z"/>
		<path class="st17" d="M42.57,22.57v4.74h-0.53v-4.74H42.57z"/>
		<path class="st17" d="M44.22,22.57c0.74,0,1.08,0.45,1.08,1.18v2.39c0,0.72-0.34,1.17-1.08,1.17h-1.11v-4.74H44.22z M44.21,26.82
			c0.38,0,0.56-0.24,0.56-0.67v-2.44c0-0.43-0.18-0.67-0.57-0.67h-0.57v3.78H44.21z"/>
		<path class="st17" d="M46.32,26.35l-0.18,0.95h-0.49l0.91-4.74h0.76l0.91,4.74H47.7l-0.18-0.95H46.32z M46.38,25.89h1.06
			l-0.53-2.73L46.38,25.89z"/>
		<path class="st17" d="M49.75,22.57c0.74,0,1.07,0.45,1.07,1.18v2.39c0,0.72-0.34,1.17-1.07,1.17h-1.11v-4.74H49.75z M49.74,26.82
			c0.38,0,0.56-0.24,0.56-0.67v-2.44c0-0.43-0.18-0.67-0.57-0.67h-0.57v3.78H49.74z"/>
	</g>
</g>
<g>
	<polygon class="st17" points="31.91,43.34 23.16,38.29 23.16,54.62 31.91,57.26 	"/>
	<polygon class="st17" points="32.87,43.37 32.87,57.26 41.67,54.62 41.67,38.29 	"/>
	<g>
		<path class="st17" d="M48.53,37.87c0-0.57-0.46-1.04-1.03-1.04c-0.57,0-1.04,0.46-1.04,1.04v1.12h2.07V37.87z"/>
	</g>
	<g>
		<polygon class="st17" points="46.72,54.33 46.46,54.33 47.5,57.94 48.53,54.33 48.27,54.33 48.53,54.33 48.53,39.8 48.27,39.8 
			48.02,39.8 47.74,39.8 47.23,39.8 46.97,39.8 46.72,39.8 46.46,39.8 46.46,54.33 		"/>
	</g>
	<g>
		<polygon class="st17" points="43.54,38.99 42.61,38.25 42.61,55.06 32.89,58.2 32.44,58.2 32.35,58.2 31.91,58.2 22.23,55.5 
			22.23,38.25 21.3,38.99 21.3,56.16 31.86,59.08 32.35,59.08 32.44,59.08 32.94,59.08 42.68,55.99 43.54,55.73 		"/>
	</g>
</g>
</svg>
