<?xml version="1.0" standalone="no"?>
<!DOCTYPE svg PUBLIC "-//W3C//DTD SVG 20010904//EN"
 "http://www.w3.org/TR/2001/REC-SVG-20010904/DTD/svg10.dtd">
<svg version="1.0" xmlns="http://www.w3.org/2000/svg"
 width="1072.000000pt" height="467.000000pt" viewBox="0 0 1072.000000 467.000000"
 preserveAspectRatio="xMidYMid meet">
<metadata>
Created by potrace 1.16, written by Peter Selinger 2001-2019
</metadata>
<g transform="translate(0.000000,467.000000) scale(0.100000,-0.100000)"
fill="#000000" stroke="none">
<path d="M1675 3754 c-365 -56 -621 -179 -855 -414 -203 -202 -331 -439 -392
-723 -31 -146 -31 -418 0 -563 61 -287 187 -523 384 -722 200 -203 449 -340
728 -399 123 -26 460 -26 580 1 424 93 791 372 979 744 171 339 204 732 89
1091 -155 489 -559 853 -1066 962 -94 20 -372 34 -447 23z m815 -629 c0 -25
-43 -220 -50 -228 -4 -4 -20 3 -37 17 l-29 25 -280 -280 c-153 -153 -283 -279
-289 -279 -6 0 -60 50 -120 110 -60 61 -114 110 -120 110 -5 0 -92 -82 -193
-182 l-183 -183 -36 39 -35 38 218 219 c120 121 223 219 229 219 5 0 60 -51
122 -112 l113 -113 247 247 247 247 -22 24 c-28 30 -28 45 1 52 12 3 58 14
102 24 100 24 115 25 115 6z m-102 -881 l-3 -549 -165 0 -165 0 -3 406 -2 406
161 153 c98 93 164 149 170 143 5 -5 8 -233 7 -559z m-830 -164 c2 -263 -1
-366 -9 -377 -9 -11 -44 -13 -168 -11 l-156 3 -3 227 -2 226 107 104 c171 166
207 198 218 194 6 -2 11 -135 13 -366z m410 -32 l-3 -353 -160 0 -160 0 -3
348 c-2 271 0 347 10 347 7 0 44 -32 83 -70 l71 -71 71 76 c39 41 76 75 82 75
8 0 11 -94 9 -352z"/>
<path d="M7050 3462 c-66 -33 -75 -63 -78 -272 -4 -225 0 -260 39 -305 77 -87
249 -54 279 54 5 20 10 122 10 226 0 178 -2 194 -22 235 -28 55 -73 80 -143
80 -28 0 -65 -8 -85 -18z m118 -94 c9 -9 12 -69 12 -209 0 -166 -2 -200 -16
-213 -8 -9 -22 -16 -29 -16 -7 0 -21 7 -29 16 -14 13 -16 47 -16 213 0 207 3
221 45 221 12 0 26 -5 33 -12z"/>
<path d="M8183 3460 c-60 -36 -68 -64 -71 -270 -4 -211 5 -274 46 -313 53 -51
176 -54 228 -6 31 29 44 77 44 167 l0 72 -55 0 -55 0 0 -74 c0 -76 -13 -106
-45 -106 -7 0 -21 7 -29 16 -14 13 -16 47 -16 213 0 207 3 221 45 221 34 0 45
-20 45 -82 l0 -58 56 0 57 0 -6 79 c-6 91 -16 115 -60 141 -44 27 -140 27
-184 0z"/>
<path d="M4850 3425 l0 -45 40 0 40 0 0 -270 0 -270 60 0 60 0 0 270 0 270 45
0 45 0 0 45 0 45 -145 0 -145 0 0 -45z"/>
<path d="M5170 3155 l0 -315 60 0 60 0 1 123 0 122 43 -120 42 -120 62 -3 c34
-2 62 -2 62 0 0 2 -22 66 -50 143 -27 77 -50 141 -50 142 0 2 6 3 13 3 8 0 24
12 38 26 22 23 24 36 27 127 3 89 0 106 -18 135 -27 44 -54 52 -181 52 l-109
0 0 -315z"/>
<path d="M5625 3458 c-4 -13 -115 -604 -115 -613 0 -3 24 -5 54 -5 l54 0 7 43
c12 77 12 77 65 77 l48 0 7 -42 c12 -80 10 -78 76 -78 53 0 60 2 55 18 -5 18
-116 596 -116 606 0 12 -131 6 -135 -6z"/>
<path d="M5910 3155 l0 -315 98 0 c169 0 205 23 217 134 9 82 -1 140 -30 174
l-23 26 20 27 c17 23 20 39 17 119 -4 89 -5 92 -37 121 -32 28 -34 29 -147 29
l-115 0 0 -315z m188 -47 c7 -7 12 -40 12 -78 0 -75 -10 -90 -57 -90 l-33 0 0
90 0 90 33 0 c18 0 38 -5 45 -12z"/>
<path d="M6360 3462 c0 -5 -25 -139 -55 -298 -30 -159 -55 -297 -55 -306 0
-15 9 -18 54 -18 l54 0 7 60 7 60 53 0 53 0 7 -60 7 -60 59 0 c50 0 59 3 58
18 0 9 -26 150 -57 312 l-57 295 -68 3 c-37 2 -67 -1 -67 -6z"/>
<path d="M6810 3217 c0 -205 -3 -257 -14 -273 -12 -15 -18 -17 -33 -8 -15 9
-19 27 -21 93 l-3 81 -54 0 -55 0 0 -85 c0 -143 32 -187 137 -187 74 0 108 13
133 54 19 31 20 51 20 306 l0 272 -55 0 -55 0 0 -253z"/>
<path d="M7440 3154 l0 -316 118 3 c131 4 158 14 189 72 16 28 18 60 18 247 0
301 -6 310 -210 310 l-115 0 0 -316z m194 210 c13 -13 16 -46 16 -208 0 -136
-3 -195 -12 -204 -7 -7 -27 -12 -45 -12 l-33 0 0 220 0 220 29 0 c16 0 37 -7
45 -16z"/>
<path d="M7820 3155 l0 -315 130 0 130 0 0 50 0 50 -75 0 -75 0 0 90 0 90 55
0 55 0 0 45 0 45 -55 0 -55 0 0 85 0 85 75 0 75 0 0 45 0 45 -130 0 -130 0 0
-315z"/>
<path d="M8470 3155 l0 -315 130 0 130 0 0 50 0 50 -70 0 -70 0 0 90 0 90 50
0 50 0 0 45 0 45 -50 0 -50 0 0 85 0 85 70 0 70 0 0 45 0 45 -130 0 -130 0 0
-315z"/>
<path d="M8780 3155 l0 -315 50 0 50 0 1 173 c0 110 4 163 9 147 5 -14 30 -91
55 -172 l46 -148 50 0 49 0 0 315 0 315 -45 0 -45 0 -2 -162 -3 -162 -50 162
-50 162 -57 0 -58 0 0 -315z"/>
<path d="M9130 3425 l0 -45 45 0 45 0 0 -270 0 -270 55 0 55 0 0 270 0 270 45
0 45 0 0 45 0 45 -145 0 -145 0 0 -45z"/>
<path d="M9460 3155 l0 -315 130 0 130 0 0 50 0 50 -75 0 -75 0 0 90 0 90 50
0 50 0 0 45 0 45 -50 0 -50 0 0 85 0 85 75 0 75 0 0 45 0 45 -130 0 -130 0 0
-315z"/>
<path d="M3940 3124 c-120 -23 -204 -87 -241 -183 -16 -42 -23 -85 -27 -172
-6 -150 10 -210 73 -276 25 -26 44 -47 42 -48 -38 -18 -82 -67 -109 -122 l-33
-68 0 -190 c0 -216 12 -268 80 -350 70 -87 216 -129 365 -107 136 19 214 74
267 187 27 58 28 67 31 247 3 158 1 197 -14 243 -18 58 -80 139 -115 150 -18
6 -16 11 24 45 26 24 53 60 67 91 20 47 21 64 18 193 -4 117 -8 149 -25 188
-49 108 -150 166 -298 173 -44 2 -91 1 -105 -1z m130 -217 c43 -21 60 -71 60
-172 0 -117 -22 -169 -74 -184 -53 -14 -102 2 -123 42 -24 43 -26 227 -3 272
25 50 87 69 140 42z m22 -586 l33 -29 0 -207 0 -207 -33 -29 c-26 -23 -42 -29
-78 -29 -60 0 -99 37 -109 102 -11 76 -1 339 15 371 31 62 118 76 172 28z"/>
<path d="M5420 2649 c-90 -27 -100 -59 -100 -321 0 -195 2 -216 20 -246 29
-47 76 -72 135 -72 111 0 155 53 155 188 l0 82 -50 0 -50 0 -1 -57 c-1 -87
-10 -107 -44 -111 -51 -6 -55 12 -55 218 0 154 3 189 16 208 35 50 84 6 84
-75 l0 -43 50 0 50 0 0 65 c0 81 -19 129 -59 150 -40 20 -108 27 -151 14z"/>
<path d="M6430 2649 c-90 -27 -100 -59 -100 -321 0 -195 2 -216 20 -246 29
-47 76 -72 135 -72 111 0 155 53 155 188 l0 82 -50 0 -50 0 -1 -57 c-1 -87
-10 -107 -44 -111 -51 -6 -55 12 -55 218 0 154 3 189 16 208 35 50 84 6 84
-75 l0 -43 50 0 50 0 0 65 c0 81 -19 129 -59 150 -40 20 -108 27 -151 14z"/>
<path d="M8527 2646 c-51 -19 -63 -31 -82 -80 -14 -36 -16 -77 -13 -254 3
-194 5 -213 24 -239 29 -39 80 -63 137 -63 64 0 111 23 139 69 22 34 23 45 23
251 0 197 -2 218 -20 249 -11 19 -31 42 -45 52 -34 25 -116 33 -163 15z m97
-102 c14 -13 16 -47 16 -213 0 -213 -3 -226 -52 -219 -42 6 -49 38 -46 236 3
169 5 185 22 198 25 18 41 18 60 -2z"/>
<path d="M4844 2633 c3 -10 30 -101 61 -201 53 -177 55 -188 55 -298 l0 -114
55 0 55 0 0 112 c0 107 3 120 56 297 30 102 57 194 60 204 5 16 0 18 -52 15
l-58 -3 -25 -97 c-13 -54 -28 -98 -32 -98 -3 0 -12 21 -18 48 -7 26 -18 71
-27 100 l-15 52 -60 0 c-53 0 -60 -2 -55 -17z"/>
<path d="M5680 2335 l0 -315 55 0 54 0 3 123 3 122 41 -120 41 -120 61 -3 c34
-2 62 -1 62 2 0 2 -21 63 -46 135 l-46 130 36 34 36 34 0 102 c0 166 -26 191
-200 191 l-100 0 0 -315z"/>
<path d="M6030 2335 l0 -315 130 0 130 0 0 45 0 45 -70 0 -70 0 0 90 0 90 50
0 50 0 0 50 0 50 -50 0 -50 0 0 80 0 80 70 0 70 0 0 50 0 50 -130 0 -130 0 0
-315z"/>
<path d="M6690 2335 l0 -315 55 0 55 0 0 315 0 315 -55 0 -55 0 0 -315z"/>
<path d="M6850 2335 l0 -315 50 0 50 0 1 168 1 167 29 -145 c40 -204 35 -190
68 -190 28 0 29 1 45 93 9 50 23 126 30 167 l14 75 1 -167 1 -168 55 0 55 0 0
315 0 315 -74 0 -73 0 -23 -142 c-13 -79 -26 -149 -30 -156 -3 -7 -19 57 -35
142 l-29 156 -68 0 -68 0 0 -315z"/>
<path d="M7300 2335 l0 -315 55 0 55 0 0 315 0 315 -55 0 -55 0 0 -315z"/>
<path d="M7460 2335 l0 -315 130 0 130 0 0 45 0 45 -70 0 -70 0 0 90 0 90 50
0 50 0 0 50 0 50 -50 0 -50 0 0 80 0 80 70 0 70 0 0 50 0 50 -130 0 -130 0 0
-315z"/>
<path d="M7770 2335 l0 -315 45 0 45 0 2 178 3 177 55 -177 55 -178 53 0 52 0
0 315 0 315 -50 0 -50 0 -1 -152 -1 -153 -50 153 -49 152 -55 0 -54 0 0 -315z"/>
<path d="M8120 2600 l0 -50 40 0 40 0 0 -265 0 -265 60 0 60 0 0 265 0 265 40
0 40 0 0 50 0 50 -140 0 -140 0 0 -50z"/>
<path d="M5231 1812 c-65 -35 -71 -59 -71 -307 0 -200 2 -223 20 -252 30 -51
65 -68 136 -68 111 0 154 54 154 193 l0 82 -55 0 -55 0 0 -78 c0 -80 -9 -102
-40 -102 -9 0 -24 8 -33 18 -15 16 -17 46 -17 206 0 110 4 195 10 207 12 21
50 25 68 7 7 -7 12 -38 12 -70 l0 -58 55 0 55 0 0 68 c0 83 -21 130 -70 154
-46 23 -126 23 -169 0z"/>
<path d="M5592 1811 c-18 -12 -41 -35 -52 -53 -19 -31 -20 -47 -18 -260 3
-212 4 -228 24 -255 29 -40 70 -57 134 -57 68 -1 118 26 142 74 15 30 18 65
18 245 0 231 -6 257 -63 299 -41 30 -141 34 -185 7z m118 -91 c23 -14 28 -381
5 -416 -19 -30 -49 -31 -69 -2 -13 18 -16 56 -16 206 0 107 4 191 10 203 11
20 45 25 70 9z"/>
<path d="M6331 1812 c-19 -10 -44 -36 -55 -58 -19 -36 -21 -57 -21 -249 0
-192 2 -213 20 -244 33 -57 66 -74 137 -75 82 0 123 21 149 77 16 37 19 67 19
247 0 225 -6 252 -63 294 -40 29 -140 34 -186 8z m123 -104 c21 -29 23 -358 3
-398 -16 -31 -43 -37 -68 -14 -17 16 -19 32 -19 206 0 111 4 197 10 209 14 26
55 24 74 -3z"/>
<path d="M7321 1813 c-19 -10 -44 -31 -55 -46 -20 -27 -21 -42 -21 -260 0
-211 2 -234 19 -260 28 -41 73 -61 136 -61 113 0 150 46 150 189 l0 85 -50 0
-50 0 0 -68 c0 -77 -18 -115 -53 -110 -39 6 -47 41 -47 228 0 192 7 220 55
220 32 0 45 -27 45 -89 l0 -51 51 0 51 0 -3 85 c-4 80 -6 86 -36 117 -28 28
-40 32 -95 36 -47 2 -72 -2 -97 -15z"/>
<path d="M7681 1812 c-72 -36 -76 -48 -79 -288 -3 -195 -1 -218 17 -258 26
-59 66 -80 149 -80 71 1 104 18 137 75 18 31 20 52 20 249 0 206 -1 217 -23
251 -12 20 -38 44 -56 53 -45 21 -122 20 -165 -2z m119 -101 c6 -12 10 -98 10
-210 0 -162 -2 -192 -16 -206 -23 -22 -56 -15 -71 15 -19 36 -14 380 6 403 18
23 58 21 71 -2z"/>
<path d="M4860 1505 l0 -315 130 0 130 0 0 50 0 50 -75 0 -75 0 0 90 0 90 55
0 55 0 0 45 0 45 -55 0 -55 0 0 85 0 85 75 0 75 0 0 45 0 45 -130 0 -130 0 0
-315z"/>
<path d="M5890 1505 l0 -315 50 0 50 0 0 178 1 177 56 -177 56 -178 54 0 53 0
0 315 0 315 -50 0 -50 0 -1 -157 -1 -158 -51 158 -51 157 -58 0 -58 0 0 -315z"/>
<path d="M6630 1505 l0 -315 50 0 50 0 1 163 1 162 32 -160 31 -160 30 -3 30
-3 32 173 31 173 1 -172 1 -173 50 0 50 0 0 315 0 315 -69 0 -68 0 -16 -87
c-9 -49 -22 -122 -29 -163 l-12 -75 -30 160 -31 160 -68 3 -67 3 0 -316z"/>
<path d="M7070 1505 l0 -315 60 0 60 0 0 315 0 315 -60 0 -60 0 0 -315z"/>
</g>
</svg>
