<?xml version="1.0" standalone="no"?>
<!DOCTYPE svg PUBLIC "-//W3C//DTD SVG 20010904//EN"
 "http://www.w3.org/TR/2001/REC-SVG-20010904/DTD/svg10.dtd">
<svg version="1.0" xmlns="http://www.w3.org/2000/svg"
 width="1072.000000pt" height="467.000000pt" viewBox="0 0 1072.000000 467.000000"
 preserveAspectRatio="xMidYMid meet">
<metadata>
Created by potrace 1.16, written by Peter Selinger 2001-2019
</metadata>
<g transform="translate(0.000000,467.000000) scale(0.100000,-0.100000)"
fill="#000000" stroke="none">
<path d="M3903 3099 c-114 -20 -195 -83 -228 -178 -11 -30 -19 -94 -22 -188
l-6 -143 122 0 121 0 0 109 c0 158 16 191 94 191 73 0 93 -57 83 -238 -4 -74
-12 -115 -26 -145 -11 -23 -73 -98 -137 -166 -139 -149 -184 -207 -221 -286
-27 -58 -28 -66 -31 -257 l-4 -198 331 0 331 0 0 105 0 105 -205 0 -205 0 0
68 c0 44 7 81 19 108 10 23 87 115 170 204 164 177 202 236 222 345 14 77 6
347 -12 398 -20 60 -82 123 -142 145 -63 24 -183 34 -254 21z"/>
<path d="M4930 2765 l0 -315 55 0 55 0 0 135 0 135 45 0 45 0 0 -135 0 -135
60 0 60 0 0 315 0 315 -60 0 -60 0 0 -130 0 -130 -45 0 -45 0 0 130 0 130 -55
0 -55 0 0 -315z"/>
<path d="M5395 3068 c-5 -14 -115 -599 -115 -611 0 -4 24 -7 54 -7 l54 0 9 53
8 52 52 3 51 3 9 -53 8 -53 58 -3 c48 -3 57 0 57 14 0 9 -25 147 -55 306 -30
159 -55 294 -55 299 0 14 -130 11 -135 -3z"/>
<path d="M5680 2765 l0 -315 45 0 45 0 1 178 1 177 36 -177 35 -178 29 0 c32
0 28 -13 67 205 l29 160 1 -182 1 -183 50 0 50 0 0 315 0 315 -69 0 c-81 0
-71 18 -102 -172 -13 -75 -25 -136 -26 -134 -3 2 -63 293 -63 303 0 1 -29 3
-65 3 l-65 0 0 -315z"/>
<path d="M6120 2766 l0 -316 113 0 c122 0 147 8 181 53 18 24 21 43 21 129 0
97 -1 100 -28 124 -26 22 -27 26 -13 40 23 23 29 54 24 144 -3 71 -6 83 -31
107 -26 27 -32 28 -147 31 l-120 4 0 -316z"/>
<path d="M6480 2765 l0 -315 55 0 54 0 3 127 3 126 44 -126 43 -127 59 0 c33
0 59 4 59 8 0 4 -20 65 -45 135 -25 71 -45 132 -45 136 0 5 9 11 19 14 40 10
56 54 56 158 0 83 -3 102 -21 126 -33 45 -60 53 -176 53 l-108 0 0 -315z"/>
<path d="M6830 2765 l0 -315 130 0 130 0 0 50 0 50 -70 0 -70 0 0 85 0 85 50
0 50 0 0 50 0 50 -50 0 -50 0 0 85 0 85 70 0 70 0 0 45 0 45 -130 0 -130 0 0
-315z"/>
<path d="M5015 2207 c-16 -8 -41 -27 -55 -42 l-25 -27 0 -243 0 -243 25 -27
c50 -55 139 -71 207 -38 50 24 73 77 73 176 l0 77 -55 0 -55 0 0 -73 c0 -43
-5 -78 -12 -85 -18 -18 -56 -14 -68 7 -6 12 -10 98 -10 210 0 159 3 192 16
205 18 19 45 21 62 4 7 -7 12 -38 12 -70 l0 -58 55 0 55 0 -1 63 c0 77 -16
124 -50 149 -34 26 -133 34 -174 15z"/>
<path d="M6046 2210 c-47 -14 -84 -57 -95 -112 -14 -64 -14 -343 0 -407 18
-86 92 -131 191 -118 51 7 88 33 110 78 15 29 18 64 18 244 0 184 -2 215 -18
245 -33 63 -125 94 -206 70z m101 -120 c20 -40 18 -369 -3 -398 -19 -27 -60
-29 -74 -3 -6 12 -10 98 -10 210 0 162 2 192 16 206 23 22 56 15 71 -15z"/>
<path d="M5290 1895 l0 -315 130 0 130 0 0 45 0 45 -75 0 -75 0 0 90 0 90 50
0 50 0 0 50 0 50 -50 0 -50 0 0 85 0 85 75 0 75 0 0 45 0 45 -130 0 -130 0 0
-315z"/>
<path d="M5590 1895 l0 -315 60 0 60 0 1 118 1 117 40 -117 40 -118 59 0 c32
0 59 4 59 10 0 5 -20 66 -45 136 l-45 127 38 32 37 33 0 105 c0 91 -3 109 -21
134 -33 45 -60 53 -176 53 l-108 0 0 -315z"/>
</g>
</svg>
