<?xml version="1.0" encoding="utf-8"?>
<!-- Generator: Adobe Illustrator 24.0.2, SVG Export Plug-In . SVG Version: 6.00 Build 0)  -->
<svg version="1.1" id="Capa_1" xmlns="http://www.w3.org/2000/svg" xmlns:xlink="http://www.w3.org/1999/xlink" x="0px" y="0px"
	 viewBox="0 0 69.82 69.82" style="enable-background:new 0 0 69.82 69.82;" xml:space="preserve">
<style type="text/css">
	.st0{fill:#D3A13C;}
	.st1{fill:#4D9748;}
	.st2{fill:#D32E3C;}
	.st3{fill:#E0432F;}
	.st4{fill:#2DAFD2;}
	.st5{fill:#B8252F;}
	.st6{fill:#9A2142;}
	.st7{fill:#E46831;}
	.st8{fill:#EEBB27;}
	.st9{fill:#EE9830;}
	.st10{fill:#B6872F;}
	.st11{fill:#CE2364;}
	.st12{fill:#268BC3;}
	.st13{fill:#5DAE49;}
	.st14{fill:#427D44;}
	.st15{fill:#1C4769;}
	.st16{fill:#0B6695;}
	.st17{fill:#FFFFFF;}
	.st18{fill-rule:evenodd;clip-rule:evenodd;fill:#00A0DB;}
	.st19{fill-rule:evenodd;clip-rule:evenodd;fill:#0782BE;}
	.st20{fill-rule:evenodd;clip-rule:evenodd;fill:#FFFFFF;}
	.st21{fill-rule:evenodd;clip-rule:evenodd;fill:#E86537;}
	.st22{fill-rule:evenodd;clip-rule:evenodd;fill:#034569;}
	.st23{fill-rule:evenodd;clip-rule:evenodd;fill:#DE2A66;}
	.st24{fill-rule:evenodd;clip-rule:evenodd;fill:#057C40;}
	.st25{fill-rule:evenodd;clip-rule:evenodd;fill:#CF9521;}
	.st26{fill-rule:evenodd;clip-rule:evenodd;fill:#B31D42;}
	.st27{fill-rule:evenodd;clip-rule:evenodd;fill:#D9272E;}
	.st28{fill-rule:evenodd;clip-rule:evenodd;fill:#E34538;}
	.st29{fill-rule:evenodd;clip-rule:evenodd;fill:#EF9431;}
	.st30{fill-rule:evenodd;clip-rule:evenodd;fill:#ECB129;}
	.st31{fill-rule:evenodd;clip-rule:evenodd;fill:#F7BC13;}
	.st32{fill-rule:evenodd;clip-rule:evenodd;fill:#19A240;}
	.st33{fill-rule:evenodd;clip-rule:evenodd;fill:#02983B;}
	.st34{fill-rule:evenodd;clip-rule:evenodd;fill:#E13244;}
	.st35{fill-rule:evenodd;clip-rule:evenodd;fill:#066698;}
	.st36{fill-rule:evenodd;clip-rule:evenodd;fill:#008CC4;}
	.st37{fill-rule:evenodd;clip-rule:evenodd;fill:#00A3C6;}
	.st38{fill-rule:evenodd;clip-rule:evenodd;fill:#067FC2;stroke:#067FC2;stroke-width:0.25;stroke-miterlimit:22.9256;}
	.st39{fill:none;stroke:#067FC2;stroke-width:0.25;stroke-miterlimit:22.9256;}
	.st40{fill:none;stroke:#119AD7;stroke-width:0.25;stroke-miterlimit:22.9256;}
	.st41{fill-rule:evenodd;clip-rule:evenodd;fill:#067FC2;}
</style>
<circle class="st10" cx="34.91" cy="34.91" r="34.91"/>
<g>
	<g>
		<path class="st17" d="M19.22,15.89v1.35h1.72v-1.41c0-0.68,0.33-0.88,0.73-0.88c0.36,0,0.68,0.15,0.68,0.84v0.92
			c0,0.93-0.08,1.29-0.7,1.93l-1.06,1.12c-1.03,1.09-1.41,1.82-1.41,2.93v2.07h4.89v-1.54h-3.09v-0.53c0-0.88,0.31-1.21,0.79-1.72
			l1.21-1.27c0.98-1.04,1.19-1.7,1.19-2.83v-1.09c0-1.6-0.78-2.36-2.46-2.36C20.06,13.44,19.22,14.32,19.22,15.89"/>
	</g>
	<g>
		<path class="st17" d="M28.49,13.98c0.71,0,1.02,0.42,1.02,1.11v0.55c0,0.72-0.34,1.1-1.06,1.1H28v1.79h-0.51v-4.54H28.49z
			 M28.45,16.27c0.38,0,0.56-0.18,0.56-0.61v-0.6c0-0.42-0.15-0.62-0.52-0.62H28v1.84H28.45z"/>
		<path class="st17" d="M30.91,13.98c0.71,0,1.01,0.36,1.01,1.04v0.37c0,0.5-0.17,0.81-0.56,0.93c0.42,0.12,0.57,0.46,0.57,0.95
			v0.71c0,0.2,0.01,0.39,0.09,0.54h-0.51c-0.06-0.13-0.08-0.25-0.08-0.55v-0.71c0-0.51-0.24-0.67-0.66-0.67H30.4v1.94H29.9v-4.54
			H30.91z M30.78,16.12c0.4,0,0.64-0.13,0.64-0.62v-0.43c0-0.41-0.15-0.62-0.52-0.62H30.4v1.68H30.78z"/>
		<path class="st17" d="M32.41,15.07c0-0.69,0.34-1.14,1.04-1.14c0.7,0,1.04,0.45,1.04,1.14v2.35c0,0.69-0.34,1.14-1.04,1.14
			c-0.69,0-1.04-0.45-1.04-1.14V15.07z M32.91,17.44c0,0.41,0.17,0.66,0.54,0.66c0.37,0,0.54-0.24,0.54-0.66v-2.4
			c0-0.41-0.17-0.66-0.54-0.66c-0.36,0-0.54,0.25-0.54,0.66V17.44z"/>
		<path class="st17" d="M36.04,13.98c0.71,0,1.03,0.43,1.03,1.13v2.29c0,0.69-0.32,1.12-1.03,1.12h-1.06v-4.54H36.04z M36.03,18.05
			c0.36,0,0.54-0.23,0.54-0.64v-2.33c0-0.41-0.17-0.64-0.54-0.64h-0.54v3.62H36.03z"/>
		<path class="st17" d="M38.02,17.44c0,0.41,0.16,0.66,0.53,0.66c0.36,0,0.53-0.25,0.53-0.66v-3.47h0.47v3.44
			c0,0.69-0.32,1.15-1.02,1.15c-0.69,0-1.01-0.46-1.01-1.15v-3.44h0.5V17.44z"/>
		<path class="st17" d="M42.05,15.07v0.41h-0.48v-0.43c0-0.41-0.16-0.66-0.53-0.66c-0.36,0-0.53,0.25-0.53,0.66v2.4
			c0,0.41,0.17,0.66,0.53,0.66c0.37,0,0.53-0.25,0.53-0.66v-0.59h0.48v0.56c0,0.69-0.32,1.14-1.02,1.14c-0.69,0-1.02-0.45-1.02-1.14
			v-2.35c0-0.69,0.32-1.14,1.02-1.14C41.73,13.93,42.05,14.38,42.05,15.07z"/>
		<path class="st17" d="M44.52,15.07v0.41h-0.48v-0.43c0-0.41-0.16-0.66-0.53-0.66c-0.36,0-0.53,0.25-0.53,0.66v2.4
			c0,0.41,0.17,0.66,0.53,0.66c0.37,0,0.53-0.25,0.53-0.66v-0.59h0.48v0.56c0,0.69-0.32,1.14-1.02,1.14c-0.69,0-1.02-0.45-1.02-1.14
			v-2.35c0-0.69,0.32-1.14,1.02-1.14C44.19,13.93,44.52,14.38,44.52,15.07z"/>
		<path class="st17" d="M45.48,13.98v4.54h-0.51v-4.54H45.48z"/>
		<path class="st17" d="M48.04,15.07v2.35c0,0.69-0.34,1.14-1.04,1.14c-0.69,0-1.04-0.45-1.04-1.14v-2.35
			c0-0.69,0.34-1.14,1.04-1.14C47.7,13.93,48.04,14.38,48.04,15.07z M46.46,15.05v2.4c0,0.41,0.17,0.66,0.54,0.66
			c0.37,0,0.54-0.24,0.54-0.66v-2.4c0-0.41-0.17-0.66-0.54-0.66C46.64,14.39,46.46,14.64,46.46,15.05z M47.64,13.04l-0.6,0.67h-0.35
			l0.45-0.67H47.64z"/>
		<path class="st17" d="M48.97,18.51h-0.45v-4.54h0.64l1.05,3.28v-3.28h0.45v4.54h-0.53l-1.16-3.67V18.51z"/>
		<path class="st17" d="M52.98,16.89l-0.96-2.91h0.52l0.71,2.23l0.71-2.23h0.48l-0.97,2.91v1.63h-0.5V16.89z"/>
		<path class="st17" d="M29.5,21.55v0.41h-0.48v-0.43c0-0.41-0.16-0.65-0.53-0.65c-0.36,0-0.53,0.25-0.53,0.65v2.4
			c0,0.41,0.17,0.66,0.53,0.66c0.37,0,0.53-0.25,0.53-0.66v-0.59h0.48v0.56c0,0.69-0.32,1.14-1.02,1.14c-0.69,0-1.02-0.45-1.02-1.14
			v-2.35c0-0.69,0.32-1.14,1.02-1.14C29.17,20.41,29.5,20.87,29.5,21.55z"/>
		<path class="st17" d="M29.92,21.55c0-0.69,0.34-1.14,1.04-1.14c0.7,0,1.04,0.45,1.04,1.14v2.35c0,0.69-0.34,1.14-1.04,1.14
			c-0.69,0-1.04-0.45-1.04-1.14V21.55z M30.42,23.93c0,0.42,0.17,0.66,0.54,0.66c0.37,0,0.54-0.24,0.54-0.66v-2.4
			c0-0.41-0.17-0.65-0.54-0.65c-0.36,0-0.54,0.25-0.54,0.65V23.93z"/>
		<path class="st17" d="M32.93,25h-0.45v-4.54h0.64l1.05,3.28v-3.28h0.45V25h-0.53l-1.16-3.67V25z"/>
		<path class="st17" d="M37.09,21.55v0.12h-0.48v-0.15c0-0.41-0.16-0.65-0.52-0.65c-0.36,0-0.52,0.24-0.52,0.64
			c0,1.02,1.52,1.12,1.52,2.39c0,0.69-0.33,1.13-1.02,1.13c-0.69,0-1.02-0.45-1.02-1.13v-0.26h0.47v0.29c0,0.41,0.17,0.65,0.53,0.65
			c0.36,0,0.53-0.24,0.53-0.65c0-1.01-1.52-1.11-1.52-2.39c0-0.7,0.32-1.13,1-1.13C36.77,20.41,37.09,20.86,37.09,21.55z"/>
		<path class="st17" d="M38.02,23.93c0,0.41,0.16,0.66,0.53,0.66c0.36,0,0.53-0.25,0.53-0.66v-3.47h0.47v3.44
			c0,0.69-0.32,1.15-1.02,1.15c-0.69,0-1.01-0.46-1.01-1.15v-3.44h0.5V23.93z"/>
		<path class="st17" d="M41.72,24.99h-0.49l-0.75-3.61V25h-0.44v-4.54h0.71l0.75,3.62l0.72-3.62h0.71V25h-0.48v-3.65L41.72,24.99z"
			/>
		<path class="st17" d="M43.4,21.55c0-0.69,0.34-1.14,1.04-1.14c0.7,0,1.04,0.45,1.04,1.14v2.35c0,0.69-0.34,1.14-1.04,1.14
			c-0.69,0-1.04-0.45-1.04-1.14V21.55z M43.9,23.93c0,0.42,0.18,0.66,0.54,0.66c0.37,0,0.54-0.24,0.54-0.66v-2.4
			c0-0.41-0.17-0.65-0.54-0.65c-0.36,0-0.54,0.25-0.54,0.65V23.93z"/>
		<path class="st17" d="M28.5,26.94c0.71,0,1.01,0.36,1.01,1.04v0.37c0,0.5-0.17,0.81-0.56,0.93c0.42,0.12,0.57,0.46,0.57,0.95v0.71
			c0,0.2,0.01,0.39,0.09,0.54H29.1c-0.06-0.13-0.08-0.25-0.08-0.55v-0.71c0-0.51-0.24-0.67-0.66-0.67H28v1.94h-0.51v-4.54H28.5z
			 M28.37,29.08c0.4,0,0.64-0.13,0.64-0.62v-0.43c0-0.41-0.15-0.62-0.52-0.62H28v1.68H28.37z"/>
		<path class="st17" d="M31.66,28.95v0.45h-1.11v1.61h1.36v0.46h-1.87v-4.54h1.87v0.46h-1.36v1.55H31.66z"/>
		<path class="st17" d="M34.35,28.03v0.12h-0.48V28c0-0.41-0.16-0.65-0.52-0.65c-0.36,0-0.52,0.24-0.52,0.64
			c0,1.02,1.52,1.12,1.52,2.39c0,0.69-0.33,1.13-1.02,1.13c-0.69,0-1.02-0.45-1.02-1.13v-0.26h0.47v0.29c0,0.41,0.17,0.65,0.53,0.65
			c0.36,0,0.53-0.24,0.53-0.65c0-1.01-1.52-1.11-1.52-2.39c0-0.7,0.32-1.13,1-1.13C34.02,26.9,34.35,27.34,34.35,28.03z"/>
		<path class="st17" d="M35.78,26.94c0.71,0,1.02,0.42,1.02,1.11v0.54c0,0.72-0.34,1.09-1.06,1.09H35.3v1.79h-0.51v-4.54H35.78z
			 M35.74,29.24c0.38,0,0.56-0.18,0.56-0.61v-0.6c0-0.42-0.15-0.62-0.52-0.62H35.3v1.83H35.74z"/>
		<path class="st17" d="M37.16,28.04c0-0.69,0.34-1.14,1.04-1.14c0.7,0,1.04,0.45,1.04,1.14v2.35c0,0.69-0.34,1.14-1.04,1.14
			c-0.69,0-1.04-0.45-1.04-1.14V28.04z M37.66,30.41c0,0.42,0.17,0.66,0.54,0.66c0.37,0,0.54-0.24,0.54-0.66v-2.4
			c0-0.41-0.17-0.66-0.54-0.66c-0.36,0-0.54,0.25-0.54,0.66V30.41z"/>
		<path class="st17" d="M40.17,31.48h-0.45v-4.54h0.64l1.05,3.28v-3.28h0.45v4.54h-0.53l-1.16-3.67V31.48z"/>
		<path class="st17" d="M44.34,28.03v0.12h-0.48V28c0-0.41-0.16-0.65-0.52-0.65c-0.36,0-0.52,0.24-0.52,0.64
			c0,1.02,1.52,1.12,1.52,2.39c0,0.69-0.33,1.13-1.02,1.13c-0.69,0-1.02-0.45-1.02-1.13v-0.26h0.47v0.29c0,0.41,0.17,0.65,0.53,0.65
			c0.36,0,0.53-0.24,0.53-0.65c0-1.01-1.52-1.11-1.52-2.39c0-0.7,0.32-1.13,1-1.13C44.01,26.9,44.34,27.34,44.34,28.03z"/>
		<path class="st17" d="M45.29,30.57l-0.17,0.91h-0.47l0.87-4.54h0.73l0.87,4.54h-0.51l-0.17-0.91H45.29z M45.36,30.13h1.01
			l-0.51-2.62L45.36,30.13z"/>
		<path class="st17" d="M48.54,26.94c0.71,0,0.98,0.34,0.98,1.01v0.21c0,0.48-0.14,0.78-0.53,0.9c0.44,0.12,0.61,0.47,0.61,0.97
			v0.38c0,0.68-0.33,1.06-1.04,1.06h-1.04v-4.54H48.54z M48.41,28.87c0.4,0,0.61-0.13,0.61-0.6V28c0-0.4-0.14-0.6-0.5-0.6h-0.5v1.46
			H48.41z M48.56,31.02c0.37,0,0.54-0.19,0.54-0.62V30c0-0.51-0.2-0.67-0.64-0.67h-0.44v1.69H48.56z"/>
		<path class="st17" d="M50.06,31.48v-4.54h0.51v4.08h1.3v0.46H50.06z"/>
		<path class="st17" d="M53.86,28.95v0.45h-1.11v1.61h1.36v0.46h-1.87v-4.54h1.87v0.46h-1.36v1.55H53.86z"/>
	</g>
	<polygon class="st17" points="16.19,16.2 16.21,16.2 16.21,24.78 18.09,24.78 18.09,13.58 16.59,13.58 14.85,15.61 14.85,17.58 
		14.87,17.58 	"/>
	<g>
		<path class="st17" d="M49.11,43.77c-1.99-1.57-4.37-1.74-5.3-1.74c-0.49,0-0.95,0.04-1.28,0.12l-0.13,0.03
			c-1.26,0.3-3.37,0.79-5.82,3.84l-0.07,0.09c-0.04,0.06-0.06,0.12-0.06,0.18c0,0.06,0.01,0.11,0.04,0.16l0.06,0.09
			c0.4,0.68,0.74,1.27,1.01,1.76c0.1,0.19,0.35,0.25,0.52,0.07c0.02-0.02,0.03-0.05,0.05-0.06C40.24,45.39,41.9,45,43,44.74
			l0.14-0.03c0.15-0.04,0.4-0.06,0.67-0.06c0.51,0,2.29,0.08,3.67,1.18c1.23,0.97,1.86,2.53,1.86,4.62c0,3.51-1.7,4.87-3.12,5.4
			c-0.54,0.2-1.13,0.31-1.74,0.31c-1.47,0-2.59-0.59-2.61-0.59l-0.1-0.05c-1.22-0.53-3.05-1.64-4.78-5.11
			c-3.54-7.11-6.52-7.79-8.49-8.23l-0.1-0.02c-0.15-0.03-0.58-0.11-1.27-0.11c-1.14,0-3.33,0.22-5.22,1.73
			c-1.29,1.02-2.82,3.01-2.82,6.68c0,2.23,0.46,3.7,1.64,5.25c0.22,0.3,2.27,2.95,6.21,2.95c0.58,0,1.19-0.06,1.8-0.18
			c0.72-0.14,1.83-0.49,3.07-1.4L32.86,58c0.12,0.11,0.32,0.1,0.42-0.02c0.05-0.05,0.08-0.13,0.08-0.2l0.8-4.94v-0.06
			c0-0.08-0.04-0.16-0.1-0.21c-0.05-0.05-0.12-0.08-0.21-0.08h0l-4.81,1.33l-0.09,0.01c-0.06,0.01-0.11,0.04-0.15,0.09
			c-0.05,0.06-0.08,0.14-0.08,0.22c0,0.08,0.04,0.15,0.1,0.21l1,0.9c-0.52,0.32-1.05,0.53-1.56,0.63c-0.43,0.08-0.86,0.13-1.28,0.13
			c-2.72,0-4.06-1.79-4.12-1.86l-0.03-0.04c-0.83-1.09-1.11-2.02-1.11-3.67c0-2.1,0.61-3.65,1.83-4.62
			c1.35-1.08,3.08-1.16,3.58-1.16c0.27,0,0.52,0.02,0.68,0.06l0.11,0.02c1.57,0.36,3.73,0.84,6.71,6.84
			c1.58,3.17,3.55,5.24,6.04,6.33c0.29,0.15,1.83,0.88,3.81,0.88c0.92,0,1.82-0.16,2.66-0.47c1.45-0.54,4.83-2.39,4.83-7.87
			C51.97,46.79,50.42,44.79,49.11,43.77"/>
	</g>
</g>
</svg>
