<?xml version="1.0" standalone="no"?>
<!DOCTYPE svg PUBLIC "-//W3C//DTD SVG 20010904//EN"
 "http://www.w3.org/TR/2001/REC-SVG-20010904/DTD/svg10.dtd">
<svg version="1.0" xmlns="http://www.w3.org/2000/svg"
 width="1072.000000pt" height="467.000000pt" viewBox="0 0 1072.000000 467.000000"
 preserveAspectRatio="xMidYMid meet">
<metadata>
Created by potrace 1.16, written by Peter Selinger 2001-2019
</metadata>
<g transform="translate(0.000000,467.000000) scale(0.100000,-0.100000)"
fill="#000000" stroke="none">
<path d="M1655 3749 c-480 -66 -885 -351 -1096 -772 -246 -489 -194 -1073 134
-1508 76 -102 233 -251 338 -321 167 -112 357 -188 564 -225 133 -24 370 -21
508 6 579 115 1018 556 1134 1138 26 134 24 415 -5 550 -61 284 -190 521 -392
723 -202 203 -444 334 -723 391 -118 24 -353 33 -462 18z m329 -757 c58 -26
146 -109 177 -166 21 -40 28 -45 75 -55 116 -23 219 -105 271 -216 24 -52 28
-72 28 -150 0 -78 -4 -98 -28 -151 -16 -34 -46 -78 -67 -99 l-38 -37 5 -77 c4
-55 1 -93 -11 -133 -61 -212 -305 -325 -508 -235 l-56 25 -54 -26 c-47 -24
-65 -27 -153 -27 -89 0 -106 3 -157 28 -79 39 -143 104 -181 185 -29 61 -32
76 -32 162 l0 96 -37 43 c-75 88 -107 199 -89 305 28 158 139 272 299 306 47
11 53 15 80 63 95 167 302 235 476 159z"/>
<path d="M1776 2939 c-62 -10 -132 -53 -173 -107 -40 -53 -41 -60 -5 -68 72
-18 170 -91 213 -160 l21 -34 31 47 c41 60 117 119 184 140 51 16 52 17 38 42
-21 41 -86 98 -135 119 -57 25 -112 31 -174 21z"/>
<path d="M1403 2681 c-195 -66 -263 -307 -131 -464 l23 -28 35 47 c44 59 116
109 186 130 l53 15 -33 47 c-49 68 -67 117 -74 199 l-7 72 -52 -18z"/>
<path d="M2198 2621 c-5 -81 -32 -148 -82 -208 l-26 -31 33 -6 c63 -12 136
-57 192 -117 64 -70 69 -69 112 15 85 167 -12 375 -193 416 l-32 7 -4 -76z"/>
<path d="M1542 2627 c6 -75 34 -134 89 -187 39 -38 135 -83 153 -73 15 9 -1
117 -23 161 -12 23 -35 57 -52 76 -32 37 -120 86 -152 86 -18 0 -19 -6 -15
-63z"/>
<path d="M2043 2671 c-84 -39 -153 -133 -167 -232 -9 -65 -2 -79 36 -69 132
38 218 162 209 303 -1 22 -25 21 -78 -2z"/>
<path d="M1967 2296 c-26 -7 -50 -16 -53 -19 -11 -11 37 -76 79 -107 45 -33
122 -60 172 -60 39 0 135 28 135 39 0 4 -18 29 -40 54 -73 83 -193 121 -293
93z"/>
<path d="M1513 2281 c-23 -11 -56 -30 -73 -43 -36 -26 -74 -83 -66 -97 11 -17
107 -34 154 -27 26 3 71 18 99 32 51 24 123 95 123 120 0 36 -167 46 -237 15z"/>
<path d="M1807 2191 c-77 -92 -76 -258 2 -361 17 -21 21 -22 36 -10 9 7 28 37
43 64 21 42 26 64 25 126 0 79 -13 120 -56 178 l-25 33 -25 -30z"/>
<path d="M1616 2054 c-67 -24 -136 -28 -205 -10 -34 9 -67 16 -73 16 -18 0 -3
-124 21 -173 27 -56 80 -111 134 -139 34 -18 59 -23 127 -23 49 0 98 6 117 13
l32 14 -29 40 c-44 61 -70 139 -70 213 0 36 -3 65 -7 64 -5 0 -26 -7 -47 -15z"/>
<path d="M1997 2038 c11 -68 -37 -221 -81 -257 -25 -21 -20 -28 31 -45 135
-46 288 17 354 146 15 28 24 68 27 116 l5 72 -44 -15 c-90 -32 -149 -30 -276
10 -20 7 -22 5 -16 -27z"/>
<path d="M7955 3466 c-41 -18 -65 -56 -72 -114 -10 -84 9 -125 103 -222 64
-66 86 -97 91 -123 7 -43 -11 -77 -40 -77 -36 0 -47 19 -47 82 l0 58 -55 0
-55 0 0 -60 c0 -122 47 -175 155 -174 110 0 155 48 155 163 0 83 -16 114 -100
196 -101 99 -123 148 -79 179 39 27 69 3 69 -56 l0 -38 56 0 57 0 -7 62 c-7
73 -26 105 -71 124 -43 17 -120 18 -160 0z"/>
<path d="M5721 3418 c-6 -29 -31 -161 -56 -293 -25 -132 -47 -250 -50 -262 -5
-22 -2 -23 49 -23 59 0 58 -1 71 73 l6 38 52 -3 52 -3 8 -52 9 -53 60 0 c57 0
60 1 55 23 -3 12 -28 144 -56 292 -28 149 -53 280 -56 293 -5 20 -11 22 -69
22 l-65 0 -10 -52z"/>
<path d="M6010 3155 l0 -315 120 0 120 0 0 50 0 50 -60 0 -60 0 0 265 0 265
-60 0 -60 0 0 -315z"/>
<path d="M6290 3155 l0 -315 55 0 55 0 0 315 0 315 -55 0 -55 0 0 -315z"/>
<path d="M6497 3168 c-31 -167 -57 -309 -57 -315 0 -9 17 -13 54 -13 l54 0 7
55 6 55 54 0 54 0 6 -55 7 -55 59 0 c33 0 59 3 59 8 0 4 -25 145 -57 315 l-58
307 -65 0 -66 0 -57 -302z"/>
<path d="M6840 3155 l0 -315 45 0 45 0 0 183 1 182 57 -180 57 -180 53 -3 52
-3 0 315 0 316 -50 0 -50 0 -1 -152 -1 -153 -49 153 -50 152 -54 0 -55 0 0
-315z"/>
<path d="M7210 3425 l0 -45 70 0 c39 0 70 -1 70 -3 0 -2 -36 -102 -80 -222
-59 -160 -80 -232 -80 -267 l0 -48 140 0 140 0 0 50 0 50 -75 0 c-41 0 -75 4
-75 8 0 4 34 99 75 211 59 159 75 216 75 258 l0 53 -130 0 -130 0 0 -45z"/>
<path d="M7561 3182 c-29 -158 -56 -299 -58 -314 -5 -28 -5 -28 50 -28 l56 0
6 55 7 55 53 0 53 0 9 -52 8 -53 58 -3 c41 -2 57 1 57 10 1 7 -25 149 -57 316
l-57 302 -65 0 -66 0 -54 -288z"/>
<path d="M8330 3156 l0 -316 60 0 60 0 0 105 0 105 43 0 c60 1 121 31 136 68
9 20 12 72 9 161 -3 127 -4 131 -31 158 -27 27 -31 28 -152 31 l-125 4 0 -316z
m184 208 c12 -12 16 -37 16 -104 0 -97 -11 -120 -56 -120 l-24 0 0 120 0 120
24 0 c14 0 32 -7 40 -16z"/>
<path d="M8747 3448 c-3 -13 -29 -147 -57 -298 -28 -151 -53 -283 -56 -292 -5
-16 2 -18 50 -18 59 0 58 -1 71 73 l6 38 52 -3 52 -3 8 -52 9 -53 60 0 60 0
-6 28 c-3 15 -28 146 -56 292 -27 146 -52 275 -55 288 -5 20 -11 22 -69 22
-58 0 -64 -2 -69 -22z"/>
<path d="M9030 3155 l0 -315 60 0 60 0 1 118 0 117 42 -117 42 -118 58 0 c39
0 57 4 57 13 0 6 -20 68 -45 137 -50 140 -50 140 -32 140 8 0 24 12 38 26 22
24 24 33 24 128 0 166 -20 186 -195 186 l-110 0 0 -315z"/>
<path d="M9427 3163 c-32 -170 -57 -311 -57 -315 0 -5 24 -8 54 -8 l55 0 6 55
7 55 53 0 53 0 9 -52 8 -53 58 -3 c41 -2 57 1 57 10 0 7 -25 149 -57 316 l-57
302 -66 0 -65 0 -58 -307z"/>
<path d="M3883 2977 l-112 -132 -1 -132 c0 -73 3 -133 7 -133 4 0 45 37 90 82
l83 83 0 -563 0 -562 130 0 130 0 0 745 0 745 -107 0 -108 -1 -112 -132z"/>
<path d="M4310 3005 l0 -105 190 0 c123 0 190 -4 190 -10 0 -6 -72 -287 -160
-626 -88 -338 -160 -622 -160 -630 0 -12 21 -14 127 -12 l126 3 163 625 163
625 1 118 0 117 -320 0 -320 0 0 -105z"/>
<path d="M5630 2335 l0 -315 120 0 120 0 0 45 0 45 -65 0 -65 0 0 270 0 270
-55 0 -55 0 0 -315z"/>
<path d="M5990 2643 c-8 -3 -27 -17 -42 -31 -41 -38 -50 -100 -46 -312 3 -206
11 -234 71 -270 47 -29 143 -27 188 3 59 39 64 60 67 279 4 219 -3 260 -48
303 -28 27 -39 30 -103 32 -40 1 -79 0 -87 -4z m104 -99 c14 -13 16 -47 16
-213 0 -207 -3 -221 -45 -221 -42 0 -45 14 -45 221 0 166 2 200 16 213 8 9 22
16 29 16 7 0 21 -7 29 -16z"/>
<path d="M6348 2634 c-16 -8 -37 -32 -48 -54 -18 -36 -20 -59 -20 -250 0 -230
5 -259 55 -298 37 -30 112 -30 149 -1 21 17 26 18 26 5 0 -12 11 -16 45 -16
l45 0 0 170 0 170 -80 0 -80 0 0 -50 c0 -47 2 -50 25 -50 23 0 25 -3 25 -49 0
-74 -13 -101 -50 -101 -44 0 -50 25 -50 220 0 179 6 214 40 225 36 11 60 -20
60 -77 l0 -48 56 0 57 0 -7 67 c-8 76 -30 122 -67 140 -34 18 -148 16 -181 -3z"/>
<path d="M6640 2335 l0 -315 60 0 59 0 3 118 3 117 40 -117 39 -118 63 0 62 0
-48 138 -49 138 29 17 c41 23 51 58 47 169 -3 86 -6 99 -27 122 -33 35 -78 46
-188 46 l-93 0 0 -315z"/>
<path d="M7095 2628 c-3 -13 -28 -144 -56 -293 -27 -148 -53 -280 -56 -292 -5
-22 -2 -23 50 -23 58 0 67 7 67 55 0 46 9 55 61 55 48 0 48 0 54 -37 13 -75
11 -73 75 -73 50 0 58 2 54 18 -7 32 -114 598 -114 605 0 4 -29 7 -65 7 -59 0
-65 -2 -70 -22z"/>
<path d="M7380 2335 l0 -315 55 0 55 0 1 128 0 127 20 -55 c10 -30 31 -88 45
-127 l26 -73 59 0 c32 0 59 3 59 6 0 3 -21 65 -46 137 -45 125 -46 131 -28
143 56 38 73 99 60 212 -12 106 -52 131 -208 131 l-98 1 0 -315z"/>
<path d="M5983 1811 c-73 -34 -78 -53 -78 -306 0 -201 2 -223 20 -253 60 -99
239 -92 285 10 17 38 20 67 20 240 0 220 -8 261 -62 299 -42 31 -131 35 -185
10z m115 -93 c9 -9 12 -70 12 -213 0 -211 -3 -225 -45 -225 -42 0 -45 14 -45
225 0 211 3 225 45 225 12 0 26 -5 33 -12z"/>
<path d="M6344 1811 c-48 -22 -69 -63 -69 -136 1 -81 11 -101 105 -200 81 -85
90 -98 90 -132 0 -44 -14 -63 -45 -63 -34 0 -45 20 -45 82 l0 58 -55 0 -55 0
0 -62 c1 -92 25 -141 84 -163 83 -32 179 -6 212 56 16 32 19 145 4 184 -6 15
-48 66 -95 115 -46 48 -87 99 -90 113 -10 37 10 67 44 67 32 0 41 -14 41 -66
l0 -34 56 0 57 0 -6 60 c-3 34 -13 72 -22 86 -34 53 -135 70 -211 35z"/>
<path d="M6820 1819 c-86 -36 -103 -97 -98 -348 3 -154 5 -180 23 -210 29 -50
64 -71 126 -77 44 -4 62 -1 98 18 76 39 81 59 81 303 0 230 -6 257 -62 299
-32 23 -129 32 -168 15z m104 -111 c21 -29 23 -358 3 -398 -15 -30 -48 -37
-71 -15 -14 14 -16 44 -16 206 0 112 4 198 10 210 14 26 55 24 74 -3z"/>
<path d="M9045 1823 c-37 -10 -73 -43 -89 -83 -13 -32 -16 -79 -16 -238 0
-173 3 -202 20 -240 46 -102 225 -109 285 -10 18 30 20 52 20 253 0 194 -2
224 -18 253 -30 55 -123 85 -202 65z m93 -105 c15 -15 17 -390 2 -419 -12 -21
-50 -25 -68 -7 -9 9 -12 70 -12 213 0 211 3 225 45 225 12 0 26 -5 33 -12z"/>
<path d="M9403 1823 c-33 -6 -79 -57 -87 -94 -19 -97 -1 -143 99 -249 46 -48
87 -101 91 -116 10 -38 -7 -78 -34 -82 -39 -6 -52 15 -52 79 l0 59 -55 0 -55
0 0 -66 c0 -87 21 -131 74 -155 84 -38 194 -11 221 55 17 41 20 142 5 181 -6
15 -51 69 -100 120 -71 74 -90 99 -90 122 0 34 16 53 45 53 31 0 45 -19 45
-62 l0 -38 56 0 57 0 -7 56 c-8 74 -30 112 -71 130 -33 13 -94 16 -142 7z"/>
<path d="M5630 1505 l0 -315 120 0 120 0 0 45 0 45 -65 0 -65 0 0 270 0 270
-55 0 -55 0 0 -315z"/>
<path d="M7100 1506 l0 -316 113 0 c122 0 147 8 181 53 18 24 21 43 21 129 0
97 -1 100 -28 124 -26 22 -27 26 -13 40 23 23 29 54 24 144 -3 71 -6 83 -31
107 -26 27 -32 28 -147 31 l-120 4 0 -316z"/>
<path d="M7628 1553 l-3 -268 -22 -3 c-30 -4 -43 29 -43 109 l0 59 -51 0 -51
0 4 -106 c3 -101 4 -107 31 -129 51 -45 163 -45 210 -1 41 38 47 83 47 354 l0
252 -60 0 -60 0 -2 -267z"/>
<path d="M7800 1505 l0 -315 130 0 130 0 0 45 0 45 -75 0 -75 0 0 90 0 90 50
0 50 0 0 50 0 50 -50 0 -50 0 0 85 0 85 75 0 75 0 0 45 0 45 -130 0 -130 0 0
-315z"/>
<path d="M8090 1775 l0 -45 45 0 45 0 0 -270 0 -270 55 0 55 0 0 270 0 270 45
0 45 0 0 45 0 45 -145 0 -145 0 0 -45z"/>
<path d="M8420 1505 l0 -315 55 0 55 0 0 315 0 315 -55 0 -55 0 0 -315z"/>
<path d="M8570 1808 c-1 -7 25 -149 57 -315 l57 -303 62 0 62 0 37 198 c21
108 48 249 60 312 l22 115 -50 3 c-30 2 -53 -1 -57 -8 -4 -7 -20 -89 -35 -183
-15 -95 -31 -175 -34 -179 -4 -4 -19 70 -35 165 -15 94 -30 180 -32 190 -4 13
-17 17 -60 17 -36 0 -54 -4 -54 -12z"/>
</g>
</svg>
