<?xml version="1.0" standalone="no"?>
<!DOCTYPE svg PUBLIC "-//W3C//DTD SVG 20010904//EN"
 "http://www.w3.org/TR/2001/REC-SVG-20010904/DTD/svg10.dtd">
<svg version="1.0" xmlns="http://www.w3.org/2000/svg"
 width="1072.000000pt" height="467.000000pt" viewBox="0 0 1072.000000 467.000000"
 preserveAspectRatio="xMidYMid meet">
<metadata>
Created by potrace 1.16, written by Peter Selinger 2001-2019
</metadata>
<g transform="translate(0.000000,467.000000) scale(0.100000,-0.100000)"
fill="#000000" stroke="none">
<path d="M3871 3089 c-42 -13 -98 -48 -133 -85 -57 -61 -87 -176 -88 -336 l0
-78 124 0 124 0 3 120 c4 115 5 121 32 147 38 39 99 39 133 0 23 -27 24 -35
24 -167 0 -130 -1 -141 -22 -165 -25 -29 -78 -44 -150 -45 l-48 0 0 -100 0
-100 85 0 c78 0 88 -2 110 -25 25 -24 25 -26 25 -209 0 -184 0 -185 -26 -215
-21 -25 -33 -31 -66 -31 -91 0 -108 34 -108 215 l0 135 -126 0 -126 0 5 -157
c3 -109 10 -175 22 -212 21 -68 88 -141 158 -172 46 -21 67 -24 177 -24 122 0
127 1 193 33 47 24 77 47 102 79 58 76 67 125 63 351 -3 195 -3 197 -31 245
-19 32 -44 56 -76 74 l-47 27 45 30 c29 20 54 48 71 81 24 47 25 58 25 210 l0
161 -35 69 c-38 76 -94 124 -168 145 -46 12 -225 12 -271 -1z"/>
<path d="M4959 3067 c-18 -12 -39 -34 -46 -47 -15 -30 -17 -128 -3 -165 6 -15
48 -67 95 -115 78 -81 85 -92 85 -128 0 -55 -8 -72 -34 -72 -35 0 -46 20 -46
82 l0 58 -55 0 -55 0 0 -70 c0 -84 17 -122 63 -147 38 -20 130 -23 172 -5 62
26 93 112 73 205 -9 43 -22 62 -93 136 -45 47 -88 96 -94 109 -16 30 -5 79 18
85 34 9 51 -11 51 -58 l0 -45 60 0 60 0 -1 43 c-1 107 -50 157 -154 157 -48 0
-70 -5 -96 -23z"/>
<path d="M5315 2933 c-15 -82 -42 -223 -60 -315 l-32 -168 58 0 c63 0 61 -2
74 73 6 37 6 37 54 37 l49 0 7 -55 6 -55 66 0 c63 0 65 1 60 23 -3 12 -28 144
-56 292 -28 149 -53 280 -56 293 -5 20 -11 22 -74 22 l-69 0 -27 -147z"/>
<path d="M5620 2765 l0 -315 125 0 125 0 0 50 0 50 -60 0 -60 0 0 265 0 265
-65 0 -65 0 0 -315z"/>
<path d="M5890 2823 c0 -232 2 -262 19 -300 24 -53 68 -77 141 -77 66 -1 108
15 135 52 19 25 20 45 23 305 l3 277 -56 0 -55 0 0 -254 c0 -218 -2 -257 -16
-270 -8 -9 -21 -16 -28 -16 -33 0 -36 22 -36 282 l0 258 -65 0 -65 0 0 -257z"/>
<path d="M6250 2765 l0 -315 111 0 c96 0 117 3 150 22 68 38 74 64 74 298 0
229 -6 252 -68 290 -27 17 -51 20 -149 20 l-118 0 0 -315z m191 215 c18 -10
19 -23 19 -208 0 -213 -2 -222 -52 -222 l-28 0 0 220 c0 216 0 220 21 220 11
0 29 -5 40 -10z"/>
<path d="M6923 2205 c-47 -20 -73 -68 -73 -137 0 -31 4 -68 10 -83 5 -14 48
-66 95 -116 l86 -90 -3 -52 c-3 -46 -6 -52 -26 -55 -39 -6 -52 15 -52 79 l0
59 -55 0 -55 0 0 -74 c0 -60 4 -79 23 -107 39 -58 135 -75 214 -40 66 30 95
114 72 206 -10 40 -28 65 -100 141 -49 50 -91 103 -94 117 -10 38 11 69 43 65
25 -3 27 -7 30 -50 l3 -48 60 0 59 0 0 48 c0 62 -26 113 -70 134 -42 21 -122
23 -167 3z"/>
<path d="M4941 2018 c58 -190 59 -195 59 -315 l0 -123 60 0 60 0 0 115 c0 112
2 122 56 303 31 103 59 193 61 200 4 9 -11 12 -56 12 l-60 0 -10 -37 c-5 -21
-18 -68 -27 -105 l-18 -68 -13 53 c-8 28 -20 76 -29 105 l-15 52 -63 0 -64 0
59 -192z"/>
<path d="M5360 1895 l0 -315 110 0 c183 0 210 23 210 181 0 87 -2 95 -27 121
-26 27 -26 28 -7 49 16 17 19 36 19 109 0 148 -26 170 -194 170 l-111 0 0
-315z"/>
<path d="M5720 1895 l0 -315 60 0 60 0 0 315 0 315 -60 0 -60 0 0 -315z"/>
<path d="M5880 1895 l0 -315 135 0 135 0 0 45 0 45 -70 0 -70 0 0 90 0 90 50
0 50 0 0 50 0 50 -50 0 -50 0 0 85 0 85 70 0 70 0 0 45 0 45 -135 0 -135 0 0
-315z"/>
<path d="M6190 1895 l0 -315 56 0 56 0 -4 165 c-1 91 0 158 4 148 4 -10 28
-84 53 -165 l46 -148 55 0 54 0 0 315 0 315 -55 0 -55 0 -1 -137 -1 -138 -44
138 -45 137 -59 0 -60 0 0 -315z"/>
<path d="M6550 1895 l0 -315 135 0 135 0 0 45 0 45 -75 0 -75 0 0 90 0 90 55
0 55 0 0 50 0 50 -55 0 -55 0 0 85 0 85 75 0 75 0 0 45 0 45 -135 0 -135 0 0
-315z"/>
<path d="M7170 2165 l0 -45 45 0 45 0 0 -270 0 -270 65 0 65 0 0 270 0 270 40
0 40 0 0 45 0 45 -150 0 -150 0 0 -45z"/>
<path d="M7555 2198 c-4 -13 -115 -604 -115 -613 0 -3 27 -5 59 -5 l60 0 6 55
7 55 48 0 c47 0 48 0 54 -37 13 -74 12 -73 77 -73 32 0 59 3 59 8 1 4 -25 145
-57 315 l-58 307 -68 0 c-45 0 -69 -4 -72 -12z"/>
<path d="M7840 1895 l0 -315 60 0 59 0 3 111 3 112 39 -112 38 -111 59 0 c47
0 59 3 59 16 0 12 -55 177 -86 259 -3 7 5 15 18 18 42 11 58 55 58 159 -1 102
-10 128 -56 159 -24 16 -47 19 -141 19 l-113 0 0 -315z"/>
</g>
</svg>
