<?xml version="1.0" encoding="utf-8"?>
<!-- Generator: Adobe Illustrator 24.0.2, SVG Export Plug-In . SVG Version: 6.00 Build 0)  -->
<svg version="1.1" id="Capa_1" xmlns="http://www.w3.org/2000/svg" xmlns:xlink="http://www.w3.org/1999/xlink" x="0px" y="0px"
	 viewBox="0 0 69.82 69.82" style="enable-background:new 0 0 69.82 69.82;" xml:space="preserve">
<style type="text/css">
	.st0{fill:#D3A13C;}
	.st1{fill:#4D9748;}
	.st2{fill:#D32E3C;}
	.st3{fill:#E0432F;}
	.st4{fill:#2DAFD2;}
	.st5{fill:#B8252F;}
	.st6{fill:#9A2142;}
	.st7{fill:#E46831;}
	.st8{fill:#EEBB27;}
	.st9{fill:#EE9830;}
	.st10{fill:#B6872F;}
	.st11{fill:#CE2364;}
	.st12{fill:#268BC3;}
	.st13{fill:#5DAE49;}
	.st14{fill:#427D44;}
	.st15{fill:#1C4769;}
	.st16{fill:#0B6695;}
	.st17{fill:#FFFFFF;}
	.st18{fill-rule:evenodd;clip-rule:evenodd;fill:#00A0DB;}
	.st19{fill-rule:evenodd;clip-rule:evenodd;fill:#0782BE;}
	.st20{fill-rule:evenodd;clip-rule:evenodd;fill:#FFFFFF;}
	.st21{fill-rule:evenodd;clip-rule:evenodd;fill:#E86537;}
	.st22{fill-rule:evenodd;clip-rule:evenodd;fill:#034569;}
	.st23{fill-rule:evenodd;clip-rule:evenodd;fill:#DE2A66;}
	.st24{fill-rule:evenodd;clip-rule:evenodd;fill:#057C40;}
	.st25{fill-rule:evenodd;clip-rule:evenodd;fill:#CF9521;}
	.st26{fill-rule:evenodd;clip-rule:evenodd;fill:#B31D42;}
	.st27{fill-rule:evenodd;clip-rule:evenodd;fill:#D9272E;}
	.st28{fill-rule:evenodd;clip-rule:evenodd;fill:#E34538;}
	.st29{fill-rule:evenodd;clip-rule:evenodd;fill:#EF9431;}
	.st30{fill-rule:evenodd;clip-rule:evenodd;fill:#ECB129;}
	.st31{fill-rule:evenodd;clip-rule:evenodd;fill:#F7BC13;}
	.st32{fill-rule:evenodd;clip-rule:evenodd;fill:#19A240;}
	.st33{fill-rule:evenodd;clip-rule:evenodd;fill:#02983B;}
	.st34{fill-rule:evenodd;clip-rule:evenodd;fill:#E13244;}
	.st35{fill-rule:evenodd;clip-rule:evenodd;fill:#066698;}
	.st36{fill-rule:evenodd;clip-rule:evenodd;fill:#008CC4;}
	.st37{fill-rule:evenodd;clip-rule:evenodd;fill:#00A3C6;}
	.st38{fill-rule:evenodd;clip-rule:evenodd;fill:#067FC2;stroke:#067FC2;stroke-width:0.25;stroke-miterlimit:22.9256;}
	.st39{fill:none;stroke:#067FC2;stroke-width:0.25;stroke-miterlimit:22.9256;}
	.st40{fill:none;stroke:#119AD7;stroke-width:0.25;stroke-miterlimit:22.9256;}
	.st41{fill-rule:evenodd;clip-rule:evenodd;fill:#067FC2;}
</style>
<circle class="st4" cx="34.91" cy="34.91" r="34.91"/>
<g>
	<path class="st17" d="M43.91,35.96c-0.04-0.04-0.1-0.07-0.16-0.07H26.07c-0.06,0-0.12,0.02-0.16,0.07
		c-0.04,0.05-0.05,0.11-0.04,0.17l2.97,17.97c0.02,0.1,0.1,0.17,0.2,0.17h3.65l0.25,2.93l-1.53,0l3.57,3.57l3.58-3.58l-1.53,0
		l0.25-2.92h3.71c0.1,0,0.19-0.07,0.2-0.18l2.78-17.97C43.97,36.07,43.95,36.01,43.91,35.96 M37.08,50.35c0,0-0.8,0.83-2.11,0.74
		c-1.31,0.09-2.11-0.74-2.11-0.74c-1.33-1.32-0.85-2.97-0.39-3.82c0.28-0.53,2.32-3.59,2.5-3.85v-0.02c0,0,0,0,0.01,0.01l0.01-0.01
		v0.02c0.17,0.26,2.21,3.32,2.49,3.85C37.93,47.38,38.4,49.03,37.08,50.35 M42.69,39.74c-0.48-0.21-1.09-0.13-1.67,0.1
		c-2.2,0.89-3.69,1.21-6,0.49c-1.45-0.45-2.81-1.41-4.42-0.83c-1.07,0.38-2.06,0.75-3.27,0.74l-0.7-3.57h16.55L42.69,39.74z"/>
</g>
<g>
	<g>
		<path class="st17" d="M17.24,26.91c2,0,2.78-1.09,2.78-2.83v-1.65c0-1.83-0.73-2.76-2.08-2.76c-0.79,0-1.27,0.36-1.55,0.91h-0.02
			v-2.41c0-0.68,0.21-1.16,0.89-1.16s0.88,0.4,0.88,1.09v0.74h1.72v-0.59c0-1.65-0.55-2.81-2.63-2.81c-1.98,0-2.73,1.27-2.73,3.03
			v5.46C14.49,25.65,15.25,26.91,17.24,26.91 M16.36,22.2c0.03-0.63,0.3-1.02,0.89-1.02c0.64,0,0.89,0.4,0.89,1.12v1.95
			c0,0.71-0.26,1.12-0.91,1.12c-0.63,0-0.88-0.43-0.88-1.12V22.2z"/>
	</g>
	<g>
		<path class="st17" d="M24.6,18.93l-0.2,1.04h-0.53l0.99-5.16h0.83l0.99,5.16h-0.58l-0.2-1.04H24.6z M24.68,18.44h1.15l-0.58-2.98
			L24.68,18.44z"/>
		<path class="st17" d="M29.41,16.06v0.44h-0.55v-0.47c0-0.46-0.18-0.75-0.6-0.75c-0.41,0-0.6,0.28-0.6,0.75v2.73
			c0,0.46,0.19,0.75,0.6,0.75c0.42,0,0.6-0.28,0.6-0.75v-1.03h-0.53v-0.52h1.08v1.52c0,0.78-0.37,1.3-1.16,1.3
			c-0.79,0-1.16-0.52-1.16-1.3v-2.67c0-0.78,0.37-1.3,1.16-1.3C29.04,14.76,29.41,15.28,29.41,16.06z"/>
		<path class="st17" d="M30.5,18.76c0,0.46,0.18,0.75,0.6,0.75c0.41,0,0.6-0.28,0.6-0.75v-3.95h0.54v3.92
			c0,0.78-0.36,1.31-1.16,1.31c-0.79,0-1.15-0.52-1.15-1.31v-3.92h0.57V18.76z"/>
		<path class="st17" d="M33.39,18.93l-0.2,1.04h-0.53l0.99-5.16h0.83l0.99,5.16H34.9l-0.2-1.04H33.39z M33.47,18.44h1.15l-0.58-2.98
			L33.47,18.44z"/>
		<path class="st17" d="M37.07,19.97v-5.16h0.58v4.64h1.47v0.52H37.07z"/>
		<path class="st17" d="M40.13,14.81v5.16h-0.58v-5.16H40.13z"/>
		<path class="st17" d="M42.62,19.97h-0.55l-0.86-4.11v4.12h-0.5v-5.16h0.8l0.85,4.12l0.82-4.12h0.8v5.16h-0.54v-4.15L42.62,19.97z"
			/>
		<path class="st17" d="M45.7,14.81c0.81,0,1.16,0.48,1.16,1.26v0.62c0,0.82-0.38,1.25-1.2,1.25h-0.51v2.04h-0.57v-5.16H45.7z
			 M45.66,17.42c0.43,0,0.63-0.2,0.63-0.69v-0.69c0-0.47-0.17-0.71-0.59-0.71h-0.55v2.09H45.66z"/>
		<path class="st17" d="M47.91,14.81v5.16h-0.58v-5.16H47.91z"/>
		<path class="st17" d="M49.08,18.93l-0.2,1.04h-0.53l0.99-5.16h0.83l0.99,5.16h-0.58l-0.2-1.04H49.08z M49.15,18.44h1.15
			l-0.58-2.98L49.15,18.44z"/>
		<path class="st17" d="M53.67,18.12l-1.09-3.31h0.6l0.8,2.54l0.81-2.54h0.55l-1.1,3.31v1.85h-0.57V18.12z"/>
		<path class="st17" d="M26.26,23.43v0.14h-0.55V23.4c0-0.46-0.18-0.74-0.59-0.74c-0.41,0-0.59,0.27-0.59,0.73
			c0,1.16,1.73,1.27,1.73,2.72c0,0.78-0.38,1.29-1.17,1.29c-0.79,0-1.16-0.51-1.16-1.29v-0.29h0.54v0.33c0,0.46,0.19,0.74,0.6,0.74
			c0.41,0,0.6-0.27,0.6-0.74c0-1.15-1.73-1.26-1.73-2.71c0-0.8,0.37-1.29,1.14-1.29C25.89,22.13,26.26,22.64,26.26,23.43z"/>
		<path class="st17" d="M27.35,26.31l-0.2,1.04h-0.53l0.99-5.16h0.83l0.99,5.16h-0.58l-0.2-1.04H27.35z M27.42,25.81h1.15
			l-0.58-2.98L27.42,25.81z"/>
		<path class="st17" d="M30.38,27.35h-0.52v-5.16h0.73l1.19,3.73v-3.73h0.51v5.16h-0.6l-1.32-4.17V27.35z"/>
		<path class="st17" d="M34.73,24.47v0.52h-1.26v1.84h1.55v0.52h-2.12v-5.16h2.12v0.52h-1.55v1.76H34.73z"/>
		<path class="st17" d="M36.13,26.31l-0.2,1.04H35.4l0.99-5.16h0.83l0.99,5.16h-0.58l-0.2-1.04H36.13z M36.2,25.81h1.15l-0.58-2.98
			L36.2,25.81z"/>
		<path class="st17" d="M40.56,27.34h-0.55l-0.86-4.11v4.12h-0.5v-5.16h0.8l0.85,4.12l0.82-4.12h0.8v5.16h-0.55V23.2L40.56,27.34z"
			/>
		<path class="st17" d="M43.09,22.19v5.16h-0.58v-5.16H43.09z"/>
		<path class="st17" d="M45.52,24.47v0.52h-1.26v1.84h1.55v0.52h-2.12v-5.16h2.12v0.52h-1.55v1.76H45.52z"/>
		<path class="st17" d="M46.84,27.35h-0.52v-5.16h0.73l1.2,3.73v-3.73h0.51v5.16h-0.6l-1.32-4.17V27.35z"/>
		<path class="st17" d="M50.1,27.35v-4.64h-0.95v-0.52h2.48v0.52h-0.95v4.64H50.1z"/>
		<path class="st17" d="M51.98,23.43c0-0.79,0.39-1.3,1.18-1.3c0.8,0,1.19,0.51,1.19,1.3v2.67c0,0.78-0.39,1.3-1.19,1.3
			c-0.79,0-1.18-0.52-1.18-1.3V23.43z M52.55,26.13c0,0.47,0.2,0.75,0.61,0.75c0.42,0,0.61-0.27,0.61-0.75V23.4
			c0-0.46-0.19-0.75-0.61-0.75c-0.41,0-0.61,0.28-0.61,0.75V26.13z"/>
	</g>
</g>
</svg>
