<?xml version="1.0" standalone="no"?>
<!DOCTYPE svg PUBLIC "-//W3C//DTD SVG 20010904//EN"
 "http://www.w3.org/TR/2001/REC-SVG-20010904/DTD/svg10.dtd">
<svg version="1.0" xmlns="http://www.w3.org/2000/svg"
 width="1072.000000pt" height="467.000000pt" viewBox="0 0 1072.000000 467.000000"
 preserveAspectRatio="xMidYMid meet">
<metadata>
Created by potrace 1.16, written by Peter Selinger 2001-2019
</metadata>
<g transform="translate(0.000000,467.000000) scale(0.100000,-0.100000)"
fill="#000000" stroke="none">
<path d="M1692 3760 c-170 -17 -355 -71 -515 -151 -244 -124 -492 -372 -616
-616 -175 -347 -204 -748 -81 -1114 152 -455 533 -808 999 -924 495 -123 1003
16 1361 375 202 201 330 438 392 723 31 145 31 427 0 569 -98 446 -364 793
-761 992 -234 118 -516 171 -779 146z m-549 -1794 c333 -95 521 -146 540 -146
12 0 151 41 310 92 l287 92 0 488 c0 268 4 488 8 488 5 0 18 -10 30 -23 l22
-23 -2 -488 -3 -488 -314 -99 c-172 -54 -323 -99 -335 -99 -22 0 -631 165
-648 176 -4 3 -8 230 -8 504 l0 499 28 21 27 22 3 -501 2 -500 53 -15z m263
867 l254 -146 0 -409 c0 -224 -2 -408 -4 -408 -9 0 -473 141 -493 150 l-23 10
0 475 c0 261 3 475 6 475 4 0 121 -66 260 -147z m824 -331 l0 -478 -247 -74
c-137 -40 -254 -75 -260 -78 -10 -3 -13 82 -13 405 l0 409 253 146 c138 81
255 147 260 148 4 0 7 -215 7 -478z m400 -35 l0 -422 -30 -104 c-16 -57 -31
-105 -33 -107 -2 -3 -18 45 -35 105 l-32 110 0 420 0 421 65 0 65 0 0 -423z"/>
<path d="M4090 3036 c0 -1 -97 -247 -215 -546 l-215 -543 0 -79 0 -78 220 0
220 0 0 -120 0 -120 125 0 125 0 0 120 0 120 50 0 50 0 0 105 0 105 -50 0 -50
0 0 520 0 520 -130 0 c-71 0 -130 -2 -130 -4z m20 -751 l0 -285 -106 0 c-81 0
-105 3 -102 13 54 151 204 557 206 557 1 0 2 -128 2 -285z"/>
<path d="M5080 2720 l0 -320 130 0 130 0 0 50 0 50 -75 0 -75 0 0 90 0 90 50
0 50 0 0 45 0 45 -50 0 -50 0 0 85 0 85 75 0 75 0 0 50 0 50 -130 0 -130 0 0
-320z"/>
<path d="M5380 2720 l0 -322 113 4 c201 7 212 23 212 318 0 176 -3 210 -18
240 -29 59 -65 73 -194 78 l-113 5 0 -323z m192 203 c16 -14 18 -35 18 -204 0
-207 -3 -219 -61 -219 l-29 0 0 220 0 220 27 0 c14 0 35 -7 45 -17z"/>
<path d="M5750 2798 c1 -282 6 -318 49 -361 28 -29 38 -32 103 -35 64 -3 78
-1 108 20 55 37 59 62 59 356 l1 262 -55 0 -55 0 0 -259 c0 -223 -2 -262 -16
-275 -20 -21 -37 -20 -57 2 -15 16 -17 50 -17 275 l0 257 -60 0 -60 0 0 -242z"/>
<path d="M6192 3023 c-64 -31 -72 -65 -72 -304 0 -176 3 -217 17 -246 25 -53
65 -73 146 -73 63 0 70 2 105 34 l37 34 3 101 4 101 -50 0 -50 0 -4 -76 c-3
-60 -7 -79 -23 -90 -25 -18 -31 -18 -55 6 -19 19 -20 33 -20 210 0 177 1 191
20 210 24 24 30 24 55 6 13 -10 20 -30 23 -75 l4 -61 49 0 49 0 0 71 c0 83
-20 133 -61 154 -37 20 -136 19 -177 -2z"/>
<path d="M6561 2988 c-6 -29 -31 -163 -56 -298 -26 -135 -49 -255 -52 -267 -5
-22 -2 -23 51 -23 61 0 57 -5 71 83 6 37 6 37 55 37 53 0 53 0 65 -77 l7 -43
60 0 60 0 -6 28 c-8 37 -116 603 -116 608 0 2 -29 4 -64 4 l-65 0 -10 -52z"/>
<path d="M6904 3021 c-58 -35 -64 -65 -64 -301 0 -177 3 -218 17 -247 24 -52
65 -73 144 -73 111 0 149 48 149 190 l0 80 -49 0 -49 0 -4 -76 c-3 -60 -7 -79
-23 -90 -25 -18 -31 -18 -55 6 -19 19 -20 33 -20 210 0 177 1 191 20 210 24
24 30 24 55 6 13 -10 20 -30 23 -75 l4 -61 49 0 49 0 0 71 c0 125 -39 169
-152 169 -44 0 -72 -6 -94 -19z"/>
<path d="M7200 2720 l0 -320 55 0 55 0 0 320 0 320 -55 0 -55 0 0 -320z"/>
<path d="M7433 3020 c-63 -38 -68 -60 -68 -300 0 -239 5 -261 68 -301 26 -16
45 -19 104 -17 64 3 76 7 103 33 45 44 52 84 48 309 -3 223 -7 237 -71 276
-44 27 -140 27 -184 0z m135 -286 c1 -104 0 -199 -3 -210 -7 -30 -33 -38 -61
-19 -24 15 -24 16 -24 215 0 194 1 199 22 214 19 13 25 14 43 2 19 -13 20 -25
23 -202z"/>
<path d="M7740 2720 l0 -320 50 0 50 0 1 173 c0 110 4 163 9 147 5 -14 30 -91
55 -172 l46 -148 50 0 49 0 0 320 0 320 -50 0 -49 0 -3 -151 -3 -151 -46 148
-46 149 -57 3 -56 3 0 -321z"/>
<path d="M5923 2150 c-66 -40 -68 -50 -68 -300 0 -250 4 -267 68 -305 40 -24
130 -24 174 -1 49 25 63 61 63 166 l0 90 -50 0 -50 0 0 -74 c0 -94 -21 -122
-71 -96 -18 10 -19 23 -19 213 0 213 3 227 45 227 34 0 45 -20 45 -82 l0 -58
50 0 50 0 0 75 c0 91 -17 131 -65 151 -50 21 -133 18 -172 -6z"/>
<path d="M5080 1845 l0 -315 103 0 c114 0 155 14 191 63 19 26 21 45 24 234 5
312 -8 333 -205 333 l-113 0 0 -315z m181 215 c18 -10 19 -23 19 -208 0 -141
-3 -201 -12 -210 -7 -7 -27 -12 -45 -12 l-33 0 0 220 0 220 26 0 c14 0 34 -5
45 -10z"/>
<path d="M5450 1845 l0 -315 130 0 130 0 0 50 0 50 -75 0 -75 0 0 90 0 90 55
0 55 0 0 45 0 45 -55 0 -55 0 0 85 0 85 75 0 75 0 0 45 0 45 -130 0 -130 0 0
-315z"/>
<path d="M6300 2153 c0 -4 -25 -138 -55 -298 -30 -159 -55 -298 -55 -307 0
-15 9 -18 54 -18 l54 0 7 60 7 61 52 -3 51 -3 9 -57 8 -58 59 0 c41 0 59 4 59
13 -1 6 -27 147 -58 312 l-57 300 -68 3 c-37 2 -67 -1 -67 -5z"/>
<path d="M6580 1845 l0 -315 120 0 120 0 0 50 0 50 -60 0 -60 0 0 265 0 265
-60 0 -60 0 0 -315z"/>
<path d="M6860 1845 l0 -315 60 0 60 0 0 315 0 315 -60 0 -60 0 0 -315z"/>
<path d="M7030 1845 l0 -315 103 0 c114 0 155 14 191 63 19 26 21 45 24 234 5
312 -8 333 -205 333 l-113 0 0 -315z m181 215 c18 -10 19 -23 19 -208 0 -141
-3 -201 -12 -210 -7 -7 -27 -12 -45 -12 l-33 0 0 220 0 220 26 0 c14 0 34 -5
45 -10z"/>
<path d="M7427 1853 c-32 -170 -57 -311 -57 -315 0 -5 24 -8 54 -8 l54 0 8 58
9 57 51 3 52 3 8 -58 9 -58 58 -3 c41 -2 57 1 57 10 0 7 -25 149 -57 316 l-57
302 -66 0 -65 0 -58 -307z"/>
<path d="M7770 1845 l0 -315 103 0 c114 0 155 14 191 63 19 26 21 45 24 234 5
312 -8 333 -205 333 l-113 0 0 -315z m181 215 c18 -10 19 -23 19 -208 0 -141
-3 -201 -12 -210 -7 -7 -27 -12 -45 -12 l-33 0 0 220 0 220 26 0 c14 0 34 -5
45 -10z"/>
</g>
</svg>
