<?xml version="1.0" encoding="utf-8"?>
<!-- Generator: Adobe Illustrator 24.0.2, SVG Export Plug-In . SVG Version: 6.00 Build 0)  -->
<svg version="1.1" id="Capa_1" xmlns="http://www.w3.org/2000/svg" xmlns:xlink="http://www.w3.org/1999/xlink" x="0px" y="0px"
	 viewBox="0 0 69.82 69.82" style="enable-background:new 0 0 69.82 69.82;" xml:space="preserve">
<style type="text/css">
	.st0{fill:#D3A13C;}
	.st1{fill:#4D9748;}
	.st2{fill:#D32E3C;}
	.st3{fill:#E0432F;}
	.st4{fill:#2DAFD2;}
	.st5{fill:#B8252F;}
	.st6{fill:#9A2142;}
	.st7{fill:#E46831;}
	.st8{fill:#EEBB27;}
	.st9{fill:#EE9830;}
	.st10{fill:#B6872F;}
	.st11{fill:#CE2364;}
	.st12{fill:#268BC3;}
	.st13{fill:#5DAE49;}
	.st14{fill:#427D44;}
	.st15{fill:#1C4769;}
	.st16{fill:#0B6695;}
	.st17{fill:#FFFFFF;}
	.st18{fill-rule:evenodd;clip-rule:evenodd;fill:#00A0DB;}
	.st19{fill-rule:evenodd;clip-rule:evenodd;fill:#0782BE;}
	.st20{fill-rule:evenodd;clip-rule:evenodd;fill:#FFFFFF;}
	.st21{fill-rule:evenodd;clip-rule:evenodd;fill:#E86537;}
	.st22{fill-rule:evenodd;clip-rule:evenodd;fill:#034569;}
	.st23{fill-rule:evenodd;clip-rule:evenodd;fill:#DE2A66;}
	.st24{fill-rule:evenodd;clip-rule:evenodd;fill:#057C40;}
	.st25{fill-rule:evenodd;clip-rule:evenodd;fill:#CF9521;}
	.st26{fill-rule:evenodd;clip-rule:evenodd;fill:#B31D42;}
	.st27{fill-rule:evenodd;clip-rule:evenodd;fill:#D9272E;}
	.st28{fill-rule:evenodd;clip-rule:evenodd;fill:#E34538;}
	.st29{fill-rule:evenodd;clip-rule:evenodd;fill:#EF9431;}
	.st30{fill-rule:evenodd;clip-rule:evenodd;fill:#ECB129;}
	.st31{fill-rule:evenodd;clip-rule:evenodd;fill:#F7BC13;}
	.st32{fill-rule:evenodd;clip-rule:evenodd;fill:#19A240;}
	.st33{fill-rule:evenodd;clip-rule:evenodd;fill:#02983B;}
	.st34{fill-rule:evenodd;clip-rule:evenodd;fill:#E13244;}
	.st35{fill-rule:evenodd;clip-rule:evenodd;fill:#066698;}
	.st36{fill-rule:evenodd;clip-rule:evenodd;fill:#008CC4;}
	.st37{fill-rule:evenodd;clip-rule:evenodd;fill:#00A3C6;}
	.st38{fill-rule:evenodd;clip-rule:evenodd;fill:#067FC2;stroke:#067FC2;stroke-width:0.25;stroke-miterlimit:22.9256;}
	.st39{fill:none;stroke:#067FC2;stroke-width:0.25;stroke-miterlimit:22.9256;}
	.st40{fill:none;stroke:#119AD7;stroke-width:0.25;stroke-miterlimit:22.9256;}
	.st41{fill-rule:evenodd;clip-rule:evenodd;fill:#067FC2;}
</style>
<circle class="st8" cx="34.91" cy="34.91" r="34.91"/>
<polygon class="st17" points="13.52,14.6 16.43,14.6 13.91,24.27 15.78,24.27 18.25,14.8 18.25,13.06 13.52,13.06 "/>
<g>
	<path class="st17" d="M23.84,15.46v0.43h-1.06v1.54h1.3v0.44H22.3v-4.33h1.78v0.44h-1.3v1.48H23.84z"/>
	<path class="st17" d="M24.96,17.88h-0.43v-4.33h0.61l1,3.13v-3.13h0.43v4.33h-0.5l-1.11-3.5V17.88z"/>
	<path class="st17" d="M28.6,15.46v0.43h-1.06v1.54h1.3v0.44h-1.78v-4.33h1.78v0.44h-1.3v1.48H28.6z"/>
	<path class="st17" d="M30.25,13.55c0.68,0,0.97,0.35,0.97,0.99v0.35c0,0.48-0.17,0.77-0.54,0.89c0.4,0.12,0.54,0.44,0.54,0.9v0.67
		c0,0.19,0.01,0.37,0.09,0.52h-0.49c-0.06-0.12-0.08-0.24-0.08-0.53v-0.68c0-0.49-0.23-0.64-0.63-0.64h-0.34v1.85h-0.48v-4.33H30.25
		z M30.13,15.59c0.38,0,0.61-0.12,0.61-0.59v-0.41c0-0.39-0.14-0.59-0.5-0.59h-0.47v1.6H30.13z"/>
	<path class="st17" d="M33.64,14.59v0.37h-0.46v-0.4c0-0.39-0.15-0.63-0.51-0.63c-0.35,0-0.51,0.24-0.51,0.63v2.29
		c0,0.39,0.16,0.63,0.51,0.63c0.35,0,0.51-0.24,0.51-0.63v-0.87h-0.45v-0.43h0.9v1.27c0,0.66-0.31,1.09-0.98,1.09
		c-0.66,0-0.97-0.43-0.97-1.09v-2.24c0-0.66,0.31-1.09,0.97-1.09C33.33,13.5,33.64,13.93,33.64,14.59z"/>
	<path class="st17" d="M34.47,12.67h0.48l-0.58,0.64h-0.33L34.47,12.67z M34.1,13.55h0.48v4.33H34.1V13.55z"/>
	<path class="st17" d="M35.56,17.01l-0.17,0.87h-0.45l0.83-4.33h0.7l0.83,4.33h-0.48l-0.17-0.87H35.56z M35.62,16.59h0.96l-0.49-2.5
		L35.62,16.59z"/>
	<path class="st17" d="M24.18,20.77v0.12h-0.46v-0.14c0-0.39-0.15-0.62-0.5-0.62c-0.35,0-0.5,0.23-0.5,0.61
		c0,0.97,1.45,1.06,1.45,2.28c0,0.66-0.32,1.08-0.98,1.08c-0.66,0-0.97-0.43-0.97-1.08v-0.25h0.45v0.27c0,0.39,0.16,0.62,0.51,0.62
		c0.35,0,0.51-0.23,0.51-0.62c0-0.97-1.45-1.06-1.45-2.28c0-0.67,0.31-1.08,0.96-1.08C23.87,19.69,24.18,20.12,24.18,20.77z"/>
	<path class="st17" d="M25.06,23.04c0,0.39,0.15,0.63,0.51,0.63c0.35,0,0.5-0.23,0.5-0.63v-3.31h0.45v3.29c0,0.66-0.3,1.1-0.97,1.1
		c-0.66,0-0.96-0.44-0.96-1.1v-3.29h0.48V23.04z"/>
	<path class="st17" d="M28.87,20.77v0.12h-0.46v-0.14c0-0.39-0.15-0.62-0.5-0.62c-0.35,0-0.49,0.23-0.49,0.61
		c0,0.97,1.45,1.06,1.45,2.28c0,0.66-0.32,1.08-0.98,1.08c-0.66,0-0.97-0.43-0.97-1.08v-0.25h0.45v0.27c0,0.39,0.16,0.62,0.51,0.62
		c0.35,0,0.51-0.23,0.51-0.62c0-0.97-1.45-1.06-1.45-2.28c0-0.67,0.31-1.08,0.96-1.08C28.56,19.69,28.87,20.12,28.87,20.77z"/>
	<path class="st17" d="M29.93,24.07v-3.89h-0.8v-0.44h2.07v0.44h-0.8v3.89H29.93z"/>
	<path class="st17" d="M33.07,21.65v0.43h-1.06v1.54h1.3v0.44h-1.78v-4.33h1.78v0.44h-1.3v1.48H33.07z"/>
	<path class="st17" d="M34.18,24.07h-0.43v-4.33h0.61l1,3.13v-3.13h0.43v4.33h-0.5l-1.11-3.5V24.07z"/>
	<path class="st17" d="M36.91,24.07v-3.89h-0.8v-0.44h2.07v0.44h-0.8v3.89H36.91z"/>
	<path class="st17" d="M38.77,23.19l-0.17,0.87h-0.45l0.83-4.33h0.7l0.83,4.33h-0.48l-0.17-0.87H38.77z M38.83,22.78h0.97l-0.49-2.5
		L38.83,22.78z"/>
	<path class="st17" d="M41.86,19.73c0.67,0,0.94,0.32,0.94,0.96v0.2c0,0.46-0.13,0.74-0.51,0.86c0.42,0.12,0.58,0.45,0.58,0.93v0.37
		c0,0.65-0.32,1.01-0.99,1.01h-1v-4.33H41.86z M41.74,21.57c0.38,0,0.58-0.12,0.58-0.58v-0.25c0-0.38-0.13-0.57-0.48-0.57h-0.48v1.4
		H41.74z M41.89,23.63c0.35,0,0.51-0.19,0.51-0.59v-0.38c0-0.48-0.19-0.64-0.61-0.64h-0.42v1.62H41.89z"/>
	<path class="st17" d="M43.32,24.07v-4.33h0.48v3.89h1.24v0.44H43.32z"/>
	<path class="st17" d="M46.94,21.65v0.43h-1.06v1.54h1.3v0.44H45.4v-4.33h1.78v0.44h-1.3v1.48H46.94z"/>
	<path class="st17" d="M23.07,28.74l-0.91-2.78h0.5l0.67,2.13l0.68-2.13h0.46l-0.92,2.78v1.55h-0.48V28.74z"/>
	<path class="st17" d="M26.2,30.29h-0.43v-4.33h0.61l1,3.13v-3.13h0.43v4.33h-0.5l-1.11-3.5V30.29z"/>
	<path class="st17" d="M28.27,27c0-0.66,0.33-1.09,0.99-1.09c0.67,0,1,0.43,1,1.09v2.24c0,0.66-0.33,1.09-1,1.09
		c-0.66,0-0.99-0.43-0.99-1.09V27z M28.74,29.27c0,0.4,0.17,0.62,0.51,0.62c0.35,0,0.51-0.23,0.51-0.62v-2.29
		c0-0.39-0.16-0.63-0.51-0.63c-0.35,0-0.51,0.24-0.51,0.63V29.27z"/>
	<path class="st17" d="M34.43,27v0.39h-0.46v-0.42c0-0.39-0.16-0.63-0.51-0.63c-0.35,0-0.51,0.24-0.51,0.63v2.29
		c0,0.39,0.16,0.62,0.51,0.62c0.35,0,0.51-0.23,0.51-0.62V28.7h0.46v0.54c0,0.66-0.31,1.09-0.98,1.09c-0.66,0-0.97-0.43-0.97-1.09
		V27c0-0.66,0.31-1.09,0.97-1.09C34.12,25.91,34.43,26.35,34.43,27z"/>
	<path class="st17" d="M34.83,27c0-0.66,0.33-1.09,0.99-1.09c0.67,0,1,0.43,1,1.09v2.24c0,0.66-0.33,1.09-1,1.09
		c-0.66,0-0.99-0.43-0.99-1.09V27z M35.31,29.27c0,0.4,0.17,0.62,0.51,0.62c0.35,0,0.51-0.23,0.51-0.62v-2.29
		c0-0.39-0.16-0.63-0.51-0.63c-0.35,0-0.51,0.24-0.51,0.63V29.27z"/>
	<path class="st17" d="M37.7,30.29h-0.43v-4.33h0.61l1,3.13v-3.13h0.43v4.33h-0.5l-1.11-3.5V30.29z"/>
	<path class="st17" d="M40.43,30.29V26.4h-0.8v-0.44h2.07v0.44h-0.8v3.89H40.43z"/>
	<path class="st17" d="M42.29,29.42l-0.17,0.87h-0.45l0.83-4.33h0.7l0.83,4.33h-0.48l-0.17-0.87H42.29z M42.35,29h0.96l-0.49-2.5
		L42.35,29z"/>
	<path class="st17" d="M46.01,30.28h-0.46l-0.72-3.45v3.45H44.4v-4.33h0.67l0.71,3.46l0.69-3.46h0.67v4.33h-0.46V26.8L46.01,30.28z"
		/>
	<path class="st17" d="M48.13,25.96v4.33h-0.48v-4.33H48.13z"/>
	<path class="st17" d="M49.05,30.29h-0.43v-4.33h0.61l1,3.13v-3.13h0.43v4.33h-0.5l-1.11-3.5V30.29z"/>
	<path class="st17" d="M51.64,29.42l-0.17,0.87h-0.45l0.83-4.33h0.7l0.83,4.33h-0.48l-0.17-0.87H51.64z M51.71,29h0.96l-0.49-2.5
		L51.71,29z"/>
	<path class="st17" d="M54.19,30.29h-0.43v-4.33h0.61l1,3.13v-3.13h0.43v4.33h-0.5l-1.11-3.5V30.29z"/>
	<path class="st17" d="M56.92,30.29V26.4h-0.8v-0.44h2.07v0.44h-0.8v3.89H56.92z"/>
	<path class="st17" d="M60.07,27.87v0.43h-1.06v1.54h1.3v0.44h-1.78v-4.33h1.78v0.44h-1.3v1.48H60.07z"/>
</g>
<g>
	<g>
		<path class="st17" d="M34.91,41.64c-3.95,0-7.14,3.2-7.14,7.14c0,3.95,3.2,7.15,7.14,7.15c3.95,0,7.14-3.2,7.14-7.15
			C42.05,44.84,38.86,41.64,34.91,41.64 M34.38,44.46c0-0.24,0.24-0.5,0.53-0.5c0.29,0,0.53,0.26,0.53,0.5v2.45
			c0,0.24-0.24,0.5-0.53,0.5c-0.29,0-0.53-0.26-0.53-0.5V44.46z M34.91,52.45c-2.05,0-3.72-1.66-3.72-3.72
			c0-1.67,1.1-3.08,2.61-3.55v1.38c-0.79,0.4-1.33,1.22-1.33,2.17c0,1.34,1.09,2.43,2.43,2.43c1.34,0,2.43-1.09,2.43-2.43
			c0-0.95-0.54-1.77-1.33-2.17v-1.38c1.52,0.47,2.62,1.88,2.62,3.55C38.63,50.78,36.96,52.45,34.91,52.45"/>
	</g>
	<g>
		<path class="st17" d="M26.71,48.72c0-0.32-0.29-0.59-0.55-0.59h-3.13c-0.26,0-0.55,0.26-0.55,0.59c0,0.33,0.29,0.59,0.55,0.59
			h3.13C26.42,49.31,26.71,49.05,26.71,48.72"/>
	</g>
	<g>
		<path class="st17" d="M47.35,48.72c0-0.32-0.29-0.59-0.55-0.59h-3.13c-0.26,0-0.55,0.26-0.55,0.59c0,0.33,0.29,0.59,0.55,0.59
			h3.13C47.06,49.31,47.35,49.05,47.35,48.72"/>
	</g>
	<g>
		<path class="st17" d="M34.91,40.52c0.32,0,0.59-0.29,0.59-0.55v-3.13c0-0.26-0.26-0.55-0.59-0.55c-0.32,0-0.59,0.29-0.59,0.55
			v3.13C34.32,40.23,34.59,40.52,34.91,40.52"/>
	</g>
	<g>
		<path class="st17" d="M34.91,61.16c0.32,0,0.59-0.29,0.59-0.55v-3.13c0-0.26-0.26-0.55-0.59-0.55c-0.32,0-0.59,0.29-0.59,0.55
			v3.13C34.32,60.87,34.59,61.16,34.91,61.16"/>
	</g>
	<g>
		<path class="st17" d="M27.79,44.65c0.16-0.28,0.04-0.65-0.19-0.78l-2.71-1.55c-0.23-0.13-0.61-0.05-0.77,0.23
			c-0.16,0.28-0.04,0.66,0.19,0.79l2.71,1.55C27.25,45.02,27.63,44.93,27.79,44.65"/>
	</g>
	<g>
		<path class="st17" d="M45.7,54.9c0.16-0.28,0.04-0.65-0.19-0.78l-2.71-1.55c-0.23-0.13-0.61-0.05-0.77,0.23
			c-0.16,0.28-0.04,0.65,0.19,0.79l2.72,1.55C45.16,55.27,45.54,55.18,45.7,54.9"/>
	</g>
	<g>
		<path class="st17" d="M38.99,41.61c0.28,0.16,0.65,0.04,0.78-0.19l1.55-2.71c0.13-0.23,0.05-0.61-0.23-0.77
			c-0.28-0.16-0.65-0.04-0.79,0.19l-1.55,2.71C38.62,41.06,38.71,41.44,38.99,41.61"/>
	</g>
	<g>
		<path class="st17" d="M28.74,59.52c0.28,0.16,0.65,0.04,0.78-0.19l1.55-2.71c0.13-0.23,0.05-0.61-0.23-0.77
			c-0.28-0.16-0.65-0.04-0.79,0.19l-1.55,2.72C28.37,58.97,28.46,59.35,28.74,59.52"/>
	</g>
	<g>
		<path class="st17" d="M30.82,41.61c0.28-0.16,0.37-0.54,0.23-0.77l-1.56-2.71c-0.13-0.23-0.5-0.35-0.78-0.19
			c-0.28,0.16-0.37,0.54-0.23,0.77l1.56,2.71C30.17,41.66,30.54,41.77,30.82,41.61"/>
	</g>
	<g>
		<path class="st17" d="M41.11,59.5c0.28-0.16,0.37-0.54,0.23-0.77l-1.56-2.71c-0.13-0.23-0.5-0.35-0.78-0.19
			c-0.28,0.16-0.37,0.54-0.23,0.77l1.56,2.71C40.46,59.55,40.83,59.66,41.11,59.5"/>
	</g>
	<g>
		<path class="st17" d="M42.02,44.64c0.16,0.28,0.54,0.37,0.77,0.23l2.71-1.56c0.23-0.13,0.35-0.5,0.19-0.78
			c-0.16-0.28-0.54-0.37-0.77-0.23l-2.71,1.56C41.98,43.98,41.86,44.35,42.02,44.64"/>
	</g>
	<g>
		<path class="st17" d="M24.13,54.92c0.16,0.28,0.54,0.37,0.77,0.23l2.71-1.56c0.23-0.13,0.35-0.5,0.19-0.78
			c-0.16-0.28-0.54-0.37-0.77-0.23l-2.71,1.56C24.09,54.27,23.97,54.64,24.13,54.92"/>
	</g>
</g>
</svg>
