<?xml version="1.0" standalone="no"?>
<!DOCTYPE svg PUBLIC "-//W3C//DTD SVG 20010904//EN"
 "http://www.w3.org/TR/2001/REC-SVG-20010904/DTD/svg10.dtd">
<svg version="1.0" xmlns="http://www.w3.org/2000/svg"
 width="1072.000000pt" height="467.000000pt" viewBox="0 0 1072.000000 467.000000"
 preserveAspectRatio="xMidYMid meet">
<metadata>
Created by potrace 1.16, written by Peter Selinger 2001-2019
</metadata>
<g transform="translate(0.000000,467.000000) scale(0.100000,-0.100000)"
fill="#000000" stroke="none">
<path d="M6396 3420 c-15 -5 -37 -17 -48 -27 -45 -40 -48 -61 -48 -291 0 -211
1 -220 23 -253 33 -50 80 -71 150 -66 66 4 103 26 129 78 15 29 18 64 18 244
0 245 -5 265 -80 303 -46 23 -94 27 -144 12z m98 -112 c13 -18 16 -56 16 -203
0 -147 -3 -185 -16 -203 -19 -27 -60 -29 -74 -3 -6 12 -10 97 -10 207 0 160 2
190 17 206 22 24 49 23 67 -4z"/>
<path d="M7506 3420 c-15 -5 -37 -17 -48 -27 -42 -37 -48 -71 -48 -290 0 -228
6 -255 62 -297 39 -28 132 -33 178 -9 51 26 70 72 70 171 l0 82 -50 0 -50 0 0
-59 c0 -79 -13 -111 -44 -111 -49 0 -56 27 -56 225 0 147 3 185 16 203 35 50
84 10 84 -70 l0 -48 50 0 50 0 0 65 c0 76 -18 127 -53 150 -30 19 -120 28
-161 15z"/>
<path d="M7866 3420 c-15 -5 -37 -17 -48 -27 -42 -37 -48 -71 -48 -290 0 -228
6 -255 62 -297 39 -28 132 -33 178 -9 51 26 70 72 70 171 l0 82 -50 0 -50 0 0
-59 c0 -79 -13 -111 -44 -111 -49 0 -56 27 -56 225 0 147 3 185 16 203 35 50
84 10 84 -70 l0 -48 50 0 50 0 0 74 c0 60 -4 79 -23 107 -34 51 -115 71 -191
49z"/>
<path d="M8396 3420 c-49 -16 -84 -58 -96 -117 -7 -32 -10 -125 -8 -231 3
-150 6 -183 22 -216 47 -94 215 -102 280 -13 19 26 21 45 24 242 3 196 2 218
-16 259 -13 29 -31 50 -52 61 -38 20 -115 28 -154 15z m101 -120 c9 -17 13
-78 13 -195 0 -184 -8 -217 -50 -223 -45 -7 -50 16 -50 224 0 164 2 195 16
209 23 22 56 15 71 -15z"/>
<path d="M5590 3105 l0 -315 55 0 55 0 0 104 0 104 65 4 c58 3 69 8 98 36 l32
32 3 123 c5 195 -24 227 -205 227 l-103 0 0 -315z m188 111 c3 -109 -4 -126
-49 -126 l-29 0 0 116 0 115 38 -3 37 -3 3 -99z"/>
<path d="M5940 3106 l0 -316 60 0 60 0 1 118 0 117 42 -117 42 -118 62 0 62 0
-44 123 c-24 67 -46 130 -50 139 -5 12 2 21 23 32 42 22 55 69 50 178 -4 84
-6 90 -36 121 -32 32 -32 32 -152 35 l-120 4 0 -316z"/>
<path d="M6670 3105 l0 -315 113 0 c93 0 117 3 144 20 59 35 63 55 63 297 0
201 -2 221 -20 251 -30 49 -72 62 -195 62 l-105 0 0 -315z m200 196 c6 -12 10
-96 10 -205 0 -180 -1 -185 -22 -200 -12 -9 -33 -16 -45 -16 l-23 0 0 220 0
220 35 0 c24 0 37 -6 45 -19z"/>
<path d="M7042 3153 c3 -248 5 -271 23 -303 12 -19 36 -43 55 -52 44 -22 121
-23 166 -2 65 31 69 47 72 352 l3 272 -55 0 -56 0 0 -258 c0 -271 -2 -282 -45
-282 -43 0 -45 11 -45 282 l0 258 -61 0 -60 0 3 -267z"/>
<path d="M8130 3105 l0 -315 55 0 55 0 0 315 0 315 -55 0 -55 0 0 -315z"/>
<path d="M8670 3105 l0 -315 50 0 50 0 1 173 c0 94 2 168 4 162 2 -5 27 -83
55 -172 l51 -163 49 0 50 0 0 315 0 315 -45 0 -45 0 -1 -162 -1 -163 -52 160
-52 160 -57 3 -57 3 0 -316z"/>
<path d="M4412 2992 c-142 -51 -192 -150 -192 -383 l0 -109 119 0 119 0 4 124
c3 116 5 126 27 150 34 36 88 36 122 0 23 -25 24 -31 24 -167 -1 -179 -7 -193
-157 -353 -146 -156 -185 -206 -222 -284 l-31 -65 -3 -202 -4 -203 331 0 331
0 0 110 0 110 -205 0 -205 0 0 68 c0 43 7 81 19 107 10 23 73 99 141 170 147
156 201 227 232 303 21 52 23 73 23 247 0 178 -2 193 -23 241 -49 107 -123
147 -287 151 -88 3 -121 0 -163 -15z"/>
<path d="M3763 2865 l-113 -134 0 -135 c0 -75 3 -136 6 -136 4 0 44 39 90 88
l83 87 1 -562 0 -563 125 0 125 0 0 745 0 745 -102 -1 -103 -1 -112 -133z"/>
<path d="M6122 2583 c-64 -31 -72 -65 -72 -305 0 -183 3 -218 18 -248 24 -48
72 -73 141 -73 114 0 151 46 151 187 l0 86 -50 0 -50 0 0 -62 c0 -35 -6 -74
-13 -88 -17 -33 -51 -37 -71 -8 -13 19 -16 54 -16 206 0 107 4 191 10 203 7
12 21 19 41 19 35 0 49 -27 49 -96 l0 -44 50 0 50 0 0 74 c0 81 -22 129 -70
153 -35 18 -129 16 -168 -4z"/>
<path d="M6479 2577 c-63 -42 -69 -66 -69 -302 0 -235 6 -262 70 -299 42 -25
132 -26 178 -2 67 35 72 55 72 301 0 248 -6 272 -71 307 -50 26 -137 24 -180
-5z m131 -96 c6 -12 10 -97 10 -207 0 -160 -2 -190 -17 -206 -21 -23 -38 -23
-63 2 -19 19 -20 33 -20 199 0 205 6 231 49 231 20 0 34 -7 41 -19z"/>
<path d="M7202 2580 c-40 -24 -62 -73 -62 -135 0 -69 22 -110 109 -199 44 -44
83 -93 86 -108 11 -43 -2 -77 -30 -84 -40 -10 -55 11 -55 77 l0 59 -55 0 -55
0 0 -66 c0 -77 21 -129 59 -148 70 -36 166 -26 214 22 26 26 31 40 35 91 8
105 0 122 -104 232 -99 105 -114 138 -78 173 34 35 74 6 74 -55 l0 -39 50 0
50 0 0 54 c0 72 -12 102 -52 126 -46 28 -141 27 -186 0z"/>
<path d="M8380 2582 c-19 -9 -43 -33 -55 -52 -18 -32 -20 -52 -20 -257 0 -208
1 -223 21 -249 39 -53 67 -66 139 -66 72 0 100 13 139 66 19 25 21 43 24 239
3 204 2 214 -20 257 -28 55 -73 80 -143 80 -28 0 -65 -8 -85 -18z m118 -94 c9
-9 12 -69 12 -209 0 -166 -2 -200 -16 -213 -8 -9 -22 -16 -29 -16 -7 0 -21 7
-29 16 -14 13 -16 47 -16 213 0 207 3 221 45 221 12 0 26 -5 33 -12z"/>
<path d="M5573 2578 c2 -8 30 -97 61 -199 54 -179 56 -188 56 -302 l0 -117 55
0 55 0 0 116 c0 120 6 145 116 497 5 16 0 18 -52 15 l-59 -3 -25 -97 c-14 -54
-27 -98 -30 -98 -3 0 -16 44 -30 98 l-25 97 -64 3 c-50 2 -62 0 -58 -10z"/>
<path d="M6780 2275 l0 -315 50 0 50 0 2 177 3 177 55 -177 55 -177 52 0 53 0
0 315 0 315 -50 0 -50 0 -1 -157 c0 -103 -4 -149 -9 -133 -5 14 -28 85 -51
158 l-41 132 -59 0 -59 0 0 -315z"/>
<path d="M7502 2310 l3 -280 31 -31 c53 -53 173 -60 226 -12 44 39 48 68 48
343 l0 260 -55 0 -55 0 0 -260 0 -260 -25 -12 c-21 -9 -28 -8 -45 7 -19 17
-20 31 -20 272 l0 253 -55 0 -56 0 3 -280z"/>
<path d="M7860 2275 l0 -315 50 0 50 0 1 158 2 157 31 -158 31 -158 30 3 29 3
32 175 32 175 1 -177 1 -178 50 0 50 0 0 315 0 315 -70 0 -69 0 -6 -32 c-4
-18 -16 -91 -28 -161 l-23 -129 -28 149 c-16 81 -31 154 -34 161 -3 8 -26 12
-68 12 l-64 0 0 -315z"/>
<path d="M6339 1771 c-74 -24 -99 -61 -99 -146 0 -78 17 -110 109 -208 77 -82
81 -89 81 -131 0 -53 -24 -75 -60 -56 -17 9 -20 21 -20 70 l0 60 -56 0 -56 0
4 -80 c3 -74 5 -82 35 -112 28 -28 40 -33 96 -36 114 -7 165 34 174 139 8 89
-13 132 -113 233 -71 73 -84 90 -84 119 0 39 15 57 47 57 26 0 43 -32 43 -81
0 -28 1 -29 50 -29 l50 0 0 58 c0 64 -13 97 -50 123 -29 21 -113 32 -151 20z"/>
<path d="M7047 1766 c-91 -34 -97 -54 -97 -318 0 -238 5 -257 72 -298 45 -27
131 -27 176 0 67 41 72 60 72 300 0 185 -2 220 -18 250 -32 63 -128 95 -205
66z m97 -108 c13 -18 16 -56 16 -206 0 -107 -4 -191 -10 -203 -14 -26 -66 -26
-80 0 -6 12 -10 96 -10 203 0 150 3 188 16 206 19 28 49 28 68 0z"/>
<path d="M7785 1771 c-74 -19 -105 -63 -105 -150 0 -74 17 -106 107 -201 44
-47 83 -97 86 -112 14 -54 -23 -99 -64 -78 -15 9 -19 22 -19 70 l0 60 -55 0
-55 0 0 -67 c0 -79 13 -109 59 -140 25 -17 48 -23 90 -23 109 0 161 52 161
163 0 81 -15 109 -114 214 -66 71 -86 99 -86 121 0 34 16 52 47 52 27 0 43
-27 43 -74 l0 -36 50 0 50 0 0 58 c0 64 -13 97 -50 123 -29 21 -102 31 -145
20z"/>
<path d="M9439 1771 c-74 -24 -99 -61 -99 -146 0 -79 18 -114 110 -210 76 -79
80 -86 80 -129 0 -53 -24 -75 -60 -56 -17 9 -20 21 -20 70 l0 60 -56 0 -56 0
4 -80 c3 -74 5 -82 35 -112 28 -28 40 -33 96 -36 118 -8 177 47 177 163 0 72
-27 119 -119 212 -69 70 -81 87 -81 116 0 39 15 57 47 57 26 0 43 -32 43 -81
0 -28 1 -29 50 -29 l50 0 0 58 c0 64 -13 97 -50 123 -29 21 -113 32 -151 20z"/>
<path d="M5590 1455 l0 -315 55 0 55 0 1 128 c0 70 3 120 6 112 3 -8 24 -66
45 -127 l40 -113 59 0 c32 0 59 3 59 8 0 4 -21 64 -46 134 l-46 128 35 33 c41
38 53 93 43 190 -11 112 -49 137 -206 137 l-100 0 0 -315z"/>
<path d="M5940 1455 l0 -315 130 0 130 0 0 45 0 45 -70 0 -70 0 0 90 0 90 50
0 50 0 0 50 0 50 -50 0 -50 0 0 80 0 80 70 0 70 0 0 50 0 50 -130 0 -130 0 0
-315z"/>
<path d="M6590 1456 l0 -316 60 0 60 0 0 105 0 105 50 0 c28 0 64 7 80 15 49
26 60 60 60 194 0 189 -14 204 -192 209 l-118 4 0 -316z m190 195 c5 -11 10
-54 10 -96 0 -92 -10 -115 -50 -115 l-30 0 0 115 0 115 30 0 c19 0 33 -7 40
-19z"/>
<path d="M7320 1455 l0 -315 50 0 50 0 1 173 1 172 18 -55 c11 -30 35 -108 55
-172 l37 -118 54 0 54 0 0 315 0 315 -50 0 -50 0 -2 -161 -3 -160 -50 160 -49
161 -58 0 -58 0 0 -315z"/>
<path d="M8125 1758 c-5 -14 -115 -599 -115 -611 0 -4 24 -7 54 -7 l54 0 9 53
8 52 52 3 51 3 7 -56 7 -55 59 0 c33 0 59 3 59 8 1 4 -25 145 -57 315 l-57
307 -63 0 c-42 0 -65 -4 -68 -12z"/>
<path d="M8410 1456 l0 -316 121 0 121 0 34 34 34 34 0 102 c0 99 -1 102 -29
131 -16 16 -25 29 -20 29 23 0 41 75 37 150 -8 126 -28 143 -185 148 l-113 4
0 -316z m178 -52 c19 -13 22 -24 22 -79 0 -73 -14 -95 -61 -95 l-29 0 0 95 c0
92 1 95 23 95 12 0 33 -7 45 -16z"/>
<path d="M8770 1455 l0 -315 115 0 115 0 0 45 0 45 -60 0 -60 0 0 270 0 270
-55 0 -55 0 0 -315z"/>
<path d="M9040 1455 l0 -315 130 0 130 0 0 45 0 45 -70 0 -70 0 0 90 0 90 50
0 50 0 0 50 0 50 -50 0 -50 0 0 80 0 80 70 0 70 0 0 50 0 50 -130 0 -130 0 0
-315z"/>
</g>
</svg>
