<?xml version="1.0" encoding="utf-8"?>
<!-- Generator: Adobe Illustrator 24.0.2, SVG Export Plug-In . SVG Version: 6.00 Build 0)  -->
<svg version="1.1" id="Capa_1" xmlns="http://www.w3.org/2000/svg" xmlns:xlink="http://www.w3.org/1999/xlink" x="0px" y="0px"
	 viewBox="0 0 69.82 69.82" style="enable-background:new 0 0 69.82 69.82;" xml:space="preserve">
<style type="text/css">
	.st0{fill:#D3A13C;}
	.st1{fill:#4D9748;}
	.st2{fill:#D32E3C;}
	.st3{fill:#E0432F;}
	.st4{fill:#2DAFD2;}
	.st5{fill:#B8252F;}
	.st6{fill:#9A2142;}
	.st7{fill:#E46831;}
	.st8{fill:#EEBB27;}
	.st9{fill:#EE9830;}
	.st10{fill:#B6872F;}
	.st11{fill:#CE2364;}
	.st12{fill:#268BC3;}
	.st13{fill:#5DAE49;}
	.st14{fill:#427D44;}
	.st15{fill:#1C4769;}
	.st16{fill:#0B6695;}
	.st17{fill:#FFFFFF;}
	.st18{fill-rule:evenodd;clip-rule:evenodd;fill:#00A0DB;}
	.st19{fill-rule:evenodd;clip-rule:evenodd;fill:#0782BE;}
	.st20{fill-rule:evenodd;clip-rule:evenodd;fill:#FFFFFF;}
	.st21{fill-rule:evenodd;clip-rule:evenodd;fill:#E86537;}
	.st22{fill-rule:evenodd;clip-rule:evenodd;fill:#034569;}
	.st23{fill-rule:evenodd;clip-rule:evenodd;fill:#DE2A66;}
	.st24{fill-rule:evenodd;clip-rule:evenodd;fill:#057C40;}
	.st25{fill-rule:evenodd;clip-rule:evenodd;fill:#CF9521;}
	.st26{fill-rule:evenodd;clip-rule:evenodd;fill:#B31D42;}
	.st27{fill-rule:evenodd;clip-rule:evenodd;fill:#D9272E;}
	.st28{fill-rule:evenodd;clip-rule:evenodd;fill:#E34538;}
	.st29{fill-rule:evenodd;clip-rule:evenodd;fill:#EF9431;}
	.st30{fill-rule:evenodd;clip-rule:evenodd;fill:#ECB129;}
	.st31{fill-rule:evenodd;clip-rule:evenodd;fill:#F7BC13;}
	.st32{fill-rule:evenodd;clip-rule:evenodd;fill:#19A240;}
	.st33{fill-rule:evenodd;clip-rule:evenodd;fill:#02983B;}
	.st34{fill-rule:evenodd;clip-rule:evenodd;fill:#E13244;}
	.st35{fill-rule:evenodd;clip-rule:evenodd;fill:#066698;}
	.st36{fill-rule:evenodd;clip-rule:evenodd;fill:#008CC4;}
	.st37{fill-rule:evenodd;clip-rule:evenodd;fill:#00A3C6;}
	.st38{fill-rule:evenodd;clip-rule:evenodd;fill:#067FC2;stroke:#067FC2;stroke-width:0.25;stroke-miterlimit:22.9256;}
	.st39{fill:none;stroke:#067FC2;stroke-width:0.25;stroke-miterlimit:22.9256;}
	.st40{fill:none;stroke:#119AD7;stroke-width:0.25;stroke-miterlimit:22.9256;}
	.st41{fill-rule:evenodd;clip-rule:evenodd;fill:#067FC2;}
</style>
<circle class="st12" cx="34.91" cy="34.91" r="34.91"/>
<polygon class="st17" points="19.7,13.79 19.7,24.99 17.82,24.99 17.82,16.42 17.8,16.42 16.48,17.79 16.47,17.79 16.47,15.82 
	18.2,13.79 "/>
<path class="st17" d="M25.44,25v-1.82h0.76v-1.47h-0.76v-7.92h-1.85l-3.26,8.23v1.16h3.32V25H25.44z M21.99,21.71l1.69-4.61h0.02
	v4.61H21.99z"/>
<g>
	<path class="st17" d="M29.96,14.03l0.74,3.96l0.73-3.96h0.47l-0.85,4.55H30.3l-0.86-4.55H29.96z"/>
	<path class="st17" d="M32.8,14.03v4.55h-0.51v-4.55H32.8z"/>
	<path class="st17" d="M34.38,14.03c0.71,0,1.03,0.43,1.03,1.13v2.29c0,0.7-0.33,1.13-1.03,1.13h-1.07v-4.55H34.38z M34.37,18.12
		c0.36,0,0.54-0.23,0.54-0.64v-2.34c0-0.42-0.18-0.64-0.55-0.64h-0.55v3.63H34.37z"/>
	<path class="st17" d="M36.4,17.66l-0.18,0.92h-0.47l0.87-4.55h0.73l0.87,4.55h-0.51l-0.18-0.92H36.4z M36.46,17.23h1.01l-0.51-2.63
		L36.46,17.23z"/>
	<path class="st17" d="M31.54,21.62v0.12h-0.48V21.6c0-0.41-0.16-0.65-0.52-0.65c-0.36,0-0.52,0.24-0.52,0.64
		c0,1.02,1.53,1.12,1.53,2.4c0,0.69-0.33,1.14-1.03,1.14c-0.7,0-1.02-0.45-1.02-1.14v-0.26h0.47v0.29c0,0.41,0.17,0.65,0.53,0.65
		c0.36,0,0.53-0.24,0.53-0.65c0-1.01-1.52-1.11-1.52-2.39c0-0.7,0.33-1.14,1.01-1.14C31.22,20.48,31.54,20.93,31.54,21.62z"/>
	<path class="st17" d="M32.47,24.01c0,0.41,0.16,0.66,0.53,0.66c0.36,0,0.53-0.25,0.53-0.66v-3.48H34v3.45
		c0,0.69-0.32,1.15-1.02,1.15c-0.7,0-1.01-0.46-1.01-1.15v-3.45h0.5V24.01z"/>
	<path class="st17" d="M35.53,20.53c0.71,0,0.99,0.34,0.99,1.01v0.21c0,0.48-0.14,0.78-0.53,0.9c0.44,0.12,0.61,0.47,0.61,0.98v0.38
		c0,0.68-0.33,1.07-1.04,1.07h-1.05v-4.55H35.53z M35.4,22.46c0.4,0,0.61-0.13,0.61-0.6v-0.27c0-0.4-0.14-0.6-0.5-0.6h-0.5v1.47
		H35.4z M35.55,24.62c0.37,0,0.54-0.2,0.54-0.62v-0.4c0-0.51-0.2-0.68-0.64-0.68h-0.44v1.7H35.55z"/>
	<path class="st17" d="M38.73,25.07h-0.49l-0.75-3.62v3.63h-0.44v-4.55h0.71l0.75,3.63l0.72-3.63h0.71v4.55h-0.48v-3.66L38.73,25.07
		z"/>
	<path class="st17" d="M40.97,24.16l-0.18,0.92h-0.47l0.87-4.55h0.73l0.87,4.55h-0.51l-0.18-0.92H40.97z M41.03,23.73h1.01
		l-0.51-2.63L41.03,23.73z"/>
	<path class="st17" d="M44.21,20.53c0.72,0,1.01,0.36,1.01,1.04v0.37c0,0.5-0.18,0.81-0.57,0.94c0.42,0.12,0.57,0.46,0.57,0.95v0.71
		c0,0.2,0.01,0.39,0.09,0.55h-0.51c-0.06-0.13-0.08-0.25-0.08-0.55v-0.71c0-0.51-0.24-0.68-0.66-0.68H43.7v1.94H43.2v-4.55H44.21z
		 M44.08,22.68c0.4,0,0.64-0.13,0.64-0.62v-0.44c0-0.41-0.15-0.62-0.53-0.62H43.7v1.68H44.08z"/>
	<path class="st17" d="M46.26,20.53v4.55h-0.51v-4.55H46.26z"/>
	<path class="st17" d="M47.23,25.08h-0.46v-4.55h0.64l1.05,3.29v-3.29h0.45v4.55H48.4l-1.16-3.68V25.08z"/>
	<path class="st17" d="M49.96,24.16l-0.17,0.92h-0.47l0.87-4.55h0.73l0.87,4.55h-0.51l-0.18-0.92H49.96z M50.02,23.73h1.01
		l-0.51-2.63L50.02,23.73z"/>
</g>
<g>
	<g>
		<path class="st17" d="M48.05,49.92c-0.61-0.83-4.58-5.88-10.13-5.88c-4.82,0-9.99,4.38-9.99,4.38s-1.94-3.97-5.91-4.35
			c-0.02,0-0.05-0.01-0.07-0.01h-0.02c-0.08,0-0.16,0.09-0.15,0.16c0.01,0.07,0.06,0.14,0.06,0.14c0.51,0.85,1.82,3.26,1.82,5.68
			c0,2.42-1.31,4.84-1.82,5.68l-0.03,0.05c-0.01,0.03-0.02,0.05-0.02,0.08c0,0.08,0.06,0.15,0.15,0.16l0.04,0c0.01,0,0.03,0,0.04,0
			c3.98-0.37,5.92-4.35,5.92-4.35s5.16,4.38,9.99,4.38c5.56,0,9.52-5.05,10.13-5.88c0.02-0.02,0.03-0.04,0.04-0.06
			c0.01-0.02,0.01-0.04,0.01-0.06c0-0.02-0.01-0.04-0.01-0.06C48.08,49.96,48.07,49.94,48.05,49.92 M41.01,50.68
			c-0.9,0-1.62-0.73-1.62-1.62c0-0.9,0.73-1.62,1.62-1.62c0.9,0,1.62,0.73,1.62,1.62C42.63,49.95,41.91,50.68,41.01,50.68"/>
	</g>
	<g>
		<path class="st17" d="M21.91,34.55c-0.01,0-0.02-0.01-0.03-0.01c-0.09,0-0.16,0.07-0.16,0.16v1.11c0,0.05,0.02,0.09,0.05,0.12
			c2.68,2.33,5.22,0.15,5.81-0.43c0.01-0.02,0.02-0.03,0.04-0.04c0.03-0.02,0.05-0.03,0.09-0.03c0.04,0,0.08,0.02,0.11,0.04
			c0,0,0.01,0.01,0.01,0.01c3.03,2.89,6.21,0.55,6.87,0l0.06-0.06c0.02-0.01,0.04-0.01,0.06-0.01c0.02,0,0.04,0,0.06,0.01l0.07,0.06
			c0.66,0.55,3.84,2.89,6.87,0c0,0,0,0,0.01-0.01c0.03-0.03,0.07-0.04,0.11-0.04c0.03,0,0.06,0.01,0.09,0.03
			c0.02,0.01,0.03,0.03,0.04,0.04c0.59,0.58,3.12,2.76,5.81,0.43c0.03-0.03,0.05-0.07,0.05-0.12V34.7c0-0.09-0.07-0.16-0.16-0.16
			c-0.01,0-0.02,0-0.04,0.01c-0.03,0.01-0.05,0.03-0.08,0.04c-0.83,0.41-3.38,1.4-5.71-0.8c-0.02-0.02-0.04-0.04-0.07-0.06
			c-0.02-0.01-0.04-0.01-0.07-0.01c-0.02,0-0.03,0-0.05,0.01c-0.03,0.01-0.06,0.04-0.08,0.06c-0.69,0.53-3.87,2.68-6.7,0.04
			l-0.04-0.04c-0.03-0.03-0.07-0.05-0.11-0.05c-0.04,0-0.08,0.02-0.11,0.05l-0.04,0.04c-2.83,2.64-6.01,0.49-6.7-0.04
			c-0.02-0.03-0.05-0.05-0.08-0.06c-0.02,0-0.03-0.01-0.05-0.01c-0.02,0-0.04,0.01-0.07,0.01c-0.02,0.02-0.04,0.04-0.07,0.06
			c-2.32,2.2-4.88,1.21-5.71,0.8C21.96,34.57,21.93,34.56,21.91,34.55"/>
	</g>
	<g>
		<path class="st17" d="M27.57,39.51c0.01-0.02,0.02-0.03,0.04-0.04c0.03-0.02,0.05-0.03,0.09-0.03c0.04,0,0.08,0.02,0.11,0.04
			c0,0,0,0,0.01,0.01c3.03,2.89,6.21,0.55,6.87,0l0.06-0.06c0.02-0.01,0.04-0.01,0.06-0.01c0.02,0,0.04,0,0.06,0.01l0.06,0.06
			c0.66,0.55,3.84,2.89,6.87,0c0,0,0,0,0.01-0.01c0.03-0.03,0.07-0.04,0.11-0.04c0.03,0,0.06,0.01,0.09,0.03
			c0.02,0.01,0.03,0.03,0.04,0.04c0.59,0.58,3.12,2.76,5.81,0.43c0.03-0.03,0.05-0.07,0.05-0.11v-1.11c0-0.09-0.07-0.16-0.16-0.16
			c-0.01,0-0.02,0-0.03,0.01c-0.03,0.01-0.05,0.03-0.08,0.04c-0.82,0.41-3.38,1.39-5.71-0.8c-0.02-0.02-0.04-0.04-0.07-0.06
			c-0.02-0.01-0.04-0.02-0.07-0.02c-0.02,0-0.03,0-0.05,0.01c-0.03,0.01-0.06,0.03-0.08,0.06c-0.69,0.53-3.87,2.68-6.7,0.04
			l-0.04-0.04c-0.03-0.03-0.07-0.04-0.11-0.04c-0.04,0-0.08,0.02-0.11,0.04l-0.04,0.04c-2.83,2.64-6.01,0.49-6.7-0.04
			c-0.02-0.03-0.05-0.05-0.08-0.06c-0.02-0.01-0.03-0.01-0.05-0.01c-0.02,0-0.04,0-0.07,0.02c-0.02,0.02-0.05,0.04-0.07,0.06
			c-2.32,2.19-4.88,1.21-5.7,0.8c-0.03-0.01-0.06-0.03-0.08-0.04c-0.01,0-0.02-0.01-0.03-0.01c-0.09,0-0.16,0.07-0.16,0.16v1.11
			c0,0.05,0.02,0.08,0.05,0.11C24.44,42.27,26.98,40.09,27.57,39.51"/>
	</g>
</g>
</svg>
