<?xml version="1.0" encoding="utf-8"?>
<!-- Generator: Adobe Illustrator 24.0.2, SVG Export Plug-In . SVG Version: 6.00 Build 0)  -->
<svg version="1.1" id="Capa_1" xmlns="http://www.w3.org/2000/svg" xmlns:xlink="http://www.w3.org/1999/xlink" x="0px" y="0px"
	 viewBox="0 0 69.82 69.82" style="enable-background:new 0 0 69.82 69.82;" xml:space="preserve">
<style type="text/css">
	.st0{fill:#D3A13C;}
	.st1{fill:#4D9748;}
	.st2{fill:#D32E3C;}
	.st3{fill:#E0432F;}
	.st4{fill:#2DAFD2;}
	.st5{fill:#B8252F;}
	.st6{fill:#9A2142;}
	.st7{fill:#E46831;}
	.st8{fill:#EEBB27;}
	.st9{fill:#EE9830;}
	.st10{fill:#B6872F;}
	.st11{fill:#CE2364;}
	.st12{fill:#268BC3;}
	.st13{fill:#5DAE49;}
	.st14{fill:#427D44;}
	.st15{fill:#1C4769;}
	.st16{fill:#0B6695;}
	.st17{fill:#FFFFFF;}
	.st18{fill-rule:evenodd;clip-rule:evenodd;fill:#00A0DB;}
	.st19{fill-rule:evenodd;clip-rule:evenodd;fill:#0782BE;}
	.st20{fill-rule:evenodd;clip-rule:evenodd;fill:#FFFFFF;}
	.st21{fill-rule:evenodd;clip-rule:evenodd;fill:#E86537;}
	.st22{fill-rule:evenodd;clip-rule:evenodd;fill:#034569;}
	.st23{fill-rule:evenodd;clip-rule:evenodd;fill:#DE2A66;}
	.st24{fill-rule:evenodd;clip-rule:evenodd;fill:#057C40;}
	.st25{fill-rule:evenodd;clip-rule:evenodd;fill:#CF9521;}
	.st26{fill-rule:evenodd;clip-rule:evenodd;fill:#B31D42;}
	.st27{fill-rule:evenodd;clip-rule:evenodd;fill:#D9272E;}
	.st28{fill-rule:evenodd;clip-rule:evenodd;fill:#E34538;}
	.st29{fill-rule:evenodd;clip-rule:evenodd;fill:#EF9431;}
	.st30{fill-rule:evenodd;clip-rule:evenodd;fill:#ECB129;}
	.st31{fill-rule:evenodd;clip-rule:evenodd;fill:#F7BC13;}
	.st32{fill-rule:evenodd;clip-rule:evenodd;fill:#19A240;}
	.st33{fill-rule:evenodd;clip-rule:evenodd;fill:#02983B;}
	.st34{fill-rule:evenodd;clip-rule:evenodd;fill:#E13244;}
	.st35{fill-rule:evenodd;clip-rule:evenodd;fill:#066698;}
	.st36{fill-rule:evenodd;clip-rule:evenodd;fill:#008CC4;}
	.st37{fill-rule:evenodd;clip-rule:evenodd;fill:#00A3C6;}
	.st38{fill-rule:evenodd;clip-rule:evenodd;fill:#067FC2;stroke:#067FC2;stroke-width:0.25;stroke-miterlimit:22.9256;}
	.st39{fill:none;stroke:#067FC2;stroke-width:0.25;stroke-miterlimit:22.9256;}
	.st40{fill:none;stroke:#119AD7;stroke-width:0.25;stroke-miterlimit:22.9256;}
	.st41{fill-rule:evenodd;clip-rule:evenodd;fill:#067FC2;}
</style>
<circle class="st15" cx="34.91" cy="34.91" r="34.91"/>
<polygon class="st17" points="17.13,12.66 17.13,23.87 15.25,23.87 15.25,15.29 15.23,15.29 13.91,16.66 13.89,16.66 13.89,14.7 
	15.63,12.66 "/>
<polygon class="st17" points="17.99,12.66 22.72,12.66 22.72,14.4 20.26,23.87 18.39,23.87 20.9,14.2 17.99,14.2 "/>
<g>
	<path class="st17" d="M27.3,16.22l-0.17,0.89h-0.46l0.85-4.42h0.71l0.85,4.42h-0.49l-0.17-0.89H27.3z M27.36,15.8h0.99l-0.5-2.55
		L27.36,15.8z"/>
	<path class="st17" d="M29.46,17.11v-4.42h0.49v3.98h1.26v0.45H29.46z"/>
	<path class="st17" d="M32.09,12.69v4.42h-0.49v-4.42H32.09z"/>
	<path class="st17" d="M33.09,16.22l-0.17,0.89h-0.45l0.85-4.42h0.71l0.85,4.42h-0.49l-0.17-0.89H33.09z M33.15,15.8h0.99l-0.5-2.55
		L33.15,15.8z"/>
	<path class="st17" d="M35.69,17.11h-0.44v-4.42h0.63l1.02,3.2v-3.2h0.44v4.42h-0.51l-1.13-3.58V17.11z"/>
	<path class="st17" d="M39.78,17.11h-2.01v-0.44l1.52-3.53h-1.45v-0.45h1.95v0.44l-1.52,3.53h1.51V17.11z"/>
	<path class="st17" d="M40.74,16.22l-0.17,0.89h-0.46l0.85-4.42h0.71l0.85,4.42h-0.49l-0.17-0.89H40.74z M40.8,15.8h0.99l-0.5-2.55
		L40.8,15.8z"/>
	<path class="st17" d="M44.82,13.75v0.12h-0.47v-0.15c0-0.4-0.15-0.63-0.5-0.63s-0.51,0.23-0.51,0.63c0,0.99,1.49,1.09,1.49,2.33
		c0,0.67-0.32,1.11-1,1.11c-0.68,0-0.99-0.44-0.99-1.11V15.8h0.46v0.28c0,0.4,0.16,0.63,0.52,0.63c0.35,0,0.52-0.23,0.52-0.63
		c0-0.99-1.48-1.08-1.48-2.33c0-0.68,0.32-1.11,0.98-1.11C44.5,12.64,44.82,13.08,44.82,13.75z"/>
	<path class="st17" d="M47.2,12.69c0.7,0,0.99,0.41,0.99,1.08v0.53c0,0.7-0.33,1.07-1.03,1.07h-0.44v1.74h-0.49v-4.42H47.2z
		 M47.16,14.93c0.37,0,0.54-0.17,0.54-0.59v-0.59c0-0.4-0.15-0.61-0.51-0.61h-0.47v1.79H47.16z"/>
	<path class="st17" d="M48.99,16.22l-0.17,0.89h-0.46l0.85-4.42h0.71l0.85,4.42h-0.49l-0.17-0.89H48.99z M49.06,15.8h0.99l-0.5-2.55
		L49.06,15.8z"/>
	<path class="st17" d="M52.15,12.69c0.7,0,0.99,0.35,0.99,1.01v0.36c0,0.49-0.17,0.79-0.55,0.91c0.4,0.12,0.56,0.45,0.56,0.92v0.69
		c0,0.2,0.01,0.38,0.09,0.53h-0.5c-0.06-0.13-0.08-0.24-0.08-0.54v-0.7c0-0.5-0.23-0.66-0.65-0.66h-0.35v1.89h-0.49v-4.42H52.15z
		 M52.02,14.77c0.39,0,0.63-0.13,0.63-0.61v-0.42c0-0.4-0.15-0.61-0.51-0.61h-0.48v1.64H52.02z"/>
	<path class="st17" d="M54.15,16.22l-0.17,0.89h-0.46l0.85-4.42h0.71l0.85,4.42h-0.49l-0.17-0.89H54.15z M54.21,15.8h0.99l-0.5-2.55
		L54.21,15.8z"/>
	<path class="st17" d="M26.8,23.43v-4.42h0.49v3.98h1.26v0.45H26.8z"/>
	<path class="st17" d="M28.89,20.08c0-0.68,0.33-1.11,1.01-1.11c0.68,0,1.02,0.44,1.02,1.11v2.29c0,0.67-0.34,1.11-1.02,1.11
		c-0.68,0-1.01-0.44-1.01-1.11V20.08z M29.37,22.39c0,0.4,0.17,0.64,0.52,0.64c0.36,0,0.52-0.23,0.52-0.64v-2.34
		c0-0.4-0.17-0.64-0.52-0.64c-0.35,0-0.52,0.24-0.52,0.64V22.39z"/>
	<path class="st17" d="M33.34,20.08v0.38h-0.47v-0.4c0-0.4-0.16-0.64-0.52-0.64c-0.35,0-0.52,0.24-0.52,0.64v2.34
		c0,0.4,0.16,0.64,0.52,0.64c0.36,0,0.52-0.24,0.52-0.64V21.5h-0.46v-0.44h0.92v1.3c0,0.67-0.32,1.11-1,1.11
		c-0.68,0-0.99-0.44-0.99-1.11v-2.29c0-0.67,0.32-1.11,0.99-1.11C33.02,18.96,33.34,19.41,33.34,20.08z"/>
	<path class="st17" d="M34.79,19.01c0.7,0,0.99,0.35,0.99,1.01v0.36c0,0.49-0.17,0.79-0.55,0.91c0.4,0.12,0.56,0.45,0.56,0.92v0.69
		c0,0.2,0.01,0.38,0.09,0.53h-0.5c-0.06-0.13-0.08-0.24-0.08-0.54v-0.7c0-0.5-0.23-0.66-0.64-0.66H34.3v1.89H33.8v-4.42H34.79z
		 M34.66,21.09c0.39,0,0.63-0.13,0.63-0.61v-0.42c0-0.4-0.15-0.61-0.51-0.61H34.3v1.64H34.66z"/>
	<path class="st17" d="M36.79,22.54l-0.17,0.89h-0.46l0.85-4.42h0.71l0.85,4.42h-0.49l-0.17-0.89H36.79z M36.86,22.12h0.99
		l-0.5-2.55L36.86,22.12z"/>
	<path class="st17" d="M39.95,19.01c0.7,0,0.99,0.35,0.99,1.01v0.36c0,0.49-0.17,0.79-0.55,0.91c0.4,0.12,0.56,0.45,0.56,0.92v0.69
		c0,0.2,0.01,0.38,0.09,0.53h-0.5c-0.06-0.13-0.08-0.24-0.08-0.54v-0.7c0-0.5-0.23-0.66-0.64-0.66h-0.35v1.89h-0.49v-4.42H39.95z
		 M39.82,21.09c0.39,0,0.63-0.13,0.63-0.61v-0.42c0-0.4-0.14-0.61-0.51-0.61h-0.48v1.64H39.82z"/>
	<path class="st17" d="M42.43,23.43v-4.42h0.49v3.98h1.26v0.45H42.43z"/>
	<path class="st17" d="M44.52,20.08c0-0.68,0.33-1.11,1.01-1.11c0.68,0,1.02,0.44,1.02,1.11v2.29c0,0.67-0.33,1.11-1.02,1.11
		c-0.68,0-1.01-0.44-1.01-1.11V20.08z M45.01,22.39c0,0.4,0.17,0.64,0.52,0.64c0.36,0,0.52-0.23,0.52-0.64v-2.34
		c0-0.4-0.17-0.64-0.52-0.64c-0.35,0-0.52,0.24-0.52,0.64V22.39z"/>
	<path class="st17" d="M48.93,20.07v0.12h-0.47v-0.15c0-0.4-0.15-0.63-0.51-0.63c-0.35,0-0.5,0.23-0.5,0.63
		c0,0.99,1.48,1.09,1.48,2.33c0,0.67-0.32,1.11-1,1.11c-0.68,0-0.99-0.44-0.99-1.11v-0.25h0.46v0.28c0,0.4,0.17,0.63,0.52,0.63
		c0.35,0,0.52-0.23,0.52-0.63c0-0.99-1.48-1.08-1.48-2.33c0-0.68,0.32-1.11,0.98-1.11C48.61,18.96,48.93,19.4,48.93,20.07z"/>
	<path class="st17" d="M26.76,26.39c0-0.68,0.34-1.11,1.01-1.11c0.68,0,1.02,0.44,1.02,1.11v2.29c0,0.67-0.33,1.11-1.02,1.11
		c-0.68,0-1.01-0.44-1.01-1.11V26.39z M27.24,28.71c0,0.41,0.17,0.64,0.52,0.64c0.36,0,0.53-0.23,0.53-0.64v-2.34
		c0-0.4-0.16-0.64-0.53-0.64c-0.35,0-0.52,0.24-0.52,0.64V28.71z"/>
	<path class="st17" d="M30.25,25.33c0.69,0,0.96,0.33,0.96,0.98v0.21c0,0.47-0.13,0.76-0.52,0.88c0.43,0.12,0.59,0.46,0.59,0.95
		v0.37c0,0.66-0.32,1.04-1.01,1.04h-1.02v-4.42H30.25z M30.13,27.2c0.39,0,0.59-0.13,0.59-0.59v-0.26c0-0.39-0.13-0.58-0.49-0.58
		h-0.49v1.43H30.13z M30.27,29.3c0.36,0,0.53-0.19,0.53-0.6v-0.39c0-0.49-0.2-0.66-0.62-0.66h-0.43v1.65H30.27z"/>
	<path class="st17" d="M31.61,29.3c0.08,0.01,0.17,0.01,0.25,0.01c0.32-0.02,0.52-0.17,0.52-0.62v-3.36h0.49v3.33
		c0,0.83-0.41,1.09-0.94,1.1c-0.11,0-0.2,0.01-0.31-0.01V29.3z"/>
	<path class="st17" d="M34.92,27.29v0.44h-1.08v1.57h1.33v0.45h-1.82v-4.42h1.82v0.45h-1.33v1.51H34.92z"/>
	<path class="st17" d="M36.25,29.75v-3.98h-0.81v-0.45h2.12v0.45h-0.81v3.98H36.25z"/>
	<path class="st17" d="M38.38,25.33v4.42h-0.49v-4.42H38.38z"/>
	<path class="st17" d="M39.26,25.33l0.72,3.85l0.71-3.85h0.46l-0.83,4.42H39.6l-0.83-4.42H39.26z"/>
	<path class="st17" d="M41.49,26.39c0-0.68,0.34-1.11,1.01-1.11c0.68,0,1.02,0.44,1.02,1.11v2.29c0,0.67-0.33,1.11-1.02,1.11
		c-0.68,0-1.01-0.44-1.01-1.11V26.39z M41.97,28.71c0,0.41,0.17,0.64,0.52,0.64c0.36,0,0.52-0.23,0.52-0.64v-2.34
		c0-0.4-0.16-0.64-0.52-0.64c-0.35,0-0.52,0.24-0.52,0.64V28.71z"/>
	<path class="st17" d="M45.9,26.39v0.12h-0.47v-0.15c0-0.4-0.15-0.63-0.51-0.63c-0.35,0-0.5,0.23-0.5,0.63
		c0,0.99,1.48,1.09,1.48,2.33c0,0.67-0.32,1.11-1,1.11c-0.68,0-0.99-0.44-0.99-1.11v-0.25h0.46v0.28c0,0.4,0.16,0.63,0.52,0.63
		c0.35,0,0.52-0.23,0.52-0.63c0-0.99-1.48-1.08-1.48-2.33c0-0.68,0.32-1.11,0.98-1.11C45.58,25.28,45.9,25.72,45.9,26.39z"/>
</g>
<path class="st17" d="M47.01,46.06c0-3.42-2.72-6.22-6.12-6.34c-0.87-2.46-3.23-4.23-5.99-4.23c-2.76,0-5.11,1.77-5.99,4.23
	c-3.39,0.12-6.11,2.92-6.11,6.34c0,2.03,0.96,3.84,2.45,5.01c-0.16,0.56-0.25,1.15-0.25,1.76c0,3.5,2.85,6.35,6.35,6.35
	c1.33,0,2.56-0.41,3.58-1.11c1.01,0.67,2.22,1.07,3.52,1.07c3.5,0,6.35-2.85,6.35-6.35c0-0.6-0.08-1.18-0.24-1.73
	C46.06,49.9,47.01,48.09,47.01,46.06 M39.98,41.83c0,2.54-1.88,4.65-4.32,5.01c-0.04-0.25-0.07-0.51-0.07-0.78
	c0-2.54,1.88-4.65,4.32-5.01C39.96,41.31,39.98,41.57,39.98,41.83 M34.93,56.42c-0.95-0.92-1.54-2.21-1.54-3.63
	c0-1.4,0.57-2.67,1.49-3.59c0.95,0.92,1.54,2.21,1.54,3.63C36.43,54.23,35.86,55.5,34.93,56.42 M29.91,41.05
	c2.44,0.36,4.32,2.47,4.32,5.01c0,0.27-0.03,0.52-0.07,0.78c-2.44-0.36-4.32-2.47-4.32-5.01C29.84,41.57,29.87,41.31,29.91,41.05
	 M33.69,48.33c-0.83,1.66-2.55,2.8-4.53,2.8c-0.84,0-1.63-0.21-2.33-0.57c0.83-1.66,2.55-2.8,4.53-2.8
	C32.2,47.76,32.99,47.97,33.69,48.33 M36.12,48.3c0.7-0.37,1.5-0.58,2.35-0.58c1.99,0,3.72,1.16,4.55,2.84
	c-0.7,0.37-1.5,0.58-2.35,0.58C38.67,51.14,36.95,49.98,36.12,48.3 M34.91,36.76c2.08,0,3.87,1.26,4.65,3.05
	c-2.06,0.36-3.79,1.73-4.65,3.57c-0.86-1.84-2.58-3.2-4.65-3.57C31.05,38.02,32.83,36.76,34.91,36.76 M24.09,46.06
	c0-2.61,1.99-4.77,4.53-5.04c-0.03,0.27-0.05,0.54-0.05,0.81c0,1.86,0.8,3.53,2.07,4.69c-2.11,0.24-3.9,1.51-4.87,3.3
	C24.74,48.9,24.09,47.56,24.09,46.06 M26.29,52.83c0-0.36,0.04-0.71,0.11-1.05c0.83,0.4,1.77,0.63,2.76,0.63
	c1.11,0,2.16-0.29,3.07-0.79c-0.07,0.38-0.11,0.77-0.11,1.17c0,1.72,0.69,3.27,1.79,4.42c-0.75,0.44-1.62,0.7-2.55,0.7
	C28.56,57.9,26.29,55.63,26.29,52.83 M43.54,52.79c0,2.8-2.28,5.07-5.07,5.07c-0.91,0-1.76-0.24-2.5-0.67
	c1.08-1.14,1.74-2.67,1.74-4.36c0-0.42-0.04-0.82-0.12-1.21c0.91,0.51,1.96,0.8,3.07,0.8c0.99,0,1.93-0.23,2.77-0.64
	C43.5,52.1,43.54,52.44,43.54,52.79 M39.23,46.49c1.25-1.16,2.04-2.82,2.04-4.65c0-0.27-0.02-0.55-0.05-0.81
	c2.54,0.27,4.53,2.43,4.53,5.04c0,1.49-0.64,2.82-1.67,3.75C43.11,48.02,41.33,46.74,39.23,46.49"/>
</svg>
