<?xml version="1.0" standalone="no"?>
<!DOCTYPE svg PUBLIC "-//W3C//DTD SVG 20010904//EN"
 "http://www.w3.org/TR/2001/REC-SVG-20010904/DTD/svg10.dtd">
<svg version="1.0" xmlns="http://www.w3.org/2000/svg"
 width="890.000000pt" height="750.000000pt" viewBox="0 0 890.000000 750.000000"
 preserveAspectRatio="xMidYMid meet">
<metadata>
Created by potrace 1.16, written by Peter Selinger 2001-2019
</metadata>
<g transform="translate(0.000000,750.000000) scale(0.100000,-0.100000)"
fill="#000000" stroke="none">
<path d="M0 3750 l0 -3750 4445 0 4445 0 0 3750 0 3750 -4445 0 -4445 0 0
-3750z m6698 -2998 c2 -157 2 -162 -18 -162 -11 0 -20 7 -20 16 0 14 -2 14
-22 0 -34 -24 -85 -20 -113 8 -33 33 -41 87 -21 140 23 61 60 75 135 55 11 -3
14 6 12 43 -3 54 4 70 27 66 15 -3 17 -24 20 -166z m1300 100 c3 -62 3 -62 25
-47 73 51 165 -39 137 -135 -21 -72 -92 -104 -148 -64 -20 14 -22 14 -22 -1 0
-10 -7 -15 -17 -13 -16 3 -18 20 -21 153 -1 82 0 155 3 163 3 7 13 12 22 10
15 -3 19 -16 21 -66z m-2869 -42 c12 -6 29 -5 50 3 27 10 37 9 62 -6 28 -15
33 -15 52 -2 30 21 73 19 96 -6 21 -23 35 -98 29 -164 -2 -33 -7 -41 -25 -43
-22 -3 -23 -1 -23 80 0 88 -8 108 -43 108 -34 0 -46 -30 -47 -112 0 -71 -2
-78 -20 -78 -18 0 -20 7 -20 78 -1 83 -13 112 -48 112 -36 0 -52 -37 -52 -117
0 -66 -2 -73 -20 -73 -19 0 -20 7 -20 115 0 63 3 115 6 115 3 0 13 -4 23 -10z
m472 -9 c22 -17 24 -29 27 -115 4 -92 3 -96 -17 -96 -12 0 -21 5 -21 10 0 7
-6 7 -19 0 -47 -24 -109 -3 -112 38 -4 49 18 78 65 87 65 13 67 15 55 36 -8
17 -19 20 -54 18 -52 -3 -68 7 -41 27 28 20 89 18 117 -5z m213 9 c16 -6 27
-6 31 0 4 6 13 10 21 10 11 0 14 -22 14 -115 0 -166 -20 -205 -109 -205 -52 0
-71 8 -71 30 0 16 4 17 40 8 48 -12 85 6 92 47 5 22 3 25 -16 18 -65 -23 -122
5 -135 68 -21 100 48 172 133 139z m261 -2 c16 -7 29 -25 36 -49 18 -59 10
-67 -68 -67 -79 1 -93 -15 -46 -52 22 -17 36 -20 65 -16 22 4 39 2 44 -5 21
-35 -101 -41 -141 -6 -43 36 -49 130 -12 176 25 30 79 39 122 19z m125 -2 c0
-13 4 -13 28 0 33 17 53 18 87 2 32 -14 40 -42 40 -138 0 -70 -1 -75 -22 -78
-22 -3 -23 0 -23 73 0 86 -11 115 -42 115 -44 0 -58 -27 -58 -112 0 -77 -1
-79 -22 -76 -22 3 -23 7 -25 108 0 58 1 108 4 113 8 13 33 8 33 -7z m694 3
c42 -20 64 -113 26 -115 -8 -1 -41 -2 -72 -2 -33 -1 -58 -7 -58 -12 0 -6 12
-22 26 -37 22 -22 31 -24 70 -18 35 5 44 3 44 -8 0 -19 -22 -27 -75 -27 -62 0
-95 31 -102 93 -12 101 58 163 141 126z m222 -3 c5 -12 10 -12 33 1 63 37 141
-15 141 -95 0 -44 -24 -98 -48 -111 -25 -13 -77 -14 -101 -2 -15 8 -17 6 -13
-19 7 -46 -5 -80 -28 -80 -19 0 -20 7 -20 160 0 137 2 160 15 160 9 0 18 -6
21 -14z m402 2 c7 -7 12 -41 12 -83 0 -75 9 -95 46 -95 34 0 43 20 46 105 3
72 5 80 23 80 19 0 20 -8 23 -112 3 -108 2 -113 -18 -113 -12 0 -20 7 -21 18
0 9 -3 12 -6 5 -6 -15 -65 -27 -96 -19 -34 8 -47 46 -47 141 0 86 8 103 38 73z
m347 0 c16 -7 29 -25 36 -49 15 -49 7 -70 -28 -68 -113 6 -139 -9 -86 -51 22
-17 36 -20 65 -16 22 4 39 2 44 -5 20 -33 -99 -41 -139 -9 -46 36 -53 103 -17
169 20 38 77 51 125 29z m460 6 c30 -12 45 -60 45 -144 0 -73 -2 -80 -20 -80
-11 0 -20 5 -20 10 0 7 -6 7 -19 0 -46 -24 -105 -6 -115 34 -13 51 25 90 94
98 33 4 39 35 8 47 -12 4 -35 5 -50 0 -34 -9 -49 8 -23 28 20 14 72 17 100 7z"/>
<path d="M8017 762 c-37 -40 -9 -142 39 -142 27 0 64 47 64 82 0 68 -63 104
-103 60z"/>
<path d="M7143 761 c-7 -11 -13 -38 -15 -61 -2 -34 3 -46 21 -61 30 -24 46
-24 71 1 27 27 30 74 8 118 -15 29 -68 31 -85 3z"/>
</g>
</svg>
