<?xml version="1.0" encoding="utf-8"?>
<!-- Generator: Adobe Illustrator 24.0.2, SVG Export Plug-In . SVG Version: 6.00 Build 0)  -->
<svg version="1.1" id="Capa_1" xmlns="http://www.w3.org/2000/svg" xmlns:xlink="http://www.w3.org/1999/xlink" x="0px" y="0px"
	 viewBox="0 0 14.48 19" style="enable-background:new 0 0 14.48 19;" xml:space="preserve">
<style type="text/css">
	.st0{fill:#FFFFFF;}
</style>
<path class="st0" d="M9.53,7.82c1.18-0.76,1.96-2.07,1.96-3.57C11.49,1.9,9.58,0,7.24,0C4.89,0,2.99,1.9,2.99,4.25
	c0,1.5,0.78,2.82,1.96,3.57C2.18,8.07,0,10.4,0,13.23v4.41l0.01,0.07l0.3,0.09C3.18,18.7,5.66,19,7.71,19c4,0,6.31-1.14,6.45-1.21
	l0.28-0.14h0.03v-4.41C14.48,10.4,12.3,8.07,9.53,7.82z"/>
</svg>
